<svg width="1114" height="1156" viewBox="0 0 1114 1156" fill="none" xmlns="http://www.w3.org/2000/svg">
<path d="M548.264 1038.33C550.326 1031.87 547.795 1025.71 546.389 1019.72C543.202 1006.2 538.647 993.002 535.376 979.504C532.179 966.306 527.08 953.718 523.912 940.529C518.053 916.177 511.858 891.9 505.896 867.576C504.471 861.764 501.931 856.75 496.785 853.516C494.957 852.372 492.436 850.948 490.646 851.369C484.628 852.813 479.229 851.06 473.623 849.56C468.627 848.229 463.425 849.542 458.382 849.72C448.55 850.076 438.773 850.207 428.978 849.467C428.031 849.392 427.094 848.97 426.147 848.932C415.593 848.52 405.038 848.042 394.484 847.807C372.991 847.32 351.525 845.923 330.042 845.117C315.719 844.583 301.368 845.089 287.046 843.946C271.992 842.746 256.882 842.315 241.81 841.134C235.848 840.665 229.699 841.34 223.747 842.24C217.514 843.177 214.824 847.508 216.426 853.422C221.31 871.522 226.212 889.622 231.255 907.666C238.482 933.49 246.89 958.985 254.839 984.603C257.416 992.917 260.041 1001.21 262.759 1009.48C265.449 1017.67 270.923 1022.26 279.688 1023.73C297.881 1026.77 316.178 1027.38 334.55 1027.65C347.617 1027.83 360.599 1029.14 373.581 1030.83C384.614 1032.28 395.796 1032.56 406.922 1033.22C426.738 1034.41 446.572 1035.15 466.303 1037.64C476.389 1038.9 486.653 1038.8 496.813 1039.48C509.261 1040.33 521.69 1041.42 534.138 1042.24C537.85 1042.48 541.731 1042.89 544.899 1040.05C545.302 1039.68 546.033 1039.44 546.567 1039.48C557.187 1040.57 565.764 1034.55 574.753 1030.77C595.365 1022.09 615.649 1012.62 636.449 1004.35C642.223 1002.06 643.039 999.929 641.651 995.889C640.695 993.095 638.98 992.852 636.486 992.43C625.791 990.649 614.918 992.242 604.233 990.311C598.44 989.271 592.572 988.512 586.714 988.071C581.84 987.706 576.918 987.996 572.016 987.996" stroke="black" stroke-width="1.87468" stroke-linecap="round" stroke-linejoin="round"/>
<path d="M563.535 761.853C567.331 774.563 573.096 786.317 581.11 796.872C586.781 804.342 593.511 810.407 603.091 812.816C613.749 815.497 623.534 813.378 633.076 808.766C644.859 803.067 654.757 795.034 662.434 784.433C665.518 780.178 668.78 776.138 672.651 772.594C677.113 768.508 678.472 768.583 682.831 773.157C678.744 780.965 677.797 789.701 675.463 798.025C670.795 814.681 667.664 831.863 659.078 847.216C658.01 849.138 656.913 851.041 655.601 853.356C653.342 850.937 653.979 848.585 654.523 846.082C655.695 840.627 657.56 835.349 658.16 829.716C658.385 827.607 657.663 826.567 656.754 825.029C649.339 829.735 644.999 837.149 639.872 843.842C633.92 851.612 628.446 859.814 620.057 865.297C608.537 872.824 604.525 871.84 595.845 862.401C588.9 854.846 585.01 845.248 581.138 835.884C575.758 822.873 571.025 809.591 568.072 795.775C567.716 794.116 567.669 792.391 567.481 790.695" stroke="black" stroke-width="1.87468" stroke-linecap="round" stroke-linejoin="round"/>
<path d="M693.576 609.759C695.685 604.491 693.285 599.336 692.151 594.565C690.398 587.197 689.245 579.633 686.752 572.462C680.594 554.747 671.792 538.474 654.423 529.767C644.693 524.892 636.745 517.178 626.8 513.251C606.909 505.396 586.681 501.534 566.941 514.216C564.56 515.744 562.189 517.3 560.117 518.65C560.277 526.43 567.878 520.852 569.772 524.958C579.267 516.681 595.089 520.965 603.076 526.73C608.812 530.873 614.033 535.737 619.545 540.209C621.682 541.943 623.781 543.883 627.531 543.564C629.087 537.303 622.947 533 622.9 526.655C630.83 526.57 637.363 530.273 643.203 534.678C658.088 545.908 668.971 560.446 674.763 578.171C677.95 587.919 680.181 598.127 678.897 608.644" stroke="black" stroke-width="1.87468" stroke-linecap="round" stroke-linejoin="round"/>
<path d="M557.313 522.69C544.059 514.863 531.893 520.403 520.035 526.158C499.367 536.197 485.691 552.816 476.383 573.54C471.809 583.72 468.191 593.918 467.282 605.223C465.904 622.357 475.568 646.241 494.586 652.071C497.417 652.943 499.311 655.652 502.479 655.558" stroke="black" stroke-width="1.87468" stroke-linecap="round" stroke-linejoin="round"/>
<path d="M656.255 674.219C661.888 675.953 668.328 678.352 668.927 684.426C669.837 693.725 673.886 702.058 675.264 711C676.52 719.146 674.167 727.319 672.068 735.277C667.222 753.649 659.085 770.287 644.885 783.269C637.095 790.393 628.022 795.37 617.252 796.973C603.173 799.063 592.909 793.87 584.886 782.304C580.143 775.47 576.496 768.225 573.141 760.726" stroke="black" stroke-width="1.87468" stroke-linecap="round" stroke-linejoin="round"/>
<path d="M716.75 726.232C729.048 713.925 743.83 710.973 760.271 714.975C769.419 717.206 777.246 722.136 784.614 727.901C796.724 737.387 805.901 748.879 811.262 763.51C815.574 775.274 819.164 787.028 817.936 799.729C816.371 815.992 810.072 830.502 800.848 843.737C799.114 846.231 798.777 849.933 795.327 851.18" stroke="black" stroke-width="1.87468" stroke-linecap="round" stroke-linejoin="round"/>
<path d="M685.654 927.518C679.777 928.54 673.834 927.387 668.163 926.684C653.794 924.912 639.668 923.563 625.13 925.578C616.113 926.825 607.114 928.427 598.059 929.515C590.889 930.377 583.606 929.384 576.519 931.408C570.53 933.114 564.962 935.579 560.2 939.469C555.476 943.331 550.949 947.24 545.531 950.305C538.454 954.317 535.117 961.319 534.133 969.361" stroke="black" stroke-width="1.87468" stroke-linecap="round" stroke-linejoin="round"/>
<path d="M821.914 779.382C821.933 782.184 822.636 784.35 824.529 786.89C828.916 792.758 830.069 800.285 832.637 807.099C837.343 819.556 840.267 832.595 842.536 845.586C844.448 856.591 846.126 867.736 847.466 878.881C848.516 887.579 852.125 895.49 856.23 903.298C859.005 908.576 862.36 914.134 860.926 920.733" stroke="black" stroke-width="1.87468" stroke-linecap="round" stroke-linejoin="round"/>
<path d="M734.281 865.318C739.521 855.654 741.808 844.706 747.779 835.304C753.712 825.95 758.502 815.939 761.942 805.375C764.248 798.289 766.357 791.118 768.082 783.872C768.663 781.426 768.813 778.558 767.248 775.783C761.37 780.507 758.774 787.425 755.756 794.08C752.138 802.066 749.007 810.287 744.451 817.832" stroke="black" stroke-width="1.87468" stroke-linecap="round" stroke-linejoin="round"/>
<path d="M538.658 535.703C524.12 536.209 512.534 542.911 503.714 553.888C493.141 567.038 485.183 581.989 480.121 597.98C476.194 610.428 480.843 622.435 487.92 632.849C492.775 639.992 499.196 645.953 507.529 649.412C510.36 650.584 512.966 651.924 516.04 650.481" stroke="black" stroke-width="1.87468" stroke-linecap="round" stroke-linejoin="round"/>
<path d="M519.997 714.929C508.786 719.025 498.644 725.755 486.665 728.042C482.034 728.933 478.079 731.82 474.789 735.297C468.734 741.68 462.322 747.698 456.529 754.372C450.971 760.774 445.009 766.961 438.064 772.088C429.468 778.434 424.791 787.666 421.791 797.527C419.907 803.704 414.79 808.325 414.171 814.999C414.105 815.73 412.943 816.724 411.453 816.761C401.414 817.024 391.628 828.628 393.399 838.18C393.971 841.273 391.993 842.491 389.969 843.841" stroke="black" stroke-width="1.87468" stroke-linecap="round" stroke-linejoin="round"/>
<path d="M824.741 799.73C831.208 814.803 831.396 829.547 822.482 843.832C817.495 851.837 818.057 856.074 825.247 863.113C830.59 868.353 837.367 872.009 841.828 878.551C840.179 883.182 836.589 881.663 833.223 881.167C824.159 879.836 815.123 881.007 805.984 881.054C808.675 885.094 811.955 887.541 815.658 889.687C825.303 895.264 834.939 900.804 845.053 905.538C850.724 908.19 856.113 911.593 856.404 919.026" stroke="black" stroke-width="1.87468" stroke-linecap="round" stroke-linejoin="round"/>
<path d="M761.981 749.414C752.786 754.851 748.521 763.962 744.481 773.176C740.113 783.13 737.067 793.497 735.417 804.258C735.361 804.623 735.398 805.008 735.417 805.392C736.017 821.852 733.308 838.162 733.149 854.584C733.121 857.096 733.102 859.608 734.283 861.932" stroke="black" stroke-width="1.87468" stroke-linecap="round" stroke-linejoin="round"/>
<path d="M700.92 815.561C701.126 824.615 701.041 833.642 701.829 842.715C702.644 852.126 700.62 861.584 699.232 870.967C696.552 889.029 691.659 906.567 686.888 924.142C686.597 925.22 685.603 925.829 685.613 927.113C688.05 928.988 691.096 928.454 693.533 927.929C699.682 926.598 704.753 928.688 709.365 932.081C724.606 943.32 728.918 959.405 728.562 977.261C728.384 985.819 719.31 992.427 710.546 990.478C703.797 988.978 696.861 988.191 690.112 987.403C686.7 987 682.623 987.019 678.873 986.822C661.354 985.894 643.901 983.916 626.288 984.46C620.477 984.638 614.609 983.101 608.77 982.342" stroke="black" stroke-width="1.87468" stroke-linecap="round" stroke-linejoin="round"/>
<path d="M656.255 634.073C657.924 634.917 657.764 636.801 657.83 638.038C658.055 642.594 659.545 646.381 664.035 649.474C656.011 652.858 655.458 659.906 654.099 666.327C653.349 669.842 656.386 673.067 655.262 677.088C653.452 683.518 653.162 690.276 651.887 696.866C650.275 705.208 646.347 712.369 640.855 718.19C626.12 733.778 609.669 747.417 589.488 755.496C582.411 758.327 575.025 760.858 566.908 759.771C563.749 759.349 560.543 760.708 558.884 764.626C557.019 769.022 554.16 773.081 551.976 777.28C549.933 781.226 550.261 786.522 550.017 791.256C549.286 805.232 551.657 818.879 554.394 832.546C557.084 845.969 557.459 859.607 555.622 873.236" stroke="black" stroke-width="1.87468" stroke-linecap="round" stroke-linejoin="round"/>
<path d="M616.683 602.982C611.378 599.457 605.744 596.711 599.764 594.396C579.049 586.381 564.529 572.162 558.577 550.359C556.937 544.37 556.356 538.024 556.853 531.125C545.173 531.444 537.646 536.468 532.913 546.385C531.207 549.966 529.679 553.631 527.87 557.146C524.139 564.391 518.15 569.884 511.438 573.999C494.829 584.179 490.226 598.689 493.273 617.135C494.679 625.618 497.35 633.398 501.343 640.86" stroke="black" stroke-width="1.87468" stroke-linecap="round" stroke-linejoin="round"/>
<path d="M664.166 626.724C663.978 626.537 663.716 626.153 663.613 626.19C655.233 629.283 649.796 639.716 649.112 648.752C648.643 654.901 649.478 661.5 647.031 668.745C643.807 662.353 641.182 657.15 638.764 652.361C636.514 651.695 636.092 653.682 634.387 654.263C633.721 650.73 633.515 647.346 632.409 644.29C631.106 640.709 629.269 637.26 625.941 634.364C615.134 642.219 603.876 649.642 592.337 656.635C589.61 658.285 589.207 659.972 590.022 662.934C591.484 668.277 590.969 673.882 590.547 679.29C589.975 686.583 581.455 692.151 574.284 690.604C573.703 690.482 573.047 689.939 572.597 690.089C561.058 694.035 555.819 685.008 549.482 678.653C546.576 675.738 547.092 671.098 545.705 667.33C544.177 663.187 546.895 659.344 550.701 656.944C548.151 652.52 544.477 650.889 539.79 651.011C535.338 651.123 531.42 649.071 527.352 647.636" stroke="black" stroke-width="1.87468" stroke-linecap="round" stroke-linejoin="round"/>
<path d="M763.116 919.035C760.885 921.847 760.623 924.247 763.613 927.021C767.822 930.921 772.424 934.623 774.908 939.994C775.761 941.85 777.467 944.109 774.786 946.34C773.005 944.99 770.802 943.903 769.387 942.169C761.945 933.02 751.362 928.98 740.976 924.894C737.714 923.609 732.681 923.3 729.906 924.959C722.229 929.552 715.059 926.749 707.71 925.175C705.592 924.715 703.801 924.378 702.039 925.822" stroke="black" stroke-width="1.87468" stroke-linecap="round" stroke-linejoin="round"/>
<path d="M683.391 775.426C685.64 777.413 685.087 780.366 685.518 782.803C686.99 791.145 690.646 798.156 696.982 803.668C703.562 809.395 707.574 815.985 707.283 825.189C707.087 831.488 710.096 837.431 714.07 842.014C720.753 849.738 727.014 857.752 733.135 865.898C735.291 868.776 735.198 872.253 734.766 875.487C733.435 885.516 734.832 895.087 738.797 904.329" stroke="black" stroke-width="1.87468" stroke-linecap="round" stroke-linejoin="round"/>
<path d="M573.141 524.387C583.751 528.108 593.162 533.76 599.602 543.124C603.595 548.926 606.622 555.422 609.866 561.721C615.64 572.95 625.116 579.709 637.067 581.893C661.166 586.289 669.143 599.411 670.971 619.939C671.037 620.708 671.336 621.448 671.524 622.198" stroke="black" stroke-width="1.87468" stroke-linecap="round" stroke-linejoin="round"/>
<path d="M640.989 995.361C622.345 1003.41 603.486 1010.91 584.43 1017.93C574.475 1021.61 564.915 1026.31 554.529 1028.93C552.804 1029.36 551.098 1029.55 549.383 1029.85" stroke="black" stroke-width="1.87468" stroke-linecap="round" stroke-linejoin="round"/>
<path d="M854.714 943.341C846.175 927.069 830.934 916.552 818.13 902.557C825.254 900.842 830.109 903.832 834.843 905.66C839.839 907.591 844.469 910.637 848.556 914.433C852.174 917.799 855.914 921.417 861.332 920.704C862.822 925.982 861.8 930.125 859.326 934.352C856.833 938.598 855.239 943.041 855.005 948.421C854.536 958.985 854.227 969.643 852.033 980.132C851.312 983.572 849.952 986.656 847.281 987.837C841.788 990.264 835.995 993.498 829.865 992.364C821.86 990.883 814.034 992.936 806.057 992.28C799.795 991.764 793.29 991.792 786.841 992.373C776.906 993.273 767.082 994.304 757.428 996.957C754.803 997.679 751.7 997.557 748.991 996.985C737.406 994.539 725.98 997.088 714.479 997.585C707.449 997.894 700.662 996.985 694.616 992.655C692.845 991.38 692.554 990.349 692.995 988.596" stroke="black" stroke-width="1.87468" stroke-linecap="round" stroke-linejoin="round"/>
<path d="M590.67 607.501C593.398 614.184 595.235 621.373 601.946 625.638C604.28 627.129 604.936 629.922 606.811 633.512C599.031 631.637 592.263 632.387 585.421 628.713C575.457 623.361 570.555 614.99 566.983 605.223C565.559 601.333 563.534 598.071 560.75 595.025C552.239 585.717 545.462 575.444 542.472 562.874C541.563 559.078 543.512 555 540.766 550.97C533.755 561.084 529.283 571.338 529.433 583.767C529.583 596.721 531.102 609.047 537.485 620.539C541.019 626.885 545.331 632.528 551.133 636.858C554.273 639.202 558.144 640.205 561.837 641.433" stroke="black" stroke-width="1.87468" stroke-linecap="round" stroke-linejoin="round"/>
<path d="M592.371 965.959C579.304 968.162 574.13 978.819 568.037 988.558C565.16 993.161 561.832 997.501 559.104 1002.2C557.942 1004.2 555.964 1004.49 554.408 1005.39C552.421 1006.54 549.881 1006.98 547.678 1004.99C545.607 1003.12 546.122 1000.5 546.722 998.794C549.59 990.574 552.965 982.522 556.199 974.433C556.939 972.586 558.289 970.946 557.877 968.771" stroke="black" stroke-width="1.87468" stroke-linecap="round" stroke-linejoin="round"/>
<path d="M544.873 785.604C546.861 790.693 544.386 795.717 544.667 800.882C545.633 818.907 548.904 836.66 550.404 854.592C551.013 861.95 551.735 869.055 555.625 875.504" stroke="black" stroke-width="1.87468" stroke-linecap="round" stroke-linejoin="round"/>
<path d="M474.195 760.158C474.383 761.105 475.02 762.248 474.692 762.951C469.827 773.506 472.049 784.342 472.996 795.215C474.261 809.715 477.813 824.029 476.492 838.745C476.239 841.557 476.567 844.453 473.061 845.522" stroke="black" stroke-width="1.87468" stroke-linecap="round" stroke-linejoin="round"/>
<path d="M475.332 764.682C477.675 767.719 476.841 771.543 477.385 774.889C479.644 788.893 480.347 803.056 479.878 817.257C479.503 828.702 480.187 840.063 483.243 851.179" stroke="black" stroke-width="1.87468" stroke-linecap="round" stroke-linejoin="round"/>
<path d="M743.325 906.598C746.831 901.199 752.793 899.361 758.004 896.381C765.784 891.938 773.348 887.129 780.05 881.121C782.094 879.293 784.493 877.559 784.672 874.063C778.007 870.623 772.027 873.659 766.581 876.753C757.657 881.824 749.746 888.319 744.394 897.037C738.395 895.2 738.62 889.688 736.539 885.676" stroke="black" stroke-width="1.87468" stroke-linecap="round" stroke-linejoin="round"/>
<path d="M569.19 525.521C564.766 537.762 573.24 546.995 581.648 553.772C583.438 555.215 585.266 556.715 587.309 557.699C599.701 563.68 605.925 574.647 611.043 586.579C615.664 597.349 620.219 599.289 631.974 597.48C638.282 596.505 644.778 597.855 648.827 603.601C651.92 607.997 655.088 612.459 656.832 617.67" stroke="black" stroke-width="1.87468" stroke-linecap="round" stroke-linejoin="round"/>
<path d="M690.738 606.367C692.884 614.663 690.485 622.705 688.919 630.654C686.314 643.926 683.83 657.255 679.977 670.247C678.918 673.818 677.362 677.174 675.6 680.501C674.222 683.107 672.628 684.607 669.816 684.954" stroke="black" stroke-width="1.87468" stroke-linecap="round" stroke-linejoin="round"/>
<path d="M689.041 692.874C699.83 700.101 702.727 710.468 701.555 722.85C700.111 738.091 696.531 752.423 686.867 764.749C686.248 765.537 685.901 765.809 685.086 765.809" stroke="black" stroke-width="1.87468" stroke-linecap="round" stroke-linejoin="round"/>
<path d="M805.519 984.049C807.084 975.472 804.15 967.402 802.669 959.172C802.276 956.96 800.42 955.882 798.751 954.617C789.922 947.905 787.841 937.126 783.004 928.015C782.385 926.843 782.367 924.734 783.82 923.703C793.081 924.669 799.614 929.627 804.357 937.135C807.497 942.103 808.05 947.98 808.725 953.539C809.531 960.25 809.156 967.083 809.878 973.888C810.59 980.572 811.659 986.571 817.958 990.264" stroke="black" stroke-width="1.87468" stroke-linecap="round" stroke-linejoin="round"/>
<path d="M791.386 743.197C789.858 739.091 785.65 740.244 782.838 739.485C777.401 738.023 766.453 746.084 762.957 750.996C756.461 760.116 752.271 770.202 748.437 780.522C744.379 791.451 741.839 802.643 742.017 814.444C742.054 816.956 744.538 818.7 743.329 821.231" stroke="black" stroke-width="1.87468" stroke-linecap="round" stroke-linejoin="round"/>
<path d="M550.525 778.818C545.463 779.737 543.664 784.199 542.201 787.929C537.524 799.899 526.679 805.964 518.515 814.653C507.97 825.882 495.559 835.959 490.02 851.19" stroke="black" stroke-width="1.87468" stroke-linecap="round" stroke-linejoin="round"/>
<path d="M681.698 691.749C681.435 693.558 682.588 694.242 683.919 695.198C690.809 700.157 693.04 707.496 693.546 715.492C694.464 730.011 691.052 743.856 686.066 757.269C684.463 761.581 685.831 766.68 682.27 770.336" stroke="black" stroke-width="1.87468" stroke-linecap="round" stroke-linejoin="round"/>
<path d="M743.324 712.659C744.065 710.137 741.722 709.359 740.456 708.806C724.971 702.067 709.44 695.102 692.942 691.494C685.434 689.853 677.176 689.76 669.265 691.175C663.716 692.169 662.001 690.8 661.963 684.951C661.954 683.236 661.101 681.211 663.051 679.861" stroke="black" stroke-width="1.87468" stroke-linecap="round" stroke-linejoin="round"/>
<path d="M655.693 958.046C654.868 962.17 654.015 966.276 651.737 969.922C646.882 977.693 639.177 980.542 630.244 977.833C616.222 973.578 609.323 975.968 600.84 988.003C600.69 988.219 600.465 988.388 600.277 988.575" stroke="black" stroke-width="1.87468" stroke-linecap="round" stroke-linejoin="round"/>
<path d="M669.818 625.593C677.945 635.838 678.179 648.492 670.409 656.666C669.453 655.925 668.497 655.194 667.55 654.463C668.122 652.467 669.349 650.836 669.949 648.811C671.252 644.434 670.559 641.828 665.891 640.206C659.91 638.135 659.179 635.529 663.116 630.739C664.953 628.508 665.019 625.302 669.171 624.14C675.133 622.472 677.589 622.05 679.304 627.88C683.41 641.818 682.885 663.255 666.453 673.107C665.206 673.857 663.388 674.372 663.604 676.462" stroke="black" stroke-width="1.87468" stroke-linecap="round" stroke-linejoin="round"/>
<path d="M448.757 775.988C450.575 779.859 447.829 783.384 447.904 787.302C448.232 804.118 453.481 819.125 462.386 833.063C464.607 836.54 468.741 838.49 470.334 842.68C471.047 844.555 472.181 846.242 471.947 848.37" stroke="black" stroke-width="1.87468" stroke-linecap="round" stroke-linejoin="round"/>
<path d="M450.453 780.515C453.471 791.069 456.452 801.633 459.508 812.169C461.317 818.411 462.948 824.738 465.338 830.756C466.06 832.584 465.985 834.206 466.275 835.921" stroke="black" stroke-width="1.87468" stroke-linecap="round" stroke-linejoin="round"/>
<path d="M641.555 554.354C641.648 557.372 644.489 556.744 646.082 557.737C654.284 562.836 658.802 571.151 664.116 578.706C669.769 586.748 673.499 595.746 676.068 605.232C676.396 606.442 676.499 607.838 677.736 608.635" stroke="black" stroke-width="1.87468" stroke-linecap="round" stroke-linejoin="round"/>
<path d="M801.566 917.9C820.36 920.684 831.243 933.807 840.372 948.561C843.409 953.472 846.109 959.528 843.409 965.958" stroke="black" stroke-width="1.87468" stroke-linecap="round" stroke-linejoin="round"/>
<path d="M712.797 935.99C711.026 938.165 713.35 939.515 713.997 941.052C720.399 956.265 724.186 971.665 718.45 988.013" stroke="black" stroke-width="1.87468" stroke-linecap="round" stroke-linejoin="round"/>
<path d="M566.359 651.04C567.306 651.415 568.243 652.118 569.19 652.118C574.711 652.118 579.988 652.952 582.688 658.426C585.819 664.781 588.574 671.071 586.353 678.804C584.525 685.178 579.032 685.647 574.842 688.356" stroke="black" stroke-width="1.87468" stroke-linecap="round" stroke-linejoin="round"/>
<path d="M823.609 799.73C821.134 805.542 823.225 811.841 821.463 817.859C817.91 830.007 810.552 839.399 801.507 847.741C800.907 848.294 799.669 848.163 798.723 848.35" stroke="black" stroke-width="1.87468" stroke-linecap="round" stroke-linejoin="round"/>
<path d="M806.082 919.598C806.494 922.269 808.697 923.328 810.6 924.697C820.686 931.952 827.856 941.625 833.837 952.367C836.349 956.876 839.442 961.066 842.263 965.396" stroke="black" stroke-width="1.87468" stroke-linecap="round" stroke-linejoin="round"/>
<path d="M766.505 718.322C766.308 719.972 768.529 721.022 767.554 722.85C764.667 723.796 761.612 723.262 758.593 723.412C753.4 723.665 749.51 726.018 747.308 730.77C744.852 736.066 748.264 741.343 754.628 742.684C758.209 743.443 762.033 743.031 765.38 744.896" stroke="black" stroke-width="1.87468" stroke-linecap="round" stroke-linejoin="round"/>
<path d="M396.746 840.438C401.452 843.953 406.963 844.768 412.578 844.927C423.132 845.237 433.687 845.387 444.241 845.499C448.544 845.546 452.752 845.855 456.68 847.786" stroke="black" stroke-width="1.87468" stroke-linecap="round" stroke-linejoin="round"/>
<path d="M523.95 602.98C520.763 607.583 522.01 612.869 522.46 617.659C523.144 624.98 525.534 632.047 530.202 638.009C532.621 641.102 534.73 644.533 539.81 643.867C541.544 643.642 543.588 645.508 545.434 646.52C549.858 648.948 557.976 647.57 561.838 643.68" stroke="black" stroke-width="1.87468" stroke-linecap="round" stroke-linejoin="round"/>
<path d="M523.947 665.736C531.146 671.904 531.915 680.378 531.765 688.917C531.671 694.466 527.088 698.206 521.126 698.506C518.623 698.637 516.064 698.234 513.777 699.659" stroke="black" stroke-width="1.87468" stroke-linecap="round" stroke-linejoin="round"/>
<path d="M536.104 670.265C535.392 677.22 536.892 684.231 535.326 691.196C534.361 695.479 529.552 700.953 525.081 701.919C512.09 704.721 498.264 696.576 494.636 683.8C494.261 682.478 493.68 681.185 493.268 679.91C491.168 673.405 491.684 671.493 497.355 667.95C498.451 667.265 499.257 666.103 500.204 665.156" stroke="black" stroke-width="1.87468" stroke-linecap="round" stroke-linejoin="round"/>
<path d="M739.93 905.744C741.57 907.488 741.729 909.184 741.214 911.715C739.911 918.183 742.17 920.311 748.975 920.17C754.121 920.067 760.27 919.917 763.954 917.939C770.393 914.48 778.004 913.009 784.182 907.835C778.529 902.464 772.343 904.151 766.513 904.985C760.336 905.875 754.571 908.275 748.891 910.937C747.185 911.734 744.27 912.943 742.189 910.553" stroke="black" stroke-width="1.87468" stroke-linecap="round" stroke-linejoin="round"/>
<path d="M525.082 602.98C527.388 605.877 526.319 609.476 526.582 612.607C527.585 624.53 533.246 634.091 540.351 643.117" stroke="black" stroke-width="1.87468" stroke-linecap="round" stroke-linejoin="round"/>
<path d="M516.043 703.615C519.595 714.46 526.166 723.543 533.018 732.438C541.332 743.227 551.437 752.151 562.404 760.156" stroke="black" stroke-width="1.87468" stroke-linecap="round" stroke-linejoin="round"/>
<path d="M652.859 971.048C658.868 974.657 665.795 976.025 672.094 978.931C677.305 981.34 682.629 983.486 687.907 985.745" stroke="black" stroke-width="1.87468" stroke-linecap="round" stroke-linejoin="round"/>
<path d="M579.924 989.139C579.099 992.719 575.246 994.988 575.893 999.328C576.484 1003.31 578.424 1004.8 582.183 1003.26C588.594 1000.65 593.693 996.525 596.89 990.273" stroke="black" stroke-width="1.87468" stroke-linecap="round" stroke-linejoin="round"/>
<path d="M620.633 631.816C611.503 637.965 601.876 643.28 592.437 648.914C589.982 650.376 587.835 649.879 585.576 649.832C582.558 649.766 579.549 648.914 576.531 648.82C567.232 648.548 558.937 652.307 550.52 655.559" stroke="black" stroke-width="1.87468" stroke-linecap="round" stroke-linejoin="round"/>
<path d="M786.852 925.248C789.682 929.775 792.982 934.068 795.203 938.877C797.584 944.042 800.677 949.141 800.424 955.215" stroke="black" stroke-width="1.87468" stroke-linecap="round" stroke-linejoin="round"/>
<path d="M542.039 608.633C542.555 619.403 550.878 624.502 557.824 630.735C564.92 637.1 573.881 635.881 582.167 637.531C585.579 638.206 588.962 637.887 592.356 638.037" stroke="black" stroke-width="1.87468" stroke-linecap="round" stroke-linejoin="round"/>
<path d="M516.043 618.813C516.024 628.243 519.249 636.614 524.564 644.225C526.232 646.615 526.672 648.94 525.651 651.602" stroke="black" stroke-width="1.87468" stroke-linecap="round" stroke-linejoin="round"/>
<path d="M643.82 557.746C646.454 563.773 649.594 569.65 651.525 575.902C652.5 579.052 655.434 582.192 653.428 586.016" stroke="black" stroke-width="1.87468" stroke-linecap="round" stroke-linejoin="round"/>
<path d="M564.664 730.758C567.916 733.87 565.564 735.566 562.939 736.935C561.374 737.75 559.518 737.985 557.887 738.697C552.797 740.928 551.222 744.115 553.509 748.774C554.203 750.198 554.372 751.417 554.484 752.804" stroke="black" stroke-width="1.87468" stroke-linecap="round" stroke-linejoin="round"/>
<path d="M594.629 614.85C602.334 621.711 611.773 625.723 620.64 630.681" stroke="black" stroke-width="1.87468" stroke-linecap="round" stroke-linejoin="round"/>
<path d="M577.668 720.02C565.923 720.057 554.525 722.363 543.184 725.109" stroke="black" stroke-width="1.87468" stroke-linecap="round" stroke-linejoin="round"/>
<path d="M582.187 946.732C573.966 952.956 565.483 958.505 558.584 966.735C553.513 972.79 549.483 979.164 545.349 985.688C543.962 987.872 542.968 990.806 539.781 991.397" stroke="black" stroke-width="1.87468" stroke-linecap="round" stroke-linejoin="round"/>
<path d="M504.724 664.041C500.938 665.784 496.785 663.394 492.661 665.335C491.339 665.953 489.183 666.628 487.824 667.528C480.26 672.571 480.119 673.967 487.281 679.77C489.924 681.907 490.121 686.537 494.545 686.659" stroke="black" stroke-width="1.87468" stroke-linecap="round" stroke-linejoin="round"/>
<path d="M655.694 589.41C655.357 595.897 658.431 602.074 657.419 608.635C657.128 610.547 657.916 612.656 656.256 614.287" stroke="black" stroke-width="1.87468" stroke-linecap="round" stroke-linejoin="round"/>
<path d="M548.263 950.127C546.332 955.545 542.657 959.978 539.62 964.721C537.933 967.365 538.908 971.723 534.699 972.745" stroke="black" stroke-width="1.87468" stroke-linecap="round" stroke-linejoin="round"/>
<path d="M569.191 719.447C563.707 717.197 558.524 712.82 552.178 717.675C550.603 718.875 548.991 716.335 547.144 716.626C544.614 717.066 544.182 719.522 543.292 721.2C541.267 725.024 542.598 728.145 546.582 730.189C553.265 733.629 560.398 733.188 566.875 727.302C568.919 725.446 572.162 724.546 572.584 721.143" stroke="black" stroke-width="1.87468" stroke-linecap="round" stroke-linejoin="round"/>
<path d="M768.766 992.531C760.686 990.544 752.972 991.613 745.586 995.362" stroke="black" stroke-width="1.87468" stroke-linecap="round" stroke-linejoin="round"/>
<path d="M410.877 817.257C408.59 822.722 408.412 828.093 412.058 833.051C413.23 834.654 414.748 836.791 417.26 834.045C413.952 829.002 414.223 822.872 412.583 817.257" stroke="black" stroke-width="1.87468" stroke-linecap="round" stroke-linejoin="round"/>
<path d="M604.803 956.913C604.053 957.86 603.49 959.238 602.516 959.678C590.733 964.974 588.446 976.691 583.891 986.88" stroke="black" stroke-width="1.87468" stroke-linecap="round" stroke-linejoin="round"/>
<path d="M544.873 619.377C543.345 621.645 544.995 623.426 546.064 624.992C549.101 629.444 552.409 633.7 555.615 638.039" stroke="black" stroke-width="1.87468" stroke-linecap="round" stroke-linejoin="round"/>
<path d="M548.267 654.996C546.57 655.943 544.208 656.458 543.299 657.892C539.512 663.854 533.719 663.563 527.917 663.46C520.559 663.329 513.173 661.979 505.871 664.032" stroke="black" stroke-width="1.87468" stroke-linecap="round" stroke-linejoin="round"/>
<path d="M564.657 691.749C564.404 698.414 561.93 700.71 555.64 699.529C554.496 699.313 553.334 699.379 552.219 699.098" stroke="black" stroke-width="1.87468" stroke-linecap="round" stroke-linejoin="round"/>
<path d="M638.168 621.637C632.703 624.842 627.238 628.048 621.773 631.244" stroke="black" stroke-width="1.87468" stroke-linecap="round" stroke-linejoin="round"/>
<path d="M673.215 691.749C676.346 698.217 682.195 700.785 687.35 697.973" stroke="black" stroke-width="1.87468" stroke-linecap="round" stroke-linejoin="round"/>
<path d="M641.561 622.769C639.264 627.633 634.118 628.918 630.257 631.823C629.291 632.545 628.372 633.323 627.426 634.082" stroke="black" stroke-width="1.87468" stroke-linecap="round" stroke-linejoin="round"/>
<path d="M768.203 917.34C773.855 918.277 779.339 919.571 782.901 924.689" stroke="black" stroke-width="1.87468" stroke-linecap="round" stroke-linejoin="round"/>
<path d="M535.266 696.828C536.4 702.433 540.796 702.096 544.873 701.862C548.763 701.637 550.404 703.127 549.982 707.008C549.635 710.213 550.779 713.597 548.838 716.615" stroke="black" stroke-width="1.87468" stroke-linecap="round" stroke-linejoin="round"/>
<path d="M579.356 626.163C578.793 630.55 582.383 632.012 585.045 634.037C586.442 635.105 588.364 635.508 588.973 637.467" stroke="black" stroke-width="1.87468" stroke-linecap="round" stroke-linejoin="round"/>
<path d="M559.008 688.355C557.489 689.508 555.54 689.518 553.843 690.493C550.562 692.377 548.566 694.251 551.106 697.954C552.803 700.428 550.337 701.131 549.391 702.491" stroke="black" stroke-width="1.87468" stroke-linecap="round" stroke-linejoin="round"/>
<path d="M509.816 635.771C511.475 640.242 512.9 644.853 516.603 648.209" stroke="black" stroke-width="1.87468" stroke-linecap="round" stroke-linejoin="round"/>
<path d="M823.048 786.167C821.248 790.507 824.041 794.434 824.182 798.606" stroke="black" stroke-width="1.87468" stroke-linecap="round" stroke-linejoin="round"/>
<path d="M547.135 675.346C544.248 675.215 543.995 672.431 542.645 670.8C540.845 668.635 539.027 668.607 536.965 670.257" stroke="black" stroke-width="1.87468" stroke-linecap="round" stroke-linejoin="round"/>
<path d="M496.252 656.131C495.503 659.852 490.235 660.761 490.6 665.176" stroke="black" stroke-width="1.87468" stroke-linecap="round" stroke-linejoin="round"/>
<path d="M518.86 652.165C517.473 651.669 515.964 651.294 516.029 649.203C519.441 646.082 522.272 652.465 525.647 649.907" stroke="black" stroke-width="1.87468" stroke-linecap="round" stroke-linejoin="round"/>
<path d="M500.211 646.513C501.908 652.352 503.604 658.201 505.301 664.041" stroke="black" stroke-width="1.87468" stroke-linecap="round" stroke-linejoin="round"/>
<path d="M716.75 992.531C718.268 995.156 722.215 992.906 723.536 995.924" stroke="black" stroke-width="1.87468" stroke-linecap="round" stroke-linejoin="round"/>
<path d="M526.219 595.062C526.425 597.517 523.866 599.28 524.522 601.848" stroke="black" stroke-width="1.87468" stroke-linecap="round" stroke-linejoin="round"/>
<path d="M664.169 654.434C661.929 655.98 661.001 659.486 657.383 658.961" stroke="black" stroke-width="1.87468" stroke-linecap="round" stroke-linejoin="round"/>
</svg>
