<svg width="1802" height="1599" viewBox="0 0 1802 1599" fill="none" xmlns="http://www.w3.org/2000/svg">
<path d="M885.977 1081.12C958.383 1148.51 1129.22 1141.59 1146.79 1025.97C1148.76 985.311 1124.73 947.482 1130.26 906.232" stroke="black" stroke-width="2" stroke-linecap="round" stroke-linejoin="round"/>
<path d="M1297.24 1056.71C1271.5 1162.85 1151.6 1394.82 1017.81 1313.03" stroke="black" stroke-width="2" stroke-linecap="round" stroke-linejoin="round"/>
<path d="M782.87 864.229C798.079 893.787 889.61 959.929 885.88 891.284C880.208 869.598 860.259 855.601 850.792 835.955C836.993 782.664 822.562 728.829 798.956 678.455" stroke="black" stroke-width="2" stroke-linecap="round" stroke-linejoin="round"/>
<path d="M1195.25 919.007C1201.91 968.778 1234.87 1007.15 1265.28 1044.27C1302 1143.08 1173.17 1221.14 1101.72 1266.1" stroke="black" stroke-width="2" stroke-linecap="round" stroke-linejoin="round"/>
<path d="M1093.01 683.475C1031.16 664.794 968.81 645.478 905.432 632.274" stroke="black" stroke-width="2" stroke-linecap="round" stroke-linejoin="round"/>
<path d="M959.086 994.686C982.473 1063.76 822.74 965.791 795.607 979.339" stroke="black" stroke-width="2" stroke-linecap="round" stroke-linejoin="round"/>
<path d="M421.125 439.873C364.423 426.635 290.887 399.211 290.527 330.514" stroke="black" stroke-width="2" stroke-linecap="round" stroke-linejoin="round"/>
<path d="M907.361 982.375C845.724 988.248 794.75 950.263 777.011 891.831" stroke="black" stroke-width="2" stroke-linecap="round" stroke-linejoin="round"/>
<path d="M902.001 262.692C851.483 269.932 808.502 305.555 757.231 310.66" stroke="black" stroke-width="2" stroke-linecap="round" stroke-linejoin="round"/>
<path d="M1099.66 1266.23C1032.6 1307.74 996.786 1173.5 925.013 1204.58" stroke="black" stroke-width="2" stroke-linecap="round" stroke-linejoin="round"/>
<path d="M1064.62 1165.1C974.91 1191.42 864.033 1145.81 826.952 1057.49" stroke="black" stroke-width="2" stroke-linecap="round" stroke-linejoin="round"/>
<path d="M1320.55 710.32C1174.07 645.579 1207.43 705.01 1198.47 549.141C1181.35 497.76 1126.28 472.31 1093.93 431.599C1041.02 375.156 988.234 265.207 903.25 263.346" stroke="black" stroke-width="2" stroke-linecap="round" stroke-linejoin="round"/>
<path d="M1164.6 1504.83C1136.12 1459.68 1099.36 1418.48 1061.93 1380.49" stroke="black" stroke-width="2" stroke-linecap="round" stroke-linejoin="round"/>
<path d="M1275.36 1060.83C1207.35 1049.01 1193.97 1017.51 1198.36 951.618" stroke="black" stroke-width="2" stroke-linecap="round" stroke-linejoin="round"/>
<path d="M523.171 828.792C539.534 816.168 568.598 824.198 579.398 805.862C585.961 783.207 564.417 754.545 539.85 767.79" stroke="black" stroke-width="2" stroke-linecap="round" stroke-linejoin="round"/>
<path d="M1184.1 749.84C1181.96 801.587 1187.93 853.664 1188.77 905.334" stroke="black" stroke-width="2" stroke-linecap="round" stroke-linejoin="round"/>
<path d="M755.389 630.996C887.476 557.225 727.239 521.876 721.323 623.01" stroke="black" stroke-width="2" stroke-linecap="round" stroke-linejoin="round"/>
<path d="M307.003 340.986C586.873 429.65 406.015 461.464 323.016 364.731" stroke="black" stroke-width="2" stroke-linecap="round" stroke-linejoin="round"/>
<path d="M759.417 841.821C753.749 901.587 771.86 965.073 801.34 1016.88" stroke="black" stroke-width="2" stroke-linecap="round" stroke-linejoin="round"/>
<path d="M1010.85 813.761C980.579 778.295 955.476 738.766 918.14 709.588" stroke="black" stroke-width="2" stroke-linecap="round" stroke-linejoin="round"/>
<path d="M1151.63 1494.39C1108.27 1443.15 1060.31 1392.74 1033.03 1330.69" stroke="black" stroke-width="2" stroke-linecap="round" stroke-linejoin="round"/>
<path d="M926.003 956.978C884.6 992.205 822.449 936.874 788.187 910.301" stroke="black" stroke-width="2" stroke-linecap="round" stroke-linejoin="round"/>
<path d="M857.558 1090.75C875.558 1106.74 1005.23 1166.97 925.798 1110.36" stroke="black" stroke-width="2" stroke-linecap="round" stroke-linejoin="round"/>
<path d="M1119.75 1319.13C1165.83 1299.75 1009.2 1181.62 982.314 1172.06" stroke="black" stroke-width="2" stroke-linecap="round" stroke-linejoin="round"/>
<path d="M1180.68 771.94C1173.84 820.139 1172.82 874.458 1196.13 918.465" stroke="black" stroke-width="2" stroke-linecap="round" stroke-linejoin="round"/>
<path d="M965.05 1242.69C876.246 1171.92 762.754 1120.86 734.179 999.018" stroke="black" stroke-width="2" stroke-linecap="round" stroke-linejoin="round"/>
<path d="M1406.7 794.025C1441.05 725.101 1281.91 721.323 1242.98 691.078" stroke="black" stroke-width="2" stroke-linecap="round" stroke-linejoin="round"/>
<path d="M1197.2 915.234C1195.39 878.331 1192.87 841.258 1191.06 804.319" stroke="black" stroke-width="2" stroke-linecap="round" stroke-linejoin="round"/>
<path d="M765.902 434.412C816.002 392.115 775.089 330.966 769.785 426.87" stroke="black" stroke-width="2" stroke-linecap="round" stroke-linejoin="round"/>
<path d="M778.093 975.493C759.819 1007.05 786.582 1042.69 786.727 1076.16" stroke="black" stroke-width="2" stroke-linecap="round" stroke-linejoin="round"/>
<path d="M735.801 995.878C730.385 961.018 711.711 931.061 699.859 898.452" stroke="black" stroke-width="2" stroke-linecap="round" stroke-linejoin="round"/>
<path d="M1010.44 820.713C986.364 868.603 948.308 765.021 913.734 761.398" stroke="black" stroke-width="2" stroke-linecap="round" stroke-linejoin="round"/>
<path d="M656.625 734.046C658.834 730.461 667.404 699.765 660.972 711.551C655.629 739.851 633.902 759.518 619.682 783.267C608.472 821.284 559.721 884.77 522.923 836.206" stroke="black" stroke-width="2" stroke-linecap="round" stroke-linejoin="round"/>
<path d="M1060.37 715.984C1026.42 704.3 989.768 717.744 955.139 708.744" stroke="black" stroke-width="2" stroke-linecap="round" stroke-linejoin="round"/>
<path d="M427.913 454.503C376.31 463.947 326.499 428.443 306.527 382.092" stroke="black" stroke-width="2" stroke-linecap="round" stroke-linejoin="round"/>
<path d="M1104.39 574.816C1071.27 589.529 1034.9 580.556 1000.14 578.816" stroke="black" stroke-width="2" stroke-linecap="round" stroke-linejoin="round"/>
<path d="M1120.94 457.679C1103.65 426.753 1079.99 398.971 1052.46 376.71" stroke="black" stroke-width="2" stroke-linecap="round" stroke-linejoin="round"/>
<path d="M1089.99 562.628C1055.68 558.565 1022.18 571.088 987.776 568.078" stroke="black" stroke-width="2" stroke-linecap="round" stroke-linejoin="round"/>
<path d="M1052.96 497.84C1023.66 515.326 985.769 518.718 954.689 504.125" stroke="black" stroke-width="2" stroke-linecap="round" stroke-linejoin="round"/>
<path d="M877.116 1176.36C852.558 1149.12 817.93 1130.91 798.163 1098.75" stroke="black" stroke-width="2" stroke-linecap="round" stroke-linejoin="round"/>
<path d="M621.267 782.657C621.087 819.09 602.859 854.761 562.398 854.547" stroke="black" stroke-width="2" stroke-linecap="round" stroke-linejoin="round"/>
<path d="M950.533 1158.09C901.914 1134.18 860.993 1101.19 828.999 1057.36" stroke="black" stroke-width="2" stroke-linecap="round" stroke-linejoin="round"/>
<path d="M1378.39 794.164C1338.73 782.126 1298.13 769.689 1257.33 762.075" stroke="black" stroke-width="2" stroke-linecap="round" stroke-linejoin="round"/>
<path d="M756.216 803.995C765.927 763.95 742.547 724.805 714.761 697.57" stroke="black" stroke-width="2" stroke-linecap="round" stroke-linejoin="round"/>
<path d="M585.075 374.742C611.981 388.543 654.719 370.774 659.479 339.872" stroke="black" stroke-width="2" stroke-linecap="round" stroke-linejoin="round"/>
<path d="M610.912 586.461C569.293 606.057 518.019 651.817 476.282 605.444" stroke="black" stroke-width="2" stroke-linecap="round" stroke-linejoin="round"/>
<path d="M982.688 1086.35C950.85 1082.37 918.696 1080.81 886.741 1083.49" stroke="black" stroke-width="2" stroke-linecap="round" stroke-linejoin="round"/>
<path d="M451.676 423.785C411.255 437.962 368.719 413.257 335.033 392.379" stroke="black" stroke-width="2" stroke-linecap="round" stroke-linejoin="round"/>
<path d="M448.017 412.36C416.672 394.527 383.138 379.374 346.935 375.444" stroke="black" stroke-width="2" stroke-linecap="round" stroke-linejoin="round"/>
<path d="M1085.77 706.794C1050.1 691.622 1012.97 678.675 975.202 669.768" stroke="black" stroke-width="2" stroke-linecap="round" stroke-linejoin="round"/>
<path d="M1059.72 717.24C1030.25 721.788 1000.48 718.21 970.842 718.416" stroke="black" stroke-width="2" stroke-linecap="round" stroke-linejoin="round"/>
<path d="M795.203 1109.15C789.082 1076.3 764.991 1051.38 747.015 1024.31" stroke="black" stroke-width="2" stroke-linecap="round" stroke-linejoin="round"/>
<path d="M1033.08 1339.81C1007.07 1309.84 965.341 1284.95 970.765 1240.47" stroke="black" stroke-width="2" stroke-linecap="round" stroke-linejoin="round"/>
<path d="M1060.19 1166C1032.6 1159.64 1002.97 1161.78 975.055 1164.93" stroke="black" stroke-width="2" stroke-linecap="round" stroke-linejoin="round"/>
<path d="M443.522 418.001C388.589 395.805 327.673 379.93 290.529 330.514" stroke="black" stroke-width="2" stroke-linecap="round" stroke-linejoin="round"/>
<path d="M775.208 843.588C853.817 940.411 874.686 868.105 772.619 835.493" stroke="black" stroke-width="2" stroke-linecap="round" stroke-linejoin="round"/>
<path d="M719.549 504.398C675.492 504.068 661.302 512.18 656.785 557.582" stroke="black" stroke-width="2" stroke-linecap="round" stroke-linejoin="round"/>
<path d="M860.371 429.342C836.466 441.48 807.715 445.497 781.836 438.224" stroke="black" stroke-width="2" stroke-linecap="round" stroke-linejoin="round"/>
<path d="M779.27 657.991C804.702 644.418 825.23 610.932 807.562 584.082" stroke="black" stroke-width="2" stroke-linecap="round" stroke-linejoin="round"/>
<path d="M769.799 602.221C781.5 562.974 731.622 607.639 725.139 621.783" stroke="black" stroke-width="2" stroke-linecap="round" stroke-linejoin="round"/>
<path d="M1166.64 728.131C1136.55 717.862 1106.51 705.41 1074.93 700.81" stroke="black" stroke-width="2" stroke-linecap="round" stroke-linejoin="round"/>
<path d="M1499.39 1251.64C1481.54 1229.06 1461.34 1208.29 1441.63 1187.53" stroke="black" stroke-width="2" stroke-linecap="round" stroke-linejoin="round"/>
<path d="M519.491 520.72C499.595 541.277 458.945 560.271 462.679 592.485" stroke="black" stroke-width="2" stroke-linecap="round" stroke-linejoin="round"/>
<path d="M851.524 427.975C819.154 439.028 784.054 432.627 751.277 441.191" stroke="black" stroke-width="2" stroke-linecap="round" stroke-linejoin="round"/>
<path d="M1182.38 734.637C1149.59 731.632 1118.94 717.067 1087.34 708.387" stroke="black" stroke-width="2" stroke-linecap="round" stroke-linejoin="round"/>
<path d="M669.867 642.653C600.233 566.451 637.776 586.427 551.664 622.773" stroke="black" stroke-width="2" stroke-linecap="round" stroke-linejoin="round"/>
<path d="M907.724 693.491C916.892 675.484 1008.76 650.691 963.012 675.854C943.638 682.071 923.562 695.113 902.733 687.731" stroke="black" stroke-width="2" stroke-linecap="round" stroke-linejoin="round"/>
<path d="M894.657 688.752C879.914 668.257 862.516 648.314 858.742 622.547" stroke="black" stroke-width="2" stroke-linecap="round" stroke-linejoin="round"/>
<path d="M735.464 726.108C739.946 746.423 747.204 766.71 750.881 787.329" stroke="black" stroke-width="2" stroke-linecap="round" stroke-linejoin="round"/>
<path d="M851.39 425.913C877.232 425.824 891.02 446.523 905.004 465.111C983.464 514.606 885.018 526.827 841.317 530.474" stroke="black" stroke-width="2" stroke-linecap="round" stroke-linejoin="round"/>
<path d="M953.581 707.147C909.051 691.823 908.505 705.591 952.215 715.992" stroke="black" stroke-width="2" stroke-linecap="round" stroke-linejoin="round"/>
<path d="M487.671 401.758C453.336 361.76 398.591 335.569 346.607 355.597" stroke="black" stroke-width="2" stroke-linecap="round" stroke-linejoin="round"/>
<path d="M1054.86 497.229C1033.53 497.752 1012.54 502.475 991.22 503.447" stroke="black" stroke-width="2" stroke-linecap="round" stroke-linejoin="round"/>
<path d="M597.578 495.699C593.439 514.699 603.232 534.026 599.363 552.883" stroke="black" stroke-width="2" stroke-linecap="round" stroke-linejoin="round"/>
<path d="M902.908 414.657C913.986 398.374 944.341 369.58 924.195 351.653" stroke="black" stroke-width="2" stroke-linecap="round" stroke-linejoin="round"/>
<path d="M845.495 592.669C863.802 579.993 867.116 554.201 883.29 540.516C915.188 542.08 876.806 606.076 866.668 621.055" stroke="black" stroke-width="2" stroke-linecap="round" stroke-linejoin="round"/>
<path d="M917.962 263.354C922.355 282.655 954.133 301.786 942.25 268.696" stroke="black" stroke-width="2" stroke-linecap="round" stroke-linejoin="round"/>
<path d="M701.049 897.273C689.508 877.151 687.49 860.995 687.343 838.135" stroke="black" stroke-width="2" stroke-linecap="round" stroke-linejoin="round"/>
<path d="M472.564 395.568C451.478 383.271 431.563 367.022 406.849 362.544" stroke="black" stroke-width="2" stroke-linecap="round" stroke-linejoin="round"/>
<path d="M1019.09 1286.81C1002.48 1270 984.778 1253.9 963.294 1243.78" stroke="black" stroke-width="2" stroke-linecap="round" stroke-linejoin="round"/>
<path d="M1272 765.25C1242.64 754.887 1211.97 746.448 1182.69 735.589" stroke="black" stroke-width="2" stroke-linecap="round" stroke-linejoin="round"/>
<path d="M1001.42 754.826C1007.74 775.13 1013.63 795.809 1011.45 817.244" stroke="black" stroke-width="2" stroke-linecap="round" stroke-linejoin="round"/>
<path d="M550.367 476.17C592.075 509.712 583.491 533.697 613.722 569.013" stroke="black" stroke-width="2" stroke-linecap="round" stroke-linejoin="round"/>
<path d="M521.511 726.933C508.407 758.005 521.799 789.511 521.684 820.856" stroke="black" stroke-width="2" stroke-linecap="round" stroke-linejoin="round"/>
<path d="M673.87 556.827C729.205 509.799 728.378 511.563 686.304 453.084" stroke="black" stroke-width="2" stroke-linecap="round" stroke-linejoin="round"/>
<path d="M757.364 665.019C730.269 662.819 718.424 653.882 722.089 625.397" stroke="black" stroke-width="2" stroke-linecap="round" stroke-linejoin="round"/>
<path d="M996.557 751.137C984.711 750.34 943.137 731.696 971.4 725.074" stroke="black" stroke-width="2" stroke-linecap="round" stroke-linejoin="round"/>
<path d="M560.382 417.311C527.935 409.197 490.661 390.933 466.838 425.232" stroke="black" stroke-width="2" stroke-linecap="round" stroke-linejoin="round"/>
<path d="M1148.24 1392.48C1177.62 1409.22 1156.54 1373.76 1149.04 1361.9" stroke="black" stroke-width="2" stroke-linecap="round" stroke-linejoin="round"/>
<path d="M1355.86 1114.06C1335.11 1097.04 1317.62 1076.14 1298.39 1057.53" stroke="black" stroke-width="2" stroke-linecap="round" stroke-linejoin="round"/>
<path d="M701.548 895.536C698.048 876.748 695.044 857.452 696.839 838.236" stroke="black" stroke-width="2" stroke-linecap="round" stroke-linejoin="round"/>
<path d="M964.021 665.998C907.731 642.263 844.277 630.65 827.019 562.886" stroke="black" stroke-width="2" stroke-linecap="round" stroke-linejoin="round"/>
<path d="M1439.48 1186.89C1422.18 1171.25 1403.66 1156.37 1386.76 1140.18" stroke="black" stroke-width="2" stroke-linecap="round" stroke-linejoin="round"/>
<path d="M421.373 445.573C395.755 446.722 367.531 439.927 351.796 418.514" stroke="black" stroke-width="2" stroke-linecap="round" stroke-linejoin="round"/>
<path d="M515.848 710.899C645.996 695.895 505.374 667.864 518.385 723.741" stroke="black" stroke-width="2" stroke-linecap="round" stroke-linejoin="round"/>
<path d="M662.088 780.599C687.799 770.6 710.969 751.537 715.572 723.035" stroke="black" stroke-width="2" stroke-linecap="round" stroke-linejoin="round"/>
<path d="M923.255 514.197C909.812 524.731 892.988 525.024 882.174 538.388" stroke="black" stroke-width="2" stroke-linecap="round" stroke-linejoin="round"/>
<path d="M902.124 264.749C886.485 273.217 869.892 280.069 852.262 282.822" stroke="black" stroke-width="2" stroke-linecap="round" stroke-linejoin="round"/>
<path d="M1438.95 1207.28C1423.98 1192.15 1408.99 1176.75 1394.46 1161.18" stroke="black" stroke-width="2" stroke-linecap="round" stroke-linejoin="round"/>
<path d="M525.276 512.567C565.465 544.057 505.922 581.147 474.443 586.612" stroke="black" stroke-width="2" stroke-linecap="round" stroke-linejoin="round"/>
<path d="M1392.31 1160.54C1378.86 1144.49 1364.18 1129.26 1349.78 1114.1" stroke="black" stroke-width="2" stroke-linecap="round" stroke-linejoin="round"/>
<path d="M1390.85 797.001C1417.83 800.547 1446.47 787.819 1415.58 764.395" stroke="black" stroke-width="2" stroke-linecap="round" stroke-linejoin="round"/>
<path d="M629.079 669.369C622.898 723.847 569.641 758.446 517.578 739.223" stroke="black" stroke-width="2" stroke-linecap="round" stroke-linejoin="round"/>
<path d="M1180.01 653.496C1159.77 646.522 1139.93 636.917 1119.06 632.074" stroke="black" stroke-width="2" stroke-linecap="round" stroke-linejoin="round"/>
<path d="M746.079 819.843C729.726 821.862 712.287 823.579 700.348 836.074" stroke="black" stroke-width="2" stroke-linecap="round" stroke-linejoin="round"/>
<path d="M804.382 293.965C779.818 298.237 757.44 308.743 735.601 320.204" stroke="black" stroke-width="2" stroke-linecap="round" stroke-linejoin="round"/>
<path d="M1404.53 790.513C1377.08 797.661 1349.35 793.836 1322.36 786.394" stroke="black" stroke-width="2" stroke-linecap="round" stroke-linejoin="round"/>
<path d="M790.115 487.032C812.789 485.524 818.866 473.809 820.559 452.596" stroke="black" stroke-width="2" stroke-linecap="round" stroke-linejoin="round"/>
<path d="M892.638 672.596C881.092 659.811 871.456 644.958 860.222 632.055" stroke="black" stroke-width="2" stroke-linecap="round" stroke-linejoin="round"/>
<path d="M573.065 740.349C555.642 740.082 536.566 740.617 524.05 726.66" stroke="black" stroke-width="2" stroke-linecap="round" stroke-linejoin="round"/>
<path d="M383.394 353.259C430.598 372.286 365.715 360.599 350.29 358.095" stroke="black" stroke-width="2" stroke-linecap="round" stroke-linejoin="round"/>
<path d="M948.123 1175.13C930.502 1177.55 913.186 1183.62 895.143 1182.65" stroke="black" stroke-width="2" stroke-linecap="round" stroke-linejoin="round"/>
<path d="M829.939 570.353C805.549 563.723 801.26 537.016 782.601 522.954C764.212 508.018 744.412 494.794 726.644 479.017" stroke="black" stroke-width="2" stroke-linecap="round" stroke-linejoin="round"/>
<path d="M1191.13 797.995C1190.07 781.407 1190.7 764.3 1184.75 748.583" stroke="black" stroke-width="2" stroke-linecap="round" stroke-linejoin="round"/>
<path d="M749.51 443.865C692.202 464.014 616.767 414.185 586.263 489.868" stroke="black" stroke-width="2" stroke-linecap="round" stroke-linejoin="round"/>
<path d="M624.582 675.01C607.262 689.46 602.384 701.74 602.026 724.235" stroke="black" stroke-width="2" stroke-linecap="round" stroke-linejoin="round"/>
<path d="M334.462 400.44C326.19 382.237 310.917 368.806 298.804 353.056" stroke="black" stroke-width="2" stroke-linecap="round" stroke-linejoin="round"/>
<path d="M1117.54 1318.78C1101.38 1307.22 1084.69 1295.97 1069.41 1283.28" stroke="black" stroke-width="2" stroke-linecap="round" stroke-linejoin="round"/>
<path d="M715.722 520.321C673.974 603.422 582.752 541.89 607.181 471.617" stroke="black" stroke-width="2" stroke-linecap="round" stroke-linejoin="round"/>
<path d="M769.454 604.43C755.06 616.11 745.209 622.816 726.223 623.533" stroke="black" stroke-width="2" stroke-linecap="round" stroke-linejoin="round"/>
<path d="M827.597 1056.24C803.839 1019.77 792.885 977.416 774.101 938.443" stroke="black" stroke-width="2" stroke-linecap="round" stroke-linejoin="round"/>
<path d="M938.604 553.903C927.881 540.151 923.305 528.884 928.187 511.562" stroke="black" stroke-width="2" stroke-linecap="round" stroke-linejoin="round"/>
<path d="M569.314 695.87C578.689 680.119 575.289 669.101 571.566 652.096" stroke="black" stroke-width="2" stroke-linecap="round" stroke-linejoin="round"/>
<path d="M684.112 831.297C706.546 840.212 721.394 835.048 741.289 822.945" stroke="black" stroke-width="2" stroke-linecap="round" stroke-linejoin="round"/>
<path d="M646.265 347.781C631.411 350.9 616.285 353.418 601.715 357.852" stroke="black" stroke-width="2" stroke-linecap="round" stroke-linejoin="round"/>
<path d="M1320.78 784.8C1303.95 780.551 1287.47 774.771 1272.3 766.202" stroke="black" stroke-width="2" stroke-linecap="round" stroke-linejoin="round"/>
<path d="M1375.73 738.319C1361.76 726.917 1344.6 721.146 1328.1 714.208" stroke="black" stroke-width="2" stroke-linecap="round" stroke-linejoin="round"/>
<path d="M599.981 357.368C583.796 358.963 562.445 359.068 556.426 377.103" stroke="black" stroke-width="2" stroke-linecap="round" stroke-linejoin="round"/>
<path d="M468.818 405.172C455.104 395.033 441.102 384.633 426.781 375.588" stroke="black" stroke-width="2" stroke-linecap="round" stroke-linejoin="round"/>
<path d="M717.915 712.305C698.464 744.51 668.978 789.678 625.328 774.001" stroke="black" stroke-width="2" stroke-linecap="round" stroke-linejoin="round"/>
<path d="M950.947 553.103C944.162 538.312 932.193 522.275 946.715 508.779" stroke="black" stroke-width="2" stroke-linecap="round" stroke-linejoin="round"/>
<path d="M1064.82 1283.71C1039.42 1293.48 1020.15 1298.91 995.883 1283.22" stroke="black" stroke-width="2" stroke-linecap="round" stroke-linejoin="round"/>
<path d="M600.595 359.269C506.211 379.859 575.714 448.364 638.88 439.412" stroke="black" stroke-width="2" stroke-linecap="round" stroke-linejoin="round"/>
<path d="M936.66 341.367C911.018 354.804 916.922 388.558 892.914 404.741" stroke="black" stroke-width="2" stroke-linecap="round" stroke-linejoin="round"/>
<path d="M820.73 451.491C807.539 466.731 794.768 482.46 779.109 495.287" stroke="black" stroke-width="2" stroke-linecap="round" stroke-linejoin="round"/>
<path d="M695.841 327.174C684.78 332.879 640.546 333.048 657.445 351.55" stroke="black" stroke-width="2" stroke-linecap="round" stroke-linejoin="round"/>
<path d="M831.045 570.526C839.348 557.589 845.043 546.762 840.042 531.419" stroke="black" stroke-width="2" stroke-linecap="round" stroke-linejoin="round"/>
<path d="M911.523 761.052C899.717 751.79 886.995 743.417 875.472 733.753" stroke="black" stroke-width="2" stroke-linecap="round" stroke-linejoin="round"/>
<path d="M733.953 326.507C721.584 322.214 708.824 325.995 696.33 325.431" stroke="black" stroke-width="2" stroke-linecap="round" stroke-linejoin="round"/>
<path d="M873.262 733.407C864.638 723.961 856.985 713.531 847.027 705.586" stroke="black" stroke-width="2" stroke-linecap="round" stroke-linejoin="round"/>
<path d="M647.21 619.46C643.965 607.27 635.801 597.433 628.128 587.768" stroke="black" stroke-width="2" stroke-linecap="round" stroke-linejoin="round"/>
<path d="M844.23 1162.22C828.604 1159.03 822.751 1151.56 815.894 1137.7" stroke="black" stroke-width="2" stroke-linecap="round" stroke-linejoin="round"/>
<path d="M457.858 449.634C445.109 442.532 435.848 442.267 421.706 444.946" stroke="black" stroke-width="2" stroke-linecap="round" stroke-linejoin="round"/>
<path d="M498.079 471.924C472.386 454.556 449.177 457.548 421.707 444.946" stroke="black" stroke-width="2" stroke-linecap="round" stroke-linejoin="round"/>
<path d="M944.943 1176.67C938.206 1187.4 928.085 1195.06 918.074 1202.61" stroke="black" stroke-width="2" stroke-linecap="round" stroke-linejoin="round"/>
<path d="M795.451 503.698C756.642 495.478 725.7 472.988 692.152 453.316" stroke="black" stroke-width="2" stroke-linecap="round" stroke-linejoin="round"/>
<path d="M903.38 686.475C903.602 671.322 900.594 655.942 899.32 641.047" stroke="black" stroke-width="2" stroke-linecap="round" stroke-linejoin="round"/>
<path d="M1019 588.521C979.713 571.914 939.12 546.506 894.791 554.818" stroke="black" stroke-width="2" stroke-linecap="round" stroke-linejoin="round"/>
<path d="M877.73 418C913.227 388.27 872.141 392.281 873.375 425.695" stroke="black" stroke-width="2" stroke-linecap="round" stroke-linejoin="round"/>
<path d="M1074.54 612.73C1056.02 606.042 1038.66 596.604 1020.26 589.166" stroke="black" stroke-width="2" stroke-linecap="round" stroke-linejoin="round"/>
<path d="M711.999 934.72C716.556 956.389 721.913 979.618 735.296 997.61" stroke="black" stroke-width="2" stroke-linecap="round" stroke-linejoin="round"/>
<path d="M569.829 651.598C571.528 636.755 557.124 632.589 545.938 639.299" stroke="black" stroke-width="2" stroke-linecap="round" stroke-linejoin="round"/>
<path d="M907.477 945.059C895.529 937.975 880.847 936.476 871.333 925.66" stroke="black" stroke-width="2" stroke-linecap="round" stroke-linejoin="round"/>
<path d="M490.327 621.423C475.634 622.491 468.369 617.09 464.925 602.788" stroke="black" stroke-width="2" stroke-linecap="round" stroke-linejoin="round"/>
<path d="M513.821 735.707C503.106 698.849 522.029 663.239 529.32 626.782" stroke="black" stroke-width="2" stroke-linecap="round" stroke-linejoin="round"/>
<path d="M570.066 780.16C534.933 747.683 512.159 804.688 523.42 834.492" stroke="black" stroke-width="2" stroke-linecap="round" stroke-linejoin="round"/>
<path d="M1156 650.688C1123.41 637.476 1094.91 615.751 1060.53 606.722" stroke="black" stroke-width="2" stroke-linecap="round" stroke-linejoin="round"/>
<path d="M600.022 462.359C585.237 465.913 583.195 475.22 581.838 489.185" stroke="black" stroke-width="2" stroke-linecap="round" stroke-linejoin="round"/>
<path d="M545.901 642.466C534.259 644.421 528.46 655.326 521.534 663.922" stroke="black" stroke-width="2" stroke-linecap="round" stroke-linejoin="round"/>
<path d="M942.725 987.852C931.515 986.129 920.258 984.031 908.934 983.982" stroke="black" stroke-width="2" stroke-linecap="round" stroke-linejoin="round"/>
<path d="M1023.24 754.13C994.947 759.411 990.577 742.756 973.614 725.411" stroke="black" stroke-width="2" stroke-linecap="round" stroke-linejoin="round"/>
<path d="M962.04 1243.13C950.182 1237.97 943.168 1233.17 938.578 1220.72" stroke="black" stroke-width="2" stroke-linecap="round" stroke-linejoin="round"/>
<path d="M632.801 661.349C634.2 651.143 633.668 642.865 628.218 633.937" stroke="black" stroke-width="2" stroke-linecap="round" stroke-linejoin="round"/>
<path d="M665.067 444.142C648.438 450.266 632.15 457.923 617.667 468.253" stroke="black" stroke-width="2" stroke-linecap="round" stroke-linejoin="round"/>
<path d="M496.9 573.112C475.878 572.715 464.015 577.021 465.665 600.185" stroke="black" stroke-width="2" stroke-linecap="round" stroke-linejoin="round"/>
<path d="M841.226 525.259C828.132 514.952 812.552 508.959 796.722 504.339" stroke="black" stroke-width="2" stroke-linecap="round" stroke-linejoin="round"/>
<path d="M665.749 642.913C683.913 660.07 701.871 676.156 712.209 699.433" stroke="black" stroke-width="2" stroke-linecap="round" stroke-linejoin="round"/>
<path d="M1382.31 1137.91C1374.6 1129.88 1365.92 1122.36 1358 1114.7" stroke="black" stroke-width="2" stroke-linecap="round" stroke-linejoin="round"/>
<path d="M577.609 485.821C568.903 479.654 562.02 479.487 552.482 484.416" stroke="black" stroke-width="2" stroke-linecap="round" stroke-linejoin="round"/>
<path d="M777.512 890.107C775.296 881.536 772.68 872.601 771.175 863.787" stroke="black" stroke-width="2" stroke-linecap="round" stroke-linejoin="round"/>
<path d="M627.534 638.36C623.363 668.218 632.168 674.987 655.195 652.593" stroke="black" stroke-width="2" stroke-linecap="round" stroke-linejoin="round"/>
<path d="M1067.66 741.997C1060.06 747.043 1052.01 751.49 1043.17 754.046" stroke="black" stroke-width="2" stroke-linecap="round" stroke-linejoin="round"/>
<path d="M902.573 416.871C894.371 419.918 886.958 424.448 879.81 429.413" stroke="black" stroke-width="2" stroke-linecap="round" stroke-linejoin="round"/>
<path d="M542.124 491.415C532.173 499.337 519.503 504.643 513.998 516.706" stroke="black" stroke-width="2" stroke-linecap="round" stroke-linejoin="round"/>
<path d="M838.917 532.823C834.391 542.133 832.367 552.355 827.678 561.627" stroke="black" stroke-width="2" stroke-linecap="round" stroke-linejoin="round"/>
<path d="M654.386 559.93C647.536 552.755 640.577 545.527 630.7 543.37" stroke="black" stroke-width="2" stroke-linecap="round" stroke-linejoin="round"/>
<path d="M1289.73 1041.78C1281.31 1030.07 1275.16 1027.4 1262.39 1033.48" stroke="black" stroke-width="2" stroke-linecap="round" stroke-linejoin="round"/>
<path d="M1481.92 1244.51C1474.15 1237.37 1465.66 1230.37 1457.95 1223.28" stroke="black" stroke-width="2" stroke-linecap="round" stroke-linejoin="round"/>
<path d="M1212.63 676.646C1202.38 672.854 1192.41 667.146 1182.11 663.323" stroke="black" stroke-width="2" stroke-linecap="round" stroke-linejoin="round"/>
<path d="M1142.77 701.127C1132.7 698.953 1123.52 693.969 1113.47 691.616" stroke="black" stroke-width="2" stroke-linecap="round" stroke-linejoin="round"/>
<path d="M550.718 487.09C526.929 478.389 502.4 469.763 478.262 462.526" stroke="black" stroke-width="2" stroke-linecap="round" stroke-linejoin="round"/>
<path d="M919.225 480.313C914.792 471.391 910.54 466.111 901.084 463.019" stroke="black" stroke-width="2" stroke-linecap="round" stroke-linejoin="round"/>
<path d="M1207.42 580.129C1208.61 571.505 1208.37 564.187 1204.06 556.528" stroke="black" stroke-width="2" stroke-linecap="round" stroke-linejoin="round"/>
<path d="M1054.23 483.789C1046.82 486.607 1040.06 490.778 1032.77 493.814" stroke="black" stroke-width="2" stroke-linecap="round" stroke-linejoin="round"/>
<path d="M719.035 710.897C714.687 699.519 712.527 686.528 702.488 678.918" stroke="black" stroke-width="2" stroke-linecap="round" stroke-linejoin="round"/>
<path d="M908.174 1102.88C898.506 1102.01 890.102 1096.89 881.078 1093.71" stroke="black" stroke-width="2" stroke-linecap="round" stroke-linejoin="round"/>
<path d="M352.933 348.318C344.656 342.624 339.538 343.422 331.432 348.381" stroke="black" stroke-width="2" stroke-linecap="round" stroke-linejoin="round"/>
<path d="M772.136 889.723C769.553 882.548 766.875 875.514 760.812 870.771" stroke="black" stroke-width="2" stroke-linecap="round" stroke-linejoin="round"/>
<path d="M772.261 513.231C769.738 506.033 763.621 500.888 761.257 493.656" stroke="black" stroke-width="2" stroke-linecap="round" stroke-linejoin="round"/>
<path d="M539.343 486.001C530.002 487.139 524.023 485.669 518.406 478.012" stroke="black" stroke-width="2" stroke-linecap="round" stroke-linejoin="round"/>
<path d="M1510.33 1268.01C1502.01 1259.97 1491.71 1253.99 1484.06 1245.15" stroke="black" stroke-width="2" stroke-linecap="round" stroke-linejoin="round"/>
<path d="M484.255 450.102C485.08 438.109 478.106 442.364 472.256 448.693" stroke="black" stroke-width="2" stroke-linecap="round" stroke-linejoin="round"/>
<path d="M623.386 587.709C625.206 580.579 620.458 575.67 616.312 570.545" stroke="black" stroke-width="2" stroke-linecap="round" stroke-linejoin="round"/>
<path d="M787.976 670.433C777.61 656.763 766.444 668.495 756.044 655.988" stroke="black" stroke-width="2" stroke-linecap="round" stroke-linejoin="round"/>
<path d="M542.209 850.521C536.264 845.755 530.174 841.136 524.835 835.614" stroke="black" stroke-width="2" stroke-linecap="round" stroke-linejoin="round"/>
<path d="M614.126 473.595C607.354 478.235 604.673 485.845 602.039 493.216" stroke="black" stroke-width="2" stroke-linecap="round" stroke-linejoin="round"/>
<path d="M1066.04 1097.45C1059.41 1098.83 1052.74 1097.25 1046.12 1097.53" stroke="black" stroke-width="2" stroke-linecap="round" stroke-linejoin="round"/>
<path d="M478.073 614.324C473.556 609.573 472.35 602.661 466.863 599.011" stroke="black" stroke-width="2" stroke-linecap="round" stroke-linejoin="round"/>
<path d="M1094.32 733.46C1087.75 732.435 1081.29 733.103 1075.01 735.446" stroke="black" stroke-width="2" stroke-linecap="round" stroke-linejoin="round"/>
<path d="M1196.95 719.472C1189.55 718.32 1182.59 715.412 1175.19 713.843" stroke="black" stroke-width="2" stroke-linecap="round" stroke-linejoin="round"/>
<path d="M936.45 494.74C929.511 491.548 923.06 488.236 919.527 481.257" stroke="black" stroke-width="2" stroke-linecap="round" stroke-linejoin="round"/>
<path d="M748.293 440.053C741.651 440.306 735.796 443.327 730.81 447.751" stroke="black" stroke-width="2" stroke-linecap="round" stroke-linejoin="round"/>
<path d="M568.414 650.476C562.193 645.942 555.274 643.191 547.63 642.959" stroke="black" stroke-width="2" stroke-linecap="round" stroke-linejoin="round"/>
<path d="M810.435 507.822C806.577 499.422 801.615 499.362 793.588 501.143" stroke="black" stroke-width="2" stroke-linecap="round" stroke-linejoin="round"/>
<path d="M871.649 1088.85C865.26 1083.75 859.652 1080.57 851.336 1081.18" stroke="black" stroke-width="2" stroke-linecap="round" stroke-linejoin="round"/>
<path d="M424.889 374.618C417.673 373.084 410.371 371.024 405.555 365.065" stroke="black" stroke-width="2" stroke-linecap="round" stroke-linejoin="round"/>
<path d="M1182.37 1519.52C1177.11 1514.45 1171.49 1509.61 1166.09 1504.58" stroke="black" stroke-width="2" stroke-linecap="round" stroke-linejoin="round"/>
<path d="M1285.27 1037.7C1278.92 1038.54 1272.44 1037.09 1266.28 1039.06" stroke="black" stroke-width="2" stroke-linecap="round" stroke-linejoin="round"/>
<path d="M585.207 376.804C578.136 378.242 572.313 378.244 566.1 374.527" stroke="black" stroke-width="2" stroke-linecap="round" stroke-linejoin="round"/>
<path d="M762.664 820.825C758.635 827.075 759.179 833.181 760.539 840.404" stroke="black" stroke-width="2" stroke-linecap="round" stroke-linejoin="round"/>
<path d="M763.309 819.568C766.899 813.512 765.559 808.841 762.234 803.109" stroke="black" stroke-width="2" stroke-linecap="round" stroke-linejoin="round"/>
<path d="M540.786 524.919C534.106 523.735 527.427 522.55 520.747 521.365" stroke="black" stroke-width="2" stroke-linecap="round" stroke-linejoin="round"/>
<path d="M903.417 398.224C903.22 405.158 899.282 411.056 897.03 417.596" stroke="black" stroke-width="2" stroke-linecap="round" stroke-linejoin="round"/>
<path d="M988.547 501.68C972.174 502.47 955.822 504.152 940.025 499.378" stroke="black" stroke-width="2" stroke-linecap="round" stroke-linejoin="round"/>
<path d="M623.994 766.56C621.008 755.844 620.567 744.685 618.214 733.76" stroke="black" stroke-width="2" stroke-linecap="round" stroke-linejoin="round"/>
<path d="M990.288 502.17C987.026 508.279 979.271 506.22 973.98 503.716" stroke="black" stroke-width="2" stroke-linecap="round" stroke-linejoin="round"/>
<path d="M1093.93 1092.71C1088.53 1094.44 1083.13 1096.17 1077.74 1097.9" stroke="black" stroke-width="2" stroke-linecap="round" stroke-linejoin="round"/>
<path d="M1252.43 735.3C1245.84 734.515 1239.58 732.346 1233.19 730.961" stroke="black" stroke-width="2" stroke-linecap="round" stroke-linejoin="round"/>
<path d="M1149.81 829.606C1147.88 824.191 1147.24 818.483 1146.53 812.801" stroke="black" stroke-width="2" stroke-linecap="round" stroke-linejoin="round"/>
<path d="M748.943 315.93C741.473 324.88 728.207 322.194 740.494 335.437" stroke="black" stroke-width="2" stroke-linecap="round" stroke-linejoin="round"/>
<path d="M786.703 874.549C780.471 873.175 777.114 867.714 773.081 863.166" stroke="black" stroke-width="2" stroke-linecap="round" stroke-linejoin="round"/>
<path d="M1455.81 1222.63C1451.09 1217.54 1445.73 1213.03 1441.09 1207.92" stroke="black" stroke-width="2" stroke-linecap="round" stroke-linejoin="round"/>
<path d="M1173.63 712.241C1166.93 710.419 1160.45 707.75 1153.78 706.001" stroke="black" stroke-width="2" stroke-linecap="round" stroke-linejoin="round"/>
<path d="M1041.6 752.444C1036.19 754.401 1030.41 754.604 1024.8 755.728" stroke="black" stroke-width="2" stroke-linecap="round" stroke-linejoin="round"/>
<path d="M886.239 447.833C874.508 445.12 871.328 438.429 867.66 427.533" stroke="black" stroke-width="2" stroke-linecap="round" stroke-linejoin="round"/>
<path d="M1180.55 661.721C1173.49 659.583 1167.15 655.709 1160.08 653.58" stroke="black" stroke-width="2" stroke-linecap="round" stroke-linejoin="round"/>
<path d="M1239.68 688.983C1232.62 686.786 1226.27 682.975 1219.22 680.842" stroke="black" stroke-width="2" stroke-linecap="round" stroke-linejoin="round"/>
<path d="M750.386 789.058C753.23 799.876 756.678 810.516 761.086 820.804" stroke="black" stroke-width="2" stroke-linecap="round" stroke-linejoin="round"/>
<path d="M780.657 863.891C778.625 857.713 777.287 851.558 769.695 854.279" stroke="black" stroke-width="2" stroke-linecap="round" stroke-linejoin="round"/>
<path d="M1037.38 1291.45C1033.22 1286.51 1027.55 1283.25 1022.82 1278.79" stroke="black" stroke-width="2" stroke-linecap="round" stroke-linejoin="round"/>
<path d="M680.923 657.48C680.151 650.973 676.646 647.246 671.277 643.769" stroke="black" stroke-width="2" stroke-linecap="round" stroke-linejoin="round"/>
<path d="M870.709 545.214C867.582 540.664 867.916 535.098 867.261 529.518" stroke="black" stroke-width="2" stroke-linecap="round" stroke-linejoin="round"/>
<path d="M890.377 554.139C886.511 550.038 886.713 544.242 885.499 538.903" stroke="black" stroke-width="2" stroke-linecap="round" stroke-linejoin="round"/>
<path d="M462.4 439.254C457.182 437.141 451.498 435.544 448.113 430.703" stroke="black" stroke-width="2" stroke-linecap="round" stroke-linejoin="round"/>
<path d="M520.224 565.633C514.834 566.202 510.619 569.432 506.075 572.273" stroke="black" stroke-width="2" stroke-linecap="round" stroke-linejoin="round"/>
<path d="M610.668 566.059C611.311 560.558 609.477 555.643 605.937 551.304" stroke="black" stroke-width="2" stroke-linecap="round" stroke-linejoin="round"/>
<path d="M768.501 848.883C774.18 838.162 770.214 831.23 764.066 821.95" stroke="black" stroke-width="2" stroke-linecap="round" stroke-linejoin="round"/>
<path d="M611.265 569.542C611.99 574.687 614.351 579.494 614.566 584.758" stroke="black" stroke-width="2" stroke-linecap="round" stroke-linejoin="round"/>
<path d="M505.182 459.672C500.674 455.46 494.775 453.992 488.82 452.838" stroke="black" stroke-width="2" stroke-linecap="round" stroke-linejoin="round"/>
<path d="M673.665 656.131C668.278 657.05 662.987 656.483 657.876 654.364" stroke="black" stroke-width="2" stroke-linecap="round" stroke-linejoin="round"/>
<path d="M923.789 956.641C919.393 952.494 914.303 949.216 909.687 945.405" stroke="black" stroke-width="2" stroke-linecap="round" stroke-linejoin="round"/>
<path d="M617.649 442.012C615.776 446.467 610.555 449.177 611.182 454.589" stroke="black" stroke-width="2" stroke-linecap="round" stroke-linejoin="round"/>
<path d="M1000.36 1089.09C994.934 1088.46 989.621 1087.42 984.251 1087.95" stroke="black" stroke-width="2" stroke-linecap="round" stroke-linejoin="round"/>
<path d="M521.865 465.874C513.592 461.597 507.135 459.638 499.108 465.292" stroke="black" stroke-width="2" stroke-linecap="round" stroke-linejoin="round"/>
<path d="M901.324 686.614C898.431 682.574 895.545 678.503 894.038 673.722" stroke="black" stroke-width="2" stroke-linecap="round" stroke-linejoin="round"/>
<path d="M559.357 464.888C555.083 467.586 549.173 467.362 544.601 469.619" stroke="black" stroke-width="2" stroke-linecap="round" stroke-linejoin="round"/>
<path d="M895.009 1187.96C893.429 1178.79 887.268 1176.82 878.865 1175.28" stroke="black" stroke-width="2" stroke-linecap="round" stroke-linejoin="round"/>
<path d="M825.616 561.761C821.703 558.293 817.796 554.816 813.874 551.343" stroke="black" stroke-width="2" stroke-linecap="round" stroke-linejoin="round"/>
<path d="M433.391 432.276C427.296 435.586 420.9 436.249 422.02 444.317" stroke="black" stroke-width="2" stroke-linecap="round" stroke-linejoin="round"/>
<path d="M573.665 471.862C569.308 472.608 565.304 474.351 561.59 476.786" stroke="black" stroke-width="2" stroke-linecap="round" stroke-linejoin="round"/>
<path d="M915.919 709.237C913.424 705.546 910.697 701.974 909.093 697.774" stroke="black" stroke-width="2" stroke-linecap="round" stroke-linejoin="round"/>
<path d="M512.699 438.888C505.838 442.594 510.762 447.144 505.274 451.772" stroke="black" stroke-width="2" stroke-linecap="round" stroke-linejoin="round"/>
<path d="M1150.28 844.164C1149.8 839.793 1149.77 835.345 1148.21 831.17" stroke="black" stroke-width="2" stroke-linecap="round" stroke-linejoin="round"/>
<path d="M1111.91 690.014C1106.91 688.88 1102.15 686.919 1097.09 686.359" stroke="black" stroke-width="2" stroke-linecap="round" stroke-linejoin="round"/>
<path d="M731.284 717.997C725.675 718.82 723.581 715.434 720.288 711.542" stroke="black" stroke-width="2" stroke-linecap="round" stroke-linejoin="round"/>
<path d="M704.66 656.178C709.802 662.745 709.997 668.437 706.806 675.968" stroke="black" stroke-width="2" stroke-linecap="round" stroke-linejoin="round"/>
<path d="M1085.86 1324.74C1082.53 1321.64 1078.62 1319.35 1074.56 1317.33" stroke="black" stroke-width="2" stroke-linecap="round" stroke-linejoin="round"/>
<path d="M719.29 472.449C714.781 470.509 710.745 467.884 708.96 463.161" stroke="black" stroke-width="2" stroke-linecap="round" stroke-linejoin="round"/>
<path d="M720.934 453.017C717.73 455.275 713.855 456.247 710.593 458.425" stroke="black" stroke-width="2" stroke-linecap="round" stroke-linejoin="round"/>
<path d="M1139.15 1386.94C1136.13 1383.06 1131.78 1380.64 1128.33 1377.14" stroke="black" stroke-width="2" stroke-linecap="round" stroke-linejoin="round"/>
<path d="M1181.13 733.992C1177.75 730.838 1173.69 729.345 1169.16 729.426" stroke="black" stroke-width="2" stroke-linecap="round" stroke-linejoin="round"/>
<path d="M1220.27 726.702C1216.15 725.977 1212.17 724.468 1207.96 724.345" stroke="black" stroke-width="2" stroke-linecap="round" stroke-linejoin="round"/>
<path d="M957.196 993.716C952.689 992.88 948.788 990.3 944.278 989.449" stroke="black" stroke-width="2" stroke-linecap="round" stroke-linejoin="round"/>
<path d="M1026.88 1093.19C1022.87 1093.5 1019.04 1092 1015.18 1092.74" stroke="black" stroke-width="2" stroke-linecap="round" stroke-linejoin="round"/>
<path d="M1119.99 1369.96C1117.43 1366.65 1114.26 1363.82 1112.2 1360.15" stroke="black" stroke-width="2" stroke-linecap="round" stroke-linejoin="round"/>
<path d="M708.543 322.583C704.586 321.501 700.745 321.565 697.464 324.034" stroke="black" stroke-width="2" stroke-linecap="round" stroke-linejoin="round"/>
<path d="M1013.62 1091.14C1009.72 1090.85 1005.83 1089.89 1001.92 1090.68" stroke="black" stroke-width="2" stroke-linecap="round" stroke-linejoin="round"/>
<path d="M712.811 716.045C708.936 715.08 705.36 716.274 702.031 718.448" stroke="black" stroke-width="2" stroke-linecap="round" stroke-linejoin="round"/>
<path d="M701.007 453.101C703.366 456.213 706.283 458.888 708.179 462.355" stroke="black" stroke-width="2" stroke-linecap="round" stroke-linejoin="round"/>
<path d="M1299.06 749.756C1294.84 749.633 1290.87 748.124 1286.75 747.399" stroke="black" stroke-width="2" stroke-linecap="round" stroke-linejoin="round"/>
<path d="M703.239 655.056C699.933 657.428 699.687 661.482 699.171 665.284" stroke="black" stroke-width="2" stroke-linecap="round" stroke-linejoin="round"/>
<path d="M517.842 702.387C517.431 699.038 517.572 695.538 515.738 692.56" stroke="black" stroke-width="2" stroke-linecap="round" stroke-linejoin="round"/>
<path d="M899.459 629.985C896.329 630.676 893.069 631.173 890.568 633.358" stroke="black" stroke-width="2" stroke-linecap="round" stroke-linejoin="round"/>
<path d="M869.796 529.231C873.605 532.916 873.909 537.513 874.067 542.558" stroke="black" stroke-width="2" stroke-linecap="round" stroke-linejoin="round"/>
<path d="M1292.55 1063.71C1288.77 1063.42 1285.15 1062.44 1281.67 1060.9" stroke="black" stroke-width="2" stroke-linecap="round" stroke-linejoin="round"/>
<path d="M1193.87 657.45C1190.55 657.773 1187.36 656.675 1184.08 656.388" stroke="black" stroke-width="2" stroke-linecap="round" stroke-linejoin="round"/>
<path d="M939.663 517.87C939.98 520.885 940.424 523.882 941.455 526.749" stroke="black" stroke-width="2" stroke-linecap="round" stroke-linejoin="round"/>
<path d="M771.674 862.05C769.439 854.696 766.95 847.402 761.953 841.534" stroke="black" stroke-width="2" stroke-linecap="round" stroke-linejoin="round"/>
<path d="M623 770.026C619.834 769.987 616.676 769.954 613.509 769.916" stroke="black" stroke-width="2" stroke-linecap="round" stroke-linejoin="round"/>
<path d="M498.799 410.261L496.05 401.689" stroke="black" stroke-width="2" stroke-linecap="round" stroke-linejoin="round"/>
<path d="M796.742 678.118C794.806 675.451 792.127 673.437 790.191 670.77" stroke="black" stroke-width="2" stroke-linecap="round" stroke-linejoin="round"/>
<path d="M962.955 716.742C959.942 717.548 956.789 716.775 953.777 717.581" stroke="black" stroke-width="2" stroke-linecap="round" stroke-linejoin="round"/>
<path d="M1505.52 1260.73C1505.14 1257.51 1503.15 1254.96 1501.53 1252.28" stroke="black" stroke-width="2" stroke-linecap="round" stroke-linejoin="round"/>
<path d="M681.685 768.019C682.363 765.066 684.299 762.48 684.156 759.346" stroke="black" stroke-width="2" stroke-linecap="round" stroke-linejoin="round"/>
<path d="M567.401 819.344C562.42 822.16 556.916 823.694 551.515 825.486" stroke="black" stroke-width="2" stroke-linecap="round" stroke-linejoin="round"/>
<path d="M898.724 652.271C896.198 654.777 896.893 657.168 898.154 660.332" stroke="black" stroke-width="2" stroke-linecap="round" stroke-linejoin="round"/>
<path d="M539.831 471.144C531.602 469.062 525.731 464.131 519.434 471.381" stroke="black" stroke-width="2" stroke-linecap="round" stroke-linejoin="round"/>
<path d="M1089.93 621.453C1086.01 621.53 1083.86 619.92 1082.56 616.466" stroke="black" stroke-width="2" stroke-linecap="round" stroke-linejoin="round"/>
<path d="M1140.63 884.528C1137.85 886.456 1136.39 889.19 1136.42 892.703" stroke="black" stroke-width="2" stroke-linecap="round" stroke-linejoin="round"/>
<path d="M1105.36 572.927C1104.63 570.05 1104.34 567.547 1101 567.501" stroke="black" stroke-width="2" stroke-linecap="round" stroke-linejoin="round"/>
<path d="M531.712 503.148C529.669 505.798 527.198 508.151 525.928 511.301" stroke="black" stroke-width="2" stroke-linecap="round" stroke-linejoin="round"/>
<path d="M341.861 416.971C338.851 415.877 336.049 414.231 332.89 413.548" stroke="black" stroke-width="2" stroke-linecap="round" stroke-linejoin="round"/>
<path d="M986.211 566.476C983.545 566.592 981.145 567.421 979.221 569.237" stroke="black" stroke-width="2" stroke-linecap="round" stroke-linejoin="round"/>
<path d="M1131.86 904.667C1131.88 901.921 1133.51 899.525 1133.53 896.779" stroke="black" stroke-width="2" stroke-linecap="round" stroke-linejoin="round"/>
<path d="M904.048 696.771C902.615 698.956 900.62 700.556 898.297 701.767" stroke="black" stroke-width="2" stroke-linecap="round" stroke-linejoin="round"/>
<path d="M1158.91 1501.25C1157.63 1498.83 1155.06 1497.46 1153.78 1495.03" stroke="black" stroke-width="2" stroke-linecap="round" stroke-linejoin="round"/>
<path d="M1100.48 1351.01C1099.19 1348.58 1096.63 1347.22 1095.35 1344.79" stroke="black" stroke-width="2" stroke-linecap="round" stroke-linejoin="round"/>
<path d="M472.923 594.972C474.475 590.688 476.195 587.442 470.499 585.768" stroke="black" stroke-width="2" stroke-linecap="round" stroke-linejoin="round"/>
<path d="M1072.67 1316.37C1071.06 1314.15 1068.33 1313.15 1066.73 1310.93" stroke="black" stroke-width="2" stroke-linecap="round" stroke-linejoin="round"/>
<path d="M1141.6 882.639C1141.63 879.893 1143.25 877.497 1143.28 874.75" stroke="black" stroke-width="2" stroke-linecap="round" stroke-linejoin="round"/>
<path d="M1094 1330.53C1092.39 1328.31 1089.66 1327.31 1088.06 1325.09" stroke="black" stroke-width="2" stroke-linecap="round" stroke-linejoin="round"/>
<path d="M762.545 654.955C758.631 656.032 754.558 655.207 750.681 655.609" stroke="black" stroke-width="2" stroke-linecap="round" stroke-linejoin="round"/>
<path d="M822.773 1049.38L817.061 1051.21" stroke="black" stroke-width="2" stroke-linecap="round" stroke-linejoin="round"/>
<path d="M879.522 1092.11C876.916 1092.54 875.082 1091.76 873.869 1089.2" stroke="black" stroke-width="2" stroke-linecap="round" stroke-linejoin="round"/>
<path d="M1104.42 627.314C1101.76 627.803 1100.51 626.899 1099.71 624.097" stroke="black" stroke-width="2" stroke-linecap="round" stroke-linejoin="round"/>
<path d="M1346.62 1107.55C1345.78 1109.63 1346.86 1111.55 1347.64 1113.46" stroke="black" stroke-width="2" stroke-linecap="round" stroke-linejoin="round"/>
<path d="M1181.18 580.133C1180.66 578.296 1179.85 576.606 1178.55 575.2" stroke="black" stroke-width="2" stroke-linecap="round" stroke-linejoin="round"/>
<path d="M724.438 478.671C723.345 476.662 722.186 474.705 720.546 473.094" stroke="black" stroke-width="2" stroke-linecap="round" stroke-linejoin="round"/>
</svg>
