<svg width="1049" height="1399" viewBox="0 0 1049 1399" fill="none" xmlns="http://www.w3.org/2000/svg">
<path d="M713.248 920.445C721.349 925.703 729.403 931.046 737.57 936.2C743.517 939.963 748.748 944.637 754.337 948.823C765.43 957.119 774.425 967.371 782.507 978.216C788.83 986.701 794.786 995.608 800.817 1004.37C804.289 1009.42 808.241 1014.23 812.221 1018.94C820.303 1028.51 825.497 1039.71 830.446 1051C836.176 1064.07 841.022 1077.54 846.855 1090.57C849.753 1097.05 852.576 1103.6 855.973 1109.9C858.824 1115.18 859.078 1121.45 860.461 1127.29C862.427 1135.61 863.528 1143.98 862.869 1152.47C862.371 1158.89 861.129 1165.27 860.141 1171.63C858.955 1179.31 859.35 1187.06 857.986 1194.73C856.509 1203 854.326 1211.12 853.094 1219.43C851.381 1230.96 849.546 1242.49 847.523 1253.98C846.648 1258.96 847.185 1263.96 846.949 1268.93C846.658 1275.04 846.112 1281.17 845.623 1287.24C845.134 1293.33 845.463 1299.49 844.07 1305.67C842.988 1310.47 840.899 1314.52 838.472 1318.3C834.746 1324.08 832.516 1330.26 830.437 1336.7C827.736 1345.08 826.372 1354.14 820.247 1361C815.091 1366.77 809.539 1372.17 804.063 1377.65C802.567 1379.14 800.996 1380.44 798.578 1380.86C797.251 1381.08 795.511 1381.67 794.193 1383.14C789.781 1388.07 783.044 1389.41 777.427 1392.14C773.023 1394.29 767.067 1395.03 761.441 1394.91C756.059 1394.8 750.658 1396.36 745.239 1396.82C732.536 1397.89 720.54 1395.75 709.851 1388.32C707.518 1386.71 705.768 1384.7 704.677 1381.96C702.955 1377.65 699.248 1374.4 698.222 1369.59C697.733 1367.3 696.764 1365.15 697.065 1362.74" stroke="black" stroke-width="1.88103" stroke-linecap="round" stroke-linejoin="round"/>
<path d="M695.768 1324.37C696.229 1325.22 696.088 1326.01 695.797 1326.93C694.31 1331.71 692.428 1336.35 691.835 1341.42C691.421 1344.97 688.109 1347.33 685.776 1349.32C681.184 1353.21 676.499 1357.06 669.329 1357.13C663.759 1357.17 657.973 1358.6 652.29 1359.47C649.608 1359.87 647.434 1358.89 645.016 1358.55C637.734 1357.5 630.442 1356.73 623.667 1353.45C622.068 1352.68 619.97 1353.14 618.154 1353.08C610.297 1352.86 603.852 1348.62 596.89 1345.98C593.484 1344.69 589.993 1344.54 586.587 1343.63C574.572 1340.43 562.603 1337.29 551.124 1332.23C544.98 1329.52 538.008 1328.62 531.168 1328.2" stroke="black" stroke-width="1.88103" stroke-linecap="round" stroke-linejoin="round"/>
<path d="M554.191 838.981C555.358 833.705 559.921 831.278 563.638 828.409C571.193 822.559 580.254 820.931 589.56 819.633C598.188 818.429 606.628 819.069 615.171 819.727C620.383 820.122 625.088 822.323 629.548 824.317C636.313 827.337 643.163 830.318 649.702 833.883C658.979 838.944 667.711 844.531 675.473 852.027C683.885 860.145 690.904 869.09 696.511 879.144C700.313 885.954 702.891 893.441 706.532 900.355C708.273 903.656 710.935 906.751 715.376 906.779C716.186 906.779 716.534 907.437 717.098 907.616C730.384 911.99 739.125 900.157 739.162 890.601C739.219 877.188 736.782 864.387 729.584 852.563C724.334 843.948 718.726 835.576 712.638 827.619C707.934 821.458 701.677 816.398 694.46 813.021C690.885 811.347 688.58 808.506 686.952 805.223C686.34 803.991 685.249 803.709 684.675 802.74" stroke="black" stroke-width="1.88103" stroke-linecap="round" stroke-linejoin="round"/>
<path d="M574.652 862.017C578.011 857.351 583.073 855.743 588.305 855.338C592.369 855.028 596.274 854.191 600.235 853.485C603.312 852.94 605.928 852.752 608.901 855.019C612.307 857.615 616.739 858.866 620.709 860.747C624.172 862.383 628.161 863.192 629.77 867.528C630.231 868.77 631.793 870.115 633.101 870.463C640.092 872.288 643.799 877.96 647.929 882.982C651.392 887.196 655.108 891.222 658.815 895.154C664.931 901.644 667.895 909.526 671.075 917.455C671.471 918.433 671.687 919.157 671.038 920.032C667.679 924.575 669.561 929.118 671.028 933.68C674.764 945.278 679.638 956.48 683.025 968.209C685.415 976.468 687.193 984.877 690.081 993.013C691.803 997.866 690.524 1003.24 689.987 1008.3C689.827 1009.77 689.696 1011.46 689.366 1013.01C688.388 1017.52 687.682 1021.96 683.919 1025.48C680.898 1028.31 680.927 1033.1 678.433 1036.57C677.483 1037.9 676.495 1038.91 675.3 1039.87" stroke="black" stroke-width="1.88103" stroke-linecap="round" stroke-linejoin="round"/>
<path d="M540.117 1094.47C544.953 1092.67 547.55 1088.81 548.999 1084.2C549.903 1081.33 551.314 1079.25 554.278 1078.04C556.178 1081.59 555.774 1084.66 552.885 1087.19C550.806 1089 549.761 1091.47 548.237 1093.63C547.334 1094.91 546.845 1096.47 547.833 1097.85C548.82 1099.24 550.505 1099.49 552.048 1099.13C559.876 1097.34 567.61 1094.95 575.533 1093.74C585.666 1092.2 595.828 1090.05 606.225 1091.44C608.323 1091.72 610.487 1091.47 612.613 1091.47C615.229 1091.47 616.565 1093.13 617.271 1095.32C618.089 1097.86 615.671 1098.42 614.288 1099.07C606.789 1102.65 599.046 1105.52 590.888 1107.32C583.869 1108.88 576.887 1110.74 570.376 1114.02C568.589 1114.92 566.679 1115.53 567.046 1117.91C567.431 1120.42 569.191 1121.49 571.656 1122.27C576.577 1123.83 581.611 1125.19 586.183 1127.72" stroke="black" stroke-width="1.88103" stroke-linecap="round" stroke-linejoin="round"/>
<path d="M845.021 1126.03C843.516 1131.98 847.985 1136.03 849.095 1141.61C852.012 1138.56 852.69 1133.02 849.566 1130.03C844.005 1124.69 841.803 1117.96 839.479 1111.1C839.376 1110.8 839.272 1110.42 839.047 1110.27C832.065 1105.76 832.498 1097.16 828.461 1091.01C826.486 1087.99 824.971 1084.83 821.621 1082.88C818.893 1081.28 818.262 1077.95 816.888 1075.28C810.321 1062.52 804.346 1049.52 799.359 1036.05C795.511 1025.66 793.733 1014.61 789.132 1004.5C787.213 1000.27 785.058 996.145 782.706 992.148C781.435 990.003 779.318 988.583 776.806 987.821C773.005 986.673 770.342 988.771 771.34 992.938C772.243 996.728 774.379 1000.26 774.99 1004.06C776.957 1016.26 786.77 1024.9 789.254 1036.87C791.042 1045.51 795.069 1053.59 795.991 1062.49" stroke="black" stroke-width="1.88103" stroke-linecap="round" stroke-linejoin="round"/>
<path d="M629.246 864.576C631.73 864.294 634.176 865.178 636.002 866.392C643.557 871.405 651.611 876.023 658.056 882.259C666.778 890.706 675.134 899.933 680.28 911.136C684.778 920.927 688.09 931.264 691.929 941.357C694.911 949.182 698.233 956.886 700.754 964.853C702.288 969.697 702.561 974.898 705.496 979.366C706.654 981.134 707.143 983.147 709.834 981.877" stroke="black" stroke-width="1.88103" stroke-linecap="round" stroke-linejoin="round"/>
<path d="M590.435 783.957C577.573 792.686 564.617 801.283 553.316 812.081C549.901 815.345 548.8 819.953 546.128 823.65C537.001 836.235 534.047 851.256 531.102 865.92C529.644 873.153 528.43 880.462 526.463 887.601C523.735 897.486 520.31 907.184 517.675 917.079C513.931 931.16 510.543 945.344 510.129 960.111C509.913 967.918 507.655 975.584 505.557 983.137C501.896 996.352 498.218 1009.49 496.308 1023.2C495.084 1032.01 494.332 1040.94 492.582 1049.73C491.801 1053.64 491.509 1057.91 491.518 1062.05C491.537 1072.08 489.891 1081.9 487.106 1091.45C485.61 1096.55 486.24 1101.84 484.688 1106.84" stroke="black" stroke-width="1.88103" stroke-linecap="round" stroke-linejoin="round"/>
<path d="M650.147 1149.49C650.147 1143.16 646.073 1137.75 639.496 1134.97C628.713 1130.41 617.253 1129.6 605.802 1128.54C599.809 1127.99 593.853 1128.28 587.539 1128.13C587.605 1131.75 586.382 1133.15 582.854 1134.38C573.021 1137.83 563.01 1137.97 552.915 1137.86C550.346 1137.84 547.777 1136.61 545.246 1135.81C542.706 1135.01 540.495 1135.17 538.5 1137.53C540.335 1139.9 543.063 1140.75 545.274 1141.22C555.737 1143.47 565.146 1148.52 575.167 1151.82C581.226 1153.82 587.53 1155.59 594.286 1155.66C601.945 1155.73 609.566 1157.15 617.319 1156.86C620.311 1156.75 623.642 1157.01 626.192 1156.1C632.289 1153.93 638.423 1154.21 644.605 1154.22C647.098 1154.22 649.432 1154.33 650.711 1157.53C651.897 1160.49 650.692 1162.58 649.215 1164.35C644.266 1170.24 638.037 1173.32 630.134 1174.45C620.264 1175.86 611.297 1172.71 601.945 1171.35C595.989 1170.47 590.437 1168.2 584.5 1167.24C579.956 1166.51 575.59 1164.44 571.271 1162.67C565.748 1160.41 559.943 1160.35 554.194 1160.26C551.334 1160.21 550.092 1163.49 552.134 1165.63C554.834 1168.46 558.052 1170.5 561.665 1172.47C569.917 1176.95 579.739 1178.91 585.912 1187.33C590.146 1193.1 595.904 1197.85 601.324 1202.55C604.57 1205.36 608.813 1208.05 613.885 1208.48C617.78 1208.81 621.177 1211.73 625.411 1211.38C627.038 1211.25 628.196 1211.24 627.114 1209.2" stroke="black" stroke-width="1.88103" stroke-linecap="round" stroke-linejoin="round"/>
<path d="M659.949 1165.7C661.229 1169.67 662.697 1173.61 663.741 1177.65C664.823 1181.85 666.281 1185.98 667.881 1189.91C669.17 1193.04 670.882 1196.11 671.852 1199.41C676.791 1216.14 683.585 1232.18 689.7 1248.48C693.737 1259.24 696.917 1270.33 700.417 1281.29C700.662 1282.05 701.716 1282.43 701.311 1283.41" stroke="black" stroke-width="1.88103" stroke-linecap="round" stroke-linejoin="round"/>
<path d="M439.901 1342.7C436.081 1345.92 433.559 1350.01 431.8 1354.64C429.805 1359.88 427.02 1364.57 421.958 1367.38C420.5 1368.19 418.693 1369.13 416.426 1367.57C416.586 1359.6 417.433 1351.7 420.933 1343.89C423.332 1338.53 426.108 1333.63 429.608 1329.01C429.993 1328.5 430.304 1327.52 430.643 1327C431.602 1325.51 431.96 1324.14 430.473 1323.16C429.429 1322.47 428.441 1323.56 427.51 1324.34C422.655 1328.41 419.38 1333.68 416.981 1339.34C414.742 1344.61 411.176 1348.99 407.722 1353.21C403.441 1358.45 398.361 1363.24 392.565 1367.02C391.059 1368.01 389.714 1369.15 387.841 1367.47C385.922 1365.76 385.423 1363.26 386.289 1361.53C390.551 1353 393.11 1343.45 399.16 1336.04C402.501 1331.95 404.599 1326.89 408.786 1323.53C411.411 1321.42 412.361 1318.11 414.685 1315.77C415.777 1314.68 415.193 1312.98 414.93 1311.21C412.126 1310.84 410.046 1312.29 408.409 1313.76C404.505 1317.27 400.957 1321.09 398.041 1325.59C391.765 1335.27 383.485 1343.12 374.198 1349.9C372.618 1351.06 370.755 1352.06 368.666 1350.4C366.878 1348.99 367.48 1347.6 367.678 1345.66C368.261 1339.85 371.15 1335.03 373.267 1329.85C374.085 1327.83 376.043 1325.61 374.612 1322.94C371.997 1323.39 371.404 1325.42 370.425 1326.92C368.647 1329.68 365.966 1331.09 363.162 1332.48C360.602 1333.75 359.878 1332.8 359.699 1330.32C359.473 1327.15 360.518 1324.29 361.43 1321.35C363.416 1314.92 365.109 1308.3 369.597 1303.06C373.314 1298.71 377.388 1294.65 381.509 1290.67C388.378 1284.03 395.312 1277.45 402.416 1271.07C407.403 1266.59 413.603 1263.97 419.427 1260.77C425.138 1257.64 429.843 1253.05 435.31 1249.51C437.031 1248.4 438.706 1248.27 440.353 1247.6C449.47 1243.89 457.665 1238.8 464.656 1231.8C472.07 1224.38 479.061 1216.57 485.469 1208.28C486.617 1206.79 488.602 1205.27 487.67 1202.78" stroke="black" stroke-width="1.88103" stroke-linecap="round" stroke-linejoin="round"/>
<path d="M652.268 1187.88C657.706 1200.31 662.984 1212.81 668.254 1225.32C672.525 1235.48 675.301 1246.13 679.789 1256.2C682.772 1262.89 684.917 1269.92 688.906 1276.18C690.684 1278.97 691.221 1282.22 691.07 1285.54C690.713 1293.41 694.062 1300.58 695.417 1308.13C695.643 1309.4 695.841 1310.77 696.255 1311.96C698.673 1318.92 696.48 1324.09 690.656 1328.22C686.441 1331.21 682.715 1335.08 678.171 1337.39C674.153 1339.44 669.307 1340.01 664.622 1339.24C662.458 1338.9 660.256 1338.37 658.242 1337.52C655.025 1336.18 652.211 1336.27 649.906 1338.93C646.095 1337.52 642.943 1336.3 638.521 1337.18C633.901 1338.09 628.557 1336.22 623.693 1334.93C616.354 1332.99 608.365 1332.9 601.949 1328.15C597.028 1324.51 591.74 1321.62 586.142 1319.23C584.9 1318.7 583.77 1318.06 582.312 1317.87C574.794 1316.93 567.371 1315.81 559.693 1316.53C553.389 1317.11 547.367 1314.85 541.336 1312.94C535.832 1311.2 530.29 1309.15 524.315 1309.4C521.69 1309.5 519.385 1308.34 517.07 1307.28" stroke="black" stroke-width="1.88103" stroke-linecap="round" stroke-linejoin="round"/>
<path d="M651.848 841.539C659.45 849.75 669.188 855.845 675.982 864.706C681.194 871.516 686.586 878.467 690.114 886.377C692.927 892.688 695.769 898.878 699.532 904.719C704.575 912.554 704.416 921.903 705.902 930.707C706.965 937.009 708 943.386 707.332 949.886C706.984 953.234 707.276 956.555 708.922 959.724C710.127 962.038 710.306 964.71 710.287 967.371C710.193 984.49 711.952 1001.51 713.147 1018.56C713.608 1025.22 713.514 1031.93 714.116 1038.59C714.53 1043.14 715.226 1047.66 714.944 1052.24C714.831 1054.09 714.587 1055.94 714.54 1057.79C714.389 1063.94 715.01 1070.03 715.687 1076.14C716.515 1083.62 716.948 1091.16 716.704 1098.73C716.506 1104.96 714.831 1111.07 714.483 1117.09C714.022 1125.07 712.103 1133.4 716.167 1141.52C717.748 1144.67 716.722 1149.41 716.13 1153.32C714.982 1160.83 716.337 1167.81 718.03 1175.16C719.705 1182.45 721.323 1189.84 722.622 1197.26C723.572 1202.67 724.4 1208.12 725.661 1213.46C726.602 1217.43 725.36 1221.17 725.068 1224.98C724.363 1234.39 723.309 1243.77 722.123 1253.13C721.455 1258.41 722.001 1263.66 721.794 1268.93C721.521 1275.73 719.338 1278.41 712.366 1279.08C710.136 1279.3 708.198 1279.33 707.229 1281.71C707.191 1281.81 706.674 1281.66 706.41 1281.73C700.125 1283.39 695.91 1287.69 692.334 1292.81" stroke="black" stroke-width="1.88103" stroke-linecap="round" stroke-linejoin="round"/>
<path d="M602.377 710.6C609.151 696.717 617.149 683.52 625.485 670.559C631.008 661.971 637.83 654.334 645.451 647.477C647.766 645.389 652.131 645.483 652.037 640.404C648.132 639.115 644.011 637.13 639.89 635.127C626.426 628.58 612.143 627.282 597.719 630.17C589.722 631.769 582.712 636.35 575.881 640.996C565.71 647.919 555.492 654.719 546.93 663.674" stroke="black" stroke-width="1.88103" stroke-linecap="round" stroke-linejoin="round"/>
<path d="M553.338 879.071C557.619 871.386 564.478 866.702 572.081 862.827C574.885 861.397 577.5 863.871 580.21 862.676C580.361 863.993 580.972 865.376 580.539 866.232C578.338 870.558 577.726 875.515 577.124 879.964C575.844 889.417 568.816 896.067 566.774 905.04C565.908 908.878 565.88 912.923 564.187 916.694C563.547 918.124 562.935 919.892 562.173 921.237C556.848 930.615 556.848 942.269 549.49 950.725C549.245 955.983 546.065 961.166 549.066 966.508" stroke="black" stroke-width="1.88103" stroke-linecap="round" stroke-linejoin="round"/>
<path d="M684.252 788.226C679.632 781.473 672.98 778.454 665.067 778.98C660.447 779.291 655.893 780.805 651.396 782.197C647.557 783.392 643.775 784.558 639.456 784.201C636.426 783.956 633.133 785.734 630.113 786.985C622.162 790.286 614.315 793.851 605.791 795.469C591.16 798.253 578.514 805.515 566.659 813.961C558.736 819.605 552.498 827.195 548.612 836.404C548.02 837.814 547.38 839.338 547.86 840.655C549.647 845.565 548.885 850.607 549.102 855.61C549.12 856.053 549.638 856.466 549.92 856.89" stroke="black" stroke-width="1.88103" stroke-linecap="round" stroke-linejoin="round"/>
<path d="M485.957 1108.11C490.106 1115.13 489.73 1123.14 488.187 1130.22C485.646 1141.84 483.332 1153.45 482.165 1165.27C481.393 1173.11 479.267 1180.78 479.559 1188.72C479.681 1191.93 480.255 1195.08 481.299 1198.09C483.049 1203.13 486.945 1203.72 490.671 1199.84C494.142 1196.24 496.005 1191.68 498.207 1187.39C499.694 1184.48 501.961 1181.97 502.93 1178.88C504.05 1175.33 506.515 1172.06 504.869 1167.77C504.078 1165.71 503.871 1162.02 506.496 1161.25C508.849 1160.55 511.728 1159.73 514.654 1162.13C518.973 1165.66 522.755 1169.7 526.82 1173.46C535.156 1181.13 545.355 1186.08 554.181 1193C561.144 1198.46 569.141 1202.49 575.53 1208.76C579.736 1212.89 581.608 1218.39 584.337 1223.35C585.221 1224.96 585.776 1227.48 583.622 1229.28C581.42 1231.11 579.501 1230.38 577.167 1229.36C574.9 1228.39 572.848 1226.26 569.96 1227.13" stroke="black" stroke-width="1.88103" stroke-linecap="round" stroke-linejoin="round"/>
<path d="M659.948 1165.06C659.035 1163.7 658.508 1162.37 658.584 1160.57C658.715 1157.38 659.694 1154.03 657.05 1151.11C656.222 1150.19 656.156 1147.49 656.344 1147.02C658.377 1141.89 656.166 1136.95 655.959 1132C655.742 1126.97 657.652 1123.33 661.275 1120.54C667.4 1115.81 670.345 1110.12 669.517 1102.12C669.15 1098.54 670.787 1094.76 671.455 1091.05C671.766 1089.32 671.305 1087.62 670.157 1086.39C665.772 1081.68 662.601 1076.2 659.459 1070.62C655.761 1064.06 649.692 1059.19 645.882 1052.66C641.422 1045.03 635.296 1038.52 631.307 1030.52C627.675 1023.24 623.629 1016.14 619.376 1009.2C615.876 1003.48 611.492 998.298 609.582 991.686C609.384 991.009 608.49 990.539 607.926 989.965" stroke="black" stroke-width="1.88103" stroke-linecap="round" stroke-linejoin="round"/>
<path d="M752.909 1204.5C750.594 1204.39 749.437 1202.8 748.176 1201.12C746.52 1198.9 744.356 1197.12 741.806 1196C739.256 1194.89 737.28 1195.57 736.725 1198.53C736.302 1200.78 735.794 1203.09 735.907 1205.35C736.321 1213.61 737.177 1221.84 737.478 1230.1C737.666 1235.37 738.701 1240.56 738.503 1245.88C738.4 1248.82 741.157 1250.87 742.333 1253.51C745.381 1260.37 749.051 1266.9 751.836 1273.94C753.878 1279.07 760.078 1279.77 764.877 1281.12C770.221 1282.64 775.405 1284.52 780.665 1286.24C786.132 1288.04 792.04 1289.72 797.658 1289.47C802.099 1289.27 806.784 1289.13 811.385 1287.93C816.607 1286.58 821.914 1285.44 827.117 1283.89C827.992 1283.63 829.093 1284.12 830.081 1284.26" stroke="black" stroke-width="1.88103" stroke-linecap="round" stroke-linejoin="round"/>
<path d="M803.231 1129.44C801.321 1135.51 801.867 1141.64 802.808 1147.78C803.024 1149.2 803.833 1150.38 804.398 1151.66C805.32 1153.77 806.402 1155.94 806.242 1158.44C805.809 1165.18 809.742 1170.29 813.158 1175.42C814.776 1177.85 816.601 1180.36 819.81 1181.62C822.181 1182.55 823.046 1185.58 824.081 1187.9C829.604 1200.23 832.418 1213.24 833.556 1226.69C834.13 1233.36 835.466 1239.99 834.384 1246.74C834.271 1247.43 834.234 1248.19 834.384 1248.86C835.024 1251.55 836.464 1255.83 834.638 1256.62C831.336 1258.05 830.395 1261.8 826.735 1262.69C823.827 1263.41 821.513 1265.93 818.681 1267.38C811.84 1270.92 804.435 1271.36 797.256 1271.65C789.983 1271.94 782.663 1269.6 776.02 1266.61C769.952 1263.89 764.024 1260.94 757.616 1259.08C754.182 1258.08 750.71 1257.05 747.822 1254.81C746.166 1253.53 744.679 1253.97 743.117 1254.83" stroke="black" stroke-width="1.88103" stroke-linecap="round" stroke-linejoin="round"/>
<path d="M348.642 1302.19C349.226 1296.95 353.45 1294.19 356.866 1291.24C360.008 1288.52 362.314 1285.12 364.609 1281.97C367.103 1278.56 369.154 1275.35 373.369 1274.01C375.721 1273.26 375.656 1270.76 374.978 1269.4C368.684 1256.75 366.294 1242.78 361.269 1229.74C358.992 1223.84 356.856 1217.83 354.062 1212.04C350.712 1205.1 347.391 1197.94 345.283 1190.42C344.606 1188.01 343.656 1186.18 340.974 1186.66C338.744 1187.06 337.041 1191.32 338.462 1193.38C345.801 1204.01 347.118 1217.03 352.566 1228.35C357.807 1239.25 361.777 1250.57 365.221 1262.1C366.256 1265.56 366.614 1269.21 367.451 1272.74C367.677 1273.67 368.533 1274.46 369.107 1275.3" stroke="black" stroke-width="1.88103" stroke-linecap="round" stroke-linejoin="round"/>
<path d="M691.502 1294.5C687.719 1296.67 683.918 1295.45 680.446 1293.99C673.822 1291.21 667.01 1290.88 659.963 1290.41C652.784 1289.93 645.68 1290.78 638.633 1291.02C630.353 1291.31 622.44 1289.34 614.311 1289.38C609.691 1289.39 605.918 1286.9 601.976 1285.05C599.332 1283.81 596.641 1283.66 593.856 1283.33C587.618 1282.59 581.483 1282.94 575.546 1284.8C573.88 1285.31 571.98 1285.05 571.359 1284.54C566.993 1280.98 560.943 1280.67 556.944 1275.91C553.915 1272.29 548.382 1271.92 543.555 1270.89C533.601 1268.78 523.411 1267.78 513.663 1264.68C511.96 1264.13 510.963 1262.7 509.41 1262.07C503.483 1263.87 498.938 1268.01 494.13 1271.55C489.604 1274.89 487.139 1279.67 486.255 1285.51C485.351 1291.47 480.628 1295.64 477.363 1300.42C469.14 1312.44 458.734 1322.4 447.161 1331.18C446.53 1331.66 446.022 1332.32 445.448 1332.88C439.153 1338.95 438.721 1340.47 443.406 1347.75C446.144 1352 445.439 1361.71 441.609 1364.87C439.191 1366.86 436.829 1368.91 434.345 1370.82C431.288 1373.18 427.637 1374.41 424.758 1377.45C421.907 1380.47 416.817 1380.24 412.611 1381.05C411.435 1381.27 410.814 1380.42 410.484 1379.36" stroke="black" stroke-width="1.88103" stroke-linecap="round" stroke-linejoin="round"/>
<path d="M691.927 812.531C690.798 819.087 696.556 821.73 699.699 825.671C704.939 832.237 710.143 838.774 714.123 846.214C716.221 850.136 716.4 854.341 716.193 858.592C716.07 861.085 712.222 862.778 710.303 861.103C708.12 859.194 706.2 856.955 704.3 854.745C699.699 849.384 695.342 843.815 690.581 838.604C687.608 835.35 684.099 832.585 680.824 829.594" stroke="black" stroke-width="1.88103" stroke-linecap="round" stroke-linejoin="round"/>
<path d="M411.335 1210.91C408.079 1209.33 405.981 1203.7 407.072 1199.4C408.173 1195.03 408.879 1190.6 409.735 1186.19C411.363 1177.81 414.807 1170.02 419.972 1163.22C421.638 1161.03 422.541 1158.91 423.51 1156.4C425.288 1151.79 427.65 1147.15 431.809 1143.95C440.296 1137.43 448.462 1130.54 456.074 1123C458.756 1120.35 461.56 1117.88 464.674 1115.83C470.16 1112.23 475.344 1114.66 476.087 1121.35C476.783 1127.57 474.892 1133.41 471.844 1138.8C470.893 1140.48 470.047 1142.16 469.228 1143.9C467.233 1148.14 464.345 1151.38 459.113 1152.17C455.096 1152.78 451.389 1154.87 447.164 1155.13C444.953 1155.26 444.172 1157.7 442.827 1159.24C439.232 1163.37 438.16 1169 434.368 1172.96C433.606 1173.76 433.032 1175.28 432.213 1175.41C424.272 1176.64 423.416 1183.73 420.781 1189.19C418.542 1193.83 415.014 1197.95 414.374 1203.24C413.894 1207.25 411.626 1210.7 411.297 1214.75C410.761 1221.32 411.156 1222.06 417.554 1223.78C421.929 1220.51 422.371 1215.04 423.952 1210.43C425.919 1204.66 427.782 1199.07 432.232 1194.71" stroke="black" stroke-width="1.88103" stroke-linecap="round" stroke-linejoin="round"/>
<path d="M639.906 809.127C644.376 808.149 648.685 810.19 651.658 812.372C657.529 816.69 664.793 818.75 669.902 824.355C672.038 826.698 675.613 827.93 678.746 829.096C682.745 830.592 688.635 823.575 687.177 818.956C686.029 815.326 685.831 811.3 683.075 808.187C682.595 807.651 681.353 806.211 682.181 805.337C685.38 801.941 683.601 797.915 683.743 794.191C683.856 791.124 684.552 788.585 687.685 787.87C690.988 787.127 690.884 784.578 691.514 782.255C694.008 773.103 689.388 764.553 680.901 760.376C672.028 756.012 663.466 758.279 654.876 760.273C653.135 760.677 651.987 760.564 650.567 760.075" stroke="black" stroke-width="1.88103" stroke-linecap="round" stroke-linejoin="round"/>
<path d="M674.87 1026.22C677.683 1024.37 678.059 1021.51 677.796 1018.55C677.692 1017.37 677.165 1016.11 677.89 1015.15C681.221 1010.79 680.92 1005.62 681.24 1000.62C681.936 989.814 682.914 978.959 678.285 968.631C676.328 964.258 673.665 962.076 670.617 962.715C669.572 962.931 667.869 962.884 668.048 964.794C669.149 976.147 667.502 987.772 670.72 998.881C672.564 1005.25 672.819 1011.61 673.327 1018.1C674.004 1026.77 673.12 1035.56 675.575 1044.17C676.667 1047.98 675.161 1052.12 674.456 1056.08C673.656 1060.58 673.298 1065.14 673.073 1069.72C672.8 1075.31 672 1080.89 670.598 1086.36" stroke="black" stroke-width="1.88103" stroke-linecap="round" stroke-linejoin="round"/>
<path d="M547.37 839.836C546.072 841.04 545.008 842.338 544.331 844.078C541.96 850.22 539.636 856.277 538.159 862.805C536.503 870.123 533.915 877.309 532.09 884.636C530.18 892.312 529.013 900.024 530.519 908.113C531.215 911.857 529.832 916.09 528.975 920.003C527.621 926.154 525.842 932.183 522.239 937.516C519.397 941.721 516.546 942.944 512.406 941.335" stroke="black" stroke-width="1.88103" stroke-linecap="round" stroke-linejoin="round"/>
<path d="M716.241 1172.95C711.866 1181.39 708.874 1189.95 710.558 1199.84C711.819 1207.26 712.177 1214.88 712.318 1222.42C712.506 1232.39 713.701 1242.3 713.287 1252.28C713.014 1258.82 711.979 1265.32 712.365 1271.9C712.506 1274.28 710.361 1276.22 710.699 1278.72" stroke="black" stroke-width="1.88103" stroke-linecap="round" stroke-linejoin="round"/>
<path d="M743.105 1152.05C744.526 1156.74 745.335 1161.74 747.547 1166.03C749.56 1169.94 749.362 1174.31 751.545 1178.12C754.424 1183.14 757.878 1186.39 763.946 1187.7C768.952 1188.8 773.976 1190.93 776.902 1196.35C781.626 1205.09 788.306 1205.38 794.704 1197.68C797.922 1193.82 800.359 1193.29 804.508 1195.55C808.291 1197.61 816.175 1192.95 816.364 1188.3C816.467 1185.89 817.154 1183.73 817.728 1181.48" stroke="black" stroke-width="1.88103" stroke-linecap="round" stroke-linejoin="round"/>
<path d="M507.277 1263.79C507.926 1271.16 505.282 1277.6 501.754 1283.85C497.529 1291.33 493.37 1298.84 489.419 1306.47C487.894 1309.42 489.56 1311.75 491.903 1313.71C500.521 1320.92 510.307 1325.59 521.324 1327.82C524.335 1328.43 527.261 1328.98 530.291 1328.19" stroke="black" stroke-width="1.88103" stroke-linecap="round" stroke-linejoin="round"/>
<path d="M551.636 880.348C548.333 881.636 547.863 885.069 547.1 887.647C544.419 896.77 541.973 906.007 540.213 915.338C536.685 934.055 533.712 952.886 534.182 972.046C534.285 976.457 534.53 980.887 535.066 985.261C535.584 989.466 537.908 990.293 541.408 987.829" stroke="black" stroke-width="1.88103" stroke-linecap="round" stroke-linejoin="round"/>
<path d="M432.233 1194.05C434.707 1195.89 434.839 1196 433.917 1198.52C432.299 1202.94 431.452 1207.46 431.8 1212.18C432.064 1215.79 434.331 1219.02 433.654 1222.87C433.522 1223.62 434.867 1224.76 436.514 1224.61C438.706 1224.42 438.509 1222.51 438.537 1221.56C438.772 1212.92 442.46 1205.51 446.243 1198.06C446.949 1196.68 447.466 1195.4 448.877 1194.68" stroke="black" stroke-width="1.88103" stroke-linecap="round" stroke-linejoin="round"/>
<path d="M471.892 1174.65C466.717 1177.07 463.857 1181.09 461.919 1186.53C459.774 1192.53 457.149 1198.39 455.314 1204.51C454.232 1208.12 455.05 1212.06 453.244 1215.64C452.557 1217.01 452.707 1218.72 450.572 1218.56C448.144 1218.38 448.285 1216.28 448.059 1214.73C447.373 1210.01 448.812 1205.38 448.991 1200.67C449.179 1195.67 450.289 1190.71 451.004 1185.73" stroke="black" stroke-width="1.88103" stroke-linecap="round" stroke-linejoin="round"/>
<path d="M404.94 1258.67C387.891 1274.47 372.357 1291.89 353.746 1305.99C351.46 1307.73 348.882 1309.08 346.539 1310.74C345.579 1311.43 344.77 1312.75 343.575 1311.53C342.446 1310.37 342.681 1307.95 343.236 1307.43C345.174 1305.64 346.332 1302.84 349.935 1302.87C352.871 1302.9 355.026 1300.22 357.152 1298.3C364.482 1291.71 371.764 1285.05 378.906 1278.26C384.88 1272.58 390.253 1266.38 394.317 1259.11C396.98 1254.36 402.936 1252.51 407.076 1254.82C407.18 1256.4 406.098 1257.45 405.373 1258.65" stroke="black" stroke-width="1.88103" stroke-linecap="round" stroke-linejoin="round"/>
<path d="M772.106 1046.27C769.97 1042.85 768.549 1039.28 767.627 1035.23C766.545 1030.47 764.127 1025.94 761.812 1021.56C757.164 1012.74 752.055 1004.11 745.168 996.86C738.817 990.172 735.439 981.839 731.167 973.975C729.775 971.417 728.166 969.112 724.289 968.144C723.932 968.106 723.142 969.169 723.132 969.931C723.085 974.991 722.229 980.164 725.165 984.877C728.317 989.937 729.907 995.477 729.446 1001.5C728.956 1007.99 730.499 1014.31 731.243 1020.68C732.249 1029.35 732.588 1038.01 732.993 1046.71C733.52 1058.09 733.689 1069.45 733.717 1080.84C733.717 1083.32 733.952 1085.93 730.735 1086.81" stroke="black" stroke-width="1.88103" stroke-linecap="round" stroke-linejoin="round"/>
<path d="M591.712 725.105C596.256 720.768 595.626 714.692 596.67 709.293C597.244 706.302 594.478 704.346 592.173 702.455C583.864 695.673 574.973 689.748 566.251 683.549C558.498 678.037 550.999 671.811 546.125 663.336C534.674 663.637 523.412 665.988 511.971 665.8C503.728 665.659 496.22 666.694 493.266 676.598C496.032 681.574 501.216 684.358 506.485 686.587C510.164 688.139 514.37 686.437 518.369 686.493C525.021 686.606 531.748 686.239 538.4 685.722C543.293 685.336 548.223 684.001 552.853 682.298C555.553 681.311 558.837 682.402 561.01 679.89" stroke="black" stroke-width="1.88103" stroke-linecap="round" stroke-linejoin="round"/>
<path d="M837.347 1108.11C838.269 1104.79 837.827 1101.6 836.98 1098.29C835.616 1092.93 837.469 1087.47 836.848 1082.1C836.246 1076.94 836.444 1071.54 832.737 1067.1C831.241 1065.3 829.65 1064.06 827.468 1063.14C825.718 1065.85 827.336 1068.38 828.098 1070.53C830.271 1076.63 832.633 1082.66 834.298 1088.94C834.552 1089.89 835.202 1090.07 835.653 1090.62" stroke="black" stroke-width="1.88103" stroke-linecap="round" stroke-linejoin="round"/>
<path d="M653.129 641.928C657.485 646.565 662.839 650.064 667.252 654.673C676.237 664.06 682.739 674.83 686.832 687.133C687.999 690.641 686.568 693.387 684.696 696.078C688.375 703.631 688.855 711.983 690.548 720.006C691.31 723.599 686.352 730.814 682.965 731.895C680.603 732.648 678.166 733.353 675.72 733.57C671.533 733.955 669.256 736.175 667.986 740.013C667.515 741.424 666.414 742.656 665.473 743.86C663.977 745.769 662.378 745.722 660.797 743.878C659.546 742.43 658.219 741.057 656.968 739.599C654.493 736.702 654.87 734.604 657.325 731.876C660.43 728.443 662.472 724.192 666.283 721.191C672.878 715.999 679.728 712.039 688.516 713.159" stroke="black" stroke-width="1.88103" stroke-linecap="round" stroke-linejoin="round"/>
<path d="M597.266 708.889C604.68 710.14 608.077 716.837 613.477 720.815C618.991 724.879 624.467 728.773 630.733 731.924C635.504 734.322 640.584 737.05 645.044 740.417C647.905 742.571 650.981 744.452 653.983 746.409C654.952 747.039 655.902 747.603 655.564 749.4C654.35 749.24 653.033 749.56 651.847 750.256" stroke="black" stroke-width="1.88103" stroke-linecap="round" stroke-linejoin="round"/>
<path d="M484.257 1107.69C481.923 1111.08 482.695 1115.05 482.102 1118.78C480.521 1128.59 480.333 1138.56 477.586 1148.26C475.186 1156.73 472.853 1165.55 472.75 1174.24C472.684 1179.7 472.881 1185.46 472.439 1190.84C471.696 1199.98 472.345 1209.07 471.912 1218.16C471.837 1219.63 471.583 1221.18 472.75 1222.42" stroke="black" stroke-width="1.88103" stroke-linecap="round" stroke-linejoin="round"/>
<path d="M775.941 1010.02C767.05 1004.13 758.28 997.66 751.939 989.307C746.425 982.046 740.055 975.217 735.831 966.95C734.504 964.363 732.575 962.331 729.912 960.911C727.861 959.811 728.181 956.923 726.469 955.418" stroke="black" stroke-width="1.88103" stroke-linecap="round" stroke-linejoin="round"/>
<path d="M727.321 1068.66C725.289 1068.57 725.336 1069.97 725.167 1071.43C723.934 1081.96 722.532 1092.46 721.384 1103C720.123 1114.5 719.07 1126.02 717.978 1137.54C717.884 1138.51 717.734 1139.37 717.094 1140.1" stroke="black" stroke-width="1.88103" stroke-linecap="round" stroke-linejoin="round"/>
<path d="M590.013 725.527C584.744 731.368 577.499 733.466 570.385 735.723C567.356 736.683 565.37 738.188 563.884 741.254C560.421 748.393 555.576 754.752 548.547 758.617C545.753 760.16 541.829 759.991 538.414 760.009C530.783 760.047 524.225 762.069 519.652 768.606" stroke="black" stroke-width="1.88103" stroke-linecap="round" stroke-linejoin="round"/>
<path d="M494.914 1195.97C503.58 1214.3 516.414 1229.29 532.014 1242.03" stroke="black" stroke-width="1.88103" stroke-linecap="round" stroke-linejoin="round"/>
<path d="M538.413 686.285C532.034 692.982 526.455 700.432 519.276 706.395C517.46 707.9 515.173 709.245 514.308 712.142C518.118 715.857 519.624 720.146 517.657 725.574C517.008 727.37 518.25 729.778 518.335 731.923C518.608 739.429 516.199 746.351 512.68 752.747C510.986 755.842 511.193 759.172 509.97 762.266C509.528 763.385 510.751 765.022 512.388 765.633C519.276 768.248 524.865 773.111 531.027 776.921C537.482 780.909 543.221 786.12 543.654 795.046C543.965 801.47 548.011 806.587 551.633 811.685" stroke="black" stroke-width="1.88103" stroke-linecap="round" stroke-linejoin="round"/>
<path d="M552.485 879.285C553.492 880.734 554.085 882.182 553.746 882.906C550.425 890.008 548.976 897.711 546.577 905.114C544.714 910.889 544.064 916.956 543.528 923.004C542.804 931.262 542.192 939.521 541.101 947.76C540.48 952.491 541.082 957.42 541.439 962.236C541.703 965.791 541.543 969.375 541.571 972.902C541.59 975.414 542.615 976.571 543.952 978.019" stroke="black" stroke-width="1.88103" stroke-linecap="round" stroke-linejoin="round"/>
<path d="M742.681 1257.39C741.222 1263.19 739.849 1268.96 735.069 1273.25C733.902 1274.31 733.545 1276.29 732.877 1277.87C730.327 1283.84 726.385 1288.7 721.388 1292.84C717.869 1295.75 716.373 1299.47 716.966 1304.33C717.55 1309.14 714.906 1313.41 712.742 1317.5C709.928 1322.83 706.4 1327.74 702.749 1332.59C700.698 1335.32 700.425 1339.34 699.136 1342.7C698.158 1345.25 697.301 1347.73 695.58 1350.14C693.5 1353.02 693.801 1357.27 693.557 1361.05C693.218 1366.32 693.764 1371.77 693.19 1376.78C692.541 1382.44 695.382 1388.04 692.785 1393.47" stroke="black" stroke-width="1.88103" stroke-linecap="round" stroke-linejoin="round"/>
<path d="M742.245 995.516C742.132 1000.75 745.256 1004.86 747.514 1009.08C750.28 1014.25 754.552 1018.62 757.478 1023.72C759.906 1027.96 762.098 1032.26 765.203 1036.08C765.89 1036.93 766.52 1037.17 767.405 1037.31" stroke="black" stroke-width="1.88103" stroke-linecap="round" stroke-linejoin="round"/>
<path d="M828.398 1291.1C828.972 1291.22 829.546 1291.34 830.139 1291.47C825.858 1302.68 823.336 1314.22 821.935 1326.07C821.107 1333.06 819.074 1339.87 816.807 1346.52C814.944 1351.99 814.605 1357.79 812.591 1363.17C811.989 1364.77 812.761 1365.84 813.476 1367.02" stroke="black" stroke-width="1.88103" stroke-linecap="round" stroke-linejoin="round"/>
<path d="M761.441 1122.19C769.58 1122.14 776.853 1125.69 784.446 1127.83C788.897 1129.09 793.31 1127.89 797.694 1128.59C804.28 1129.63 810.556 1127.47 816.851 1126.29C821.424 1125.45 825.921 1123.64 830.099 1121.35C833.307 1119.58 834.596 1116.68 834.747 1113.24C834.822 1111.53 835.537 1110.09 836.073 1108.54" stroke="black" stroke-width="1.88103" stroke-linecap="round" stroke-linejoin="round"/>
<path d="M659.091 1165.7C657.632 1168.05 657.058 1170.61 656.927 1173.37C656.682 1178.34 652.42 1181.93 652.062 1187.01C652.006 1187.77 650.481 1189.49 649.277 1190.43C643.397 1195.02 640.508 1201.41 638.683 1208.37C638.353 1209.64 638.363 1210.8 636.923 1211.35C632.256 1213.14 630.883 1217.55 629.829 1221.61C628.944 1225.03 627.571 1227.88 625.416 1230.54C620.175 1237.03 614.078 1242.43 606.655 1246.33C598.591 1250.57 594.564 1257.93 592.701 1266.39C591.713 1270.86 591.092 1275.37 589.191 1279.59C588.796 1280.48 588.872 1281.57 588.73 1282.56" stroke="black" stroke-width="1.88103" stroke-linecap="round" stroke-linejoin="round"/>
<path d="M511.116 1325.64C510.006 1333.86 509.253 1342.08 509.376 1350.38C509.517 1360.54 506.431 1370.43 506.713 1380.67C506.835 1384.91 505.377 1389.19 504.756 1393.47C504.596 1394.58 504.455 1395.81 505.151 1396.88" stroke="black" stroke-width="1.88103" stroke-linecap="round" stroke-linejoin="round"/>
<path d="M574.656 823.621C574.816 825.239 573.386 825.831 572.492 826.565C562.763 834.551 555.913 844.483 552.056 856.467C551.623 857.802 549.75 858.508 550.353 860.304" stroke="black" stroke-width="1.88103" stroke-linecap="round" stroke-linejoin="round"/>
<path d="M540.117 1192.14C542.714 1194.5 543.1 1198.17 545.565 1200.76C549.338 1204.73 552.678 1208.89 557.467 1211.97C560.864 1214.17 563.339 1218.09 565.597 1221.64C567.318 1224.35 569.238 1226.93 570.602 1230.01C573.839 1237.31 580.284 1242.29 587.181 1245.55C590.643 1247.19 595.235 1249.21 599.836 1247.65C600.56 1247.41 601.52 1247.88 602.376 1248.03" stroke="black" stroke-width="1.88103" stroke-linecap="round" stroke-linejoin="round"/>
<path d="M444.173 1353.79C442.084 1354.72 439.996 1355.73 438.65 1357.64C434.745 1363.2 428.611 1366.32 424.047 1371.2C420.321 1375.18 414.516 1375.96 410.32 1379.28C406.283 1375.73 404.524 1370.19 398.559 1369.4C397.552 1369.27 396.827 1367 395.98 1365.72" stroke="black" stroke-width="1.88103" stroke-linecap="round" stroke-linejoin="round"/>
<path d="M706.862 902.961C705.488 906.864 705.046 910.928 708.207 913.985C713.297 918.895 713.467 925.46 714.389 931.564C715.857 941.271 715.96 951.138 716.318 960.967C716.534 966.893 718.773 972.311 722.217 977.174" stroke="black" stroke-width="1.88103" stroke-linecap="round" stroke-linejoin="round"/>
<path d="M433.513 1143.94C433.786 1145.61 433.438 1147.28 432.61 1148.61C428.301 1155.52 427.143 1163.71 423.427 1170.89C422.26 1173.15 423.417 1176.07 426.475 1177.21" stroke="black" stroke-width="1.88103" stroke-linecap="round" stroke-linejoin="round"/>
<path d="M566.133 1225.84C561.099 1230.51 556.686 1235.92 550.373 1239.1C549.516 1239.53 548.924 1240.47 548.218 1241.2C543.777 1245.74 539.722 1246.22 533.719 1242.9" stroke="black" stroke-width="1.88103" stroke-linecap="round" stroke-linejoin="round"/>
<path d="M610.487 745.148C611.249 748.13 610.308 750.641 608.85 753.294C605.726 758.985 602.903 764.826 599.441 770.347C598.095 772.482 597.634 774.993 598.114 777.571" stroke="black" stroke-width="1.88103" stroke-linecap="round" stroke-linejoin="round"/>
<path d="M591.717 1347.39C592.046 1356.95 590.419 1366.41 590.268 1375.97C590.165 1382.34 588.452 1388.69 588.735 1395.16" stroke="black" stroke-width="1.88103" stroke-linecap="round" stroke-linejoin="round"/>
<path d="M830.949 1097.88C826.009 1100.61 821.991 1104.67 817.541 1108.01C811.538 1112.51 805.403 1112.13 798.958 1112.37C788.467 1112.77 779.058 1108.63 769.574 1105.02C768.276 1104.52 767.344 1104.19 766.121 1104.7" stroke="black" stroke-width="1.88103" stroke-linecap="round" stroke-linejoin="round"/>
<path d="M667.627 1308.15C661.643 1309.44 660.448 1312 659.94 1317.1C659.413 1322.41 657.691 1324.27 652.271 1325.19C647.877 1325.94 643.399 1326.74 639.08 1325.15C635.721 1323.91 634.724 1326.49 632.945 1327.94C634.677 1331.94 639.692 1332.05 641.197 1335.88" stroke="black" stroke-width="1.88103" stroke-linecap="round" stroke-linejoin="round"/>
<path d="M590.229 701.215C589.166 701.497 588.112 701.911 587.03 702.043C582.937 702.541 582.655 702.833 583.633 706.755C584.593 710.583 581.394 712.85 580.02 715.625C577.451 720.807 573.791 725.059 567.008 725.727C563.263 726.093 561.927 731.445 563.479 735.377C563.884 736.402 564.618 737.249 564.862 738.321" stroke="black" stroke-width="1.88103" stroke-linecap="round" stroke-linejoin="round"/>
<path d="M666.767 1304.74C669.327 1309.59 669.167 1314.72 667.454 1319.61C666.786 1321.52 667.483 1323.55 666.335 1325.21C664.076 1328.49 660.708 1329.67 656.954 1329.88C654.254 1330.03 651.534 1329.9 648.73 1329.9C649.728 1332.6 650.565 1334.88 651.412 1337.16" stroke="black" stroke-width="1.88103" stroke-linecap="round" stroke-linejoin="round"/>
<path d="M561.438 1216.87C555.012 1217.93 552.067 1223.54 548.416 1227.71C544.691 1231.96 540.457 1235.43 536.222 1238.98C534.999 1240 533.532 1240.82 532.459 1242.04C526.484 1248.84 518.468 1253.07 511.515 1258.63C510.216 1259.66 508.551 1260.22 508.137 1262.08" stroke="black" stroke-width="1.88103" stroke-linecap="round" stroke-linejoin="round"/>
<path d="M662.932 1120.06C665.369 1121.96 664.701 1124.16 664.409 1126.91C663.826 1132.42 661.163 1137.58 662.631 1143.59C663.365 1146.58 660.937 1150.35 659.949 1153.76" stroke="black" stroke-width="1.88103" stroke-linecap="round" stroke-linejoin="round"/>
<path d="M504.293 1169.11C499.466 1169.69 496.662 1172.27 496.182 1177.21C495.985 1179.24 494.207 1179.73 492.795 1180.64C489.182 1182.99 488.956 1183.87 491.092 1187.43C492.184 1189.26 492.993 1191.34 494.912 1192.56" stroke="black" stroke-width="1.88103" stroke-linecap="round" stroke-linejoin="round"/>
<path d="M729.46 1244.18C731.022 1246.83 729.018 1249.32 728.821 1251.84C728.444 1256.67 729.969 1261.2 729.95 1265.93C729.931 1269.18 729.536 1271.82 726.073 1273.23C724.493 1273.87 724.041 1277.05 721.359 1275.3" stroke="black" stroke-width="1.88103" stroke-linecap="round" stroke-linejoin="round"/>
<path d="M612.187 844.523C617.541 840.694 618.773 836.048 615.603 831.73C612.564 834.035 609.684 840.487 611.002 843.206C612.197 845.67 611.811 847.391 610.08 849.244C608.979 850.42 608.066 851.784 607.078 853.063" stroke="black" stroke-width="1.88103" stroke-linecap="round" stroke-linejoin="round"/>
<path d="M574.233 1285.55C573.518 1286.68 573.047 1288.13 572.059 1288.9C568.945 1291.3 568.484 1294.11 568.917 1297.94C569.255 1300.94 567.345 1303.9 564.419 1305.59C559.489 1308.43 554.991 1312.3 548.631 1311.72C547.841 1311.65 545.639 1311.23 545.234 1313.28" stroke="black" stroke-width="1.88103" stroke-linecap="round" stroke-linejoin="round"/>
<path d="M835.218 1257.39C836.911 1263.32 837.532 1269.1 834.437 1274.92C832.207 1279.11 830.814 1283.7 830.541 1288.53C830.485 1289.49 830.683 1290.48 829.676 1291.09" stroke="black" stroke-width="1.88103" stroke-linecap="round" stroke-linejoin="round"/>
<path d="M776.365 1204.5C773.297 1205.01 771.839 1203.97 772.507 1200.66C772.864 1198.87 772.243 1197.36 770.38 1196.87C768.772 1196.44 767.906 1197.62 767.417 1198.96C765.921 1203.06 761.357 1204.31 759.212 1207.86C758.647 1208.79 756.888 1208.66 755.919 1207.87C754.611 1206.81 753.077 1205.63 753.36 1203.65C753.821 1200.37 754.404 1197.09 755.053 1193.84C756.098 1188.63 755.006 1187.77 749.897 1188.59C747.329 1189 744.779 1189.46 742.238 1190" stroke="black" stroke-width="1.88103" stroke-linecap="round" stroke-linejoin="round"/>
<path d="M624.984 748.562C622.424 756.097 617.795 762.399 612.987 768.569C611.924 769.933 610.889 771.184 610.484 772.877" stroke="black" stroke-width="1.88103" stroke-linecap="round" stroke-linejoin="round"/>
<path d="M558.03 682.023C555.763 687.347 553.354 692.596 553.683 698.663C553.787 700.628 552.818 702.622 552.517 704.635C552.159 707.043 552.884 707.796 555.048 707.617" stroke="black" stroke-width="1.88103" stroke-linecap="round" stroke-linejoin="round"/>
<path d="M558.033 1211.76C557.572 1207.47 555.784 1203.41 553.159 1200.4C550.393 1197.23 546.516 1194.78 542.254 1193.43" stroke="black" stroke-width="1.88103" stroke-linecap="round" stroke-linejoin="round"/>
<path d="M760.164 1207.92C766.581 1208.47 777.975 1212.03 782.181 1216.3C783.668 1213.31 788.165 1214.19 788.937 1209.32C790.066 1211.15 790.659 1212.12 791.101 1212.83C794.215 1211.82 793.284 1208.74 795.316 1207.31C798.553 1210.47 800.5 1208.73 801.949 1205.37" stroke="black" stroke-width="1.88103" stroke-linecap="round" stroke-linejoin="round"/>
<path d="M553.771 958.408C553.63 959.123 553.809 959.791 553.395 960.572C550.591 965.924 547.956 971.36 545.237 976.75C543.393 980.39 541.935 984.105 543.129 988.263C543.863 990.812 543.384 993.389 543.525 995.947C543.609 997.49 543.271 999.126 544.814 1000.21" stroke="black" stroke-width="1.88103" stroke-linecap="round" stroke-linejoin="round"/>
<path d="M485.533 1096.18C483.999 1095.79 483.086 1096.96 482.607 1097.91C479.774 1103.58 474.242 1106.4 469.632 1110.09C467.994 1111.4 467.458 1112.32 467.627 1114.09" stroke="black" stroke-width="1.88103" stroke-linecap="round" stroke-linejoin="round"/>
<path d="M646.306 750.266C644.66 755.326 640.529 758.947 638.431 763.829C637.772 765.353 635.298 766.688 633.096 767.356C627.122 769.172 621.006 770.517 615.125 772.746C612.425 773.771 609.207 773.442 606.215 773.724" stroke="black" stroke-width="1.88103" stroke-linecap="round" stroke-linejoin="round"/>
<path d="M506 1169.11C511.815 1172.32 518.382 1174.23 523.077 1179.33C524.225 1180.58 525.533 1181.67 525.194 1183.61" stroke="black" stroke-width="1.88103" stroke-linecap="round" stroke-linejoin="round"/>
<path d="M745.243 1111.53C744.528 1111.1 743.87 1110.52 743.098 1110.28C741.452 1109.77 739.645 1108.38 738.036 1109.87C736.399 1111.39 735.599 1113.79 736.38 1115.75C738.469 1120.98 736.86 1126.17 736.032 1131.1C735.204 1135.99 735.449 1140.85 735.242 1145.65C735.072 1149.5 735.411 1152.91 732.993 1156.38C730.725 1159.64 730.65 1163.46 732.353 1167.44C734.094 1171.51 736.192 1175.5 736.474 1180.18C736.559 1181.54 736.644 1183.22 736.164 1183.95C734.301 1186.79 734.15 1189.83 734.16 1192.99" stroke="black" stroke-width="1.88103" stroke-linecap="round" stroke-linejoin="round"/>
<path d="M584.469 708.465C590.105 708.634 591.271 709.923 589.474 715.247C588.646 717.701 590.076 720.279 588.383 722.593C587.847 723.326 588.769 724.897 589.597 725.01C593.52 725.565 591.582 727.54 590.876 729.365C588.891 734.519 588.279 739.768 590.011 745.139" stroke="black" stroke-width="1.88103" stroke-linecap="round" stroke-linejoin="round"/>
<path d="M819.441 1199.82C819.714 1201.65 819.084 1202.97 817.08 1203.77C815.819 1203.07 814.417 1202.32 813.043 1201.52C810.39 1199.97 809.27 1200.57 809.214 1203.66C809.185 1205.46 809.364 1207.24 810.484 1208.77" stroke="black" stroke-width="1.88103" stroke-linecap="round" stroke-linejoin="round"/>
<path d="M572.953 705.905C572.52 705.059 572.727 703.883 571.56 703.375C565.51 705.162 561.276 710.081 555.895 713.157" stroke="black" stroke-width="1.88103" stroke-linecap="round" stroke-linejoin="round"/>
<path d="M388.304 1308.15C380.833 1310.34 377.192 1316.37 373.805 1322.65" stroke="black" stroke-width="1.88103" stroke-linecap="round" stroke-linejoin="round"/>
<path d="M416.022 1358.48C410.762 1361.75 405.531 1365.07 400.205 1368.22C399.49 1368.65 399.396 1368.96 399.387 1369.57" stroke="black" stroke-width="1.88103" stroke-linecap="round" stroke-linejoin="round"/>
<path d="M720.084 1277.45C719.369 1281.57 718.823 1285.74 717.882 1289.8C717.421 1291.79 717.6 1293.38 718.804 1294.93" stroke="black" stroke-width="1.88103" stroke-linecap="round" stroke-linejoin="round"/>
<path d="M753.763 1097.46C750.254 1101.63 748.353 1106.71 746.227 1111.59C745.502 1113.27 744.787 1115.93 747.356 1117.52C750.235 1119.31 753.029 1121.23 755.899 1123.04C758.242 1124.53 759.945 1123.59 760.989 1121.34C762.993 1117 766.23 1113 764.847 1107.7C764.527 1106.46 765.731 1105.65 765.769 1104.51C765.835 1103.53 764.922 1103.34 764.405 1103.04C755.542 1098.01 747.76 1091.11 737.984 1087.66" stroke="black" stroke-width="1.88103" stroke-linecap="round" stroke-linejoin="round"/>
<path d="M400.675 1292.8C399.339 1297.71 395.472 1300.98 392.442 1304.63C388.312 1309.61 384.972 1315.22 380.211 1319.67C378.592 1321.17 377.078 1322.79 375.516 1324.35" stroke="black" stroke-width="1.88103" stroke-linecap="round" stroke-linejoin="round"/>
<path d="M393.85 1259.11C392.457 1258.01 391.752 1259.23 390.858 1259.95C386.323 1263.66 381.769 1267.36 377.215 1271.05" stroke="black" stroke-width="1.88103" stroke-linecap="round" stroke-linejoin="round"/>
<path d="M600.25 743.867C595.602 749.003 593.513 755.794 588.95 761.118C586.993 763.403 585.45 767.297 586.927 771.21C587.426 772.527 587.031 774.399 586.532 775.838C585.854 777.776 586.259 779.676 587.915 779.958C589.721 780.268 588.884 777.785 589.59 776.722" stroke="black" stroke-width="1.88103" stroke-linecap="round" stroke-linejoin="round"/>
<path d="M519.652 1151.62C521.958 1158.4 528.064 1162.09 533.728 1160.15C528.996 1153.97 529.25 1153.27 519.662 1151.14C516.246 1150.38 515.014 1147.1 514.271 1144.33C513.546 1141.64 512.746 1138.94 511.918 1136.28C510.084 1130.39 516.51 1123.17 521.355 1123.33C525.1 1123.45 529.043 1125.71 532.392 1127.84C538.282 1131.58 543.354 1129.89 545.273 1123.05C546.063 1120.22 546.694 1117.29 547.183 1114.48C547.823 1110.77 544.821 1107.49 543.993 1103.85C543.222 1100.47 540.785 1097.94 539.477 1094.78C538.207 1091.69 538.47 1089.07 539.355 1086.39C540.785 1082.04 542.695 1077.84 544.398 1073.57" stroke="black" stroke-width="1.88103" stroke-linecap="round" stroke-linejoin="round"/>
<path d="M348.219 1310.28C351.07 1316.14 355.285 1320.98 359.735 1325.63" stroke="black" stroke-width="1.88103" stroke-linecap="round" stroke-linejoin="round"/>
<path d="M727.328 1069.3C729.69 1072.84 731.383 1076.41 729.567 1080.86C729.106 1081.99 729.144 1083.67 729.85 1085.11C730.753 1086.96 730.979 1089 730.527 1091.06" stroke="black" stroke-width="1.88103" stroke-linecap="round" stroke-linejoin="round"/>
<path d="M697.047 1349.53C697.941 1355.9 701.431 1361.99 699.183 1368.72" stroke="black" stroke-width="1.88103" stroke-linecap="round" stroke-linejoin="round"/>
<path d="M462.081 1184.04C458.365 1184.29 454.526 1185.15 451.007 1185.01C446.933 1184.84 442.464 1184.07 438.342 1181.73C436.15 1185.55 434.965 1189.77 433.516 1193.85" stroke="black" stroke-width="1.88103" stroke-linecap="round" stroke-linejoin="round"/>
<path d="M399.816 1370.42C400.494 1374.03 402.846 1376.57 405.377 1378.94C406.534 1380.01 407.918 1379.31 409.197 1378.96" stroke="black" stroke-width="1.88103" stroke-linecap="round" stroke-linejoin="round"/>
<path d="M731.164 1233.09C732.406 1237.48 734.344 1241.56 736.706 1245.46" stroke="black" stroke-width="1.88103" stroke-linecap="round" stroke-linejoin="round"/>
<path d="M697.906 1321.37C699.722 1322.62 700.014 1324.48 700.051 1326.49C700.089 1328.48 700.174 1330.5 701.745 1332.04" stroke="black" stroke-width="1.88103" stroke-linecap="round" stroke-linejoin="round"/>
<path d="M730.742 1248.02C732.266 1249.85 732.605 1252.45 734.6 1254.01C736.519 1253.44 736.228 1251.17 737.564 1250.15" stroke="black" stroke-width="1.88103" stroke-linecap="round" stroke-linejoin="round"/>
<path d="M593.85 733.203C593.247 737.878 593.05 742.534 589.719 746.531C588.242 748.309 588.167 751.253 587.461 753.67" stroke="black" stroke-width="1.88103" stroke-linecap="round" stroke-linejoin="round"/>
<path d="M724.344 1058.21C724.353 1061.72 725.351 1065.06 726.047 1068.45" stroke="black" stroke-width="1.88103" stroke-linecap="round" stroke-linejoin="round"/>
<path d="M606.211 769.887C605.919 774.213 603.539 776.8 599.38 777.515C595.645 778.164 594.826 782.255 591.232 783.45C590.272 783.262 590.121 781.701 589.152 780.976" stroke="black" stroke-width="1.88103" stroke-linecap="round" stroke-linejoin="round"/>
<path d="M380.199 1346.54C382.956 1349.76 385.073 1353.51 388.3 1356.35" stroke="black" stroke-width="1.88103" stroke-linecap="round" stroke-linejoin="round"/>
<path d="M515.81 1149.49C514.568 1150.65 512.997 1150.46 511.548 1150.31C509.261 1150.06 507.455 1150.74 505.949 1152.57C507.699 1155.04 510.08 1157.14 511.115 1160.15" stroke="black" stroke-width="1.88103" stroke-linecap="round" stroke-linejoin="round"/>
<path d="M660.805 745.57C656.825 748.571 654.633 752.879 652.262 757.074C649.768 761.495 643.351 764.74 639.484 763.696" stroke="black" stroke-width="1.88103" stroke-linecap="round" stroke-linejoin="round"/>
<path d="M659.094 731.922C661.653 734.556 664.504 736.813 667.618 738.751" stroke="black" stroke-width="1.88103" stroke-linecap="round" stroke-linejoin="round"/>
<path d="M581.908 703.77C580.064 702.218 578.455 703.008 576.78 704.175C574.983 705.426 573.148 706.686 570.824 706.752" stroke="black" stroke-width="1.88103" stroke-linecap="round" stroke-linejoin="round"/>
<path d="M729.462 961.391C728.37 962.566 728.841 963.836 728.907 965.238C728.982 966.743 730.384 968.511 728.605 969.922" stroke="black" stroke-width="1.88103" stroke-linecap="round" stroke-linejoin="round"/>
<path d="M515.812 1127.31C517.779 1130.29 520.611 1132.46 523.057 1134.99" stroke="black" stroke-width="1.88103" stroke-linecap="round" stroke-linejoin="round"/>
<path d="M405.359 1259.11C406.677 1261.24 406.216 1264.16 408.342 1265.93" stroke="black" stroke-width="1.88103" stroke-linecap="round" stroke-linejoin="round"/>
<path d="M799.824 1201.1C801.452 1204.02 804.388 1205.63 806.665 1207.91C807.436 1208.68 808.358 1208.61 809.214 1207.92" stroke="black" stroke-width="1.88103" stroke-linecap="round" stroke-linejoin="round"/>
<path d="M586.172 753.68C588.11 753.793 588.948 754.545 588.374 756.68C588.101 757.705 588.59 758.938 588.731 760.076" stroke="black" stroke-width="1.88103" stroke-linecap="round" stroke-linejoin="round"/>
<path d="M627.965 1211.33C629.574 1212.2 631.775 1211.26 633.083 1213.03" stroke="black" stroke-width="1.88103" stroke-linecap="round" stroke-linejoin="round"/>
<path d="M432.234 1175.93C433.796 1177.49 435.358 1179.06 436.929 1180.62" stroke="black" stroke-width="1.88103" stroke-linecap="round" stroke-linejoin="round"/>
<path d="M554.408 708.889C555.424 711.899 555.349 714.89 554.191 717.843" stroke="black" stroke-width="1.88103" stroke-linecap="round" stroke-linejoin="round"/>
</svg>
