<svg width="893" height="1140" viewBox="0 0 893 1140" fill="none" xmlns="http://www.w3.org/2000/svg">
<path d="M723.37 807.427C716.266 766.712 696.576 729.93 677.106 693.986C674.864 689.612 672.862 685.147 671.006 680.592C651.115 630.1 624.582 578.062 576.137 551.203" stroke="black" stroke-width="1.00332" stroke-linecap="round" stroke-linejoin="round"/>
<path d="M282.901 945.648C266.096 969.392 250.143 994.515 230.724 1016.34C225.356 1022.27 219.165 1027.5 213.547 1033.2C209.032 1037.78 205.059 1042.74 202.33 1048.58C199.992 1053.47 198.306 1058.69 196.089 1063.65C191.198 1074.67 183.733 1084.55 182.062 1096.59C181.511 1100.1 181.28 1103.53 181.154 1107.22C181.084 1112 180.894 1116.9 182.168 1121.45C183.467 1125.81 186.332 1126.85 188.975 1123.13C190.485 1121.07 191.664 1117.97 192.517 1115.34C198.522 1095.71 207.542 1077.52 213.196 1057.87" stroke="black" stroke-width="1.00332" stroke-linecap="round" stroke-linejoin="round"/>
<path d="M645.007 662.6C632.049 673.105 616.147 693.422 599.697 694.993C594.625 694.772 595.604 689.61 596.456 684.969C596.963 682.551 597.465 680.108 597.936 677.67C599.818 666.573 606.951 650.014 601.082 639.539C594.42 631.803 586.498 661.843 580.659 672.634C576.937 680.409 572.131 686.234 567.235 693.121C542.302 727.355 496.857 766.263 465.613 727.791" stroke="black" stroke-width="1.00332" stroke-linecap="round" stroke-linejoin="round"/>
<path d="M463.132 669.203C471.56 649.975 477.565 629.276 489.996 611.963C494.451 605.457 501.509 600.094 506.054 593.768C507.459 591.646 507.936 589.805 507.303 588.661C506.742 587.603 505.277 587.146 503.305 587.357C476.797 593.557 470.125 633.174 459.836 655.995" stroke="black" stroke-width="1.00332" stroke-linecap="round" stroke-linejoin="round"/>
<path d="M461.482 678.694C499.498 667.582 541.09 649.743 570.016 620.185C574.089 616.683 573.533 619.703 572.078 623.09C556.948 656.194 511.593 669.925 476.903 679.572C471.68 680.996 465.896 682.717 461.707 686.088C457.784 689.033 456.325 693.473 454.092 697.581C451.047 702.869 445.915 708.076 443.302 714.372C441.149 719.248 439.599 724.43 436.805 729.005C431.628 737.147 425.548 744.747 419.297 752.157C416.217 755.593 413.132 758.894 410.092 762.225C407.202 765.3 404.664 768.797 404.092 773.021C403.304 778.364 402.843 783.064 398.468 786.476C395.724 788.828 392.619 790.95 390.351 793.825C385.937 799.624 382.876 806.527 377.699 811.694C374.454 815.01 370.49 817.538 367.039 820.619" stroke="black" stroke-width="1.00332" stroke-linecap="round" stroke-linejoin="round"/>
<path d="M317.961 640.939C318.191 644.526 318.437 648.123 319.19 651.635C321.437 662.451 328.591 671.686 334.741 681.178C342.898 693.559 335.564 690.318 326.639 685.046C317.675 679.783 308.163 674.25 297.884 672.419C274.321 668.516 304.777 684.77 311.579 687.173C318.026 690.128 325.004 691.367 331.074 694.497C343.42 702.178 322.842 710.962 315.226 714.523C308.514 717.694 302.705 720.147 295.657 720.925C291.066 721.537 286.155 721.441 281.665 722.395C278.103 723.157 275.49 724.788 274.065 727.803C271.512 733.01 272.279 742.702 271.165 749.76C270.453 754.978 269.224 759.668 267.874 763.391C265.737 769.35 262.316 774.758 261.473 770.67C261.067 760.029 266.916 744.648 270.533 733.562" stroke="black" stroke-width="1.00332" stroke-linecap="round" stroke-linejoin="round"/>
<path d="M475.5 952.66C494.006 1003.5 548.698 1083.08 609.534 1070.67" stroke="black" stroke-width="1.00332" stroke-linecap="round" stroke-linejoin="round"/>
<path d="M618.612 1089.23C617.599 1082.59 615.517 1076.14 610.44 1071.6C605.228 1066.65 598.16 1063.78 591.768 1060.52C582.759 1055.97 574.411 1050.15 565.491 1045.38C524.917 1024.21 501.609 982.492 472.613 948.945" stroke="black" stroke-width="1.00332" stroke-linecap="round" stroke-linejoin="round"/>
<path d="M578.609 731.918C601.229 763.247 644.051 769.202 678.581 782.757C693.179 788.486 706.714 796.999 721.308 802.883" stroke="black" stroke-width="1.00332" stroke-linecap="round" stroke-linejoin="round"/>
<path d="M481.691 1038.07C424.426 1071.72 392.877 1105.09 327.811 1087.57C325.117 1087.02 322.464 1086.66 320.071 1086.81C315.119 1087.04 311.427 1089.64 309.897 1094.01C301.615 1124.77 356.973 1123.94 375.499 1121.5C406.126 1118.1 417.247 1107.51 441.558 1091.27C450.964 1085.12 461.268 1080.54 471.01 1074.85C477.065 1071.37 482.915 1067.55 488.699 1063.65" stroke="black" stroke-width="1.00332" stroke-linecap="round" stroke-linejoin="round"/>
<path d="M613.25 805.775C619.957 826.754 642.356 833.301 653.614 851.717C655.134 854.22 656.478 856.974 657.843 859.533C659.267 861.996 661.996 867.664 664.906 866.686C668.613 864.213 665.092 854.315 663.286 850.864C652.951 830.968 633.713 817.589 615.307 805.77" stroke="black" stroke-width="1.00332" stroke-linecap="round" stroke-linejoin="round"/>
<path d="M205.784 799.996C204.485 803.568 203.206 807.135 202.268 810.787C192.897 848.136 224.772 883.864 240.223 917.165C248.912 934.016 256.563 951.744 269.295 966.072" stroke="black" stroke-width="1.00332" stroke-linecap="round" stroke-linejoin="round"/>
<path d="M476.742 1027.75C480.625 1034.28 483.69 1040.98 485.642 1048.26C488.15 1057.44 490.382 1066.73 493.488 1075.75C499.417 1093.49 506.14 1111.05 510.655 1129.05C511.066 1130.52 511.533 1131.9 512.109 1133.13C513.133 1135.34 514.553 1137 516.479 1138.01C518.792 1139.27 521.977 1139.51 524.782 1139.49C544.07 1139.09 563.485 1139.16 582.784 1138.06C588.282 1137.78 593.755 1138.05 599.279 1138.43C603.222 1138.67 607.611 1138.72 611.173 1137.07C616.25 1134.81 619.38 1129.71 622.059 1125.01C629.83 1111.5 634.52 1100.57 631.4 1085.11" stroke="black" stroke-width="1.00332" stroke-linecap="round" stroke-linejoin="round"/>
<path d="M469.32 826.404C458.564 814.329 449.744 800.789 439.46 788.248C436.987 785.293 434.268 782.228 431.022 780.196C420.888 774.106 414.964 782.659 420.086 792.156C424.631 800.659 432.367 806.91 439.771 812.854C445.009 817.003 450.276 821.388 456.617 823.605C460.445 825.095 464.995 825.722 468.487 827.794C472.33 829.991 472.224 834.12 468.743 836.332C457.234 842.919 437.509 829.916 425.037 837.602C422.409 840.02 426.853 840.938 430.375 841.264C435.622 842.177 460.601 840.551 461.639 846.205C461.8 847.786 460.104 849.456 458.805 850.635C443.142 863.242 404.233 885.591 384.773 887.879" stroke="black" stroke-width="1.00332" stroke-linecap="round" stroke-linejoin="round"/>
<path d="M392.602 331.283C446.355 353.627 468.765 373.183 470.139 433.608" stroke="black" stroke-width="1.00332" stroke-linecap="round" stroke-linejoin="round"/>
<path d="M365.39 819.801C361.291 815.361 354.374 810.39 348.805 806.883C337.984 799.935 326.611 793.624 314.938 788.266C313.538 787.619 303.901 783.345 306.394 786.611C307.839 788.537 315.449 793.529 320.436 796.599C329.11 802.022 337.929 807.229 346.828 812.296C348.424 813.199 350.034 814.092 351.67 814.915C355.482 816.861 359.766 818.311 363.123 820.854C370.612 826.363 361.372 831.72 356.902 835.643C354.579 837.645 352.542 840.038 350.757 842.892C346.337 850.232 342.389 858.163 337.352 865.181" stroke="black" stroke-width="1.00332" stroke-linecap="round" stroke-linejoin="round"/>
<path d="M691.2 763.28C665.545 760.687 639.744 751.802 616.01 741.172C603.669 735.112 593.551 729.498 579.434 728.625" stroke="black" stroke-width="1.00332" stroke-linecap="round" stroke-linejoin="round"/>
<path d="M559.637 893.657C546.368 894.36 522.84 890.492 514.848 884.02C511.994 881.507 513.529 879.164 517.928 878.768C520.311 878.502 523.351 878.798 525.91 879.294C542.435 882.475 556.486 892.007 572.485 896.452C578.434 898.197 584.625 899.737 589.963 902.963C593.439 905.065 596.695 907.659 599.038 910.975C601.677 914.722 601.526 917.893 597.081 917.471C593.645 917.266 588.809 915.42 585.031 915.911C583.195 916.082 581.75 917.331 582.704 918.996C583.546 920.537 585.373 921.64 587.023 922.433C592.145 925.312 605.013 925.669 605.72 930.655C605.675 933.59 602.63 936.149 601.451 938.657C600.287 940.784 600.749 941.702 602.876 941.953C606.106 942.359 610.466 941.988 612.774 944.943C619.927 955.242 615.558 983.31 613.25 995.571" stroke="black" stroke-width="1.00332" stroke-linecap="round" stroke-linejoin="round"/>
<path d="M484.576 1043.84C434.756 1076.72 371.728 1120.72 313.836 1085.93" stroke="black" stroke-width="1.00332" stroke-linecap="round" stroke-linejoin="round"/>
<path d="M730.797 873.439C730.686 879.459 731.143 885.685 729.241 891.414C727.711 895.412 725.088 897.805 723.066 901.312C721.837 903.379 721.084 905.451 720.327 907.939C710.268 943.066 674.519 969.499 639.648 974.942" stroke="black" stroke-width="1.00332" stroke-linecap="round" stroke-linejoin="round"/>
<path d="M225.987 1088C219.671 1102.13 218.066 1111.83 218.357 1127.19C218.156 1130.85 217.815 1136.57 214.143 1138.01C209.899 1139.06 206.648 1133.61 204.998 1130.14C201.456 1122.57 202.384 1113.72 202.75 1105.79C202.941 1100.68 202.71 1095.58 202.475 1090.47" stroke="black" stroke-width="1.00332" stroke-linecap="round" stroke-linejoin="round"/>
<path d="M291.98 851.162C280.221 847.977 268.186 839.037 261.674 828.853C260.485 826.957 258.965 822.813 262.632 824.428C264.614 825.357 266.666 827.163 268.391 828.743C278.184 837.828 287.229 849.552 300.222 853.701C303.789 854.88 307.446 855.732 311.068 856.756C318.738 859.023 327.091 860.985 334.165 865.028C342.663 870.291 335.569 877.49 328.345 878.403C301.521 881.528 274.226 853.42 253.477 838.32C250.713 836.192 244.171 832.55 247.442 838.781C250.532 844.054 255.89 848.794 262.718 854.022C272.129 860.884 282.859 867.832 294.047 869.734" stroke="black" stroke-width="1.00332" stroke-linecap="round" stroke-linejoin="round"/>
<path d="M427.255 560.277C411.237 561.325 400.592 570.285 390.584 582.5C389.149 584.326 382.036 593.145 386.054 594.013C387.218 594.174 389.219 593.496 391.718 592.242C395.656 590.256 400.236 587.191 404.139 584.331C412.592 578.05 422.459 569.878 427.546 561.149C429.603 557.382 432.728 550.991 429.427 547.283C426.994 544.961 422.474 546.049 419.259 547.163C397 556.143 369.549 573.4 365.451 597.781C364.131 609.81 375.253 616.523 386.315 614.762C391.477 614.045 395.876 611.215 400.035 608.14" stroke="black" stroke-width="1.00332" stroke-linecap="round" stroke-linejoin="round"/>
<path d="M360.034 329.633C331.088 327.741 311.84 353.712 300.672 379.914C297.101 388.162 294.557 397.478 294.693 406.513C294.833 419.144 300.166 427.597 303.768 437.972C305.192 442.02 306.251 446.45 307.249 450.935" stroke="black" stroke-width="1.00332" stroke-linecap="round" stroke-linejoin="round"/>
<path d="M612.429 993.92C597.238 967.963 574.678 947.044 546.876 933.845C542.978 932.074 537.725 930.238 533.717 930.323C523.473 931.111 539.17 941.957 541.849 944.059C547.779 948.484 553.969 952.607 559.869 957.087C570.82 965.304 580.959 974.716 591.594 983.59C593.726 985.296 595.884 986.906 598.151 988.381C602.25 991.12 606.674 992.846 610.527 995.67C613.332 997.692 615.639 1000.59 617.24 1003.8C621.047 1012.17 625.241 1023.35 622.783 1030.55C621.514 1033.85 618.338 1035.19 614.907 1036.42" stroke="black" stroke-width="1.00332" stroke-linecap="round" stroke-linejoin="round"/>
<path d="M447.873 560.689C449.985 562.415 452.087 564.116 453.612 566.303C466.685 586.259 409.451 633.651 383.535 626.292" stroke="black" stroke-width="1.00332" stroke-linecap="round" stroke-linejoin="round"/>
<path d="M273.416 636.611C268.63 634.433 263.694 632.617 258.426 631.639C256.164 631.193 253.911 630.877 251.885 630.586C250.114 630.254 241.139 629.487 245.885 627.194C249.818 625.383 254.784 624.44 259.194 621.927C267.812 617.196 272.096 609.14 270.541 599.317C270.19 596.558 269.563 593.724 268.851 590.954C267.642 586.655 266.749 582.822 264.351 579.446C261.742 575.955 257.669 575.503 253.209 575.127" stroke="black" stroke-width="1.00332" stroke-linecap="round" stroke-linejoin="round"/>
<path d="M384.773 330.461C409.471 351.581 450.161 365.628 444.989 403.077" stroke="black" stroke-width="1.00332" stroke-linecap="round" stroke-linejoin="round"/>
<path d="M358.795 438.147C345.256 418.426 344.047 398.55 342.802 375.499C342.396 371.977 341.368 367.563 337.997 366.565C319.952 365.024 303.618 417.318 303.121 434.434" stroke="black" stroke-width="1.00332" stroke-linecap="round" stroke-linejoin="round"/>
<path d="M194.239 668.379C189.694 678.397 186.127 688.957 181.933 699.236C178.427 707.218 175.016 715.31 174.549 724.144C174.022 731.092 174.007 738.085 173.887 745.058C173.661 753.265 173.801 761.618 175.994 769.705C181.838 793.007 198.579 802.253 220.827 800.321C235.496 799.594 246.989 795.636 258.201 786.044C276.612 770.748 290.072 751.279 313.43 742.645" stroke="black" stroke-width="1.00332" stroke-linecap="round" stroke-linejoin="round"/>
<path d="M654.079 807.837C644.813 805.785 635.437 802.876 625.921 802.896C620.593 802.951 615.256 803.939 609.938 803.453C604.048 802.971 598.445 800.759 592.601 799.871C583.942 797.714 554.65 800.087 552.463 791.804C552.979 787.48 564.392 786.672 567.598 785.117C573.427 782.885 566.334 779.463 563.319 778.731C559.927 777.753 556.15 777.642 553.01 778.606C549.834 779.549 547.06 781.45 544.441 783.878C538.843 789.17 534.262 796.108 528.263 801.11C511.999 814.69 488.973 815.347 472.207 828.461" stroke="black" stroke-width="1.00332" stroke-linecap="round" stroke-linejoin="round"/>
<path d="M474.262 366.765C470.184 364.407 466.095 362.085 462.423 359.326C457.125 355.337 452.956 350.055 447.584 346.197C432.117 336.359 413.285 328.152 395.115 330.269C392.335 330.605 389.581 331.147 386.832 331.694" stroke="black" stroke-width="1.00332" stroke-linecap="round" stroke-linejoin="round"/>
<path d="M637.997 973.292C632.087 961.227 625.927 949.322 620.604 937.006C618.959 933.213 617.373 929.26 615.688 925.804C607.4 905.642 544.847 853.273 559.952 878.587C563.815 884.898 568.947 891.154 573.653 896.958" stroke="black" stroke-width="1.00332" stroke-linecap="round" stroke-linejoin="round"/>
<path d="M503.961 506.227C505.812 510.807 507.638 515.041 511.631 517.564C516.026 520.409 521.429 520.012 526.621 520.208C530.353 520.318 534.081 520.86 537.537 522.335C591.225 552.279 633.67 619.216 605.417 677.87" stroke="black" stroke-width="1.00332" stroke-linecap="round" stroke-linejoin="round"/>
<path d="M539.43 977.42C558.333 990.062 575.424 1005.03 592.606 1019.85C609.412 1032.52 628.947 1047.06 631.967 1068.67C632.635 1073.19 632.248 1078.06 630.166 1082.17C628.049 1086.19 624.914 1089.21 620.825 1089.35C615.101 1089.03 615.262 1081.61 615.317 1077.27" stroke="black" stroke-width="1.00332" stroke-linecap="round" stroke-linejoin="round"/>
<path d="M476.749 449.289C474.431 446.971 472.038 444.563 469.178 444.849C464.663 445.507 461.989 450.488 461.322 454.722C460.515 461.545 464.387 466.712 459.255 472.466C456.847 475.18 454.163 477.092 453.06 480.759C452.388 482.665 451.886 485.63 451.52 488.108C447.386 528.297 410.398 554.664 373.234 562.756" stroke="black" stroke-width="1.00332" stroke-linecap="round" stroke-linejoin="round"/>
<path d="M458.185 985.666C463.146 993.432 466.698 1001.81 470.531 1010.23C472.733 1015.46 477.795 1022.68 473.405 1027.89C468.935 1032.78 458.265 1034.42 451.492 1035.27C444.479 1036.1 437.812 1035.76 431.661 1039.27C416.25 1047.38 407.305 1076.88 388.954 1075.03C384.073 1074.15 380.311 1071.34 375.695 1068.19" stroke="black" stroke-width="1.00332" stroke-linecap="round" stroke-linejoin="round"/>
<path d="M491.592 507.879C512.752 539.77 421.002 591.512 461.07 621.758" stroke="black" stroke-width="1.00332" stroke-linecap="round" stroke-linejoin="round"/>
<path d="M724.61 809.078C727.008 812.795 729.411 816.508 731.508 820.35C739.595 835.059 739.575 846.793 737.498 862.149C735.762 875.072 729.722 872.247 722.598 863.965C717.261 857.935 713.202 850.761 709.4 843.698C701.684 828.698 686.027 820.992 672.156 812.625C668.845 810.728 665.424 808.646 661.917 807.272C659.655 806.258 652.416 804.247 655.431 808.616C657.939 811.737 662.429 814.556 665.549 817.416C670.24 821.379 673.666 826.16 676.365 831.598C681.005 840.683 684.382 850.39 691.545 857.729C694.269 860.674 697.274 863.393 700.139 866.217C709.224 875.097 716.262 885.652 723.792 895.73" stroke="black" stroke-width="1.00332" stroke-linecap="round" stroke-linejoin="round"/>
<path d="M331.158 978.242C320.126 989.585 304.65 998.023 296.924 1011.58C295.47 1014.21 294.336 1017.04 293.423 1020C292.319 1023.54 291.496 1027.25 290.608 1030.88C285.607 1052.26 274.972 1071.59 269.493 1092.46C267.953 1098.22 267.467 1104.17 267.868 1110.14C267.968 1114.58 269.493 1123.58 263.764 1124.59C252.582 1123.17 252.412 1101.43 251.925 1090.7C251.9 1087.34 251.173 1080.96 249.728 1080.11C248.002 1078.92 246.863 1081.97 246.266 1085.22C245.293 1091.81 245.629 1097.82 245.835 1105.23C245.745 1111.23 248.042 1130.23 244.546 1132.34C241.872 1133.74 238.942 1129.53 237.231 1127.34C234.477 1123.45 232.425 1118.86 230.915 1114.34C226.641 1101.45 228.543 1087.47 230.123 1074.38" stroke="black" stroke-width="1.00332" stroke-linecap="round" stroke-linejoin="round"/>
<path d="M265.584 703.861C277.675 729.461 251.714 756.009 233.418 774.004" stroke="black" stroke-width="1.00332" stroke-linecap="round" stroke-linejoin="round"/>
<path d="M725.843 808.663C716.899 805.964 706.891 803.903 697.113 802.413C690.541 801.565 680.418 799.854 675.532 801.816C672.953 803.431 676.064 805.413 678.12 806.366C681.401 807.861 685.46 808.598 689.152 809.055C703.75 810.63 716.272 811.523 726.666 821.872" stroke="black" stroke-width="1.00332" stroke-linecap="round" stroke-linejoin="round"/>
<path d="M336.934 987.733C335.559 985.19 334.18 982.641 332.695 980.218C315.849 950.776 272.635 952.592 284.214 936.854C286.792 932.961 290.354 929.204 293.178 925.241C297.693 919.627 300.618 910.045 306.999 907.076C313.054 904.567 319.722 908.43 325.185 911.254C336.096 917.616 347.724 922.893 356.614 931.848C361.525 937.085 369.878 946.065 365.89 953.575C363.477 958.05 358.039 960.794 353.764 964.536C345.432 971.494 341.72 981.829 336.522 991.024" stroke="black" stroke-width="1.00332" stroke-linecap="round" stroke-linejoin="round"/>
<path d="M298.164 1009.6C309.426 1028.72 321.607 1047.6 331.063 1067.69C333.386 1071.93 336.506 1075.94 340.986 1077.79C347.307 1080.46 355.148 1078.85 361.419 1076.01C366.305 1073.85 370.965 1070.81 375.852 1068.82C385.534 1064.44 389.196 1070.81 395.587 1067.43C405.279 1061.57 413.411 1045.75 419.823 1035.59" stroke="black" stroke-width="1.00332" stroke-linecap="round" stroke-linejoin="round"/>
<path d="M268.057 560.278C273.28 564 278.643 567.873 284.407 570.432C288.851 572.313 292.473 573.397 294.841 572.057C297.47 569.905 295.468 565.465 291.415 560.719C283.795 552.116 271.484 547.139 259.9 550.646C241.228 555.919 238.73 574.109 235.62 592.003C234.431 598.099 232.123 604.71 230.433 610.635C229.078 615.446 228.486 620.051 230.708 624.476C236.076 634.454 252.696 642.852 263.863 641.713C270.124 641.046 274.494 636.436 279.867 633.27C283.328 631.148 287.156 629.703 290.938 628.198C299.166 624.948 307.885 620.899 313.874 620.262C325.312 618.677 321.018 632.994 318.781 639.907" stroke="black" stroke-width="1.00332" stroke-linecap="round" stroke-linejoin="round"/>
<path d="M278.781 541.299C281.355 543.29 283.928 545.297 286.271 547.544C290.129 551.192 292.848 555.23 296.455 558.471C298.396 560.241 300.498 561.947 302.138 563.984C305.163 567.536 305.936 572.256 306.954 576.726C308.404 582.921 312.192 588.721 317.334 591.078C320.228 592.443 323.459 592.684 326.619 592.874" stroke="black" stroke-width="1.00332" stroke-linecap="round" stroke-linejoin="round"/>
<path d="M238.367 869.727C252.79 892.427 275.891 908.369 298.165 922.953" stroke="black" stroke-width="1.00332" stroke-linecap="round" stroke-linejoin="round"/>
<path d="M274.653 639.082C280.227 648.985 277.518 653.314 274.984 663.729C273.961 667.998 273.951 672.428 274.021 676.767C274.558 688.336 268.608 699.653 259.618 706.747C257.562 708.403 255.384 709.913 253.277 711.518C243.123 719.063 236.446 730.35 227.702 739.732C224.085 743.71 219.926 747.974 217.187 752.464C208.684 769.827 241.674 736.621 251.496 723.237C255.63 718.145 260.145 711.307 262.694 705.929" stroke="black" stroke-width="1.00332" stroke-linecap="round" stroke-linejoin="round"/>
<path d="M359.203 961.327C373.947 969.278 390.818 971.917 407.147 975.81C413.819 977.234 422.312 977.164 428.036 973.522C429.882 972.358 430.956 971.014 431.006 969.83C430.911 965.681 421.926 965.41 418.489 965.074C401.503 964.457 383.985 962.315 368.69 954.309" stroke="black" stroke-width="1.00332" stroke-linecap="round" stroke-linejoin="round"/>
<path d="M466.434 363.055C476.633 385.8 488.673 415.75 468.907 435.671" stroke="black" stroke-width="1.00332" stroke-linecap="round" stroke-linejoin="round"/>
<path d="M316.725 537.998C315.747 540.18 314.894 542.458 314.769 544.906C314.518 559.113 328.901 583.067 343.534 590.813" stroke="black" stroke-width="1.00332" stroke-linecap="round" stroke-linejoin="round"/>
<path d="M361.678 736.871C356.375 738.622 351.198 740.172 345.825 740.879C341.942 741.416 338.044 741.622 334.131 741.677C328.217 741.808 322.473 741.125 317.3 743.548C314.897 744.672 312.951 746.282 311.09 748.299C297.284 765.291 284.983 782.724 261.871 783.907" stroke="black" stroke-width="1.00332" stroke-linecap="round" stroke-linejoin="round"/>
<path d="M654.91 717.069C548.21 712.614 614.997 678.697 550.156 777.721" stroke="black" stroke-width="1.00332" stroke-linecap="round" stroke-linejoin="round"/>
<path d="M277.551 528.097C278.629 524.62 279.833 521.239 282.532 518.911C286.671 515.31 293.027 514.632 298.42 515.49C317.905 518.686 316.786 536.711 321.451 552.874C324 561.563 328.339 570.036 334.56 576.678C338.739 581.088 344.418 585.126 350.031 585.934C362.432 587.559 362.212 571.697 361.269 562.757" stroke="black" stroke-width="1.00332" stroke-linecap="round" stroke-linejoin="round"/>
<path d="M346.004 461.664C350.92 459.888 356.689 458.203 361.325 461.388C364.45 463.34 367.184 466.631 370.043 469.821C376.706 477.758 383.779 481.224 394.138 479.338C403.459 477.803 407.578 471.968 409.063 463.049C410.367 455.996 409.966 448.601 402.962 445.862C394.891 442.757 382.189 444.738 374.849 448.832C369.863 451.496 367.224 456.422 365.388 461.664" stroke="black" stroke-width="1.00332" stroke-linecap="round" stroke-linejoin="round"/>
<path d="M303.122 534.285C302.996 555.967 317.941 599.998 340.205 592.338C342.974 591.264 345.518 589.589 348.076 587.923" stroke="black" stroke-width="1.00332" stroke-linecap="round" stroke-linejoin="round"/>
<path d="M218.984 620.105C218.638 623.908 218.301 627.715 218.878 631.478C222.054 651.413 247.658 659.665 266.409 653.942" stroke="black" stroke-width="1.00332" stroke-linecap="round" stroke-linejoin="round"/>
<path d="M362.914 613.091C362.613 616.793 362.347 620.505 362.347 624.233C362.127 636.769 365.618 650.269 359.754 661.331C358.625 663.132 356.578 665.81 354.582 664.516C352.886 663.086 353.001 659.153 353.177 656.605C355.75 635.731 355.685 614.591 359.207 593.902" stroke="black" stroke-width="1.00332" stroke-linecap="round" stroke-linejoin="round"/>
<path d="M637.991 635.369C633.085 658.159 619.259 680.087 596.75 688.184" stroke="black" stroke-width="1.00332" stroke-linecap="round" stroke-linejoin="round"/>
<path d="M311.772 482.711C310.588 472.296 311.812 452.09 300.003 451.688C296.241 451.603 291.119 452.612 289.338 456.223C287.964 460.086 291.606 463.698 293.457 466.884C299.311 476.425 301.157 481.326 310.533 488.49" stroke="black" stroke-width="1.00332" stroke-linecap="round" stroke-linejoin="round"/>
<path d="M369.926 359.344C379.989 379.013 397.998 392.653 416.117 404.522" stroke="black" stroke-width="1.00332" stroke-linecap="round" stroke-linejoin="round"/>
<path d="M271.769 731.918C269.782 734.065 267.851 736.292 266.16 738.745C257.025 751.131 250.564 775.547 235.062 773.174" stroke="black" stroke-width="1.00332" stroke-linecap="round" stroke-linejoin="round"/>
<path d="M360.445 460.427C365.587 474.072 376.478 486.052 391.463 485.224C397.734 484.918 404.34 482.445 408.369 477.513C412.402 472.703 413.335 465.75 414.79 459.695C415.623 456.108 416.676 452.681 417.77 449.285" stroke="black" stroke-width="1.00332" stroke-linecap="round" stroke-linejoin="round"/>
<path d="M369.101 358.512C368.168 363.93 368.609 369.057 370.836 374.279C372.452 378.378 374.238 382.512 375.502 386.746C377.418 392.986 378.311 399.373 379.139 405.734C380.102 415.406 381.662 422.891 386.84 431.133" stroke="black" stroke-width="1.00332" stroke-linecap="round" stroke-linejoin="round"/>
<path d="M449.109 858.172C445.924 865.436 441.615 870.357 435.434 875.444C428.782 880.947 422.807 886.551 417.509 893.248C401.506 913.134 388.413 935.589 368.688 951.838" stroke="black" stroke-width="1.00332" stroke-linecap="round" stroke-linejoin="round"/>
<path d="M596.756 697.672C594.895 700.336 592.853 702.934 592.311 706.1C590.811 720.778 634.2 727.636 649.129 718.711" stroke="black" stroke-width="1.00332" stroke-linecap="round" stroke-linejoin="round"/>
<path d="M341.059 693.547C356.465 723.727 369.357 759.335 400.446 775.243" stroke="black" stroke-width="1.00332" stroke-linecap="round" stroke-linejoin="round"/>
<path d="M630.571 1092.95C623.021 1108.78 614.202 1123.83 603.352 1137.51" stroke="black" stroke-width="1.00332" stroke-linecap="round" stroke-linejoin="round"/>
<path d="M233.826 603.188C231.569 604.913 229.322 606.644 227.255 608.405C193.152 634.366 235.537 681.271 268.296 652.982C271.642 650.058 274.576 646.651 277.541 643.21" stroke="black" stroke-width="1.00332" stroke-linecap="round" stroke-linejoin="round"/>
<path d="M458.188 503.338C463.094 510.035 467.869 518.182 466.244 526.821C464.664 535.399 456.642 539.573 460.099 546.29C461.443 548.893 463.58 551.051 465.607 553.263" stroke="black" stroke-width="1.00332" stroke-linecap="round" stroke-linejoin="round"/>
<path d="M343.941 700.562C333.562 713.194 325.264 727.722 315.898 740.996" stroke="black" stroke-width="1.00332" stroke-linecap="round" stroke-linejoin="round"/>
<path d="M213.616 627.945C210.852 631.156 208.283 634.447 206.412 638.234C204.451 642.248 202.59 646.346 199.926 649.968C197.041 654.092 192.998 658.135 191.708 662.53C189.872 668.289 193.008 674.093 197.172 678.051C200.819 681.598 205.133 684.513 209.457 687.252C211.935 688.872 217.223 692.349 216.074 694.977C215.663 695.86 212.974 696.196 211.138 696.437" stroke="black" stroke-width="1.00332" stroke-linecap="round" stroke-linejoin="round"/>
<path d="M635.931 639.494C627.864 647.546 622.361 657.579 616.026 667.005C613.111 671.294 609.218 674.83 606.208 679.014C604.779 681.01 603.64 683.142 602.531 685.29" stroke="black" stroke-width="1.00332" stroke-linecap="round" stroke-linejoin="round"/>
<path d="M456.122 421.64C445.979 410.404 430.99 378.037 422.176 375.409C418.454 375.027 419.382 380.816 420.089 383.289C422.467 391.537 428.988 398.103 433.042 405.422C434.863 408.618 436.242 412.029 437.561 415.455" stroke="black" stroke-width="1.00332" stroke-linecap="round" stroke-linejoin="round"/>
<path d="M457.357 984.843C456.048 983.253 454.744 981.663 453.495 980.053C439.228 963.729 438.385 932.546 447.269 952.617C451.453 962.64 453.68 973.601 456.118 984.427" stroke="black" stroke-width="1.00332" stroke-linecap="round" stroke-linejoin="round"/>
<path d="M421.068 872.615C407.122 873.318 394.967 880.195 383.539 887.881" stroke="black" stroke-width="1.00332" stroke-linecap="round" stroke-linejoin="round"/>
<path d="M465.61 1002.17C438.113 1023.27 407.02 1039.85 381.887 1064.06" stroke="black" stroke-width="1.00332" stroke-linecap="round" stroke-linejoin="round"/>
<path d="M357.548 595.348C352.532 598.202 348.017 601.819 343.171 604.929C337.823 608.21 331.633 609.63 326.039 612.564C323.993 613.628 322.006 614.807 320.02 615.981" stroke="black" stroke-width="1.00332" stroke-linecap="round" stroke-linejoin="round"/>
<path d="M360.025 940.281C350.298 952.381 340.345 964.225 331.566 977.002" stroke="black" stroke-width="1.00332" stroke-linecap="round" stroke-linejoin="round"/>
<path d="M416.943 442.277C408.791 440.436 399.68 438.881 391.052 439.458C376.89 440.336 371.622 448.026 357.832 449.908C355.053 450.354 352.168 450.65 349.309 450.941" stroke="black" stroke-width="1.00332" stroke-linecap="round" stroke-linejoin="round"/>
<path d="M309.305 453C313.99 452.313 318.581 451.776 323.407 452.137C326.01 452.323 328.584 452.749 331.052 453.492C349.413 459.01 350.171 480.968 332.753 484.881C330.781 485.328 328.759 485.508 326.703 485.574C322.509 485.9 316.303 484.911 313.925 488.86C313.303 489.983 313.092 491.463 313.132 493.179C315.35 518.834 336.545 545.117 357.144 560.282" stroke="black" stroke-width="1.00332" stroke-linecap="round" stroke-linejoin="round"/>
<path d="M527.062 552.023C489.653 560.888 471.789 572.757 463.787 610.272C461.364 620.681 457.541 631.627 457.647 642.333C457.662 655.853 463.802 666.488 459.834 678.694" stroke="black" stroke-width="1.00332" stroke-linecap="round" stroke-linejoin="round"/>
<path d="M485.818 498.387C492.074 508.169 488.116 512.258 482.02 520.39C480.42 522.522 478.915 524.734 477.716 527.107C474.827 532.64 473.979 538.78 471.576 544.334C468.034 552.687 461.508 559.208 454.891 565.228" stroke="black" stroke-width="1.00332" stroke-linecap="round" stroke-linejoin="round"/>
<path d="M390.542 515.715C378.858 526.275 363.979 523.395 349.301 521.905" stroke="black" stroke-width="1.00332" stroke-linecap="round" stroke-linejoin="round"/>
<path d="M479.634 519.842C478.155 516.551 476.584 512.753 475.415 508.855C473.454 502.886 472.335 495.652 468.804 490.46C463.968 484.013 459.889 491.353 458.454 497.292C456.954 503.121 455.851 509.096 455.399 515.101C454.717 522.837 455.846 530.507 457.777 537.997" stroke="black" stroke-width="1.00332" stroke-linecap="round" stroke-linejoin="round"/>
<path d="M674.699 823.93C686.328 828.324 696.827 836.035 707.693 841.673" stroke="black" stroke-width="1.00332" stroke-linecap="round" stroke-linejoin="round"/>
<path d="M419.832 892.422C422.712 911.56 434.34 927.719 442.101 945.236" stroke="black" stroke-width="1.00332" stroke-linecap="round" stroke-linejoin="round"/>
<path d="M382.296 514.479C371.867 516.224 361.317 517.453 350.953 518.602" stroke="black" stroke-width="1.00332" stroke-linecap="round" stroke-linejoin="round"/>
<path d="M308.059 453.414C306.288 455.365 304.477 457.322 303.394 459.71C299.757 467.656 307.537 477.568 312.594 484.36" stroke="black" stroke-width="1.00332" stroke-linecap="round" stroke-linejoin="round"/>
<path d="M621.915 1092.12C615.659 1103.62 609.058 1104.5 599.255 1111.36C589.147 1118.97 580.002 1128.08 571.188 1137.09" stroke="black" stroke-width="1.00332" stroke-linecap="round" stroke-linejoin="round"/>
<path d="M430.965 545.834C435.921 546.842 440.065 547.414 443.461 550.208C448.924 555.1 446.476 563.437 443.547 569.598C437.562 582.199 426.39 592.142 414.957 599.291C408.571 603.46 401.728 606.816 394.459 609.199C389.779 610.649 385.289 612.871 381.055 615.148" stroke="black" stroke-width="1.00332" stroke-linecap="round" stroke-linejoin="round"/>
<path d="M410.754 391.109C418.67 397.646 423.857 407.067 432.45 412.856C434.722 414.34 437.17 415.524 439.618 416.693" stroke="black" stroke-width="1.00332" stroke-linecap="round" stroke-linejoin="round"/>
<path d="M338.172 545.834C339.21 551.859 341.508 558.35 346.118 562.679C353.347 569.466 357.064 559.634 369.926 561.104" stroke="black" stroke-width="1.00332" stroke-linecap="round" stroke-linejoin="round"/>
<path d="M443.743 568.529C434.116 577.037 424.56 586.087 417.352 596.586" stroke="black" stroke-width="1.00332" stroke-linecap="round" stroke-linejoin="round"/>
<path d="M343.322 485.594C332.597 491.227 323.632 492.145 311.773 489.717" stroke="black" stroke-width="1.00332" stroke-linecap="round" stroke-linejoin="round"/>
<path d="M442.508 441.037C436.835 444.278 423.652 449.675 419.348 446.997C417.317 445.261 419.74 442.121 420.653 440.215" stroke="black" stroke-width="1.00332" stroke-linecap="round" stroke-linejoin="round"/>
<path d="M488.701 567.289C483.965 578.16 476.124 587.495 468.078 596.169" stroke="black" stroke-width="1.00332" stroke-linecap="round" stroke-linejoin="round"/>
<path d="M367.863 562.34C368.375 573.918 365.932 582.551 360.027 592.458" stroke="black" stroke-width="1.00332" stroke-linecap="round" stroke-linejoin="round"/>
<path d="M323.73 878.809C319.486 884.903 313.552 890.01 310.798 896.947C309.795 899.601 309.333 902.41 308.887 905.214" stroke="black" stroke-width="1.00332" stroke-linecap="round" stroke-linejoin="round"/>
<path d="M393.848 511.592C391.254 513.263 387.783 514.291 384.507 513.719C380.895 513.248 376.887 511.898 373.16 511.191C369.633 510.479 365.976 510.353 362.49 511.041C336.565 516.082 358.778 542.765 377.203 528.378C379.937 526.376 382.435 523.662 384.773 521.084" stroke="black" stroke-width="1.00332" stroke-linecap="round" stroke-linejoin="round"/>
<path d="M600.468 1110.27C600.127 1112.24 599.776 1114.2 599.249 1116.13C597.247 1122.97 593.149 1129.53 591.398 1136.68" stroke="black" stroke-width="1.00332" stroke-linecap="round" stroke-linejoin="round"/>
<path d="M530.355 518.604C521.079 512.93 511.006 508.791 501.309 503.664C498.314 502.029 495.324 500.338 492.133 499.16C484.985 496.541 477.385 494.519 470.141 491.785" stroke="black" stroke-width="1.00332" stroke-linecap="round" stroke-linejoin="round"/>
<path d="M350.956 460.844C350.168 465.509 349.3 470.139 348.026 474.298C347.153 477.218 346.11 479.922 345.192 482.435C344.003 485.826 342.774 488.982 342.99 492.463C343.351 497.148 347.675 498.332 352.832 498.423C355.907 498.448 358.952 497.695 361.997 497.364C366.457 496.607 373.27 496.672 376.41 493.261C377.9 491.535 378.386 489.132 378.993 486.423" stroke="black" stroke-width="1.00332" stroke-linecap="round" stroke-linejoin="round"/>
<path d="M312.595 539.237C303.57 534.155 292.288 525.24 281.402 527.904C276.907 529.038 272.824 532.254 269.086 535.976C264.195 540.681 260.698 545.798 258.566 552.024" stroke="black" stroke-width="1.00332" stroke-linecap="round" stroke-linejoin="round"/>
<path d="M336.523 320.969C339.247 320.994 341.981 321.034 344.66 321.516C354.483 323.422 361.787 330.977 370.756 334.794" stroke="black" stroke-width="1.00332" stroke-linecap="round" stroke-linejoin="round"/>
<path d="M407.047 907.277C414.696 913.056 421.493 920.114 430.141 924.192" stroke="black" stroke-width="1.00332" stroke-linecap="round" stroke-linejoin="round"/>
<path d="M314.664 406.789C314.052 416.29 313.906 423.809 320.026 431.544" stroke="black" stroke-width="1.00332" stroke-linecap="round" stroke-linejoin="round"/>
<path d="M421.477 439.798C421.226 436.437 417.499 415.097 421.01 415.909C421.858 416.225 422.435 416.978 423.142 417.791C423.865 418.668 424.682 419.782 425.56 420.976C426.804 422.672 428.129 424.437 429.533 426.123C437.891 435.614 443.078 439.612 447.458 452.179" stroke="black" stroke-width="1.00332" stroke-linecap="round" stroke-linejoin="round"/>
<path d="M307.652 441.448C322.506 440.214 340.124 437.566 349.716 450.523" stroke="black" stroke-width="1.00332" stroke-linecap="round" stroke-linejoin="round"/>
<path d="M342.709 371.305C340.938 373.607 339.177 375.925 337.833 378.493C333.017 387.518 334.417 398.895 331.532 408.778C330.95 410.895 330.233 412.967 329.516 415.038" stroke="black" stroke-width="1.00332" stroke-linecap="round" stroke-linejoin="round"/>
<path d="M315.898 618.867C316.711 625.895 315.537 633.058 317.137 639.91" stroke="black" stroke-width="1.00332" stroke-linecap="round" stroke-linejoin="round"/>
<path d="M459.009 443.927C459.682 441.469 460.976 438.304 458.889 436.277C455.523 433.403 446.213 435.625 441.277 436.087" stroke="black" stroke-width="1.00332" stroke-linecap="round" stroke-linejoin="round"/>
<path d="M303.531 856.523C304.85 857.527 306.17 858.525 307.584 859.388C311.096 861.595 315.269 862.593 318.986 864.459C320.471 865.186 321.9 866.009 323.325 866.842" stroke="black" stroke-width="1.00332" stroke-linecap="round" stroke-linejoin="round"/>
<path d="M473.438 500.449C479.542 505.601 480.766 511.54 482.512 519.014" stroke="black" stroke-width="1.00332" stroke-linecap="round" stroke-linejoin="round"/>
<path d="M472.201 1017.02C461.731 1027.64 451.778 1027.29 437.973 1023.63" stroke="black" stroke-width="1.00332" stroke-linecap="round" stroke-linejoin="round"/>
<path d="M373.638 475.279C375.539 468.743 373.437 461.56 366.625 459.604" stroke="black" stroke-width="1.00332" stroke-linecap="round" stroke-linejoin="round"/>
<path d="M327.856 387.812C320.025 400.208 320.833 414.972 318.781 429.074" stroke="black" stroke-width="1.00332" stroke-linecap="round" stroke-linejoin="round"/>
<path d="M379.004 432.785C402.978 424.438 414.401 443.496 437.156 436.086" stroke="black" stroke-width="1.00332" stroke-linecap="round" stroke-linejoin="round"/>
<path d="M477.571 449.699C476.151 464.638 477.265 477.074 463.961 486.009" stroke="black" stroke-width="1.00332" stroke-linecap="round" stroke-linejoin="round"/>
<path d="M360.445 421.23C363.525 424.345 366.45 427.666 369.635 430.691C371.867 432.743 374.26 434.513 376.111 436.575C377.284 437.864 378.348 439.248 379.411 440.623" stroke="black" stroke-width="1.00332" stroke-linecap="round" stroke-linejoin="round"/>
<path d="M213.21 1061.18C214.439 1067.73 212.578 1073 207.848 1077.68" stroke="black" stroke-width="1.00332" stroke-linecap="round" stroke-linejoin="round"/>
<path d="M473.855 473.628C470.594 474.682 468.523 474.627 467.871 470.323C467.379 467.388 467.188 463.982 466.01 461.208C464.916 458.404 462.644 456.348 460.246 454.652" stroke="black" stroke-width="1.00332" stroke-linecap="round" stroke-linejoin="round"/>
<path d="M328.686 383.686C328.52 398.926 325.641 411.597 332.81 425.769" stroke="black" stroke-width="1.00332" stroke-linecap="round" stroke-linejoin="round"/>
<path d="M619.434 1092.12C613.69 1095.91 607.912 1099.99 604.586 1106.14" stroke="black" stroke-width="1.00332" stroke-linecap="round" stroke-linejoin="round"/>
<path d="M460.25 438.559C447.859 444.794 447.167 456.031 449.113 468.677" stroke="black" stroke-width="1.00332" stroke-linecap="round" stroke-linejoin="round"/>
<path d="M393.434 414.629C396.238 420.162 399.307 425.609 402.919 430.721" stroke="black" stroke-width="1.00332" stroke-linecap="round" stroke-linejoin="round"/>
<path d="M640.887 976.59C635.71 978.426 630.227 978.812 624.805 979.479" stroke="black" stroke-width="1.00332" stroke-linecap="round" stroke-linejoin="round"/>
<path d="M392.196 415.041C389.507 420.679 391.363 424.983 392.607 430.717" stroke="black" stroke-width="1.00332" stroke-linecap="round" stroke-linejoin="round"/>
<path d="M334.459 1075.61C329.382 1077.84 324.526 1080.59 319.199 1082.21" stroke="black" stroke-width="1.00332" stroke-linecap="round" stroke-linejoin="round"/>
<path d="M404.156 376.258C406.138 385.739 411.249 394.076 414.465 403.076" stroke="black" stroke-width="1.00332" stroke-linecap="round" stroke-linejoin="round"/>
<path d="M461.895 437.736C463.931 437.019 466.038 436.322 468.22 436.512C471.445 436.758 474.691 439.015 476.266 442.131C477.345 444.212 477.676 446.57 477.977 448.877" stroke="black" stroke-width="1.00332" stroke-linecap="round" stroke-linejoin="round"/>
<path d="M371.989 533.869C370.138 536.242 368.252 538.62 367.098 541.384C362.739 552.004 373.133 564.049 378.997 573.475" stroke="black" stroke-width="1.00332" stroke-linecap="round" stroke-linejoin="round"/>
<path d="M367.867 335.824C365.6 343.263 366.533 350.682 368.279 358.101" stroke="black" stroke-width="1.00332" stroke-linecap="round" stroke-linejoin="round"/>
<path d="M291.57 530.156C295.142 534.42 298.718 538.684 302.29 542.948" stroke="black" stroke-width="1.00332" stroke-linecap="round" stroke-linejoin="round"/>
<path d="M392.606 323.859C390.709 325.053 388.828 326.282 387.023 327.632C381.71 331.619 377.853 335.798 371.367 333.761" stroke="black" stroke-width="1.00332" stroke-linecap="round" stroke-linejoin="round"/>
<path d="M460.661 549.963C458.499 554.337 455.635 558.26 452.414 561.927" stroke="black" stroke-width="1.00332" stroke-linecap="round" stroke-linejoin="round"/>
<path d="M392.199 402.664C391.306 406.507 392.184 410.369 392.61 414.217" stroke="black" stroke-width="1.00332" stroke-linecap="round" stroke-linejoin="round"/>
<path d="M359.617 498.799C362.115 502.17 362.672 506.313 363.329 510.351" stroke="black" stroke-width="1.00332" stroke-linecap="round" stroke-linejoin="round"/>
<path d="M271.772 564.406C270.082 568.589 268.166 572.005 263.938 573.896" stroke="black" stroke-width="1.00332" stroke-linecap="round" stroke-linejoin="round"/>
<path d="M455.3 439.387C451.092 437.692 448.072 439.518 444.164 441.038" stroke="black" stroke-width="1.00332" stroke-linecap="round" stroke-linejoin="round"/>
<path d="M381.057 423.293C380.39 424.07 379.713 424.858 379.231 425.761C378.053 427.838 378.469 430.396 378.198 432.804C378.103 433.767 377.937 434.72 377.762 435.673" stroke="black" stroke-width="1.00332" stroke-linecap="round" stroke-linejoin="round"/>
<path d="M269.297 561.928C267.943 566.818 264.322 566.768 259.812 566.878" stroke="black" stroke-width="1.00332" stroke-linecap="round" stroke-linejoin="round"/>
<path d="M612.427 930.795C612.321 931.507 612.221 932.22 612.246 932.942C612.246 934.793 613.4 936.644 613.069 938.52C612.958 939.268 612.693 939.985 612.432 940.697" stroke="black" stroke-width="1.00332" stroke-linecap="round" stroke-linejoin="round"/>
<path d="M299.41 515.302C304.587 509.85 309.854 510.12 317.142 510.351" stroke="black" stroke-width="1.00332" stroke-linecap="round" stroke-linejoin="round"/>
<path d="M360.443 419.992C358.171 423.117 357.383 426.975 355.492 430.306" stroke="black" stroke-width="1.00332" stroke-linecap="round" stroke-linejoin="round"/>
<path d="M606.645 922.125C610.271 926.85 613.838 931.676 618.603 935.328" stroke="black" stroke-width="1.00332" stroke-linecap="round" stroke-linejoin="round"/>
<path d="M499.838 503.75C497.034 504.492 495.208 506.734 493.242 508.701" stroke="black" stroke-width="1.00332" stroke-linecap="round" stroke-linejoin="round"/>
<path d="M541.078 778.957C542.643 779.569 544.328 778.877 545.908 779.213C546.385 779.338 546.826 779.559 547.263 779.785" stroke="black" stroke-width="1.00332" stroke-linecap="round" stroke-linejoin="round"/>
<path d="M353.84 587.508C355.35 589.293 356.864 591.084 358.374 592.87" stroke="black" stroke-width="1.00332" stroke-linecap="round" stroke-linejoin="round"/>
<path d="M283.314 546.25C281.915 547.765 279.843 548.693 279.191 550.789" stroke="black" stroke-width="1.00332" stroke-linecap="round" stroke-linejoin="round"/>
<path d="M461.066 487.661C457.841 488.127 455.388 489.05 452.82 486.422" stroke="black" stroke-width="1.00332" stroke-linecap="round" stroke-linejoin="round"/>
<path d="M228.047 606.9C228.323 607.863 228.599 608.826 228.869 609.79" stroke="black" stroke-width="1.00332" stroke-linecap="round" stroke-linejoin="round"/>
<path d="M313.016 521.492C316.065 520.048 319.361 520.264 322.501 521.492" stroke="black" stroke-width="1.00332" stroke-linecap="round" stroke-linejoin="round"/>
</svg>
