<svg width="766" height="925" viewBox="0 0 766 925" fill="none" xmlns="http://www.w3.org/2000/svg">
<path d="M635.412 697.35C640.368 698.536 640.288 703.572 642.546 706.817C642.95 707.393 642.6 708.247 642.967 709.065C645.208 714.145 642.528 718.227 636.757 718.443C632.132 718.614 627.499 718.497 622.865 718.479C612.03 718.434 601.338 720.08 590.584 721.006C571.36 722.669 552.567 726.67 533.71 730.294C513.321 734.214 493.076 738.817 473.153 744.86C459.244 749.076 445.478 753.653 432.008 759.039C418.977 764.263 406.287 770.359 393.426 776.014C375.421 783.927 357.766 792.549 340.092 801.172C318.978 811.467 298.858 823.479 279.141 836.229C266.567 844.357 253.778 852.152 241.061 860.065C240.738 860.263 240.182 860.092 239.734 860.092" stroke="black" stroke-width="1.79243" stroke-linecap="round" stroke-linejoin="round"/>
<path d="M469.165 542.7C474.955 543.599 475.797 543.338 478.065 538.177C479.517 534.877 482.761 535.372 484.858 535.264C494.017 534.788 502.298 531.416 510.302 527.684C515.903 525.077 521.836 523 526.998 519.367C531.99 515.852 534.042 512.399 530.789 507.319C525.241 498.652 529.113 490.371 530.332 482.045C530.78 478.997 531.694 476.083 530.977 473.026C529.687 467.524 531.918 462.237 531.846 456.833C531.721 447.419 528.979 438.554 525.636 429.85C524.363 426.542 523.548 423.143 523.315 419.519C522.813 411.841 520.617 404.693 515.311 398.839C511.691 394.847 510.633 389.551 508.841 384.804C507.29 380.686 505.31 376.829 502.639 373.781C493.802 363.719 483.756 355.349 470.554 351.051C454.1 345.701 437.538 344.37 420.806 348.174C410.105 350.61 398.947 354.674 393.812 364.852C388.641 375.084 380.566 381.531 372.437 388.553C365.581 394.47 360.275 401.69 357.623 410.528C354.692 420.311 354.71 430.201 356.655 440.199C358.16 447.941 359.559 455.565 364.237 462.273C367.526 466.984 371.46 470.752 376.434 473.422C381.856 476.335 387.619 478.664 392.521 482.485C394 483.636 395.317 484.176 397.038 483.339" stroke="black" stroke-width="1.79243" stroke-linecap="round" stroke-linejoin="round"/>
<path d="M221.362 767.032C221.855 768.04 221.909 768.804 220.941 769.766C209.98 780.681 200.543 792.999 189.654 804.005C183.56 810.164 177.851 816.745 171.586 822.742C164.408 829.63 156.933 836.211 149.71 843.054C148.563 844.142 147.156 844.951 146.134 844.277C140.273 840.392 137.701 845.275 134.429 848.404C134.125 848.7 133.811 848.988 133.542 849.312C133.47 849.402 133.533 849.599 133.533 850.103C135.155 850.148 135.971 851.622 138.525 850.876C152.596 846.758 165.931 840.716 179.679 835.789C200.194 828.434 220.556 820.665 241.115 813.445C248.168 810.973 255.355 808.869 262.095 805.614C263.583 804.895 264.676 805.425 265.698 805.776C272.446 808.096 278.809 805.138 283.371 801.739C288.829 797.684 294.87 795.697 300.74 793.278C313.672 787.955 327.008 783.657 340.092 778.694C359.558 771.321 378.836 763.454 398.418 756.423C404.127 754.373 409.881 751.558 416.279 751.747" stroke="black" stroke-width="1.79243" stroke-linecap="round" stroke-linejoin="round"/>
<path d="M642.137 708.14C639.152 709.3 636.159 708.104 633.175 708.149C618.961 708.391 604.783 709.425 590.596 710.307C575.243 711.26 560.035 713.256 544.907 715.836C534.251 717.652 523.55 719.451 513.109 722.184C487.495 728.883 461.935 735.833 436.868 744.464C435.775 744.842 434.215 745.741 432.871 744.554" stroke="black" stroke-width="1.79243" stroke-linecap="round" stroke-linejoin="round"/>
<path d="M473.648 555.287C476.05 559.333 473.899 563.496 473.415 567.398C472.806 572.344 471.407 577.208 470.834 582.252C470.466 585.462 469.212 588.438 467.177 591.423C464.265 595.703 463.117 601.17 461.092 606.088C452.551 626.831 445.507 648.104 440.721 669.98C438.337 680.904 438.023 692.332 439.108 703.652C440.103 713.992 440.13 724.377 438.588 734.654C437.88 739.384 434.421 742.899 430.54 745.327C427.771 747.062 424.553 748.339 421.22 749.112C419.311 749.553 417.679 750.398 416.613 752.592C414.829 756.26 410.438 756.674 407.239 757.825C393.204 762.869 379.743 769.244 366.156 775.268C348.564 783.063 331.293 791.623 314.167 800.407C304.882 805.173 296.252 811.197 287.209 816.457C274.106 824.072 261.048 831.751 248.152 839.717C241.842 843.611 240.05 848.843 239.647 855.587C239.234 862.501 238.213 869.38 237.487 876.276C236.537 885.249 237.245 894.258 237.039 903.25C236.985 905.677 238.518 905.992 240.588 906.514C244.424 907.485 248.215 906.756 251.799 906.244C270.163 903.636 288.311 899.734 306.513 896.156C317.608 893.971 328.919 892.865 340.094 891.075C349.379 889.592 358.637 887.911 367.877 886.139C382.799 883.28 397.488 879.405 412.275 875.943C415.466 875.197 418.387 874.361 421.246 872.742C425.208 870.494 429.931 871.034 434.25 869.658C453.851 863.418 473.424 857.133 492.459 849.284C502.058 845.328 511.638 841.318 521.138 837.137C541.034 828.37 560.85 819.406 580.763 810.666C590.398 806.441 600.211 802.646 609.828 798.393C611.351 797.719 612.624 797.234 613.869 798.097C615.752 799.4 614.47 800.992 613.923 802.547C610.589 812.123 607.22 821.69 604.074 831.319C600.803 841.318 598.033 851.487 594.538 861.395C592.244 867.905 588.937 874.01 583.882 878.973C573.244 889.421 560.849 897.136 547.128 902.791" stroke="black" stroke-width="1.79243" stroke-linecap="round" stroke-linejoin="round"/>
<path d="M469.167 590.354C470.01 594.786 467.59 598.563 466.353 602.456C460.313 621.535 453.985 640.561 449.63 660.081C446.314 674.943 445.032 690.211 444.082 705.451C443.509 714.586 442.908 723.712 443.195 732.874C443.258 734.825 443.482 736.768 443.634 738.719" stroke="black" stroke-width="1.79243" stroke-linecap="round" stroke-linejoin="round"/>
<path d="M464.235 569.674C463.473 584.635 456.026 597.358 450.227 610.53C442.457 628.189 435.261 646.082 431.748 665.017C428.871 680.545 426.908 696.325 426.155 712.177C426.101 713.31 426.334 714.496 425.25 715.324" stroke="black" stroke-width="1.79243" stroke-linecap="round" stroke-linejoin="round"/>
<path d="M549.827 536.856C553.098 535.282 556.674 535.363 560.133 535.102C571.918 534.239 583.479 535.579 594.592 539.661C596.573 540.389 598.598 540.039 600.472 540.866C600.821 541.019 601.368 540.695 602.273 540.497C602.147 537.009 599.531 535.076 597.711 532.855C595.713 530.409 593.266 528.332 591.052 526.057C587.799 522.721 589.529 518.846 590.228 515.286C591.94 506.591 590.497 504.119 582.09 502.689C577.313 501.871 572.581 501.259 567.733 502.608C565.492 503.228 562.992 502.437 561.083 501.259C557.095 498.814 553.618 500.054 550.31 502.284C547.685 504.056 544.942 505.593 542.245 507.23C539.063 509.154 535.819 509.369 532.359 508.533" stroke="black" stroke-width="1.79243" stroke-linecap="round" stroke-linejoin="round"/>
<path d="M135.775 852.449C117.85 858.59 99.9171 864.704 82.0018 870.89C58.2432 879.099 34.4577 887.254 10.7977 895.733C7.31142 896.983 3.35912 898.107 0.894531 901.452" stroke="black" stroke-width="1.79243" stroke-linecap="round" stroke-linejoin="round"/>
<path d="M649.752 809.741C645.602 810.694 641.578 811.405 637.169 810.326C632.15 809.094 631.272 810.218 630.465 815.586C628.646 827.787 624.523 839.098 617.497 849.321C612.684 856.325 610.256 864.138 610.793 872.68C611.188 878.983 610.13 884.953 606.644 890.159C604.529 893.315 605.622 896.192 606.859 898.692C608.911 902.846 609.064 906.874 608.66 911.361C608.302 915.335 607.442 919.803 611.215 923.04" stroke="black" stroke-width="1.79243" stroke-linecap="round" stroke-linejoin="round"/>
<path d="M641.242 678.918C636.34 681.489 632.504 685.365 628.704 689.267C624.636 693.43 620.728 697.746 616.57 701.819C613.514 704.804 610.027 705.973 605.385 705.721C601.029 705.487 596.441 705.892 591.933 706.656C583.652 708.059 575.245 708.769 566.857 709.452C555.529 710.378 544.165 710.81 532.81 710.334C525.031 710.01 517.341 709.56 509.49 710.154C501.55 710.756 494.577 713.004 487.999 717.14C484.782 719.163 481.627 721.285 477.684 721.627" stroke="black" stroke-width="1.79243" stroke-linecap="round" stroke-linejoin="round"/>
<path d="M560.578 664.531C561.053 665.071 561.743 665.197 562.335 665.493C573.268 671.032 577.024 679.879 573.484 691.928C573.206 692.89 573.349 693.762 573.125 694.652C571.324 701.71 567.165 703.931 560.112 702.843C550.37 701.342 540.826 698.932 531.03 697.583C521.306 696.252 512.12 698.159 502.781 699.651C501.518 699.849 500.379 700.209 499.188 699.597" stroke="black" stroke-width="1.79243" stroke-linecap="round" stroke-linejoin="round"/>
<path d="M420.326 547.195C427.917 547.195 431.018 550.018 430.184 556.186C425.273 556.852 421.393 553.606 419.403 547.114C411.382 549.083 404.678 553.867 397.491 557.571C388.457 562.22 379.629 567.291 370.559 571.867C364.125 575.113 360.145 580.436 357.69 586.793C354.625 594.714 349.955 601.467 344.623 607.904C341.872 611.231 339.783 614.98 338.269 619.098C336.199 624.745 337.857 631.785 345.94 631.704" stroke="black" stroke-width="1.79243" stroke-linecap="round" stroke-linejoin="round"/>
<path d="M427.044 560.232C425.547 561.284 424.051 562.318 422.563 563.379C414.461 569.206 408.976 576.947 405.472 586.28C404.003 590.2 404.092 593.968 406.521 597.025C411.029 602.68 411.576 608.354 409.317 615.151C408.224 618.451 409.021 622.335 410.805 625.923C413.924 632.199 415.698 638.789 415.573 646.108C415.42 654.56 418.79 662.248 424.347 669.306C414.148 672.318 404.469 674.503 393.848 672.884C385.962 671.679 377.842 670.457 369.678 671.661C366.057 672.192 362.947 673.514 359.756 675.204C358 676.139 356.064 678.189 353.555 676.687" stroke="black" stroke-width="1.79243" stroke-linecap="round" stroke-linejoin="round"/>
<path d="M732.653 738.26C730.834 733.945 727.805 731.202 723.27 729.638C716.656 727.363 710.293 724.396 703.553 722.445C702.29 722.076 701.134 722.22 699.942 722.103C698.06 721.923 696.903 723.029 696.877 724.782C696.859 726.104 696.16 727.444 698.508 728.568C702.747 730.6 707.273 731.337 711.61 732.821C716.719 734.574 722.123 735.644 725.627 740.454C724.077 746.757 718.672 748.259 713.824 750.399C709.352 752.377 704.862 754.301 700.381 756.252" stroke="black" stroke-width="1.79243" stroke-linecap="round" stroke-linejoin="round"/>
<path d="M351.312 645.649C353.069 647.538 352.415 649.947 352.11 651.925C350.452 662.805 353.132 673.504 353.248 684.303C353.293 688.484 353.401 692.701 353.526 696.891C353.714 703.032 357.308 706.619 363.402 706.799C371.495 707.033 379.489 705.585 387.6 705.801C397.1 706.053 406.501 706.79 415.831 708.579C419.362 709.254 422.149 710.854 423.449 714.433" stroke="black" stroke-width="1.79243" stroke-linecap="round" stroke-linejoin="round"/>
<path d="M547.138 561.581C552.318 571.534 559.281 580.337 565.098 589.886C570.833 599.308 573.97 609.765 577.546 620.051C578.604 623.099 576.139 625.869 572.68 625.824C570.582 625.797 568.476 625.356 566.406 624.961C559.111 623.549 552.013 625.275 544.906 626.426C542.872 626.75 541.769 628.584 540.712 630.751C535.809 640.803 530.495 650.649 525.153 660.485C517.822 673.981 509.246 686.614 499.307 698.365C497.272 700.766 495.56 702.016 492.478 702.42C487.934 703.023 483.542 704.686 479.007 705.388C470.977 706.637 462.876 707.51 454.819 705.433C450.257 704.255 448.922 705.316 447.55 709.91C446.466 713.543 447.147 717.148 446.699 720.727C446.287 724.027 447.954 725.294 450.786 725.654C451.96 725.807 453.232 725.924 454.362 725.636C460.554 724.08 466.837 723.622 473.191 723.874C474.697 723.937 476.157 723.802 477.224 722.525" stroke="black" stroke-width="1.79243" stroke-linecap="round" stroke-linejoin="round"/>
<path d="M415.395 568.325C414.167 567.21 413.173 568.271 412.276 568.801C399.317 576.471 387.075 585.183 375.559 594.894C374.465 595.82 373.605 597.348 372.664 598.283C370.809 600.145 369.877 602.249 370.737 604.227C371.723 606.484 374.465 606.906 376.858 606.96C380.891 607.059 384.942 607.248 388.948 606.933C396.691 606.313 403.888 609.127 411.353 610.197C416.48 610.925 421.543 610.656 426.58 610.017C428.068 609.828 430.452 609.541 430.631 606.996" stroke="black" stroke-width="1.79243" stroke-linecap="round" stroke-linejoin="round"/>
<path d="M585.674 688.808C580.556 684.285 581.426 678.881 582.913 673.055C585.396 663.335 591.858 656.34 598.257 649.282C602.254 644.876 606.923 641.064 609.845 635.75C610.445 634.653 611.852 633.367 609.647 632.046C597.907 638.07 592.001 649.66 584.598 660.503C583.487 656.835 583.783 654.659 585.208 651.494C589.42 642.143 595.559 634.437 604.019 628.539C613.017 622.272 622.015 615.96 629.588 607.895C632.259 605.054 634.553 601.979 636.39 598.49C636.937 597.456 636.373 596.944 636.265 596.179C633.944 595.766 632.743 597.528 631.39 598.904C617.839 612.723 603.114 625.185 587.914 637.099C586.902 637.89 585.898 639.059 584.76 639.23C583.523 639.419 581.453 640.39 581.103 637.566C580.96 636.397 580.207 635.256 580.296 633.961C580.987 624.394 581.363 614.71 584.912 605.692C586.337 602.069 589.465 599.165 591.454 595.721C596.061 587.764 601.877 580.526 605.444 571.939C606.161 570.213 607.676 568.801 605.686 566.751C601.77 569.574 598.776 573.117 596.41 577.307C592.709 583.852 589.519 590.641 586.651 597.582C586.194 598.688 585.468 600.405 587.018 601.592" stroke="black" stroke-width="1.79243" stroke-linecap="round" stroke-linejoin="round"/>
<path d="M673.058 617.328C667.976 609.236 663.334 600.82 657.696 593.15C652.678 586.317 648.25 579.187 643.886 571.949C637.55 561.429 628.372 553.921 617.456 548.616C613.316 546.602 609.677 543.455 604.945 542.7" stroke="black" stroke-width="1.79243" stroke-linecap="round" stroke-linejoin="round"/>
<path d="M421.218 742.755C417.812 739.51 413.528 740.427 409.567 740.597C404.485 740.813 399.44 741.64 394.331 741.937C384.106 742.522 374.373 740.571 364.738 737.406C359.997 735.85 358.949 736.596 356.197 740.939C353.787 744.742 352.469 749.022 351.035 753.158C350.175 755.64 348.831 756.242 346.832 756.692" stroke="black" stroke-width="1.79243" stroke-linecap="round" stroke-linejoin="round"/>
<path d="M700.388 758.041C702.09 761.251 699.868 763.966 698.443 766.025C694.105 772.328 690.583 779 687.348 785.896C684.345 792.289 679.165 796.784 673.385 801.505C673.008 800.057 672.381 799.059 672.659 798.538C676.055 792.163 676.996 784.988 679.21 778.235C681.2 772.157 683.754 766.673 688.728 762.537" stroke="black" stroke-width="1.79243" stroke-linecap="round" stroke-linejoin="round"/>
<path d="M245.113 753.096C248.429 752.646 249.773 755.631 251.772 757.223C261.532 764.946 272.179 771.564 280.944 780.537C282.252 781.877 284.278 782.983 283.238 786.067C277.296 784.34 272.51 780.888 268.038 777.282C261.953 772.373 255.832 767.437 250.463 761.664C244.683 755.451 240.569 748.087 236.223 740.912C233.668 736.686 235.559 732.335 239.673 729.206C243.742 726.113 248.51 725.232 253.179 723.91C254.308 723.586 255.491 723.523 256.405 722.408C254.9 718.209 256.396 714.568 259.479 711.781C268.226 703.895 276.445 695.381 286.285 688.754C288.257 687.423 289.969 686.65 292.146 687.909" stroke="black" stroke-width="1.79243" stroke-linecap="round" stroke-linejoin="round"/>
<path d="M430.63 642.953C425.262 639.437 419.159 640.849 413.629 641.398C405.644 642.189 397.775 642.108 389.852 641.577C382.387 641.083 375.074 639.402 367.402 640.957C362.24 642 360.349 645.264 358.996 649.265C356.737 655.963 354.497 662.707 354.407 669.918C354.407 670.224 353.852 670.52 353.547 670.817" stroke="black" stroke-width="1.79243" stroke-linecap="round" stroke-linejoin="round"/>
<path d="M519.353 425.812C521.468 432.16 519.03 438.94 513.528 441.997C505.713 446.34 505.202 447.904 506.277 457.291C506.94 463.09 507.03 468.899 506.134 474.851C505.282 480.444 501.088 483.186 498.175 486.854C486.838 501.132 471.119 510.007 456.134 519.708C452.504 522.055 448.032 520.832 445.415 517.533C442.028 513.271 441.75 507.327 444.994 503.605C446.84 501.492 449.296 499.847 449.897 496.601C449.341 495.387 448.05 494.776 446.769 494.146" stroke="black" stroke-width="1.79243" stroke-linecap="round" stroke-linejoin="round"/>
<path d="M675.295 700.047C675.958 705.424 677.284 710.72 676.72 716.24C676.54 718.011 675.554 720.151 677.938 721.698C679.381 722.642 678.333 724.638 677.885 725.618C671.414 739.797 668.94 755.298 663.375 769.792C661.448 774.809 657.711 776.823 653.696 778.496C651.823 779.278 649.502 779.943 647.584 780.699C641.731 783.009 636.623 786.498 635.377 793.538C634.436 798.879 631.837 803.806 631.371 809.282" stroke="black" stroke-width="1.79243" stroke-linecap="round" stroke-linejoin="round"/>
<path d="M502.775 666.78C503.187 661.223 506.915 657.429 509.971 653.311C513.144 649.031 516.666 645.003 519.767 640.678C522.724 636.551 520.968 633.305 515.779 633.09C506.87 632.712 499.038 636.362 491.115 639.77C486.992 641.541 483.515 645.03 478.586 644.76" stroke="black" stroke-width="1.79243" stroke-linecap="round" stroke-linejoin="round"/>
<path d="M504.121 481.56C504.749 485.012 502.983 487.8 501.397 490.533C496.271 499.38 490.006 507.427 483.5 515.268C481.465 517.714 479.395 520.132 477.226 522.461C471.132 528.989 463.129 529.987 454.83 530.121C447.364 530.247 440.643 527.928 434.19 524.313C430.229 522.092 426.671 523.567 425.81 527.883C425.317 530.355 424.421 532.001 422.118 532.801C414.688 535.381 415.056 541.001 418.533 546.746" stroke="black" stroke-width="1.79243" stroke-linecap="round" stroke-linejoin="round"/>
<path d="M468.271 541.351C464.802 535.111 464.767 534.94 456.181 536.9C447.73 538.824 440.174 542.241 435.487 550.297C433.516 553.687 433.767 557.202 435.747 559.621C437.782 562.094 440.909 564.494 444.987 562.975C445.91 562.633 447.066 562.831 448.106 562.939C451.359 563.281 453.931 562.238 456.235 559.837C457.677 558.326 458.699 556.15 461.101 555.737" stroke="black" stroke-width="1.79243" stroke-linecap="round" stroke-linejoin="round"/>
<path d="M237.943 862.34C230.477 866.835 222.832 871.07 215.573 875.881C200.884 885.618 186.034 895.14 172.053 905.921C171.775 906.136 171.175 905.948 170.727 905.948" stroke="black" stroke-width="1.79243" stroke-linecap="round" stroke-linejoin="round"/>
<path d="M538.175 553.489C523.54 563.631 508.152 572.218 490.667 576.39C487.88 577.055 484.976 577.793 482.162 577.658C478.263 577.46 474.777 578.26 471.398 580.023" stroke="black" stroke-width="1.79243" stroke-linecap="round" stroke-linejoin="round"/>
<path d="M444.071 564.729C445.666 566.131 448.857 565.592 449.018 568.757C447.853 573.783 443.274 572.92 440.02 573.603C428.638 575.968 421.63 582.99 417.678 593.519C416.513 596.63 419.506 602.384 423.019 604.281C427.778 606.862 432.573 607.185 437.35 604.281" stroke="black" stroke-width="1.79243" stroke-linecap="round" stroke-linejoin="round"/>
<path d="M306.504 696.45C308.843 705.486 314.552 712.527 320.458 719.324C324.607 724.107 329.348 728.378 333.838 732.865C338.992 738.008 342.075 744.302 343.589 751.324C343.903 752.79 344.692 753.509 345.489 754.444" stroke="black" stroke-width="1.79243" stroke-linecap="round" stroke-linejoin="round"/>
<path d="M339.215 627.218C343.857 622.138 346.913 626.966 350.633 629.007C348.948 631.911 349.898 635.004 351.475 636.982C353.895 640.013 352.73 642.809 351.179 644.634C347.388 649.085 347.46 654.533 346.501 659.614C343.732 674.287 343.875 689.258 342.853 704.102C342.181 713.867 343.14 723.64 344.278 733.306C345.524 743.934 347.155 754.517 346.743 765.234C346.609 768.714 344.449 771.933 344.592 775.574" stroke="black" stroke-width="1.79243" stroke-linecap="round" stroke-linejoin="round"/>
<path d="M528.316 836.266C531.131 838.567 530.898 841.858 530.458 844.789C529.786 849.285 529.741 853.853 529.49 858.303C529.141 864.534 530.548 870.9 531.525 877.158C532 880.188 532.538 883.227 533.604 886.194C534.715 889.26 536.741 891.283 538.99 893.432C541.222 895.572 542.486 894.466 544 892.902" stroke="black" stroke-width="1.79243" stroke-linecap="round" stroke-linejoin="round"/>
<path d="M428.39 474.366C427.942 474.366 427.476 474.447 427.045 474.348C424.375 473.746 420.996 478.205 419.132 473.844C417.886 470.913 416.049 468.153 416.129 464.467C416.273 457.948 414.212 451.87 408.628 447.887C401.691 442.932 389.225 446.772 385.757 454.558C385.085 456.06 385.73 457.031 386.259 458.173C388.795 463.648 389.79 469.816 394.262 474.42C396.924 477.162 396.933 481.316 398.169 484.769C402.104 495.783 409.722 503.696 418.047 511.257C422.448 515.258 427.942 517.974 431.517 522.919" stroke="black" stroke-width="1.79243" stroke-linecap="round" stroke-linejoin="round"/>
<path d="M327.116 637.108C323.792 636.865 321.327 638.736 319.077 640.741C314.65 644.706 311.137 649.237 309.067 655.046C307.176 660.36 303.842 664.99 299.791 669.036C291.268 677.551 290.363 684.402 296.152 696.469C297.219 698.698 298.5 700.838 299.54 703.095C300.75 705.748 303.125 707.924 305.446 710.108C315.197 719.253 324.042 729.26 329.357 741.857C330.899 745.507 332.888 749.113 330.379 753.186C326.193 752.125 324.867 748.267 323.218 745.372C316.936 734.349 310.366 723.496 303.842 712.617C303.304 711.727 302.247 710.72 303.367 709.488" stroke="black" stroke-width="1.79243" stroke-linecap="round" stroke-linejoin="round"/>
<path d="M509.496 444.245C512.83 448.795 513.054 454.414 513.771 459.557C515.151 469.403 518.7 478.511 521.622 487.844C522.769 491.503 523.549 495.388 526.524 498.193" stroke="black" stroke-width="1.79243" stroke-linecap="round" stroke-linejoin="round"/>
<path d="M658.268 691.955C659.271 699.589 662.435 706.944 660.974 714.883C660.015 720.071 657.936 724.863 656.027 729.709C655.05 732.191 653.975 734.637 653.715 737.523C657.685 739.834 660.607 736.588 663.071 734.924C668.242 731.445 672.93 727.156 676.183 721.617" stroke="black" stroke-width="1.79243" stroke-linecap="round" stroke-linejoin="round"/>
<path d="M148.77 923.031C154.569 918.23 161.55 915.101 167.143 909.994C170.163 907.233 172.117 899.708 170.728 896.057C169.455 892.703 166.928 893.495 164.938 894.771C157.965 899.258 151.127 903.961 144.289 908.654C137.379 913.401 130.55 918.248 123.641 922.995C123.237 923.274 122.467 923.031 121.875 923.031" stroke="black" stroke-width="1.79243" stroke-linecap="round" stroke-linejoin="round"/>
<path d="M338.319 628.117C332.109 631.372 327.986 636.65 324.41 642.494C319.589 650.38 320.771 658.526 323.075 666.78C325.244 674.539 327.995 682.182 332.655 688.691C335.81 693.097 338.588 697.863 342.352 701.846" stroke="black" stroke-width="1.79243" stroke-linecap="round" stroke-linejoin="round"/>
<path d="M316.812 773.326C320.773 771.006 319.751 767.49 318.532 764.361C316.095 758.076 312.151 752.565 308.656 746.855C304.74 740.463 302.177 733.566 299.855 726.544C299.515 725.528 299.21 724.062 301.182 722.669C301.469 722.579 302.562 722.84 303.36 723.874C312.035 735.149 319.07 747.332 323.999 760.729C325.648 765.216 325.299 769.37 322.637 773.326" stroke="black" stroke-width="1.79243" stroke-linecap="round" stroke-linejoin="round"/>
<path d="M427.492 872.23C429.284 879.783 426.264 886.518 423.907 893.36C421.057 901.623 418.53 909.967 416.648 918.518C416.307 920.073 416.531 921.539 416.289 923.031" stroke="black" stroke-width="1.79243" stroke-linecap="round" stroke-linejoin="round"/>
<path d="M538.178 836.266C544.864 852.351 548.037 868.688 541.45 885.601C540.607 885.25 539.46 883.937 538.214 884.863C536.7 885.987 536.924 887.426 538.107 888.91C538.411 889.296 537.874 890.357 537.73 891.103" stroke="black" stroke-width="1.79243" stroke-linecap="round" stroke-linejoin="round"/>
<path d="M537.725 834.916C534.849 839.78 537.026 844.959 537.591 849.716C538.147 854.382 538.523 859.165 538.362 863.679C538.111 870.719 539.025 877.508 539.975 884.368" stroke="black" stroke-width="1.79243" stroke-linecap="round" stroke-linejoin="round"/>
<path d="M537.727 540.452C532.368 539.877 527.547 542.134 523.012 544.202C513.96 548.32 504.89 552.159 495.193 554.515C493.419 554.946 490.784 553.625 489.789 556.412" stroke="black" stroke-width="1.79243" stroke-linecap="round" stroke-linejoin="round"/>
<path d="M510.391 619.126C509.907 618.227 509.853 617.318 510.391 616.428C516.664 606.088 523.726 596.234 529.211 585.408C533.997 583.143 533.459 578.125 535.09 574.187C537.134 569.242 541.346 565.798 544.474 561.59C546.463 558.911 546.428 556.286 544.904 553.48C543.031 550.037 540.62 554.577 538.406 552.374C542.278 547.825 548.301 545.074 551.93 539.886C548.901 537.521 542.027 538.483 538.138 541.288C527.365 549.057 515.517 554.406 502.334 556.663C497.62 557.472 493.004 558.354 488.434 556.178" stroke="black" stroke-width="1.79243" stroke-linecap="round" stroke-linejoin="round"/>
<path d="M262.141 805.245C257.373 801.172 253.878 796.029 250.535 790.832C245.956 783.702 240.91 776.976 234.798 771.087C233.955 770.278 233.014 769.576 232.118 768.83C228.641 765.971 224.93 764.37 220.458 766.564C219.464 767.05 218.523 768.093 217.286 766.618C216.255 765.386 217.16 764.361 217.429 763.462C217.779 762.293 218.8 761.313 219.58 760.288C221.507 757.726 223.55 755.253 225.379 752.628C230.057 745.92 230.989 745.507 238.84 747.242" stroke="black" stroke-width="1.79243" stroke-linecap="round" stroke-linejoin="round"/>
<path d="M682.465 646.998C683.962 658.84 685.503 670.672 686.901 682.523C687.197 685.04 686.946 687.63 686.946 689.671C685.288 691.541 683.666 689.167 682.465 690.606" stroke="black" stroke-width="1.79243" stroke-linecap="round" stroke-linejoin="round"/>
<path d="M658.268 660.036C654.181 661.295 650.739 663.938 647.173 666.06C640.523 670.016 633.425 671.41 626.022 672.732C613.054 675.061 600.085 677.659 588.784 685.176C587.861 685.787 586.956 686.183 587.019 687.46" stroke="black" stroke-width="1.79243" stroke-linecap="round" stroke-linejoin="round"/>
<path d="M416.289 876.275C412.525 883.253 408.564 890.176 406.494 897.872C404.289 906.046 402.55 914.344 400.605 922.58" stroke="black" stroke-width="1.79243" stroke-linecap="round" stroke-linejoin="round"/>
<path d="M633.17 672.623C628.106 676.48 622.066 678 616.142 679.825C608.058 682.307 599.75 684.141 591.98 687.558C589.901 688.475 586.612 685.75 585.626 689.599C585.411 691.181 586.683 691.792 587.499 692.35C590.42 694.346 591.586 697.223 591.406 700.487C591.281 702.69 592.473 703.751 593.736 704.992" stroke="black" stroke-width="1.79243" stroke-linecap="round" stroke-linejoin="round"/>
<path d="M491.572 429.859C489.009 424.563 485.702 419.888 481.31 415.877C474.938 410.051 466.191 408.19 458.466 411.984C456.162 413.117 453.519 413.881 451.699 415.931" stroke="black" stroke-width="1.79243" stroke-linecap="round" stroke-linejoin="round"/>
<path d="M545.793 560.233C546.689 560.08 547.926 560.26 548.428 559.73C553.617 554.281 558.905 548.895 561.934 541.801C562.454 540.578 562.373 539.4 561.728 537.791C554.45 541.882 552.443 550.208 547.146 555.729" stroke="black" stroke-width="1.79243" stroke-linecap="round" stroke-linejoin="round"/>
<path d="M572.678 632.612C570.303 637.962 570.635 643.681 571.02 649.237C571.271 652.852 570.948 656.457 571.379 660.027C571.692 662.652 569.12 663.83 568.278 663.452C563.815 661.42 559.136 663.731 554.754 662.284" stroke="black" stroke-width="1.79243" stroke-linecap="round" stroke-linejoin="round"/>
<path d="M578.056 902.351C575.816 906.963 571.335 908.914 567.284 911.315C561.154 914.956 554.809 918.112 547.585 918.993C542.701 919.587 537.987 918.364 533.264 917.546C531.274 917.204 529.096 915.757 528.899 913.581C528.72 911.549 530.494 910.038 532.35 909.112C533.963 908.303 535.63 907.602 537.27 906.855" stroke="black" stroke-width="1.79243" stroke-linecap="round" stroke-linejoin="round"/>
<path d="M304.264 773.327C298.268 767.347 292.451 761.188 285.909 755.767C284.421 754.535 283.023 753.375 280.532 753.582C280.379 755.623 281.67 756.998 282.737 758.5C287.899 765.747 294.71 771.133 301.987 776.069C305.402 778.38 309.739 780.25 308.422 785.95C308.225 786.777 309.784 788.018 310.528 789.07" stroke="black" stroke-width="1.79243" stroke-linecap="round" stroke-linejoin="round"/>
<path d="M655.128 681.166C650.647 679.817 646.103 678.648 641.721 677.021C640.152 676.436 638.62 676.751 637.715 677.237C632.373 680.087 626.844 682.595 622.363 686.956C616.286 692.864 611.124 699.652 604.492 704.993" stroke="black" stroke-width="1.79243" stroke-linecap="round" stroke-linejoin="round"/>
<path d="M385.371 415.023C385.918 417.469 383.901 418.971 383.041 420.823C379.187 429.176 380.334 437.654 382.396 445.998C383.059 448.687 382.745 451.861 384.923 454.136" stroke="black" stroke-width="1.79243" stroke-linecap="round" stroke-linejoin="round"/>
<path d="M578.952 901.451C574.005 901.55 570.044 904.607 565.509 905.956C560.114 907.556 554.764 909.292 549.359 910.829C548.598 911.045 547.459 911.351 546.241 909.957C546.241 908.213 546.33 905.956 546.223 903.699C546.061 900.372 547.11 896.929 544.95 893.773C544.054 892.46 543.686 890.707 545.793 889.763" stroke="black" stroke-width="1.79243" stroke-linecap="round" stroke-linejoin="round"/>
<path d="M531.902 584.06C533.435 587.791 530.441 590.21 529.142 593.015C526.39 598.967 523.567 604.937 520.153 610.521C517.374 615.062 513.772 619.126 508.152 620.474" stroke="black" stroke-width="1.79243" stroke-linecap="round" stroke-linejoin="round"/>
<path d="M345.939 763.885C342.865 764.865 341.154 767.571 339.307 769.801C335.588 774.306 330.829 776.401 325.318 776.859C318.453 777.426 314.769 781.085 313.676 787.703" stroke="black" stroke-width="1.79243" stroke-linecap="round" stroke-linejoin="round"/>
<path d="M573.574 630.814C575.546 639.248 574.515 647.934 575.716 656.458C576.299 660.558 575.555 664.864 578.055 668.578" stroke="black" stroke-width="1.79243" stroke-linecap="round" stroke-linejoin="round"/>
<path d="M467.375 635.31C474.634 630.535 479.913 623.612 486.195 617.786C490.004 614.252 493.921 610.88 499.119 609.208C501.117 612.661 499.217 615.178 497.757 617.273C493.052 624.026 487.943 630.49 483.068 637.126C481.159 639.733 479.465 642.503 477.672 645.2" stroke="black" stroke-width="1.79243" stroke-linecap="round" stroke-linejoin="round"/>
<path d="M546.243 605.639C545.742 602.061 547.005 598.33 545.078 594.706C539.737 605.46 537.335 617.148 534.145 628.567" stroke="black" stroke-width="1.79243" stroke-linecap="round" stroke-linejoin="round"/>
<path d="M519.355 423.116C521.962 415.266 516.039 405.052 508.152 403.784C504.235 403.155 501.986 405.034 500.086 410.528" stroke="black" stroke-width="1.79243" stroke-linecap="round" stroke-linejoin="round"/>
<path d="M497.4 601.593C488.447 610.449 478.911 618.721 470.962 628.567C469.788 630.023 468.39 631.372 468.721 633.512" stroke="black" stroke-width="1.79243" stroke-linecap="round" stroke-linejoin="round"/>
<path d="M447.657 531.461C453.222 534.563 459.335 533.448 465.124 533.061C470.224 532.729 473.074 534.545 470.761 538.996C468.234 543.851 465.922 548.886 463.251 553.687C460.365 558.893 456.852 564.009 454.916 569.701C451.609 579.402 447.119 588.574 443.185 597.996C441.93 601.008 440.675 604.236 441.536 607.392C442.1 609.442 440.568 610.386 440.962 611.915C437.108 611.924 436.598 608.264 434.223 606.979" stroke="black" stroke-width="1.79243" stroke-linecap="round" stroke-linejoin="round"/>
<path d="M670.812 685.212C673.77 687.082 675.903 690.193 680.232 689.869C682.974 689.672 686.819 695.921 685.994 698.681C683.897 705.766 681.549 712.779 679.344 719.828C679.102 720.593 678.789 721.087 677.982 721.168" stroke="black" stroke-width="1.79243" stroke-linecap="round" stroke-linejoin="round"/>
<path d="M693.668 729.719C692.986 736.831 689.939 743.278 687.672 749.886C686.489 753.33 685.315 756.702 684.688 760.388C686.686 761.97 688.514 762.087 691.042 760.865C693.793 759.534 696.32 757.547 699.493 757.133" stroke="black" stroke-width="1.79243" stroke-linecap="round" stroke-linejoin="round"/>
<path d="M557.443 590.354C555.472 598.392 553.141 606.313 549.377 613.731C547.307 617.804 545.389 621.949 544 626.319" stroke="black" stroke-width="1.79243" stroke-linecap="round" stroke-linejoin="round"/>
<path d="M321.742 895.158C322.952 899.618 321.661 903.709 319.949 907.746C317.852 912.691 315.764 917.636 313.676 922.582" stroke="black" stroke-width="1.79243" stroke-linecap="round" stroke-linejoin="round"/>
<path d="M424.805 716.456C423.864 723.559 424.59 730.698 424.357 737.81C424.303 739.456 424.213 741.11 424.133 742.756" stroke="black" stroke-width="1.79243" stroke-linecap="round" stroke-linejoin="round"/>
<path d="M464.685 552.59C466.361 554.892 465.742 557.319 465.151 559.783C464.586 562.121 462.865 564.656 466.011 566.724C469.757 563.667 470.089 558.776 472.76 555.287" stroke="black" stroke-width="1.79243" stroke-linecap="round" stroke-linejoin="round"/>
<path d="M518.458 425.814C516.549 427.639 516.065 431.613 511.664 429.554C510.042 428.79 508.716 431.325 507.802 432.629C506.699 434.211 505.669 434.427 504.324 434.337C503.957 433.6 503.805 433.303 503.661 433.007L502.765 418.621C500.766 416.517 501.636 413.864 501.403 410.969C499.359 410.825 497.459 412.291 495.049 411.203C492.548 410.07 492.297 413.316 492.1 415.033C491.867 417.083 491.939 419.331 492.53 421.291C493.884 425.769 493.202 430.291 493.355 434.805" stroke="black" stroke-width="1.79243" stroke-linecap="round" stroke-linejoin="round"/>
<path d="M385.82 418.171C390.221 426.164 397.247 431.064 405.591 433.744C409.964 435.146 414.651 435.731 418.98 437.502" stroke="black" stroke-width="1.79243" stroke-linecap="round" stroke-linejoin="round"/>
<path d="M583.433 898.755C579.901 905.939 578.656 913.95 575.438 921.269C574.981 922.312 574.847 923.112 573.574 923.031" stroke="black" stroke-width="1.79243" stroke-linecap="round" stroke-linejoin="round"/>
<path d="M453.93 480.211C447.926 483.754 441.07 485.732 435.89 490.884C433.972 492.781 432.574 495.038 430.629 496.845" stroke="black" stroke-width="1.79243" stroke-linecap="round" stroke-linejoin="round"/>
<path d="M518.459 423.116C517.267 419.969 516.317 416.696 514.82 413.702C511.594 407.21 507.489 406.572 501.879 411.427" stroke="black" stroke-width="1.79243" stroke-linecap="round" stroke-linejoin="round"/>
<path d="M533.245 575.968C532.797 575.347 532.475 575.527 531.883 575.941C522.544 582.433 511.853 586.784 503.195 594.364C501.008 596.288 499.96 598.905 498.293 601.134" stroke="black" stroke-width="1.79243" stroke-linecap="round" stroke-linejoin="round"/>
<path d="M522.491 583.16C519.104 589.184 512.911 591.918 507.641 595.658C505.409 597.24 503.375 599.74 500.086 599.344" stroke="black" stroke-width="1.79243" stroke-linecap="round" stroke-linejoin="round"/>
<path d="M450.795 583.16C453.152 585.714 450.679 588.033 450.249 590.335C449.128 596.287 446.682 601.727 442.281 606.088" stroke="black" stroke-width="1.79243" stroke-linecap="round" stroke-linejoin="round"/>
<path d="M460.649 476.614C457.055 479.123 452.933 478.529 448.998 478.341C443.433 478.071 438.342 478.772 434.211 482.908" stroke="black" stroke-width="1.79243" stroke-linecap="round" stroke-linejoin="round"/>
<path d="M449.449 415.473C446.178 417.622 442.208 417.747 438.686 417.981C428.209 418.665 422.921 427.404 427.877 436.638C428.415 437.645 429.786 437.969 429.41 439.47C432.995 438.724 434.697 436.962 434.706 433.455C434.706 429.454 439.546 426.99 444.072 428.51" stroke="black" stroke-width="1.79243" stroke-linecap="round" stroke-linejoin="round"/>
<path d="M397.469 416.822C400.498 422.963 407.103 423.503 412.292 426.191C416.675 428.466 421.254 427.108 425.699 425.814" stroke="black" stroke-width="1.79243" stroke-linecap="round" stroke-linejoin="round"/>
<path d="M284.997 799.4C278.383 799.805 272.441 802.332 266.625 805.245" stroke="black" stroke-width="1.79243" stroke-linecap="round" stroke-linejoin="round"/>
<path d="M494.71 702.744C491.537 707.887 486.492 711.295 482.638 715.808C481.258 717.427 478.99 718.317 478.578 720.727" stroke="black" stroke-width="1.79243" stroke-linecap="round" stroke-linejoin="round"/>
<path d="M427.492 417.271C432.332 412.344 438.462 411.247 444.968 411.463C448.06 411.562 454.119 418.215 453.841 421.308C453.724 422.585 452.828 423.826 451.278 424.527C448.051 425.975 445.3 427.584 443.821 431.567C442.683 434.624 439.439 437.34 435.119 435.712" stroke="black" stroke-width="1.79243" stroke-linecap="round" stroke-linejoin="round"/>
<path d="M455.722 479.312C456.322 480.741 456.286 482.117 455.273 483.358C451.223 488.285 447.333 493.374 441.821 496.836C441.436 497.078 440.898 497.087 440.486 497.303C436.211 499.569 431.165 499.776 429.274 497.744C427.473 495.802 428.45 489.355 431.076 486.064C431.47 485.569 431.963 485.156 432.411 484.706" stroke="black" stroke-width="1.79243" stroke-linecap="round" stroke-linejoin="round"/>
<path d="M332.941 691.056C333.605 696.855 336.643 701.387 340.604 705.397C340.828 705.622 341.751 705.145 342.352 704.992" stroke="black" stroke-width="1.79243" stroke-linecap="round" stroke-linejoin="round"/>
<path d="M516.218 428.061C514.569 423.125 511.378 419.681 506.341 418.233C505.418 417.964 504.271 418.476 503.223 418.62" stroke="black" stroke-width="1.79243" stroke-linecap="round" stroke-linejoin="round"/>
<path d="M424.805 418.62C419.911 418.17 415.61 415.698 410.931 414.502C410.206 414.322 409.722 413.89 409.121 414.574" stroke="black" stroke-width="1.79243" stroke-linecap="round" stroke-linejoin="round"/>
<path d="M357.585 612.382C354.798 614.926 354.287 618.667 352.674 621.832C351.67 623.801 351.249 626.094 349.52 627.667" stroke="black" stroke-width="1.79243" stroke-linecap="round" stroke-linejoin="round"/>
<path d="M656.923 676.671C653.965 676.967 651.258 675.484 648.409 675.412C646.482 675.358 643.703 674.108 643.031 677.57" stroke="black" stroke-width="1.79243" stroke-linecap="round" stroke-linejoin="round"/>
<path d="M402.849 447.842C404.041 449.038 405.34 450.153 406.407 451.456C408.002 453.416 411.408 454.738 409.526 458.155C407.402 462.021 406.461 467.389 400.16 466.714" stroke="black" stroke-width="1.79243" stroke-linecap="round" stroke-linejoin="round"/>
<path d="M400.16 447.842C395.814 451.402 390.974 454.405 387.613 459.081" stroke="black" stroke-width="1.79243" stroke-linecap="round" stroke-linejoin="round"/>
<path d="M403.293 410.078C406.528 411.256 407.72 414.286 409.674 416.741C412.56 420.355 416.145 423.421 419.425 426.712" stroke="black" stroke-width="1.79243" stroke-linecap="round" stroke-linejoin="round"/>
<path d="M400.607 421.768C400.49 424.249 402.354 425.535 403.717 427.18C405.617 429.473 408.592 430.813 409.569 433.906" stroke="black" stroke-width="1.79243" stroke-linecap="round" stroke-linejoin="round"/>
<path d="M407.327 459.98C402.397 458.505 399.924 460.205 399.243 465.375C398.893 468.027 397.612 470.266 395.676 472.118" stroke="black" stroke-width="1.79243" stroke-linecap="round" stroke-linejoin="round"/>
<path d="M680.674 689.707C678.326 685.616 674.346 683.62 670.367 681.615" stroke="black" stroke-width="1.79243" stroke-linecap="round" stroke-linejoin="round"/>
<path d="M554.755 596.648C554.603 596.648 554.361 596.594 554.325 596.648C551.072 602.501 545.004 606.314 542.656 612.823" stroke="black" stroke-width="1.79243" stroke-linecap="round" stroke-linejoin="round"/>
<path d="M540.417 895.158C538.445 900.679 538.239 906.532 537.244 912.233C536.877 914.337 538.714 915.703 538.624 917.636" stroke="black" stroke-width="1.79243" stroke-linecap="round" stroke-linejoin="round"/>
<path d="M471.855 544.049C473.236 547.475 474.795 550.891 472.752 554.614" stroke="black" stroke-width="1.79243" stroke-linecap="round" stroke-linejoin="round"/>
<path d="M438.247 457.282C438.229 459.332 440.371 459.962 441.088 461.715C441.994 463.918 441.752 465.644 440.425 467.119C439.161 468.53 437.503 469.169 435.523 467.667C433.372 466.031 431.508 467.263 431.212 469.438C430.952 471.345 429.222 471.92 428.828 473.467" stroke="black" stroke-width="1.79243" stroke-linecap="round" stroke-linejoin="round"/>
<path d="M429.285 474.815C430.674 475.849 430.746 477.342 430.621 478.862C430.405 481.496 431.436 482.971 434.214 482.908" stroke="black" stroke-width="1.79243" stroke-linecap="round" stroke-linejoin="round"/>
<path d="M431.525 418.62C426.282 415.796 424.319 420.211 421.657 422.72C421.604 424.266 423.477 424.455 423.011 425.813" stroke="black" stroke-width="1.79243" stroke-linecap="round" stroke-linejoin="round"/>
<path d="M662.746 736.462C663.848 741.497 668.303 739.42 671.26 740.508" stroke="black" stroke-width="1.79243" stroke-linecap="round" stroke-linejoin="round"/>
<path d="M546.242 911.342C545.068 913.437 546.824 916.314 544.449 918.085" stroke="black" stroke-width="1.79243" stroke-linecap="round" stroke-linejoin="round"/>
<path d="M540.863 628.566C538.677 627.424 536.803 630.598 534.59 629.016" stroke="black" stroke-width="1.79243" stroke-linecap="round" stroke-linejoin="round"/>
<path d="M441.833 412.326C441.725 415.239 437.701 414.574 437.352 417.271" stroke="black" stroke-width="1.79243" stroke-linecap="round" stroke-linejoin="round"/>
</svg>
