<svg width="766" height="924" viewBox="0 0 766 924" fill="none" xmlns="http://www.w3.org/2000/svg">
<path d="M635.018 697.35C639.974 698.536 639.893 703.572 642.152 706.817C642.555 707.393 642.206 708.247 642.573 709.065C644.813 714.145 642.134 718.227 636.362 718.443C631.738 718.614 627.104 718.497 622.471 718.479C611.636 718.434 600.944 720.08 590.189 721.006C570.966 722.669 552.172 726.67 533.316 730.294C512.927 734.214 492.681 738.817 472.759 744.86C458.849 749.076 445.083 753.653 431.613 759.039C418.582 764.263 405.892 770.359 393.031 776.014C375.026 783.927 357.371 792.549 339.698 801.172C318.583 811.467 298.463 823.479 278.746 836.229C266.172 844.357 253.384 852.152 240.666 860.065C240.344 860.263 239.788 860.092 239.34 860.092" stroke="black" stroke-linecap="round" stroke-linejoin="round"/>
<path d="M468.771 542.7C474.56 543.599 475.403 543.338 477.67 538.177C479.122 534.877 482.366 535.372 484.464 535.264C493.623 534.788 501.904 531.416 509.907 527.684C515.508 525.077 521.441 523 526.603 519.367C531.595 515.852 533.648 512.399 530.394 507.319C524.847 498.652 528.719 490.371 529.937 482.045C530.385 478.997 531.3 476.083 530.583 473.026C529.292 467.524 531.524 462.237 531.452 456.833C531.326 447.419 528.584 438.554 525.241 429.85C523.969 426.542 523.153 423.143 522.92 419.519C522.418 411.841 520.222 404.693 514.917 398.839C511.296 394.847 510.239 389.551 508.446 384.804C506.896 380.686 504.915 376.829 502.244 373.781C493.408 363.719 483.361 355.349 470.16 351.051C453.705 345.701 437.143 344.37 420.411 348.174C409.71 350.61 398.553 354.674 393.417 364.852C388.246 375.084 380.171 381.531 372.043 388.553C365.187 394.47 359.881 401.69 357.228 410.528C354.298 420.311 354.315 430.201 356.26 440.199C357.766 447.941 359.164 455.565 363.842 462.273C367.131 466.984 371.066 470.752 376.04 473.422C381.462 476.335 387.224 478.664 392.127 482.485C393.605 483.636 394.923 484.176 396.644 483.339" stroke="black" stroke-linecap="round" stroke-linejoin="round"/>
<path d="M220.968 767.032C221.46 768.04 221.514 768.804 220.546 769.766C209.586 780.681 200.149 792.999 189.26 804.005C183.165 810.164 177.456 816.745 171.192 822.742C164.013 829.63 156.539 836.211 149.315 843.054C148.168 844.142 146.761 844.951 145.739 844.277C139.878 840.392 137.306 845.275 134.035 848.404C133.73 848.7 133.417 848.988 133.148 849.312C133.076 849.402 133.139 849.599 133.139 850.103C134.761 850.148 135.576 851.622 138.131 850.876C152.201 846.758 165.537 840.716 179.285 835.789C199.799 828.434 220.161 820.665 240.72 813.445C247.773 810.973 254.961 808.869 261.7 805.614C263.188 804.895 264.282 805.425 265.303 805.776C272.052 808.096 278.415 805.138 282.977 801.739C288.435 797.684 294.475 795.697 300.345 793.278C313.278 787.955 326.613 783.657 339.698 778.694C359.164 771.321 378.441 763.454 398.023 756.423C403.732 754.373 409.486 751.558 415.885 751.747" stroke="black" stroke-linecap="round" stroke-linejoin="round"/>
<path d="M641.742 708.14C638.758 709.3 635.765 708.104 632.78 708.149C618.566 708.391 604.388 709.425 590.201 710.307C574.849 711.26 559.64 713.256 544.512 715.836C533.856 717.652 523.155 719.451 512.715 722.184C487.101 728.883 461.541 735.833 436.474 744.464C435.38 744.842 433.821 745.741 432.477 744.554" stroke="black" stroke-linecap="round" stroke-linejoin="round"/>
<path d="M473.253 555.288C475.655 559.334 473.504 563.497 473.02 567.399C472.411 572.344 471.013 577.208 470.439 582.252C470.072 585.462 468.817 588.438 466.783 591.424C463.87 595.703 462.723 601.17 460.697 606.088C452.157 626.831 445.112 648.105 440.327 669.98C437.943 680.905 437.629 692.333 438.713 703.653C439.708 713.993 439.735 724.378 438.194 734.655C437.486 739.384 434.026 742.9 430.146 745.327C427.376 747.063 424.159 748.339 420.825 749.113C418.916 749.553 417.285 750.398 416.218 752.592C414.435 756.261 410.044 756.674 406.844 757.825C392.809 762.869 379.348 769.244 365.762 775.268C348.169 783.064 330.899 791.623 313.772 800.408C304.488 805.173 295.857 811.197 286.814 816.457C273.712 824.073 260.654 831.752 247.757 839.718C241.448 843.611 239.655 848.844 239.252 855.587C238.84 862.502 237.818 869.38 237.092 876.276C236.142 885.25 236.85 894.259 236.644 903.25C236.59 905.678 238.123 905.993 240.193 906.514C244.029 907.485 247.82 906.757 251.405 906.244C269.768 903.637 287.917 899.735 306.119 896.156C317.214 893.971 328.524 892.865 339.7 891.076C348.985 889.592 358.242 887.911 367.482 886.14C382.404 883.281 397.093 879.405 411.881 875.944C415.071 875.197 417.993 874.361 420.852 872.743C424.813 870.495 429.536 871.034 433.856 869.659C453.456 863.419 473.029 857.134 492.065 849.285C501.663 845.328 511.244 841.318 520.744 837.137C540.64 828.371 560.455 819.406 580.369 810.667C590.003 806.441 599.817 802.647 609.433 798.394C610.957 797.72 612.229 797.234 613.475 798.097C615.357 799.401 614.075 800.992 613.529 802.548C610.195 812.124 606.825 821.69 603.679 831.32C600.408 841.318 597.639 851.487 594.144 861.396C591.849 867.905 588.542 874.011 583.488 878.974C572.85 889.422 560.455 897.136 546.734 902.792" stroke="black" stroke-linecap="round" stroke-linejoin="round"/>
<path d="M468.773 590.354C469.615 594.786 467.195 598.563 465.959 602.456C459.918 621.535 453.591 640.561 449.235 660.081C445.919 674.943 444.638 690.211 443.688 705.451C443.114 714.586 442.514 723.712 442.801 732.874C442.863 734.825 443.087 736.768 443.24 738.719" stroke="black" stroke-linecap="round" stroke-linejoin="round"/>
<path d="M463.841 569.673C463.079 584.635 455.631 597.358 449.833 610.53C442.063 628.189 434.866 646.081 431.353 665.017C428.476 680.545 426.513 696.325 425.761 712.176C425.707 713.309 425.94 714.496 424.855 715.323" stroke="black" stroke-linecap="round" stroke-linejoin="round"/>
<path d="M549.432 536.855C552.703 535.282 556.279 535.363 559.738 535.102C571.524 534.239 583.085 535.579 594.198 539.661C596.179 540.389 598.204 540.038 600.077 540.865C600.427 541.018 600.973 540.695 601.878 540.497C601.753 537.008 599.136 535.075 597.317 532.854C595.318 530.409 592.871 528.332 590.658 526.057C587.405 522.721 589.134 518.846 589.833 515.285C591.545 506.591 590.102 504.118 581.696 502.688C576.919 501.87 572.187 501.259 567.338 502.608C565.098 503.228 562.597 502.437 560.688 501.259C556.7 498.813 553.223 500.054 549.916 502.284C547.29 504.055 544.548 505.593 541.85 507.229C538.668 509.153 535.424 509.369 531.965 508.533" stroke="black" stroke-linecap="round" stroke-linejoin="round"/>
<path d="M135.38 852.449C117.456 858.59 99.5226 864.704 81.6073 870.89C57.8487 879.099 34.0632 887.254 10.4032 895.733C6.91688 896.983 2.96459 898.107 0.5 901.452" stroke="black" stroke-linecap="round" stroke-linejoin="round"/>
<path d="M649.357 809.741C645.208 810.694 641.184 811.404 636.774 810.325C631.756 809.093 630.877 810.217 630.071 815.585C628.251 827.786 624.129 839.097 617.103 849.32C612.29 856.325 609.861 864.138 610.399 872.68C610.793 878.983 609.736 884.953 606.249 890.159C604.134 893.315 605.228 896.192 606.465 898.691C608.517 902.845 608.669 906.874 608.266 911.36C607.907 915.334 607.047 919.803 610.82 923.04" stroke="black" stroke-linecap="round" stroke-linejoin="round"/>
<path d="M640.848 678.918C635.946 681.489 632.11 685.365 628.31 689.267C624.241 693.43 620.334 697.746 616.175 701.819C613.119 704.804 609.633 705.973 604.99 705.721C600.635 705.487 596.046 705.892 591.538 706.656C583.257 708.059 574.851 708.769 566.462 709.452C555.134 710.378 543.77 710.81 532.415 710.334C524.636 710.01 516.946 709.56 509.096 710.154C501.155 710.756 494.183 713.004 487.604 717.14C484.387 719.163 481.232 721.285 477.289 721.627" stroke="black" stroke-linecap="round" stroke-linejoin="round"/>
<path d="M560.184 664.532C560.659 665.071 561.349 665.197 561.94 665.494C572.874 671.032 576.629 679.88 573.089 691.928C572.811 692.89 572.955 693.762 572.731 694.653C570.929 701.711 566.771 703.932 559.718 702.844C549.976 701.342 540.431 698.932 530.635 697.584C520.912 696.253 511.725 698.159 502.387 699.652C501.123 699.849 499.985 700.209 498.793 699.598" stroke="black" stroke-linecap="round" stroke-linejoin="round"/>
<path d="M419.932 547.195C427.522 547.195 430.623 550.018 429.79 556.186C424.879 556.852 420.998 553.606 419.008 547.114C410.987 549.083 404.284 553.867 397.096 557.571C388.062 562.22 379.234 567.291 370.165 571.867C363.73 575.113 359.751 580.436 357.295 586.793C354.23 594.714 349.561 601.467 344.228 607.904C341.477 611.231 339.389 614.98 337.874 619.098C335.804 624.745 337.462 631.785 345.546 631.704" stroke="black" stroke-linecap="round" stroke-linejoin="round"/>
<path d="M426.65 560.232C425.153 561.284 423.656 562.318 422.169 563.379C414.067 569.206 408.582 576.947 405.078 586.28C403.608 590.2 403.698 593.968 406.126 597.025C410.634 602.68 411.181 608.354 408.923 615.151C407.829 618.451 408.627 622.335 410.41 625.923C413.529 632.199 415.304 638.789 415.178 646.108C415.026 654.56 418.395 662.248 423.952 669.306C413.753 672.318 404.074 674.503 393.454 672.884C385.567 671.679 377.448 670.457 369.283 671.661C365.662 672.192 362.552 673.514 359.362 675.204C357.605 676.139 355.67 678.189 353.16 676.687" stroke="black" stroke-linecap="round" stroke-linejoin="round"/>
<path d="M732.259 738.26C730.44 733.944 727.41 731.202 722.876 729.637C716.261 727.362 709.898 724.395 703.159 722.444C701.895 722.076 700.739 722.219 699.547 722.103C697.665 721.923 696.509 723.029 696.482 724.782C696.464 726.104 695.765 727.443 698.113 728.567C702.352 730.599 706.878 731.337 711.216 732.82C716.324 734.573 721.728 735.643 725.232 740.454C723.682 746.757 718.278 748.258 713.429 750.398C708.957 752.376 704.467 754.3 699.986 756.251" stroke="black" stroke-linecap="round" stroke-linejoin="round"/>
<path d="M350.918 645.65C352.675 647.538 352.02 649.948 351.716 651.926C350.058 662.805 352.737 673.505 352.854 684.303C352.899 688.484 353.006 692.701 353.132 696.891C353.32 703.032 356.914 706.62 363.008 706.8C371.101 707.033 379.095 705.586 387.206 705.802C396.705 706.053 406.107 706.791 415.436 708.58C418.967 709.254 421.755 710.855 423.054 714.433" stroke="black" stroke-linecap="round" stroke-linejoin="round"/>
<path d="M546.743 561.581C551.923 571.534 558.887 580.337 564.703 589.886C570.439 599.308 573.576 609.765 577.152 620.051C578.209 623.099 575.744 625.869 572.285 625.824C570.188 625.797 568.082 625.356 566.012 624.961C558.716 623.549 551.618 625.275 544.511 626.426C542.477 626.75 541.375 628.584 540.317 630.751C535.415 640.803 530.1 650.649 524.759 660.485C517.428 673.981 508.851 686.614 498.912 698.365C496.878 700.766 495.166 702.016 492.083 702.42C487.539 703.023 483.148 704.686 478.613 705.388C470.583 706.637 462.481 707.51 454.424 705.433C449.862 704.255 448.527 705.316 447.156 709.91C446.071 713.543 446.753 717.148 446.304 720.727C445.892 724.027 447.559 725.294 450.391 725.654C451.565 725.807 452.838 725.924 453.967 725.636C460.16 724.08 466.442 723.622 472.796 723.874C474.302 723.937 475.763 723.802 476.829 722.525" stroke="black" stroke-linecap="round" stroke-linejoin="round"/>
<path d="M415.001 568.325C413.773 567.21 412.778 568.271 411.882 568.802C398.923 576.471 386.68 585.184 375.164 594.894C374.071 595.82 373.21 597.349 372.269 598.284C370.414 600.145 369.482 602.249 370.342 604.227C371.328 606.484 374.071 606.907 376.464 606.961C380.497 607.059 384.547 607.248 388.553 606.934C396.297 606.313 403.493 609.127 410.959 610.197C416.085 610.926 421.149 610.656 426.186 610.018C427.673 609.829 430.057 609.541 430.236 606.997" stroke="black" stroke-linecap="round" stroke-linejoin="round"/>
<path d="M585.279 688.808C580.162 684.286 581.031 678.882 582.519 673.055C585.001 663.336 591.463 656.341 597.862 649.282C601.859 644.877 606.528 641.064 609.45 635.751C610.05 634.654 611.458 633.368 609.253 632.046C597.513 638.07 591.606 649.66 584.204 660.504C583.092 656.835 583.388 654.659 584.813 651.494C589.025 642.143 595.164 634.438 603.625 628.54C612.623 622.273 621.621 615.961 629.194 607.896C631.864 605.054 634.159 601.979 635.996 598.491C636.543 597.457 635.978 596.944 635.87 596.18C633.549 595.766 632.348 597.529 630.995 598.904C617.444 612.724 602.719 625.186 587.52 637.099C586.507 637.89 585.503 639.059 584.365 639.23C583.128 639.419 581.058 640.39 580.709 637.567C580.565 636.398 579.812 635.256 579.902 633.961C580.592 624.395 580.968 614.711 584.517 605.693C585.942 602.069 589.07 599.165 591.06 595.721C595.666 587.764 601.483 580.526 605.05 571.939C605.767 570.213 607.281 568.801 605.292 566.751C601.375 569.575 598.382 573.117 596.016 577.307C592.314 583.853 589.124 590.641 586.256 597.583C585.799 598.688 585.073 600.406 586.624 601.593" stroke="black" stroke-linecap="round" stroke-linejoin="round"/>
<path d="M672.663 617.327C667.581 609.235 662.939 600.819 657.302 593.15C652.283 586.316 647.856 579.186 643.491 571.948C637.155 561.429 627.978 553.921 617.062 548.616C612.921 546.602 609.283 543.455 604.551 542.7" stroke="black" stroke-linecap="round" stroke-linejoin="round"/>
<path d="M420.823 742.756C417.418 739.51 413.134 740.427 409.172 740.598C404.091 740.814 399.045 741.641 393.937 741.938C383.711 742.522 373.978 740.571 364.344 737.406C359.603 735.851 358.554 736.597 355.803 740.94C353.392 744.743 352.075 749.023 350.641 753.159C349.78 755.64 348.436 756.243 346.438 756.692" stroke="black" stroke-linecap="round" stroke-linejoin="round"/>
<path d="M699.993 758.041C701.696 761.251 699.473 763.966 698.048 766.025C693.711 772.328 690.188 779 686.953 785.896C683.951 792.289 678.771 796.784 672.99 801.505C672.614 800.057 671.986 799.059 672.264 798.538C675.661 792.163 676.602 784.988 678.816 778.235C680.805 772.157 683.359 766.673 688.333 762.537" stroke="black" stroke-linecap="round" stroke-linejoin="round"/>
<path d="M244.719 753.096C248.034 752.647 249.379 755.632 251.377 757.223C261.137 764.947 271.784 771.564 280.549 780.537C281.858 781.877 283.883 782.983 282.843 786.067C276.902 784.341 272.116 780.888 267.644 777.283C261.558 772.373 255.437 767.437 250.069 761.665C244.288 755.452 240.175 748.088 235.828 740.913C233.274 736.687 235.165 732.335 239.278 729.206C243.347 726.113 248.115 725.232 252.784 723.91C253.914 723.587 255.097 723.524 256.011 722.409C254.505 718.21 256.002 714.568 259.085 711.781C267.832 703.896 276.05 695.381 285.891 688.754C287.862 687.424 289.574 686.651 291.752 687.909" stroke="black" stroke-linecap="round" stroke-linejoin="round"/>
<path d="M430.236 642.953C424.867 639.437 418.764 640.849 413.234 641.397C405.249 642.188 397.38 642.107 389.458 641.577C381.992 641.082 374.679 639.401 367.008 640.957C361.846 642 359.955 645.263 358.601 649.264C356.343 655.963 354.102 662.706 354.013 669.917C354.013 670.223 353.457 670.52 353.152 670.817" stroke="black" stroke-linecap="round" stroke-linejoin="round"/>
<path d="M518.958 425.813C521.074 432.161 518.636 438.94 513.133 441.997C505.318 446.34 504.807 447.905 505.883 457.291C506.546 463.091 506.636 468.899 505.739 474.851C504.888 480.444 500.694 483.186 497.781 486.855C486.444 501.133 470.724 510.007 455.74 519.709C452.11 522.056 447.638 520.833 445.021 517.533C441.633 513.271 441.355 507.328 444.6 503.606C446.446 501.493 448.902 499.847 449.502 496.601C448.946 495.388 447.656 494.776 446.374 494.147" stroke="black" stroke-linecap="round" stroke-linejoin="round"/>
<path d="M674.9 700.047C675.563 705.424 676.89 710.72 676.325 716.241C676.146 718.012 675.16 720.152 677.544 721.698C678.987 722.642 677.938 724.639 677.49 725.619C671.019 739.798 668.546 755.299 662.98 769.793C661.053 774.81 657.316 776.824 653.301 778.496C651.428 779.279 649.107 779.944 647.189 780.699C641.337 783.01 636.228 786.499 634.983 793.539C634.042 798.88 631.443 803.807 630.977 809.282" stroke="black" stroke-linecap="round" stroke-linejoin="round"/>
<path d="M502.38 666.779C502.792 661.223 506.521 657.428 509.577 653.31C512.749 649.031 516.272 645.002 519.372 640.678C522.33 636.551 520.573 633.305 515.384 633.089C506.476 632.711 498.643 636.362 490.72 639.77C486.598 641.541 483.121 645.029 478.191 644.76" stroke="black" stroke-linecap="round" stroke-linejoin="round"/>
<path d="M503.727 481.559C504.354 485.012 502.589 487.799 501.002 490.532C495.876 499.38 489.612 507.427 483.105 515.267C481.071 517.713 479 520.132 476.832 522.46C470.737 528.988 462.734 529.986 454.435 530.121C446.97 530.247 440.248 527.927 433.795 524.313C429.834 522.092 426.276 523.566 425.416 527.882C424.923 530.355 424.027 532 421.723 532.8C414.294 535.381 414.661 541 418.139 546.746" stroke="black" stroke-linecap="round" stroke-linejoin="round"/>
<path d="M467.876 541.351C464.408 535.111 464.372 534.94 455.786 536.9C447.335 538.824 439.78 542.241 435.093 550.297C433.121 553.687 433.372 557.202 435.353 559.621C437.387 562.094 440.515 564.494 444.593 562.975C445.516 562.633 446.672 562.831 447.711 562.939C450.965 563.281 453.537 562.238 455.84 559.837C457.283 558.326 458.305 556.15 460.706 555.737" stroke="black" stroke-linecap="round" stroke-linejoin="round"/>
<path d="M237.548 862.34C230.083 866.835 222.438 871.07 215.179 875.881C200.49 885.618 185.639 895.14 171.658 905.921C171.381 906.136 170.78 905.948 170.332 905.948" stroke="black" stroke-linecap="round" stroke-linejoin="round"/>
<path d="M537.781 553.49C523.146 563.632 507.758 572.219 490.272 576.391C487.485 577.056 484.582 577.793 481.767 577.658C477.869 577.461 474.383 578.261 471.004 580.023" stroke="black" stroke-linecap="round" stroke-linejoin="round"/>
<path d="M443.677 564.728C445.272 566.131 448.462 565.591 448.624 568.756C447.459 573.782 442.879 572.919 439.626 573.602C428.244 575.967 421.236 582.989 417.283 593.518C416.118 596.629 419.112 602.384 422.625 604.281C427.384 606.861 432.178 607.185 436.955 604.281" stroke="black" stroke-linecap="round" stroke-linejoin="round"/>
<path d="M306.109 696.451C308.448 705.487 314.157 712.527 320.063 719.325C324.213 724.108 328.954 728.379 333.444 732.865C338.597 738.008 341.68 744.302 343.195 751.324C343.508 752.79 344.297 753.509 345.095 754.444" stroke="black" stroke-linecap="round" stroke-linejoin="round"/>
<path d="M338.82 627.217C343.463 622.137 346.519 626.966 350.238 629.007C348.553 631.911 349.503 635.004 351.081 636.982C353.5 640.012 352.335 642.808 350.785 644.634C346.994 649.084 347.065 654.533 346.107 659.613C343.337 674.287 343.481 689.257 342.459 704.102C341.787 713.866 342.746 723.64 343.884 733.306C345.13 743.933 346.761 754.516 346.348 765.234C346.214 768.713 344.054 771.932 344.198 775.574" stroke="black" stroke-linecap="round" stroke-linejoin="round"/>
<path d="M527.922 836.265C530.736 838.567 530.503 841.858 530.064 844.789C529.392 849.284 529.347 853.852 529.096 858.303C528.746 864.534 530.153 870.9 531.13 877.157C531.605 880.188 532.143 883.227 533.21 886.194C534.321 889.26 536.346 891.283 538.596 893.432C540.827 895.572 542.091 894.466 543.606 892.901" stroke="black" stroke-linecap="round" stroke-linejoin="round"/>
<path d="M427.995 474.366C427.547 474.366 427.081 474.447 426.651 474.348C423.98 473.746 420.601 478.206 418.737 473.845C417.492 470.914 415.654 468.153 415.735 464.467C415.878 457.948 413.817 451.87 408.234 447.887C401.297 442.933 388.831 446.772 385.362 454.559C384.69 456.06 385.335 457.031 385.864 458.173C388.4 463.649 389.395 469.817 393.867 474.42C396.529 477.163 396.538 481.317 397.775 484.769C401.709 495.784 409.327 503.696 417.653 511.258C422.053 515.259 427.547 517.974 431.123 522.919" stroke="black" stroke-linecap="round" stroke-linejoin="round"/>
<path d="M326.722 637.109C323.397 636.866 320.932 638.736 318.683 640.741C314.256 644.706 310.742 649.238 308.672 655.046C306.781 660.36 303.447 664.991 299.396 669.037C290.873 677.551 289.968 684.403 295.758 696.469C296.824 698.699 298.106 700.839 299.145 703.096C300.355 705.748 302.73 707.924 305.052 710.109C314.802 719.253 323.648 729.26 328.962 741.857C330.504 745.508 332.494 749.113 329.984 753.186C325.799 752.125 324.472 748.268 322.823 745.373C316.541 734.349 309.972 723.497 303.447 712.617C302.91 711.727 301.852 710.72 302.972 709.489" stroke="black" stroke-linecap="round" stroke-linejoin="round"/>
<path d="M509.102 444.245C512.435 448.795 512.66 454.414 513.377 459.557C514.757 469.403 518.306 478.511 521.227 487.844C522.375 491.503 523.154 495.388 526.13 498.193" stroke="black" stroke-linecap="round" stroke-linejoin="round"/>
<path d="M657.873 691.955C658.877 699.589 662.04 706.944 660.58 714.883C659.621 720.071 657.541 724.863 655.633 729.709C654.656 732.191 653.58 734.637 653.32 737.523C657.291 739.834 660.212 736.588 662.677 734.924C667.848 731.445 672.535 727.156 675.788 721.617" stroke="black" stroke-linecap="round" stroke-linejoin="round"/>
<path d="M148.376 923.031C154.174 918.23 161.156 915.101 166.748 909.994C169.768 907.233 171.722 899.708 170.333 896.057C169.06 892.703 166.533 893.495 164.543 894.771C157.571 899.258 150.733 903.961 143.895 908.654C136.985 913.401 130.156 918.248 123.246 922.995C122.843 923.274 122.072 923.031 121.48 923.031" stroke="black" stroke-linecap="round" stroke-linejoin="round"/>
<path d="M337.925 628.117C331.714 631.372 327.592 636.649 324.016 642.494C319.194 650.379 320.377 658.525 322.68 666.779C324.849 674.539 327.6 682.181 332.261 688.691C335.415 693.097 338.194 697.862 341.958 701.845" stroke="black" stroke-linecap="round" stroke-linejoin="round"/>
<path d="M316.417 773.326C320.378 771.006 319.357 767.491 318.138 764.362C315.7 758.077 311.757 752.565 308.262 746.856C304.345 740.463 301.782 733.567 299.461 726.545C299.12 725.529 298.816 724.063 300.787 722.669C301.074 722.579 302.167 722.84 302.965 723.874C311.64 735.149 318.676 747.332 323.605 760.729C325.254 765.216 324.904 769.37 322.243 773.326" stroke="black" stroke-linecap="round" stroke-linejoin="round"/>
<path d="M427.097 872.23C428.89 879.783 425.869 886.517 423.512 893.359C420.662 901.622 418.135 909.966 416.253 918.517C415.912 920.073 416.137 921.538 415.895 923.031" stroke="black" stroke-linecap="round" stroke-linejoin="round"/>
<path d="M537.784 836.265C544.47 852.351 547.642 868.688 541.055 885.6C540.213 885.25 539.065 883.937 537.82 884.863C536.305 885.987 536.529 887.426 537.712 888.909C538.017 889.296 537.479 890.357 537.336 891.103" stroke="black" stroke-linecap="round" stroke-linejoin="round"/>
<path d="M537.331 834.916C534.454 839.78 536.632 844.959 537.196 849.716C537.752 854.382 538.128 859.165 537.967 863.679C537.716 870.719 538.63 877.508 539.58 884.368" stroke="black" stroke-linecap="round" stroke-linejoin="round"/>
<path d="M537.333 540.452C531.974 539.877 527.152 542.134 522.617 544.202C513.565 548.32 504.496 552.159 494.799 554.515C493.024 554.946 490.389 553.625 489.395 556.412" stroke="black" stroke-linecap="round" stroke-linejoin="round"/>
<path d="M509.996 619.126C509.512 618.227 509.459 617.318 509.996 616.428C516.27 606.088 523.332 596.234 528.817 585.408C533.603 583.143 533.065 578.125 534.696 574.187C536.739 569.242 540.952 565.798 544.079 561.59C546.069 558.911 546.033 556.286 544.509 553.48C542.636 550.037 540.226 554.577 538.012 552.374C541.884 547.825 547.906 545.074 551.536 539.886C548.507 537.521 541.633 538.483 537.743 541.288C526.971 549.057 515.123 554.406 501.939 556.663C497.225 557.472 492.61 558.354 488.039 556.178" stroke="black" stroke-linecap="round" stroke-linejoin="round"/>
<path d="M261.747 805.245C256.979 801.172 253.484 796.029 250.141 790.832C245.561 783.702 240.515 776.976 234.403 771.087C233.561 770.278 232.62 769.576 231.724 768.83C228.246 765.971 224.536 764.37 220.064 766.564C219.069 767.05 218.128 768.093 216.891 766.618C215.861 765.386 216.766 764.361 217.035 763.462C217.384 762.293 218.406 761.313 219.186 760.288C221.112 757.726 223.156 755.253 224.984 752.628C229.662 745.92 230.594 745.507 238.445 747.242" stroke="black" stroke-linecap="round" stroke-linejoin="round"/>
<path d="M682.07 646.999C683.567 658.84 685.108 670.673 686.507 682.523C686.802 685.041 686.551 687.63 686.551 689.671C684.893 691.541 683.271 689.168 682.07 690.606" stroke="black" stroke-linecap="round" stroke-linejoin="round"/>
<path d="M657.873 660.036C653.786 661.294 650.345 663.938 646.778 666.06C640.128 670.016 633.03 671.41 625.627 672.731C612.659 675.06 599.691 677.659 588.39 685.175C587.467 685.787 586.561 686.182 586.624 687.459" stroke="black" stroke-linecap="round" stroke-linejoin="round"/>
<path d="M415.895 876.276C412.131 883.253 408.169 890.176 406.099 897.873C403.894 906.046 402.156 914.345 400.211 922.581" stroke="black" stroke-linecap="round" stroke-linejoin="round"/>
<path d="M632.775 672.624C627.712 676.481 621.671 678 615.747 679.826C607.663 682.307 599.355 684.141 591.585 687.558C589.506 688.475 586.217 685.751 585.231 689.599C585.016 691.182 586.289 691.793 587.104 692.35C590.026 694.346 591.191 697.224 591.012 700.488C590.886 702.69 592.078 703.751 593.342 704.992" stroke="black" stroke-linecap="round" stroke-linejoin="round"/>
<path d="M491.177 429.859C488.614 424.564 485.307 419.888 480.916 415.878C474.543 410.052 465.796 408.19 458.071 411.985C455.768 413.118 453.124 413.882 451.305 415.932" stroke="black" stroke-linecap="round" stroke-linejoin="round"/>
<path d="M545.398 560.233C546.295 560.08 547.531 560.26 548.033 559.729C553.222 554.281 558.51 548.895 561.539 541.801C562.059 540.578 561.978 539.4 561.333 537.791C554.056 541.882 552.048 550.207 546.752 555.728" stroke="black" stroke-linecap="round" stroke-linejoin="round"/>
<path d="M572.284 632.612C569.909 637.962 570.24 643.681 570.626 649.237C570.877 652.852 570.554 656.457 570.984 660.027C571.298 662.652 568.726 663.83 567.883 663.452C563.42 661.42 558.742 663.731 554.359 662.284" stroke="black" stroke-linecap="round" stroke-linejoin="round"/>
<path d="M577.662 902.351C575.421 906.963 570.94 908.914 566.889 911.315C560.759 914.956 554.414 918.112 547.191 918.993C542.306 919.587 537.592 918.364 532.869 917.546C530.88 917.204 528.702 915.757 528.505 913.581C528.325 911.549 530.1 910.038 531.955 909.112C533.568 908.303 535.235 907.602 536.875 906.855" stroke="black" stroke-linecap="round" stroke-linejoin="round"/>
<path d="M303.869 773.327C297.873 767.347 292.057 761.188 285.515 755.767C284.027 754.535 282.629 753.375 280.137 753.582C279.985 755.623 281.276 756.998 282.342 758.5C287.504 765.747 294.315 771.133 301.593 776.069C305.007 778.38 309.345 780.25 308.027 785.95C307.83 786.777 309.39 788.018 310.134 789.07" stroke="black" stroke-linecap="round" stroke-linejoin="round"/>
<path d="M654.734 681.166C650.253 679.817 645.709 678.648 641.326 677.021C639.758 676.436 638.225 676.751 637.32 677.237C631.979 680.087 626.449 682.595 621.968 686.956C615.892 692.864 610.73 699.652 604.098 704.993" stroke="black" stroke-linecap="round" stroke-linejoin="round"/>
<path d="M384.976 415.023C385.523 417.469 383.507 418.971 382.646 420.823C378.793 429.176 379.94 437.654 382.001 445.998C382.664 448.687 382.351 451.861 384.528 454.136" stroke="black" stroke-linecap="round" stroke-linejoin="round"/>
<path d="M578.558 901.451C573.611 901.55 569.65 904.607 565.115 905.956C559.719 907.556 554.369 909.292 548.965 910.829C548.203 911.045 547.065 911.351 545.846 909.957C545.846 908.213 545.936 905.956 545.828 903.699C545.667 900.372 546.715 896.929 544.556 893.773C543.659 892.46 543.292 890.707 545.398 889.763" stroke="black" stroke-linecap="round" stroke-linejoin="round"/>
<path d="M531.507 584.06C533.04 587.791 530.047 590.21 528.747 593.015C525.996 598.967 523.173 604.937 519.758 610.521C516.98 615.062 513.377 619.126 507.758 620.474" stroke="black" stroke-linecap="round" stroke-linejoin="round"/>
<path d="M345.545 763.885C342.471 764.865 340.759 767.572 338.913 769.802C335.194 774.306 330.435 776.401 324.923 776.86C318.058 777.426 314.375 781.086 313.281 787.703" stroke="black" stroke-linecap="round" stroke-linejoin="round"/>
<path d="M573.18 630.814C575.151 639.248 574.121 647.934 575.322 656.458C575.904 660.558 575.16 664.864 577.661 668.578" stroke="black" stroke-linecap="round" stroke-linejoin="round"/>
<path d="M466.98 635.31C474.24 630.536 479.518 623.613 485.801 617.786C489.61 614.253 493.526 610.881 498.724 609.208C500.723 612.661 498.823 615.179 497.362 617.274C492.657 624.026 487.549 630.491 482.673 637.126C480.764 639.734 479.07 642.503 477.278 645.201" stroke="black" stroke-linecap="round" stroke-linejoin="round"/>
<path d="M545.849 605.639C545.347 602.06 546.611 598.329 544.684 594.706C539.342 605.459 536.941 617.148 533.75 628.567" stroke="black" stroke-linecap="round" stroke-linejoin="round"/>
<path d="M518.96 423.116C521.568 415.267 515.644 405.053 507.757 403.785C503.841 403.155 501.591 405.035 499.691 410.528" stroke="black" stroke-linecap="round" stroke-linejoin="round"/>
<path d="M497.006 601.592C488.053 610.449 478.517 618.721 470.567 628.566C469.393 630.023 467.995 631.371 468.327 633.511" stroke="black" stroke-linecap="round" stroke-linejoin="round"/>
<path d="M447.262 531.46C452.828 534.562 458.94 533.448 464.73 533.061C469.829 532.728 472.679 534.544 470.367 538.995C467.839 543.85 465.527 548.886 462.856 553.687C459.971 558.893 456.458 564.009 454.522 569.7C451.215 579.402 446.725 588.573 442.79 597.996C441.536 601.008 440.281 604.236 441.141 607.392C441.706 609.442 440.173 610.386 440.568 611.914C436.714 611.923 436.203 608.264 433.828 606.978" stroke="black" stroke-linecap="round" stroke-linejoin="round"/>
<path d="M670.418 685.211C673.375 687.082 675.508 690.193 679.837 689.869C682.58 689.671 686.424 695.92 685.6 698.68C683.503 705.765 681.155 712.779 678.95 719.828C678.708 720.592 678.394 721.087 677.588 721.168" stroke="black" stroke-linecap="round" stroke-linejoin="round"/>
<path d="M693.273 729.719C692.592 736.831 689.545 743.278 687.277 749.886C686.094 753.33 684.92 756.702 684.293 760.388C686.292 761.97 688.12 762.087 690.647 760.865C693.399 759.534 695.926 757.547 699.098 757.133" stroke="black" stroke-linecap="round" stroke-linejoin="round"/>
<path d="M557.049 590.354C555.077 598.392 552.747 606.313 548.983 613.731C546.912 617.804 544.995 621.949 543.605 626.319" stroke="black" stroke-linecap="round" stroke-linejoin="round"/>
<path d="M321.347 895.158C322.557 899.617 321.267 903.708 319.555 907.746C317.458 912.691 315.369 917.636 313.281 922.581" stroke="black" stroke-linecap="round" stroke-linejoin="round"/>
<path d="M424.41 716.457C423.469 723.56 424.195 730.699 423.962 737.811C423.909 739.456 423.819 741.111 423.738 742.756" stroke="black" stroke-linecap="round" stroke-linejoin="round"/>
<path d="M464.29 552.59C465.966 554.892 465.348 557.32 464.756 559.783C464.192 562.121 462.471 564.657 465.617 566.725C469.363 563.668 469.694 558.776 472.365 555.288" stroke="black" stroke-linecap="round" stroke-linejoin="round"/>
<path d="M518.063 425.813C516.154 427.638 515.67 431.613 511.27 429.554C509.648 428.789 508.321 431.325 507.407 432.629C506.305 434.211 505.274 434.427 503.93 434.337C503.562 433.6 503.41 433.303 503.267 433.006L502.37 418.62C500.372 416.516 501.241 413.864 501.008 410.969C498.965 410.825 497.065 412.29 494.654 411.202C492.154 410.069 491.903 413.315 491.706 415.033C491.473 417.083 491.544 419.33 492.136 421.291C493.489 425.768 492.808 430.291 492.96 434.804" stroke="black" stroke-linecap="round" stroke-linejoin="round"/>
<path d="M385.426 418.17C389.826 426.164 396.852 431.064 405.196 433.743C409.57 435.146 414.257 435.73 418.586 437.502" stroke="black" stroke-linecap="round" stroke-linejoin="round"/>
<path d="M583.038 898.754C579.507 905.938 578.261 913.95 575.044 921.269C574.587 922.312 574.452 923.112 573.18 923.031" stroke="black" stroke-linecap="round" stroke-linejoin="round"/>
<path d="M453.536 480.21C447.531 483.753 440.675 485.731 435.495 490.883C433.577 492.78 432.179 495.037 430.234 496.844" stroke="black" stroke-linecap="round" stroke-linejoin="round"/>
<path d="M518.064 423.116C516.872 419.969 515.922 416.696 514.426 413.702C511.199 407.21 507.095 406.572 501.484 411.427" stroke="black" stroke-linecap="round" stroke-linejoin="round"/>
<path d="M532.851 575.967C532.403 575.347 532.08 575.527 531.488 575.94C522.15 582.432 511.458 586.784 502.801 594.363C500.614 596.288 499.565 598.904 497.898 601.134" stroke="black" stroke-linecap="round" stroke-linejoin="round"/>
<path d="M522.097 583.161C518.709 589.185 512.516 591.918 507.246 595.659C505.015 597.241 502.981 599.741 499.691 599.345" stroke="black" stroke-linecap="round" stroke-linejoin="round"/>
<path d="M450.401 583.161C452.758 585.714 450.284 588.034 449.854 590.336C448.734 596.288 446.287 601.728 441.887 606.088" stroke="black" stroke-linecap="round" stroke-linejoin="round"/>
<path d="M460.255 476.614C456.661 479.122 452.538 478.529 448.604 478.34C443.038 478.07 437.948 478.772 433.816 482.908" stroke="black" stroke-linecap="round" stroke-linejoin="round"/>
<path d="M449.055 415.473C445.783 417.622 441.813 417.747 438.291 417.981C427.814 418.665 422.527 427.404 427.483 436.638C428.02 437.645 429.392 437.969 429.015 439.47C432.6 438.724 434.303 436.962 434.312 433.455C434.312 429.454 439.151 426.99 443.677 428.51" stroke="black" stroke-linecap="round" stroke-linejoin="round"/>
<path d="M397.074 416.822C400.103 422.963 406.709 423.502 411.898 426.191C416.28 428.465 420.86 427.108 425.305 425.813" stroke="black" stroke-linecap="round" stroke-linejoin="round"/>
<path d="M284.603 799.4C277.989 799.805 272.047 802.332 266.23 805.245" stroke="black" stroke-linecap="round" stroke-linejoin="round"/>
<path d="M494.315 702.745C491.143 707.888 486.097 711.295 482.243 715.809C480.863 717.427 478.596 718.318 478.184 720.727" stroke="black" stroke-linecap="round" stroke-linejoin="round"/>
<path d="M427.098 417.271C431.937 412.344 438.067 411.247 444.574 411.463C447.666 411.562 453.724 418.215 453.446 421.308C453.33 422.585 452.434 423.826 450.883 424.527C447.657 425.975 444.905 427.584 443.427 431.567C442.288 434.624 439.044 437.34 434.724 435.712" stroke="black" stroke-linecap="round" stroke-linejoin="round"/>
<path d="M455.327 479.311C455.928 480.741 455.892 482.116 454.879 483.357C450.828 488.284 446.938 493.373 441.427 496.835C441.041 497.078 440.504 497.087 440.091 497.303C435.817 499.568 430.771 499.775 428.88 497.743C427.078 495.801 428.055 489.354 430.681 486.063C431.076 485.569 431.568 485.155 432.017 484.706" stroke="black" stroke-linecap="round" stroke-linejoin="round"/>
<path d="M332.547 691.056C333.21 696.855 336.248 701.387 340.209 705.397C340.434 705.622 341.357 705.145 341.957 704.992" stroke="black" stroke-linecap="round" stroke-linejoin="round"/>
<path d="M515.823 428.061C514.174 423.125 510.984 419.681 505.947 418.233C505.024 417.964 503.877 418.476 502.828 418.62" stroke="black" stroke-linecap="round" stroke-linejoin="round"/>
<path d="M424.41 418.62C419.517 418.171 415.215 415.698 410.537 414.502C409.811 414.322 409.327 413.891 408.727 414.574" stroke="black" stroke-linecap="round" stroke-linejoin="round"/>
<path d="M357.191 612.382C354.404 614.927 353.893 618.667 352.28 621.832C351.276 623.801 350.855 626.094 349.125 627.668" stroke="black" stroke-linecap="round" stroke-linejoin="round"/>
<path d="M656.528 676.67C653.571 676.967 650.864 675.483 648.014 675.411C646.087 675.357 643.309 674.108 642.637 677.569" stroke="black" stroke-linecap="round" stroke-linejoin="round"/>
<path d="M402.454 447.841C403.646 449.037 404.946 450.152 406.012 451.456C407.607 453.416 411.013 454.738 409.131 458.154C407.007 462.021 406.066 467.388 399.766 466.714" stroke="black" stroke-linecap="round" stroke-linejoin="round"/>
<path d="M399.766 447.841C395.419 451.402 390.58 454.405 387.219 459.08" stroke="black" stroke-linecap="round" stroke-linejoin="round"/>
<path d="M402.898 410.078C406.134 411.256 407.326 414.286 409.279 416.741C412.165 420.355 415.75 423.421 419.03 426.712" stroke="black" stroke-linecap="round" stroke-linejoin="round"/>
<path d="M400.212 421.767C400.096 424.249 401.96 425.534 403.322 427.18C405.222 429.473 408.197 430.812 409.174 433.905" stroke="black" stroke-linecap="round" stroke-linejoin="round"/>
<path d="M406.932 459.979C402.003 458.505 399.529 460.204 398.848 465.374C398.499 468.027 397.217 470.265 395.281 472.118" stroke="black" stroke-linecap="round" stroke-linejoin="round"/>
<path d="M680.279 689.707C677.931 685.616 673.952 683.62 669.973 681.615" stroke="black" stroke-linecap="round" stroke-linejoin="round"/>
<path d="M554.361 596.648C554.208 596.648 553.966 596.594 553.93 596.648C550.677 602.501 544.61 606.313 542.262 612.823" stroke="black" stroke-linecap="round" stroke-linejoin="round"/>
<path d="M540.022 895.158C538.05 900.678 537.844 906.532 536.849 912.232C536.482 914.336 538.319 915.703 538.23 917.636" stroke="black" stroke-linecap="round" stroke-linejoin="round"/>
<path d="M471.461 544.048C472.841 547.474 474.401 550.891 472.357 554.613" stroke="black" stroke-linecap="round" stroke-linejoin="round"/>
<path d="M437.853 457.283C437.835 459.333 439.977 459.962 440.694 461.715C441.599 463.918 441.357 465.645 440.031 467.119C438.767 468.531 437.109 469.169 435.128 467.668C432.977 466.031 431.113 467.263 430.818 469.439C430.558 471.345 428.828 471.921 428.434 473.467" stroke="black" stroke-linecap="round" stroke-linejoin="round"/>
<path d="M428.891 474.815C430.28 475.849 430.351 477.342 430.226 478.862C430.011 481.496 431.042 482.971 433.82 482.908" stroke="black" stroke-linecap="round" stroke-linejoin="round"/>
<path d="M431.13 418.62C425.887 415.796 423.925 420.211 421.263 422.72C421.209 424.266 423.082 424.455 422.616 425.813" stroke="black" stroke-linecap="round" stroke-linejoin="round"/>
<path d="M662.352 736.462C663.454 741.497 667.908 739.42 670.866 740.508" stroke="black" stroke-linecap="round" stroke-linejoin="round"/>
<path d="M545.847 911.342C544.673 913.437 546.43 916.314 544.055 918.086" stroke="black" stroke-linecap="round" stroke-linejoin="round"/>
<path d="M540.469 628.566C538.282 627.424 536.409 630.598 534.195 629.016" stroke="black" stroke-linecap="round" stroke-linejoin="round"/>
<path d="M441.438 412.326C441.331 415.239 437.307 414.574 436.957 417.271" stroke="black" stroke-linecap="round" stroke-linejoin="round"/>
</svg>
