<svg width="1251" height="938" viewBox="0 0 1251 938" fill="none" xmlns="http://www.w3.org/2000/svg">
<path d="M285.206 634.343C281.687 635.317 280.944 637.716 281.529 641.04C283.416 651.78 285.34 662.532 286.96 673.321C287.556 677.315 287.386 681.467 287.422 685.485C287.471 690.173 281.724 690.125 279.836 689.431C272.25 686.654 265.005 689.297 257.821 689.966C239.337 691.695 220.864 690.612 202.392 690.892C196.353 690.989 190.678 692.889 184.761 693.619C181.327 694.046 179.878 696.98 179.646 701.303C178.648 720.104 179.914 738.698 182.057 757.352C182.776 763.672 181.12 770.406 179.78 776.786C176.517 792.348 176.298 808.604 171.062 823.581C166.459 836.732 170.307 848.884 172.072 861.414C172.304 863.046 173.327 864.641 175.482 865.895C181.668 869.5 187.927 869.39 194.465 868.111C196.523 867.71 197.875 866.017 198.654 864.434C205.741 850.029 211.72 835.161 211.391 818.808C211.111 804.963 214.46 791.824 217.674 778.637C221.157 764.342 222.764 749.681 226.393 735.459C227.221 732.207 225.918 728.433 228.56 725.644" stroke="black" stroke-linecap="round" stroke-linejoin="round"/>
<path d="M636.503 664.785C635.261 680.213 636.016 695.629 636.528 711.057C636.832 720.189 635.797 729.723 638.074 738.369C641.776 752.47 640.278 766.521 639.803 780.452C639.365 793.213 637.319 805.962 637.77 818.82C637.843 820.842 636.893 823.009 639.207 825.408C645.271 825.761 652.175 825.676 659.091 824.288C659.274 822.68 659.676 821.049 659.615 819.429C658.762 797.682 660.881 776.007 661.064 754.284C661.149 744.335 661.149 734.399 660.918 724.451C660.747 717.133 661.417 709.827 661.855 702.521C662.428 692.84 661.283 683.05 660.881 673.309" stroke="black" stroke-linecap="round" stroke-linejoin="round"/>
<path d="M547.005 552.759C544.667 557.472 545.41 562.525 545.897 567.359C546.566 573.935 546.773 580.388 545.203 586.854C544.435 589.996 544.545 592.735 546.116 596.108C548.442 601.089 547.37 607.627 545.872 612.242C543.875 618.367 547.151 622.653 547.918 627.585C548.929 634.087 552.204 640.066 552.192 647.116C552.192 650.769 556.186 654.24 557.245 658.1C563.821 682.185 566.962 706.794 565.72 731.732C564.929 747.659 565.55 763.489 567.328 779.197C568.545 789.961 569.544 800.725 569.994 811.502C570.323 819.587 570.067 827.855 568.691 835.807C567.559 842.37 569.897 848.397 569.593 854.729C569.386 859.198 569.032 863.168 563.443 863.898C562.798 863.983 561.897 864.531 561.666 865.091C557.866 874.127 549.428 871.277 542.719 872.178C539.273 872.641 535.376 871.375 535.413 866.285C535.425 864.677 534.95 863.131 533.61 862.023C529.215 858.394 530.992 853.718 533.245 850.626C535.839 847.046 535.546 844.793 534.548 840.628C531.893 829.499 529.142 818.114 529.519 806.619C530.055 790.412 527.973 774.716 523.93 759.105C521.531 749.815 521.117 740.037 517.172 731.111" stroke="black" stroke-linecap="round" stroke-linejoin="round"/>
<path d="M684.602 639.214C689.168 652.109 692.589 665.321 694.927 678.788C696.681 688.907 698.544 699.038 699.689 709.242C700.346 715.075 700.577 721.029 700.833 726.898C701.284 737.443 702.026 748 702.112 758.545C702.221 770.746 704.255 782.582 706.483 794.479C707.92 802.15 709.004 809.882 710.148 817.615C710.611 820.756 708.833 821.718 705.911 821.937C702.635 822.193 699.348 821 695.962 823.423C694.428 824.519 692.249 821.694 692.48 818.82C693.174 810.102 693.746 801.371 694.331 792.64C694.867 784.713 695.828 776.835 693.88 768.859C692.991 765.218 693.844 761.176 693.685 757.328C693.6 755.282 694.745 752.908 692.516 751.239" stroke="black" stroke-linecap="round" stroke-linejoin="round"/>
<path d="M231.02 725.059C235.391 735.835 238.472 746.855 239.702 758.533C240.724 768.152 243.732 777.565 244.901 787.184C246.886 803.574 250.441 819.891 249.759 836.476C249.285 847.946 252.743 858.053 258.515 867.465C261.961 873.091 268.158 872.409 273.614 871.666C278.156 871.045 282.527 869.206 287.032 868.196C289.675 867.599 291.793 865.724 292.329 863.824C295.325 853.304 302.326 843.928 302.618 832.81C302.85 823.848 302.923 814.923 304.055 806.022C305.504 794.661 307.599 783.324 308.135 771.915C308.695 759.775 310.874 747.78 309.316 735.348C307.964 724.62 305.882 713.576 308.768 702.471C310.01 697.673 309.742 692.34 309.377 687.311C309.206 684.985 309.888 681.515 305.931 680.492C304.348 680.078 303.946 678.215 304.031 676.34C304.494 666.367 302.253 656.516 302.789 646.507C303.52 633.052 299.635 619.816 300.415 606.324C300.829 599.225 301.23 592.114 301.632 585.015" stroke="black" stroke-linecap="round" stroke-linejoin="round"/>
<path d="M739.398 675.136C744.293 688.53 745.487 702.74 748.494 716.549C750.297 724.829 751.685 733.206 753.414 741.499C755.886 753.334 754.12 765.024 752.902 776.823C751.198 793.518 749.493 810.309 755.179 826.748C757.152 832.471 758.54 838.34 759.685 844.355C761.463 853.707 768.062 857.518 775.904 856.459C778.534 856.106 781.42 856.349 783.831 854.742" stroke="black" stroke-linecap="round" stroke-linejoin="round"/>
<path d="M779.582 673.309C779.375 673.917 778.827 674.879 779.022 675.086C785.95 682.039 789.749 690.271 791.527 700.036C792.124 703.3 794.194 706.77 794.827 710.448C795.558 714.722 796.459 718.971 797.238 723.233C797.871 726.716 798.273 730.539 800.964 732.889C809.902 740.707 812.41 751.459 814.846 762.198C818.486 778.186 821.384 794.357 825.464 810.236C826.961 816.068 826.45 820.988 823.308 825.432C819.85 830.303 819.801 833.87 824.55 837.816C826.365 839.326 827.083 842.163 828.301 844.391" stroke="black" stroke-linecap="round" stroke-linejoin="round"/>
<path d="M406.974 694.618C405.233 700.182 404.916 705.881 405.135 711.665C405.781 729.248 403.297 746.649 401.263 764C399.315 780.634 398.243 797.279 397.233 813.949C396.526 825.602 396.003 837.231 393.178 848.702C391.863 854.035 393.507 859.685 388.879 864.629C383.229 870.656 373.512 874.285 365.561 871.825C361.725 870.644 361.104 868.428 362.529 865.079" stroke="black" stroke-linecap="round" stroke-linejoin="round"/>
<path d="M833.157 673.917C836.774 681.393 834.582 689.333 834.898 697.053C835.361 708.17 834.606 719.202 839.026 730.015C842.351 738.161 842.533 747.318 843.459 756.11C845.443 774.837 846.722 793.663 850.801 812.122C852.055 817.797 855.051 823.069 854.527 829.17C854.381 830.935 854.077 832.506 853.249 834.04C849.011 841.87 849.34 845.328 855.087 852.281C856.183 853.608 857.937 854.522 858.631 855.995C859.897 858.686 860.652 861.462 858.813 864.531C857.267 867.1 855.27 867.66 852.64 867.539C848.171 867.319 843.8 866.625 839.209 867.307C836.737 867.673 833.62 866.077 834.338 862.047C834.716 859.952 834.448 857.724 831.927 857.225C824.536 855.764 827.58 850.236 827.836 846.229C828.031 843.21 834.399 840.665 838.588 842.077C842.351 843.356 845.87 843.49 849.584 842.564" stroke="black" stroke-linecap="round" stroke-linejoin="round"/>
<path d="M274.246 692.791C275.975 692.682 276.791 693.498 276.681 695.227C276.06 704.761 274.818 714.247 276 723.854C276.401 727.105 276.426 730.344 277.205 733.608C278.849 740.536 277.144 747.38 276.414 754.32C275.805 760.031 278.277 766.034 279.092 771.94C281.053 785.992 285.802 799.435 288.115 813.365C290.015 824.823 290.721 836.476 291.878 848.044C292.073 850.066 291.829 852.136 294.35 852.915" stroke="black" stroke-linecap="round" stroke-linejoin="round"/>
<path d="M511.694 711.056C511.304 714.064 512.996 716.426 514.117 718.971C517.685 727.008 514.36 734.728 512.083 742.034C508.296 754.235 506.847 766.74 504.96 779.233C503.815 786.759 502.147 794.174 501.185 801.748C500.004 811.002 498.129 820.184 495.401 829.207C492.564 838.558 486.305 845.791 481.727 854.047C480.473 856.312 477.392 856.969 474.555 856.555" stroke="black" stroke-linecap="round" stroke-linejoin="round"/>
<path d="M451.417 680.614C442.674 665.698 445.049 649.247 444.659 633.125C444.415 623.286 448.665 613.934 448.507 604.522C448.361 595.438 450.126 586.573 450.845 577.782C451.819 565.934 448.349 554.622 450.443 543.139C446.717 542.068 443.636 541.739 441.055 539.985" stroke="black" stroke-linecap="round" stroke-linejoin="round"/>
<path d="M1024.94 589.29C1026.11 602.416 1028.07 615.421 1031.06 628.243C1035 645.12 1039.21 661.924 1043.14 678.8C1043.73 681.309 1043.02 683.683 1039.55 683.659C1034.94 683.635 1029.18 682.551 1026.47 686.313C1023.94 689.845 1026.9 695.02 1027.4 699.476C1029.19 715.477 1028.62 731.538 1028.53 747.574C1028.47 758.68 1032.04 768.908 1035.31 779.222C1038.09 787.977 1040.01 796.914 1038.18 805.986C1037.19 810.869 1035.31 815.63 1034.72 820.635C1034.06 826.09 1036.26 830.23 1040.73 833.469C1045.2 836.696 1046.81 841.53 1046.16 846.802C1045.54 851.795 1040.76 855.107 1035.96 851.6C1031.24 848.154 1026.29 846.827 1020.69 848.056C1015.53 849.201 1013.01 853.098 1013.43 859.588C1013.74 864.3 1016.73 865.932 1021.29 866.395C1027.67 867.04 1033.91 867.649 1039.53 863.801C1041 862.79 1042.4 863.338 1043.83 863.277C1050.32 862.973 1052.19 859.953 1049.27 854.12C1048.5 852.574 1047.27 851.259 1046.26 849.834" stroke="black" stroke-linecap="round" stroke-linejoin="round"/>
<path d="M690.081 696.444C691.895 739.099 689.533 781.693 688.498 824.251C679.682 825.87 671.171 825.286 662.684 823.691" stroke="black" stroke-linecap="round" stroke-linejoin="round"/>
<path d="M356.439 728.104C358.838 732.634 355.757 736.969 354.844 740.792C349.949 761.091 346.6 781.511 345.346 802.37C344.847 810.516 343.142 818.662 341.62 826.686C339.854 836.014 339.367 845.39 338.977 854.742C338.734 860.684 336.311 863.01 330.88 863.253C320.469 863.728 310.253 863.095 300.377 859.137C298.222 858.273 297.577 856.982 296.785 855.338" stroke="black" stroke-linecap="round" stroke-linejoin="round"/>
<path d="M618.238 606.336C621.428 613.935 627.602 616.346 635.285 616.078C640.607 615.895 645.867 615.834 651.152 614.397C656.643 612.912 658.616 609.6 658.385 604.51C657.91 594.196 655.462 584.15 653.392 574.092C652.162 568.089 644.674 564.716 637.112 565.532C635.285 565.727 633.398 566.324 631.645 566.08C622.561 564.765 615.596 571.182 614.415 582.567C613.781 588.692 613.72 594.476 615.803 600.236C617.008 603.572 616.119 607.323 614.938 609.855C611.797 616.577 613.66 624.711 608.533 630.714C608.229 631.067 608.302 631.98 608.533 632.492C610.262 636.595 610.895 641.393 607.133 643.841C602.774 646.666 598.159 650.501 592.07 648.943" stroke="black" stroke-linecap="round" stroke-linejoin="round"/>
<path d="M789.931 702.533C787.764 708.852 788.348 715.525 787.569 722.028C785.292 740.828 783.465 759.678 783.271 778.637C783.173 788.123 785.706 797.316 786.704 806.668C787.654 815.508 789.943 824.568 786.351 833.469C786.035 834.272 785.45 835.466 786.838 836.549C789.7 838.79 788.774 841.359 787.642 844.452C785.657 849.846 783.624 855.35 784.975 861.463C785.974 865.956 783.344 868.099 778.972 868.124C773.42 868.16 767.879 867.965 763.155 864.458C761.304 863.082 759.392 862.449 757.054 862.607C753.913 862.814 751.721 861.694 750.235 858.443C748.567 854.766 750.613 852.927 752.841 851.137C754.802 849.554 756.859 847.922 759.49 847.423" stroke="black" stroke-linecap="round" stroke-linejoin="round"/>
<path d="M357.656 732.974C360.64 738.49 360.189 744.786 361.054 750.667C362.296 759.044 363.27 767.617 362.527 776.201C361.504 788.171 360.579 800.153 359.458 812.123C358.569 821.669 358.582 831.191 359.446 840.75C359.885 845.596 360.006 850.491 360.067 855.362C360.165 863.63 361.273 864.957 369.833 865.03C373.693 865.067 377.577 865.749 381.474 864.044C383.3 863.24 385.943 863.472 388.098 864.495" stroke="black" stroke-linecap="round" stroke-linejoin="round"/>
<path d="M602.409 695.835C603.833 698.1 603.87 700.657 603.59 703.141C602.457 713.504 601.386 723.878 599.912 734.192C598.549 743.763 597.221 753.395 594.969 762.783C592.448 773.255 592.655 783.946 591.754 794.503C591.011 803.197 588.345 811.794 589.063 820.257C602.957 824.458 616.862 823.934 630.391 826.138C632.436 824.921 631.596 822.936 631.596 821.268C631.584 803.124 633.496 785.115 635.201 767.069C635.968 758.996 634.64 750.813 635.907 742.728C635.968 742.302 636.296 741.912 636.503 741.51" stroke="black" stroke-linecap="round" stroke-linejoin="round"/>
<path d="M467.856 554.586C469.548 559.664 467.685 564.729 467.843 569.807C468.136 579.232 472.203 587.719 474.309 596.656C477.84 611.634 478.437 626.964 475.21 642.27C472.726 654.082 472.787 666.405 467.405 677.644C466.382 679.787 467.161 682.855 467.283 685.485C467.466 689.479 467.916 693.303 465.566 697.138C463.46 700.56 465.25 703.251 469.098 704.359C473.92 705.747 478.9 706.344 483.661 704.822C486.157 704.03 488.519 703.811 491.016 703.75" stroke="black" stroke-linecap="round" stroke-linejoin="round"/>
<path d="M976.234 732.974C979.802 738.32 980.009 744.664 981.008 750.643C984.234 770.223 985.72 790.058 988.74 809.639C990.469 820.878 994.037 832.117 1000.54 841.992C1002.12 844.391 1003.07 847.216 1004.24 849.87C1006.09 854.144 1009.05 855.508 1013.39 853.523" stroke="black" stroke-linecap="round" stroke-linejoin="round"/>
<path d="M975.625 730.54C971.144 743.763 971.521 757.815 968.782 771.307C965.141 789.243 968.343 808.081 961.549 825.493C958.419 833.518 957.774 842.894 950.042 848.641C947.911 850.224 945.889 851.064 942.723 850.699C934.346 849.737 926.614 852.562 919.624 857.201C916.361 859.357 916.921 864.678 920.866 866.237C928.708 869.354 937.049 868.039 945.183 867.954C946.669 867.941 948.41 865.847 948.3 863.265C948.13 859.125 947.18 855.302 945.183 851.698" stroke="black" stroke-linecap="round" stroke-linejoin="round"/>
<path d="M556.746 697.662C554.092 697.905 554.238 699.926 553.604 701.887C549.72 714.051 545.982 726.301 539.065 737.224C537.349 739.927 535.693 742.752 533.537 745.09C530.664 748.183 531.735 751.142 532.648 754.709C541.61 751.507 544.801 743.945 547.455 736.578C551.267 726.021 554.177 715.135 557.27 704.334C557.805 702.459 557.343 700.292 557.343 698.27" stroke="black" stroke-linecap="round" stroke-linejoin="round"/>
<path d="M417.325 600.857C417.106 610.123 419.59 619.098 420.394 628.254C421.672 642.806 424.643 657.101 427.067 671.482C428.065 677.375 429.185 683.244 430.074 689.138C430.78 693.838 429.258 694.922 424.619 693.412C421.246 692.316 417.435 691.999 414.342 693.01C410.104 694.386 405.903 694.386 402.153 693.217C394.457 690.818 386.908 692.547 379.614 693.68C369.787 695.202 360.083 694.082 350.341 694.569C346.006 694.776 344.862 691.464 344.253 687.932C343.9 685.887 345.263 683.512 343.035 681.844" stroke="black" stroke-linecap="round" stroke-linejoin="round"/>
<path d="M663.292 527.188C664.108 526.981 665.009 526.445 665.715 526.628C671.182 528.113 671.998 524.302 673.07 520.491C674.129 516.716 673.155 512.113 678.111 508.984C669.636 502.603 674.385 493.215 672.668 485.105C671.974 481.854 671.207 479.333 668.771 477.239C660.272 469.896 644.905 467.473 637.014 472.222C629.051 477.008 625.934 484.35 624.46 492.496C622.22 504.929 621.952 517.605 621.197 530.22C621.099 531.839 622.329 532.582 622.5 533.873" stroke="black" stroke-linecap="round" stroke-linejoin="round"/>
<path d="M345.48 607.554C339.075 606.336 339.818 600.772 339.538 596.583C338.674 584.004 339.879 571.414 340.561 558.847C340.707 556.254 341.657 554.939 344.263 555.219C346.71 555.487 348.147 556.522 347.977 559.456C347.416 568.784 347.136 578.123 346.686 587.463C346.43 592.759 348.926 597.898 347.343 603.304C345.602 609.295 346.552 615.445 346.467 621.557C346.333 630.495 344.872 639.445 343.593 648.346C342.473 656.054 340.865 663.664 342.424 671.494C343.727 678.033 340.561 684.048 339.684 690.319C339.222 693.631 334.253 694.727 330.881 694.484C323.721 693.96 316.415 693.436 310.168 689.15" stroke="black" stroke-linecap="round" stroke-linejoin="round"/>
<path d="M576.231 602.684C571.495 593.065 566.539 583.567 562.764 573.484C560.67 567.895 556.737 562.939 557.93 556.401C558.368 554.026 555.397 553.49 554.557 551.347C559.525 545.575 566.198 546.306 572.578 546.062C573.662 550.093 578.667 550.982 579.458 555.78C581.066 565.582 581.942 575.579 585.327 585.052C585.644 585.953 585.668 587.183 585.327 588.06C582.661 594.794 585.644 601.466 585.449 608.176C585.157 618.538 578.496 625.856 568.329 626.465C565.151 626.66 562.508 624.98 560.523 623.263C555.982 619.33 551.135 615.36 550.027 608.785C549.759 607.226 548.542 606.252 547.02 605.728" stroke="black" stroke-linecap="round" stroke-linejoin="round"/>
<path d="M354.615 512.881C362.007 508.766 362.883 508.887 370.299 515.426C370.957 509.618 374.159 503.018 378.384 502.836C385.008 502.543 386.628 497.563 390.488 494.86C393.52 492.729 394.153 486.494 391.718 483.998C385.897 478.044 380.052 472.102 371.054 471.127C368.521 470.847 366.366 470.482 363.638 471.505C361.179 472.43 358.293 473.563 355.212 473.051C342.013 470.872 328.91 489.782 336.411 504.017C339.882 510.592 339.882 518.154 343.048 524.754" stroke="black" stroke-linecap="round" stroke-linejoin="round"/>
<path d="M707.737 522.927C705.533 513.38 703.438 509.947 693.746 510.835C689.922 511.189 686.403 512.893 684.053 515.536C683.773 518.361 686.111 519.213 686.428 521.088C686.074 526.227 679.316 522.099 678.403 527.152C684.516 528.175 690.641 529.234 696.778 530.209C700.199 530.744 701.186 527.286 703.39 525.837C709.588 521.794 709.722 521.746 714.47 527.749C717.685 531.791 721.131 535.7 724.821 539.305C731.238 545.576 733.235 553.99 736.255 561.904C736.644 562.939 737.107 564.827 734.355 565.801C730.629 564.072 728.315 559.652 724.236 557.484C722.41 556.51 720.193 554.964 718.732 555.353C708.443 558.142 702.002 550.641 694.379 546.562C690.068 544.248 687.316 539.146 681.545 539.353C678.22 532.936 671.328 535.481 666.287 533.35C661.307 531.244 655.34 534.434 650.494 530.83C645.477 535.554 639.218 533.289 633.483 534.142C631.608 534.422 630.269 534.251 628.564 533.935C619.139 532.181 599.401 546.586 598.816 555.792C598.427 561.88 598.293 567.968 597.745 574.069C597.16 580.62 595.711 587.013 595.114 593.54C594.031 605.302 594.725 617.54 591.571 628.718C588.649 639.08 588.064 649.345 589.501 659.221C590.767 667.927 586.554 675.026 586.566 683.038C586.579 689.394 588.734 692.901 592.667 692.78C597.696 692.621 600.302 688.92 599.973 682.429C599.949 681.821 599.973 681.212 599.973 680.603" stroke="black" stroke-linecap="round" stroke-linejoin="round"/>
<path d="M468.164 711.665C466.447 716.45 466.52 721.272 467.178 726.289C469.613 744.761 467.957 763.099 463.452 781.036C460.322 793.505 458.459 806.107 457.692 818.832C457.217 826.71 455.257 833.408 449.595 838.911C448.974 839.508 448.34 840.105 447.768 840.738C442.629 846.51 442.751 849.286 448.377 855.35" stroke="black" stroke-linecap="round" stroke-linejoin="round"/>
<path d="M615.804 664.785C613.161 677.778 609.764 690.661 608.12 703.775C606.732 714.831 606.598 726.083 605.648 737.249C604.784 747.428 602.994 757.474 602.36 767.666C601.252 785.395 597.137 802.82 596.93 820.635" stroke="black" stroke-linecap="round" stroke-linejoin="round"/>
<path d="M446.545 600.856C440.919 608.625 433.516 604.424 427.111 603.048C420.986 601.733 415.263 598.482 409.406 595.961C402.222 592.868 401.26 592.82 396.669 599.054C388.024 610.78 377.832 620.644 364.973 627.669C363.208 628.631 361.686 630.032 360.103 631.31C359.543 631.761 359.153 632.418 358.41 633.307C362.319 636.948 366.788 635.036 369.722 633.526C384.395 625.965 397.327 616.369 402.672 599.627C403.16 598.092 403.111 596.388 403.318 594.768" stroke="black" stroke-linecap="round" stroke-linejoin="round"/>
<path d="M834.983 569.198C830.782 570.464 832.243 574.75 831.671 577.185C829.93 584.686 829.65 592.528 828.907 600.248C827.738 612.522 830.855 624.285 833.071 636.182C834.91 646.02 836.395 655.969 836.761 666.002C836.956 671.153 832.036 675.951 827.08 675.037C818.764 673.515 810.435 674.063 802.106 673.929C798.453 673.868 794.788 674.148 791.147 673.881C774.051 672.602 774.026 672.992 773.637 656.261C773.345 643.281 773.345 630.264 775.11 617.271C776.023 610.525 774.538 603.487 774.806 596.607C775.074 589.703 775.914 582.848 775.378 575.895C774.854 569.015 774.903 562.099 774.696 555.194" stroke="black" stroke-linecap="round" stroke-linejoin="round"/>
<path d="M1035.9 540.583C1042 538.342 1048.4 538.306 1054.77 538.172C1058.96 538.087 1061.71 539.426 1062.8 544.211C1065.4 555.743 1068.31 567.177 1072.25 578.391C1075 586.245 1071.06 590.105 1060.24 591.043C1051.87 591.761 1043.57 590.58 1035.28 589.338C1029.63 588.486 1023.92 588.072 1018.24 587.463" stroke="black" stroke-linecap="round" stroke-linejoin="round"/>
<path d="M719.306 580.157C716.079 590.763 717.163 601.71 717.686 612.413C718.368 626.441 719.415 640.505 721.595 654.459C722.191 658.246 723.677 662.009 722.995 666.015C722.715 667.659 723.945 668.243 725.309 669.169C731.665 673.443 738.995 673.504 746.094 674.502C754.715 675.708 763.081 672.566 771.665 672.603C772.469 672.603 773.285 671.093 774.101 670.277" stroke="black" stroke-linecap="round" stroke-linejoin="round"/>
<path d="M961.015 537.539C953.502 547.584 944.588 555.463 931.815 558.361C926.202 559.639 924.18 563.852 923.815 569.795C922.975 583.859 926.798 597.411 927.809 611.22C928.515 620.839 933.824 626.221 940.375 631.202C946.658 635.987 952.576 641.357 961.624 641.333C965.715 641.333 969.039 637.436 973.191 639.811" stroke="black" stroke-linecap="round" stroke-linejoin="round"/>
<path d="M173.788 552.759C173.959 555.195 174.519 557.386 174.02 560.102C171.56 573.35 170.05 586.684 172.473 600.261C174.592 612.145 175.749 624.2 177.49 636.157C178.075 640.164 178.671 644.255 181.094 647.737" stroke="black" stroke-linecap="round" stroke-linejoin="round"/>
<path d="M729.656 580.157C735.647 584.748 734.052 591.859 734.941 597.838C737.949 617.99 737.559 638.362 737.742 658.697C737.79 664.59 735.221 669.948 735.732 675.744" stroke="black" stroke-linecap="round" stroke-linejoin="round"/>
<path d="M537.264 522.317C533.672 523.742 535.438 520.345 535.559 519.919C537.495 512.868 536.412 505.684 536.68 498.573C536.728 497.355 537.106 496.15 537.313 494.981C523.31 480.296 505.678 484.764 497.69 503.456C493.83 512.479 491.066 521.867 489.263 531.474C488.484 535.663 486.658 539.158 484.21 542.348C482.883 544.089 481.775 545.66 481.86 547.888" stroke="black" stroke-linecap="round" stroke-linejoin="round"/>
<path d="M849.599 543.627C844.436 538.598 841.002 532.303 838.189 525.898C834.512 517.532 828.849 513.405 819.814 511.724C810.037 509.91 800.088 507.255 793.001 499.109C793.708 496.966 795.144 496.783 797.251 497.283C800.125 497.977 802 496.272 802.67 493.678C803.985 488.601 805.19 483.535 808.137 479.042C809.099 477.569 807.297 476.241 807.017 474.804C806.298 471.078 805.373 467.596 809.939 464.929C814.384 462.323 815.516 452.765 811.753 448.722C802.974 439.322 792.989 432.271 778.962 436.423C778.219 436.643 777.269 436.679 776.551 436.423C768.709 433.598 763.656 438.457 758.967 443.23C754.426 447.857 754.353 454.055 754.596 460.205C754.925 468.399 758.054 475.998 759.552 483.937C759.929 485.958 761.573 487.091 763.753 486.981C766.602 486.823 769.439 486.348 772.277 486.445C775.528 486.567 775.613 484.12 776.575 482.135C778.073 479.091 778.012 474.5 783.236 474.804" stroke="black" stroke-linecap="round" stroke-linejoin="round"/>
<path d="M926.309 564.936C928.366 573.046 929.791 581.277 932.166 589.362C935.551 600.882 940.494 611.914 942.357 623.969C943.222 629.57 948.909 631.835 953.657 634.453C957.566 636.62 962.096 636.45 965.895 638.605" stroke="black" stroke-linecap="round" stroke-linejoin="round"/>
<path d="M931.79 694.618C927.796 705.017 926.384 715.89 927.078 726.874C927.504 733.656 929.087 740.378 930.719 747.087C932.07 752.615 929.952 759.361 928.466 765.169C925.629 776.262 925.726 787.599 923.924 798.728C923.096 803.794 922.11 808.908 921.659 813.961C920.929 822.083 920.149 830.899 929.939 835.295C931.79 836.123 933.385 837.511 934.287 839.399C930.999 844.842 926.713 845.816 920.819 842.552C920.527 840.507 922.889 839.971 923.535 838.376C917.02 836.367 912.819 839.143 913.586 844.975C914.159 849.371 913.282 854.498 918.396 857.164" stroke="black" stroke-linecap="round" stroke-linejoin="round"/>
<path d="M183.531 649.868C186.466 645.107 187.184 639.627 187.659 634.33C188.597 623.992 192.079 614.982 199.385 607.578C200.847 606.093 200.627 604.388 200.554 602.683C200.116 591.931 201.455 581.143 199.458 570.391C198.338 564.339 200.956 562.013 207.276 561.855C211.757 561.745 216.226 562.305 220.719 560.808C223.52 559.87 226.381 560.832 226.162 564.923C226.089 566.336 226.028 567.773 226.162 569.185C227.039 577.782 226.052 578.926 217.614 578.926H210.612V587.56C214.996 587.012 219.002 585.855 223.093 586.233C223.495 586.269 224.08 586.415 224.287 586.208C227.915 582.506 232.908 579.462 234.393 574.579C235.891 569.623 233.687 564.948 229.973 560.515C222.399 551.468 212.767 553.709 203.647 554.829C197.705 555.559 192.372 568.771 193.114 575.298C194.137 584.357 194.076 593.551 194.49 602.683C194.588 604.863 193.845 607.298 196.317 608.772" stroke="black" stroke-linecap="round" stroke-linejoin="round"/>
<path d="M468.465 728.713C472.666 732.914 472.739 738.759 474.602 743.909C477.622 752.275 480.142 760.75 482.115 769.444C482.614 771.66 482.955 773.487 482.042 776.251C477.366 770.296 475.332 763.55 473.275 756.744C472.337 753.626 472.629 749.949 469.683 747.599" stroke="black" stroke-linecap="round" stroke-linejoin="round"/>
<path d="M531.178 496.138C526.003 489.209 517.443 490.415 511.756 494.993C503.939 501.301 501.248 510.312 500.14 519.882C498.873 530.963 496.389 541.35 485.516 547.28" stroke="black" stroke-linecap="round" stroke-linejoin="round"/>
<path d="M980.493 601.467C979.068 592.736 977.546 584.03 976.304 575.274C976 573.107 976.158 571.134 973.187 571.658C970.544 572.121 968.499 573.241 968.913 576.504C969.169 578.526 968.986 580.669 969.595 582.568C971.141 587.366 971.263 592.237 971.446 597.205C971.653 603.257 973.467 604.377 979.263 602.66C986.886 600.407 994.216 597.387 1001.19 593.552" stroke="black" stroke-linecap="round" stroke-linejoin="round"/>
<path d="M772.883 552.759C767.55 546.817 760.548 546.914 753.4 547.231C750.758 547.34 749.09 547.767 749.09 550.933C749.09 554.099 750.746 554.683 753.413 554.61C757.467 554.5 761.534 554.586 765.638 554.586C768.426 558.019 768.122 562.123 768.012 566.153C767.781 574.884 768.682 583.639 767.404 592.333C766.77 596.668 769.522 598.069 772.895 599.031" stroke="black" stroke-linecap="round" stroke-linejoin="round"/>
<path d="M551.265 647.128C527.423 646.945 503.642 647.798 480.031 651.39" stroke="black" stroke-linecap="round" stroke-linejoin="round"/>
<path d="M689.473 574.069C684.347 588.9 682.995 603.938 687.695 619.11C689.741 625.722 688.791 631.665 685.223 637.4C684.602 638.398 683.58 638.277 682.812 638.691C672.925 644.134 662.27 646.143 651.129 647.324C641.351 648.359 631.634 648.067 621.88 648.383C619.201 648.468 616.815 647.908 614.574 646.52" stroke="black" stroke-linecap="round" stroke-linejoin="round"/>
<path d="M235.283 476.046C228.501 472.698 216.202 475.815 211.027 482.816C207.959 486.969 204.562 488.893 199.362 488.953C193.408 489.026 190.79 493.8 189.097 498.597C186.552 505.794 184.604 513.197 182.303 520.479C179.819 528.309 176.543 535.639 170.856 541.886C167.642 545.417 165.474 549.91 162.832 553.965" stroke="black" stroke-linecap="round" stroke-linejoin="round"/>
<path d="M620.674 846.826C617.874 846.594 616.084 848.384 613.928 849.785C607.743 853.827 606.842 853.474 602.227 846.546C599.426 849.091 596.479 851.453 593.946 854.181C592.388 855.873 590.634 855.447 589.015 855.276C584.461 854.789 580.82 855.861 578.665 860.001C578.409 867.149 583.998 867.197 588.418 868.025C592.376 868.756 596.552 868.293 600.558 868.829C603.262 869.194 605.904 870.205 608.473 871.216C613.454 873.164 618.446 873.286 623.731 872.519C627.676 871.946 628.151 869.109 627.201 866.99C624.802 861.657 624.096 856.104 623.792 850.467C623.621 847.203 620.151 845.669 620.492 841.931C620.979 836.622 621.064 831.301 622.501 826.113" stroke="black" stroke-linecap="round" stroke-linejoin="round"/>
<path d="M940.312 631.908C938.875 650.161 934.784 667.89 930.011 685.497C928.209 692.134 929.524 693.266 936.038 694.715C946.924 697.138 958.066 694.459 968.976 696.883C971.898 697.528 972.739 694.386 972.617 691.574C972.398 686.545 973.153 681.65 975.028 676.961" stroke="black" stroke-linecap="round" stroke-linejoin="round"/>
<path d="M977.451 620.949C981.214 618.392 983.588 615.81 981.336 610.501C980.106 607.603 978.499 607.981 976.855 608.273C974.76 608.638 974.712 610.087 974.809 612.437C975.138 620.352 977.853 627.768 978.839 635.536C980.106 645.533 976.477 654.995 976.879 664.785C977.037 668.706 975.954 672.505 980.252 676.036C984.075 679.178 983.613 685.424 984.636 690.392C985.111 692.682 985.914 694.618 987.18 696.456C1000.25 695.762 1012.01 689.248 1024.93 687.933" stroke="black" stroke-linecap="round" stroke-linejoin="round"/>
<path d="M235.284 521.708H237.719C248.362 521.708 248.703 521.805 251.564 511.918C252.77 507.729 257.007 503.151 251.856 498.438C251.162 497.805 251.929 495.26 252.38 493.714C253.61 489.549 253.366 485.762 249.847 482.804C249.36 482.402 248.776 482.377 248.666 481.525C247.254 470.846 238.693 469.324 230.462 466.779C223.168 464.514 217.664 467.254 212.148 471.175C206.267 475.351 203.746 481.306 203.016 488.222" stroke="black" stroke-linecap="round" stroke-linejoin="round"/>
<path d="M867.863 534.495C872.052 538.111 869.823 542.994 870.225 547.292C871.029 555.84 871.772 564.352 869.19 572.888C867.047 579.962 862.286 582.982 855.698 580.133C851.79 578.44 847.917 576.602 844.13 574.653C833.476 569.174 827.4 560.224 826.633 548.486C826.036 539.365 825.451 530.026 828.788 521.064C829.409 519.383 830.334 518.166 831.333 516.838" stroke="black" stroke-linecap="round" stroke-linejoin="round"/>
<path d="M259.635 530.232C251.574 539.779 253.023 550.714 256.189 561.222C258.746 569.721 262.85 577.709 271.714 582.19C274.089 583.396 275.696 584.285 278.533 583.968C285.791 583.164 293.072 584.784 300.464 584.053C304.908 583.615 309.17 582.763 313.176 581.253C317.73 579.536 318.741 574.848 316.89 568.601C315.21 562.939 312.445 557.277 312.251 551.554C311.849 539.401 303.435 529.551 304.117 516.899C293.669 516.692 284.159 516.996 276.682 524.777" stroke="black" stroke-linecap="round" stroke-linejoin="round"/>
<path d="M520.217 611.207C517.027 615.53 512.911 617.441 507.42 616.747C502.707 616.138 500.832 614.02 500.649 609.38C500.467 604.899 500.065 600.43 499.2 595.925C498.251 591.042 495.767 590.92 491.602 591.176C491.602 585.636 491.602 580.156 491.602 574.665C491.602 571.45 491.663 567.298 487.925 566.993C483.212 566.616 484.917 571.657 484.515 574.092C483.87 578.013 484.576 582.19 484.954 586.232C485.112 587.864 485.709 590.153 487.353 590.385C493.319 591.213 491.894 596.059 492.796 599.639C493.1 600.832 493.185 602.074 493.429 603.292C494.671 609.429 496.363 610.866 502.549 610.549C504.997 610.427 507.408 609.636 509.867 609.417C512.083 609.222 514.348 609.38 517.076 609.38C516.662 604.899 516.248 601.051 515.968 597.204C515.651 592.893 517.027 590.165 522.044 591.115" stroke="black" stroke-linecap="round" stroke-linejoin="round"/>
<path d="M274.854 588.072C263.286 608.432 248.358 626.441 234.488 645.169C232.004 648.53 233.222 653.376 229.191 655.653" stroke="black" stroke-linecap="round" stroke-linejoin="round"/>
<path d="M268.16 600.857C269.828 605.094 266.772 607.944 265.116 611.207C257.067 627.122 245.621 640.382 232.848 652.608" stroke="black" stroke-linecap="round" stroke-linejoin="round"/>
<path d="M308.949 595.378C310.922 606.666 312.663 617.954 312.651 629.473C312.627 644.925 312.091 660.341 311.044 675.756C310.873 678.338 310.143 679.969 308.961 681.832" stroke="black" stroke-linecap="round" stroke-linejoin="round"/>
<path d="M344.566 526.579C354.356 523.766 362.917 525.264 371.185 531.9C379.343 538.439 389.024 542.543 399.678 543.578C400.798 543.687 401.456 544.114 402.113 544.844" stroke="black" stroke-linecap="round" stroke-linejoin="round"/>
<path d="M531.787 497.355C527.683 507.815 522.898 518.055 520.292 529.027C519.123 533.97 516.846 539.036 519.61 544.235" stroke="black" stroke-linecap="round" stroke-linejoin="round"/>
<path d="M1021.9 639.214C1023.32 650.173 1025.08 661.108 1025.99 672.103C1026.34 676.316 1024.88 680.688 1026.77 684.876" stroke="black" stroke-linecap="round" stroke-linejoin="round"/>
<path d="M448.375 855.959C445.562 868.05 445.55 868.135 458.116 869.292C461.343 869.584 464.351 870.753 467.894 870.218C471.535 869.67 473.155 868.269 473.946 865.091C475.127 860.379 475.346 855.118 471.913 851.916C468.32 848.567 462.975 848.166 458.129 850.504C455.024 852.001 452.028 853.73 448.984 855.35" stroke="black" stroke-linecap="round" stroke-linejoin="round"/>
<path d="M181.703 648.956C184.796 649.272 183.018 651.354 182.872 652.609C181.533 664.797 180.023 676.962 178.708 689.151C178.477 691.294 178.014 693.766 180.486 695.239" stroke="black" stroke-linecap="round" stroke-linejoin="round"/>
<path d="M402.102 546.062C391.326 559.834 391.557 577.064 402.711 591.116" stroke="black" stroke-linecap="round" stroke-linejoin="round"/>
<path d="M774.709 554.586H791.671C792.816 546.148 792.816 546.33 785.059 546.598C780.444 546.756 776.061 546.927 773.552 551.566C773.236 552.163 773.102 553.356 774.1 553.965" stroke="black" stroke-linecap="round" stroke-linejoin="round"/>
<path d="M536.657 496.746C518.258 495.687 514.227 503.578 508.76 515.669C505.375 523.158 502.379 530.829 501.783 539.353C501.344 545.636 491.128 550.811 484.285 549.118C481.289 548.376 478.318 546.878 475.152 548.497" stroke="black" stroke-linecap="round" stroke-linejoin="round"/>
<path d="M524.478 499.182C514.737 510.798 512.728 525.24 509.842 539.353C509.671 540.217 509.062 540.984 508.648 541.8" stroke="black" stroke-linecap="round" stroke-linejoin="round"/>
<path d="M1009.72 576.503C998.211 570.318 985.401 567.87 973.164 563.791C972.129 563.45 970.753 564.12 969.535 564.327" stroke="black" stroke-linecap="round" stroke-linejoin="round"/>
<path d="M275.465 585.028C279.313 594.051 277.511 603.707 278.339 613.046C278.996 620.486 280.53 627.512 283.38 634.343" stroke="black" stroke-linecap="round" stroke-linejoin="round"/>
<path d="M1016.42 591.725C1019.22 593.515 1018.26 596.462 1017.5 598.374C1012.89 610.002 1008.03 621.57 996.934 628.864" stroke="black" stroke-linecap="round" stroke-linejoin="round"/>
<path d="M934.224 736.628C936.842 751.459 942.492 764.22 957.36 770.723C953.256 775.179 949.031 772.184 945.913 769.931C940.958 766.339 937.268 761.31 934.772 755.526C933.919 753.541 933.347 751.203 931.18 750.022" stroke="black" stroke-linecap="round" stroke-linejoin="round"/>
<path d="M992.064 525.971C996.764 534.397 994.986 541.277 987.193 544.832C986.608 545.1 985.914 545.526 985.379 545.405C974.846 543.128 964.678 546.89 954.316 547.268C954.109 547.268 953.914 547.268 953.707 547.268" stroke="black" stroke-linecap="round" stroke-linejoin="round"/>
<path d="M798.453 505.27C796.834 505.477 795.19 505.928 793.582 505.842C781.564 505.209 769.607 507.498 757.673 506.865C749.783 506.451 743.524 507.912 737.387 512.966C734.818 515.084 731.749 517.361 728.413 518.616C722.13 520.99 719.451 525.788 718.684 532.059" stroke="black" stroke-linecap="round" stroke-linejoin="round"/>
<path d="M615.805 610.599C618.423 613.789 617.303 617.649 616.864 620.924C615.013 634.855 613.881 648.967 609.071 662.337C607.914 665.528 609.546 669.156 607.281 672.091" stroke="black" stroke-linecap="round" stroke-linejoin="round"/>
<path d="M864.815 533.276C869.186 533.435 867.932 529.94 867.116 528.479C863.415 521.891 865.217 513.16 858.848 507.559C858.154 506.95 859.579 504.357 859.262 502.847C857.984 496.783 852.65 493.519 845.357 494.445C844.395 494.567 843.287 494.944 842.3 494.871C839.061 494.627 836.102 494.981 835.031 498.585C833.947 502.214 836.139 504.113 839.244 505.27" stroke="black" stroke-linecap="round" stroke-linejoin="round"/>
<path d="M1016.42 588.681C1018.34 586.453 1017.43 584.517 1016.57 581.935C1013.1 571.342 1004.47 567.226 995.071 564.474C988.629 562.586 981.932 559.956 975.016 563.122" stroke="black" stroke-linecap="round" stroke-linejoin="round"/>
<path d="M680.342 539.974C673.657 552.687 678.515 567.834 689.693 572.985C696.196 575.981 704.415 576.748 712.001 577.71C717.067 578.355 722.132 579.232 727.222 579.475C738.169 579.999 741.164 575.542 736.963 565.533" stroke="black" stroke-linecap="round" stroke-linejoin="round"/>
<path d="M511.082 568.589C510.206 559.128 508.866 549.764 506.358 540.546C505.53 537.49 504.422 538.062 502.559 538.756" stroke="black" stroke-linecap="round" stroke-linejoin="round"/>
<path d="M537.871 496.138C540.306 498.171 542.924 500.022 545.141 502.263C552.264 509.435 551.728 518.409 543.959 525.362" stroke="black" stroke-linecap="round" stroke-linejoin="round"/>
<path d="M312.605 543.627C318.487 540.79 324.271 537.685 330.286 535.164C338.164 531.876 346.518 534.714 354.615 533.861C359.474 533.35 364.539 535.262 369.227 532.668" stroke="black" stroke-linecap="round" stroke-linejoin="round"/>
<path d="M387.493 499.791C388.394 503.906 391.511 506.719 393.812 510.53C389.855 513.879 389.623 519.005 389.55 523.547C389.465 529.38 386.616 530.354 382.013 530.244C379.298 530.184 376.4 529.648 374.707 532.668" stroke="black" stroke-linecap="round" stroke-linejoin="round"/>
<path d="M662.684 705.577C664.571 706.977 664.498 708.987 664.534 711.057C664.705 724.049 664.839 737.042 665.168 750.022C665.277 754.491 665.935 758.948 666.337 763.416" stroke="black" stroke-linecap="round" stroke-linejoin="round"/>
<path d="M293.121 864.482C299.002 866.101 305.054 867.307 310.729 869.487C314.966 871.118 319.313 871.203 323.587 871.63C328.19 872.092 330.297 868.987 330.272 864.47" stroke="black" stroke-linecap="round" stroke-linejoin="round"/>
<path d="M540.919 528.406C536.231 530.501 536.28 537.052 530.849 538.829C529.388 539 528.925 536.163 526.867 536.979C519.598 545.466 519.391 547.645 523.336 551.457C527.123 555.11 531.713 553.722 535.427 548.498" stroke="black" stroke-linecap="round" stroke-linejoin="round"/>
<path d="M469.684 552.15C459.407 556.729 457.787 566.653 455.048 575.895C454.378 578.172 453.44 580.364 452.637 582.592" stroke="black" stroke-linecap="round" stroke-linejoin="round"/>
<path d="M221.277 511.358C223.81 517.544 230.532 519.127 235.074 522.902C233.344 525.617 231.214 525.508 229.192 525.325C220.802 524.607 212.559 526.494 204.23 526.555C202.671 526.567 201.673 527.444 200.565 528.369C194.099 533.751 188.96 539.864 187.085 548.461C186.026 553.331 182.629 557.472 181.703 562.488" stroke="black" stroke-linecap="round" stroke-linejoin="round"/>
<path d="M662.075 496.747C657.85 504.674 656.182 512.832 658.934 521.733C660.054 525.337 664.133 527.274 663.902 531.45" stroke="black" stroke-linecap="round" stroke-linejoin="round"/>
<path d="M199.358 499.791C197.264 501.24 198.238 503.419 198.177 505.27C197.982 512.186 199.175 519.151 197.02 525.995C196.643 527.176 196.216 528.966 197.531 530.22" stroke="black" stroke-linecap="round" stroke-linejoin="round"/>
<path d="M624.33 865.091C618.789 866.394 613.553 866.552 607.794 864.811C603.934 863.642 598.539 863.009 595.105 867.527" stroke="black" stroke-linecap="round" stroke-linejoin="round"/>
<path d="M828.895 849.871C831.732 850.272 834.569 850.906 837.418 851.015C839.537 851.088 841.656 851.697 842.8 853C846.94 857.737 852.846 860.33 856.901 865.091" stroke="black" stroke-linecap="round" stroke-linejoin="round"/>
<path d="M433.153 589.289C433.092 585.746 430.864 582.726 431.083 578.927C431.205 576.771 429.451 573.557 427.576 572.4C418.505 566.847 414.109 557.374 407.473 549.812C406.182 548.351 406.377 545.234 403.32 545.453" stroke="black" stroke-linecap="round" stroke-linejoin="round"/>
<path d="M218.234 695.227C220.463 698.673 222.813 702.058 224.907 705.589C228.231 711.19 229.34 717.437 229.802 723.842" stroke="black" stroke-linecap="round" stroke-linejoin="round"/>
<path d="M696.779 863.874C695.89 866.759 699.129 871.021 693.747 872.422C685.637 874.528 679.756 872.702 676.688 866.918" stroke="black" stroke-linecap="round" stroke-linejoin="round"/>
<path d="M522.654 591.725C526.721 590.97 527.756 587.694 528.048 584.406C528.425 580.181 528.218 575.883 528.109 571.633C528.06 569.807 528.742 567.871 527.573 565.995C525.503 565.277 523.482 565.326 521.339 565.959C519.281 574.263 522.921 582.385 521.448 590.495" stroke="black" stroke-linecap="round" stroke-linejoin="round"/>
<path d="M440.459 538.147C442.882 534.713 441.262 530.841 441.603 527.176C441.676 526.409 440.934 525.52 440.447 524.753C437.573 520.235 422.121 519.797 419.15 524.144C417.384 526.713 419.064 529.051 419.807 531.377C417.104 534.603 413.609 532.217 412.002 531.182C408.178 528.734 407.314 532.485 404.891 532.436C405.39 534.628 406.181 535.261 407.57 535.103C411.271 534.677 414.035 536.272 416.763 538.683C420.124 541.654 423.777 541.873 428.367 540.241C431.825 539.011 436.185 536.807 440.142 539.961" stroke="black" stroke-linecap="round" stroke-linejoin="round"/>
<path d="M792.974 498.573C789.771 496.722 786.374 495.919 782.624 496.089C777.558 496.308 772.432 496.589 767.415 496.041C759.111 495.14 753.607 498.391 750.355 505.879" stroke="black" stroke-linecap="round" stroke-linejoin="round"/>
<path d="M203.015 489.44C202.004 494.311 201.931 499.011 202.686 504.101C203.441 509.179 206.035 511.651 209.736 513.745C213.73 516.01 216.774 512.856 220.05 511.346C222.558 510.19 222.059 507.839 221.816 505.879C221.499 503.407 220.671 500.996 220.062 498.561" stroke="black" stroke-linecap="round" stroke-linejoin="round"/>
<path d="M1053.56 537.538C1052.51 530.756 1047.05 526.567 1043.67 521.185C1041.32 517.447 1027.39 519.103 1025.6 522.939C1024.59 525.094 1027.04 526.482 1027.38 528.394" stroke="black" stroke-linecap="round" stroke-linejoin="round"/>
<path d="M938.484 738.454C941.455 742.923 944.707 747.173 948.14 751.313C951.769 755.684 956.007 758.01 961.62 757.937" stroke="black" stroke-linecap="round" stroke-linejoin="round"/>
<path d="M990.847 522.317C995.803 519.273 997.484 514.646 995.718 508.923C992.309 497.878 983.688 491.473 971.974 491.266C963.182 491.108 954.634 497.781 953.197 506.499C952.394 511.346 949.763 516.57 954.317 521.099" stroke="black" stroke-linecap="round" stroke-linejoin="round"/>
<path d="M560.4 864.482C554.579 860.038 547.833 862.704 541.514 862.132C539.541 861.949 537.459 862.85 535.438 863.264" stroke="black" stroke-linecap="round" stroke-linejoin="round"/>
<path d="M972.582 492.485C967.76 498.196 964.558 504.662 962.707 511.931C962.147 514.147 962.293 515.718 963.45 517.447" stroke="black" stroke-linecap="round" stroke-linejoin="round"/>
<path d="M991.453 543.627C992.975 546.403 995.678 545.709 998.138 546.135C1003.86 547.146 1009.62 546.915 1015.36 549.338C1019.82 551.225 1022.21 554.951 1026 557.277C1029.12 559.189 1032.14 561.673 1035.33 563.67C1040.17 566.702 1045.31 567.372 1050.86 563.718C1051.53 570.318 1055.59 574.324 1059.64 578.331" stroke="black" stroke-linecap="round" stroke-linejoin="round"/>
<path d="M294.948 515.621C292.914 506.634 289.931 505.064 280.36 508.376C278.168 509.131 276.232 510.665 274.223 511.809C275.477 518.811 275.136 519.176 266.941 519.883" stroke="black" stroke-linecap="round" stroke-linejoin="round"/>
<path d="M235.281 524.753C239.799 527.456 244.84 527.517 249.893 527.846C256.542 528.284 263.105 529.027 267.61 535.067C268.925 536.832 269.437 538.537 269.376 540.595" stroke="black" stroke-linecap="round" stroke-linejoin="round"/>
<path d="M467.859 704.968C467.859 710.46 472.194 714.783 479.379 717.863C483.993 719.848 488.84 718.923 493.43 720.189" stroke="black" stroke-linecap="round" stroke-linejoin="round"/>
<path d="M863.602 533.886C862.409 535.627 860.217 534.604 858.707 535.676C856.223 537.454 852.241 536.82 851.827 541.776C851.437 546.574 850.902 550.373 856.247 552.833C862.25 555.597 863.784 561.429 864.807 567.359" stroke="black" stroke-linecap="round" stroke-linejoin="round"/>
<path d="M1024.94 525.362C1022.53 526.969 1019.24 524.741 1016.55 527.87C1020.57 530.281 1024.7 532.522 1028.56 535.152C1032.02 537.514 1034.91 539.937 1036.19 544.759C1037.84 550.957 1041.59 556.607 1044.42 562.489" stroke="black" stroke-linecap="round" stroke-linejoin="round"/>
<path d="M272.422 521.709C278.656 525.411 278.802 532.534 281.433 538.208C283.162 541.91 284.258 545.843 287.643 548.498" stroke="black" stroke-linecap="round" stroke-linejoin="round"/>
<path d="M698.605 531.45C702.94 537.66 705.169 545.112 710.173 550.933C711.074 551.992 711.574 553.173 711.391 554.586" stroke="black" stroke-linecap="round" stroke-linejoin="round"/>
<path d="M980.496 493.702C982.42 501.106 979.229 506.756 974.481 512.04C973.348 513.294 971.449 514.549 971.972 516.838" stroke="black" stroke-linecap="round" stroke-linejoin="round"/>
<path d="M542.742 505.27C544.885 519.322 542.194 532.789 537.871 546.062" stroke="black" stroke-linecap="round" stroke-linejoin="round"/>
<path d="M234.065 476.655C227.064 481.343 219.076 482.914 210.93 483.961" stroke="black" stroke-linecap="round" stroke-linejoin="round"/>
<path d="M452.027 854.742C455.534 859.478 461.002 861.256 466.652 859.637C468.636 859.064 470.706 858.797 472.728 858.395" stroke="black" stroke-linecap="round" stroke-linejoin="round"/>
<path d="M242.588 491.876C239.203 492.302 237.486 494.506 235.805 497.307C232.846 502.226 228.426 505.343 222.496 505.879" stroke="black" stroke-linecap="round" stroke-linejoin="round"/>
<path d="M1014.59 550.324C1012.8 552.918 1012.63 555.804 1012.72 558.848C1012.84 563.183 1013.35 567.627 1010.94 571.633" stroke="black" stroke-linecap="round" stroke-linejoin="round"/>
<path d="M603.629 824.909C605.455 829.816 605.175 835.064 606.052 840.13C606.478 842.614 605.395 844.562 603.629 846.218" stroke="black" stroke-linecap="round" stroke-linejoin="round"/>
<path d="M989.018 499.791C986.218 510.64 978.218 515.961 968.318 519.273C963.934 516.107 960.927 519.553 958.029 521.782C953.828 525.021 956.543 529.222 957.834 532.595C959.039 535.76 961.645 537.977 965.907 536.369C974.382 533.167 980.665 538.366 987.192 542.397" stroke="black" stroke-linecap="round" stroke-linejoin="round"/>
<path d="M606.672 645.302C605.856 651.792 605.576 658.417 604.005 664.724C603.274 667.683 602.982 669.79 604.845 672.091" stroke="black" stroke-linecap="round" stroke-linejoin="round"/>
<path d="M1008.5 821.864C1015.16 831.386 1024.67 835.088 1035.9 835.21C1036.71 835.21 1037.52 834.455 1038.34 834.041" stroke="black" stroke-linecap="round" stroke-linejoin="round"/>
<path d="M551.874 826.735C554.967 832.214 560.495 835.928 563.345 842.516C555.99 843.137 548.83 840.884 542.133 843.782" stroke="black" stroke-linecap="round" stroke-linejoin="round"/>
<path d="M769.228 507.706C768.302 517.837 767.876 527.968 767.852 538.147C767.852 541.666 770.677 544.918 768.619 548.497" stroke="black" stroke-linecap="round" stroke-linejoin="round"/>
<path d="M763.141 490.658C768.377 491.9 773.71 490.865 778.97 491.316C782.124 491.584 785.984 490.902 786.885 495.529" stroke="black" stroke-linecap="round" stroke-linejoin="round"/>
<path d="M1010.33 598.422C1006.38 606.568 998.407 613.168 992.27 613.022C998.334 603.67 1009.61 599.932 1015.92 590.459C1010.84 587.816 1006.95 589.984 1003.02 591.725" stroke="black" stroke-linecap="round" stroke-linejoin="round"/>
<path d="M696.169 824.3C693.99 832.276 693.746 840.483 693.125 848.653" stroke="black" stroke-linecap="round" stroke-linejoin="round"/>
<path d="M1046.25 566.762C1044.68 569.733 1045.31 573.679 1042 575.919C1038.81 578.074 1035.56 579.548 1031.64 578.33" stroke="black" stroke-linecap="round" stroke-linejoin="round"/>
<path d="M466.031 681.832C461.367 683.159 457.215 681.759 452.429 678.91C450.907 684.876 450.676 690.307 453.184 695.86C454.037 697.747 455.474 698.161 456.862 697.577C459.638 696.42 462 697.662 464.509 698.271" stroke="black" stroke-linecap="round" stroke-linejoin="round"/>
<path d="M288.861 550.933C288.581 552.881 289.786 553.648 291.248 554.647C295.436 557.508 299.382 560.711 303.485 563.694C306.42 565.825 307.832 568.625 307.735 572.23" stroke="black" stroke-linecap="round" stroke-linejoin="round"/>
<path d="M679.733 826.126C678.637 834.004 679.66 842.041 677.906 849.871" stroke="black" stroke-linecap="round" stroke-linejoin="round"/>
<path d="M458.117 661.132C458.324 667.598 454.014 673.017 453.855 679.397" stroke="black" stroke-linecap="round" stroke-linejoin="round"/>
<path d="M662.684 482.134C664.157 485.032 664.486 488.332 663.743 491.23C662.818 494.871 664.218 497.538 665.728 500.399" stroke="black" stroke-linecap="round" stroke-linejoin="round"/>
<path d="M808.199 464.478C807.237 463.784 806.664 461.666 805.203 462.713C800.393 466.159 794.451 468.801 794.342 475.998C792.576 476.448 791.419 475.036 791.285 474.195C790.786 471.163 789.678 468.606 786.39 470.433C784.296 471.59 783.906 474.841 784.612 477.215C785.087 478.835 786.415 480.235 786.305 482.122" stroke="black" stroke-linecap="round" stroke-linejoin="round"/>
<path d="M605.455 673.309C608.28 679.36 605.638 684.828 603.629 690.356" stroke="black" stroke-linecap="round" stroke-linejoin="round"/>
<path d="M279.117 548.498C277.084 551.542 275.147 554.647 273.004 557.606C271.251 560.029 268.828 561.393 265.723 561.283" stroke="black" stroke-linecap="round" stroke-linejoin="round"/>
<path d="M445.329 560.674C440.836 555.888 436.038 552.016 428.891 555.194" stroke="black" stroke-linecap="round" stroke-linejoin="round"/>
<path d="M673.036 866.309C674.375 862.267 677.066 861.195 680.95 862.656C685.955 864.519 691.057 863.752 696.171 863.326C698.436 863.143 698.911 861.597 698.509 860.245C697.352 856.312 695.94 852.416 693.103 849.274C692.823 848.957 692.311 848.848 691.897 848.653C685.87 845.816 672.317 853.207 671.806 859.612C671.66 861.451 672.792 862.668 673.937 863.874" stroke="black" stroke-linecap="round" stroke-linejoin="round"/>
<path d="M959.796 496.747C959.589 500.801 959.394 504.868 959.187 508.923C959.114 510.299 958.968 511.7 960.405 512.576" stroke="black" stroke-linecap="round" stroke-linejoin="round"/>
<path d="M574.404 550.324C568.876 551.152 563.067 551.018 558.574 555.195" stroke="black" stroke-linecap="round" stroke-linejoin="round"/>
<path d="M1002.42 592.943C1003.33 590.41 1001.17 590.337 1000 590.593C995.487 591.591 991.055 592.943 986.586 594.16" stroke="black" stroke-linecap="round" stroke-linejoin="round"/>
<path d="M1037.73 565.545C1034.99 571.304 1029.51 573.715 1024.33 576.504" stroke="black" stroke-linecap="round" stroke-linejoin="round"/>
<path d="M204.23 492.485C208.042 493.739 211.025 497.051 215.189 497.307C220.961 497.66 226.477 496.418 231.628 493.703" stroke="black" stroke-linecap="round" stroke-linejoin="round"/>
<path d="M248.068 482.134C246.607 483.34 244.635 484.521 244.501 486.396C243.965 494.214 239.265 500.497 237.109 507.705" stroke="black" stroke-linecap="round" stroke-linejoin="round"/>
<path d="M671.817 496.138C663.367 499.888 663.403 508.948 659.641 515.62" stroke="black" stroke-linecap="round" stroke-linejoin="round"/>
<path d="M427.063 542.409C427.063 550.543 427.038 558.677 428.219 566.775C428.451 568.333 427.878 570.014 427.671 571.633" stroke="black" stroke-linecap="round" stroke-linejoin="round"/>
<path d="M863.6 532.668C859.338 529.113 855.076 533.959 850.729 532.473C851.301 527.664 857.073 526.97 858.924 522.683C853.505 520.492 849 522.233 844.738 525.362" stroke="black" stroke-linecap="round" stroke-linejoin="round"/>
<path d="M858.121 508.314C851.862 507.717 845.774 507.961 840.465 511.967" stroke="black" stroke-linecap="round" stroke-linejoin="round"/>
<path d="M1046.25 527.797C1040.89 529.514 1036.79 533.264 1032.25 536.321" stroke="black" stroke-linecap="round" stroke-linejoin="round"/>
<path d="M993.28 506.488C991.393 510.933 986.218 514.026 987.801 519.883" stroke="black" stroke-linecap="round" stroke-linejoin="round"/>
<path d="M535.435 523.535C534.522 528.662 529.384 531.669 528.738 536.93" stroke="black" stroke-linecap="round" stroke-linejoin="round"/>
<path d="M989.627 530.841C988.86 528.905 988.397 526.994 990.236 525.374C991.661 524.12 990.699 522.768 990.163 521.758C989.311 520.15 987.143 519.919 986.035 520.601C981.006 523.718 975.514 522.756 970.145 522.939" stroke="black" stroke-linecap="round" stroke-linejoin="round"/>
<path d="M607.281 575.896C608.694 580.34 609.327 585.101 612.761 588.681" stroke="black" stroke-linecap="round" stroke-linejoin="round"/>
<path d="M783.841 478.481C782.197 481.014 782.003 483.754 783.293 486.36C784.182 488.15 783.817 489.635 783.232 491.267" stroke="black" stroke-linecap="round" stroke-linejoin="round"/>
<path d="M174.399 545.453C173.73 549.35 172.695 552.966 169.614 555.889C167.885 557.532 166.144 559.651 166.485 562.5" stroke="black" stroke-linecap="round" stroke-linejoin="round"/>
<path d="M186.575 544.844C182.021 546.269 178.952 550.799 173.789 550.933" stroke="black" stroke-linecap="round" stroke-linejoin="round"/>
<path d="M983.54 522.926C983.236 527.992 980.131 531.206 976.234 533.885" stroke="black" stroke-linecap="round" stroke-linejoin="round"/>
<path d="M481.86 549.106C480.095 553.039 477.184 556.582 477.598 561.283" stroke="black" stroke-linecap="round" stroke-linejoin="round"/>
<path d="M833.766 501.008C831.622 500.667 829.857 501.459 828.055 503.042C828.944 503.992 829.662 505.331 830.746 505.818C835.884 508.12 839.464 511.127 840.049 517.435C840.39 521.185 842.508 524.85 844.189 528.382C845.139 530.391 844.627 532.071 844.116 533.898" stroke="black" stroke-linecap="round" stroke-linejoin="round"/>
<path d="M440.461 588.681C436.991 585.978 437.721 579.609 431.938 578.939" stroke="black" stroke-linecap="round" stroke-linejoin="round"/>
<path d="M529.956 539.365C528.933 545.174 532.33 547.986 537.274 548.364C544.543 548.912 549.572 552.833 554.309 557.642C554.991 558.337 555.588 559.14 556.744 558.86" stroke="black" stroke-linecap="round" stroke-linejoin="round"/>
<path d="M209.709 515.621C205.947 518.044 203.609 521.319 203.621 525.971" stroke="black" stroke-linecap="round" stroke-linejoin="round"/>
<path d="M298.601 551.541C294.57 550.774 290.99 548.375 286.302 550.689C283.343 552.15 281.091 548.619 279.033 546.135C276.488 543.066 273.773 539.389 268.78 541.215C266.32 542.116 264.177 543.48 264.506 546.67" stroke="black" stroke-linecap="round" stroke-linejoin="round"/>
<path d="M602.408 666.611H591.449" stroke="black" stroke-linecap="round" stroke-linejoin="round"/>
<path d="M1061.47 563.717C1058.71 559.285 1055.48 561.891 1052.34 563.109" stroke="black" stroke-linecap="round" stroke-linejoin="round"/>
<path d="M1027.98 835.259C1028.17 839.192 1032.19 838.449 1034.23 839.898C1037.73 842.37 1036.37 843.989 1034.68 846.218" stroke="black" stroke-linecap="round" stroke-linejoin="round"/>
<path d="M541.524 512.577C539.88 515.231 540.112 518.702 537.871 521.1" stroke="black" stroke-linecap="round" stroke-linejoin="round"/>
<path d="M513.52 547.889C515.261 550.775 516.832 553.819 520.217 555.195" stroke="black" stroke-linecap="round" stroke-linejoin="round"/>
<path d="M590.234 684.877C591.598 687.324 594.167 688.274 596.323 689.748" stroke="black" stroke-linecap="round" stroke-linejoin="round"/>
<path d="M763.752 487.614C763.776 491.389 758.674 492.254 758.881 496.138" stroke="black" stroke-linecap="round" stroke-linejoin="round"/>
<path d="M623.112 574.069C619.398 574.934 619.082 577.71 619.471 580.766C620.275 587.062 621.76 593.235 621.967 599.64C622.126 604.438 626.266 608.054 631.027 608.152C634.887 608.237 638.735 608.237 642.595 608.152C647.819 608.03 649.767 605.984 649.913 600.858C650.132 593.625 648.293 586.635 647.295 579.573C646.832 576.334 644.835 573.472 640.147 573.935C634.729 574.483 629.2 574.057 623.721 574.057" stroke="black" stroke-linecap="round" stroke-linejoin="round"/>
</svg>
