<svg width="1077" height="1180" viewBox="0 0 1077 1180" fill="none" xmlns="http://www.w3.org/2000/svg">
<g clip-path="url(#clip0_1019_7133)">
<path d="M535.703 979.059C531.869 981.792 530.691 987.062 526.145 989.103C521.954 988.142 527.819 979.373 519.827 981.468C519.632 982.537 519.06 983.898 519.222 985.172C519.514 987.462 517.796 988.887 516.533 988.952C512.364 989.179 509.059 991.674 505.204 992.559C504.102 992.818 502.687 993.002 501.759 992.538C494.976 989.168 487.006 988.455 480.893 983.79C476.93 980.755 474.413 976.468 473.819 971.23C473.452 968.011 472.556 964.847 472.156 961.618C471.746 958.259 469.78 958.302 467.394 958.767C464.748 966.65 465.201 974.696 464.197 982.548C463.074 991.361 465.558 999.73 466.465 1008.29C466.864 1012.04 467.955 1015.77 465.201 1019.23C463.7 1021.14 462.296 1021.32 459.909 1021.06C449.574 1019.95 443.396 1012.27 435.566 1006.43C444.303 996.933 447.295 984.729 452.123 973.4C454.034 968.918 456.464 964.674 458.602 960.289C459.618 958.216 461.238 956.013 458.181 954.188" stroke="black" stroke-width="2.15965" stroke-linecap="round" stroke-linejoin="round"/>
<path d="M520.897 575.113C519.471 572.186 520.681 569.162 522.333 567.38C527.723 561.58 532.183 554.701 540.034 551.483C545.305 549.312 550.337 546.59 556.18 546.353C557.336 546.309 557.876 545.337 558.794 545.024C561.742 543.998 564.744 542.13 567.531 545.435C567.779 545.737 568.373 545.834 568.816 545.877C575.987 546.601 581.927 550.089 588.05 553.61C595.88 558.114 600.47 564.907 603.062 572.985C605.028 579.098 606.929 585.48 606.248 592.122C606.011 594.466 606.68 596.334 608.462 597.792C616.13 604.045 623.258 610.871 629.781 618.323C630.731 619.403 631.876 620.213 632.535 621.746C633.907 624.954 633.291 626.79 629.803 626.995C623.668 627.362 618.916 624.403 615.028 620.018C611.67 616.238 608.603 612.199 605.417 608.268" stroke="black" stroke-width="2.15965" stroke-linecap="round" stroke-linejoin="round"/>
<path d="M425.066 797.156C420.217 803.701 415.983 810.742 411.544 817.503C407.063 824.339 402.829 831.575 398.369 838.52C394.675 844.265 393.865 850.605 392.915 856.933C391.694 865.044 390.431 873.155 389.686 881.341C389.016 888.642 388.433 895.791 389.135 903.178C389.675 908.88 388.886 914.874 388.886 920.609C388.886 927.661 389.102 934.865 389.664 941.993C390.193 948.721 392.321 955.266 391.932 962.048C391.543 968.841 393.314 975.191 394.87 981.714C396.921 990.246 403.045 995.895 408.261 1002.03C411.847 1006.25 418.068 1005.95 423.316 1005.88C425.422 1005.86 427.69 1006.1 429.85 1005.67" stroke="black" stroke-width="2.15965" stroke-linecap="round" stroke-linejoin="round"/>
<path d="M463.402 749.605C463.866 755.092 459.978 758.937 458.11 763.537C457.062 766.097 455.302 768.365 453.736 770.989C458.502 770.917 461.569 771.464 462.937 772.631C458.131 779.532 455.475 787.632 451.403 795.073C448.714 799.987 446.413 805.171 441.532 807.871C438.422 809.588 435.506 811.305 432.903 813.713C430.613 815.83 428.939 818.336 427.708 821.154C424.349 828.833 421.109 836.501 418.571 844.579C416.692 850.541 415.666 856.858 412.956 862.626C410.05 868.792 410.785 875.661 410.353 882.227C409.543 894.463 406.767 906.581 407.383 918.86C407.696 925.049 407.221 931.086 406.821 937.188C406.735 938.581 406.594 939.887 405.914 941.108" stroke="black" stroke-width="2.15965" stroke-linecap="round" stroke-linejoin="round"/>
<path d="M389.358 838.152C389.671 845.302 386.658 851.415 383.224 857.322C380.437 862.128 380.642 867.074 383.008 871.643C383.969 873.5 384.239 874.926 383.645 876.524C381.992 880.941 381.755 885.693 379.876 890.11C377.532 895.618 380.686 900.802 382.576 905.694C383.99 909.377 384.865 912.444 383.353 916.278C382.036 919.594 381.247 923.179 380.729 926.722C380.275 929.843 380.783 933.331 382.565 935.74C384.034 937.727 384.109 939.487 384.12 941.539C384.142 947.209 384.034 952.879 384.185 958.549C384.228 960.158 384.746 961.875 385.481 963.322C388.008 968.301 387.306 973.841 388.451 979.058C389.822 985.311 392.133 990.635 396.961 995.43C400.795 999.242 404.046 1004.25 405.547 1010.01C407.145 1016.15 409.035 1022.25 412.027 1027.91C412.459 1028.72 413.172 1029.37 413.744 1030.1" stroke="black" stroke-width="2.15965" stroke-linecap="round" stroke-linejoin="round"/>
<path d="M394.156 823.758C396.975 825.929 399.027 825.281 400.237 822.008C401.036 819.859 402.191 817.688 402.343 815.464C402.904 806.943 407.969 800.344 411.738 793.302C414.644 787.87 418.985 783.215 422.992 777.816C426.361 783.928 421.815 790.84 426.124 796.499C428.835 793.972 431.362 791.38 432.928 787.978C435.163 783.14 439.483 780.289 443.414 777.114C445.315 775.569 445.671 775.796 447.907 778.118C441.179 785.915 435.055 794.231 428.381 802.148C423.834 807.537 419.277 813.52 417.257 820.702C415.734 826.145 412.689 830.918 410.874 836.307C408.542 843.252 408.131 850.347 406.9 857.356C405.561 864.981 404.988 872.746 404.233 880.468C404.049 882.325 404.416 884.248 404.632 886.138C405.658 895.469 404.416 904.767 404.017 914.055C403.66 922.382 402.591 931.076 404.654 938.798C406.684 946.401 405.906 953.766 406.878 961.164C407.829 968.335 409.373 975.431 410.745 982.548C411.155 984.697 411.868 987.084 409.373 988.12C407.559 988.876 405.323 988.11 403.801 986.857C401.684 985.129 399.416 983.973 396.781 983.423" stroke="black" stroke-width="2.15965" stroke-linecap="round" stroke-linejoin="round"/>
<path d="M568.379 855.174C567.947 855.314 567.159 855.411 567.126 855.617C566.36 860.433 562.612 864.235 562.385 869.138C562.31 870.866 561.975 872.583 561.305 873.879C557.158 882.033 556.586 891.202 553.594 899.68C548.561 913.914 544.263 928.386 537.74 942.123C535.666 946.497 532.664 951.055 532.664 956.379" stroke="black" stroke-width="2.15965" stroke-linecap="round" stroke-linejoin="round"/>
<path d="M535.705 958.777C535.197 959.253 533.988 958.691 533.966 959.868C533.891 965.29 532.389 970.733 535.187 976.046C536.947 979.394 537.098 982.656 534.085 986.144C529.236 991.749 527.087 999.017 523.858 1005.63C520.294 1012.93 513.63 1017.05 506.535 1020.53C496.739 1025.34 486.328 1026.65 475.604 1026.64C470.809 1026.64 465.981 1026.2 461.208 1027.39C460.16 1027.65 458.972 1027.75 458.216 1028.4C452.849 1033.07 446.639 1030.29 440.764 1030.62C439.09 1030.71 438.874 1029.46 438.658 1028.77C437.038 1023.63 432.318 1023.46 428.56 1023.37C424.812 1023.28 422.652 1021.96 420.719 1019.21C417.533 1014.71 412.889 1011.9 408.569 1008.68C407.306 1007.74 406.496 1009 405.48 1008.74" stroke="black" stroke-width="2.15965" stroke-linecap="round" stroke-linejoin="round"/>
<path d="M608.441 982.113C612.643 986.498 613.226 992.492 614.273 997.87C615.343 1003.38 616.8 1008.85 617.934 1014.33C618.982 1019.41 618.896 1024.26 618.874 1029.23C618.809 1043.53 621.617 1057.49 623.626 1071.56C625.592 1085.36 627.935 1099.11 629.49 1112.97C630.138 1118.74 631.715 1124.55 633.875 1129.94C635.733 1134.55 636.888 1139.34 636.543 1143.95C636.003 1151.05 637.417 1157.92 637.72 1164.9C637.86 1168.1 637.45 1171.27 637.914 1174.52C638.314 1177.35 639.437 1178.46 641.986 1178.89C645.625 1179.48 649.243 1179.53 653.174 1178.81C653.39 1172.88 654.6 1167.1 652.699 1160.89C651.392 1156.63 651.997 1151.66 651.727 1147C651.414 1141.52 651.662 1135.97 652.159 1130.42C652.602 1125.53 651.706 1120.18 648.952 1115.61" stroke="black" stroke-width="2.15965" stroke-linecap="round" stroke-linejoin="round"/>
<path d="M395.026 995.203C394.507 1001.25 391.84 1006.76 390.598 1012.63C389.831 1016.24 389.971 1019.56 393.33 1021.3C402.11 1025.83 401.041 1033.51 399.605 1040.96C399.184 1043.14 399.583 1045.08 398.708 1047.07C404.551 1047.42 406.333 1046.1 405.825 1041.45C405.372 1037.18 404.27 1032.98 403.277 1028.79C401.408 1020.89 399.475 1012.99 399.389 1004.79C399.378 1003.57 399.086 1002.24 400.253 1001.31" stroke="black" stroke-width="2.15965" stroke-linecap="round" stroke-linejoin="round"/>
<path d="M621.512 975.57C622.095 980.808 622.117 986.176 623.38 991.241C625.54 999.935 628.467 1008.43 631.102 1017.01C633.413 1024.55 634.526 1032.29 634.072 1040.13C633.489 1050.33 634.299 1060.5 634.072 1070.67C634.018 1072.91 635.249 1074.6 636.038 1076.28C638.932 1082.46 640.984 1088.78 642.053 1095.53C642.582 1098.88 644.397 1101.94 645.639 1105.07C647.863 1110.63 647.215 1115.85 645.93 1121.29C645.531 1122.98 645.606 1124.77 645.455 1126.52" stroke="black" stroke-width="2.15965" stroke-linecap="round" stroke-linejoin="round"/>
<path d="M455.126 1031.41C456.886 1033.07 457.026 1035.25 457.361 1037.51C458.916 1047.94 457.178 1058.48 458.549 1068.94C459.068 1072.88 458.301 1076.85 457.286 1080.7C456.886 1082.21 456.249 1083.94 458.193 1084.55C459.986 1085.12 461.659 1084.51 462.545 1082.46C464.37 1078.21 466.336 1074.03 468.172 1069.79C470.019 1065.53 472.589 1062.28 477.773 1062.15C478.918 1065.76 477.708 1068.72 475.526 1071.04C473.064 1073.66 471.768 1077.05 469.695 1079.64C466.077 1084.16 464.392 1089.92 459.932 1093.81C456.551 1096.76 456.465 1101.17 455.601 1105.14C453.56 1114.55 452.004 1124.08 449.758 1133.45C449.024 1136.52 448.235 1139.46 448.073 1142.64C447.814 1147.63 447.317 1152.6 446.065 1157.5C445.492 1159.76 445.611 1162.36 447.274 1164.46" stroke="black" stroke-width="2.15965" stroke-linecap="round" stroke-linejoin="round"/>
<path d="M630.226 932.824C628.098 936.172 625.269 938.872 622.396 941.561C620.895 942.965 619.361 944.358 618.054 945.935C615.063 949.564 614.566 954.273 617.698 957.588C621.003 961.098 621.856 965.774 624.75 969.727C621.305 973.27 616.499 974.533 612.331 976.823C611.391 977.33 610.063 977.201 609.317 978.194C605.732 982.968 600.764 982.395 595.818 981.639C594.543 981.445 593.658 982.223 592.804 982.644C587.62 985.182 582.447 985.862 576.626 984.869C565.535 982.957 554.335 981.283 543.114 984.307C540.792 984.933 538.47 984.933 536.148 984.307" stroke="black" stroke-width="2.15965" stroke-linecap="round" stroke-linejoin="round"/>
<path d="M570.547 867.82C568.095 869.883 568.257 872.929 567.447 875.661C565.255 883.113 562.728 890.478 560.579 897.941C559.628 901.235 558.689 904.453 557.263 907.628C556.615 909.076 554.898 911.473 556.863 913.784C557.133 914.098 556.453 916.841 555.891 918.482C552.565 928.245 550.837 938.44 548.72 948.517C548.364 950.191 547.727 952.21 546.517 953.225C543.526 955.731 542.618 959.306 540.934 962.481" stroke="black" stroke-width="2.15965" stroke-linecap="round" stroke-linejoin="round"/>
<path d="M518.285 881.342C522.033 884.917 522.043 889.938 522.972 894.453C524.841 903.503 523.836 912.748 523.987 921.917C524.02 923.764 523.167 925.34 522.961 927.133C521.666 938.106 523.145 948.074 531.774 955.958C532.757 956.854 533.535 957.977 534.399 958.993" stroke="black" stroke-width="2.15965" stroke-linecap="round" stroke-linejoin="round"/>
<path d="M598.859 710.781C600.339 708.621 602.315 707.681 604.961 708.145C607.262 708.545 609.724 708.664 611.873 709.247C614.044 709.841 615.902 711.537 617.37 714.15C622.727 723.708 626.291 733.773 629.067 744.325C631.313 752.867 632.846 761.561 635.06 770.093C637.782 780.58 638.398 791.261 637.523 801.942C636.864 809.934 639.305 817.375 640.072 825.086C640.406 828.509 642.156 830.939 643.15 833.844C644.705 838.391 645.45 843.359 644.931 848.176C644.446 852.69 644.327 856.427 648.441 859.645C651.53 862.064 653.129 865.693 652.524 870.013C652.297 871.655 651.66 872.832 650.267 872.994C644.759 873.642 641.497 877.757 637.674 880.953C635.222 883.005 633.084 885.403 629.823 886.256C627.76 884.01 629.607 882.422 630.697 880.932C635.147 874.841 639.553 868.739 643.452 862.248C644.338 860.768 644.068 858.9 645.471 857.788" stroke="black" stroke-width="2.15965" stroke-linecap="round" stroke-linejoin="round"/>
<path d="M525.252 1030.1C522.962 1029.8 523.653 1027.99 523.48 1026.61C530.209 1026.78 535.047 1030.75 538.017 1037.02C539.853 1040.9 541.883 1044.86 545.674 1047.63C550.858 1051.42 551.614 1057.4 552.251 1063.26C553.796 1077.54 555.459 1091.8 557.187 1106.05C558.234 1114.73 560.254 1123.17 561.733 1131.7C562.867 1138.25 565.125 1144.75 566.129 1151.4C567.522 1160.65 570.568 1169.55 571.41 1178.88C571.432 1179.16 571.14 1179.46 571 1179.75" stroke="black" stroke-width="2.15965" stroke-linecap="round" stroke-linejoin="round"/>
<path d="M466.013 907.954C462.773 913.333 457.967 917.329 453.896 921.983C449.965 926.465 447.783 931.8 448.561 938.064C449.543 945.97 443.215 956.694 435.968 959.891C434.229 960.657 432.447 960.366 430.741 960.247C427.155 960.009 424.347 961.079 422.188 964.437C424.175 966.036 426.151 968.185 428.538 968.001C432.361 967.71 436.368 966.997 439.824 965.42C447.826 961.77 451.174 954.534 452.978 946.348C453.529 943.853 453.712 941.131 455.937 939.447C460.775 940.883 465.495 942.87 470.398 943.55C474.588 944.134 478.595 945.419 482.613 946.045C490.356 947.255 497.959 945.484 502.96 938.431C504.05 936.898 504.212 934.705 504.774 932.815C507.193 924.554 507.528 915.968 508.802 907.533C509.191 904.974 508.295 901.885 512.474 900.189C515.066 899.142 513.533 894.627 512.55 891.83C511.481 888.785 508.597 890.253 506.513 890.189C505.649 890.156 504.752 891.485 503.64 892.37C505.854 896.42 505.281 900.07 502.247 903.656C500.832 905.33 499.104 906.237 497.387 906.086C493.024 905.708 489.222 909.639 484.751 907.511" stroke="black" stroke-width="2.15965" stroke-linecap="round" stroke-linejoin="round"/>
<path d="M520.469 746.549C517.877 750.07 517.229 754.173 517.466 758.321C518.222 771.453 516.678 784.348 511.073 796.163C508.027 802.578 507.649 808.929 507.509 815.473C507.369 822.169 505.738 828.573 504.679 835.086C504.463 836.425 504.593 837.732 504.355 839.028" stroke="black" stroke-width="2.15965" stroke-linecap="round" stroke-linejoin="round"/>
<path d="M568.807 828.995C567.663 827.882 567.922 826.435 567.943 825.064C568.073 815.614 568.105 806.153 568.429 796.714C568.559 792.815 567.63 789.057 566.885 785.407C565.287 777.577 565.027 769.704 564.217 761.842C563.742 757.208 564.412 752.392 562.738 747.845C561.744 745.156 562.986 742.618 563.375 739.972C564.077 735.209 564.487 730.382 565.297 725.597C565.665 723.437 565.168 721.256 566.043 718.999C566.658 717.4 566.755 715.1 565.319 713.383C561.733 714.322 559.465 716.925 559.217 720.36C558.936 724.291 558.256 728.233 558.429 732.131C558.785 740.231 556.841 748.093 556.452 756.118C556.139 762.652 554.962 769.153 554.714 775.752C554.606 778.765 553.871 782.156 552.834 784.802C551.063 789.338 552.251 794.014 550.761 798.518C550.016 800.786 550.782 804.458 552.748 806.661C556.161 810.506 555.902 815.344 557.014 819.815C557.219 820.657 556.841 821.867 557.305 822.375C562.057 827.613 561.193 834.751 563.71 840.68C564.293 842.063 563.785 845.238 567.058 844.665" stroke="black" stroke-width="2.15965" stroke-linecap="round" stroke-linejoin="round"/>
<path d="M614.977 710.337C613.746 698.738 609.501 689.137 598.928 682.754C590.04 677.387 582.005 677.559 572.155 681.145C560.934 685.238 554.411 693.608 547.046 701.621C539.734 709.57 532.498 717.583 525.273 725.619C522.584 728.61 520.035 731.71 517.422 734.766" stroke="black" stroke-width="2.15965" stroke-linecap="round" stroke-linejoin="round"/>
<path d="M544.421 1047.98C543.266 1051.7 544.259 1055.54 543.741 1059.35C543.298 1062.57 542.607 1065.6 541.332 1068.47C538.503 1074.84 536.127 1081.36 534.431 1088.13C533.935 1090.11 533.373 1092.24 533.611 1094.22C534.593 1102.33 533.287 1110.24 532.293 1118.22C531.278 1126.34 530.878 1134.51 530.025 1142.64C529.129 1151.24 527.822 1159.78 527.098 1168.39C526.807 1171.83 528.232 1175.31 527.876 1178.85" stroke="black" stroke-width="2.15965" stroke-linecap="round" stroke-linejoin="round"/>
<path d="M570.988 682.418C569.617 685.399 566.895 686.986 564.519 689.038C559.141 693.682 554.734 699.298 550.036 704.633C546.03 709.18 541.451 713.219 537.498 717.798C531.687 724.537 525.002 730.596 520.898 738.696" stroke="black" stroke-width="2.15965" stroke-linecap="round" stroke-linejoin="round"/>
<path d="M590.147 599.543C592.901 599.835 596.303 599.219 598.279 600.612C601.854 603.129 605.86 605.699 604.716 611.79C603.765 616.844 604.219 622.244 604.597 627.45C605.04 633.498 603.344 638.887 600.569 644.017C598.106 648.563 596.994 653.531 595.881 658.445C594.434 664.893 589.812 666.934 584.984 662.279C573.342 651.069 560.836 640.625 552.207 626.607C551.364 625.247 549.928 624.253 548.762 623.087" stroke="black" stroke-width="2.15965" stroke-linecap="round" stroke-linejoin="round"/>
<path d="M479.956 777.953C477.969 779.519 477.602 782.025 476.392 784.012C470.83 793.084 466.899 802.976 462.05 812.394C459.188 817.956 456.445 823.215 458.464 829.911C459.328 832.784 458.853 836.056 456.088 838.67C452.967 841.618 453.486 846.143 453.129 849.945C452.589 855.798 449.436 859.859 445.483 863.369C442.07 866.393 437.988 868.661 434.24 871.318C431.011 873.596 427.922 876.037 425.762 879.925C428.689 881.556 431.659 882.96 435.104 882.625C438.776 882.279 441.822 883.338 444.306 886.243C441.854 891.999 436.39 893.522 431.152 894.732C426.713 895.758 424.067 897.81 423.246 902.378C424.736 904.797 427.296 904.959 429.424 904.376C438.69 901.838 448.075 903.469 457.309 903.922C461.586 904.138 466.586 905.704 470.387 908.825" stroke="black" stroke-width="2.15965" stroke-linecap="round" stroke-linejoin="round"/>
<path d="M660.71 930.199C659.986 933.839 659.155 937.457 658.582 941.118C658.388 942.371 658.323 944.293 659.047 944.941C662.632 948.127 663.626 953.03 666.844 956.335C670.603 960.212 672.601 964.931 674.199 969.899C676.1 975.807 673.443 981.606 673.616 987.341C673.832 994.685 668.734 997.471 664.533 1001.2C663.583 1002.04 662.006 1002.78 659.803 1002.56C657.211 1002.29 654.068 1002.26 651.023 1003.7C647.124 1005.56 646.292 1001.6 645.148 998.152C646.011 997.288 646.919 996.046 648.117 995.257C650.223 993.875 653.474 993.27 653.615 990.408C653.82 986.337 653.388 982.211 650.742 978.604C647.426 974.068 645.029 968.981 642.869 963.797C641.292 960.028 641.368 956.367 643.636 952.846C649.241 955.384 655.073 953.505 660.732 954.11C661.39 954.186 662.179 953.03 662.902 952.458" stroke="black" stroke-width="2.15965" stroke-linecap="round" stroke-linejoin="round"/>
<path d="M520.465 616.119C512.311 615.654 505.755 620.223 498.714 623.16C493.476 625.342 488.335 627.664 482.568 627.88C478.162 628.042 474.911 632.686 477.006 636.563C478.421 639.176 478.205 640.872 476.563 643.226C474.954 645.537 474.123 648.389 472.902 651.132C474.641 653.961 476.823 653.745 479.058 651.855C480.246 650.84 481.315 649.857 483.011 650.149" stroke="black" stroke-width="2.15965" stroke-linecap="round" stroke-linejoin="round"/>
<path d="M435.525 760.514C429.596 763.008 424.347 766.67 418.99 770.136C416.323 771.864 415.642 775.147 413.839 777.599C409.94 782.902 407.024 788.863 404.67 795.008C402.607 800.376 400.307 805.592 397.747 810.744C395.62 815.031 394.194 819.805 393.784 824.654C393.406 829.147 391.84 833.207 390.23 837.3" stroke="black" stroke-width="2.15965" stroke-linecap="round" stroke-linejoin="round"/>
<path d="M478.219 641.857C481.21 644.33 484.504 643.898 487.798 642.71C495.833 639.805 502.626 634.146 510.91 631.91C515.975 630.539 521.137 628.562 526.71 630.096C526.148 635.463 521.796 637.321 518.621 639.524C511.461 644.492 503.566 648.261 495.228 651.091C491.319 652.43 487.15 652.894 483.403 654.86C481.955 655.616 480.552 654.395 479.526 653.197" stroke="black" stroke-width="2.15965" stroke-linecap="round" stroke-linejoin="round"/>
<path d="M503.035 938.926C505.54 949.531 505.476 949.207 495.216 951.68C491.544 952.566 488.325 954.629 484.362 955.374C479.329 956.324 474.545 955.622 469.976 954.812C464.004 953.743 458.01 953.711 452.07 952.879" stroke="black" stroke-width="2.15965" stroke-linecap="round" stroke-linejoin="round"/>
<path d="M472.994 652.32C469.754 656.295 468.857 660.658 469.354 665.863C469.905 671.695 468.036 677.246 464.3 681.998C462.496 684.277 460.617 686.523 459.094 688.986C453.262 698.425 458.025 713.577 466.503 716.32C469.851 717.4 473.307 718.113 476.482 719.722" stroke="black" stroke-width="2.15965" stroke-linecap="round" stroke-linejoin="round"/>
<path d="M597.123 807.623C596.799 810.247 595.373 812.44 593.591 814.114C586.669 820.615 581.679 828.661 575.718 835.919C572.575 839.731 573.504 844.602 571.517 848.662C571.02 849.688 570.966 850.833 569.691 851.244" stroke="black" stroke-width="2.15965" stroke-linecap="round" stroke-linejoin="round"/>
<path d="M503.033 663.229C503.055 664.957 501.867 666.08 500.83 667.128C492.795 675.174 486.671 684.321 482.308 694.97C480.429 699.538 477.178 704.657 470.461 704.798C468.225 702.854 468.7 700.003 469.532 697.27C471.832 689.764 476.001 683.609 482.038 678.392C487.103 674.008 491.521 668.824 497.396 665.454C506.586 660.184 515.291 653.823 525.702 651.101C533.532 649.049 541.545 647.537 549.634 650.151C556.892 652.494 564.193 654.676 571.396 657.171C577.044 659.125 578.643 661.372 578.384 665.854" stroke="black" stroke-width="2.15965" stroke-linecap="round" stroke-linejoin="round"/>
<path d="M554.877 913.191C552.361 916.097 550.341 919.239 550.093 923.224C550.071 923.516 550.211 923.883 550.071 924.088C544.434 932.458 544.099 942.934 539.185 951.574C538.083 953.518 538.18 955.969 536.582 957.687" stroke="black" stroke-width="2.15965" stroke-linecap="round" stroke-linejoin="round"/>
<path d="M439.015 816.781C429.511 821.782 424.857 830.864 426.865 840.768C427.157 842.226 426.325 843.219 425.861 844.224C424.176 847.896 426.163 852.032 424.09 855.563C428.377 857.237 428.658 857.086 429.004 852.993" stroke="black" stroke-width="2.15965" stroke-linecap="round" stroke-linejoin="round"/>
<path d="M462.97 1150.06C461.955 1148.1 463.143 1145.99 463.975 1144.93C469.612 1137.75 474.267 1129.82 480.369 1123C482.226 1120.93 483.749 1118.54 485.661 1116.52C486.611 1115.53 487.248 1113.71 489.559 1114.64C491.838 1115.56 492.011 1117.11 492.173 1119.09C492.519 1123.37 490.78 1127.11 488.123 1129.91C480.542 1137.9 472.895 1145.82 462.592 1150.67C458.445 1152.62 455.94 1156.88 455.551 1161.85" stroke="black" stroke-width="2.15965" stroke-linecap="round" stroke-linejoin="round"/>
<path d="M479.955 785.807C478.595 786.973 478.022 788.561 477.299 790.148C472.136 801.661 466.963 813.173 460.786 824.189C460.321 825.01 460.159 826.068 459.047 826.371" stroke="black" stroke-width="2.15965" stroke-linecap="round" stroke-linejoin="round"/>
<path d="M521.773 850.152C523.577 847.679 522.281 844.752 523.005 842.063C524.203 837.678 526.741 834.924 531.342 835.227C535.392 835.497 537.217 834.104 538.492 830.356C539.075 828.628 540.22 826.997 540.587 824.989C537.293 822.98 535.662 825.928 533.459 827.235C530.899 826.436 532.044 823.433 530.478 822.008" stroke="black" stroke-width="2.15965" stroke-linecap="round" stroke-linejoin="round"/>
<path d="M521.774 850.811C521.299 851.815 520.478 852.549 520.392 853.856C520.273 855.627 520.057 857.69 519.085 859.04C514.992 864.678 513.232 871.697 508.631 876.914C505.758 880.175 505.175 884.236 503.523 887.908C502.972 889.118 503.922 890.251 504.354 891.385" stroke="black" stroke-width="2.15965" stroke-linecap="round" stroke-linejoin="round"/>
<path d="M522.638 850.811C524.657 853.629 522.951 856.632 523.037 859.537C523.199 864.688 522.519 869.786 521.309 874.797C521.126 875.553 520.942 876.471 520.424 876.946C516.396 880.694 514.03 885.435 512.184 890.5" stroke="black" stroke-width="2.15965" stroke-linecap="round" stroke-linejoin="round"/>
<path d="M496.502 843.391C492.074 847.981 485.907 849.233 480.356 851.609C478.412 852.441 476.188 851.512 474.308 850.756C470.345 849.147 466.003 850.81 462.083 849.093C460.69 848.477 459.07 848.272 458.605 846.458" stroke="black" stroke-width="2.15965" stroke-linecap="round" stroke-linejoin="round"/>
<path d="M476.469 747.424C482.355 752.349 484.612 758.396 481.642 765.73C480.011 769.758 480.562 774.035 480.67 777.955C480.864 785.277 482.149 792.664 484.32 799.771C484.72 801.088 484.957 802.525 485.659 803.68C490.595 811.791 489.321 820.571 487.528 828.941C486.621 833.196 482.765 836.782 481.264 841.209" stroke="black" stroke-width="2.15965" stroke-linecap="round" stroke-linejoin="round"/>
<path d="M461.662 714.699C459.438 717.118 460.777 720.283 460.183 723.047C458.865 729.214 455.399 733.059 450.906 737.098C442.914 744.28 432.935 748.751 425.505 756.57C424.187 757.953 422.697 759.194 422.902 761.376" stroke="black" stroke-width="2.15965" stroke-linecap="round" stroke-linejoin="round"/>
<path d="M520.026 739.572C519.518 743.935 521.387 747.845 522.737 751.754C524.605 757.187 525.07 762.705 525.307 768.365C525.826 780.882 524.108 793.366 524.789 805.883C524.864 807.352 524.983 808.788 525.728 810.009C527.899 813.583 527.996 814.404 528.374 817.212C528.86 820.884 526.56 822.677 524.562 825.204C521.462 829.103 518.125 832.429 513.967 835.14C505.025 840.993 495.327 842.819 484.754 842.214C476.837 841.76 469.364 839.492 461.664 838.261C460.368 838.056 460.033 836.382 458.629 836.857" stroke="black" stroke-width="2.15965" stroke-linecap="round" stroke-linejoin="round"/>
<path d="M479.523 855.174C476.207 857.69 475.894 861.783 474.295 865.207C472.017 870.099 469.608 874.916 467.578 879.97C465.342 885.554 465.623 890.964 465.926 896.624C466.055 899.01 467.362 900.263 469.047 899.982C473.14 899.313 477.201 899.885 481.261 899.637C481.715 899.604 482.136 899.086 482.568 898.805" stroke="black" stroke-width="2.15965" stroke-linecap="round" stroke-linejoin="round"/>
<path d="M597.987 710.338C599.563 711.493 598.915 712.282 597.555 712.962C594.066 714.701 590.621 716.537 587.09 718.179C578.007 722.401 570.285 728.276 564.453 736.517" stroke="black" stroke-width="2.15965" stroke-linecap="round" stroke-linejoin="round"/>
<path d="M614.976 952.017C612.654 954.188 609.436 954.058 607.232 953.097C604.748 952.017 603.388 953.162 601.454 953.68C597.772 954.674 594.024 956.412 590.147 954.199C588.484 953.248 586.669 953.885 584.92 953.777C582.868 953.659 580.643 954.231 579.65 951.963C574.984 953.313 574.682 960.851 568.191 958.972C568.72 956.261 570.621 954.296 571.884 952.028C573.429 949.252 574.887 946.563 575.47 943.312C575.859 941.174 575.61 939.522 573.98 938.582C572.435 937.686 571.01 939.262 570.167 940.288C566.301 945.019 563.309 950.289 560.933 955.937C558.795 961.035 551.386 964.242 546.148 962.493" stroke="black" stroke-width="2.15965" stroke-linecap="round" stroke-linejoin="round"/>
<path d="M588.409 887.887C585.817 894.777 586.8 901.635 588.884 908.374C590.353 913.126 597.265 917.003 602.762 917.64C614.491 919.001 624.07 914.065 633.228 907.899C640.313 903.136 645 896.062 649.817 889.194" stroke="black" stroke-width="2.15965" stroke-linecap="round" stroke-linejoin="round"/>
<path d="M510.013 838.152C510.725 839.319 510.833 840.561 509.991 841.63C505.649 847.159 502.593 853.52 498.338 859.169C489.32 871.146 480.842 883.544 472.073 895.715C471.263 896.839 470.766 897.897 470.798 899.236" stroke="black" stroke-width="2.15965" stroke-linecap="round" stroke-linejoin="round"/>
<path d="M441.629 808.496C440.506 815.181 438.897 821.693 435.559 827.709C431.347 835.28 429.522 843.542 429.004 852.127" stroke="black" stroke-width="2.15965" stroke-linecap="round" stroke-linejoin="round"/>
<path d="M496.071 863.898C497.249 866.404 495.92 868.445 494.743 870.432C489.818 878.781 486.848 887.906 483.781 897.022C482.798 899.948 484.861 902.13 484.451 904.927C483.781 909.463 482.669 910.456 478.252 908.34C476.081 907.303 474.504 909.452 472.56 908.837C469.536 907.865 470.476 910.824 469.461 911.839C465.227 916.105 465.13 921.31 465.594 926.721" stroke="black" stroke-width="2.15965" stroke-linecap="round" stroke-linejoin="round"/>
<path d="M445.117 969.469C444.491 980.398 440.02 989.664 432.946 997.84C430.473 1000.7 427.449 1002.21 423.723 1002.63C424.036 1003.51 424.338 1004.37 424.651 1005.24" stroke="black" stroke-width="2.15965" stroke-linecap="round" stroke-linejoin="round"/>
<path d="M600.602 889.193C599.296 889.193 597.643 889.69 596.758 889.085C595.17 888.005 593.334 887.444 592.47 888.848C591.476 890.489 590.828 892.747 591.887 894.863C594.522 900.112 600.462 902.693 606.683 900.911C610.031 899.95 613.476 899.432 616.77 898.028C620.474 896.44 623.617 894.205 626.922 891.58C623.984 889.15 621.144 891.364 618.476 891.883C610.344 893.47 602.568 896.861 594.068 896.613" stroke="black" stroke-width="2.15965" stroke-linecap="round" stroke-linejoin="round"/>
<path d="M557.485 823.758C554.666 827.451 556.535 831.922 555.52 836.026C553.986 842.225 553.856 848.77 553.133 855.164" stroke="black" stroke-width="2.15965" stroke-linecap="round" stroke-linejoin="round"/>
<path d="M459.045 759.639C452.177 759.877 445.535 758.624 439.001 756.593C435.405 755.481 431.97 755.978 429.011 758.354C427.391 759.65 426.063 761.021 423.784 761.475C419.345 762.339 418.071 764.672 418.535 769.672" stroke="black" stroke-width="2.15965" stroke-linecap="round" stroke-linejoin="round"/>
<path d="M572.731 666.285C568.303 667.441 563.637 666.339 559.209 667.97C554.922 669.557 550.71 671.577 546.498 672.938C540.796 674.774 537.426 678.716 533.538 682.431C529.704 686.092 526.767 690.488 523.494 694.624C519.52 699.635 514.789 704.171 511.506 709.582C508.806 714.042 505.404 718.254 503.914 723.427" stroke="black" stroke-width="2.15965" stroke-linecap="round" stroke-linejoin="round"/>
<path d="M578.828 679.375C587.133 688.123 592.468 698.717 597.555 709.474" stroke="black" stroke-width="2.15965" stroke-linecap="round" stroke-linejoin="round"/>
<path d="M535.059 668.898C530.523 665.312 530.285 665.658 526.052 669.243C521.634 672.991 519.809 678.185 516.926 682.819C511.256 691.923 504.225 699.85 495.693 706.47C491.125 710.013 487.388 714.538 482.215 717.432C480.584 718.339 478.424 717.356 477.387 719.074C475.303 722.54 474.083 726.417 473.985 730.403C473.921 733.211 476.675 733.599 478.619 732.897C480.962 732.055 483.392 731.083 485.217 729.107C486.686 727.53 488.382 726.169 489.98 724.722" stroke="black" stroke-width="2.15965" stroke-linecap="round" stroke-linejoin="round"/>
<path d="M667.674 976.445C668.365 976.629 669.003 976.705 669.003 977.752C669.057 987.072 666.389 995.269 659.391 1001.75" stroke="black" stroke-width="2.15965" stroke-linecap="round" stroke-linejoin="round"/>
<path d="M661.579 980.363C661.028 982.804 660.866 985.277 660.64 987.772C659.884 996.131 654.419 999.717 646.762 1000.86" stroke="black" stroke-width="2.15965" stroke-linecap="round" stroke-linejoin="round"/>
<path d="M648.952 886.578C651.123 888.932 651.037 891.935 651.76 894.818C652.991 899.776 651.533 904.862 653.197 909.733C653.629 910.986 653.899 912.66 651.242 913.858C646.76 915.878 644.946 921.224 640.842 924.302C637.872 926.537 635.129 928.136 631.543 928.46" stroke="black" stroke-width="2.15965" stroke-linecap="round" stroke-linejoin="round"/>
<path d="M489.964 728.664C488.192 733.654 483.894 736.505 480.362 739.982C477.727 742.574 474.757 744.842 472.144 747.456C470.103 749.497 469.973 752.91 471.798 754.227C476.518 757.629 476.82 763.364 479.941 767.489" stroke="black" stroke-width="2.15965" stroke-linecap="round" stroke-linejoin="round"/>
<path d="M618.901 795.406C607.745 800.482 596.351 805.191 587.592 814.209C586.113 815.742 584.622 816.077 582.754 815.904" stroke="black" stroke-width="2.15965" stroke-linecap="round" stroke-linejoin="round"/>
<path d="M569.24 829.871C568.657 834.817 567.955 839.753 567.545 844.71C567.339 847.183 567.89 849.656 568.214 852.14C569.197 859.679 571.724 866.85 572.793 874.356C574.079 883.363 574.165 892.37 574.035 901.409C574.014 902.651 573.809 903.828 573.161 904.897" stroke="black" stroke-width="2.15965" stroke-linecap="round" stroke-linejoin="round"/>
<path d="M638.057 1177.11C636.027 1177.7 634.169 1178.39 631.912 1177.19C629.05 1175.67 625.832 1177.01 622.819 1177.19C613.023 1177.79 603.249 1178.1 593.659 1175.7C591.769 1175.23 590.376 1176.05 588.864 1176.34C583.378 1177.41 577.654 1176.51 572.297 1178.42" stroke="black" stroke-width="2.15965" stroke-linecap="round" stroke-linejoin="round"/>
<path d="M654.181 866.945C654.905 868.252 655.92 869.483 656.298 870.887C657.032 873.609 657.551 876.406 655.067 878.739C651.686 881.914 649.548 886.385 644.645 888.016C643.208 888.491 642.28 890.511 641.113 891.817" stroke="black" stroke-width="2.15965" stroke-linecap="round" stroke-linejoin="round"/>
<path d="M636.751 827.688C634.774 822.882 631.653 819.026 627.171 816.348C624.914 814.998 622.646 814.004 620.551 816.899C625.087 823.605 631.815 826.942 639.364 828.994" stroke="black" stroke-width="2.15965" stroke-linecap="round" stroke-linejoin="round"/>
<path d="M561.839 661.922C558.61 665.648 553.372 665.151 549.527 667.862C547.475 669.309 545.369 670.648 543.555 672.398" stroke="black" stroke-width="2.15965" stroke-linecap="round" stroke-linejoin="round"/>
<path d="M579.688 668.023C585.768 670.345 591.081 674.439 597.55 675.875" stroke="black" stroke-width="2.15965" stroke-linecap="round" stroke-linejoin="round"/>
<path d="M535.702 578.171C534.503 573.818 531.393 571.518 527.429 572.069C522.71 572.717 519.102 576.173 519.2 580.352C519.286 584.067 518.422 587.912 520.182 591.541C522.429 589.554 526.176 592.588 527.861 589.079" stroke="black" stroke-width="2.15965" stroke-linecap="round" stroke-linejoin="round"/>
<path d="M658.104 941.539C653.438 944.142 648.697 945.945 643.265 943.796C642.606 943.537 641.548 944.304 640.684 944.595" stroke="black" stroke-width="2.15965" stroke-linecap="round" stroke-linejoin="round"/>
<path d="M587.535 807.623C581.012 807.828 575.482 814.481 576.649 820.712" stroke="black" stroke-width="2.15965" stroke-linecap="round" stroke-linejoin="round"/>
<path d="M475.16 721.246C471.358 724.529 465.991 725.21 462.47 729.044C461.487 730.113 459.781 730.48 458.172 730.404" stroke="black" stroke-width="2.15965" stroke-linecap="round" stroke-linejoin="round"/>
<path d="M497.375 706.418C498.099 710.058 498.919 713.675 499.524 717.326C500.226 721.527 503.207 723.6 506.49 725.652C511.75 728.936 515.584 733.709 519.147 738.699" stroke="black" stroke-width="2.15965" stroke-linecap="round" stroke-linejoin="round"/>
<path d="M523.515 692.897C518.838 690.251 515.544 691.071 512.898 695.813C514.518 697 516.192 698.221 517.856 699.441" stroke="black" stroke-width="2.15965" stroke-linecap="round" stroke-linejoin="round"/>
<path d="M652.426 914.066C654.24 919.704 658.258 924.24 660.277 929.769C660.299 929.813 660.58 929.823 660.688 929.769C660.86 929.672 660.99 929.489 661.13 929.348" stroke="black" stroke-width="2.15965" stroke-linecap="round" stroke-linejoin="round"/>
<path d="M581.87 608.269C580.747 612.502 581.449 616.11 584.851 619.252C586.266 620.559 588.307 622.665 584.884 624.393C575.725 618.216 571.168 599.867 583.879 593.754C589.733 596.562 590.564 602.21 591.472 607.837C591.752 609.586 590.586 611.574 592.336 613.075" stroke="black" stroke-width="2.15965" stroke-linecap="round" stroke-linejoin="round"/>
<path d="M562.273 660.615C567.576 662.3 572.123 666.08 577.955 666.285" stroke="black" stroke-width="2.15965" stroke-linecap="round" stroke-linejoin="round"/>
<path d="M614.547 917.984C616.437 923.611 622.236 927.359 628.047 926.711" stroke="black" stroke-width="2.15965" stroke-linecap="round" stroke-linejoin="round"/>
<path d="M571.85 607.393C569.96 612.458 570.781 617.966 569.258 623.106C568.438 625.86 569.399 629.035 565.414 630.742C562.962 631.789 563.405 635.937 561.828 638.366" stroke="black" stroke-width="2.15965" stroke-linecap="round" stroke-linejoin="round"/>
<path d="M549.208 948.527C550.082 948.235 550.936 947.835 551.821 947.674C554.435 947.198 555.407 948.257 554.402 950.697C552.232 955.968 548.916 960.342 543.98 963.366" stroke="black" stroke-width="2.15965" stroke-linecap="round" stroke-linejoin="round"/>
<path d="M520.023 591.691C520.574 595.061 520.661 598.322 519.699 601.757C518.641 605.569 518.835 609.619 520.023 613.496C520.725 615.797 521.827 618.054 520.455 620.473" stroke="black" stroke-width="2.15965" stroke-linecap="round" stroke-linejoin="round"/>
<path d="M556.614 658.867C553.169 661.686 548.817 662.518 544.81 663.976C541.365 665.228 537.941 666.535 535.349 668.976C531.202 672.875 525.835 674.991 521.742 678.89C521.439 679.182 520.618 678.933 520.035 678.933" stroke="black" stroke-width="2.15965" stroke-linecap="round" stroke-linejoin="round"/>
<path d="M393.276 823.758C387.11 828.013 385.63 832.182 388.481 837.279" stroke="black" stroke-width="2.15965" stroke-linecap="round" stroke-linejoin="round"/>
<path d="M508.709 699.871C507.693 702.485 506.376 705.033 505.76 707.744C505.296 709.764 505.22 712.366 508.709 712.086" stroke="black" stroke-width="2.15965" stroke-linecap="round" stroke-linejoin="round"/>
<path d="M503.479 892.25C499.807 894.475 495.282 894.756 491.977 898.179C490.422 899.788 486.934 899.518 484.32 900.101" stroke="black" stroke-width="2.15965" stroke-linecap="round" stroke-linejoin="round"/>
<path d="M548.34 598.235C549.895 597.695 549.485 596.356 549.679 595.189C550.349 591.096 552.444 587.954 556.051 586.031C562.693 588.58 561.775 593.872 560.976 599.11" stroke="black" stroke-width="2.15965" stroke-linecap="round" stroke-linejoin="round"/>
<path d="M583.184 600.418C584.21 603.237 582.924 606.423 584.814 609.22C585.462 610.192 585.192 612.103 584.49 613.507" stroke="black" stroke-width="2.15965" stroke-linecap="round" stroke-linejoin="round"/>
<path d="M452.08 1165.33C450.795 1168.25 448.819 1170.71 446.864 1173.19C445.665 1174.71 444.261 1176.5 445.212 1178.38C446.281 1180.5 448.678 1179.22 450.342 1179.19C455.979 1179.09 461.509 1177.98 466.898 1176.24C472.773 1174.34 478.821 1175.53 484.75 1175.58C486.651 1175.6 488.789 1176.24 490.852 1176.23C503.142 1176.13 515.238 1178.31 527.442 1179.31" stroke="black" stroke-width="2.15965" stroke-linecap="round" stroke-linejoin="round"/>
<path d="M550.08 590.815C547.369 589.141 544.669 591.182 542.261 590.977C537.596 590.567 532.844 592.295 528.297 590.383" stroke="black" stroke-width="2.15965" stroke-linecap="round" stroke-linejoin="round"/>
<path d="M577.079 599.543C572.348 597.253 567.456 598.981 562.715 599.251C556.311 599.629 549.928 599.5 543.545 599.413C540.748 599.37 540.662 596.778 540.878 594.294C541.256 589.996 541.461 585.579 539.139 581.68C538.07 579.887 537 577.598 533.933 578.969C532.367 579.671 531.428 580.027 532.141 582.112C532.907 584.326 533.091 586.734 533.523 589.067" stroke="black" stroke-width="2.15965" stroke-linecap="round" stroke-linejoin="round"/>
<path d="M526.125 1030.97C530.035 1033.46 533.113 1037.28 537.886 1038.39" stroke="black" stroke-width="2.15965" stroke-linecap="round" stroke-linejoin="round"/>
<path d="M541.807 599.1C540.306 600.817 538.329 600.05 536.58 599.931C531.331 599.575 526.147 601.141 520.898 600.406" stroke="black" stroke-width="2.15965" stroke-linecap="round" stroke-linejoin="round"/>
<path d="M591.023 664.979C592.762 667.3 594.674 669.525 596.207 671.988C597.817 674.58 598.886 677.28 601.802 679.115C603.929 680.444 605.182 683.338 604.523 686.351" stroke="black" stroke-width="2.15965" stroke-linecap="round" stroke-linejoin="round"/>
<path d="M598.421 799.34C597.114 800.506 595.991 802.094 594.468 802.753C589.122 805.064 586.444 810.118 583.42 814.352C580.601 818.294 577.577 820.907 573.16 822.246" stroke="black" stroke-width="2.15965" stroke-linecap="round" stroke-linejoin="round"/>
<path d="M544.422 610.883C544.26 615.203 545.751 619.026 547.889 623.043C551.042 620.441 550.956 617.536 549.649 614.382" stroke="black" stroke-width="2.15965" stroke-linecap="round" stroke-linejoin="round"/>
<path d="M470.811 747.857C466.34 745.211 462.873 748.765 460.141 750.773C457.786 752.501 455.022 755.223 454.266 758.765" stroke="black" stroke-width="2.15965" stroke-linecap="round" stroke-linejoin="round"/>
<path d="M618.895 916.68C622.48 919.617 626.022 922.533 629.057 926.162C630.483 927.868 631.714 929.456 632.405 931.519" stroke="black" stroke-width="2.15965" stroke-linecap="round" stroke-linejoin="round"/>
<path d="M571.423 878.727C568.41 885.001 569.911 891.492 570.57 897.918C571.164 903.717 574.976 908.61 575.344 914.496" stroke="black" stroke-width="2.15965" stroke-linecap="round" stroke-linejoin="round"/>
<path d="M561.397 660.173C559.453 659.255 556.742 659.752 555.738 657.117C555.349 656.091 554.539 656.76 553.988 656.728C552.109 656.62 550.219 656.739 548.329 656.674C541.903 656.447 540.002 656.544 540.92 664.968" stroke="black" stroke-width="2.15965" stroke-linecap="round" stroke-linejoin="round"/>
<path d="M498.249 895.307C498.454 898.644 497.785 902.024 498.681 905.34" stroke="black" stroke-width="2.15965" stroke-linecap="round" stroke-linejoin="round"/>
<path d="M573.602 876.547C576.928 876.418 577.414 879.29 578.267 881.396C578.656 882.358 579.12 883.977 579.671 883.848C584.952 882.66 587.458 888.103 591.896 888.762" stroke="black" stroke-width="2.15965" stroke-linecap="round" stroke-linejoin="round"/>
<path d="M600.602 603.029C598.259 603.785 597.762 605.88 597.643 607.835C597.535 609.617 596.963 610.686 595.375 611.324" stroke="black" stroke-width="2.15965" stroke-linecap="round" stroke-linejoin="round"/>
<path d="M631.09 932.381C634.848 933.234 636.123 934.508 637.613 938.926C637.699 939.185 637.505 939.584 637.645 939.779C640.453 943.753 640.097 949.077 643.294 952.879" stroke="black" stroke-width="2.15965" stroke-linecap="round" stroke-linejoin="round"/>
<path d="M481.695 718.633C483.315 720.328 485.421 721.322 487.311 722.629C490.465 724.81 492.841 724.778 494.655 721.149C496.588 722.348 498.467 722.575 500.433 721.689" stroke="black" stroke-width="2.15965" stroke-linecap="round" stroke-linejoin="round"/>
<path d="M480.391 900.102C480.899 903.093 479.106 905.599 478.652 908.385" stroke="black" stroke-width="2.15965" stroke-linecap="round" stroke-linejoin="round"/>
<path d="M528.297 622.221C528.848 619.92 525.986 617.371 528.74 615.255C531.623 613.019 532.865 617.037 535.263 617.08C536.613 617.101 537.563 618.873 539.183 618.743" stroke="black" stroke-width="2.15965" stroke-linecap="round" stroke-linejoin="round"/>
<path d="M520.898 577.727C522.486 580.265 521.395 582.954 521.33 585.578" stroke="black" stroke-width="2.15965" stroke-linecap="round" stroke-linejoin="round"/>
<path d="M539.629 614.369C539.769 614.952 540.061 615.536 540.039 616.108C539.845 621.411 541.616 622.998 547.47 622.653" stroke="black" stroke-width="2.15965" stroke-linecap="round" stroke-linejoin="round"/>
<path d="M405.477 1012.21C403.155 1013.59 405.023 1017.36 401.988 1018.32" stroke="black" stroke-width="2.15965" stroke-linecap="round" stroke-linejoin="round"/>
<path d="M454.701 1164.46C454.691 1162.05 452.466 1162.6 451.224 1161.81C449.323 1163.49 446.688 1164.49 446.418 1167.51" stroke="black" stroke-width="2.15965" stroke-linecap="round" stroke-linejoin="round"/>
<path d="M572.293 823.324C570.889 824.966 571.451 827.525 569.68 828.994" stroke="black" stroke-width="2.15965" stroke-linecap="round" stroke-linejoin="round"/>
<path d="M469.502 900.977C471.262 903.374 467.126 904.411 468.195 906.646" stroke="black" stroke-width="2.15965" stroke-linecap="round" stroke-linejoin="round"/>
<path d="M530.48 559.843C532.586 559.357 534.228 560.847 536.14 561.149" stroke="black" stroke-width="2.15965" stroke-linecap="round" stroke-linejoin="round"/>
<path d="M594.944 608.27C595.927 611.941 593.367 615.16 593.637 618.735" stroke="black" stroke-width="2.15965" stroke-linecap="round" stroke-linejoin="round"/>
<path d="M537.448 580.352C536.142 582.609 536.142 584.941 537.016 587.328" stroke="black" stroke-width="2.15965" stroke-linecap="round" stroke-linejoin="round"/>
</g>
<defs>
<clipPath id="clip0_1019_7133">
<rect width="1077" height="1180" fill="white"/>
</clipPath>
</defs>
</svg>
