<svg width="576" height="854" viewBox="0 0 576 854" fill="none" xmlns="http://www.w3.org/2000/svg">
<g clip-path="url(#clip0_1019_6827)">
<path d="M324.85 723.695C320.925 726.487 317.584 730.429 317.456 735.536C317.216 741.064 319.303 746.449 321.734 751.323C327.481 762.857 335.031 770.468 346.255 776.269C348.294 777.474 350.258 778.743 352.081 780.241C356.255 783.617 359.474 788.223 363.825 791.288C368.528 794.689 374.305 796.132 379.875 797.991C383.506 799.137 387.048 800.54 390.664 801.72C397.102 803.946 403.981 804.472 410.776 804.527C416.313 804.655 421.888 804.77 427.219 803.644C434.25 802.181 438.066 800.262 445.371 802.603" stroke="black" stroke-width="2" stroke-linecap="round" stroke-linejoin="round"/>
<path d="M158.861 752.19C154.349 756.098 149.376 759.365 144.349 762.563C141.135 764.641 137.911 766.639 134.403 767.745C119.646 772.316 104.066 768.994 89.2057 773.134C83.7526 774.518 78.1378 776.784 74.277 780.954C71.1267 784.251 68.8631 788.481 66.6779 792.527C59.4267 806.876 50.1423 819.832 40.9558 832.913C34.1749 844.183 34.1651 848.665 19.2316 847.902C2.89679 848.174 -0.694516 843.553 0.794919 827.329C1.68662 813.233 2.69591 799.151 3.45043 785.049C4.77328 753.613 1.40245 722.128 4.5675 690.741C4.90067 686.031 5.30242 681.355 5.43471 676.655C5.57189 671.557 4.97416 666.46 5.88056 661.561C6.88985 655.706 10.1333 650.544 12.5879 645.219C15.4149 639.422 17.5119 633.319 20.3536 627.537C22.0047 624.131 23.7342 620.729 24.8562 617.1C29.6037 599.096 28.1584 579.486 36.2131 562.354C41.5339 550.792 46.3011 538.738 47.2663 525.91C47.5652 519.603 47.9865 513.247 50.6077 507.436" stroke="black" stroke-width="2" stroke-linecap="round" stroke-linejoin="round"/>
<path d="M532.696 737.578C536.674 742.363 540.839 747.054 544.322 752.151C547.585 756.965 550.638 761.958 554.283 766.485C556.831 769.743 559.481 772.971 561.539 776.586C567.668 787.196 566.684 799.404 557.678 807.724C552.294 812.901 546.934 818.052 541.544 823.209C532.485 831.708 522.437 839.14 511.619 845.209C504.813 849.032 496.945 848.546 490.301 844.639C481.751 839.304 476.039 830.037 471.276 821.255C465.691 810.873 452.467 797.024 457.333 784.504C459.807 778.708 465.26 774.553 469.905 770.457" stroke="black" stroke-width="2" stroke-linecap="round" stroke-linejoin="round"/>
<path d="M460.168 791.644C461.795 796.771 463.519 801.833 466.268 806.316C468.899 810.61 472.049 814.557 474.567 818.93C478.311 825.589 482.314 832.278 487.948 837.439C491.515 840.826 495.929 843.94 500.98 843.96C509.52 843.811 516.58 836.547 523.175 831.683C535.125 821.93 548.084 812.791 557.319 800.192C562.674 792.437 559.71 784.901 555.541 777.245C552.077 770.695 548.672 764.031 544.36 758.021C540.661 753.127 536.8 747.247 531.563 744.277C525.409 740.712 518.315 743.969 512.925 747.554C508.276 750.594 503.729 753.807 499.133 756.94" stroke="black" stroke-width="2" stroke-linecap="round" stroke-linejoin="round"/>
<path d="M570.227 848.632C562.5 849.95 554.637 849.658 546.807 849.792C533.339 849.772 519.855 849.737 506.382 849.841C500.649 849.767 494.946 849.182 489.209 849.256C470.322 849.777 451.493 851.364 432.591 850.952C415.026 850.897 397.467 850.893 379.976 852.568C373.969 853.084 367.948 853.54 361.926 853.511C352.798 853.317 343.681 853.02 334.548 853.025C329.315 852.866 324.122 852.147 318.879 851.894C301.854 851.666 284.848 850.764 267.812 850.59C257.342 850.511 246.853 850.516 236.387 850.015C233.663 849.911 230.924 849.901 228.21 850.015C209.401 850.997 190.538 849.455 171.719 849.534C164.747 849.499 157.766 850.283 150.808 850.273C143.503 849.995 136.237 849.831 128.937 849.812C125.439 849.708 121.97 849.261 118.487 848.974C113.524 848.537 108.511 848.527 103.485 848.478C94.7439 848.22 85.9984 848.622 77.2627 848.438C63.1277 847.868 48.8556 848.428 34.7305 848.275" stroke="black" stroke-width="2" stroke-linecap="round" stroke-linejoin="round"/>
<path d="M332.431 426.335C324.783 422.413 320.065 425.205 312.765 428.408C306.802 430.946 301.001 434.006 294.793 435.865C288.311 437.64 281.55 438.072 274.784 437.1C271.443 436.644 268.116 435.88 264.774 435.473C256.141 434.69 247.607 433.48 239.072 431.784C233.295 430.599 227.597 428.076 221.987 426.568C220.351 426.013 219.405 425.78 218.754 425.18C218.337 424.322 223.643 425.8 224.545 425.968" stroke="black" stroke-width="2" stroke-linecap="round" stroke-linejoin="round"/>
<path d="M250.515 52.2617C241.588 49.7974 232.269 51.0617 223.195 52.1427C214.724 53.1938 207.13 57.4729 200.29 62.4709C192.579 68.1235 185.519 74.614 178.561 81.1441C173.583 85.7554 168.527 90.2874 163.691 95.1515C159.444 99.4851 154.985 103.586 150.213 107.324C142.619 113.046 136.343 120.285 129.934 127.222C124.849 132.458 120.165 138.081 116.456 144.413C109.611 154.905 104.873 166.324 100.635 178.06C97.779 185.047 95.7359 192.296 94.9961 199.847" stroke="black" stroke-width="2" stroke-linecap="round" stroke-linejoin="round"/>
<path d="M235.723 518.759C239.73 516.007 243.106 515.035 247.991 515.025C252.685 514.817 257.417 514.644 262.15 514.599C267.505 514.579 272.772 514.316 277.824 512.606C294.041 507.514 304.07 498.891 304.442 480.684C304.825 473.256 303.423 465.873 300.675 458.996C297.059 449.302 291.302 442.48 282.268 437.66" stroke="black" stroke-width="2" stroke-linecap="round" stroke-linejoin="round"/>
<path d="M175.822 123.5C172.001 127.774 167.973 131.845 164.215 136.179C159.757 141.385 156.219 147.315 151.776 152.516C136.092 171.482 120.061 191.4 112.32 215.19" stroke="black" stroke-width="2" stroke-linecap="round" stroke-linejoin="round"/>
<path d="M504.547 559.672C505.929 567.362 507.286 575.147 507.947 582.971C508.398 588.797 508.285 594.638 509.226 600.395C510.304 607.282 512.842 613.981 513.15 620.972C513.782 629.639 511.489 638.307 511.827 646.914C512.117 652.368 513.635 657.788 514.816 663.118C515.806 667.363 516.81 671.602 517.824 675.836C520.588 686.348 522.303 697.4 526.707 707.337C528.226 710.604 530.112 713.679 532.101 716.674C534.429 720.462 537.452 723.828 540.626 726.62" stroke="black" stroke-width="2" stroke-linecap="round" stroke-linejoin="round"/>
<path d="M504.189 543.233C503.85 534.318 501.391 525.463 502.89 516.597C503.346 513.602 504.193 510.672 505.286 507.846C506.873 503.671 508.966 499.486 509.235 495.509C509.847 490.01 505.418 484.973 499.955 484.566C495.561 484.115 491.465 486.763 488.3 489.688C480.588 496.754 473.395 504.727 469.059 514.386C466.379 520.346 465.159 526.826 463.881 533.208C461.789 543.1 459.52 553.066 459.848 563.245C459.824 572.25 461.382 582.122 456.83 590.303C455.155 593.229 452.151 594.572 448.977 595.47" stroke="black" stroke-width="2" stroke-linecap="round" stroke-linejoin="round"/>
<path d="M253.405 146.512C245.879 152.586 239.584 159.974 233.234 167.267C221.509 180.541 213.077 196.259 206.238 212.567C202.357 221.507 199.158 230.754 197.473 240.393" stroke="black" stroke-width="2" stroke-linecap="round" stroke-linejoin="round"/>
<path d="M137.215 454.832C143.54 457.579 146.186 462.369 150.277 467.709C154.074 472.4 158.919 475.974 163.785 479.49C168.914 483.08 174.289 486.303 179.512 489.759C185.288 493.532 190.869 497.623 196.831 501.074C200.776 503.379 204.827 505.502 208.845 507.678C219.815 513.777 231.343 519.073 243.646 521.72C249.574 523.079 255.674 524.428 261.715 524.631C266.864 524.834 271.921 523.664 277.036 522.995C282.435 522.375 287.716 521.572 292.743 519.489" stroke="black" stroke-width="2" stroke-linecap="round" stroke-linejoin="round"/>
<path d="M250.156 149.799C246.835 160.087 244.311 170.733 241.656 181.275C239.182 190.889 237.354 200.657 236.707 210.578C236.139 217.391 235.448 224.194 234.919 231.007C234.439 236.114 234.723 241.211 235.723 246.239" stroke="black" stroke-width="2" stroke-linecap="round" stroke-linejoin="round"/>
<path d="M178.708 84.0469C178.174 86.1542 177.654 88.1028 176.518 90.0167C174.915 92.6348 172.338 95.3321 170.604 98.0939C168.316 101.505 166.381 105.15 164.171 108.616C160.683 114.179 156.322 119.231 152.29 124.492C149.296 128.335 146.312 132.183 143.177 135.906C138.733 141.167 134.025 146.155 129.924 151.674C126.641 156.082 123.373 160.535 119.895 164.779" stroke="black" stroke-width="2" stroke-linecap="round" stroke-linejoin="round"/>
<path d="M448.622 595.11C443.59 595.101 438.524 595.195 433.639 594.005C429.46 593.048 425.501 591.238 421.322 590.281C415.477 589.002 409.47 589.056 403.777 587.157C399.265 585.704 394.762 584.123 390.093 583.28C386.962 582.69 383.851 581.966 380.716 581.43C375.752 580.553 370.799 580.558 365.743 580.612C361.642 580.612 357.453 580.156 353.406 580.994C344.44 582.933 336.596 589.359 331.53 596.97C328.585 601.606 326.606 607.12 326.964 612.623C327.184 617.75 330.53 621.415 334.587 623.968" stroke="black" stroke-width="2" stroke-linecap="round" stroke-linejoin="round"/>
<path d="M379.336 111.078C381.105 114.4 382.878 117.722 384.681 121.03C388.052 127.123 390.247 133.773 392.697 140.278C396.572 149.972 399.816 159.943 401.511 170.291C402.221 174.699 402.29 179.176 402.216 183.634C402.29 195.365 402.216 207.156 403.147 218.843" stroke="black" stroke-width="2" stroke-linecap="round" stroke-linejoin="round"/>
<path d="M368.152 483.324C362.968 485.486 358.402 488.645 353.669 491.699C342.675 497.877 331.994 504.853 320.343 509.718C316.992 511.086 313.567 512.256 310.172 513.506C304.885 515.449 299.741 517.631 294.16 518.196C291.275 518.563 288.276 518.529 285.503 519.129C282.936 519.659 280.613 520.834 278.301 522.049" stroke="black" stroke-width="2" stroke-linecap="round" stroke-linejoin="round"/>
<path d="M517.539 623.238C527.098 625.817 536.554 628.816 545.99 631.861C555.672 634.454 561.33 633.814 566.867 643.637C577.695 660.243 573.677 673.967 574.103 692.403C574.402 703.306 575.97 714.175 575.382 725.093C573.692 753.619 574.167 782.248 572.692 810.788C572.487 816.451 572.006 822.113 571.899 827.776C571.801 834.876 572.403 841.932 572.026 848.993" stroke="black" stroke-width="2" stroke-linecap="round" stroke-linejoin="round"/>
<path d="M319.434 165.873C316.245 172.235 313.854 178.874 312.389 185.835C309.969 197.126 308.376 208.604 308.014 220.098C307.862 228.958 307.196 237.864 308.974 246.605" stroke="black" stroke-width="2" stroke-linecap="round" stroke-linejoin="round"/>
<path d="M165.72 169.527C159.425 186.282 153.957 203.378 147.132 219.924C142.708 229.241 137.245 238.349 130.719 246.238" stroke="black" stroke-width="2" stroke-linecap="round" stroke-linejoin="round"/>
<path d="M99.6861 311.268C91.2786 300.414 89.9018 307.926 88.9171 317.188C88.3193 324.422 88.1087 331.701 88.677 338.935C89.211 345.302 90.4506 351.624 91.2051 357.961C91.6461 361.154 91.8028 364.724 92.8415 367.724C93.5862 369.925 94.9238 371.046 96.1781 369.107C100.308 361.471 98.9561 358.04 107.981 352.546" stroke="black" stroke-width="2" stroke-linecap="round" stroke-linejoin="round"/>
<path d="M429.134 300.672C429.085 311.674 426.899 322.553 425.846 333.491C425.459 337.394 425.194 341.311 424.69 345.198C422.774 359.994 416.003 373.52 412.299 387.88C410.452 395.039 408.512 402.17 406.826 409.369C404.568 418.959 403.318 428.895 399.913 438.182C397.944 443.453 395.175 448.352 392.226 453.117C386.729 462.086 380.565 470.674 372.844 477.844" stroke="black" stroke-width="2" stroke-linecap="round" stroke-linejoin="round"/>
<path d="M459.807 188.891C460.865 198.396 462.487 207.931 462.109 217.505C461.732 224.249 461.286 231.007 460.458 237.711C458.817 248.634 454.976 259.205 452.59 269.99" stroke="black" stroke-width="2" stroke-linecap="round" stroke-linejoin="round"/>
<path d="M390.523 100.85C392.914 102.144 395.3 103.448 397.466 105.079C399.852 106.879 402.008 108.976 404.173 111.049C412.434 119.027 419.817 127.897 426.779 137.036C430.444 141.835 433.766 146.893 437.142 151.896C439.351 155.223 442.085 158.109 445.01 160.762" stroke="black" stroke-width="2" stroke-linecap="round" stroke-linejoin="round"/>
<path d="M203.607 717.487C204.048 714.512 204.297 711.522 203.67 708.622C203.269 706.356 202.607 703.876 203.7 701.898C204.998 699.463 207.374 697.554 209.971 696.112C217.869 691.743 224.797 700.103 230.931 704.323C236.325 708.289 242.087 711.745 247.173 716.148C252.92 721.092 258.843 725.822 265.242 729.898C268.377 732 271.925 733.408 275.423 734.658" stroke="black" stroke-width="2" stroke-linecap="round" stroke-linejoin="round"/>
<path d="M209.379 565.156C202.118 561.031 195.219 559.846 187.023 559.568C178.542 559.31 170.036 558.894 161.555 559.454C158.488 559.712 155.45 560.223 152.418 560.773C145.137 562.156 137.734 562.677 130.355 563.327" stroke="black" stroke-width="2" stroke-linecap="round" stroke-linejoin="round"/>
<path d="M285.16 185.598C285.469 191.543 285.395 197.547 286.16 203.438C286.708 207.821 287.767 212.115 288.707 216.424C289.481 219.919 290.123 223.44 291.074 226.891C293.078 234.12 296.791 240.873 299.961 247.696" stroke="black" stroke-width="2" stroke-linecap="round" stroke-linejoin="round"/>
<path d="M327.016 73.4492C329.931 79.9397 332.185 86.7624 333.645 93.6893C334.419 97.289 334.953 100.958 334.84 104.652C334.727 108.847 333.747 112.982 332.719 117.038C331.067 123.33 329.593 129.608 328.094 135.915" stroke="black" stroke-width="2" stroke-linecap="round" stroke-linejoin="round"/>
<path d="M151.645 674.018C161.061 669.764 171.242 668.37 181.169 665.742C189.87 663.387 198.042 659.287 205.284 653.882C212.192 648.79 214.093 650.996 217.601 658.488C219.081 661.379 220.551 664.339 221.535 667.428C222.794 671.206 223.642 675.104 225.376 678.753C228.757 685.169 232.961 691.362 237.454 696.93C244.803 705.34 252.471 713.61 261.152 720.616C264.215 723.061 267.482 725.272 270.329 727.975C273.798 731.307 276.933 735.045 280.099 738.68" stroke="black" stroke-width="2" stroke-linecap="round" stroke-linejoin="round"/>
<path d="M306.084 345.973C309.69 353.604 316.128 361.279 314.604 370.224C313.164 376.888 305.594 377.602 299.744 378.638C289.887 380.394 287.035 379.422 292.552 370.08" stroke="black" stroke-width="2" stroke-linecap="round" stroke-linejoin="round"/>
<path d="M155.257 104.137C153.836 106.819 152.386 109.482 150.642 111.916C148.03 115.596 144.811 118.784 141.96 122.269C135.914 129.643 131.892 138.498 127.213 146.808C125.189 150.607 122.989 154.36 121.446 158.386C120.05 162.1 119.016 165.977 118.09 169.895" stroke="black" stroke-width="2" stroke-linecap="round" stroke-linejoin="round"/>
<path d="M429.492 157.836C431.158 160.821 432.76 163.86 434.107 167.019C438.88 178.423 443.421 190.05 445.264 202.342C446.371 209.492 446.498 216.741 446.817 223.961" stroke="black" stroke-width="2" stroke-linecap="round" stroke-linejoin="round"/>
<path d="M264.949 406.244C266.943 407.033 268.932 407.632 270.912 407.811C275.346 408.213 279.844 407.092 284.243 408.361C289.976 410.067 295.752 411.946 301.259 414.212C308.069 417.405 314.787 420.723 321.964 423.048" stroke="black" stroke-width="2" stroke-linecap="round" stroke-linejoin="round"/>
<path d="M285.517 183.043C281.191 192.186 277.026 201.404 272.666 210.532C269.32 217.399 263.906 223.3 260.54 230.167C257.492 236.221 255.581 242.836 253.578 249.316C251.133 257.309 248.58 265.282 247.992 273.642" stroke="black" stroke-width="2" stroke-linecap="round" stroke-linejoin="round"/>
<path d="M256.65 186.332C254.004 191.871 251.838 197.612 250.011 203.478C247.272 212.145 244.426 220.778 241.613 229.415C239.609 235.955 238.046 242.634 235.004 248.797" stroke="black" stroke-width="2" stroke-linecap="round" stroke-linejoin="round"/>
<path d="M320.162 424.512C313.818 423.297 307.38 422.707 300.961 422.008C297.096 421.562 293.269 420.739 289.418 420.059C285.798 419.44 282.167 418.988 278.522 419.003C274.274 419.033 270.021 419.623 265.773 419.306C259.492 418.805 253.339 416.98 247.004 416.956C238.273 416.688 229.625 418.438 220.934 418.661" stroke="black" stroke-width="2" stroke-linecap="round" stroke-linejoin="round"/>
<path d="M160.67 70.1621C149.308 75.1899 137.143 83.0241 129.911 93.402C127.07 97.7455 124.429 102.243 120.906 106.081C116.796 111.029 111.764 114.857 107.075 119.166C102.636 123.405 99.084 128.468 95.3555 133.356" stroke="black" stroke-width="2" stroke-linecap="round" stroke-linejoin="round"/>
<path d="M360.213 264.143C355.995 264.312 351.286 264.143 346.857 263.697C340.973 263.667 334.951 263.008 329.155 262.948C326.093 262.884 322.394 263.558 319.543 262.656C318.357 262.031 320.625 259.924 320.067 258.853C319.905 258.258 318.234 258.248 317.235 258.605C313.541 259.805 311.081 263.623 309.009 266.856C303.85 274.804 301.312 284.388 301.958 293.908C302.556 302.179 306.353 306.047 314.751 305.794" stroke="black" stroke-width="2" stroke-linecap="round" stroke-linejoin="round"/>
<path d="M113.038 286.789C111.925 293.547 110.372 300.221 109.275 306.98C108.261 313.282 108.187 319.708 108.006 326.109C107.692 333.551 107.825 340.959 108.481 348.392C108.844 352.735 109.226 357.079 110.005 361.358C110.867 366.267 112.038 371.116 112.793 376.045C114.223 385.049 114.302 394.202 116.247 403.152C117.109 407.218 118.329 411.194 119.623 415.131C122.768 424.537 125.649 434.147 130.259 442.953C131.494 445.343 132.851 447.698 133.924 450.157C136.036 454.858 137.118 459.856 138.138 464.913C139.838 472.048 140.793 479.397 141.097 486.745C141.552 495.378 142.16 504.03 142.65 512.643C142.792 516.862 143.904 521.047 145.158 524.969" stroke="black" stroke-width="2" stroke-linecap="round" stroke-linejoin="round"/>
<path d="M421.919 252.451C421.419 258.188 420.91 263.93 420.9 269.691C420.841 278.795 422.551 287.804 423.516 296.833C424.682 305.878 424.966 315.026 426.25 324.05" stroke="black" stroke-width="2" stroke-linecap="round" stroke-linejoin="round"/>
<path d="M531.25 736.117C521.397 735.343 515.694 737.783 507.703 743.257C497.767 749.782 487.949 756.515 478.566 763.878" stroke="black" stroke-width="2" stroke-linecap="round" stroke-linejoin="round"/>
<path d="M91.0231 145.055C88.3284 149.443 85.9325 154.059 83.7768 158.765C80.5039 165.468 77.0449 172.187 74.997 179.406C71.6996 190.553 70.8128 202.175 70.8667 213.748C70.7099 225.088 70.6413 236.591 72.9882 247.703" stroke="black" stroke-width="2" stroke-linecap="round" stroke-linejoin="round"/>
<path d="M199.64 103.041C196.529 104.618 193.418 106.214 190.463 108.079C184.775 111.55 179.954 116.359 174.658 120.435C171.463 122.845 167.926 124.729 164.663 127.03C158.931 131.234 154.305 136.976 149.484 142.133" stroke="black" stroke-width="2" stroke-linecap="round" stroke-linejoin="round"/>
<path d="M349.75 187.793C351.945 193.287 353.033 199.088 354.15 204.904C357.011 218.778 356.178 233.068 354.081 246.971" stroke="black" stroke-width="2" stroke-linecap="round" stroke-linejoin="round"/>
<path d="M293.818 62.4927C290.531 61.2878 287.361 60.2564 284.098 60.7523C280.918 61.1985 278.052 62.7951 275.377 64.5652C272.559 66.4593 269.742 68.5071 267.043 70.5897C260.306 75.8059 254.578 82.1823 248.733 88.415C245.936 91.5288 243.153 94.7468 240.968 98.3317C239.527 100.737 238.518 103.34 237.523 105.958" stroke="black" stroke-width="2" stroke-linecap="round" stroke-linejoin="round"/>
<path d="M410.008 231.992C410.596 232.081 411.13 232.191 411.351 233.609C411.562 234.814 411.615 236.747 411.571 238.195C411.135 253.774 407.328 268.848 403.512 283.862" stroke="black" stroke-width="2" stroke-linecap="round" stroke-linejoin="round"/>
<path d="M140.457 530.085C130.075 535.634 121.712 544.97 110.629 549.155C102.266 552.1 95.4508 549.259 94.0643 539.898C92.0849 526.203 93.1236 512.245 93.4665 498.451C93.8683 487.632 93.7262 476.743 92.516 465.973C90.9384 454.381 86.4897 441.866 76.3674 435.291C72.9329 433.085 68.7292 431.493 64.7998 431.676C55.3732 432.237 54.8 441.137 56.1669 448.619C57.0341 454.321 58.2149 459.895 59.6358 465.428" stroke="black" stroke-width="2" stroke-linecap="round" stroke-linejoin="round"/>
<path d="M362.016 553.098C364.451 555.22 366.915 557.297 369.6 558.998C374.95 562.37 380.854 564.685 386.537 567.427C392.02 570.135 397.733 572.43 403.191 575.152C406.204 576.655 409.134 578.361 412.274 579.575C416.772 581.177 421.02 583.175 425.052 585.813C428.051 587.801 431.363 589.18 434.719 590.429C437.521 591.53 440.201 592.923 442.852 594.376" stroke="black" stroke-width="2" stroke-linecap="round" stroke-linejoin="round"/>
<path d="M355.161 683.145C356.445 683.2 361.432 684.018 361.207 684.484C358.684 684.757 354.852 683.547 351.78 682.302C341.438 678.132 329.214 670.105 318.449 677.076C312.384 680.879 309.64 688.114 308.763 695.001C307.715 701.705 311.007 707.754 315.02 713.124C319.993 720.041 326.636 725.445 334.236 729.174" stroke="black" stroke-width="2" stroke-linecap="round" stroke-linejoin="round"/>
<path d="M375.004 105.232C378.345 109.125 382.084 112.467 385.739 116.131C393.455 124.387 400.589 133.153 406.307 142.926C410.231 149.719 414.934 156.155 418.119 163.339C419.667 166.914 420.927 170.613 422.269 174.268" stroke="black" stroke-width="2" stroke-linecap="round" stroke-linejoin="round"/>
<path d="M254.846 192.178C254.494 199.08 252.289 205.664 251.206 212.457C250.408 217.565 250.653 222.751 250.53 227.903C250.261 236.912 248.169 245.817 247.277 254.797C246.527 260.112 246.385 265.428 247.277 270.723" stroke="black" stroke-width="2" stroke-linecap="round" stroke-linejoin="round"/>
<path d="M371.757 479.674C370.41 482.173 369.117 484.687 368.426 487.523C367.98 489.293 367.725 491.162 367.475 493.032C365.511 509.424 362.591 525.707 361.082 542.149C360.748 549.522 361.248 557.039 362.017 564.412C362.502 567.774 363.649 570.987 364.056 574.294C364.359 576.491 364.129 578.673 363.815 580.864" stroke="black" stroke-width="2" stroke-linecap="round" stroke-linejoin="round"/>
<path d="M94.6333 298.481C93.1291 297.291 91.821 297.172 90.209 298.868C87.7299 301.511 86.0396 305.447 85.1479 309.047C83.5703 316.078 82.7472 323.387 83.0264 330.591C83.4478 338.792 85.2165 346.894 86.1131 355.051C86.6716 359.553 86.8725 364.155 87.2547 368.681C87.7397 376.684 90.3462 384.261 95.8385 390.097C101.502 396.731 106.563 400.356 115.201 401.124" stroke="black" stroke-width="2" stroke-linecap="round" stroke-linejoin="round"/>
<path d="M402.07 117.285C404.393 119.298 406.671 121.381 408.689 123.706C412.496 128.05 415.407 133.206 418.488 138.155C421.575 143.426 425.049 148.553 427.376 154.225C428.405 156.793 429.155 159.481 429.806 162.183C433.265 177.232 439.247 191.507 444.289 206.055" stroke="black" stroke-width="2" stroke-linecap="round" stroke-linejoin="round"/>
<path d="M380.418 181.582C381.613 184.25 382.824 186.917 383.794 189.674C385.406 194.171 386.165 198.936 387.184 203.672C390.119 215.101 390.418 226.852 389.08 238.569" stroke="black" stroke-width="2" stroke-linecap="round" stroke-linejoin="round"/>
<path d="M352.637 193.637C358.869 200.4 360.633 207.981 362.872 216.629C364.758 224.091 366.615 231.652 366.791 239.348C366.973 244.718 366.385 250.063 365.625 255.373" stroke="black" stroke-width="2" stroke-linecap="round" stroke-linejoin="round"/>
<path d="M107.624 339.028C106.605 336.46 105.551 333.876 104.983 331.065C104.38 327.837 104.243 324.495 104.189 321.203C104.336 309.843 105.943 298.538 106.458 287.203C106.678 281.551 107.06 274.986 104.317 269.943C102.965 267.568 101.367 267.791 100.593 269.889C99.8338 271.694 99.5937 274.917 99.5202 277.872C99.3977 281.576 99.3487 285.28 99.3242 288.983" stroke="black" stroke-width="2" stroke-linecap="round" stroke-linejoin="round"/>
<path d="M348.668 211.535C351.015 223.222 353.597 235.152 353.175 247.116C353.136 250.597 352.347 254.004 352.259 257.46C352.186 259.443 352.411 261.436 352.637 263.41" stroke="black" stroke-width="2" stroke-linecap="round" stroke-linejoin="round"/>
<path d="M555.429 634.195C555.64 636.655 555.831 639.124 555.625 641.603C555.091 646.879 553.66 652.13 553.812 657.48C553.954 664.655 556.37 671.715 557.345 678.835C557.639 680.7 557.991 682.574 558.04 684.379C558.109 686.853 557.668 689.203 557.232 691.549" stroke="black" stroke-width="2" stroke-linecap="round" stroke-linejoin="round"/>
<path d="M385.473 192.539C386.898 195.202 388.309 197.879 389.534 200.646C392.974 208.242 394.561 216.433 395.923 224.6C397.741 233.798 397.006 243.08 396.296 252.446" stroke="black" stroke-width="2" stroke-linecap="round" stroke-linejoin="round"/>
<path d="M203.609 605.338C206.206 605.283 208.744 605.144 211.238 605.254C214.859 605.244 216.931 607.396 218.024 610.614C220.576 617.729 222.345 625.365 221.919 633.006C221.875 639.883 219.934 646.363 216.955 652.457" stroke="black" stroke-width="2" stroke-linecap="round" stroke-linejoin="round"/>
<path d="M403.874 89.8915C395.378 84.1597 386.545 78.7848 376.853 75.5172C370.352 73.4347 363.473 72.7753 356.962 70.6779C350.587 68.7342 343.939 68.2631 337.354 67.8268C334.958 67.683 332.518 67.5095 330.118 67.4847C328.236 67.4401 326.017 67.7425 324.713 68.754C324.253 69.0714 323.827 69.4383 323.41 69.8052" stroke="black" stroke-width="2" stroke-linecap="round" stroke-linejoin="round"/>
<path d="M382.586 93.1797C384.688 95.6985 386.809 98.2025 389.034 100.612C392.743 104.698 396.804 108.59 399.352 113.395C401.571 117.535 402.747 122.146 404.829 126.361C406.255 129.331 407.96 132.167 409.459 135.103C413.369 142.808 415.981 151.198 417.583 159.661" stroke="black" stroke-width="2" stroke-linecap="round" stroke-linejoin="round"/>
<path d="M235.723 259.395C243.709 269.163 250.054 280.993 251.386 293.746C252.729 310.976 248.422 325.772 242.219 341.584" stroke="black" stroke-width="2" stroke-linecap="round" stroke-linejoin="round"/>
<path d="M335.317 183.043C336.914 194.328 339.124 205.683 337.399 217.097C336.885 221.629 336.733 226.181 336.41 230.728C336.062 235.334 335.185 239.876 334.234 244.418" stroke="black" stroke-width="2" stroke-linecap="round" stroke-linejoin="round"/>
<path d="M369.596 200.577C367.994 197.066 365.49 191.285 363.408 188.875C360.772 185.974 362.575 192.757 362.894 193.982C364.123 198.544 364.75 203.239 365.936 207.816C366.681 210.801 367.587 213.746 368.332 216.726C370.488 225.517 370.679 234.68 370.326 243.68" stroke="black" stroke-width="2" stroke-linecap="round" stroke-linejoin="round"/>
<path d="M381.139 630.542C375.402 633.056 371.306 632.57 365.505 630.845C358.832 628.955 352.223 627.002 345.398 626.114C342.091 625.688 338.789 625.187 335.496 624.701" stroke="black" stroke-width="2" stroke-linecap="round" stroke-linejoin="round"/>
<path d="M433.468 335.008C433.414 339.411 433.752 343.834 433.35 348.227C432.948 352.764 431.41 357.112 430.126 361.535C428.892 365.705 427.76 369.905 426.613 374.1" stroke="black" stroke-width="2" stroke-linecap="round" stroke-linejoin="round"/>
<path d="M209.744 565.885C211.89 568.552 214.04 571.314 215.339 574.488C217.72 580.324 217.72 587.032 215.398 593.037C213.742 597.137 211.204 600.787 209.023 604.61" stroke="black" stroke-width="2" stroke-linecap="round" stroke-linejoin="round"/>
<path d="M280.108 77.1035C278.937 78.9381 277.752 80.7529 276.291 82.3643C274.635 84.2188 272.651 85.8005 270.789 87.4566C267.678 90.1638 264.802 93.129 261.965 96.1486C257.002 101.305 252.426 106.978 246.547 111.083" stroke="black" stroke-width="2" stroke-linecap="round" stroke-linejoin="round"/>
<path d="M318.352 305.422C321.35 308.575 324.966 310.822 329.116 311.997C337.768 314.709 346.783 316.871 355.877 316.747" stroke="black" stroke-width="2" stroke-linecap="round" stroke-linejoin="round"/>
<path d="M268.918 213.727C268.55 219.002 267.164 224.05 265.283 228.954C260.104 244.082 254.646 259.284 251.961 275.096" stroke="black" stroke-width="2" stroke-linecap="round" stroke-linejoin="round"/>
<path d="M163.556 177.928C163.644 180.566 163.698 183.208 163.326 185.821C162.444 191.618 160.317 197.171 158.779 202.809C156.496 210.752 155.251 218.963 151.106 226.148C147.652 232.539 143.39 238.435 139.681 244.667C136.731 249.497 134.453 254.708 131.749 259.671C127.809 266.762 122.596 273.297 116.648 278.751" stroke="black" stroke-width="2" stroke-linecap="round" stroke-linejoin="round"/>
<path d="M425.888 374.461C426.305 377.114 426.633 379.509 426.275 382.275C425.472 389.311 423.164 395.916 419.235 401.856C417.256 405.242 414.36 407.444 410.734 408.798" stroke="black" stroke-width="2" stroke-linecap="round" stroke-linejoin="round"/>
<path d="M288.764 369.35C281.948 372.235 274.663 377.233 274.511 385.484C274.325 389.089 275.3 392.827 274.81 396.363C273.967 403.954 266.863 405.114 260.621 405.878" stroke="black" stroke-width="2" stroke-linecap="round" stroke-linejoin="round"/>
<path d="M123.865 173.182C118.589 183.153 115.365 194.136 112.665 205.059C111.729 208.56 111.372 212.472 111.955 215.923" stroke="black" stroke-width="2" stroke-linecap="round" stroke-linejoin="round"/>
<path d="M209.923 285.876C200.35 283.407 188.322 283.521 178.978 286.858C175.142 288.35 171.384 290.115 167.523 291.538" stroke="black" stroke-width="2" stroke-linecap="round" stroke-linejoin="round"/>
<path d="M190.258 747.807C188.337 762.181 192.541 776.446 196.392 790.181" stroke="black" stroke-width="2" stroke-linecap="round" stroke-linejoin="round"/>
<path d="M428.051 299.942C430.559 291.805 429.888 282.761 431.882 274.5C434.205 266.597 437.624 273.881 437.698 278.819C437.943 283.53 436.762 288.171 435.914 292.777C434.66 299.104 434.062 305.54 433.46 311.996" stroke="black" stroke-width="2" stroke-linecap="round" stroke-linejoin="round"/>
<path d="M200.361 704.699C188.97 712.395 177.554 720.154 166.805 728.812" stroke="black" stroke-width="2" stroke-linecap="round" stroke-linejoin="round"/>
<path d="M498.413 757.67C489.423 764.517 480.682 771.732 471.79 778.763C469.36 780.677 466.743 782.348 464.137 783.969" stroke="black" stroke-width="2" stroke-linecap="round" stroke-linejoin="round"/>
<path d="M319.08 83.6797C325.582 96.4475 327.542 110.876 326.993 125.097C326.9 141.425 325.494 148.079 317.277 162.22" stroke="black" stroke-width="2" stroke-linecap="round" stroke-linejoin="round"/>
<path d="M188.813 750.365C183.522 753.082 178.534 756.499 172.807 758.13C170.881 758.72 168.819 759.166 167.06 760.103C164.419 761.467 162.753 763.986 160.637 765.582C157.56 768.062 153.356 767.541 149.843 768.984C147.286 769.986 144.924 771.513 142.303 772.38C139.515 773.362 136.477 773.645 133.342 773.689C128.952 773.848 124.934 773.203 120.98 771.552" stroke="black" stroke-width="2" stroke-linecap="round" stroke-linejoin="round"/>
<path d="M223.457 670.362C230.076 671.721 236.735 672.792 243.437 673.565C250.83 674.433 258.199 675.787 265.651 676.312C271.398 676.65 277.14 677.111 282.887 677.378C292.794 677.696 302.814 675.96 312.647 674.85C323.999 673.332 315.645 667.437 314.185 661.085C313.22 657.406 313.357 653.504 313.808 649.746C314.974 636.73 323.734 629.932 334.954 625.43" stroke="black" stroke-width="2" stroke-linecap="round" stroke-linejoin="round"/>
<path d="M262.785 47.8789C275.396 51.796 285.293 47.8541 294.539 59.9327" stroke="black" stroke-width="2" stroke-linecap="round" stroke-linejoin="round"/>
<path d="M425.523 375.195C423.309 379.236 421.104 383.312 419.634 387.705C416.553 398.029 416.891 404.073 407.121 410.633" stroke="black" stroke-width="2" stroke-linecap="round" stroke-linejoin="round"/>
<path d="M315.111 639.312C302.529 642.684 290.197 647.246 277.145 648.381C271.535 648.942 265.886 648.322 260.262 648.446" stroke="black" stroke-width="2" stroke-linecap="round" stroke-linejoin="round"/>
<path d="M147.316 254.644C150.815 251.154 154.573 247.534 159.379 246.329C163.161 245.298 168.418 245.843 169.692 250.221C170.888 254.099 169.477 259.186 169.183 263.728C168.634 268.513 168.776 275.707 167.306 279.738C165.489 283.839 163.421 277.289 162.838 275.469C160.388 267.61 158.223 259.642 155.979 251.719" stroke="black" stroke-width="2" stroke-linecap="round" stroke-linejoin="round"/>
<path d="M134.325 229.801C132.444 232.716 130.71 235.746 129.45 239.008C128.093 242.291 126.555 245.549 125.149 248.851C123.209 253.056 121.881 257.374 121.332 261.946" stroke="black" stroke-width="2" stroke-linecap="round" stroke-linejoin="round"/>
<path d="M143.708 525.336C141.738 529.833 139.778 534.454 137.231 538.808C132.581 546.092 130.499 554.372 130.714 562.965" stroke="black" stroke-width="2" stroke-linecap="round" stroke-linejoin="round"/>
<path d="M253.766 370.079C256.019 368.76 258.263 367.436 261.056 366.608C266.774 365.051 272.996 363.806 277.69 360.028C279.796 358.298 281.575 355.848 280.987 353.087C279.287 346.016 264.348 346.13 259.596 349.482C256.725 351.316 256.406 354.782 258.552 357.415C260.987 360.643 265.054 362.319 268.562 364.233" stroke="black" stroke-width="2" stroke-linecap="round" stroke-linejoin="round"/>
<path d="M56.7459 435.836C62.5763 442.505 73.7275 452.134 66.3146 461.317C63.9628 464.109 60.5577 466.127 58.7351 469.345C57.0056 472.315 56.1629 475.746 55.3496 479.083C53.8749 485.454 52.6451 491.89 51.332 498.306" stroke="black" stroke-width="2" stroke-linecap="round" stroke-linejoin="round"/>
<path d="M31.1286 575.018C26.822 579.098 23.1866 583.873 18.4341 587.428C15.2936 589.823 10.8645 591.281 8.18937 593.646C5.97972 595.511 5.04392 598.362 4.83814 601.213C4.23061 613.683 4.59317 626.208 4.11792 638.703C3.87785 645.506 3.59858 652.368 5.14681 659.042" stroke="black" stroke-width="2" stroke-linecap="round" stroke-linejoin="round"/>
<path d="M300.314 215.918C299.486 220.762 298.663 225.602 298.79 230.441C298.854 233.565 299.231 236.669 299.584 239.773C299.957 242.956 300.339 246.144 300.995 249.283C301.985 254.162 303.866 258.788 305.733 263.409" stroke="black" stroke-width="2" stroke-linecap="round" stroke-linejoin="round"/>
<path d="M379.701 188.891C381.715 200.632 382.416 212.577 381.74 224.472C380.887 234.106 378.962 243.576 377.898 253.181" stroke="black" stroke-width="2" stroke-linecap="round" stroke-linejoin="round"/>
<path d="M452.225 834.018C453.724 831.831 456.836 828.043 454.739 825.499C453.837 824.408 451.892 823.427 450.285 822.281C449.232 821.538 448.315 820.615 447.473 819.643C446.4 818.563 445.234 816.554 443.641 816.743C442.671 817.045 442.123 817.908 441.402 818.677" stroke="black" stroke-width="2" stroke-linecap="round" stroke-linejoin="round"/>
<path d="M208.658 699.586C209.677 702.923 210.897 706.225 212.818 709.151C214.342 711.6 216.243 713.633 216.546 715.78C216.909 719.806 206.909 718.056 204.332 718.215" stroke="black" stroke-width="2" stroke-linecap="round" stroke-linejoin="round"/>
<path d="M83.0859 557.117C87.9511 557.286 92.8555 557.206 97.6765 557.97C103.139 558.848 108.269 561.451 113.757 562.502C119.215 563.652 124.81 563.751 130.361 563.325" stroke="black" stroke-width="2" stroke-linecap="round" stroke-linejoin="round"/>
<path d="M281.191 213.727C279.824 217.812 278.476 221.908 276.864 225.899C274.209 232.549 270.618 238.801 268.031 245.495C266.478 249.457 265.189 253.517 263.871 257.563" stroke="black" stroke-width="2" stroke-linecap="round" stroke-linejoin="round"/>
<path d="M76.2311 234.918C74.9768 244.919 74.4868 255.044 76.9513 264.871" stroke="black" stroke-width="2" stroke-linecap="round" stroke-linejoin="round"/>
<path d="M93.1872 561.135C83.0159 564.244 72.8153 567.467 63.957 573.555" stroke="black" stroke-width="2" stroke-linecap="round" stroke-linejoin="round"/>
<path d="M448.622 168.432C448.402 180.143 455.785 183.148 453.311 196.927" stroke="black" stroke-width="2" stroke-linecap="round" stroke-linejoin="round"/>
<path d="M188.092 208.613C187.71 213.641 186.269 218.436 184.961 223.27C183.364 229.666 182.511 236.221 180.875 242.588" stroke="black" stroke-width="2" stroke-linecap="round" stroke-linejoin="round"/>
<path d="M188.454 205.693C185.098 210.924 182.673 216.646 180.184 222.403C178.004 227.322 175.838 232.285 174.383 237.476" stroke="black" stroke-width="2" stroke-linecap="round" stroke-linejoin="round"/>
<path d="M128.915 167.336C118.685 177.436 106.343 185.3 96.4414 195.832" stroke="black" stroke-width="2" stroke-linecap="round" stroke-linejoin="round"/>
<path d="M421.918 270.719C423.843 280.219 425.769 289.714 427.69 299.214" stroke="black" stroke-width="2" stroke-linecap="round" stroke-linejoin="round"/>
<path d="M198.194 233.824C196.464 225.365 197.822 222.355 199.693 214.466C199.987 213.073 200.193 210.281 198.277 212.136C197.185 213.177 195.71 215.681 194.563 218.14C191.374 224.71 189.184 231.776 187.371 238.936" stroke="black" stroke-width="2" stroke-linecap="round" stroke-linejoin="round"/>
<path d="M541.355 728.812C545.324 732.303 548.92 736.186 551.821 740.589C554.638 745.235 555.804 748.636 560.841 751.095" stroke="black" stroke-width="2" stroke-linecap="round" stroke-linejoin="round"/>
<path d="M439.238 134.457C440.458 135.607 441.703 136.733 442.834 137.973C444.593 139.877 445.955 142.222 447.494 144.458C450.634 148.841 453.03 153.572 453.672 158.936" stroke="black" stroke-width="2" stroke-linecap="round" stroke-linejoin="round"/>
<path d="M432.742 321.492C436.52 324.051 436.49 327.125 436.236 331.726C436.064 336.427 435.912 341.058 434.908 345.605" stroke="black" stroke-width="2" stroke-linecap="round" stroke-linejoin="round"/>
<path d="M420.834 257.562C418.576 261.445 416.719 265.565 414.455 269.443C411.609 274.183 407.895 278.353 404.598 282.766" stroke="black" stroke-width="2" stroke-linecap="round" stroke-linejoin="round"/>
<path d="M209.742 95.0039C205.259 99.0598 200.849 103.15 196.092 106.859C192.897 109.403 189.914 112.219 186.758 114.793C183.388 117.455 179.777 119.89 176.543 122.771" stroke="black" stroke-width="2" stroke-linecap="round" stroke-linejoin="round"/>
<path d="M297.066 668.17C298.492 662.205 299.58 656.171 301.358 650.345C301.809 649.075 303.563 644.018 305.116 644.776C305.861 645.55 305.709 647.548 305.68 648.897C305.567 651.034 305.371 653.28 305.425 655.437C305.518 661.907 307.409 668.16 308.972 674.378" stroke="black" stroke-width="2" stroke-linecap="round" stroke-linejoin="round"/>
<path d="M403.517 219.756C402.527 228.889 401.356 238.27 397.383 246.605" stroke="black" stroke-width="2" stroke-linecap="round" stroke-linejoin="round"/>
<path d="M271.082 649.537C269.813 657.961 270.646 666.961 275.051 674.379" stroke="black" stroke-width="2" stroke-linecap="round" stroke-linejoin="round"/>
<path d="M313.302 646.984C312.66 648.016 312.018 649.052 311.509 650.153C310.21 652.835 310.034 655.959 309.711 659.023C309.319 662.985 308.971 666.947 308.613 670.913" stroke="black" stroke-width="2" stroke-linecap="round" stroke-linejoin="round"/>
<path d="M278.663 71.625C273.313 72.8249 270.57 75.1504 267.076 79.2807C263.627 83.1879 259.957 86.8273 255.832 89.971C251.177 93.4021 246.636 97.0019 242.652 101.226C238.36 105.689 233.672 109.844 230.227 115.055C227.067 119.875 224.671 125.175 221.648 130.074" stroke="black" stroke-width="2" stroke-linecap="round" stroke-linejoin="round"/>
<path d="M154.535 221.766C154.981 226.496 155.829 231.182 156.034 235.937C156.118 240.95 155.642 245.987 156.343 250.99" stroke="black" stroke-width="2" stroke-linecap="round" stroke-linejoin="round"/>
<path d="M166.805 729.54C160.406 722.271 157.628 733.195 144.434 732.461" stroke="black" stroke-width="2" stroke-linecap="round" stroke-linejoin="round"/>
<path d="M367.788 215.918C368.278 223.598 368.126 231.269 367.426 238.935" stroke="black" stroke-width="2" stroke-linecap="round" stroke-linejoin="round"/>
<path d="M376.813 302.864C370.704 301.753 364.839 299.507 358.857 297.95C355.506 297.082 352.115 296.452 348.622 295.952C337.456 294.434 326.756 294.762 319.078 304.326" stroke="black" stroke-width="2" stroke-linecap="round" stroke-linejoin="round"/>
<path d="M83.4492 260.488C84.2821 263.528 85.1689 266.557 85.894 269.627C86.7955 273.836 87.6236 278.021 89.9459 281.675" stroke="black" stroke-width="2" stroke-linecap="round" stroke-linejoin="round"/>
<path d="M177.99 608.626C173.438 611.874 168.083 614.903 162.39 614.135C159.083 613.654 157.672 611.705 160.768 610.362C163.673 609.216 167.23 609.3 170.361 608.919C181.302 607.625 192.276 607.099 203.251 606.439" stroke="black" stroke-width="2" stroke-linecap="round" stroke-linejoin="round"/>
<path d="M407.484 203.865C410.11 211.962 411.35 220.57 410.733 229.074" stroke="black" stroke-width="2" stroke-linecap="round" stroke-linejoin="round"/>
<path d="M286.602 672.553C287.547 665.686 287.684 658.615 289.576 651.951C290.168 649.903 292.799 645.198 294.063 649.383C294.514 651.009 294.495 653.126 294.519 654.916C294.524 661.902 295.857 668.715 297.429 675.478" stroke="black" stroke-width="2" stroke-linecap="round" stroke-linejoin="round"/>
<path d="M113.037 115.096C110.734 119.414 107.579 123.009 104.056 126.431C100.499 130.134 96.7509 133.511 92.4688 136.283" stroke="black" stroke-width="2" stroke-linecap="round" stroke-linejoin="round"/>
<path d="M244.744 373.733C244.102 371.001 244.612 369.722 247.409 369.549C250.726 369.444 254.357 370.054 257.556 371.081C261.809 372.469 265.689 375.196 269.981 376.332C271.759 376.827 273.587 377.11 275.41 377.383" stroke="black" stroke-width="2" stroke-linecap="round" stroke-linejoin="round"/>
<path d="M257.373 797.489C261.777 804.693 271.405 819.023 271.513 827.14C271.513 829.594 270.773 832.763 268.147 832.941C264.913 832.941 262.027 828.751 259.818 826.411C256.878 823.188 254.066 819.816 251.547 816.241C245.947 808.472 241.646 799.864 237.236 791.37C233.008 783.258 228.295 775.459 223.473 767.709C213.616 752.174 205.693 736.481 203.969 717.848" stroke="black" stroke-width="2" stroke-linecap="round" stroke-linejoin="round"/>
<path d="M241.496 648.078C241.34 652.655 241.031 657.231 241.188 661.793C241.345 664.971 242.741 667.867 244.745 670.361" stroke="black" stroke-width="2" stroke-linecap="round" stroke-linejoin="round"/>
<path d="M266.758 226.881C266.788 235.786 263.26 244.19 262.765 253.026C262.658 258.104 262.863 263.156 261.707 268.159" stroke="black" stroke-width="2" stroke-linecap="round" stroke-linejoin="round"/>
<path d="M235.723 300.305C231.357 308.01 223.665 307.514 215.875 307.975" stroke="black" stroke-width="2" stroke-linecap="round" stroke-linejoin="round"/>
<path d="M216.958 663.055C216.918 664.121 216.874 665.192 217.046 666.253C217.325 668.053 218.246 669.694 218.604 671.474C219.04 673.581 218.315 675.758 218.065 677.945C217.791 679.913 217.864 681.906 218.045 683.88" stroke="black" stroke-width="2" stroke-linecap="round" stroke-linejoin="round"/>
<path d="M300.676 218.844C302.464 225.701 303.699 232.752 306.447 239.302" stroke="black" stroke-width="2" stroke-linecap="round" stroke-linejoin="round"/>
<path d="M371.758 210.078C371.822 218.344 372.478 226.694 371.758 234.92" stroke="black" stroke-width="2" stroke-linecap="round" stroke-linejoin="round"/>
<path d="M282.27 648.441C282.544 651.169 282.813 653.896 283.088 656.623C283.524 661.274 283.95 665.845 286.057 669.995" stroke="black" stroke-width="2" stroke-linecap="round" stroke-linejoin="round"/>
<path d="M135.409 250.988C133.238 253.284 131.097 255.605 129.108 258.064C127.06 260.543 125.282 263.33 122.959 265.353C120.691 267.396 117.976 268.819 115.434 270.465C113.542 271.61 111.142 273.638 110.426 275.502C110.039 276.449 110.201 277.054 110.848 277.114C114.419 276.856 117.785 271.437 119.53 268.159" stroke="black" stroke-width="2" stroke-linecap="round" stroke-linejoin="round"/>
<path d="M268.559 649.176C266.874 655.751 265.193 662.325 263.508 668.9" stroke="black" stroke-width="2" stroke-linecap="round" stroke-linejoin="round"/>
<path d="M97.1582 288.979C96.7761 285.251 96.4919 281.502 95.8942 277.798C95.561 275.136 93.3415 266.796 91.2593 270.088C90.5684 271.347 90.3284 274.298 90.3186 277.387C90.2696 282.757 91.0584 288.117 92.1069 293.358" stroke="black" stroke-width="2" stroke-linecap="round" stroke-linejoin="round"/>
<path d="M252.679 648.441C251.895 653.975 250.734 659.642 251.41 665.196C251.67 667.412 251.979 669.619 252.322 671.82" stroke="black" stroke-width="2" stroke-linecap="round" stroke-linejoin="round"/>
<path d="M255.21 91.3496C252.397 101.053 245.778 109.051 242.941 118.75" stroke="black" stroke-width="2" stroke-linecap="round" stroke-linejoin="round"/>
<path d="M370.499 302.496C368.015 305.56 364.879 307.98 361.273 309.507C357.305 311.466 352.983 312.041 348.672 311.267" stroke="black" stroke-width="2" stroke-linecap="round" stroke-linejoin="round"/>
<path d="M78.0352 216.652C78.5055 223.688 78.2605 230.823 79.4805 237.78C80.3428 242.322 82.3124 246.67 82.7582 251.257C83.0571 254.024 82.9003 256.81 82.7239 259.582" stroke="black" stroke-width="2" stroke-linecap="round" stroke-linejoin="round"/>
<path d="M566.613 764.611C565.907 759.901 563.717 755.736 562.125 751.318C560.836 747.515 560.307 743.509 557.799 740.4C556.04 737.891 553.242 737.177 550.371 737.216" stroke="black" stroke-width="2" stroke-linecap="round" stroke-linejoin="round"/>
<path d="M351.191 257.201C342.891 252.5 340.647 256.041 332.426 255.738" stroke="black" stroke-width="2" stroke-linecap="round" stroke-linejoin="round"/>
<path d="M82.0049 267.43C81.6326 265.561 81.2651 263.414 81.2406 261.658C81.1916 259.278 81.9217 259.631 82.4606 261.53C83.7198 266.919 84.3224 273.806 85.2533 279.484" stroke="black" stroke-width="2" stroke-linecap="round" stroke-linejoin="round"/>
<path d="M448.977 278.756C447.36 284.81 446.41 291.216 442.48 296.289" stroke="black" stroke-width="2" stroke-linecap="round" stroke-linejoin="round"/>
<path d="M220.209 418.299C217.867 418.591 215.579 419.251 213.271 419.737C209.704 420.476 206.113 419.662 202.531 419.028" stroke="black" stroke-width="2" stroke-linecap="round" stroke-linejoin="round"/>
<path d="M339.285 188.891C342.269 194.479 344.322 200.483 346.502 206.423" stroke="black" stroke-width="2" stroke-linecap="round" stroke-linejoin="round"/>
<path d="M332.789 224.689V242.222" stroke="black" stroke-width="2" stroke-linecap="round" stroke-linejoin="round"/>
<path d="M218.76 49.3421C203.68 48.7372 196.252 54.9104 182.676 58.8423" stroke="black" stroke-width="2" stroke-linecap="round" stroke-linejoin="round"/>
<path d="M375.367 238.568C374.108 244.31 373.211 250.136 371.398 255.739" stroke="black" stroke-width="2" stroke-linecap="round" stroke-linejoin="round"/>
<path d="M281.911 650.271C276.379 661.914 274.248 662.365 275.414 675.842" stroke="black" stroke-width="2" stroke-linecap="round" stroke-linejoin="round"/>
<path d="M234.999 258.659C233.387 250.354 233.603 249.957 225.254 247.334" stroke="black" stroke-width="2" stroke-linecap="round" stroke-linejoin="round"/>
<path d="M326.297 675.113C331.299 678.014 336.85 679.546 342.534 678.401" stroke="black" stroke-width="2" stroke-linecap="round" stroke-linejoin="round"/>
<path d="M481.813 840.231C474.096 842.135 465.606 843.543 458.359 839.502" stroke="black" stroke-width="2" stroke-linecap="round" stroke-linejoin="round"/>
<path d="M327.016 723.695C328.451 724.261 329.877 724.856 331.18 725.689C333.517 727.156 335.394 729.477 337.804 730.964C341.699 733.409 346.452 734.569 350.832 736.116" stroke="black" stroke-width="2" stroke-linecap="round" stroke-linejoin="round"/>
<path d="M136.489 226.148C133.295 234.826 131.565 244.147 127.494 252.448C124.863 257.446 121.825 262.26 119.527 267.432" stroke="black" stroke-width="2" stroke-linecap="round" stroke-linejoin="round"/>
<path d="M241.133 344.508C232.912 353.973 227.758 357.742 233.196 370.812" stroke="black" stroke-width="2" stroke-linecap="round" stroke-linejoin="round"/>
<path d="M566.251 765.34C565.55 770.363 565.065 775.445 563.723 780.319" stroke="black" stroke-width="2" stroke-linecap="round" stroke-linejoin="round"/>
<path d="M238.971 281.676C238.858 286.872 239.946 293.829 236.325 297.895C234.748 299.561 232.489 300.18 230.309 300.676" stroke="black" stroke-width="2" stroke-linecap="round" stroke-linejoin="round"/>
<path d="M443.926 286.789C443.446 289.238 443.054 291.723 442.456 294.147C440.702 300.876 437.498 307.232 434.372 313.232C431.986 317.645 431.457 322.792 430.82 327.745C429.938 335.312 429.747 341.128 425.523 347.792" stroke="black" stroke-width="2" stroke-linecap="round" stroke-linejoin="round"/>
<path d="M406.761 194.73C407.167 199.277 406.913 203.824 406.173 208.316C405.722 211.881 405.002 215.471 403.875 218.843" stroke="black" stroke-width="2" stroke-linecap="round" stroke-linejoin="round"/>
<path d="M380.781 261.953C382.447 264.869 384.588 267.695 387.778 268.954C390.477 269.936 393.363 270.134 395.935 271.453" stroke="black" stroke-width="2" stroke-linecap="round" stroke-linejoin="round"/>
<path d="M79.1158 240.398C78.7924 241.316 78.469 242.238 78.2976 243.195C77.8664 245.307 78.4347 247.449 78.91 249.596C79.6302 252.889 80.6248 256.131 81.6439 259.394" stroke="black" stroke-width="2" stroke-linecap="round" stroke-linejoin="round"/>
<path d="M239.329 647.713C234.729 653.058 233.215 659.712 233.195 666.708" stroke="black" stroke-width="2" stroke-linecap="round" stroke-linejoin="round"/>
<path d="M77.3147 210.078C77.0942 213.073 76.8492 216.078 76.6777 219.068C76.5405 220.659 76.9717 222.186 77.6772 223.595" stroke="black" stroke-width="2" stroke-linecap="round" stroke-linejoin="round"/>
<path d="M186.648 241.127C181.528 249.551 181.974 252.596 184.12 261.947" stroke="black" stroke-width="2" stroke-linecap="round" stroke-linejoin="round"/>
<path d="M236.809 296.656C233.124 293.934 229.474 290.324 225.192 288.871C222.208 287.77 219.234 289.198 216.961 291.177" stroke="black" stroke-width="2" stroke-linecap="round" stroke-linejoin="round"/>
<path d="M238.973 47.8789H225.984" stroke="black" stroke-width="2" stroke-linecap="round" stroke-linejoin="round"/>
<path d="M233.922 414.648C229.591 415.744 225.26 416.84 220.934 417.936" stroke="black" stroke-width="2" stroke-linecap="round" stroke-linejoin="round"/>
<path d="M379.699 260.852C385.157 261.794 389.846 265.071 393.413 269.256" stroke="black" stroke-width="2" stroke-linecap="round" stroke-linejoin="round"/>
<path d="M442.484 821.965C444.317 825.163 446.154 828.44 448.81 831.024C450.657 832.883 453.121 834.321 454.699 836.027C458.486 839.785 456.712 845.413 456.193 850.094" stroke="black" stroke-width="2" stroke-linecap="round" stroke-linejoin="round"/>
<path d="M216.961 246.238C221.62 248.598 225.608 251.945 229.229 255.738" stroke="black" stroke-width="2" stroke-linecap="round" stroke-linejoin="round"/>
<path d="M189.535 240.031C192.793 250.746 201.211 248.609 209.02 253.915" stroke="black" stroke-width="2" stroke-linecap="round" stroke-linejoin="round"/>
<path d="M316.191 305.055C318.352 304.901 320.537 304.817 322.669 305.263C325.75 305.977 328.523 307.564 331.708 306.88" stroke="black" stroke-width="2" stroke-linecap="round" stroke-linejoin="round"/>
<path d="M429.137 310.9C429.431 315.046 429.656 319.181 429.857 323.321" stroke="black" stroke-width="2" stroke-linecap="round" stroke-linejoin="round"/>
<path d="M225.978 638.945C223.528 644.494 222.136 649.769 225.076 655.382" stroke="black" stroke-width="2" stroke-linecap="round" stroke-linejoin="round"/>
<path d="M284.435 55.5506C280.814 52.8731 276.978 53.845 272.887 54.4548" stroke="black" stroke-width="2" stroke-linecap="round" stroke-linejoin="round"/>
<path d="M238.972 49.3418L227.066 50.4376" stroke="black" stroke-width="2" stroke-linecap="round" stroke-linejoin="round"/>
<path d="M56.3823 507.434C54.1628 506.993 51.6494 506.656 50.1453 504.806C48.2394 502.387 49.6847 499.308 52.546 499.313C56.2843 499.367 59.9295 501.187 63.5992 501.955" stroke="black" stroke-width="2" stroke-linecap="round" stroke-linejoin="round"/>
<path d="M109.432 361.312C104.778 359.329 104.866 362.691 107.262 365.874C107.909 366.905 108.986 367.426 110.153 367.525" stroke="black" stroke-width="2" stroke-linecap="round" stroke-linejoin="round"/>
<path d="M261.7 253.914C259.608 257.603 257.623 261.347 255.203 264.872" stroke="black" stroke-width="2" stroke-linecap="round" stroke-linejoin="round"/>
<path d="M250.517 648.078C244.951 654.321 244.995 660.231 244.383 668.169" stroke="black" stroke-width="2" stroke-linecap="round" stroke-linejoin="round"/>
<path d="M344.337 61.0293C337.36 61.2723 330.383 61.5152 323.406 61.7582" stroke="black" stroke-width="2" stroke-linecap="round" stroke-linejoin="round"/>
<path d="M566.977 765.34C569.142 768.87 571.308 772.401 573.473 775.936" stroke="black" stroke-width="2" stroke-linecap="round" stroke-linejoin="round"/>
<path d="M231.393 645.154C229.409 648.913 226.705 652.602 225.656 656.673C224.951 659.102 225.357 661.755 224.745 664.18C224.402 665.484 223.75 666.649 223.094 667.809" stroke="black" stroke-width="2" stroke-linecap="round" stroke-linejoin="round"/>
<path d="M251.96 44.9588C248.354 44.4729 244.743 43.987 241.137 43.4961" stroke="black" stroke-width="2" stroke-linecap="round" stroke-linejoin="round"/>
<path d="M357.327 63.2211C353.721 62.9781 350.11 62.7351 346.504 62.4922" stroke="black" stroke-width="2" stroke-linecap="round" stroke-linejoin="round"/>
<path d="M172.219 243.686C175.443 245.952 178.975 247.489 182.596 248.689C185.178 249.576 187.77 250.508 190.513 250.35C191.758 250.305 192.997 250.097 194.232 249.893" stroke="black" stroke-width="2" stroke-linecap="round" stroke-linejoin="round"/>
<path d="M98.2422 288.25C99.178 299.739 100.035 311.411 102.931 322.587" stroke="black" stroke-width="2" stroke-linecap="round" stroke-linejoin="round"/>
<path d="M267.477 817.215C267.349 820.829 267.207 824.404 266.031 827.811" stroke="black" stroke-width="2" stroke-linecap="round" stroke-linejoin="round"/>
<path d="M221.65 45.6875C217.98 45.7123 214.477 46.7436 211.547 48.9749" stroke="black" stroke-width="2" stroke-linecap="round" stroke-linejoin="round"/>
<path d="M224.537 246.973C220.833 244.796 216.624 244.667 212.376 244.345C210.054 244.117 207.736 243.894 205.414 243.686" stroke="black" stroke-width="2" stroke-linecap="round" stroke-linejoin="round"/>
<path d="M454.754 177.926C453.667 174.996 452.315 172.239 450.663 169.626C449.164 167.186 447.523 164.821 446.514 162.124C445.524 159.352 444.975 156.506 445.828 154.755C447.508 152.375 451.687 158.162 452.951 159.476" stroke="black" stroke-width="2" stroke-linecap="round" stroke-linejoin="round"/>
<path d="M212.989 286.059C211.603 288.344 210.226 290.64 208.815 292.906C206.424 297.126 203.151 300.616 203.244 293.362" stroke="black" stroke-width="2" stroke-linecap="round" stroke-linejoin="round"/>
<path d="M428.773 120.574C434.785 127.724 439.832 135.687 441.404 145.049" stroke="black" stroke-width="2" stroke-linecap="round" stroke-linejoin="round"/>
<path d="M324.852 178.66C325.572 182.072 326.297 185.478 327.017 188.889" stroke="black" stroke-width="2" stroke-linecap="round" stroke-linejoin="round"/>
<path d="M222.732 677.666C219.004 683.145 215.275 688.624 211.547 694.103" stroke="black" stroke-width="2" stroke-linecap="round" stroke-linejoin="round"/>
<path d="M502.382 543.234C501.226 541.389 499.531 539.307 497.703 538.365C497.057 538.077 496.464 537.784 496.047 538.196C495.994 538.295 495.998 538.429 496.077 538.593C496.386 539.158 496.978 539.579 497.527 539.991C499.443 541.419 503 543.144 504.901 545.172C509.447 550.012 501.848 552.104 498.051 552.729" stroke="black" stroke-width="2" stroke-linecap="round" stroke-linejoin="round"/>
<path d="M363.461 73.0879C366.469 74.4266 369.473 75.7654 372.481 77.1042" stroke="black" stroke-width="2" stroke-linecap="round" stroke-linejoin="round"/>
<path d="M553.263 634.195C553.042 637.329 553.16 640.492 555.247 642.962" stroke="black" stroke-width="2" stroke-linecap="round" stroke-linejoin="round"/>
<path d="M375.732 265.602C375.169 269.886 380.539 268.864 383.312 268.889" stroke="black" stroke-width="2" stroke-linecap="round" stroke-linejoin="round"/>
<path d="M169.69 247.34C169.528 245.981 169.396 244.558 168.675 243.398C167.054 240.755 162.556 241.568 160.841 243.745C160.322 244.389 159.954 245.133 159.582 245.877" stroke="black" stroke-width="2" stroke-linecap="round" stroke-linejoin="round"/>
<path d="M439.6 812.102C439.355 815.498 439.81 818.805 441.765 821.602" stroke="black" stroke-width="2" stroke-linecap="round" stroke-linejoin="round"/>
<path d="M361.297 255.738C362.502 256.661 363.707 257.588 364.918 258.5C366.495 259.76 367.99 260.845 369.959 260.488" stroke="black" stroke-width="2" stroke-linecap="round" stroke-linejoin="round"/>
<path d="M237.527 374.461C242.128 375.79 247.047 376.459 251.241 378.844" stroke="black" stroke-width="2" stroke-linecap="round" stroke-linejoin="round"/>
<path d="M137.574 457.387C140.328 459.742 142.831 462.662 146.236 463.962" stroke="black" stroke-width="2" stroke-linecap="round" stroke-linejoin="round"/>
<path d="M428.052 118.75C427.724 119.831 427.312 120.917 427.18 122.047C426.994 123.465 428.15 125.062 429.502 125.92C430.467 126.535 431.624 126.673 432.741 126.783" stroke="black" stroke-width="2" stroke-linecap="round" stroke-linejoin="round"/>
<path d="M378.618 258.658C375.619 257.364 372.4 257.081 369.196 256.739C366.232 256.382 363.351 255.405 360.382 255.143C358.648 254.979 356.903 254.989 355.164 255.004" stroke="black" stroke-width="2" stroke-linecap="round" stroke-linejoin="round"/>
<path d="M72.9849 173.543C71.4416 178.953 70.8586 184.709 67.9336 189.618" stroke="black" stroke-width="2" stroke-linecap="round" stroke-linejoin="round"/>
<path d="M232.475 255.01C224.048 259.884 223.107 252.243 214.793 251.723" stroke="black" stroke-width="2" stroke-linecap="round" stroke-linejoin="round"/>
<path d="M189.895 664.516C189.552 668.577 186.799 669.087 183.398 669.995" stroke="black" stroke-width="2" stroke-linecap="round" stroke-linejoin="round"/>
<path d="M376.812 172.816C377.543 174.001 378.277 175.191 378.978 176.396C379.679 177.641 380.453 178.786 380.379 179.897C380.144 181.38 378.885 182.436 378.258 183.779" stroke="black" stroke-width="2" stroke-linecap="round" stroke-linejoin="round"/>
<path d="M102.572 560.406C100.172 561.105 95.3604 562.831 93.9102 560.039" stroke="black" stroke-width="2" stroke-linecap="round" stroke-linejoin="round"/>
<path d="M332.066 212.998V221.764" stroke="black" stroke-width="2" stroke-linecap="round" stroke-linejoin="round"/>
<path d="M332.069 246.605C332.387 251.688 331.745 256.716 330.266 261.585" stroke="black" stroke-width="2" stroke-linecap="round" stroke-linejoin="round"/>
<path d="M366.35 264.872C364.635 260.801 362.063 258.991 357.688 259.026" stroke="black" stroke-width="2" stroke-linecap="round" stroke-linejoin="round"/>
<path d="M259.541 648.441C253.04 647.489 246.328 648.407 239.875 646.979" stroke="black" stroke-width="2" stroke-linecap="round" stroke-linejoin="round"/>
<path d="M201.079 733.924C200.197 735.173 199.315 736.438 198.218 737.504C194.636 740.757 190.854 742.07 191.339 747.802" stroke="black" stroke-width="2" stroke-linecap="round" stroke-linejoin="round"/>
<path d="M540.63 727.715C541.203 732.048 539.704 734.751 535.941 736.848" stroke="black" stroke-width="2" stroke-linecap="round" stroke-linejoin="round"/>
<path d="M221.291 289.715C217.082 293.731 212.874 297.752 208.66 301.769" stroke="black" stroke-width="2" stroke-linecap="round" stroke-linejoin="round"/>
<path d="M223.725 289.715C219.516 293.731 215.307 297.752 211.094 301.769" stroke="black" stroke-width="2" stroke-linecap="round" stroke-linejoin="round"/>
<path d="M220.037 288.066C215.828 292.083 211.62 296.104 207.406 300.12" stroke="black" stroke-width="2" stroke-linecap="round" stroke-linejoin="round"/>
<path d="M216.798 286.539C212.761 290.392 208.724 294.244 204.691 298.097" stroke="black" stroke-width="2" stroke-linecap="round" stroke-linejoin="round"/>
<path d="M218.501 287.855C214.464 291.708 210.427 295.561 206.395 299.413" stroke="black" stroke-width="2" stroke-linecap="round" stroke-linejoin="round"/>
<path d="M214.79 286.254C211.14 289.621 207.49 292.982 203.84 296.349" stroke="black" stroke-width="2" stroke-linecap="round" stroke-linejoin="round"/>
<path d="M212.914 286.059C209.891 288.691 206.863 291.324 203.84 293.957" stroke="black" stroke-width="2" stroke-linecap="round" stroke-linejoin="round"/>
<path d="M225.257 291.424C222.234 294.057 219.207 296.69 216.184 299.323" stroke="black" stroke-width="2" stroke-linecap="round" stroke-linejoin="round"/>
<path d="M223.567 295.887C220.544 298.52 220.593 298.039 217.57 300.672" stroke="black" stroke-width="2" stroke-linecap="round" stroke-linejoin="round"/>
<path d="M210.453 286.059C208.052 288.186 205.647 290.308 203.246 292.435" stroke="black" stroke-width="2" stroke-linecap="round" stroke-linejoin="round"/>
<path d="M207.949 285.5C206.313 286.948 204.672 288.401 203.035 289.848" stroke="black" stroke-width="2" stroke-linecap="round" stroke-linejoin="round"/>
<path d="M110.872 216.652C110.509 219.573 110.152 222.498 109.789 225.419" stroke="black" stroke-width="2" stroke-linecap="round" stroke-linejoin="round"/>
<path d="M201.441 252.086C205.513 253.687 209.815 254.63 214.141 255.016C217.242 255.428 220.319 255.988 223.45 256.107" stroke="black" stroke-width="2" stroke-linecap="round" stroke-linejoin="round"/>
<path d="M170.773 248.068C173.277 248.901 175.879 249.754 178.353 248.435" stroke="black" stroke-width="2" stroke-linecap="round" stroke-linejoin="round"/>
<path d="M97.1562 549.809C97.7589 552.367 98.3566 554.921 98.9592 557.479" stroke="black" stroke-width="2" stroke-linecap="round" stroke-linejoin="round"/>
<path d="M199.996 421.953C202.882 422.563 205.768 423.173 208.658 423.778" stroke="black" stroke-width="2" stroke-linecap="round" stroke-linejoin="round"/>
<path d="M200.359 731.732C203.005 734.653 205.651 737.578 208.297 740.499" stroke="black" stroke-width="2" stroke-linecap="round" stroke-linejoin="round"/>
<path d="M439.238 294.824C439.204 297.725 437.067 299.797 439.238 302.495" stroke="black" stroke-width="2" stroke-linecap="round" stroke-linejoin="round"/>
<path d="M204.329 244.414C192.325 245.436 196.372 235.212 204.691 244.047" stroke="black" stroke-width="2" stroke-linecap="round" stroke-linejoin="round"/>
<path d="M468.462 776.303C467.134 778.316 465.777 780.319 464.783 782.52C463.744 784.767 462.906 787.251 461.26 789.289C460.006 790.865 458.443 792.174 456.914 793.469" stroke="black" stroke-width="2" stroke-linecap="round" stroke-linejoin="round"/>
<path d="M222.374 297.018C222.124 300.196 221.61 302.085 218.043 301.034" stroke="black" stroke-width="2" stroke-linecap="round" stroke-linejoin="round"/>
<path d="M115.923 275.463C116.594 281.195 114.252 284.918 109.789 288.251" stroke="black" stroke-width="2" stroke-linecap="round" stroke-linejoin="round"/>
<path d="M203.969 292.272C205.963 290.115 207.849 287.705 210.451 286.307C214.14 284.428 218.687 286.163 222.009 288.256" stroke="black" stroke-width="2" stroke-linecap="round" stroke-linejoin="round"/>
<path d="M216.958 287.156C215.395 289.472 213.832 291.782 212.27 294.098" stroke="black" stroke-width="2" stroke-linecap="round" stroke-linejoin="round"/>
<path d="M376.09 230.531C376.33 233.452 376.57 236.377 376.81 239.298" stroke="black" stroke-width="2" stroke-linecap="round" stroke-linejoin="round"/>
<path d="M170.41 244.414C172.336 241.052 174.81 237.388 179.097 237.542C185.006 237.914 190.679 240.036 196.392 241.489" stroke="black" stroke-width="2" stroke-linecap="round" stroke-linejoin="round"/>
<path d="M369.234 265.969C370.641 268.284 372.914 268.274 375.369 268.16" stroke="black" stroke-width="2" stroke-linecap="round" stroke-linejoin="round"/>
<path d="M350.833 264.504C350.593 266.819 350.353 269.13 350.113 271.446" stroke="black" stroke-width="2" stroke-linecap="round" stroke-linejoin="round"/>
<path d="M185.926 244.781C188.209 245.51 190.497 246.244 192.78 246.973" stroke="black" stroke-width="2" stroke-linecap="round" stroke-linejoin="round"/>
<path d="M306.809 66.875C304.644 66.875 302.478 66.875 300.312 66.875" stroke="black" stroke-width="2" stroke-linecap="round" stroke-linejoin="round"/>
<path d="M358.406 260.852L364.903 263.043" stroke="black" stroke-width="2" stroke-linecap="round" stroke-linejoin="round"/>
<path d="M235.726 645.887C235.603 648.078 235.486 650.27 235.363 652.462" stroke="black" stroke-width="2" stroke-linecap="round" stroke-linejoin="round"/>
<path d="M238.974 646.618C234.422 644.798 229.689 643.593 224.902 642.602" stroke="black" stroke-width="2" stroke-linecap="round" stroke-linejoin="round"/>
<path d="M370.68 244.414C370.802 246.606 370.92 248.797 371.042 250.989" stroke="black" stroke-width="2" stroke-linecap="round" stroke-linejoin="round"/>
<path d="M160.305 247.701C161.951 249.699 163.793 250.408 166.076 249.164" stroke="black" stroke-width="2" stroke-linecap="round" stroke-linejoin="round"/>
<path d="M174.02 239.664C177.332 241.315 180.982 242.53 183.402 245.51" stroke="black" stroke-width="2" stroke-linecap="round" stroke-linejoin="round"/>
<path d="M332.066 418.299C331.943 420.366 331.826 422.439 331.703 424.507" stroke="black" stroke-width="2" stroke-linecap="round" stroke-linejoin="round"/>
<path d="M377.535 240.76C377.775 242.827 378.015 244.9 378.255 246.968" stroke="black" stroke-width="2" stroke-linecap="round" stroke-linejoin="round"/>
<path d="M230.311 43.4961C228.385 43.7391 226.46 43.982 224.539 44.225" stroke="black" stroke-width="2" stroke-linecap="round" stroke-linejoin="round"/>
<path d="M129.274 769.723C127.589 770.575 125.908 771.428 124.223 772.281" stroke="black" stroke-width="2" stroke-linecap="round" stroke-linejoin="round"/>
<path d="M75.5123 175.375C74.3119 177.081 73.1066 178.786 71.9062 180.487" stroke="black" stroke-width="2" stroke-linecap="round" stroke-linejoin="round"/>
<path d="M204.691 285.33C203.446 286.684 202.653 290.71 203.285 293.04" stroke="black" stroke-width="2" stroke-linecap="round" stroke-linejoin="round"/>
<path d="M76.9531 234.918C77.1932 236.867 77.4333 238.815 77.6733 240.764" stroke="black" stroke-width="2" stroke-linecap="round" stroke-linejoin="round"/>
<path d="M276.496 72.3535C274.693 73.3254 272.89 74.3022 271.082 75.274" stroke="black" stroke-width="2" stroke-linecap="round" stroke-linejoin="round"/>
<path d="M211.187 294.463C209.502 295.693 207.998 297.84 205.773 297.75" stroke="black" stroke-width="2" stroke-linecap="round" stroke-linejoin="round"/>
<path d="M220.565 294.824C218.012 298.573 213.279 303.452 208.738 302.088C206.974 301.518 205.656 300.12 204.328 298.84" stroke="black" stroke-width="2" stroke-linecap="round" stroke-linejoin="round"/>
<path d="M369.598 257.93C370.279 260.647 371.778 262.467 374.208 263.79C376.124 264.98 378.211 265.823 380.425 266.329" stroke="black" stroke-width="2" stroke-linecap="round" stroke-linejoin="round"/>
<path d="M325.934 255.371C327.315 257.136 329.128 256.293 330.985 256.467" stroke="black" stroke-width="2" stroke-linecap="round" stroke-linejoin="round"/>
<path d="M360.934 265.238H373.202" stroke="black" stroke-width="2" stroke-linecap="round" stroke-linejoin="round"/>
<path d="M381.141 80.7578C382.826 81.7297 384.507 82.7064 386.192 83.6783" stroke="black" stroke-width="2" stroke-linecap="round" stroke-linejoin="round"/>
<path d="M76.5898 229.074V234.186" stroke="black" stroke-width="2" stroke-linecap="round" stroke-linejoin="round"/>
<path d="M258.458 405.879C256.772 406.122 255.092 406.365 253.406 406.608" stroke="black" stroke-width="2" stroke-linecap="round" stroke-linejoin="round"/>
<path d="M267.84 244.414C266.517 245.634 265.194 246.849 263.871 248.068" stroke="black" stroke-width="2" stroke-linecap="round" stroke-linejoin="round"/>
<path d="M352.637 256.469C355.792 257.922 357.874 260.639 359.854 263.41" stroke="black" stroke-width="2" stroke-linecap="round" stroke-linejoin="round"/>
<path d="M369.598 209.344C370.078 210.925 370.558 212.512 371.043 214.094" stroke="black" stroke-width="2" stroke-linecap="round" stroke-linejoin="round"/>
<path d="M218.763 646.617C217.2 647.589 215.637 648.566 214.074 649.538" stroke="black" stroke-width="2" stroke-linecap="round" stroke-linejoin="round"/>
<path d="M172.939 238.568C171.376 238.935 169.813 239.297 168.25 239.664" stroke="black" stroke-width="2" stroke-linecap="round" stroke-linejoin="round"/>
<path d="M84.5327 152.357L82.3672 156.741" stroke="black" stroke-width="2" stroke-linecap="round" stroke-linejoin="round"/>
<path d="M161.027 249.893C157.901 250.502 154.77 251.112 151.645 251.717" stroke="black" stroke-width="2" stroke-linecap="round" stroke-linejoin="round"/>
<path d="M398.465 92.4453C399.91 93.4172 401.351 94.3939 402.796 95.3658" stroke="black" stroke-width="2" stroke-linecap="round" stroke-linejoin="round"/>
<path d="M376.812 177.199C377.415 178.538 378.013 179.877 378.615 181.215" stroke="black" stroke-width="2" stroke-linecap="round" stroke-linejoin="round"/>
<path d="M73.7031 243.686C73.8256 246.12 73.9432 248.555 74.0657 250.989" stroke="black" stroke-width="2" stroke-linecap="round" stroke-linejoin="round"/>
<path d="M371.758 257.93C372.748 258.48 373.732 259.035 374.727 259.571C376.417 260.558 377.652 261.088 379.156 259.754" stroke="black" stroke-width="2" stroke-linecap="round" stroke-linejoin="round"/>
<path d="M504.191 552C505.617 556.839 505.107 559.294 500.223 560.766" stroke="black" stroke-width="2" stroke-linecap="round" stroke-linejoin="round"/>
<path d="M406.402 98.291C407.603 99.2629 408.808 100.24 410.008 101.211" stroke="black" stroke-width="2" stroke-linecap="round" stroke-linejoin="round"/>
<path d="M454.753 160.029C452.372 157.718 453.043 161.988 453.308 163.316" stroke="black" stroke-width="2" stroke-linecap="round" stroke-linejoin="round"/>
<path d="M225.258 302.134C224.058 302.011 222.853 301.892 221.652 301.768" stroke="black" stroke-width="2" stroke-linecap="round" stroke-linejoin="round"/>
<path d="M247.992 325.512C248.115 326.731 248.232 327.946 248.355 329.166" stroke="black" stroke-width="2" stroke-linecap="round" stroke-linejoin="round"/>
<path d="M455.113 178.66C455.716 179.88 456.314 181.095 456.916 182.314" stroke="black" stroke-width="2" stroke-linecap="round" stroke-linejoin="round"/>
<path d="M452.589 798.219C451.629 799.439 450.663 800.653 449.703 801.873" stroke="black" stroke-width="2" stroke-linecap="round" stroke-linejoin="round"/>
<path d="M325.569 256.469C324.609 256.955 323.644 257.441 322.684 257.931" stroke="black" stroke-width="2" stroke-linecap="round" stroke-linejoin="round"/>
<path d="M432.74 335.008C432.02 335.98 431.294 336.956 430.574 337.928" stroke="black" stroke-width="2" stroke-linecap="round" stroke-linejoin="round"/>
<path d="M136.491 91.7148C135.408 92.5677 134.325 93.4205 133.242 94.2734" stroke="black" stroke-width="2" stroke-linecap="round" stroke-linejoin="round"/>
<path d="M222.73 294.098C223.161 296.909 222.044 296.577 219.844 296.656" stroke="black" stroke-width="2" stroke-linecap="round" stroke-linejoin="round"/>
<path d="M329.902 263.047V265.605" stroke="black" stroke-width="2" stroke-linecap="round" stroke-linejoin="round"/>
<path d="M199.641 51.9001C198.799 51.7762 197.956 51.6572 197.113 51.5332" stroke="black" stroke-width="2" stroke-linecap="round" stroke-linejoin="round"/>
<path d="M334.594 180.852C335.456 182.28 336.289 183.752 337.122 185.235" stroke="black" stroke-width="2" stroke-linecap="round" stroke-linejoin="round"/>
<path d="M458.359 789.453V792.012" stroke="black" stroke-width="2" stroke-linecap="round" stroke-linejoin="round"/>
<path d="M285.879 55.918H282.273" stroke="black" stroke-width="2" stroke-linecap="round" stroke-linejoin="round"/>
<path d="M192.059 748.174C193.176 746.637 194.288 745.1 195.037 743.171C195.826 741.088 196.204 738.817 196.752 736.651C197.703 732.615 198.854 728.593 200.143 724.651C200.985 722.138 202.49 719.916 203.964 717.854" stroke="black" stroke-width="2" stroke-linecap="round" stroke-linejoin="round"/>
<path d="M337.847 295.791L333.624 298.156L332.933 300.224L340.312 295.791L343.374 295.578L332.164 302.272V304.746L345.138 295.737L346.691 296.074C346.691 296.074 332.527 305.063 332.242 305.946C331.958 306.829 333.492 306.834 333.492 306.834L348.122 296.624L348.749 298.652L335.496 307.329L337.901 308.004L349.023 300.502L349.209 302.495L339.43 308.643L342.056 309.119L349.126 303.611L348.759 305.663L343.497 309.407H345.466L348.381 307.681" stroke="black" stroke-width="2" stroke-linecap="round" stroke-linejoin="round"/>
<path d="M334.435 296.929L333.729 297.995C332.583 299.736 332.014 301.798 332.108 303.891L332.186 305.586C332.22 306.32 332.715 306.955 333.416 307.153L339.574 308.923C340.246 309.117 340.931 309.256 341.622 309.34L346.394 309.91C347.266 310.014 348.07 309.419 348.232 308.547L349.069 304.054C349.251 303.072 349.27 302.071 349.118 301.084L348.599 297.668C348.447 296.716 347.673 295.987 346.723 295.898L340.922 295.367L337.154 295.432C336.061 295.451 335.042 296.012 334.435 296.934V296.929Z" stroke="black" stroke-width="2" stroke-linecap="round" stroke-linejoin="round"/>
</g>
<defs>
<clipPath id="clip0_1019_6827">
<rect width="576" height="854" fill="white"/>
</clipPath>
</defs>
</svg>
