<svg width="1103" height="1394" viewBox="0 0 1103 1394" fill="none" xmlns="http://www.w3.org/2000/svg">
<g clip-path="url(#clip0_1019_9091)">
<path d="M157.939 699.132C162.82 695.933 163.189 693.977 159.949 688.111C144.197 697.149 128.226 705.75 111.463 712.847C108.673 714.023 107.333 716.238 107.251 719.642C106.731 741.985 106.526 764.341 105.118 786.629C103.887 806.018 103.135 825.448 100.715 844.782C99.6486 853.314 99.4572 862.12 99.3615 870.734C99.1837 888.045 98.8692 905.383 98.7735 922.693C98.5684 959.612 98.6505 996.558 96.0115 1033.48C94.5484 1053.95 93.5229 1074.48 92.1692 1094.98C90.9523 1113.45 90.9523 1131.87 91.4582 1150.37C92.0872 1173.14 92.976 1196.05 91.2668 1218.71C89.12 1247.19 88.8192 1275.76 86.276 1304.21C84.6078 1322.83 83.5139 1341.53 83.3088 1360.26C83.1584 1374.4 82.0509 1388.52 81.3672 1402.65" stroke="black" stroke-width="2.7347" stroke-linecap="round" stroke-linejoin="round"/>
<path d="M161.356 699.816C163.421 713.257 161.233 726.712 161.22 740.153C161.192 752.692 159.839 765.217 159.346 777.755C158.335 803.092 156.653 828.374 154.643 853.657C153.357 869.791 153.207 886.008 152.469 902.184C151.32 927.015 151.129 951.86 151.033 976.704C150.951 997.447 150.076 1018.18 149.775 1038.92C149.269 1073.61 146.699 1108.2 144.989 1142.84C144.155 1159.7 143.649 1176.57 142.897 1193.43C140.778 1241.04 139.971 1288.66 139.957 1336.32C139.957 1354.99 136.553 1373.6 136.58 1392.38C136.58 1395.73 136.129 1399.2 136.074 1402.63" stroke="black" stroke-width="2.7347" stroke-linecap="round" stroke-linejoin="round"/>
<path d="M624.889 493.346C627.091 492.034 629.948 492.061 631.658 490.01C632.3 487.932 630.755 487.029 629.702 485.798C625.204 480.603 625.614 478.087 628.868 471.387C632.697 463.511 638.44 456.674 640.122 447.554C642.241 436.054 641.844 425.252 636.553 414.683C630.345 402.308 623.836 390.084 615.263 379.2C605.924 367.331 592.921 361.78 578.454 358.43C571.85 356.899 566.203 357.487 560.679 360.755C558.983 361.753 556.959 361.835 555.92 361.247C533.318 348.64 514.995 357.883 498.574 373.143C489.112 381.935 480.538 391.752 473.729 403.006C466.578 414.819 465.005 427.399 467.138 440.635C467.439 442.495 467.357 444.313 467.658 446.132C469.258 455.689 469.244 455.635 479.294 456.4C486.185 456.934 491.628 460.667 497.124 464.495C500.789 467.052 504.084 470.894 509.376 470.047" stroke="black" stroke-width="2.7347" stroke-linecap="round" stroke-linejoin="round"/>
<path d="M495.672 704.602C496.656 706.229 498.229 706.024 499.774 705.969C526.738 705.217 553.565 708.143 580.434 709.538C611.24 711.137 641.978 713.941 672.743 716.197C674.33 716.32 675.929 716.279 677.529 716.197C698.532 715.253 719.479 717.113 740.413 717.865C754.524 718.371 768.677 719.588 782.815 720.23C812.432 721.598 842.076 722.309 871.679 723.813C891.273 724.811 910.894 724.989 930.475 725.946C958.082 727.286 985.62 730.021 1013.21 731.866C1031.19 733.07 1049.22 733.794 1067.22 734.642C1078.68 735.175 1089.81 738.895 1101.41 738.074" stroke="black" stroke-width="2.7347" stroke-linecap="round" stroke-linejoin="round"/>
<path d="M693.254 630.764C690.136 620.359 681.453 613.864 675.423 605.509C663.951 589.593 646.832 582.675 629.029 576.617C619.882 573.513 610.98 569.452 602.38 565.022C591.482 559.402 586.6 560.031 580.516 570.642C569.741 589.443 552.376 595.801 532.631 593.422C513.625 591.139 496.889 582.141 485.499 565.747C481.862 560.51 475.599 557.502 473.986 550.187C473.452 547.753 467.368 548.204 463.498 549.995C451.821 555.41 440.486 561.918 427.933 564.94C415.094 568.03 403.13 573.076 391.042 578.08C375.947 584.329 367.387 597.046 359.73 610.309C353.194 621.63 345.961 632.46 338.29 642.961C330.332 653.859 326.175 666.411 321.567 678.69C319.352 684.597 314.252 688.74 313.117 695.002" stroke="black" stroke-width="2.7347" stroke-linecap="round" stroke-linejoin="round"/>
<path d="M328.172 568.551C312.516 577.999 294.138 582.06 279.576 593.778C255.689 613.017 241.578 638.518 232.813 667.109C230.598 674.315 228.506 682.246 229.805 689.561C216.268 689.561 203.388 690.655 190.808 689.151C183.247 688.235 175.63 689.37 168.178 687.578C165.184 686.854 165.047 690.915 162.723 691.612" stroke="black" stroke-width="2.7347" stroke-linecap="round" stroke-linejoin="round"/>
<path d="M642.663 630.081C618.939 629.835 595.339 626.362 571.561 627.305C555.795 627.921 540.098 626.403 524.387 625.268C514.556 624.557 508.417 628.085 507.118 639.625C505.039 658.153 502.031 676.598 498.982 695.003C497.97 701.128 494.811 706.229 487.469 706.639" stroke="black" stroke-width="2.7347" stroke-linecap="round" stroke-linejoin="round"/>
<path d="M337.061 548.724C336.24 543.487 338.633 538.319 337.197 532.959C336.541 530.484 346.728 520.27 349.367 520.01C353.852 519.559 359.786 528.788 358.282 533.697C356.86 538.305 354.248 542.052 350.775 545.347C348.56 547.439 346.974 550.365 344.499 552.02C341.901 553.756 345.183 557.339 341.409 557.79C349.941 567.977 349.517 569.946 336.76 580.433C327.995 575.661 321.323 582.758 314.65 585.971C287.658 599.002 266.984 618.828 254.254 646.462C249.058 657.743 244.409 669.133 242.016 681.357C240.567 688.741 242.577 690.833 252.271 692.31C269.719 694.962 287.317 695.769 304.914 696.384C322.95 697.013 340.944 698.476 358.938 699.488C373.473 700.309 388.008 703.276 402.68 701.184" stroke="black" stroke-width="2.7347" stroke-linecap="round" stroke-linejoin="round"/>
<path d="M788.284 719.643C792.838 695.947 797.377 672.237 801.972 648.541C803.421 641.075 799.784 636.85 792.4 636.153C762.154 633.295 731.786 632.83 701.458 631.463C698.956 631.353 696.44 631.449 693.938 631.449" stroke="black" stroke-width="2.7347" stroke-linecap="round" stroke-linejoin="round"/>
<path d="M694.623 632.132C693.611 636.685 689.277 636.904 686.433 636.685C677.982 636.056 669.546 636.644 661.123 636.179C650.403 635.591 641.789 630.286 635.964 621.781C624.013 604.32 607.537 592.67 588.927 582.661C579.342 591.658 568.745 599.862 555.783 603.199C542.437 606.631 528.654 606.385 515.528 601.312C501.923 596.061 489.726 588.513 479.949 577.438C476.982 574.074 474.193 573.363 470.31 576.672C461.586 584.124 452.985 591.672 445.082 599.999" stroke="black" stroke-width="2.7347" stroke-linecap="round" stroke-linejoin="round"/>
<path d="M579.083 564.448C568.185 574.594 555.66 572.42 544.339 566.923C526.126 558.063 510.934 544.95 501.363 526.737C498.163 520.638 497.575 513.159 495.675 505.816C483.027 508.647 478.337 500.593 474.331 490.68C471.61 483.966 468.178 477.594 468.342 470.115C468.519 462.225 473.661 459.135 480.648 462.581C485.023 464.741 487.676 467.927 488.948 472.822C490.807 480.001 493.405 486.974 495.675 494.043" stroke="black" stroke-width="2.7347" stroke-linecap="round" stroke-linejoin="round"/>
<path d="M440.297 604.785C433.433 611.567 427.267 618.773 422.399 627.278C415.343 639.598 407.03 651.166 402.477 664.88C401.547 667.683 400.822 670.267 400.631 673.166C400.111 681.48 402.148 689.561 402.846 697.765C403.297 703.002 407.126 706.065 412.267 707.377C415.22 708.129 418.023 709.374 421.168 709.415C442.595 709.661 464.007 712.765 485.42 709.346C485.94 709.264 486.336 708.485 486.801 708.02" stroke="black" stroke-width="2.7347" stroke-linecap="round" stroke-linejoin="round"/>
<path d="M389.702 506.335C389.251 504.284 388.704 502.247 388.349 500.182C386.68 490.515 379.297 483.706 369.178 484.362C359.416 484.991 349.393 491.5 347.137 500.155C353.946 501.153 361.426 501.29 365.692 507.757C369.37 513.322 369.233 519.776 368.413 526.162C379.228 527.529 383.959 520.392 388.308 511.121C388.909 509.822 389.237 508.4 389.702 507.033" stroke="black" stroke-width="2.7347" stroke-linecap="round" stroke-linejoin="round"/>
<path d="M486.103 705.969C472.539 703.508 458.742 704.396 445.083 703.316C433.952 702.441 422.754 702.277 411.583 701.908C409.764 701.853 407.932 702.318 406.113 702.55" stroke="black" stroke-width="2.7347" stroke-linecap="round" stroke-linejoin="round"/>
<path d="M561.989 508.388C556.055 508.402 550.654 511.054 544.131 509.413C534.396 506.966 531.142 504.327 529.884 493.347C529.596 490.845 530.321 488.247 529.214 485.84C520.367 484.117 514.186 477.554 506.625 473.521" stroke="black" stroke-width="2.7347" stroke-linecap="round" stroke-linejoin="round"/>
<path d="M359.62 530.949C365.514 526.478 366.074 516.975 361.015 510.425C357.364 505.681 346.316 502.276 341.777 507.65C339.192 510.713 336.006 513.283 332.943 515.895C322.962 524.372 313.185 533.151 302.78 541.095C294.699 547.262 291.978 557.366 284.485 563.861C282.311 565.748 284.074 568.702 285.209 570.534C287.26 573.816 290.651 575.73 294.644 574.636C299.225 573.378 304.024 572.243 306.978 567.881" stroke="black" stroke-width="2.7347" stroke-linecap="round" stroke-linejoin="round"/>
<path d="M488.156 473.52C484.546 473.93 483.808 470.703 481.948 468.789C480.581 467.381 478.639 465.767 476.588 466.793C474.687 467.75 473.785 469.582 473.689 472.153C473.32 481.15 476.998 488.041 485.476 491.173C490.699 493.1 492.477 497.982 492.6 501.564C493.024 513.898 496.223 526.04 495.034 538.469C494.541 543.583 493.926 548.587 492.367 553.537C490.89 558.255 488.197 560.989 483.37 561.714" stroke="black" stroke-width="2.7347" stroke-linecap="round" stroke-linejoin="round"/>
<path d="M545.582 462.581C550.532 449.879 556.439 437.764 567.036 428.165C574.748 434.427 575.595 443.534 576.99 452.34C577.933 458.233 578.932 464.249 581.94 469.35C585.987 476.241 589.255 476.979 598.225 474.887" stroke="black" stroke-width="2.7347" stroke-linecap="round" stroke-linejoin="round"/>
<path d="M510.715 470.785C517.743 474.86 524.183 481.04 533.262 478.907C542.232 476.801 550.997 477.745 559.967 478.825C566.133 479.577 570.29 484.418 576.334 485.252C582.022 486.045 586.917 487.303 592.933 484.103C601.917 479.304 611.994 482.271 621.443 484.568C625.476 485.553 624.711 491.405 624.41 492.553C622.96 498.187 623.097 504.914 616.739 508.51C614.264 509.919 613.334 512.763 612.322 515.826C606.785 532.494 599.073 548.04 585.222 559.663" stroke="black" stroke-width="2.7347" stroke-linecap="round" stroke-linejoin="round"/>
<path d="M295.355 550.775C297.639 551.227 300.004 551.445 302.179 552.197C306.923 553.838 309.494 557.065 309.111 562.412C309.002 563.998 308.113 565.926 310.369 567.252C312.748 568.674 313.801 566.609 315.155 565.762C321.267 561.933 326.08 556.217 332.971 553.51" stroke="black" stroke-width="2.7347" stroke-linecap="round" stroke-linejoin="round"/>
<path d="M585.918 488.561C586.479 492.649 586.15 496.778 586.397 500.88C586.916 509.659 593.315 513.022 599.591 513.118C603.912 513.186 608.247 512.722 612.581 512.489" stroke="black" stroke-width="2.7347" stroke-linecap="round" stroke-linejoin="round"/>
<path d="M572.242 531.632C572.885 527.393 574.512 522.717 569.467 520.105C566.677 518.669 563.628 520.925 560.592 520.693C558.213 518.136 557.981 515.511 559.909 512.475C563.204 507.307 566.527 502.124 569.412 496.723C570.615 494.453 572.666 493.414 574.389 492.115C577.889 489.463 581.814 491.541 581.718 496.094C581.581 502.357 582.661 508.168 585.177 513.897C587.256 518.656 585.642 521.089 580.46 521.308C577.712 521.431 575.223 521.5 573.623 524.125" stroke="black" stroke-width="2.7347" stroke-linecap="round" stroke-linejoin="round"/>
<path d="M525.758 467.367C538.556 460.681 551.231 463.306 563.223 469.022C567.339 470.977 570.443 475.982 569.513 481.724" stroke="black" stroke-width="2.7347" stroke-linecap="round" stroke-linejoin="round"/>
<path d="M542.164 438.652C537.419 448.497 528.627 454.322 520.245 460.489C516.704 463.101 512.903 465.329 510.031 468.734" stroke="black" stroke-width="2.7347" stroke-linecap="round" stroke-linejoin="round"/>
<path d="M550.367 538.469C560.39 538.92 570.426 539.385 580.449 539.836" stroke="black" stroke-width="2.7347" stroke-linecap="round" stroke-linejoin="round"/>
<path d="M599.594 474.203C602.985 473.546 606.212 470.251 609.849 473.533C611.996 475.474 612.187 472.685 613.254 472.124C617.41 469.95 618.887 470.729 619.42 475.584C620.35 483.993 617.998 492.046 616.617 500.182C616.152 502.93 614.498 505.515 616.002 508.4" stroke="black" stroke-width="2.7347" stroke-linecap="round" stroke-linejoin="round"/>
<path d="M565.409 473.519C561.157 475.051 558.08 471.578 554.443 470.976C549.903 470.224 545.856 466.122 540.797 468.734" stroke="black" stroke-width="2.7347" stroke-linecap="round" stroke-linejoin="round"/>
<path d="M550.368 440.021C546.02 447.363 542.41 455.02 540.113 463.265" stroke="black" stroke-width="2.7347" stroke-linecap="round" stroke-linejoin="round"/>
<path d="M587.289 452.326C586.523 461.788 592.963 467.176 598.911 472.836" stroke="black" stroke-width="2.7347" stroke-linecap="round" stroke-linejoin="round"/>
<path d="M562.674 548.725C560.992 549.326 559.857 550.461 559.242 552.17C561.512 553.729 563.754 555.178 566.776 554.919C572.97 554.385 578.276 555.452 579.055 563.095C579.233 564.914 581.38 564.435 581.817 565.83" stroke="black" stroke-width="2.7347" stroke-linecap="round" stroke-linejoin="round"/>
<path d="M555.154 537.785C558.627 533.327 564.219 532.425 568.854 531.987C575.253 531.372 581.762 533.382 581.981 542.598C574.72 552.552 563.754 549.695 555.14 542.598C553.923 541.6 554.689 540.315 554.47 539.166" stroke="black" stroke-width="2.7347" stroke-linecap="round" stroke-linejoin="round"/>
<path d="M505.931 471.469C506.163 476.842 500.543 479.769 500.325 485.142C500.201 487.904 498.643 490.612 497.727 493.346" stroke="black" stroke-width="2.7347" stroke-linecap="round" stroke-linejoin="round"/>
<path d="M356.207 536.418C347.812 540.123 341.358 546.55 334.398 552.225C332.333 553.92 334.671 557.516 332.306 559.69C329.284 562.48 326.317 565.228 322.023 565.802" stroke="black" stroke-width="2.7347" stroke-linecap="round" stroke-linejoin="round"/>
<path d="M328.857 517.274C328.625 517.042 328.392 516.618 328.174 516.618C322.458 516.823 314.404 524.494 313.816 530.264" stroke="black" stroke-width="2.7347" stroke-linecap="round" stroke-linejoin="round"/>
<path d="M287.836 561.714C295.534 563.409 297.011 563.519 297.407 572.653" stroke="black" stroke-width="2.7347" stroke-linecap="round" stroke-linejoin="round"/>
<path d="M538.063 446.856C538.911 451.847 533.961 453.926 532.594 457.795" stroke="black" stroke-width="2.7347" stroke-linecap="round" stroke-linejoin="round"/>
<path d="M587.972 463.265C585.648 466.451 588.902 469.65 587.972 472.836" stroke="black" stroke-width="2.7347" stroke-linecap="round" stroke-linejoin="round"/>
<path d="M588.653 476.938C586.165 479.509 583.375 481.806 581.816 485.143" stroke="black" stroke-width="2.7347" stroke-linecap="round" stroke-linejoin="round"/>
<path d="M571.561 485.826C572.217 488.629 569.824 491.186 570.877 494.03" stroke="black" stroke-width="2.7347" stroke-linecap="round" stroke-linejoin="round"/>
<path d="M482.684 481.725C481.768 483.324 480.865 484.911 479.949 486.51" stroke="black" stroke-width="2.7347" stroke-linecap="round" stroke-linejoin="round"/>
</g>
<defs>
<clipPath id="clip0_1019_9091">
<rect width="1103" height="1394" fill="white"/>
</clipPath>
</defs>
</svg>
