<svg width="1627" height="1075" viewBox="0 0 1627 1075" fill="none" xmlns="http://www.w3.org/2000/svg">
<g clip-path="url(#clip0_1019_8074)">
<g clip-path="url(#clip1_1019_8074)">
<path d="M575.008 128.543C573.952 128.279 572.943 128.688 571.776 128.075C563.313 123.661 554.647 119.628 546.289 115.036C543.752 113.639 540.736 111.188 540.081 108.658C538.665 103.176 534.64 104.606 531.867 105.146C522.86 106.899 514.312 110.305 505.659 113.402C490.49 118.838 478.533 129.577 464.701 137.187C457.956 140.897 450.85 143.071 443.331 143.433C434.868 143.842 427.192 146.774 419.325 149.37C413.668 151.234 407.683 152.078 402.288 154.792C393.235 159.345 383.422 161.862 374.048 165.552C368.83 167.607 363.926 171.007 359.921 174.414C353.051 180.245 345.48 185.054 338.125 189.851C322.838 199.826 312.638 214.335 300.989 227.631C297.646 231.446 292.959 233.6 289.642 237.685C285.354 242.969 280.136 247.509 276.485 253.353C271.844 260.779 264.279 265.331 258.727 271.966C250.067 282.317 242.404 293.254 235.377 304.738C228.848 315.412 221.42 325.552 215.311 336.45C209.319 347.137 200.928 356.322 196.405 367.931C194.714 372.273 191.987 376.569 189.253 380.028C184.809 385.655 181.885 392.158 178.785 398.173C171.849 411.627 163.596 424.442 158.063 438.648C156.188 443.464 153.986 448.287 151.088 452.524C147.221 458.183 144.35 464.588 141.616 470.531C137.742 478.951 132.557 486.726 129.338 495.449C122.901 512.876 113.245 528.814 106.073 545.879C103.661 551.618 101.314 557.6 100.449 563.998C100.049 566.95 96.8431 569.533 96.5547 572.076C95.0273 585.365 85.2599 595.163 82.1986 607.471C79.9108 616.668 75.1516 624.997 74.1945 634.689C73.6177 640.487 71.1791 646.37 68.8454 651.734C65.6398 659.106 64.9974 667.092 61.7394 674.392C55.3021 688.821 52.8439 704.43 51.3951 719.92C50.7789 726.529 49.5269 733.315 50.1693 740.266C50.6872 745.847 48.9697 751.731 47.7241 757.364C45.4626 767.59 41.1557 777.677 40.8017 787.929C40.4674 797.628 38.0223 806.99 38.3238 816.847C38.6909 828.904 38.3566 841.113 36.3769 853.309C33.9973 867.949 31.7292 882.728 31.7226 897.717C31.7226 910.927 32.0242 924.263 30.3853 937.309C29.3627 945.465 30.1887 953.444 29.5004 961.443C29.166 965.278 29.6315 968.961 29.6839 972.703C29.8478 984.681 28.8514 996.647 28.268 1008.57C27.8222 1017.65 27.7108 1026.84 26.5636 1035.92C26.3276 1037.79 26.6029 1039.78 27.2781 1041.88C28.3335 1045.17 29.1923 1048.84 28.6154 1052.52C27.7632 1057.98 29.7822 1062.98 31.2637 1068.05C32.365 1071.8 34.3251 1073.74 38.7368 1073.5C51.1591 1072.85 63.6536 1071.89 76.0366 1072.56C87.7837 1073.19 99.5243 1071.05 111.258 1073.25C115.349 1074.02 119.761 1072.85 124.021 1072.9C144.638 1073.19 165.268 1073.22 185.851 1074.15C192.662 1074.46 199.519 1073.64 206.088 1074.28C218.543 1075.51 231.011 1074.87 243.459 1075.76C257.396 1076.76 271.562 1077.56 285.564 1075.07C286.915 1074.83 288.396 1075.37 289.819 1075.55C297.134 1076.49 304.378 1076.98 311.713 1075.16C313.975 1074.6 316.669 1075.63 319.141 1076.11C327.269 1077.66 335.548 1076.46 343.644 1077.34C351.904 1078.24 360.046 1076.15 368.174 1077.25C373.556 1077.98 379.404 1076.81 384.222 1080.59C384.818 1081.05 385.959 1080.88 386.85 1080.9C388.804 1080.94 390.777 1080.75 392.711 1080.94C401.259 1081.75 409.65 1080.57 417.713 1078.04C421.063 1077 424.203 1077.17 427.362 1077.27C434.606 1077.48 441.607 1076.49 448.739 1075.32C453.275 1074.58 458.336 1076.59 463.063 1077.77C465.862 1078.47 467.815 1077.82 470.057 1076.15C476.632 1071.23 480.192 1063.84 485.469 1057.87C492.83 1049.53 500.028 1041.13 505.364 1031.18C507.573 1027.07 511.946 1024.27 515.21 1020.79C520.002 1015.69 525.666 1011.04 527.593 1003.77" stroke="black" stroke-width="1.22875" stroke-linecap="round" stroke-linejoin="round"/>
<path d="M530.761 512.066C523.983 511.691 518.601 515.473 513.868 519.241C509.011 523.109 503.976 526.377 498.201 527.998C491.711 529.823 486.729 534.31 480.639 536.695C476.818 538.197 473.18 540.319 468.394 540.075C468.125 535.437 470.407 531.378 473.219 527.629C478.601 520.46 486.723 516.573 493.455 511.012C500.81 504.944 509.647 501.452 517.965 497.07C518.667 496.701 519.552 496.517 520.07 495.97C525.458 490.31 532.649 486.766 538.051 481.363C546.324 473.101 556.275 466.716 564.069 458.25C570.841 450.89 580.189 446.166 585.203 436.922C584.338 434.306 582.535 432.791 579.835 431.638C572.289 428.409 565.013 424.542 556.327 426.848C553.541 427.586 550.716 426.143 547.825 426.018C539.126 425.642 531.037 428.35 522.803 429.839C514.367 431.361 506.022 434.194 498.241 438.161C479.171 447.886 462.704 461.267 446.467 475.044C437.892 482.318 430.111 490.587 421.275 497.354C410.071 505.932 398.639 514.531 385.712 520.559C382.965 521.837 379.275 522.213 376.803 520.487C373.801 518.392 374.574 514.339 375.754 511.599C380.828 499.792 385.299 487.616 393.237 477.278C397.276 472.02 400.547 466.295 402.716 460.088C404.427 455.206 407.39 451.463 410.779 447.774C421.209 436.408 432.065 425.517 444.395 416.2C445.306 415.515 446.073 414.54 447.076 414.099C462.357 407.352 475.113 396.078 490.722 389.819C497.093 387.263 502.764 382.967 508.972 379.923C510.545 379.152 511.095 378.665 511.05 377.103C511.004 375.245 509.208 375.739 508.316 375.021C507.883 374.672 506.874 374.771 506.245 374.988C498.634 377.643 490.446 375.232 482.724 378.019C476.929 380.107 474.884 378.355 473.186 372.28C471.718 367.022 470.053 361.758 470.551 356.21C471.416 346.551 478.083 341.339 485.392 336.306C495.219 329.539 505.963 324.769 516.91 320.335C520.948 318.701 524.311 315.274 528.172 314.141C540.444 310.544 552.027 303.889 565.419 304.785C566.953 304.891 568.422 304.647 569.68 303.711C572.702 301.471 576.196 300.496 579.815 299.995C583.84 299.442 587.039 297.808 587.74 293.525C588.461 289.13 585.806 286.416 582.529 283.826C576.472 279.043 569.123 279.419 562.214 278.035C558.694 277.33 555.121 276.882 551.555 276.408C546.042 275.67 540.785 277.099 535.573 278.569C530.093 280.11 524.462 281.145 518.955 282.489C505.314 285.836 493.776 293.479 481.138 298.776C471.986 302.611 464.133 308.429 456.254 314.062C447.732 320.15 438.915 325.849 430.308 331.759C423.071 336.727 416.987 342.756 410.255 348.139C391.572 363.076 381.831 383.619 373.939 405.454C372.628 409.085 370.497 412.577 368.085 415.601C363.371 421.511 360.363 428.324 356.98 434.952C354.083 440.638 351.598 446.561 348.366 452.043C343.299 460.648 341.87 470.643 337.301 479.432C330.903 491.76 326.983 505.135 321.876 518.003C317.759 528.38 313.387 538.698 310.581 549.563C306.34 565.975 301.542 582.236 296.12 598.28C291.755 611.194 289.454 624.378 288.674 637.937C288.372 643.208 290.404 648.17 289.945 653.487C289.631 657.111 288.018 658.883 284.472 657.776C275.274 654.897 266.838 650.482 259.47 644.309C252.128 638.161 245.605 630.973 237.981 625.234C229.853 619.113 223.645 610.91 215.188 605.237C212.868 603.676 210.718 602.786 208.233 604.73C205.493 606.878 207.23 608.848 208.128 611.2C209.433 614.6 211.386 617.525 213.609 620.227C220.472 628.581 225.1 638.537 233.143 646.134C237.798 650.528 243.291 653.447 248.332 657.071C264.622 668.792 282.197 678.386 300.44 686.733C303.613 688.183 306.688 690.015 309.46 692.13C311.23 693.487 312.568 693.816 314.325 692.578" stroke="black" stroke-width="1.22875" stroke-linecap="round" stroke-linejoin="round"/>
<path d="M795.71 574.737C782.613 569.914 770.105 575.824 757.323 576.852C748.65 577.55 740.698 581.115 732.307 582.96C727.148 584.093 721.839 583.507 716.778 585.378C710.347 587.763 703.818 589.871 697.092 591.4C687.331 593.62 679.163 599.168 671.546 605.342C662.769 612.451 652.968 618.117 644.702 626.017C635.695 634.615 628.373 644.255 622.473 655.1C619.884 659.863 616.58 664.212 614.908 669.522C613.499 673.99 613.315 678.733 610.89 683.036C609.29 685.869 612.516 688.906 616.055 688.867C620.513 688.814 624.046 686.416 627.776 684.531C642.886 676.889 657.8 668.804 671.402 658.704C680.802 651.726 689.344 643.563 698.135 635.782C707.41 627.572 718.377 621.319 726.368 611.667C738.03 597.587 755.277 593.39 770.728 586.149C778.109 582.69 786.061 580.265 794.111 578.486C795.789 578.117 797.343 577.57 796.779 575.277" stroke="black" stroke-width="1.22875" stroke-linecap="round" stroke-linejoin="round"/>
<path d="M1045.2 211.034C1048.34 204.03 1047.42 196.901 1046.37 189.594C1045.14 181.055 1043.47 172.733 1041.2 164.359C1037.78 151.748 1028.27 146.576 1017.93 142.135C1015.19 140.963 1011.89 140.086 1009.62 138.518C1003.46 134.255 996.398 134.189 989.738 133.603C978.6 132.621 967.791 133.616 957.106 138.986C940.58 147.294 925.922 157.784 912.411 170.269C903.332 178.657 893.558 186.26 884.702 194.924C880.376 199.154 876.069 203.378 871.867 207.746C862.847 217.115 854.115 226.728 845.836 236.763C836.96 247.515 828.457 258.624 820.112 269.733C815.668 275.649 811.564 282.508 808.175 289.617C802.603 301.319 798.362 313.884 789.86 324.07C786.09 328.59 785.632 334.691 782.61 339.731C779.935 344.205 777.332 348.843 774.966 353.548C770.758 361.915 765.094 369.321 759.961 377.076C753.576 386.742 746.332 395.748 738.433 404.268C734.756 400.077 735.477 394.457 735.057 389.397C733.353 368.926 729.039 348.982 723.041 329.466C719.154 316.809 710.206 307.315 700.249 298.914C698.682 297.596 696.8 296.47 696.06 294.579C690.579 280.67 680.386 269.588 673.772 256.226C667.072 242.679 661.52 228.421 652.932 215.791C651.706 213.985 651.084 212.101 648.566 212.108" stroke="black" stroke-width="1.22875" stroke-linecap="round" stroke-linejoin="round"/>
<path d="M889.002 677.58C884.557 681.23 881.299 685.822 880.624 691.521C880.218 694.987 878.939 697.814 877.242 700.588C875.911 702.762 875.393 705.002 874.941 707.532C874.338 710.899 873.931 714.503 870.962 717.303C866.786 721.243 868.287 727.278 866.629 732.213C861.568 747.269 859.529 763.134 854.744 778.229C851.676 787.914 850.476 797.896 849.27 807.766C847.435 822.736 842.872 837 839.745 851.614C837.988 859.83 836.664 868.139 834.724 876.322C832.325 886.436 830.397 896.74 827.782 906.709C825.599 915.037 823.855 923.833 818.867 931.614C813.576 939.877 810.135 949.332 805.835 958.246C802.275 965.619 796.651 971.443 790.823 976.899C785.493 981.886 781.599 980.345 779.161 973.255C777.673 968.926 776.224 964.525 779.253 960.447C781.311 957.673 779.731 954.662 780.682 951.789C783.959 941.88 786.26 931.601 790.102 921.929C791.8 917.653 789.466 914.115 790.633 909.964C792.717 902.571 793.307 894.731 794.271 887.029C795.064 880.677 797.188 874.477 798.958 868.277C799.784 865.391 798.827 862.466 799.489 859.705C803.35 843.741 810.705 829.252 817.805 814.553C821.338 807.233 823.737 799.181 827.152 791.657C835.596 773.037 845.127 754.977 854.855 737.01C857.628 731.89 861.024 727.147 863.01 721.54C864.144 718.337 865.213 715.28 865.645 711.861C866.255 707.031 869.382 703.052 871.106 698.545C875.367 687.384 878.245 675.853 879.038 664.152C879.47 657.781 878.579 650.948 877.864 644.353C877.065 636.94 873.02 631.208 869.559 624.923C866.288 618.986 860.709 616.179 856.566 611.613C854.541 609.38 851.859 608.747 849.552 608.648C843.888 608.405 838.06 607.159 832.502 609.538" stroke="black" stroke-width="1.22875" stroke-linecap="round" stroke-linejoin="round"/>
<path d="M703.485 29.9812C704.495 31.9974 705.373 34.5274 708.271 33.6841C717.881 30.8905 727.865 32.1357 737.645 30.7982C745.269 29.7572 753.378 29.2433 761.015 31.2331C764.391 32.116 768.737 29.3092 771.176 34.0201C770.442 38.2764 766.711 39.6864 763.185 40.0158C754.682 40.8065 746.239 42.0188 737.606 41.9134C723.223 41.7355 708.966 42.8754 694.878 46.8286C688.723 48.5548 682.305 50.1822 675.783 50.9927C668.578 51.8821 666.494 59.2747 670.296 65.4286C675.075 73.1703 683.249 77.6177 688.002 85.1815C694.21 95.0778 702.6 103.604 706.239 115.134C707.471 119.048 707.838 122.632 706.173 126.414C704.488 130.248 702.423 131.224 698.7 129.609C695.075 128.041 692.505 125.261 690.139 122.144C681.027 110.173 673.501 97.061 663.59 85.6296C654.294 74.9097 643.524 66.4169 630.426 61.1393C624.618 58.8003 618.45 60.9548 613.527 63.4519C603.904 68.3342 595.585 75.305 587.601 82.7898C583.09 87.0132 576.312 88.3573 569.691 86.7694" stroke="black" stroke-width="1.22875" stroke-linecap="round" stroke-linejoin="round"/>
<path d="M1091.31 893.981C1085.59 890.746 1084.79 889.118 1087.93 883.854C1091.53 877.806 1090.41 870.835 1092.5 864.47C1094.92 857.084 1094.08 848.736 1098.96 841.963C1099.55 841.146 1099.03 839.519 1099.05 838.273C1099.12 833.964 1099.35 829.715 1099.98 825.399C1101.98 811.53 1100.3 798.029 1094.22 785.261C1093.74 784.252 1092.89 783.422 1091.8 781.973C1086.91 785.886 1086.63 791.421 1086.95 796.488C1087.45 804.677 1085.1 812.353 1083.38 820.016C1080.61 832.337 1076.48 844.348 1072.93 856.485C1071.08 862.816 1067.75 868.542 1065.25 874.61C1060.49 886.167 1054.39 897.163 1048.97 908.456C1045.86 914.933 1042.97 921.331 1037.95 926.839C1034.43 930.707 1034.88 937.737 1030.21 941.005C1020.25 947.976 1014.75 959.012 1005.82 966.885C1001.84 970.397 999.157 975.661 995.369 978.824C986.906 985.887 980.042 994.65 971.107 1001.09C966.545 1004.39 961.543 1007.15 957.328 1010.83C948.97 1018.13 938.58 1019.64 928.439 1021.85C926.97 1022.16 925.22 1022.49 924.289 1023.19C918.199 1027.77 911.382 1031.11 905.875 1036.8C897.734 1045.23 888.182 1052.01 875.701 1053.2C870.654 1053.68 865.678 1055.38 860.794 1056.93C859.103 1057.46 857.274 1057.76 856.009 1057.24C850.306 1054.9 844.072 1055.21 838.257 1052.81C832.725 1050.52 826.241 1050.91 820.204 1049.48C808.031 1046.6 795.916 1044.26 786.011 1035.52C781.691 1031.71 775.706 1031.16 770.18 1032.89C768.214 1033.51 766.404 1033.63 764.818 1033.15C754.67 1030.15 744.372 1028.05 733.877 1026.79C728.429 1026.14 723.447 1024.48 718.865 1021.03C713.791 1017.21 708.147 1014.35 703.886 1009.25C700.091 1004.72 696.715 1000.06 694.525 994.637C693.844 992.944 692.827 991.619 691.707 990.446C689.196 987.818 687.419 985.063 686.869 981.301C686.285 977.355 680.254 976.208 675.797 979.186C672.526 981.367 669.248 983.397 665.702 985.156C659.192 988.391 652.519 988.457 646.56 985.36C640.464 982.191 633.771 980.794 627.786 977.552C622.056 974.442 621.479 973.125 624.062 968.434" stroke="black" stroke-width="1.22875" stroke-linecap="round" stroke-linejoin="round"/>
<path d="M584.066 138.723C582.663 139.612 583.974 141.108 584.164 141.312C592.418 150.477 593.689 162.449 596.659 173.59C598.173 179.276 601.103 184.356 602.25 190.128C603.916 198.463 602.5 207.087 604.453 215.284C606.485 223.816 606.282 232.79 609.651 241.026C609.717 241.177 609.592 241.421 609.671 241.553C615.348 250.843 620.533 260.489 626.859 269.311C633.395 278.43 640.901 287.186 649.849 293.768C658.79 300.351 666.126 309.199 677.27 313.073C683.117 315.103 687.883 320.499 690.511 326.271C694.497 335.014 699.676 343.105 703.471 351.907C707.647 361.586 709.509 372.016 713.062 381.906C716.261 390.807 719.106 399.814 720.607 409.21C720.849 410.712 721.597 412.734 722.744 413.38C725.93 415.172 725.281 417.762 724.153 419.87C722.809 422.387 720.443 423.349 717.303 422.17C715.212 421.385 712.832 421.241 710.957 419.91C702.56 413.94 692.484 411.693 683.091 408.551C671.986 404.835 660.023 403.398 648.039 403.227C635.178 403.042 622.408 401.336 609.645 399.63C596.56 397.877 583.463 396.335 570.202 396.249C561.49 396.19 552.738 395.301 544.387 391.763C546.845 384.225 553.984 385.47 559.103 383.803C561.929 382.881 565.75 382.565 567.907 381.122C575.872 375.805 584.951 375.403 593.676 374.652C604.492 373.716 615.427 373.973 626.204 376.977C642.808 381.603 658.639 388.508 675.205 393.206C676.916 393.693 678.633 394.688 679.983 395.874C686.349 401.441 694.936 403.194 701.4 408.623C702.986 409.954 705.248 411.212 707.208 411.232C713.979 411.298 717.808 415.35 721.066 420.47" stroke="black" stroke-width="1.22875" stroke-linecap="round" stroke-linejoin="round"/>
<path d="M908.727 675.44C914.836 670.037 921.772 667.975 930.058 668.278C938.632 668.588 946.23 665.373 953.119 659.548C959.648 654.027 967.934 651.345 976.423 649.705C987.725 647.517 998.862 647.609 1010.04 650.713C1014.96 652.077 1019.07 654.758 1022.7 657.888C1027.37 661.914 1032.46 664.826 1038.29 666.269C1048.58 668.825 1053.39 676.863 1058.69 684.974C1062.61 690.97 1063.78 698.119 1068.07 703.877C1073.31 710.921 1079.39 717.213 1085.84 722.984C1093.4 729.751 1098.78 737.875 1103.21 746.737C1104.99 750.295 1108.24 752.574 1109.8 756.29C1112.63 763.031 1112.84 770.397 1115.13 777.19C1119.07 788.878 1117.57 801.469 1121.47 813.098C1124.1 820.946 1123.68 829.61 1126.53 837.101C1131.36 849.837 1126.66 859.918 1119.67 869.228C1112.45 878.847 1103.78 887.248 1093.25 893.567C1087.97 896.736 1083.18 899.253 1076.62 897.915C1070.89 896.749 1066.27 898.811 1063.7 905.176C1061.19 911.382 1055.16 914.729 1050 918.637C1048.5 919.77 1046.81 919.111 1045.2 919.17" stroke="black" stroke-width="1.22875" stroke-linecap="round" stroke-linejoin="round"/>
<path d="M796.244 574.737C796.762 571.871 794.389 570.105 793.458 567.826C789.899 559.096 791.99 550.293 792.658 541.537C792.822 539.402 793.084 537.221 792.986 535.1C792.809 531.1 791.741 528.274 788.011 525.104C780.944 519.109 773.386 514.819 764.772 512.144C762.432 511.42 759.98 510.728 757.332 510.932C747.912 511.67 738.8 509.661 729.576 507.98C723.657 506.906 717.285 507.15 711.497 509.931C710.127 510.59 708.809 511.143 707.223 511.005C699.881 510.352 693.26 512.803 686.364 515.043C677.455 517.943 668.127 519.721 658.72 520.65C657.474 520.776 656.288 520.38 654.951 521.105C646.658 525.592 637.448 526.811 628.316 528.043C624.809 528.517 622.194 530.784 618.759 531.482C606.717 533.927 594.793 536.865 582.482 537.814C567.391 538.974 552.314 540.285 537.165 539.863C530.911 539.685 524.742 538.71 521.098 532.359C523.943 525.328 528.499 519.155 531.809 512.316C533.664 508.475 537.309 501.747 544.612 503.546C546.388 503.981 547.856 503.006 548.814 502.321C561.308 493.32 575.002 486.198 587.562 477.442C592.662 473.884 597.847 470.892 603.308 468.237C606.186 466.84 609.018 465.674 610.729 462.795" stroke="black" stroke-width="1.22875" stroke-linecap="round" stroke-linejoin="round"/>
<path d="M374.558 794.887C370.002 797.068 366.096 800.118 362.248 803.399C353.621 810.739 344.961 818.072 335.135 823.851C330.408 826.631 326.338 830.4 321.906 833.622C305.701 845.442 288.343 855.569 272.663 868.173C262.299 876.508 249.843 880.652 237.048 883.92C231.364 885.37 225.805 887.695 220.548 890.338C215.192 893.032 209.561 894.739 203.956 896.63C200.659 897.743 197.775 899.377 195.421 902C192.911 904.793 192.799 906.302 197.008 907.475C203.006 909.142 209.024 909.366 215.159 909.59C228.591 910.084 241.007 905.828 253.528 901.96C254.229 901.743 254.649 900.774 255.678 900.932C264.18 902.21 271.712 898.738 279.074 895.464C285.826 892.459 292.958 892.558 299.926 891.326C301.735 891.003 303.761 891.326 304.718 889.165" stroke="black" stroke-width="1.22875" stroke-linecap="round" stroke-linejoin="round"/>
<path d="M645.377 732.214C645.377 731.681 645.318 731.134 645.39 730.607C645.803 727.53 648.255 724.268 644.826 721.527C642.571 719.729 634.567 719.775 632.168 722.153C630.136 724.169 627.887 725.81 625.606 727.319C616.874 733.117 610.489 741.445 602.741 748.291C597.169 753.212 591.249 757.858 586.294 763.359C575.314 775.575 561.383 784.061 548.882 794.339C542.635 799.479 535.129 802.45 528.03 806.001C517.26 811.378 510.501 820.819 502.32 828.97C494.801 836.461 497.069 843.794 499.914 851.628C501.166 855.081 511.393 858.026 516.348 856.405C520.19 855.147 523.913 853.42 527.551 851.622C534.566 848.149 541.744 845.283 549.394 843.485C551.085 843.089 552.619 843.188 554.225 843.089" stroke="black" stroke-width="1.22875" stroke-linecap="round" stroke-linejoin="round"/>
<path d="M539.824 106.049C549.159 104.343 556.54 108.072 562.696 114.667C565.213 117.362 567.488 120.314 570.759 122.086C575.806 124.814 575.996 131.165 580.277 134.512C582.152 135.982 583.266 137.965 586.164 138.406C588.458 138.755 590.733 140.765 592.549 142.524C599.419 149.185 606.78 155.497 612.7 162.949C622.847 175.718 631.645 189.574 641.779 202.356C648.833 211.251 649.377 222.781 655.44 231.973C660.626 239.833 664.087 248.589 666.683 257.649C668.63 264.442 673.572 269.667 675.965 276.321C677.499 280.597 679.367 284.709 680.036 289.248C681.032 296.055 684.834 301.675 688.138 307.4C691.003 312.362 691.875 318.081 694.549 322.93C699.997 332.807 705.988 342.387 712.059 351.901C720.325 364.854 724.665 378.974 725.943 394.24C726.487 400.73 726.434 407.127 725.34 413.532" stroke="black" stroke-width="1.22875" stroke-linecap="round" stroke-linejoin="round"/>
<path d="M537.156 104.441C539.293 100.732 542.741 99.2757 546.753 99.1307C549.493 99.0385 551.001 96.9037 553.151 95.8693C557.596 93.728 561.962 91.4088 566.518 89.5441C568.045 88.9182 569.022 88.5492 569.166 86.7703C569.848 78.4487 574.522 72.4003 580.316 66.9251C584.001 63.4462 586.374 58.9857 588.891 54.6437C590.176 52.4233 591.467 50.1172 593.178 48.246C599.379 41.4531 604.683 33.4807 612.438 28.5655C624.257 21.0741 637.118 18.8406 651.297 22.2667C664.736 25.5084 677.63 31.1483 691.75 31.7281C697.65 31.9719 702.514 31.6425 705.7 25.7587C707.267 22.8663 710.597 21.7462 713.625 20.949C720.974 19.0185 728.447 18.4123 735.999 19.8091C743.59 21.2125 751.233 22.2996 758.877 23.367C764.718 24.184 770.788 24.408 776.517 26.2331C779.991 27.34 783.564 27.4718 787.176 27.3334C790.637 27.2017 794.197 26.9776 797.265 28.9806C798.228 29.6065 799.212 29.6593 799.946 29.4023C808.219 26.5033 816.295 30.7069 824.489 30.0282C825.177 29.9689 826.016 30.1863 826.606 30.5553C839.179 38.5277 854.244 38.9757 867.715 44.3389C882.104 50.0645 896.906 54.1627 909.964 63.4857C928.994 77.0717 949.46 88.5954 969.348 100.936C978.342 106.517 985.665 114.779 992.915 122.692C996.501 126.606 999.706 130.869 1003.08 134.98" stroke="black" stroke-width="1.22875" stroke-linecap="round" stroke-linejoin="round"/>
<path d="M375.629 774C379.444 784.232 375.484 794.056 374.016 803.992C371.905 818.243 364.426 830.683 360.407 844.236C357.411 854.336 350.889 863.02 349.558 873.635C349.434 874.603 348.909 875.091 348.47 875.789C339.122 890.693 336.067 907.698 332.416 924.506C331.787 927.418 330.803 930.278 329.761 933.078C326.195 942.658 324.11 952.62 321.632 962.51C319.967 969.145 316.637 975.345 314.363 981.848C310.318 993.405 306.077 1004.92 302.701 1016.68C298.184 1032.43 290.409 1046.83 284.923 1062.15C283.31 1066.66 280.472 1070.72 279.672 1075.57" stroke="black" stroke-width="1.22875" stroke-linecap="round" stroke-linejoin="round"/>
<path d="M952.445 662.586C964.232 671.151 975.337 680.468 985.012 691.464C989.221 696.248 992.715 701.558 995.474 707.119C1001.05 718.359 1009.37 728.098 1013.24 740.247C1014.41 743.904 1017.3 746.625 1018.99 749.939C1028.09 767.729 1034.12 786.658 1038.08 806.181C1039.12 811.313 1038.82 816.861 1039.2 822.218C1039.72 829.544 1042.27 836.41 1043.2 843.618C1043.37 844.856 1043.52 846.141 1043.56 847.386C1044.04 860.65 1045.8 873.82 1046.55 887.037C1047.1 896.584 1044.23 905.967 1038.2 913.755C1034.37 918.703 1028.01 918.367 1025.12 912.648C1022.21 906.909 1019.42 901.019 1017.05 895.023C1014.57 888.757 1014.18 881.865 1013.91 875.237C1013.4 863.074 1010.99 851.261 1008.98 839.348C1007.88 832.779 1007.16 826.144 1006.28 819.536C1005.18 811.221 1002.18 803.407 999.768 795.467C997.92 789.373 995.914 783.278 992.564 777.671C990.997 775.042 989.699 772.875 986.29 772.235C984.947 774.838 983.878 777.427 983.878 780.432C983.904 798.643 983.904 816.854 983.878 835.066C983.878 838.716 985.032 841.924 986.441 845.291C990.053 853.89 993.665 862.521 994.616 872.022C995.35 879.375 997.002 886.642 997.644 894.002C998.129 899.563 996.477 904.662 991.908 908.49C989.621 910.401 987.241 909.979 985.556 908.385C980.797 903.878 977.133 898.245 971.167 894.924C970.079 894.318 969.896 891.88 969.515 890.239C968.152 884.389 965.484 878.795 966.028 872.568" stroke="black" stroke-width="1.22875" stroke-linecap="round" stroke-linejoin="round"/>
<path d="M687.492 979.148C697.011 980.854 706.627 981.454 716.277 981.869C724.241 982.211 730.056 978.199 734.861 972.658C740.276 966.418 743.389 958.947 745.133 950.777C747.323 940.538 750.522 930.49 752.318 920.192C753.209 915.059 751.761 909.531 749.243 904.735C748.063 902.495 741.502 902.073 739.246 904.214C731.557 911.514 723.474 918.294 717.686 927.611C710.836 938.64 703.041 949.169 694.775 959.184C690.082 964.863 686.142 970.912 682.156 977.006" stroke="black" stroke-width="1.22875" stroke-linecap="round" stroke-linejoin="round"/>
<path d="M1015.35 651.871C1034.5 640.42 1053.36 628.455 1073.44 618.631C1076.83 616.971 1080.05 615.726 1083.61 618.091C1084.17 618.46 1085.27 618.592 1085.71 618.546C1097.77 617.188 1106.88 624.285 1116.62 629.411C1131.75 637.37 1145.58 647.365 1156.99 660.061C1166.42 670.564 1174.92 682.068 1179.51 695.812C1183.02 706.301 1187.29 716.678 1189.34 727.47C1190.85 735.469 1193.74 743.257 1193.91 751.513C1193.95 753.542 1194.59 755.071 1196.6 755.795" stroke="black" stroke-width="1.22875" stroke-linecap="round" stroke-linejoin="round"/>
<path d="M324.452 702.223C324.275 706.413 327.553 708.633 329.834 711.289C337.071 719.722 344.905 727.886 351.257 736.787C360.533 749.773 372.85 760.302 380.494 774.507C382.296 777.855 386.046 779.515 388.524 782.5C400.212 796.606 412.202 810.462 424.165 824.345C429.475 830.505 436.174 835.144 442.297 840.401C451.579 848.38 459.938 857.334 469.39 865.155C484.841 877.95 500.495 890.548 514.76 904.72C519.853 909.781 525.097 914.755 529.601 920.323C533.921 925.666 539.873 927.115 545.714 927.524C556.517 928.282 567.333 927.649 577.75 923.617C580.155 922.688 583.427 922.945 586.213 923.986" stroke="black" stroke-width="1.22875" stroke-linecap="round" stroke-linejoin="round"/>
<path d="M853.285 327.805C849.549 334.492 845.55 341.035 842.6 348.151C840.352 353.586 835.009 356.709 832.262 361.967C831.076 364.24 831.148 365.479 831.935 367.456C837.848 382.254 843.695 397.079 849.536 411.91C850.073 413.274 850.486 414.605 851.66 415.678C857.789 421.292 861.525 428.889 865.583 435.767C868.566 440.821 872.171 446.929 871.922 453.682C871.771 457.794 874.413 460.844 875.796 464.349C876.445 466.003 878.32 467.13 880.477 467.09C885.347 466.998 887.681 469.805 888.474 474.312" stroke="black" stroke-width="1.22875" stroke-linecap="round" stroke-linejoin="round"/>
<path d="M1479.68 573.664C1484.55 576.089 1490.09 575.851 1495.11 577.499C1503.12 580.121 1508.72 586.571 1515.45 591.249C1523.94 597.146 1532.3 603.247 1540.75 609.111C1545.46 612.379 1550.98 614.218 1553.76 619.739C1556.83 625.84 1554 631.144 1547.39 632.633C1538.31 634.676 1530.07 632.712 1521.73 628.943C1511.63 624.371 1501.09 620.82 1490.94 616.352C1488.8 615.41 1486.77 615.147 1485.03 615.562C1473.25 618.375 1461.54 615.871 1449.82 615.331C1447.9 615.239 1446.72 615.344 1444.95 616.392C1434.9 622.355 1423.95 626.018 1412.51 628.364C1408.17 629.253 1404 630.946 1399.69 632.027C1387.99 634.966 1375.94 636.903 1364.64 640.961C1358.24 643.254 1351.42 643.709 1345.22 646.838C1341.38 648.776 1336.53 648.855 1332 648.663C1323.11 648.281 1314.23 647.86 1305.34 647.642C1303.11 647.59 1300.69 649.23 1298.95 646.516" stroke="black" stroke-width="1.22875" stroke-linecap="round" stroke-linejoin="round"/>
<path d="M910.324 452.609C913.917 445.118 918.237 438.101 924.208 432.276C929.19 427.42 931.813 421.069 934.69 415.04C937.791 408.544 940.879 402.739 948.142 400.018C952.6 398.351 956.513 395.195 958.755 390.965C965.592 378.051 975.484 367.391 984.026 355.755C990.896 346.399 995.098 336.068 998.264 325.117C998.454 324.458 998.428 323.661 998.244 322.996C998.087 322.409 997.576 321.915 997.117 321.217C992.338 322.541 990.738 327.12 988.241 330.546C982.118 338.927 976.513 347.684 970.535 356.177C966.936 361.289 963.35 366.448 957.267 369.117C954.855 370.171 953.275 372.352 952.442 374.948" stroke="black" stroke-width="1.22875" stroke-linecap="round" stroke-linejoin="round"/>
<path d="M622.453 62.6621C628.497 67.7684 633.794 73.4281 638.029 80.2672C642.106 86.8559 647.095 92.8846 651.782 99.078C662.565 113.31 670.563 128.938 675.21 146.227C679.189 161.025 682.978 175.883 686.997 190.668C688.059 194.562 690.176 198.205 689.081 202.462" stroke="black" stroke-width="1.22875" stroke-linecap="round" stroke-linejoin="round"/>
<path d="M911.395 680.795C911.572 680.973 911.723 681.249 911.932 681.315C933.159 687.996 946.158 704.639 959.34 720.993C964.414 727.285 971.592 731.126 977.027 736.977C977.63 737.629 979.079 737.491 980.068 737.708C982.009 735.257 981.078 733.281 979.662 731.126C971.605 718.871 963.234 706.781 952.831 696.476C946.879 690.586 940.717 684.386 932.195 681.842C929.665 681.085 927.049 680.38 924.761 679.121C920.376 676.703 916.193 677.58 911.932 679.194C911.192 679.477 910.536 680.129 909.789 680.215C902.552 681.072 901.175 684.017 904.925 689.933C906.655 692.668 909.002 694.855 910.739 697.471C912.332 699.869 915.335 702.07 913.185 706.069C912.49 707.367 913.716 710.075 914.646 711.828C922.434 726.501 928 742.024 932.785 757.903C934.751 764.426 935.414 771.166 936.856 777.768C938.783 786.583 939.419 795.682 941.372 804.492C942.985 811.779 943.7 819.158 944.27 826.498C944.945 835.155 946.558 843.648 947.869 852.161C949.029 859.705 948.583 867.203 949.108 874.701C950.137 889.367 948.308 904.212 952.805 918.668C953.965 922.41 953.218 926.844 952.929 930.929C952.221 940.97 955.578 950.517 956.26 960.387C956.371 962.034 957.341 963.8 958.357 965.177C960.829 968.524 963.811 968.057 965.745 964.136C966.414 962.779 967.358 961.264 967.279 959.867C966.722 949.667 970.091 939.758 968.216 929.275C966.597 920.209 968.642 910.715 969.999 901.477C970.288 899.534 969.659 897.485 970.557 895.587" stroke="black" stroke-width="1.22875" stroke-linecap="round" stroke-linejoin="round"/>
<path d="M797.842 576.344C802.07 577.108 806.331 577.325 810.631 577.503C818.209 577.813 821.618 584.053 825.485 589.258C827.504 591.979 829.222 595.122 830.271 598.337C833.339 607.752 832.736 616.943 826.574 625.048C822.588 630.299 818.039 635.293 814.59 640.762C805.61 655.007 793.227 666.26 782.01 678.304C768.657 692.641 756.392 708.388 740.64 720.222C730.65 727.726 721.013 735.745 710.099 742.241C700.246 748.105 691.311 755.827 681.596 762.179C673.166 767.693 664.598 772.997 656.004 778.235C653.467 779.784 650.845 781.22 647.482 780.502C644.427 779.85 643.077 783.296 640.566 784.172" stroke="black" stroke-width="1.22875" stroke-linecap="round" stroke-linejoin="round"/>
<path d="M352.435 739.718C348.37 742.564 344.378 742.65 339.868 740.337C333.392 737.017 326.345 735.356 319.127 734.328C309.924 733.011 300.759 731.535 291.398 732.207C281.342 732.925 271.064 733.347 261.676 736.859C256.865 738.657 251.437 739.632 246.953 742.914C251.345 749.232 258.327 750.425 264.751 752.566C275.482 756.137 286.79 755.393 297.783 756.948C312.48 759.03 327.256 759.418 342.025 760.321C352.749 760.973 362.517 766.027 371.911 771.298C373.333 772.095 374.756 774.698 376.689 771.871" stroke="black" stroke-width="1.22875" stroke-linecap="round" stroke-linejoin="round"/>
<path d="M1552.71 573.663C1553.61 574.915 1554.23 576.582 1555.42 577.339C1561.43 581.141 1565.05 586.728 1568.29 592.882C1569.99 596.117 1568.71 597.929 1566.53 599.306C1561.75 602.317 1556.28 603.299 1551.16 600.874C1542.72 596.875 1533.95 593.271 1527.15 586.491C1526.18 585.529 1525.04 585.325 1523.92 584.923C1515.82 582.017 1508.59 577.702 1502.02 572.108C1498.38 569.011 1493.47 568.465 1489.32 569.585C1482.06 571.541 1474.52 571.996 1467.36 574.599C1460.85 576.957 1454.17 574.48 1447.72 572.991C1446.33 572.668 1444.39 571.449 1443.98 568.972C1453.84 563.918 1463.06 567.364 1472.21 571.528" stroke="black" stroke-width="1.22875" stroke-linecap="round" stroke-linejoin="round"/>
<path d="M916.195 704.898C928.067 718.069 936.464 732.947 940.981 750.361C943.131 758.662 947.005 766.602 948.959 775.075C952.328 789.695 955.278 804.421 958.969 818.962C960.693 825.755 961.42 832.179 958.89 838.827C958.117 840.857 960.273 843.097 958.844 845.238" stroke="black" stroke-width="1.22875" stroke-linecap="round" stroke-linejoin="round"/>
<path d="M1226.99 582.769C1232.78 584.219 1236.78 588.837 1242.31 591.124C1250.99 594.708 1258.68 593.001 1265.78 588.989C1273.68 584.535 1281.67 579.817 1287.32 572.122C1289.59 569.032 1290.12 567.009 1287.28 563.965C1275.98 551.842 1261.93 543.691 1247.78 535.627C1242.15 532.425 1236.38 529.453 1231.25 525.447" stroke="black" stroke-width="1.22875" stroke-linecap="round" stroke-linejoin="round"/>
<path d="M1458.35 501.352C1458.04 498.447 1455.36 497.9 1453.53 496.556C1445.75 490.804 1437.72 485.506 1427.96 483.668C1421.94 482.535 1415.75 482.594 1409.88 483.451C1406.09 484.004 1402.66 484.202 1399.19 483.095C1393.34 481.224 1387.24 480.202 1381.99 476.341C1379.49 474.497 1375.77 474.048 1372.51 473.561C1359.69 471.644 1348.09 475.129 1337.33 482.054C1330.48 486.462 1324.17 491.95 1316.51 494.816C1304.93 499.152 1293.19 503.118 1281.33 506.597C1272.31 509.239 1264.19 513.304 1256.87 519.056C1253.7 521.547 1250.8 524.38 1247.78 527.061" stroke="black" stroke-width="1.22875" stroke-linecap="round" stroke-linejoin="round"/>
<path d="M1378.39 504.568C1378.53 503.593 1378.07 502.624 1379.42 501.834C1389.08 496.207 1398.69 493.038 1410.45 495.66C1420.33 497.867 1430.42 499.923 1440.75 500.523C1449.62 501.043 1458.54 501.709 1467.41 502.545C1476.53 503.408 1485.53 505.339 1494.61 506.67C1497.31 507.065 1500.02 508.317 1501.38 510.05C1505.52 515.354 1510.84 519.274 1516.02 523.188C1524.05 529.243 1529.83 537.307 1536 544.898C1541.63 551.822 1548.24 557.62 1554.31 564.031C1555.98 565.804 1558.08 567.28 1558.68 569.823C1554.15 573.961 1552.33 574.152 1548.44 570.989C1540.98 564.921 1533.52 558.839 1526.05 552.784C1524.48 551.506 1522.3 550.603 1521.35 548.976C1517.46 542.275 1511.81 538.823 1504.2 538.276C1503.2 538.204 1502.07 537.802 1501.53 536.714C1498.79 531.226 1493.52 531.74 1488.73 531.404C1483.41 531.035 1478.06 530.752 1472.74 530.897C1467.39 531.042 1462.13 530.818 1456.66 532.089C1450.73 533.466 1444 533.697 1438.09 530.29" stroke="black" stroke-width="1.22875" stroke-linecap="round" stroke-linejoin="round"/>
<path d="M865.016 312.803C868.215 319.233 870.994 325.914 874.704 332.029C880.827 342.123 883.816 353.719 890.103 363.668C898.533 377.01 906.511 390.629 916.606 402.89C921.765 409.156 926.223 416.121 929.52 423.678" stroke="black" stroke-width="1.22875" stroke-linecap="round" stroke-linejoin="round"/>
<path d="M871.945 301.555C874.64 304.816 874.692 309.119 876.023 312.868C881.936 329.544 890.785 344.783 898.861 360.333C903.594 369.445 909.022 378.524 916.22 386.154C917.721 387.748 918.416 389.705 919.36 391.55C921.543 395.826 924.113 399.687 927.849 402.863C930.878 405.432 934.024 408.121 935.375 412.16" stroke="black" stroke-width="1.22875" stroke-linecap="round" stroke-linejoin="round"/>
<path d="M870.346 302.096C865.475 309.488 861.057 317.184 855.452 324.082C854.77 324.926 854.22 325.888 854.842 327.291C859.988 338.927 863.384 351.327 869.362 362.58C874.515 372.279 880.355 381.589 886.806 390.53C891.25 396.697 894.443 403.845 899.281 409.643C906.577 418.406 911.277 428.652 917.262 438.153" stroke="black" stroke-width="1.22875" stroke-linecap="round" stroke-linejoin="round"/>
<path d="M623.52 966.832C614.06 962.424 607.112 954.465 600.524 947.132C595.43 941.465 593.352 932.057 593.083 923.966C592.946 919.835 596.951 915.091 599.114 910.65C604.018 900.582 606.863 889.731 611.392 879.584C616.466 868.232 618.649 855.898 624.018 844.69C627.65 837.1 627.309 828.383 630.377 820.576C631.052 818.856 629.223 818.269 627.014 817.65C620.95 823.415 615.784 830.36 611.314 837.779C604.876 848.466 599.521 859.864 591.936 869.787C587.21 875.974 583.204 882.635 578.439 888.815C571.366 897.993 562.758 901.571 551.582 902.836C537.894 904.378 529.654 898.026 522.712 887.603C516.871 878.826 517.632 875.058 526.442 869.279C530.814 866.413 535.665 864.918 540.372 862.974C542.234 862.203 544.233 861.65 545.125 859.706C547.583 854.349 551.706 850.08 554.414 844.822C556.242 841.264 559.691 838.405 562.798 835.67C568.678 830.485 574.565 825.227 580.969 820.747C585.597 817.512 586.141 811.905 589.852 808.209C593.437 804.631 596.505 800.697 601.625 799.05C602.654 798.721 603.093 799.406 603.801 799.195" stroke="black" stroke-width="1.22875" stroke-linecap="round" stroke-linejoin="round"/>
<path d="M914.055 446.719C921.357 446.745 928.548 444.914 935.917 445.605C947.513 446.699 959.109 448.452 969.375 453.914C976.92 457.926 983.384 464.008 990.273 469.233C993.944 472.013 997.471 474.602 999.523 479.32C1003.06 487.444 1002.13 501.834 992.968 506.755C989.041 508.864 987.029 513.41 982.833 515.314C981.581 515.881 981.293 517.396 981.286 518.503C981.214 530.297 980.388 542.209 982.597 553.799C983.364 557.831 985.134 561.982 985.98 566.186C988.458 578.546 990.601 591.005 989.67 603.669C989.028 612.452 988.438 621.386 986.288 629.852C984.655 636.27 987.068 642.061 986.556 648.136" stroke="black" stroke-width="1.22875" stroke-linecap="round" stroke-linejoin="round"/>
<path d="M430.005 1031.11C423.109 1031.98 416.802 1034.83 410.267 1036.96C402.676 1039.44 394.586 1040.76 387.441 1044.15C373.931 1050.56 359.312 1054.55 346.779 1063.16C341.62 1066.7 335.766 1069.23 330.351 1072.42C329.105 1073.15 327.335 1073.99 327.65 1076.1" stroke="black" stroke-width="1.22875" stroke-linecap="round" stroke-linejoin="round"/>
<path d="M1065.45 326.197C1066.32 331.857 1066.59 337.714 1070.76 342.287C1070.94 342.478 1070.82 342.985 1070.78 343.335C1070.23 349.383 1072.3 355.142 1072.75 361.025C1073.41 369.755 1072.52 378.538 1071.36 387.268C1069.87 398.541 1066.04 408.952 1060.68 418.881C1059.23 421.549 1058.28 424.567 1054.79 425.298" stroke="black" stroke-width="1.22875" stroke-linecap="round" stroke-linejoin="round"/>
<path d="M907.127 679.189C902.912 671.296 908.471 663.903 908.32 656.155C908.031 641.277 911.938 626.855 914.049 612.234C914.272 610.673 913.964 609.223 912.771 607.859C910.254 608.393 910.024 610.785 909.251 612.768C905.14 623.27 904.498 634.438 902.689 645.415C900.834 656.675 900.63 668.238 896.992 679.189" stroke="black" stroke-width="1.22875" stroke-linecap="round" stroke-linejoin="round"/>
<path d="M694.955 211.032C697.453 210.9 698.771 212.752 700.285 214.248C707.909 221.785 714.038 230.383 719.013 239.917C722.193 246.005 726.021 251.757 729.764 257.99C726.408 261.706 722.252 259.479 720.18 257.45C712.419 249.846 706.729 240.55 701.976 230.798C699.813 226.358 698.036 221.719 695.493 217.45C693.625 214.32 695.296 210.163 692.327 207.237C687.574 202.553 683.398 197.229 678.357 192.893C667.069 183.182 656.338 172.87 645.26 162.948C639.157 157.486 633.604 151.371 626.813 146.608C623.889 144.552 621.254 142.404 617.675 143.116C615.78 143.491 614.384 152.373 614.902 155.331C615.452 158.481 619.248 161.525 615.518 164.957" stroke="black" stroke-width="1.22875" stroke-linecap="round" stroke-linejoin="round"/>
<path d="M1062.26 261.384C1063.33 261.562 1064.39 261.74 1065.53 261.931C1068.03 259.401 1066.34 256.278 1065.81 253.926C1063.42 243.562 1059.59 233.633 1055.36 223.868C1054.56 222.023 1054.01 220.725 1051.67 219.922C1049.21 219.085 1046.8 216.93 1045.29 214.716C1038.67 204.985 1031.15 195.958 1026.3 184.889C1020.76 172.219 1002.91 165.294 990.63 177.088C983.517 183.921 974.36 188.605 966.421 194.594C954.851 203.331 942.258 210.645 933.015 222.636C922.094 236.795 909.528 249.683 897.485 262.952C892.051 268.942 887.449 275.497 883.175 282.297C879.104 288.78 876.017 295.909 870.34 301.286" stroke="black" stroke-width="1.22875" stroke-linecap="round" stroke-linejoin="round"/>
<path d="M1294.16 648.655C1288.55 646.744 1284.26 650.138 1279.8 652.463C1276.97 653.933 1274.64 656.482 1271.73 657.655C1265.68 660.087 1263.04 664.942 1261.09 670.609C1258.88 677.013 1253.44 681.23 1250.03 686.758C1240.6 702.03 1226.59 713.396 1216.21 727.845C1211.16 734.869 1205.7 741.609 1200.77 748.751C1197.89 752.928 1196.63 757.382 1196.08 762.212C1194.89 772.701 1192.91 782.248 1185.2 790.892C1176.91 800.176 1165.59 804.94 1157.08 813.564C1150.8 819.935 1143.07 824.725 1138.28 832.79C1136.35 836.045 1132.09 837.916 1128.89 840.413" stroke="black" stroke-width="1.22875" stroke-linecap="round" stroke-linejoin="round"/>
<path d="M539.825 927.195C542.847 931.656 545.534 936.406 548.969 940.518C553.735 946.224 554.141 953.175 555.21 959.882C557.714 975.616 549.349 987.107 539.156 997.22C533.44 1002.89 525.16 1002.87 517.458 1003.92C508.025 1005.21 498.742 1007.36 489.67 1010.62C480.473 1013.92 470.954 1016.42 461.436 1018.67C455.713 1020.02 451.577 1024.33 446.011 1025.78C442.144 1026.79 438.63 1029.64 434.277 1027.89" stroke="black" stroke-width="1.22875" stroke-linecap="round" stroke-linejoin="round"/>
<path d="M910.856 754.182C909.256 755.611 908.765 757.733 908.817 759.538C909.302 776.063 903.409 791.395 900.112 807.194C897.962 817.499 895.674 827.797 895.005 838.287C894.645 843.92 892.783 849.184 892.547 854.877C892.114 865.439 889.577 875.987 889.918 886.477C890.115 892.683 888.765 899.055 890.548 905.254C890.928 906.572 890.921 908.186 890.548 909.511C888.116 918.109 890.947 926.668 890.567 935.233C890.462 937.704 891.95 938.679 893.983 939.628C896.637 937.724 898.591 935.095 899.614 932.005C903.409 920.494 906.7 908.911 907.84 896.689C908.562 889.007 909.145 881.265 910.417 873.563C911.485 867.06 911.905 860.102 912.056 853.283C912.37 838.814 914.114 824.398 914.088 809.889C914.068 798.642 915.097 787.402 914.114 776.142C913.616 770.456 913.701 764.717 913.53 759.005C913.478 757.232 913.95 755.295 911.931 754.182" stroke="black" stroke-width="1.22875" stroke-linecap="round" stroke-linejoin="round"/>
<path d="M866.613 497.07C864.207 504.344 861.12 511.249 856.505 517.443C849.602 526.693 841.414 534.85 834.485 544.101C830.585 549.312 828.861 555.42 825.623 560.849C822.358 566.324 819.251 571.925 817.035 577.953" stroke="black" stroke-width="1.22875" stroke-linecap="round" stroke-linejoin="round"/>
<path d="M1058.53 250.672C1058.67 255.877 1060.75 260.647 1062.94 265.062C1068.08 275.452 1069.02 286.791 1071.19 297.834C1071.99 301.906 1072.54 306.043 1073.32 310.155C1075.29 320.473 1075.89 330.857 1070.79 340.661" stroke="black" stroke-width="1.22875" stroke-linecap="round" stroke-linejoin="round"/>
<path d="M934.849 296.738C932.227 297.443 929.625 298.234 926.911 297.74C925.029 300.131 925.691 302.391 926.832 304.79C930.627 312.782 932.161 321.466 934.259 329.972C935.006 332.996 933.525 336.093 932.057 338.445C927.612 345.574 921.64 351.464 915.078 356.676C914.213 357.361 912.653 357.177 910.47 357.559C913.787 348.605 905.462 343.426 904.465 335.856C902.721 322.658 895.891 311.233 891.676 298.893" stroke="black" stroke-width="1.22875" stroke-linecap="round" stroke-linejoin="round"/>
<path d="M609.66 463.322C604.534 459.283 599.447 462.959 594.793 464.099C585.15 466.451 577.355 472.493 569.502 478.627C563.006 483.701 555.913 488.128 549.417 493.313C546.08 495.975 542.907 498.756 541.426 502.959" stroke="black" stroke-width="1.22875" stroke-linecap="round" stroke-linejoin="round"/>
<path d="M1022.81 376.016C1018.57 392.632 1011.39 407.754 1000.46 421.043C997.867 424.199 995.343 427.572 993.586 431.229C989.948 438.819 981.157 441.672 977.611 449.322C977.276 450.047 974.746 449.75 973.238 449.928" stroke="black" stroke-width="1.22875" stroke-linecap="round" stroke-linejoin="round"/>
<path d="M691.758 910.052C694.217 910.276 695.96 909.116 697.652 907.403C704.502 900.472 710.585 892.954 715.095 884.277C715.495 883.512 716.374 882.735 716.282 881.661C716.138 880.053 717.927 878.202 715.744 876.845C713.83 875.659 712.44 876.39 710.913 877.872C706.128 882.524 704.05 889.014 699.775 893.995C699.435 894.39 699.513 895.128 699.205 895.57C695.849 900.465 692.309 904.952 690.329 910.994C688.12 917.754 682.41 923.13 676.753 927.617C669.201 933.6 663.105 941.078 655.573 947.087C645.851 954.842 636.471 962.986 624.586 967.361" stroke="black" stroke-width="1.22875" stroke-linecap="round" stroke-linejoin="round"/>
<path d="M539.29 943.266C528.309 955.995 514.504 965.786 503.432 978.496C496.057 986.962 485.431 991.838 477.119 999.21C468.977 1006.43 458.449 1007.1 449.593 1012.13C442.625 1016.09 438.403 1021.99 433.657 1027.83C431.389 1030.62 430.478 1033.68 429.272 1036.93C426.958 1043.17 428.308 1049.05 428.767 1055.23C429.35 1063.07 434.942 1068.77 436.397 1076.11" stroke="black" stroke-width="1.22875" stroke-linecap="round" stroke-linejoin="round"/>
<path d="M646.439 779.892C646.858 777.526 648.438 775.84 650.202 774.581C662.958 765.495 674.096 754.499 683.463 742.171C689.461 734.278 696.508 726.971 700.874 717.787C704.054 711.092 706.61 704.28 707.18 696.867C707.666 690.522 705.928 688.183 701.346 686.688C696.299 685.041 693.598 688.552 692.477 692.11C690.609 698.04 686.138 701.512 682.1 705.38C675.367 711.837 668.301 717.945 661.359 724.178C656.862 728.216 652.142 731.781 645.914 732.815C643.155 733.277 641.798 736.999 638.441 736.505" stroke="black" stroke-width="1.22875" stroke-linecap="round" stroke-linejoin="round"/>
<path d="M898.064 684.545C896.642 690.527 900.693 695.225 901.945 700.582C903.768 708.37 907.412 715.703 908.645 723.662C909.576 729.671 910.172 735.792 910.185 741.86C910.192 745.715 911.575 749.305 911.391 753.107" stroke="black" stroke-width="1.22875" stroke-linecap="round" stroke-linejoin="round"/>
<path d="M1219.53 590.808C1210.47 585.273 1201.4 579.739 1192.34 574.204C1188.89 572.096 1186.54 569.039 1184.27 565.692C1180.01 559.406 1176.91 558.78 1170.5 562.45C1162.73 566.897 1155.86 572.333 1149.48 578.823C1144.11 584.298 1136.74 587.744 1130.54 592.468C1119.17 601.132 1107.15 608.927 1096.39 618.401" stroke="black" stroke-width="1.22875" stroke-linecap="round" stroke-linejoin="round"/>
<path d="M788.246 517.956C794.225 515.142 800.17 514.523 806.948 515.511C814.395 516.605 822.209 516.289 829.827 515.274C834.946 514.596 839.935 515.426 844.982 511.848C849.656 508.534 854.514 505.332 859.129 501.853C865.612 496.964 871.938 491.878 878.342 486.883C881.266 484.61 884.039 482.252 885.829 478.858C889.473 471.94 897.386 468.975 901.273 462.242C901.397 462.031 901.686 461.912 901.791 461.695C905.724 453.248 913.944 452.523 921.509 450.388C928.287 448.478 935.007 448.544 941.778 449.927C951.755 451.97 961.805 454.249 970.484 459.685C979.425 465.286 987.62 471.92 989.337 483.642C989.757 486.475 989.153 488.544 987.62 490.619C982.251 497.9 981.444 506.089 982.828 514.727" stroke="black" stroke-width="1.22875" stroke-linecap="round" stroke-linejoin="round"/>
<path d="M829.826 365.836C827.046 369.664 828.888 375.007 825.65 378.77C825.257 379.231 825.041 380.186 824.51 380.845C815.594 391.842 811.15 405.395 803.801 417.32C796.118 429.793 786.633 441.152 780.746 454.738C780.058 456.332 779.887 458.025 779.461 459.501C777.528 466.222 776.774 473.127 775.489 479.939C775.227 481.317 775.089 482.911 775.515 484.196C777.495 490.145 778.93 496.187 780.3 502.295C781.585 508.04 783.493 514.807 788.239 519.577C789.845 521.191 791.949 522.667 790.376 525.461" stroke="black" stroke-width="1.22875" stroke-linecap="round" stroke-linejoin="round"/>
<path d="M738.137 404.939C738.314 408.155 738.438 411.37 738.687 414.579C738.91 417.458 739.71 420.397 741.421 422.545C747.196 429.825 750.67 438.601 756.747 445.684C760.903 450.527 763.735 455.804 764.076 462.762C764.266 466.61 768.193 470.181 770.055 474.062C771.189 476.434 771.962 478.832 774.925 479.385" stroke="black" stroke-width="1.22875" stroke-linecap="round" stroke-linejoin="round"/>
<path d="M950.842 350.298C947.021 350.015 946.063 355.853 941.567 354.377C940.937 353.026 941.068 351.754 942.275 350.265C950.941 339.552 955.49 326.539 961.246 314.284C963.999 308.42 965.775 301.786 966.942 295.144C967.906 289.669 967.309 284.905 963.697 280.609C951.786 281.36 945.205 291.751 935.66 295.968C941.036 308.763 944.831 321.466 939.77 335.342C938.728 338.201 939.803 341.891 935.916 343.334" stroke="black" stroke-width="1.22875" stroke-linecap="round" stroke-linejoin="round"/>
<path d="M1038.8 424.219C1042.06 437.423 1041.27 450.191 1034.52 462.236C1031.79 467.105 1029.37 472.119 1022.28 472.185C1020.51 472.198 1017.93 474.82 1016.83 477.739C1015.08 482.391 1013.05 486.904 1011.34 491.608C1006.89 503.909 999.313 514.175 987.081 520.078C985.508 520.836 984.282 522.404 982.289 522.239" stroke="black" stroke-width="1.22875" stroke-linecap="round" stroke-linejoin="round"/>
<path d="M1225.39 581.702C1225.65 579.784 1224.62 578.414 1223.24 577.446C1218.31 573.98 1213.53 570.218 1208.26 567.358C1203.08 564.545 1198.91 560.71 1195.05 556.48C1191.67 552.784 1192.39 548.238 1195.47 544.159C1203.86 533.005 1215.85 528.748 1228.49 524.637C1237.08 521.843 1242.83 525.204 1249.42 529.124C1259.94 535.363 1269.94 542.301 1279.82 549.483C1284.46 552.856 1288.53 556.862 1292.95 560.46C1297.81 564.426 1297.68 572.201 1293 577.88C1286.53 585.734 1279.62 593.265 1270.2 597.851C1269.3 598.292 1268.61 598.925 1267.5 598.859C1263 598.608 1259.38 599.689 1255.61 602.937C1249.11 608.557 1240.77 607.095 1233.91 600.447" stroke="black" stroke-width="1.22875" stroke-linecap="round" stroke-linejoin="round"/>
<path d="M1256.84 603.662C1257.37 604.196 1257.82 604.868 1258.45 605.25C1269.46 611.911 1269.93 622.473 1269.14 633.661C1268.56 642.035 1267.68 650.409 1268.04 658.836" stroke="black" stroke-width="1.22875" stroke-linecap="round" stroke-linejoin="round"/>
<path d="M1205.13 533.492C1201.76 529.605 1197.59 531.067 1194.57 533.103C1186.91 538.269 1178.27 542.235 1172.53 550.036C1171.31 551.697 1169.1 552.672 1167.27 553.831C1162.5 556.849 1160.38 561.033 1161.42 566.699" stroke="black" stroke-width="1.22875" stroke-linecap="round" stroke-linejoin="round"/>
<path d="M794.112 432.789C794.44 441.71 796.033 450.434 795.102 459.618C794.348 467.05 795.751 475.029 798.465 482.765C800.366 488.187 801.887 493.84 804.175 499.243C806.423 504.54 805.577 506.932 801.579 509.39C797.744 511.748 791.49 510.977 788.789 507.782C786.095 504.593 785.118 499.968 780.785 498.143" stroke="black" stroke-width="1.22875" stroke-linecap="round" stroke-linejoin="round"/>
<path d="M1062.26 378.156C1065.28 384.6 1062.91 390.76 1061.16 396.895C1058.97 404.603 1056.27 412.273 1054.65 420.014C1053.49 425.529 1052.41 430.543 1048.93 434.931" stroke="black" stroke-width="1.22875" stroke-linecap="round" stroke-linejoin="round"/>
<path d="M1060.66 377.617C1057.96 379.614 1057.33 382.737 1056.41 385.655C1052.9 396.724 1047.24 406.713 1041.61 416.8C1038.06 423.172 1034 429.134 1029.62 434.84C1026.01 439.558 1020.47 442.753 1018.54 448.854" stroke="black" stroke-width="1.22875" stroke-linecap="round" stroke-linejoin="round"/>
<path d="M721.609 423.15C721.281 427.433 724.494 430.009 727.05 432.118C736.241 439.688 743.93 448.754 752.511 456.911C755.618 459.869 758.811 462.564 763.19 463.322" stroke="black" stroke-width="1.22875" stroke-linecap="round" stroke-linejoin="round"/>
<path d="M1034.54 411.363C1032.39 418.156 1028.78 424.165 1025.06 430.187C1023.26 433.099 1020.15 433.034 1017.98 434.898C1011.12 440.782 1003.09 444.946 995.554 449.828C989.877 453.505 983.82 451.001 978.031 449.13" stroke="black" stroke-width="1.22875" stroke-linecap="round" stroke-linejoin="round"/>
<path d="M1184.34 550.096C1188.81 558.582 1195.64 564.65 1203.44 570.046C1208.14 573.301 1212.64 576.655 1217.83 579.211C1220.67 580.608 1223.11 582.499 1226.32 581.353C1226.83 584.805 1224.55 585.616 1223.24 587.039C1221.28 589.173 1218.46 590.939 1220.06 594.543C1221.6 598.002 1223.88 600.565 1228.05 600.434C1231.7 600.315 1234.22 598.582 1235.53 595.09C1236.14 593.449 1236.93 591.868 1237.64 590.261" stroke="black" stroke-width="1.22875" stroke-linecap="round" stroke-linejoin="round"/>
<path d="M534.492 925.586C533.226 932.412 537.343 937.617 540.522 942.618C547.314 953.285 547.537 972.471 539.474 980.938C536.38 984.193 533.895 988.133 530.224 990.933C528.008 992.626 525.517 993.911 522.758 994.089C518.261 994.385 513.934 995.703 510.047 997.535C504.94 999.946 499.866 1000.06 494.504 1000.16C491.115 1000.22 487.732 1001.4 484.376 1002.19C480.685 1003.07 477.074 1004.62 473.18 1003.25" stroke="black" stroke-width="1.22875" stroke-linecap="round" stroke-linejoin="round"/>
<path d="M592.065 922.906C588.964 922.747 587.476 923.34 585.903 927.063C581.642 937.124 574.175 945.334 567.548 953.978C565.227 957.002 562.559 959.842 560.75 963.156C559.629 965.205 558.462 966.154 556.352 966.292" stroke="black" stroke-width="1.22875" stroke-linecap="round" stroke-linejoin="round"/>
<path d="M1040.4 190.68C1037.84 184.48 1034.46 178.807 1030.31 173.503C1023.82 165.195 1011.54 163.541 1004.68 170.321" stroke="black" stroke-width="1.22875" stroke-linecap="round" stroke-linejoin="round"/>
<path d="M1294.16 577.953C1295.42 579.317 1296.2 580.727 1296.41 582.763C1296.69 585.537 1297.42 588.337 1298.95 590.814C1301.47 594.906 1302.06 599.465 1302.98 604.143C1304.33 610.969 1304.82 617.696 1304.82 624.555C1304.8 633.72 1302.21 641.482 1296.05 648.9C1290.55 655.516 1284.07 660.866 1278.03 666.723C1273.74 670.88 1268.06 673.43 1261.64 670.624" stroke="black" stroke-width="1.22875" stroke-linecap="round" stroke-linejoin="round"/>
<path d="M290.867 656.688C296.334 664.225 299.383 673.311 305.787 680.262C311.274 686.225 314.984 693.637 321.192 699.073C324.476 701.945 328.75 702.809 332.015 705.853C340.078 713.364 347.531 721.099 351.858 731.581C352.71 733.644 351.72 734.533 351.635 735.956" stroke="black" stroke-width="1.22875" stroke-linecap="round" stroke-linejoin="round"/>
<path d="M905.527 685.078C908.248 686.33 910.575 687.898 912.561 690.349C914.915 693.255 917.714 695.969 920.198 698.704C924.984 703.968 929.166 710.26 927.914 718.292" stroke="black" stroke-width="1.22875" stroke-linecap="round" stroke-linejoin="round"/>
<path d="M951.376 629.91C948.478 636.209 946.938 642.877 946.027 649.729C945.62 652.78 945.234 655.876 944.362 658.808C943.785 660.739 944.086 662.406 944.453 664.191" stroke="black" stroke-width="1.22875" stroke-linecap="round" stroke-linejoin="round"/>
<path d="M915.123 245.314C915.254 251.356 913.7 256.904 910.285 261.958C913.7 265.245 917.076 261.529 920.8 261.958C923.075 267.591 920.23 272.717 918.866 278.357C919.672 278.568 920.695 279.2 921.501 278.996C928.063 277.342 931.413 279.892 931.098 286.553C930.908 290.48 934.756 292.022 935.916 295.125" stroke="black" stroke-width="1.22875" stroke-linecap="round" stroke-linejoin="round"/>
<path d="M928.449 429.041C929.695 429.219 931.117 429.884 932.153 429.496C939.416 426.807 944.543 430.761 950.429 434.18C957.542 438.311 964.89 442.825 973.766 442.449C975.844 442.363 977.863 442.805 979.627 444.03" stroke="black" stroke-width="1.22875" stroke-linecap="round" stroke-linejoin="round"/>
<path d="M961.504 310.128C960.246 310.042 959.61 310.483 958.751 311.669C953.651 318.699 948.217 325.459 944.88 333.656C944.067 335.652 943.09 338.222 940.18 338.518" stroke="black" stroke-width="1.22875" stroke-linecap="round" stroke-linejoin="round"/>
<path d="M951.908 395.834C950.708 394.16 948.552 394.226 946.998 392.737C939.912 385.958 929.515 386.557 922.586 393.693" stroke="black" stroke-width="1.22875" stroke-linecap="round" stroke-linejoin="round"/>
<path d="M952.44 629.91C954.342 633.58 953.634 637.362 952.978 641.157C951.962 647.047 952.381 652.938 952.978 658.835" stroke="black" stroke-width="1.22875" stroke-linecap="round" stroke-linejoin="round"/>
<path d="M1554.31 577.412C1552.03 582.914 1554.91 589.95 1560.69 593.522C1563.05 594.978 1565.43 596.23 1568.17 596.697" stroke="black" stroke-width="1.22875" stroke-linecap="round" stroke-linejoin="round"/>
<path d="M1459.95 530.547C1455.06 525.414 1449.17 525.098 1442.9 527.121C1441.48 527.582 1439.57 528.017 1439.68 530.277" stroke="black" stroke-width="1.22875" stroke-linecap="round" stroke-linejoin="round"/>
<path d="M952.441 620.265C951.91 613.229 953.634 606.91 957.961 601.389C962.7 603.181 960.524 606.923 959.691 608.926C957.928 613.156 956.931 617.775 953.667 621.478C952.199 623.145 952.441 626.334 951.91 628.837" stroke="black" stroke-width="1.22875" stroke-linecap="round" stroke-linejoin="round"/>
<path d="M1540.45 610.094C1536.63 619.166 1541.54 622.191 1547.92 627.224C1548.93 628.015 1550.05 628.661 1551.11 629.379" stroke="black" stroke-width="1.22875" stroke-linecap="round" stroke-linejoin="round"/>
<path d="M605.389 798.371C603.101 803.827 597.956 810.297 592.613 814.731C590.666 816.352 588.457 816.306 586.195 816.312" stroke="black" stroke-width="1.22875" stroke-linecap="round" stroke-linejoin="round"/>
<path d="M1025.47 447.785C1026.83 453.926 1026.09 459.79 1023.39 465.482C1022.53 467.294 1022.28 469.39 1021.74 471.353" stroke="black" stroke-width="1.22875" stroke-linecap="round" stroke-linejoin="round"/>
<path d="M879.402 669.549C885.518 672.197 890.409 676.447 894.906 681.29C896.807 683.332 899.245 684.775 902.326 684.011" stroke="black" stroke-width="1.22875" stroke-linecap="round" stroke-linejoin="round"/>
<path d="M1199.8 537.774C1193.24 537.636 1189.51 542.34 1185.42 546.36C1181.58 550.148 1179.23 554.661 1179.54 560.268" stroke="black" stroke-width="1.22875" stroke-linecap="round" stroke-linejoin="round"/>
<path d="M960.972 355.657C958.592 355.552 957.465 357.153 956.114 358.826C953.44 362.141 949.677 363.682 945.508 364.229" stroke="black" stroke-width="1.22875" stroke-linecap="round" stroke-linejoin="round"/>
<path d="M867.146 588.666C864.969 596.928 867.796 605.085 867.697 613.308C867.671 615.35 867.763 617.38 866.615 619.198" stroke="black" stroke-width="1.22875" stroke-linecap="round" stroke-linejoin="round"/>
<path d="M962.572 351.373C961.962 355.932 960.946 360.439 958.206 364.155C957.072 365.69 957.459 367.054 957.242 368.517" stroke="black" stroke-width="1.22875" stroke-linecap="round" stroke-linejoin="round"/>
<path d="M951.905 349.23C951.709 352.9 951.61 356.537 948.772 359.469C947.979 360.286 946.819 361.69 948.175 363.159" stroke="black" stroke-width="1.22875" stroke-linecap="round" stroke-linejoin="round"/>
<path d="M387.886 782.566C384.425 784.767 382.025 788.516 377.758 789.531" stroke="black" stroke-width="1.22875" stroke-linecap="round" stroke-linejoin="round"/>
<path d="M1023.88 432.789C1025.78 434.93 1021.98 437.072 1023.88 439.22" stroke="black" stroke-width="1.22875" stroke-linecap="round" stroke-linejoin="round"/>
<path d="M775.988 679.188C775.254 680.617 775.254 682.047 775.988 683.47" stroke="black" stroke-width="1.22875" stroke-linecap="round" stroke-linejoin="round"/>
</g>
</g>
<defs>
<clipPath id="clip0_1019_8074">
<rect width="1627" height="1075" fill="white"/>
</clipPath>
<clipPath id="clip1_1019_8074">
<rect width="1627" height="1075" fill="white"/>
</clipPath>
</defs>
</svg>
