<svg width="488" height="348" viewBox="0 0 488 348" fill="none" xmlns="http://www.w3.org/2000/svg">
<path d="M370.897 91.1192C372.497 88.5092 370.627 86.1492 369.767 84.1792C363.957 70.8892 358.857 57.3792 349.077 45.9692C335.177 29.7692 319.067 17.2592 298.907 10.1092C290.537 7.13922 282.187 4.28922 273.457 2.35922C269.977 1.58922 266.727 2.09921 263.387 1.70921C231.537 -1.93079 204.327 8.65922 179.817 28.5092C165.057 40.4592 154.757 55.4792 146.467 72.1492C142.917 79.2892 139.937 86.7292 136.947 94.1392C134.857 99.3392 137.097 104.459 142.427 106.039C149.387 108.109 156.427 109.589 163.907 109.359C168.217 109.229 169.807 107.409 170.877 104.119C174.077 94.3092 179.177 85.4592 184.337 76.5892C194.587 58.9892 208.407 44.8992 226.487 35.7892C247.217 25.3392 269.177 23.0792 290.827 32.7992C306.587 39.8692 317.567 52.6092 325.937 67.5992C327.327 70.0892 327.667 73.3992 330.897 74.6192" stroke="black" stroke-width="2" stroke-linecap="round" stroke-linejoin="round"/>
<path d="M345.898 102.119C342.708 103.079 341.128 102.819 340.148 98.6792C338.938 93.5892 337.708 88.3192 334.958 83.5792C330.898 76.5892 330.528 68.2292 326.508 61.0592C316.368 42.9892 304.178 26.7592 285.338 17.2392C255.458 2.1292 226.058 3.38921 197.908 22.1392C177.278 35.8792 162.308 54.6392 150.348 76.0992C145.798 84.2592 142.698 92.9692 139.398 101.629" stroke="black" stroke-width="2" stroke-linecap="round" stroke-linejoin="round"/>
<path d="M343.396 156.119C330.506 147.429 317.206 148.569 304.466 155.739C287.446 165.309 276.976 180.429 270.306 198.589C266.986 207.639 263.856 216.729 261.986 226.139C259.116 240.559 258.566 255.069 263.966 269.099C267.336 277.829 273.766 284.099 281.896 288.629C284.566 290.119 287.226 291.629 289.896 293.129C291.646 294.109 293.446 294.739 295.396 293.629" stroke="black" stroke-width="2" stroke-linecap="round" stroke-linejoin="round"/>
<path d="M120.897 183.119C118.897 187.619 116.317 191.959 115.027 196.659C112.927 204.309 113.267 212.379 114.107 220.099C115.287 231.029 118.507 241.629 124.437 251.099C127.357 255.759 130.657 260.179 133.927 264.599C135.477 266.699 137.717 266.359 139.777 265.529C146.377 274.319 155.497 279.369 165.437 282.489C179.407 286.869 202.587 276.939 210.407 264.139C219.007 250.059 221.167 234.919 219.577 218.609C218.207 204.489 215.437 190.919 209.347 178.149C203.647 166.189 195.907 156.189 182.937 151.029C175.477 148.059 168.107 147.489 160.397 149.129" stroke="black" stroke-width="2" stroke-linecap="round" stroke-linejoin="round"/>
<path d="M266.898 3.1192C279.988 7.0292 292.648 11.9892 303.358 20.6692C318.808 33.1992 329.558 49.2192 336.918 67.6092C340.058 75.4592 343.358 83.3892 344.738 91.6392C348.908 116.669 354.238 141.689 346.528 167.149C343.088 178.519 337.898 188.839 331.388 198.599C324.228 209.329 317.138 219.959 313.228 232.559C310.118 242.609 310.028 252.489 311.488 262.599C311.708 264.109 311.998 265.579 311.908 267.109" stroke="black" stroke-width="2" stroke-linecap="round" stroke-linejoin="round"/>
<path d="M343.898 86.6192C353.148 84.7592 361.458 88.3892 369.878 91.1692C374.058 92.5492 374.048 96.9092 374.768 100.149C378.118 115.099 380.538 130.199 379.898 145.619C379.498 155.279 379.168 164.949 378.898 174.619C378.528 188.199 381.578 201.349 383.798 214.629C385.918 227.259 382.738 239.179 377.448 250.649C377.018 251.589 376.608 251.619 375.888 251.619" stroke="black" stroke-width="2" stroke-linecap="round" stroke-linejoin="round"/>
<path d="M341.398 169.119C339.218 170.169 337.688 171.299 336.718 174.049C334.198 181.159 329.748 187.109 323.948 192.169C315.308 199.709 309.828 209.419 305.878 220.109C300.158 235.589 298.268 251.089 303.808 267.149C307.078 276.599 312.808 284.249 322.448 285.789C335.128 287.809 348.428 288.479 358.888 278.119C362.668 274.369 366.328 270.559 369.478 266.189C373.858 260.109 374.708 252.889 376.808 246.099C379.828 236.359 381.848 226.399 379.398 216.129C377.978 210.179 376.028 204.379 370.848 200.689C363.608 195.539 356.318 198.179 349.438 201.709C345.648 203.649 342.738 206.969 339.928 210.159C333.108 217.879 326.958 225.919 325.308 236.619C324.478 241.999 325.858 247.329 324.898 252.629" stroke="black" stroke-width="2" stroke-linecap="round" stroke-linejoin="round"/>
<path d="M164.399 109.619C168.919 115.259 165.169 120.809 163.739 126.079C161.809 133.199 160.339 140.389 159.639 147.649C159.419 149.929 159.149 150.399 157.409 150.089C149.339 148.649 143.559 152.819 139.519 158.709C126.409 177.819 124.199 199.409 127.569 221.599C129.569 234.809 133.509 247.549 140.769 259.209C147.859 270.589 157.899 277.129 170.419 280.579C171.429 280.859 172.239 280.959 172.409 282.129" stroke="black" stroke-width="2" stroke-linecap="round" stroke-linejoin="round"/>
<path d="M323.399 166.119C320.529 165.599 318.659 167.619 316.959 169.179C301.549 183.299 290.289 199.979 285.369 220.609C282.379 233.129 279.819 245.679 279.909 258.619C279.959 265.929 282.629 272.679 284.519 279.589C284.689 280.219 285.169 282.079 286.899 281.619" stroke="black" stroke-width="2" stroke-linecap="round" stroke-linejoin="round"/>
<path d="M340.895 159.119C333.025 160.589 326.585 163.919 320.735 169.959C301.405 189.889 290.565 213.899 285.605 240.659C283.415 252.489 283.835 264.559 286.555 276.699C288.285 284.409 292.075 289.869 297.145 295.129C300.625 295.009 303.455 293.299 306.445 291.729C308.465 290.669 310.855 288.479 313.415 291.589C313.445 294.849 309.655 295.059 307.895 297.119" stroke="black" stroke-width="2" stroke-linecap="round" stroke-linejoin="round"/>
<path d="M165.896 180.119C160.676 187.679 159.996 196.449 160.016 205.119C160.036 217.199 163.456 228.549 169.316 239.159C169.846 240.119 170.506 241.269 171.046 242.009C175.266 247.839 180.796 251.159 188.406 249.629C194.846 248.339 197.746 243.679 199.916 238.119C205.706 223.289 204.146 208.669 198.896 194.109C196.116 186.399 191.976 179.549 184.856 175.169C178.276 171.119 171.656 172.789 166.136 180.119C166.776 180.399 167.746 181.239 168.376 181.039C175.966 178.589 178.406 184.679 181.326 189.159C190.176 202.749 191.256 218.019 189.786 233.599C189.446 237.179 187.396 240.469 185.486 243.659C184.586 245.169 183.496 247.129 184.896 249.109" stroke="black" stroke-width="2" stroke-linecap="round" stroke-linejoin="round"/>
<path d="M342.895 103.119C342.145 106.449 342.455 109.739 342.815 113.129C344.505 129.099 345.555 144.989 343.625 161.149C341.755 176.829 334.905 189.669 324.815 201.049C316.345 210.599 310.125 221.229 307.505 233.639C305.395 243.629 304.885 254.219 309.195 263.479C313.205 272.109 318.015 281.089 327.895 285.119" stroke="black" stroke-width="2" stroke-linecap="round" stroke-linejoin="round"/>
<path d="M139.897 105.119C132.907 106.029 132.977 106.039 131.377 113.119C128.547 125.639 127.257 138.319 126.207 151.109C125.467 160.209 124.627 169.489 121.067 178.189C120.727 179.019 118.447 182.089 122.377 182.759C123.347 182.929 123.357 184.629 123.007 186.149C120.357 197.379 120.197 208.749 121.927 220.119C123.867 232.789 127.467 244.919 133.877 256.139C135.607 259.179 138.537 261.679 138.407 265.619" stroke="black" stroke-width="2" stroke-linecap="round" stroke-linejoin="round"/>
<path d="M113.397 201.619C110.417 203.959 110.707 207.549 110.497 210.629C109.207 229.849 114.657 246.849 127.877 261.149C129.167 262.539 130.427 263.519 132.397 263.129" stroke="black" stroke-width="2" stroke-linecap="round" stroke-linejoin="round"/>
<path d="M137.897 106.119C134.757 118.429 134.187 131.109 132.377 143.619C131.507 149.639 130.437 155.629 129.377 161.619C129.017 163.639 128.057 165.619 129.397 167.619" stroke="black" stroke-width="2" stroke-linecap="round" stroke-linejoin="round"/>
<path d="M363.898 197.619C360.548 193.439 356.238 194.919 352.428 196.209C342.088 199.699 335.758 207.499 331.438 217.139C331.128 217.829 331.398 218.789 331.398 219.619" stroke="black" stroke-width="2" stroke-linecap="round" stroke-linejoin="round"/>
<path d="M372.898 256.619C370.028 257.909 369.158 260.909 367.448 263.159C363.178 268.769 357.608 272.689 351.358 275.539C346.378 277.809 341.058 277.779 335.898 275.619" stroke="black" stroke-width="2" stroke-linecap="round" stroke-linejoin="round"/>
<path d="M345.896 225.119C349.786 229.239 353.666 233.349 357.806 237.729C353.816 244.259 347.376 246.969 340.816 249.849C342.236 241.589 341.706 233.209 345.406 225.619" stroke="black" stroke-width="2" stroke-linecap="round" stroke-linejoin="round"/>
<path d="M323.396 243.619C321.166 254.769 324.796 264.199 331.896 272.619" stroke="black" stroke-width="2" stroke-linecap="round" stroke-linejoin="round"/>
<path d="M335.398 287.619C333.568 291.739 329.328 292.369 325.878 294.089C320.238 296.909 314.428 299.189 307.898 298.119" stroke="black" stroke-width="2" stroke-linecap="round" stroke-linejoin="round"/>
<path d="M144.398 90.1192C152.788 93.5792 161.448 96.0992 170.408 97.5792C171.028 97.6792 171.738 97.2792 172.398 97.1192" stroke="black" stroke-width="2" stroke-linecap="round" stroke-linejoin="round"/>
<path d="M374.898 105.619C369.338 106.209 364.338 103.379 358.898 103.049C354.898 102.809 350.998 101.219 346.898 102.119" stroke="black" stroke-width="2" stroke-linecap="round" stroke-linejoin="round"/>
<path d="M145.898 105.119C148.418 103.249 146.258 98.9392 149.888 97.5992C153.078 96.4192 155.168 99.2892 157.898 99.5692C160.418 99.8292 163.008 99.4092 165.568 100.709C166.878 103.509 164.598 105.939 164.388 108.619" stroke="black" stroke-width="2" stroke-linecap="round" stroke-linejoin="round"/>
<path d="M370.898 229.619C370.328 236.019 369.548 242.389 367.898 248.619" stroke="black" stroke-width="2" stroke-linecap="round" stroke-linejoin="round"/>
<path d="M364.397 231.119C362.167 236.929 361.057 242.889 361.637 249.099C364.457 243.389 367.127 237.689 365.397 231.119" stroke="black" stroke-width="2" stroke-linecap="round" stroke-linejoin="round"/>
<path d="M156.898 150.619C151.228 153.449 145.568 156.289 139.898 159.119" stroke="black" stroke-width="2" stroke-linecap="round" stroke-linejoin="round"/>
<path d="M134.897 163.619C127.807 166.839 126.587 173.989 124.007 180.169C123.667 180.989 122.807 181.619 122.897 182.619" stroke="black" stroke-width="2" stroke-linecap="round" stroke-linejoin="round"/>
<path d="M298.398 296.119C301.008 297.889 303.978 297.589 306.898 297.619" stroke="black" stroke-width="2" stroke-linecap="round" stroke-linejoin="round"/>
<path d="M342.898 86.6192C340.848 86.0392 340.208 88.6492 338.398 88.6192" stroke="black" stroke-width="2" stroke-linecap="round" stroke-linejoin="round"/>
</svg>
