<svg viewBox="0 0 488 348" fill="none" xmlns="http://www.w3.org/2000/svg">
<path d="M370.588 91.1192C372.188 88.5092 370.318 86.1492 369.458 84.1792C363.648 70.8892 358.548 57.3792 348.768 45.9692C334.868 29.7692 318.758 17.2592 298.598 10.1092C290.228 7.13922 281.878 4.28922 273.148 2.35922C269.668 1.58922 266.418 2.09921 263.078 1.70921C231.228 -1.93079 204.018 8.65922 179.508 28.5092C164.748 40.4592 154.448 55.4792 146.158 72.1492C142.608 79.2892 139.628 86.7292 136.638 94.1392C134.548 99.3392 136.788 104.459 142.118 106.039C149.078 108.109 156.118 109.589 163.598 109.359C167.908 109.229 169.498 107.409 170.568 104.119C173.768 94.3092 178.868 85.4592 184.028 76.5892C194.278 58.9892 208.098 44.8992 226.178 35.7892C246.908 25.3392 268.868 23.0792 290.518 32.7992C306.278 39.8692 317.258 52.6092 325.628 67.5992C327.018 70.0892 327.358 73.3992 330.588 74.6192" stroke="black" stroke-width="2" stroke-linecap="round" stroke-linejoin="round"/>
<path d="M345.59 102.119C342.4 103.079 340.82 102.819 339.84 98.6792C338.63 93.5892 337.4 88.3192 334.65 83.5792C330.59 76.5892 330.22 68.2292 326.2 61.0592C316.06 42.9892 303.87 26.7592 285.03 17.2392C255.15 2.1292 225.75 3.38921 197.6 22.1392C176.97 35.8792 162 54.6392 150.04 76.0992C145.49 84.2592 142.39 92.9692 139.09 101.629" stroke="black" stroke-width="2" stroke-linecap="round" stroke-linejoin="round"/>
<path d="M343.088 156.119C330.198 147.429 316.898 148.569 304.158 155.739C287.138 165.309 276.668 180.429 269.998 198.589C266.678 207.639 263.548 216.729 261.678 226.139C258.808 240.559 258.258 255.069 263.658 269.099C267.028 277.829 273.458 284.099 281.588 288.629C284.258 290.119 286.918 291.629 289.588 293.129C291.338 294.109 293.138 294.739 295.088 293.629" stroke="black" stroke-width="2" stroke-linecap="round" stroke-linejoin="round"/>
<path d="M120.588 183.119C118.588 187.619 116.008 191.959 114.718 196.659C112.618 204.309 112.958 212.379 113.798 220.099C114.978 231.029 118.198 241.629 124.128 251.099C127.048 255.759 130.348 260.179 133.618 264.599C135.168 266.699 137.408 266.359 139.468 265.529C146.068 274.319 155.188 279.369 165.128 282.489C179.098 286.869 202.278 276.939 210.098 264.139C218.698 250.059 220.858 234.919 219.268 218.609C217.898 204.489 215.128 190.919 209.038 178.149C203.338 166.189 195.598 156.189 182.628 151.029C175.168 148.059 167.798 147.489 160.088 149.129" stroke="black" stroke-width="2" stroke-linecap="round" stroke-linejoin="round"/>
<path d="M266.59 3.1192C279.68 7.0292 292.34 11.9892 303.05 20.6692C318.5 33.1992 329.25 49.2192 336.61 67.6092C339.75 75.4592 343.05 83.3892 344.43 91.6392C348.6 116.669 353.93 141.689 346.22 167.149C342.78 178.519 337.59 188.839 331.08 198.599C323.92 209.329 316.83 219.959 312.92 232.559C309.81 242.609 309.72 252.489 311.18 262.599C311.4 264.109 311.69 265.579 311.6 267.109" stroke="black" stroke-width="2" stroke-linecap="round" stroke-linejoin="round"/>
<path d="M343.59 86.6192C352.84 84.7592 361.15 88.3892 369.57 91.1692C373.75 92.5492 373.74 96.9092 374.46 100.149C377.81 115.099 380.23 130.199 379.59 145.619C379.19 155.279 378.86 164.949 378.59 174.619C378.22 188.199 381.27 201.349 383.49 214.629C385.61 227.259 382.43 239.179 377.14 250.649C376.71 251.589 376.3 251.619 375.58 251.619" stroke="black" stroke-width="2" stroke-linecap="round" stroke-linejoin="round"/>
<path d="M341.089 169.119C338.909 170.169 337.379 171.299 336.409 174.049C333.889 181.159 329.439 187.109 323.639 192.169C314.999 199.709 309.519 209.419 305.569 220.109C299.849 235.589 297.959 251.089 303.499 267.149C306.769 276.599 312.499 284.249 322.139 285.789C334.819 287.809 348.119 288.479 358.579 278.119C362.359 274.369 366.019 270.559 369.169 266.189C373.549 260.109 374.399 252.889 376.499 246.099C379.519 236.359 381.539 226.399 379.089 216.129C377.669 210.179 375.719 204.379 370.539 200.689C363.299 195.539 356.009 198.179 349.129 201.709C345.339 203.649 342.429 206.969 339.619 210.159C332.799 217.879 326.649 225.919 324.999 236.619C324.169 241.999 325.549 247.329 324.589 252.629" stroke="black" stroke-width="2" stroke-linecap="round" stroke-linejoin="round"/>
<path d="M164.09 109.619C168.61 115.259 164.86 120.809 163.43 126.079C161.5 133.199 160.03 140.389 159.33 147.649C159.11 149.929 158.84 150.399 157.1 150.089C149.03 148.649 143.25 152.819 139.21 158.709C126.1 177.819 123.89 199.409 127.26 221.599C129.26 234.809 133.2 247.549 140.46 259.209C147.55 270.589 157.59 277.129 170.11 280.579C171.12 280.859 171.93 280.959 172.1 282.129" stroke="black" stroke-width="2" stroke-linecap="round" stroke-linejoin="round"/>
<path d="M323.09 166.119C320.22 165.599 318.35 167.619 316.65 169.179C301.24 183.299 289.98 199.979 285.06 220.609C282.07 233.129 279.51 245.679 279.6 258.619C279.65 265.929 282.32 272.679 284.21 279.589C284.38 280.219 284.86 282.079 286.59 281.619" stroke="black" stroke-width="2" stroke-linecap="round" stroke-linejoin="round"/>
<path d="M340.587 159.119C332.717 160.589 326.276 163.919 320.426 169.959C301.096 189.889 290.257 213.899 285.297 240.659C283.107 252.489 283.527 264.559 286.247 276.699C287.977 284.409 291.766 289.869 296.836 295.129C300.316 295.009 303.147 293.299 306.137 291.729C308.157 290.669 310.546 288.479 313.106 291.589C313.136 294.849 309.347 295.059 307.587 297.119" stroke="black" stroke-width="2" stroke-linecap="round" stroke-linejoin="round"/>
<path d="M165.587 180.119C160.367 187.679 159.687 196.449 159.707 205.119C159.727 217.199 163.147 228.549 169.007 239.159C169.537 240.119 170.197 241.269 170.737 242.009C174.957 247.839 180.487 251.159 188.097 249.629C194.537 248.339 197.437 243.679 199.607 238.119C205.397 223.289 203.837 208.669 198.587 194.109C195.807 186.399 191.667 179.549 184.547 175.169C177.967 171.119 171.347 172.789 165.827 180.119C166.467 180.399 167.437 181.239 168.067 181.039C175.657 178.589 178.097 184.679 181.017 189.159C189.867 202.749 190.947 218.019 189.477 233.599C189.137 237.179 187.087 240.469 185.177 243.659C184.277 245.169 183.187 247.129 184.587 249.109" stroke="black" stroke-width="2" stroke-linecap="round" stroke-linejoin="round"/>
<path d="M342.59 103.119C341.84 106.449 342.15 109.739 342.51 113.129C344.2 129.099 345.25 144.989 343.32 161.149C341.45 176.829 334.6 189.669 324.51 201.049C316.04 210.599 309.82 221.229 307.2 233.639C305.09 243.629 304.58 254.219 308.89 263.479C312.9 272.109 317.71 281.089 327.59 285.119" stroke="black" stroke-width="2" stroke-linecap="round" stroke-linejoin="round"/>
<path d="M139.589 105.119C132.599 106.029 132.669 106.039 131.069 113.119C128.239 125.639 126.949 138.319 125.899 151.109C125.159 160.209 124.319 169.489 120.759 178.189C120.419 179.019 118.139 182.089 122.069 182.759C123.039 182.929 123.049 184.629 122.699 186.149C120.049 197.379 119.889 208.749 121.619 220.119C123.559 232.789 127.159 244.919 133.569 256.139C135.299 259.179 138.229 261.679 138.099 265.619" stroke="black" stroke-width="2" stroke-linecap="round" stroke-linejoin="round"/>
<path d="M113.088 201.619C110.108 203.959 110.398 207.549 110.188 210.629C108.898 229.849 114.348 246.849 127.568 261.149C128.858 262.539 130.118 263.519 132.088 263.129" stroke="black" stroke-width="2" stroke-linecap="round" stroke-linejoin="round"/>
<path d="M137.589 106.119C134.449 118.429 133.879 131.109 132.069 143.619C131.199 149.639 130.129 155.629 129.069 161.619C128.709 163.639 127.749 165.619 129.089 167.619" stroke="black" stroke-width="2" stroke-linecap="round" stroke-linejoin="round"/>
<path d="M363.589 197.619C360.239 193.439 355.929 194.919 352.119 196.209C341.779 199.699 335.449 207.499 331.129 217.139C330.819 217.829 331.089 218.789 331.089 219.619" stroke="black" stroke-width="2" stroke-linecap="round" stroke-linejoin="round"/>
<path d="M372.59 256.619C369.72 257.909 368.85 260.909 367.14 263.159C362.87 268.769 357.3 272.689 351.05 275.539C346.07 277.809 340.75 277.779 335.59 275.619" stroke="black" stroke-width="2" stroke-linecap="round" stroke-linejoin="round"/>
<path d="M345.588 225.119C349.478 229.239 353.358 233.349 357.498 237.729C353.508 244.259 347.068 246.969 340.508 249.849C341.928 241.589 341.398 233.209 345.098 225.619" stroke="black" stroke-width="2" stroke-linecap="round" stroke-linejoin="round"/>
<path d="M323.088 243.619C320.858 254.769 324.488 264.199 331.588 272.619" stroke="black" stroke-width="2" stroke-linecap="round" stroke-linejoin="round"/>
<path d="M335.09 287.619C333.26 291.739 329.02 292.369 325.57 294.089C319.93 296.909 314.12 299.189 307.59 298.119" stroke="black" stroke-width="2" stroke-linecap="round" stroke-linejoin="round"/>
<path d="M144.09 90.1192C152.48 93.5792 161.14 96.0992 170.1 97.5792C170.72 97.6792 171.43 97.2792 172.09 97.1192" stroke="black" stroke-width="2" stroke-linecap="round" stroke-linejoin="round"/>
<path d="M374.59 105.619C369.03 106.209 364.03 103.379 358.59 103.049C354.59 102.809 350.69 101.219 346.59 102.119" stroke="black" stroke-width="2" stroke-linecap="round" stroke-linejoin="round"/>
<path d="M145.59 105.119C148.11 103.249 145.95 98.9392 149.58 97.5992C152.77 96.4192 154.86 99.2892 157.59 99.5692C160.11 99.8292 162.7 99.4092 165.26 100.709C166.57 103.509 164.29 105.939 164.08 108.619" stroke="black" stroke-width="2" stroke-linecap="round" stroke-linejoin="round"/>
<path d="M370.59 229.619C370.02 236.019 369.24 242.389 367.59 248.619" stroke="black" stroke-width="2" stroke-linecap="round" stroke-linejoin="round"/>
<path d="M364.088 231.119C361.858 236.929 360.748 242.889 361.328 249.099C364.148 243.389 366.818 237.689 365.088 231.119" stroke="black" stroke-width="2" stroke-linecap="round" stroke-linejoin="round"/>
<path d="M156.59 150.619C150.92 153.449 145.26 156.289 139.59 159.119" stroke="black" stroke-width="2" stroke-linecap="round" stroke-linejoin="round"/>
<path d="M134.589 163.619C127.499 166.839 126.279 173.989 123.699 180.169C123.359 180.989 122.499 181.619 122.589 182.619" stroke="black" stroke-width="2" stroke-linecap="round" stroke-linejoin="round"/>
<path d="M298.09 296.119C300.7 297.889 303.67 297.589 306.59 297.619" stroke="black" stroke-width="2" stroke-linecap="round" stroke-linejoin="round"/>
<path d="M342.59 86.6192C340.54 86.0392 339.9 88.6492 338.09 88.6192" stroke="black" stroke-width="2" stroke-linecap="round" stroke-linejoin="round"/>
<path d="M66.2226 151.653C56.8027 159.856 50.2029 170.122 44.8667 181.242C38.7968 193.901 35.0682 207.312 34.4729 221.322C33.9235 234.099 35.1244 246.879 39.3101 259.054C44.5361 274.281 51.9106 288.368 63.3823 299.981" stroke="black" stroke-width="2" stroke-linecap="round" stroke-linejoin="round"/>
<path d="M43.5898 133.653C33.9603 143.749 27.1112 156.266 21.5096 169.784C15.1375 185.172 11.0956 201.413 10.1813 218.304C9.34085 233.71 10.2551 249.078 14.1753 263.65C19.0693 281.877 26.143 298.681 37.3803 312.411" stroke="black" stroke-width="2" stroke-linecap="round" stroke-linejoin="round"/>
<path d="M80.4725 168.322C67.1324 182.581 58.6135 199.275 56.8862 218.783C54.7026 243.413 62.4423 265.106 78.1927 284.054" stroke="black" stroke-width="2" stroke-linecap="round" stroke-linejoin="round"/>
<path d="M94.7512 184.743C79.1988 200.991 74.7559 220.309 79.4399 241.886C81.7731 252.617 87.7752 261.562 94.8835 269.785" stroke="black" stroke-width="2" stroke-linecap="round" stroke-linejoin="round"/>
<path d="M437.553 181.032C445.271 190.853 449.834 202.172 452.995 214.095C456.589 227.666 457.743 241.538 455.706 255.411C453.855 268.065 450.284 280.395 443.895 291.571C435.912 305.552 426.032 318.011 412.59 327.272" stroke="black" stroke-width="2" stroke-linecap="round" stroke-linejoin="round"/>
<path d="M463.154 167.584C470.725 179.304 475.111 192.882 478.084 207.209C481.465 223.517 482.396 240.228 480.134 256.992C478.077 272.282 474.303 287.209 467.726 300.79C459.508 317.779 449.415 332.962 435.807 344.348" stroke="black" stroke-width="2" stroke-linecap="round" stroke-linejoin="round"/>
<path d="M420.434 194.74C430.871 211.243 436.116 229.236 434.162 248.723C431.699 273.326 420.037 293.188 401.02 308.855" stroke="black" stroke-width="2" stroke-linecap="round" stroke-linejoin="round"/>
<path d="M403.332 208.2C415.57 227.07 416.32 246.879 407.681 267.198C403.381 277.304 395.812 284.967 387.291 291.714" stroke="black" stroke-width="2" stroke-linecap="round" stroke-linejoin="round"/>
</svg>
