<svg width="1578" height="888" viewBox="0 0 1578 888" fill="none" xmlns="http://www.w3.org/2000/svg">
<path d="M1057.95 345.566C1066.31 357.217 1066.89 371.19 1069.6 384.525C1069.93 386.169 1070.16 387.841 1070.32 389.513C1070.91 395.691 1069.28 398.689 1063.66 401.207C1060.56 402.592 1060.15 404.692 1061.26 407.527C1061.39 407.848 1061.43 408.199 1061.51 408.539C1057.94 407.949 1059.31 412.33 1056.72 413.184C1054.03 414.072 1053.65 418.807 1055.99 420.661C1063.32 426.46 1069.01 433.974 1076.38 439.727C1079.45 442.127 1081.69 445.372 1084.09 448.419C1089.15 454.857 1090.77 454.971 1098.72 452.655C1106.1 450.505 1113.79 449.373 1122.13 446.859C1121.27 448.148 1121.14 448.614 1120.9 448.669C1112.1 450.727 1104.16 455.588 1095.05 456.671C1092.33 456.995 1090.99 457.636 1092.69 461.029C1097.91 471.471 1097.72 471.523 1109.56 469.99C1111.86 469.691 1114.27 469.469 1116.53 469.827C1122.38 470.755 1128.35 469.349 1134.29 470.749C1133.56 472.038 1132.42 472.057 1131.48 471.974C1122.32 471.147 1113.63 474.666 1104.56 474.753C1102.02 474.777 1100.4 475.888 1102.79 478.541C1102.96 478.732 1103.18 478.954 1103.21 479.182C1104.31 487.19 1110.03 488.859 1116.85 489.621C1120.89 490.071 1124.69 491.814 1128.31 493.914C1122.92 492.573 1117.44 492.44 1111.99 491.937C1109.59 491.715 1108.82 492.119 1109.56 494.531C1114.07 509.195 1117.5 524.168 1123.91 538.259C1131.4 554.727 1138.02 571.612 1140.63 589.648C1141.65 596.656 1143.87 603.517 1143.6 610.719C1143.55 611.975 1143.71 613.344 1144.96 614.177V615.729C1143.79 617.774 1144.24 620.022 1144.22 622.191C1144.12 633.44 1142.4 644.32 1136.83 654.298C1136.04 655.711 1135.94 656.948 1136.89 658.253C1136.97 658.358 1137.04 658.463 1137.11 658.571C1138.5 660.699 1140.99 663.663 1138.55 665.286C1136.01 666.967 1135.75 662.525 1134.07 661.325C1130.98 676.949 1126.78 692.304 1121.98 707.499C1120.84 711.105 1118.95 714.34 1117.01 717.554C1110.8 727.826 1105.05 738.342 1099.82 749.156C1099.03 750.8 1099.97 751.155 1100.68 751.982C1101.97 753.481 1104.32 754.804 1102.84 757.158C1101.52 759.274 1099.17 758.574 1097.15 758.089C1094.41 757.432 1092.68 757.411 1093.37 761.263C1093.82 763.786 1091.94 765.023 1089.36 764.379C1088.25 764.101 1087.17 763.567 1086.18 762.966C1083.28 761.189 1081.01 760.048 1080.97 765.27C1080.96 767.676 1078.98 768.127 1077.03 766.8C1075.54 765.788 1074.05 764.69 1072.81 763.392C1066.79 757.09 1059.73 756.22 1051.63 758.555C1038.08 762.463 1024.21 765.375 1010.23 766.686C1001.24 767.531 991.987 768.241 982.85 766.011C978.399 764.922 973.615 765.495 968.976 764.977C958.183 763.774 947.59 761.569 936.976 759.431C930.511 758.129 924.397 758.567 919.147 763.17C918.684 763.577 917.999 763.731 917.416 764.002C916.741 762.667 920.35 761.337 917.478 760.07C916.232 759.517 914.779 759.635 914.511 761.325C914.261 762.895 913.354 765.153 916.534 764.937C916.133 765.785 915.649 766.649 914.554 766.439C913.379 766.214 913.459 765.125 913.434 764.252C913.339 760.532 911.657 761.214 909.6 762.833C909.193 763.154 908.78 763.466 908.348 763.749C902.734 767.423 901.648 766.914 900.905 760.298C900.806 759.422 901.016 758.225 900.127 757.83C898.937 757.303 898.375 758.601 897.666 759.258C896.623 760.221 895.796 761.445 894.671 762.275C892.298 764.021 889.933 763.364 889.424 760.674C888.936 758.086 887.94 757.987 886.071 759.289C884.942 760.073 883.692 761.495 882.344 760.156C880.784 758.604 882.267 757.102 883.001 755.631C883.544 754.542 885.272 753.725 884.448 752.343C883.711 751.109 882.076 751.602 880.839 751.636C869.608 751.935 858.362 751.926 847.143 752.046C835.495 752.173 824.058 754.517 812.392 754.027C801.963 753.586 791.487 753.669 781.052 754.024C771.521 754.348 762.014 755.347 752.495 756.041C751.209 756.134 749.907 756.331 748.63 756.229C745.477 755.976 741.64 754.289 741.844 760.051C741.859 760.461 741.032 761.103 740.477 761.306C734.104 763.632 727.562 764.348 720.844 763.197C724.693 762.935 728.537 762.627 732.389 762.429C735.304 762.278 737.963 761.18 740.323 759.733C742.134 758.62 739.851 756.34 740.795 754.684C740.915 754.471 740.918 754.187 740.974 753.937C743.849 755.088 746.884 754.875 749.802 754.542C758.522 753.549 767.221 752.046 776.012 752.293C783.221 752.494 790.46 752.284 797.604 751.969C807.873 751.516 818.117 752.953 828.438 751.303C837.929 749.785 847.673 750.032 857.334 749.813C864.697 749.647 872.026 750.288 879.377 750.051C882.039 749.964 882.474 749.4 881.237 746.935C875.234 734.958 868.621 723.202 863.717 710.781C859 698.831 854.817 686.505 853.584 673.503C853.429 671.875 853.608 670.477 850.983 671.079C847.96 671.773 848.087 669.228 848.263 667.319C848.519 664.536 849.392 661.785 848.346 658.194C846.754 660.69 846.227 663.173 844.487 664.839C843.759 665.533 843.105 666.612 841.905 666.106C840.675 665.588 840.65 664.166 841.177 663.426C845.042 657.994 841.473 653.638 839.836 648.617C838.065 643.191 838.071 637.185 837.337 631.429C835.718 618.73 836.68 606.345 839.74 593.791C842.171 583.812 843.855 573.577 845.912 563.466C847.02 558.034 848.189 552.553 850.049 547.349C853.09 538.845 854.891 529.902 858.929 521.762C862.649 514.257 866.539 506.836 870.361 499.377C870.987 498.159 872.495 496.987 871.521 495.565C870.45 494.004 868.673 494.809 867.218 495.173C862.97 496.228 858.744 497.378 854.416 498.19C859.278 495.447 864.34 493.276 870.018 493.088C872.816 492.995 874.51 491.872 875.555 489.176C877.045 485.324 878.813 481.567 880.679 477.877C881.99 475.283 881.373 474.574 878.55 474.447C870.771 474.099 863.004 473.491 855.237 472.64C863.251 471.526 871.224 470.215 879.312 470.589C882.6 470.74 884.615 469.635 885.975 466.569C887.227 463.75 889.041 461.184 890.605 458.503C891.731 456.578 891.404 455.557 889.007 454.996C881.61 453.259 874.257 451.319 866.897 449.422C865.691 449.11 864.534 448.608 863.528 447.673C870.305 449.08 877.073 450.523 883.862 451.871C886.391 452.374 888.979 452.571 891.518 453.04C893.239 453.358 894.251 452.436 895.09 451.254C901.586 442.087 910.667 436.297 920.624 431.627C925.532 429.323 927.781 424.643 930.292 420.331C932.281 416.913 931.738 416.229 927.805 415.797C927.623 414.316 930.467 414.492 929.61 412.91C928.253 410.399 925.563 412.431 923.66 411.568C923.749 411.259 923.743 410.948 923.894 410.809C924.974 409.825 927.577 409.739 926.991 407.903C926.291 405.71 924.403 407.999 923.024 407.761C922.198 407.619 921.315 407.808 920.442 407.848C920.347 406.293 921.479 406.287 922.216 405.904C923.351 405.318 924.964 404.991 924.989 403.514C925.017 401.768 923.444 400.932 922.037 400.266C916.025 397.425 915.711 396.395 916.266 389.479C916.883 381.786 917.268 374.047 917.173 366.335C917.102 360.573 919.002 355.104 918.925 349.394C918.909 348.343 919.212 347.263 920.359 346.862C921.787 346.362 922.947 347.084 923.783 348.108C926.072 350.912 928.456 353.667 930.443 356.68C934.851 363.365 939.703 369.774 943.21 377.036C944.459 379.62 945.292 382.304 946.116 385.031C947.121 388.356 946.597 391.348 944.064 393.557C941.245 396.012 943.33 397.733 944.265 399.929C945.372 402.533 946.998 401.41 948.562 400.765C949.148 402.289 947.852 403.125 947.868 404.282C947.889 405.92 948.651 407.447 950.23 407.252C955.329 406.626 960.471 408.057 965.527 406.802C968.189 406.142 970.897 406.065 973.624 406.093C985.386 406.21 997.116 404.711 1008.9 405.479C1014.71 405.858 1020.6 406.049 1026.19 407.511C1030.87 408.739 1034.71 407.067 1038.95 406.222C1038.44 404.266 1036.46 405.087 1035.71 403.708C1036.22 401.83 1044.38 406.799 1039.25 399.809C1040.64 399.001 1042.56 399.615 1043.41 397.804C1042.28 401.981 1043.11 407.036 1037.07 408.588C1038.99 410.167 1040.79 410.519 1042.68 410.809C1045.79 411.29 1048.74 412.163 1050.84 414.788C1052.19 416.472 1053.2 416.559 1054.01 414.22C1054.84 411.79 1056.14 409.513 1056.95 407.077C1058.27 403.141 1060.57 400.528 1064.64 399.087C1067.96 397.915 1069.05 394.624 1068.71 391.385C1067.29 377.862 1065.05 364.487 1060.16 351.711C1059.47 349.916 1058.48 347.806 1056.35 347.686C1054.01 347.55 1053.17 349.962 1052.69 351.655C1049.9 361.403 1044.76 370.126 1040.87 379.386C1038.8 384.3 1041.24 388.418 1043.59 392.986C1039.17 389.812 1037.39 384.778 1039.17 379.913C1041.12 374.596 1042.95 369.219 1046.16 364.392C1047.68 362.097 1048.45 359.188 1049.1 356.446C1050.07 352.275 1052.14 348.793 1054.83 345.582H1057.94L1057.95 345.566ZM954.595 433.243C957.692 435.776 957.236 438.82 955.928 442.041C955.511 443.065 953.728 444.039 955.545 445.298C956.902 446.236 958.207 445.847 959.518 445.014C961.474 443.768 963.278 442.337 965.438 441.346C977.659 435.733 990.565 435.985 1003.52 436.784C1012.7 437.349 1021.63 439.345 1030.76 442.145C1030.76 440.057 1030.67 438.271 1030.78 436.501C1031.08 431.781 1034.14 428.03 1038.8 427.321C1046.05 426.217 1052.94 427.355 1058.02 433.092C1061.03 436.497 1063.96 436.979 1067.7 434.961C1067.84 434.181 1067.31 433.758 1066.82 433.364C1061.16 428.817 1056.64 423.153 1051.62 417.987C1048.87 415.158 1045.65 413.107 1041.82 412.009C1034.16 409.806 1026.2 410.096 1018.4 409.085C998.363 406.484 978.39 407.539 958.436 409.695C949.814 410.627 948.901 410.411 944.434 403.008C944.101 402.456 943.787 401.879 943.38 401.379C939.419 396.484 939.089 391.32 942.173 385.879C942.963 384.488 943.201 383.14 942.676 381.459C938.898 369.312 930.643 359.919 923.425 349.885C922.978 349.265 922.395 348.555 921.55 348.682C920.381 348.858 920.418 349.99 920.31 350.832C919.804 354.802 919.267 358.769 918.931 362.754C918.107 372.504 918.845 382.332 917.5 392.058C917.065 395.198 918.527 397.564 921.346 398.501C925.544 399.896 927.531 402.94 928.709 406.796C929.483 409.334 930.699 411.639 932.661 413.357C934.163 414.671 934.036 416.043 933.49 417.54C931.041 424.273 927.333 429.937 920.819 433.579C913.851 437.475 906.278 440.606 901.062 447.031C899.405 449.07 895.729 450.776 896.66 453.302C897.499 455.585 901.401 455.203 903.995 455.801C912.435 457.747 920.924 459.533 928.857 463.155C930.168 463.753 932.207 464.453 931.232 466.434C930.424 468.084 928.749 467.137 927.42 466.69C918.842 463.799 910.288 460.832 901.676 458.043C894.041 455.57 894.014 455.656 889.828 462.464C889.556 462.905 889.235 463.315 888.983 463.765C887.925 465.641 885.5 467.532 886.555 469.552C887.659 471.668 890.667 471.079 892.931 471.264C894.088 471.36 895.263 471.338 896.426 471.292C903.702 471.008 910.899 471.788 918.07 472.89C919.471 473.106 921.229 473.167 921.121 475.095C921.025 476.813 919.35 476.699 918.086 476.77C912.299 477.1 906.543 477.708 900.75 476.273C895.843 475.058 890.728 475.308 885.694 475.033C884.137 474.947 883.301 475.465 882.687 476.826C880.882 480.836 878.992 484.806 877.162 488.803C876.28 490.731 876.977 491.518 879.019 491.154C882.076 490.611 885.114 489.926 888.187 489.494C896.37 488.347 904.384 485.968 912.737 486.076C913.826 486.092 915.526 485.688 915.664 487.165C915.816 488.772 914.107 488.933 912.836 489.176C912.456 489.247 912.065 489.278 911.682 489.331C900.537 490.836 889.396 492.372 878.242 493.819C875.389 494.189 873.584 495.552 872.384 498.19C870.891 501.475 868.797 504.498 867.433 507.826C864.602 514.739 860.117 520.855 857.902 528.055C853.917 541.004 849.814 553.894 846.733 567.134C843.92 579.216 841.766 591.419 839.071 603.52C836.304 615.932 838.281 628.446 840.067 640.868C840.631 644.804 840.378 648.879 842.831 652.395C844.478 654.758 846.939 656.01 849.416 655.69C852.291 655.319 851.014 652.377 851.212 650.495C851.387 648.832 851.245 647.136 851.239 645.455C851.202 633.434 851.104 621.487 854.12 609.618C856.588 599.914 860.789 590.86 863.538 581.295C863.852 580.2 864.17 578.704 865.897 578.578C866.576 579.247 866.431 580.021 866.218 580.749C864.506 586.613 864.09 592.693 863.134 598.686C862.217 604.427 860.425 610.081 860.037 615.843C859.454 624.498 858.522 633.073 856.906 641.578C856.014 646.263 854.126 650.899 854.068 655.579C853.904 668.222 854.854 680.73 859.016 692.955C862.47 703.109 865.518 713.307 870.549 722.903C874.019 729.517 877.468 736.152 880.873 742.799C883.057 747.065 885.873 749.748 890.297 751.288C899.004 754.317 908.045 756.035 916.981 758.095C920.557 758.919 924.557 758.694 929.218 757.704C924.129 755.486 919.866 753.703 915.914 751.291C908.079 746.513 899.267 743.875 892.696 736.349C885.222 727.786 878.535 718.835 873.982 708.671C869.951 699.67 867.64 689.784 866.206 679.99C863.976 664.768 865.768 649.601 868.877 634.585C871.607 621.401 875.561 608.569 880.389 596.043C882.693 590.065 884.374 583.892 887.743 578.198C896.503 563.38 908.653 551.643 920.702 539.724C926.288 534.196 933.265 531.001 940.391 528.434C950.82 524.677 961.628 522.324 972.606 520.325C984.624 518.138 996.524 518.335 1008.5 518.792C1014.8 519.032 1021.2 519.6 1027.3 521.065C1039.31 523.958 1051.33 526.96 1063 531.158C1069.52 533.502 1075.71 536.599 1081.04 540.819C1094.18 551.229 1103.46 564.857 1111.5 579.389C1112.81 581.761 1114.1 584.096 1114.66 586.826C1116.83 597.449 1119.02 608.073 1121.43 618.647C1124.53 632.29 1126.87 646.032 1126.97 660.048C1127.02 667.501 1128.19 674.928 1127.35 682.424C1129 677.094 1130.41 671.751 1131.73 666.381C1132.03 665.144 1132.16 663.824 1132.1 662.55C1131.76 654.554 1130.79 646.547 1131.06 638.576C1131.65 621.463 1126.72 605.071 1125.24 588.248C1124.88 584.182 1124.41 580.126 1123.99 576.064C1124.32 576.042 1124.65 576.023 1124.98 576.002C1128.29 602.267 1134.31 628.206 1133.7 654.999C1139.16 648.524 1140.75 640.911 1141.71 633.252C1143.17 621.528 1142.23 609.849 1140.28 598.193C1138.66 588.501 1137.34 578.71 1133.99 569.484C1131.21 561.85 1129.15 553.975 1125.64 546.556C1122.83 540.634 1119.62 534.841 1117.74 528.477C1114.44 517.33 1110.91 506.25 1107.63 495.099C1106.88 492.566 1105.55 491.767 1102.99 491.434C1097.95 490.783 1092.92 490.845 1087.88 490.737C1086.26 490.703 1084 490.938 1084.03 488.593C1084.05 486.391 1086.25 486.885 1087.7 486.844C1090.8 486.755 1093.88 486.875 1096.98 487.335C1099.19 487.662 1102.24 488.745 1103.5 486.678C1104.65 484.796 1102.84 482.177 1101.67 480.287C1100.42 478.251 1099.69 475.123 1096.33 475.37C1090.4 475.805 1084.48 476.412 1078.56 476.9C1077.38 476.995 1075.58 478.223 1075.14 476.597C1074.64 474.731 1076.45 473.689 1078.13 473.195C1079.11 472.908 1080.18 472.985 1081.2 472.853C1085.18 472.338 1089.15 471.804 1093.12 471.276C1094.62 471.079 1095.88 470.539 1094.72 468.821C1093.17 466.526 1092.44 463.901 1091.34 461.427C1090.11 458.663 1088.26 457.917 1085.42 459.225C1081.18 461.181 1076.66 462.387 1072.16 463.608C1071.05 463.91 1069.68 464.358 1069.28 462.747C1068.95 461.464 1070.16 460.977 1071.13 460.635C1075.51 459.068 1079.56 456.643 1084.16 455.65C1086.31 455.187 1087.02 454.57 1085.35 452.377C1081.18 446.89 1076.36 442.099 1070.84 438.027C1068.12 436.029 1064.19 437.299 1062.38 440.119C1060.18 443.54 1057.62 446.738 1053.49 448.808C1057.2 451.516 1061.22 453.731 1063.35 457.877C1062.46 457.525 1061.79 456.942 1061.13 456.356C1056.85 452.559 1052.58 448.944 1046.2 449.274C1043.4 449.419 1040.59 448.247 1038.06 446.927C1031.33 443.407 1023.96 441.957 1016.72 440.085C1011.79 438.814 1007.06 439.008 1002.42 441.325C1000.2 442.432 997.928 443.965 998.122 446.313C998.338 448.944 1001.45 447.951 1003.27 448.555C1004.09 448.827 1005.07 448.521 1005.97 448.62C1008.3 448.882 1010.55 449.385 1012.4 451.032C1014.11 452.556 1014.77 454.413 1014.29 456.612C1013.79 458.95 1011.89 459.432 1009.89 459.703C1000.99 460.918 992.107 460.832 983.199 459.777C980.497 459.456 978.837 458.478 978.683 455.551C978.535 452.707 979.503 450.866 982.468 450.147C984.982 449.539 987.422 448.676 990.065 448.728C992.11 448.768 994.106 448.018 995.3 446.541C997.539 443.762 999.485 440.76 1002.92 439.144C1002.39 438.583 1002.23 438.256 1002.05 438.246C987.721 437.491 973.528 437.599 960.755 445.56C958.682 446.853 956.563 447.929 954.244 446.578C952.279 445.434 950.746 445.813 948.858 446.812C941.529 450.696 929.564 448.842 925.976 444.175C927.522 444.82 929.079 445.431 930.609 446.112C937.485 449.181 948.663 447.275 953.861 442.09C955.388 440.569 956.603 438.851 955.326 436.602C954.148 434.526 952.053 434.869 950.138 434.89C949.095 434.903 948.281 435.254 948.842 436.538C950.866 441.161 947.282 440.899 944.715 440.967C942.556 441.023 939.342 441.507 938.873 438.694C938.429 436.013 941.396 435.211 943.543 434.311C947.118 432.814 950.912 433.623 954.592 433.24L954.595 433.243ZM1043.18 568.398C1041.21 571.477 1038.37 570.74 1035.94 569.577C1030.07 566.776 1024.09 566.211 1017.8 567.519C1016.69 567.751 1015.39 567.775 1014.33 567.433C1010.73 566.267 1007.18 567.266 1003.6 567.276C995.028 567.3 986.293 569.746 977.924 566.773C973.081 565.052 968.683 563.879 963.914 566.538C963.093 566.998 961.859 566.949 960.857 566.819C952.677 565.764 944.666 567.689 936.578 568.007C932.574 568.164 929.403 569.41 926.14 571.298C924.28 572.371 922.386 573.932 920.044 573.429C916.479 572.664 913.107 573.577 909.674 574.167C905.019 574.969 900.578 575.07 897.869 570.123C897.058 568.642 896.284 569.648 895.883 570.369C892.573 576.344 887.443 581.554 885.852 588.171C883.27 598.896 879.084 609.016 875.527 619.365C871.079 632.314 869.33 645.711 867.649 659.16C865.722 674.586 870.533 689.136 874.287 703.64C877.076 714.408 884.377 723.286 891.348 731.83C893.884 734.936 896.102 738.934 899.643 740.849C909.511 746.18 919.07 752.207 929.866 755.689C939.882 758.922 950.277 760.178 960.589 761.994C971.795 763.972 983.1 764.709 994.383 765.394C1004.69 766.02 1015.07 765.387 1025.24 763.163C1039.34 760.082 1053.63 757.827 1067.19 752.559C1083.94 746.059 1098.31 736.21 1109.83 722.493C1117.47 713.39 1123.06 703.165 1124.9 691.095C1126.61 679.879 1126.39 668.614 1125.15 657.513C1124.17 648.706 1123.49 639.804 1121.37 631.068C1118.38 618.788 1116.33 606.283 1113.71 593.911C1112.46 587.979 1111.56 581.715 1107.67 576.875C1103.66 571.899 1100.65 566.338 1097.02 561.162C1087.74 547.95 1076.34 537.312 1060.49 532.574C1043.14 527.388 1025.74 522.105 1007.51 521.293C999.041 520.917 990.549 519.257 981.999 521.074C972.27 523.144 962.294 524.276 952.757 526.981C943.386 529.64 933.555 531.978 925.742 538.209C919.705 543.024 914.187 548.583 908.986 554.308C905.815 557.8 902.512 561.387 900.426 565.764C898.81 569.16 899.634 571.748 902.876 572.556C907.833 573.793 912.598 571.819 917.419 571.097C920.097 570.696 920.442 567.791 921.784 565.968C926.602 559.413 930.489 557.399 937.081 561.023C939.228 562.204 941.492 563.179 943.737 564.172C948.059 566.082 952.612 565.965 956.372 563.481C959.783 561.23 963.581 559.453 966.496 556.371C968.198 554.573 970.607 554.37 972.986 555.403C975.151 556.344 976.878 557.864 978.701 559.336C982.255 562.211 985.481 565.847 990.771 565.468C993.736 565.255 996.728 565.166 999.692 565.295C1006.64 565.601 1013.22 565.19 1017.21 558.225C1017.46 557.797 1017.91 557.463 1018.33 557.158C1021.53 554.814 1024.58 553.78 1028.68 555.847C1034.64 558.858 1039.26 563.142 1043.24 568.312L1043.18 568.404V568.398ZM1064.14 756.106C1066.87 757.096 1069.37 757.087 1071.89 756.72C1076.48 756.053 1081.09 755.501 1085.64 754.631C1092.63 753.296 1098.63 750.446 1101.24 743.141C1102.56 739.455 1104.76 736.263 1106.64 732.885C1108.41 729.723 1110.06 726.494 1111.75 723.292C1098.53 738.113 1082.58 748.743 1064.14 756.103V756.106ZM1061.21 439.776C1057.53 440.699 1054.56 441.532 1051.56 442.17C1047.85 442.957 1044.36 442.312 1041.39 439.866C1040.3 438.971 1039.29 437.778 1039.77 436.183C1040.26 434.594 1041.71 434.388 1043.14 434.027C1046.48 433.185 1048.57 435.146 1050.55 437.182C1052.57 439.264 1054.84 439.968 1057.57 439.113C1059.4 438.543 1060.09 437.528 1058.94 435.637C1054.88 429.008 1042.26 425.88 1035.67 429.924C1030.32 433.206 1030.34 440.344 1035.73 443.311C1037.42 444.243 1039.11 445.27 1040.93 445.865C1048.1 448.2 1055.31 448.083 1061.21 439.776ZM996.925 458.67C1000.67 458.67 1004.42 458.728 1008.17 458.648C1010.4 458.602 1012.8 458.531 1012.82 455.329C1012.83 452.288 1010.93 451.026 1008.23 450.511C999.942 448.925 991.765 449.518 983.649 451.671C981.755 452.173 980.148 452.855 980.13 455.122C980.111 457.516 981.949 457.997 983.772 458.398C988.125 459.358 992.545 458.682 996.928 458.67H996.925ZM852.957 651.189C854.965 646.464 863.066 593.34 862.307 589.574C853.784 609.454 850.894 629.64 852.957 651.189ZM1088.26 755.896C1086.45 756.707 1082.92 755.27 1082.32 757.642C1081.68 760.159 1085.25 760.514 1087.01 761.788C1087.21 761.936 1087.46 762.031 1087.69 762.13C1088.85 762.614 1090.15 763.571 1091.26 762.531C1092.74 761.14 1091.65 759.416 1091.3 757.855C1090.97 756.424 1090.08 755.646 1088.26 755.899V755.896ZM912.817 758.987C909.548 758.351 907.037 757.846 904.52 757.377C903.388 757.167 902.333 757.423 902.067 758.663C901.685 760.449 901.54 762.321 902.866 763.823C903.696 764.764 904.81 764.44 905.71 763.854C907.866 762.442 909.97 760.946 912.817 758.987ZM1074.78 757.987C1074.03 758.284 1071.83 757.084 1071.46 759.598C1071.32 760.572 1077.31 765.69 1078.32 765.498C1080.45 765.101 1079.51 763.29 1079.65 762.065C1080 758.987 1078.7 757.383 1074.78 757.987ZM890.83 759.496C890.753 760.828 890.324 762.17 892.231 762.124C893.372 762.096 898.141 757.71 897.894 756.751C897.363 754.678 895.232 754.755 893.835 754.69C890.192 754.526 891.537 757.827 890.83 759.496ZM1098.93 756.994C1100.08 756.772 1101.83 757.222 1101.37 755.403C1100.88 753.49 1099.45 751.874 1097.29 751.982C1095.51 752.071 1093.02 753.543 1093.42 754.847C1094.09 757.053 1097.07 756.362 1098.93 756.994ZM851.394 658.102C850.009 661.769 849.321 665.505 850.107 669.385C852.729 665.893 851.93 661.973 851.394 658.102ZM882.906 759.363C885.79 758.345 887.462 757.047 888.902 755.424C889.513 754.736 890.022 753.894 889.109 753.089C888.289 752.367 887.326 752.629 886.712 753.327C885.324 754.906 883.751 756.405 882.906 759.36V759.363ZM845.925 656.563C843.654 659.117 842.615 661.492 842.294 665.085C844.9 662.47 846.631 660.391 845.925 656.563ZM944.29 386.289C943.05 387.937 941.813 389.599 942.83 392.196C945.011 390.441 945.548 388.624 944.29 386.289Z" fill="black"/>
<path d="M719.952 761.64C718.182 760.397 717.731 758.556 717.626 756.551C717.457 753.349 715.921 751.865 712.589 752.319C705.257 753.321 697.922 753.611 690.565 752.427C687.453 751.924 685.667 752.988 685.756 756.588C685.821 759.2 685.618 761.125 681.407 760.533C677.227 759.947 672.724 761.381 668.316 760.811C666.619 760.592 664.796 760.36 663.96 758.682C661.116 752.963 656.061 753.796 651.283 754.552C648.707 754.959 646.239 754.999 643.658 755.021C635.712 755.089 627.735 755.379 619.807 755.542C611.232 755.718 602.805 757.347 594.091 756.795C585.013 756.218 575.96 753.583 566.752 755.376C566.626 755.4 566.484 755.44 566.367 755.403C559.503 753.297 553.211 756.912 546.631 757.325C535.977 757.994 525.329 760.857 514.622 758.423C503.771 755.955 493.94 751.569 490.165 739.956C488.187 733.879 487.33 727.549 487.996 720.896C489.076 710.112 489.764 699.304 491.392 688.56C492.608 680.555 495.887 673.199 498.206 665.589C501.649 654.302 502.389 642.754 503.94 631.267C504.511 627.05 505.591 622.901 505.569 618.589C505.557 615.683 504.705 615.665 502.429 616.976C493.94 621.865 485.784 627.337 476.858 631.464C473.791 632.88 470.809 633.475 467.477 632.655C463.637 631.708 459.75 632.735 455.916 632.932C445.358 633.475 434.768 633.672 424.259 635.042C421.847 635.357 419.336 635.465 417.004 634.345V621.149C418.589 614.239 419.66 607.228 421.452 600.349C424.311 589.384 426.575 578.304 430.308 567.523C434.08 556.631 438.016 545.885 442.995 535.48C448.874 523.188 455.765 511.553 464.075 500.766C469.353 493.915 473.949 486.583 479.785 480.108C486.892 472.224 494.94 465.355 502.454 457.921C506.76 453.661 511.359 449.722 516.288 446.178C517.676 445.178 519.033 444.225 520.826 444.21C518.756 446.961 515.465 448.121 512.889 450.265C507.133 455.055 501.892 460.373 496.383 465.41C491.821 469.581 487.25 473.77 482.996 478.248C473.903 487.826 467.169 499.245 459.019 509.573C457.724 511.214 456.064 512.929 455.83 515.273C457.357 513.996 458.584 512.528 459.889 511.13C465.438 505.196 471.318 499.548 475.547 492.49C480.507 484.214 488.758 478.727 494.144 470.793C494.483 470.293 495.137 469.954 495.714 469.679C497.524 468.81 498.808 467.422 499.971 465.818C503.953 460.318 510.094 457.674 515.659 454.321C516.964 453.535 518.987 452.865 520.338 454.479C521.8 456.221 520.711 457.841 519.61 459.371C517.951 461.675 516.155 463.908 514.749 466.357C509.03 476.314 502.398 485.695 496.824 495.769C491.858 504.745 487.132 513.851 484.424 523.617C481.774 533.167 480.294 543.062 477.641 552.671C475.269 561.264 474.106 570.136 472.366 578.862C470.337 589.054 470.513 599.196 470.944 609.323C471.204 615.396 471.49 621.72 473.933 627.596C474.763 629.585 475.513 630.19 477.638 629.314C482.805 627.189 487.478 624.206 492.281 621.43C499.983 616.976 507.42 612.056 515.656 608.53C524.561 604.717 533.423 600.794 542.183 596.663C550.117 592.922 557.896 588.859 565.725 584.896C572.635 581.398 579.516 577.841 586.099 573.751C592.219 569.948 597.703 565.105 604.585 562.541C606.343 561.888 606.167 560.771 605.1 559.54C602.731 556.807 600.359 554.077 598.027 551.314C588.452 539.956 582.212 526.516 574.649 513.903C569.198 504.816 564.544 495.242 558.359 486.602C551.869 477.539 545.598 468.298 537.945 459.83C539.922 459.701 540.78 460.981 541.622 461.999C545.499 466.672 549.46 471.293 553.057 476.179C565.728 493.406 575.374 512.491 586.142 530.875C591.929 540.755 598.033 550.234 606.17 558.34C607.525 559.688 608.657 560.555 610.473 559.367C613.811 557.187 617.361 555.444 620.418 552.702C627.025 546.767 633.688 540.863 640.897 535.625C653.43 526.516 667.024 518.975 679.288 509.452C687.644 502.965 696.534 497.154 704.736 490.485C708.533 487.397 712.848 485.5 716.874 482.977C717.997 482.274 719.52 481.386 717.457 480.247C710.661 476.487 705.177 470.623 697.851 467.779C679.189 460.537 661.126 451.872 641.791 446.203C627.806 442.103 614.391 436.051 599.566 435.237C589.918 434.706 580.284 433.516 570.596 434.638C569.112 434.811 566.721 436.141 566.379 433.744C566.117 431.915 568.696 431.748 570.198 431.168C570.784 430.943 571.472 430.992 572.113 430.906C576.361 430.335 580.5 429.265 584.544 427.895C593.773 424.771 603.32 423.08 612.901 421.631C624.663 419.848 636.557 419.36 648.411 418.638C653.547 418.324 658.843 417.679 663.859 419.194C671.052 421.365 678.381 422.895 685.716 424.376C688.582 424.956 691.423 426.288 695.417 425.844C694.029 425.187 693.483 424.9 692.916 424.663C681.318 419.838 669.087 418.213 656.702 416.667C636.73 414.175 616.855 414.727 597.287 418.549C580.957 421.735 565.114 427.254 549.417 432.846C544.552 434.58 539.062 434.851 534.82 437.809C530.57 440.774 526.017 442.581 521.159 443.948C522.531 442.436 521.6 441.138 520.856 439.737C519.462 437.115 517.318 434.919 516.424 432.023C516.088 430.934 515.431 429.681 516.523 428.762C517.753 427.726 518.645 428.966 519.545 429.598C522.43 431.618 525.03 433.966 526.915 436.955C528.426 439.349 530.027 439.407 531.902 437.544C534.21 435.249 537.285 434.752 540.157 433.605C549.167 430.008 558.646 427.871 567.668 424.36C568.39 424.08 569.075 423.666 569.818 423.475C585.565 419.453 601.105 414.622 617.537 413.703C636.48 412.642 655.243 413.931 673.905 416.917C682.484 418.29 690.587 421.464 698.662 424.684C708.015 428.414 717.552 431.671 726.964 435.255C730.946 436.773 734.786 438.667 738.741 440.265C741.85 441.52 742.411 443.244 740.786 446.264C735.335 456.397 729.959 466.564 724.419 476.651C721.532 481.904 717.438 484.714 712.426 487.45C706.932 490.448 702.062 494.652 697.108 498.567C688.505 505.368 679.803 512.04 670.642 518.058C653.587 529.262 636.427 540.298 621.513 554.383C618.277 557.436 614.48 559.639 610.439 561.36C607.688 562.532 606.969 563.726 608.724 566.496C613.29 573.692 617.38 581.197 622.05 588.323C630.69 601.509 637.991 615.442 645.53 629.249C645.832 629.804 645.94 630.468 646.141 631.081C644.336 629.882 643.59 627.898 642.473 626.177C639.321 621.322 636.983 615.936 633.824 611.173C625.107 598.033 618.04 583.949 609.727 570.586C605.822 564.306 605.735 563.914 599.097 567.468C598.197 567.949 597.389 568.606 596.537 569.18C587.475 573.834 579.118 579.732 569.883 584.109C562.32 587.693 554.944 591.673 547.486 595.476C545.382 596.006 543.698 597.274 542.041 598.582C534.611 600.889 528.124 605.365 520.755 607.817C518.346 608.619 517.914 610.569 518.046 612.799C518.515 620.767 519.107 628.719 521.331 636.442C521.695 637.701 522.093 638.901 523.626 639.253C531.063 640.958 536.279 637.682 536.412 630.116C536.6 619.255 539.392 609.002 542.143 598.678C543.103 600.056 542.375 601.346 542.063 602.734C540.768 608.524 538.908 614.196 538.3 620.134C537.865 624.369 537.695 628.648 536.973 632.83C536.008 638.42 533.59 640.409 528.478 640.56C521.52 640.764 521.035 640.403 519.194 633.549C518.993 632.803 518.827 632.041 518.7 631.276C517.707 625.279 517.053 619.255 517.158 613.16C517.183 611.753 517.614 609.776 514.86 610.334C510.168 611.288 506.646 614.631 506.519 619.2C506.291 627.611 504.021 635.779 503.888 644.206C503.814 648.852 502.694 653.389 501.34 657.874C499.884 662.696 498.82 667.637 497.614 672.535C497.407 673.381 496.803 674.386 497.614 675.089C498.499 675.858 499.298 674.96 500.014 674.497C503.108 672.495 506.535 672.193 510.088 672.378C512.713 672.514 514.07 673.68 514.175 676.453C514.373 681.65 514.453 681.647 519.632 681.654C520.668 681.654 521.711 681.573 522.735 681.675C526.622 682.061 529.611 681.456 530.098 676.632C530.305 674.593 531.924 673.26 534.21 673.214C536.514 673.168 537.732 674.491 538.439 676.515C539.167 678.597 539.808 680.676 539.805 682.927C539.802 685.648 539.595 688.427 536.427 689.115C533.599 689.729 531.909 687.749 530.776 685.364C530.274 684.309 529.879 682.869 528.611 682.838C522.559 682.681 516.236 681.246 510.995 685.83C509.453 687.178 507.781 687.505 505.986 686.626C504.203 685.753 503.91 684.078 504.156 682.311C504.48 679.963 505.424 677.853 506.794 675.916C507.222 675.308 507.975 674.605 507.54 673.846C506.973 672.853 505.899 673.257 505.094 673.544C499.52 675.528 495.464 679.127 493.925 684.969C490.038 699.705 489.1 714.822 489.501 729.915C489.875 743.858 498.024 752.985 511.599 756.31C524.481 759.463 537.334 757.569 550 754.984C554.54 754.058 558.853 751.801 562.054 747.723C565.346 743.525 566.265 738.833 567.23 733.836C571.068 713.989 566.561 695.047 561.255 676.222C558.245 665.543 555.021 654.935 552.853 644.034C551.601 637.741 553.128 631.276 551.826 625.11C549.762 615.347 548.843 605.464 547.64 595.605C549.349 596.827 549.475 598.832 549.485 600.519C549.549 611.251 553.263 621.491 553.183 632.315C553.075 646.801 557.921 660.521 561.9 674.254C567.912 695.001 573.063 715.695 567.934 737.488C566.934 741.732 565.549 745.631 562.835 749.049C562.156 749.904 560.561 750.542 561.191 751.819C561.7 752.852 563.227 752.812 564.362 752.939C567.86 753.327 571.247 752.057 574.781 752.322C586.558 753.201 598.295 755.773 610.171 753.318C610.668 753.216 611.226 753.201 611.713 753.312C618.79 754.947 625.665 752.161 632.797 752.47C641.449 752.846 650.2 751.73 658.908 752.593C660.793 752.781 661.894 752.448 661.049 750.391C657.708 742.248 656.135 733.506 652.544 725.449C648.837 717.13 646.48 708.486 646.539 698.628C644.056 701.963 641.835 704.464 638.256 700.522C637.038 699.18 636.43 698.098 636.887 696.49C637.751 693.449 637.68 690.346 637.606 687.249C637.334 675.7 637.257 664.204 643.18 653.67C644.407 651.489 643.88 649.355 642.896 647.029C639.441 638.858 633.701 632.13 629.126 624.675C624.536 617.188 619.252 610.112 614.915 602.49C611.026 595.655 607.457 588.631 603.481 581.826C601.087 577.727 597.86 574.047 596.593 569.318C597.58 569.5 598.113 570.213 598.592 571.006C601.713 576.209 604.829 581.416 607.963 586.611C612.3 593.795 615.875 601.401 620.384 608.499C628.247 620.865 637.368 632.445 643.735 645.752C644.123 646.566 644.157 647.874 645.542 647.96C648.386 643.031 652.588 638.241 646.514 632.766C646.221 632.5 646.341 631.779 646.267 631.27C648.312 633.407 650.373 635.533 651.656 638.256C653.39 642.982 655.176 647.692 656.838 652.442C658.078 655.987 655.987 658.584 652.217 658.389C649.756 658.263 648.204 656.949 647.048 654.864C646.141 653.232 645.024 653.226 644.395 655.08C642.985 659.222 640.616 662.967 639.978 667.452C638.873 675.191 639.373 682.94 639.237 690.688C639.2 692.829 640.009 694.266 642.285 694.322C644.888 694.384 644.706 692.286 644.568 690.71C644.108 685.568 645.015 680.395 644.009 675.253C643.645 673.39 643.337 671.323 644.074 669.275C645.579 670.012 645.388 671.166 645.499 672.131C646.545 681.364 647.276 690.633 648.047 699.88C648.756 708.379 650.357 716.469 653.618 724.27C657.764 734.184 660.777 744.472 663.677 754.79C664.392 757.334 665.66 758.812 668.171 759.509C672.875 760.817 677.409 759.386 681.981 758.772C683.85 758.522 684.081 756.853 684.276 755.203C684.757 751.1 685.778 750.317 689.868 751.054C695.491 752.069 701.17 753.17 706.79 751.791C709.844 751.042 712.787 750.412 715.902 750.743C719.055 751.076 721.309 749.709 723.305 746.797C719.113 747.43 715.304 747.908 711.531 748.589C699.322 750.801 687.764 748.987 676.407 744.015C663.757 738.475 656.329 729.015 653.627 715.754C652.6 710.714 651.949 705.522 651.844 700.386C651.705 693.677 650.191 687.021 651.058 680.287C652.742 667.196 659.639 656.69 667.779 646.813C667.705 648.423 666.937 649.768 666.083 651.054C663.248 655.323 660.256 659.494 657.56 663.849C656.138 666.15 654.059 668.47 655.558 671.601L655.644 671.743C652.844 674.96 651.937 679.18 652.143 682.934C652.748 693.872 652.952 704.899 655.018 715.698C657.202 727.105 663.294 735.801 673.782 741.285C685.642 747.491 697.987 749.345 711.328 747.501C720.585 746.22 728 743.099 734.703 736.276C743.068 727.762 745.928 717.46 747.976 706.445C749.49 698.304 747.695 690.207 748.025 682.113C748.432 672.091 745.388 663.346 739.888 655.172C737.886 652.202 735.372 649.521 734.172 646.039C736.816 647.849 738.389 650.555 740.067 653.158C744.432 659.935 748.975 666.921 749.012 675.151C749.052 684.565 750.474 693.983 749.484 703.369C748.158 715.942 745.372 727.904 735.684 737.309C731.057 741.8 726.344 746.205 721.439 750.329C718.049 753.179 717.957 755.897 719.292 759.413C719.567 760.135 719.746 760.891 719.971 761.631L719.952 761.64ZM469.8 631.757C473.073 631.806 472.937 629.718 472.154 627.574C469.769 621.041 469.59 614.169 469.087 607.382C468.187 595.204 469.686 583.187 471.725 571.166C473.591 560.163 477.416 549.645 479.393 538.744C482.052 524.092 486.392 510.233 494.02 497.404C497.056 492.299 499.449 486.802 502.639 481.805C507.639 473.97 513.068 466.41 518.302 458.723C518.882 457.868 519.613 456.854 518.867 455.885C517.982 454.735 516.738 455.407 515.643 455.728C513.281 456.425 512.198 458.911 510.094 459.855C502.799 463.134 498.515 469.917 492.777 474.954C489.341 477.971 486.549 482.104 483.237 485.54C481.805 487.024 480.229 488.455 479.159 490.186C474.51 497.706 468.952 504.471 462.696 510.692C458.063 515.298 454.281 520.545 451.622 526.492C445.876 539.339 441.607 552.779 435.798 565.626C431.949 574.143 430.567 583.329 429.916 592.743C429.126 604.165 423.907 614.625 421.224 625.668C421.02 626.51 420.539 627.42 419.913 628.003C418.46 629.351 418.228 631.01 418.849 632.614C419.533 634.394 421.329 633.524 422.643 633.561C438.396 634.006 453.988 630.06 469.806 631.76L469.8 631.757ZM572.588 432.337C580.031 432.208 587.468 432.535 594.859 433.303C603.305 434.182 611.831 434.422 620.076 436.964C630.573 440.2 640.737 444.404 651.341 447.322C662.464 450.385 672.89 455.373 683.452 459.864C692.172 463.572 701.608 465.996 709.113 472.311C711.383 474.22 713.922 475.809 716.269 477.628C718.842 479.624 720.501 479.424 722.392 476.407C728.506 466.644 733.068 456.03 739.194 446.292C741.045 443.346 739.876 442.384 737.263 441.233C729.811 437.954 721.871 436.06 714.4 432.797C709.338 430.585 703.992 428.272 698.601 427.747C690.315 426.942 682.363 424.903 674.288 423.272C666.123 421.621 658.155 418.663 649.558 420.051C644.586 420.853 639.481 420.539 634.499 421.032C624.891 421.985 615.239 422.303 605.68 424.228C594.541 426.47 583.761 430.079 572.591 432.331L572.588 432.337ZM449.201 527.759C448.868 527.63 448.538 527.5 448.205 527.371C432.634 558.485 422.723 591.299 418.898 625.952C421.409 620.606 422.76 614.875 424.533 609.31C426.557 602.959 428.562 596.484 428.642 589.671C428.71 583.952 429.746 578.418 431.344 572.915C433.834 564.337 438.266 556.576 441.338 548.269C443.488 542.458 445.367 536.554 448.081 530.961C448.572 529.95 448.834 528.83 449.204 527.756L449.201 527.759ZM655.953 653.707C655.28 651.77 654.559 649.577 653.76 647.408C653.056 645.496 652.797 642.312 651.212 642.124C649.096 641.874 649.031 645.11 647.964 646.77C647.618 647.31 647.279 647.865 647.02 648.451C645.814 651.175 648.346 656.44 651.233 657.248C653.451 657.868 655.866 656.193 655.953 653.707ZM538.88 682.847C538.497 680.559 538.226 678.078 536.711 676.061C535.521 674.476 533.753 674.294 532.288 675.484C530.635 676.823 531.835 677.603 533.059 678.695C534.879 680.318 535.45 682.582 534.364 684.997C534.018 685.762 533.056 686.496 534.074 687.357C534.827 687.992 535.801 687.931 536.634 687.533C538.544 686.62 538.818 684.84 538.88 682.85V682.847ZM517.439 429.977C518.364 434.438 520.758 437.43 522.963 440.496C523.734 441.569 524.808 441.122 525.742 440.585C526.896 439.922 526.939 438.985 526.233 437.982C524.024 434.842 521.572 431.961 517.439 429.977ZM508.796 682.696C508.614 680.602 509.249 678.702 511.411 677.739C512.836 677.104 513.157 676.317 512.324 675.083C511.615 674.031 510.508 673.88 509.65 674.676C507.216 676.931 505.446 679.587 505.742 683.116C505.85 684.396 506.473 685.398 507.96 685.21C509.595 685.003 509.126 683.862 508.796 682.699V682.696ZM641.344 696.497C640.234 696.676 638.593 696.45 638.661 697.953C638.735 699.631 640.619 700.393 641.878 700.738C643.303 701.127 643.954 699.35 644.056 698.199C644.228 696.259 642.498 696.682 641.344 696.497Z" fill="black"/>
<path d="M720.308 593.248C723.057 594.445 723.232 596.836 723.297 599.387C723.35 601.441 721.706 603.233 722.557 605.405C722.942 606.389 722.011 606.379 721.4 606.358C719.222 606.281 716.965 606.466 714.889 605.944C712.899 605.442 710.388 605.102 709.962 602.289C709.386 598.458 709.577 594.797 712.51 591.829C713.485 590.842 714.858 590.253 715.157 588.646C715.826 585.049 714.355 582.958 710.65 582.646C704.188 582.104 697.732 581.993 691.544 584.355C689.496 585.136 688.959 584.324 688.913 582.523C688.907 582.264 688.855 581.999 688.901 581.752C690.622 572.109 689.138 562.812 685.918 553.701C690.224 561.178 692.96 568.858 690.199 577.674C688.673 582.551 689.601 583.381 694.549 582.335C700.32 581.116 706.153 581.292 711.937 581.832C714.559 582.079 715.185 581.187 715.179 579.004C715.16 571.638 716.564 564.333 716.092 556.949C715.848 553.127 716.829 549.502 717.878 545.903C718.47 543.87 719.485 541.816 721.826 541.584C724.5 541.322 725.709 543.484 726.4 545.603C730.21 557.297 733.643 569.087 733.393 581.564C733.282 587.135 734.673 592.323 737.227 597.178C738.742 600.059 740.031 602.983 740.87 606.117C744.794 620.744 753.351 633.265 759.464 646.896C760.47 649.135 761.722 651.264 761.938 653.777C754.285 637.747 744.087 622.891 739.522 605.429C739.263 604.433 739.087 603.335 738.541 602.505C732.566 593.427 732.511 583.02 731.582 572.757C730.762 563.716 728.035 555.055 725.549 546.368C725.102 544.801 724.358 543.006 722.258 543.049C719.991 543.096 719.395 544.977 718.865 546.732C718.115 549.212 717.6 551.733 717.677 554.358C717.936 563.022 717.153 571.637 716.243 580.234C715.737 585.037 716.156 589.445 719.96 592.927C717.455 592.53 714.719 590.358 712.603 593.461C711.008 595.799 710.132 598.406 711.684 601.274C713.497 600.266 713.426 596.746 716.422 598.165C719.571 599.655 717.452 601.981 716.89 603.856C717.844 604.359 718.42 604.029 718.945 603.68C722.4 601.379 722.686 599.146 720.311 593.261L720.308 593.248Z" fill="black"/>
<path d="M740.96 753.875C739.051 747.873 741.534 742.336 743.391 737.003C747.198 726.058 752.401 715.555 755.063 704.256C757.034 695.885 757.63 687.199 755.693 678.62C754.613 673.845 754.668 669.147 755.967 664.465C756.26 663.41 756.735 661.852 758.207 662.324C760.02 662.907 758.151 663.956 758.163 664.814C758.247 670.878 758.046 676.958 758.388 683.007C758.546 685.829 758.901 688.651 758.891 691.489C758.879 694.648 760.603 695.234 763.225 694.469C766.822 693.423 769.132 691.304 768.898 687.254C768.407 678.796 768.864 670.205 765.212 662.189C764.589 660.822 764.564 659.187 764.265 657.676C766.803 661.892 768.632 666.285 769.363 671.27C770.631 679.894 770.434 688.395 768.774 696.912C768.225 699.737 765.52 700.132 763.608 701.073C762.041 701.844 761.106 699.753 760.11 698.627C759.487 697.921 759.4 696.36 758.015 696.838C757.01 697.187 757.423 698.405 757.306 699.259C755.905 709.608 751.581 719.032 747.978 728.68C744.915 736.879 741.269 744.908 740.964 753.872L740.96 753.875Z" fill="black"/>
<path d="M678.844 544.452C675.538 554.693 672.802 565.19 672.249 575.853C671.808 584.37 670.735 592.52 667.737 600.422C664.035 610.185 660.182 619.889 656.395 629.618C657.175 622.995 659.636 616.842 662.335 610.895C668.162 598.044 671.521 584.774 671.919 570.616C672.138 562.747 674.603 555.153 676.805 547.598C677.166 546.365 677.536 545.094 678.847 544.455L678.844 544.452Z" fill="black"/>
<path d="M733.632 645.532C731.364 644.41 729.949 642.337 728.224 640.628C721.281 633.743 712.326 630.393 703.196 629.366C695.438 628.493 687.338 630.603 680.203 634.675C680.993 632.651 682.797 631.889 684.617 631.254C703.131 624.779 720.041 629.02 732.897 643.82C733.286 644.268 733.394 644.956 733.632 645.529V645.532Z" fill="black"/>
<path d="M690.625 603.341C690.859 601.015 691.097 598.689 691.334 596.363C691.563 596.678 692.019 597.017 691.985 597.295C691.264 602.85 695.135 601.764 698.318 601.727C701.02 601.693 703.725 601.721 706.48 602.576C704.481 602.576 702.485 602.551 700.486 602.582C698.815 602.607 697.331 603.054 697.056 604.994C696.8 606.814 698.287 606.974 699.521 607.348C701.177 607.847 702.495 608.723 701.671 610.679C700.931 612.44 699.54 613.335 697.618 612.292C695.897 611.358 693.478 610.855 694.354 607.952C694.425 607.721 694.638 607.523 694.805 607.329C695.801 606.175 696.476 604.67 695.708 603.424C694.743 601.86 693.12 603.359 691.788 603.276C691.405 603.251 691.014 603.319 690.628 603.344L690.625 603.341Z" fill="black"/>
<path d="M680.48 605.818C684.521 606.028 684.589 605.994 682.809 602.228C681.992 600.5 682.72 599.442 684.04 598.702C685.678 597.786 686.785 598.622 687.245 600.25C687.631 601.62 687.868 603.023 688.929 604.084C686.218 605.17 684.259 609.917 680.48 605.818Z" fill="black"/>
<path d="M687.931 591.678C684.933 590.722 682.184 590.037 679.479 592.85C676.761 595.676 677.129 598.532 678.159 601.706C678.393 602.428 678.467 603.199 678.612 603.943C674.195 598.301 676.314 593.103 680.744 590.451C683.406 588.856 685.898 589.152 687.931 591.675V591.678Z" fill="black"/>
<path d="M678.932 635.571C675.379 639.153 671.829 642.737 668.281 646.309C670.959 641.852 673.704 637.484 678.932 635.571Z" fill="black"/>
<path d="M1066.55 602.521C1063.39 603.107 1060.17 602.369 1056.98 603.141C1055.11 603.591 1053.54 602.292 1052.17 601.049C1048.33 597.554 1044.15 596.058 1039.01 598.205C1036.97 599.057 1034.58 599.152 1032.57 598.066C1028.24 595.725 1024.2 595.528 1019.83 598.168C1016.88 599.945 1013.68 598.686 1010.99 597.048C1006.87 594.538 1003.19 594.716 998.565 596.416C993.685 598.208 988.305 599.63 982.818 598.85C982.435 598.794 981.973 598.489 981.695 598.615C976.127 601.197 972.154 597.255 967.833 595.117C964.517 593.476 962.114 593.563 959.236 596.342C953.212 602.16 950.352 602.249 942.999 598.199C941.756 597.514 940.321 597.116 939.195 596.29C936.583 594.365 934.559 593.881 932.77 597.397C931.721 599.458 929.355 599.612 927.243 599.427C923.624 599.112 920.691 600.343 918.124 602.841C916.434 604.485 914.438 605.729 911.998 605.929C909.124 606.163 907.597 604.097 908.784 601.472C911.86 594.661 919.855 589.195 927.579 590.771C933.156 591.909 938.159 594.078 942.968 596.873C944.917 598.008 945.815 598.387 947.453 595.969C950.038 592.15 953.758 589.062 957.968 587.06C965.273 583.587 975.495 587.079 980.831 594.485C983.981 598.856 988.142 598.646 990.61 593.988C994.752 586.169 1004.49 583.544 1011.77 588.322C1014.26 589.951 1016.69 591.653 1019.11 593.381C1023.57 596.567 1028.53 596.401 1032.45 592.573C1035.18 589.904 1038.13 587.847 1041.72 586.422C1045.3 585.003 1048.28 585.552 1051.18 587.705C1055.48 590.892 1059.62 594.211 1060.67 599.926C1060.9 601.163 1061.79 601.629 1062.94 601.574C1064.25 601.509 1065.54 601.475 1066.63 602.372L1066.55 602.527L1066.55 602.521Z" fill="black"/>
<path d="M1043.25 568.306C1046.19 567.729 1048.73 566.529 1051.28 564.777C1063.6 556.316 1074.74 562.177 1080.14 573.019C1080.66 574.056 1081.44 575.509 1080.52 576.292C1077.73 578.674 1079.75 580.41 1080.82 582.542C1083.73 588.301 1088.81 592.338 1092.41 597.564C1094.76 600.991 1096.71 604.63 1098.81 608.184C1099.6 609.504 1100.4 611.102 1099.05 612.481C1097.58 613.977 1095.63 613.526 1094.5 612.28C1089.16 606.376 1082.9 605.109 1075.28 606.99C1071.84 607.838 1069.52 603.955 1066.54 602.518L1066.62 602.363C1069.67 601.546 1071.87 599.223 1074.59 597.817C1077.82 596.157 1080.9 594.205 1084.64 593.982C1086.62 593.865 1086.97 592.952 1085.78 591.561C1080.65 585.546 1077.46 577.995 1070.07 573.723C1066.36 571.576 1063.06 570.203 1058.88 571.061C1055.52 571.749 1052.24 572.032 1049.46 569.253C1047.68 567.479 1045.12 569.898 1043.17 568.393L1043.24 568.3L1043.25 568.306Z" fill="black"/>
<path d="M951.281 430.199C944.421 427.546 937.86 429.094 931.367 431.602C936.808 427.089 946.682 426.395 951.281 430.199Z" fill="black"/>
<path d="M713.898 663.985C710.832 665.737 707.877 665.835 704.845 663.744C701.541 661.468 698.293 661.461 694.9 663.985C692.417 665.832 689.996 667.754 686.189 665.657C684.271 664.598 681.516 667.267 678.87 667.22C677.599 667.199 676.186 667.84 675.076 667.467C671.522 666.28 668.567 666.6 666.189 669.756C665.846 670.209 664.81 670.743 664.551 670.567C661.182 668.285 658.601 671.428 655.633 671.749L655.547 671.607C659.723 669.198 663.12 666.19 665.837 661.992C669.341 656.575 672.845 656.862 676.831 661.974C680.418 666.573 683.305 666.653 687.13 661.955C689.345 659.234 691.612 656.588 694.32 654.376C697.929 651.43 700.391 651.507 704.015 654.462C706.804 656.736 709.95 658.664 711.264 662.328C711.65 663.408 712.735 663.701 713.806 663.834L713.898 663.982V663.985Z" fill="black"/>
<path d="M713.805 663.835C716.479 662.064 719.049 660.105 721.849 658.563C727.186 655.624 734.132 659.843 733.993 665.8C733.916 669.079 732.735 669.791 729.968 668.156C729.086 667.638 728.308 666.947 727.466 666.361C726.942 665.997 726.143 665.257 725.875 665.408C721.501 667.876 717.833 664.853 713.9 663.98L713.808 663.832L713.805 663.835Z" fill="black"/>
</svg>
