<svg width="1578" height="888" viewBox="0 0 1578 888" fill="none" xmlns="http://www.w3.org/2000/svg">
<path d="M1139.32 607.964C1138.28 599.245 1137.97 590.64 1142.37 582.533C1145.49 576.796 1145.35 570.115 1145.9 564.028C1146.92 552.58 1147.47 541.08 1146.63 529.37C1145.14 508.574 1138.94 488.836 1135.7 468.512C1132.05 445.721 1134.11 422.905 1140.95 400.797C1146.35 383.315 1151.09 365.614 1153.65 347.582C1155.5 334.63 1152.11 321.975 1144.86 310.563C1142.96 307.581 1139.79 306.015 1137.82 306.304C1125.84 308.035 1116.5 300.926 1106.26 297.366C1085 289.985 1063.42 283.968 1041.48 279.158C1032.9 277.278 1024.02 278.03 1015.31 278.398C998.643 279.097 982.771 275.066 966.776 271.401C958.161 269.425 949.416 267.309 940.61 267.711C932.608 268.069 924.483 269.364 916.761 271.506C897.014 276.99 876.813 279.902 856.628 282.788C840.397 285.105 825.696 291.122 811.17 298.249C794.353 306.505 777.781 315.565 758.83 318.346C758.576 318.381 758.218 318.451 758.086 318.32C757.955 318.189 758.06 317.839 757.605 317.218C761.436 307.651 768.222 300.611 776.469 294.375C788.45 285.324 802.04 279.823 815.797 274.384C834.634 266.933 853.471 259.42 872.003 251.235C890.884 242.883 909.66 242.218 929.075 248.952C939.315 252.503 950.186 250.981 960.593 250.185C967.187 249.678 973.807 247.474 980.646 247.483C991.962 247.483 1003.3 247.929 1014.53 245.961C1021.08 244.816 1027.47 246.862 1033.74 247.798C1042.73 249.136 1051.88 250.57 1060.81 251.558C1071.96 252.8 1081.72 257.549 1092.27 260.032C1103.53 262.674 1114.4 267.011 1125.44 270.606" stroke="black" stroke-width="1.74906" stroke-linecap="round" stroke-linejoin="round"/>
<path d="M321.366 375.365C332.027 372.19 342.932 374.403 353.715 373.878C360.519 373.546 361.682 372.566 359.023 366.156C352.937 351.534 342.565 340.27 328.214 333.956C305.642 324.021 283.726 325.473 262.729 339.78C249.725 348.639 242.737 360.524 238.679 375.286C237.114 380.988 235.916 386.419 235.811 392.304C235.199 427.032 262.991 452.612 295.174 453.95C295.699 453.967 296.206 454.431 296.958 454.807C301.033 466.596 298.147 478.804 298.226 490.89C298.226 491.66 297.64 492.412 297.509 493.208C296.967 496.522 298.969 500.44 296.599 503.107C293.32 506.815 288.475 504.594 284.4 504.638C268.658 504.804 269.594 504.069 269.743 519.391C269.952 542.251 272.235 565.059 271.299 587.937C271.081 593.376 273.136 596.166 279.021 595.703C283.359 595.361 287.749 595.598 292.113 595.641C299.101 595.72 300.552 597.119 300.57 604.107C300.614 623.871 300.99 643.653 300.412 663.409C300.124 673.23 301.785 682.849 301.672 692.688C301.453 712.085 296.94 718.95 278.252 723.533C256.948 728.754 235.557 732.916 213.572 734.587C200.095 735.61 186.75 734.263 173.527 734.849C158.616 735.514 143.723 735.409 128.83 735.741C115.204 736.038 101.693 737.971 88.0065 737.516C77.7133 737.167 67.4463 734.071 57.2318 735.977C45.1808 738.225 32.9986 736.292 21 738.137" stroke="black" stroke-width="1.74906" stroke-linecap="round" stroke-linejoin="round"/>
<path d="M995.297 765.86C1002.46 773.311 1012.18 771.588 1020.72 771.737C1042.78 772.113 1064.8 770.766 1086.2 764.364C1094.94 761.75 1100 755.147 1104.62 748.116C1113.83 734.097 1118.52 717.953 1120.2 701.87C1121.34 690.878 1123.68 679.832 1123.64 668.822C1123.61 657.269 1121.99 645.603 1119.91 634.191C1117.45 620.732 1113.77 607.439 1111.22 594.041C1108.96 582.209 1102 573.551 1095.97 564.219C1092.73 559.2 1088.92 554.364 1085.28 549.545C1073.88 534.494 1057.73 526.422 1039.93 521.866C1026.9 518.525 1013.64 515.998 999.915 517.012C976.495 518.735 953.81 523.152 932.078 532.352C927.679 534.214 924.565 537.38 921.487 540.345C906.515 554.757 891.386 569.239 882.955 588.776C879.203 597.469 876.676 606.695 873.598 615.686" stroke="black" stroke-width="1.74906" stroke-linecap="round" stroke-linejoin="round"/>
<path d="M829.691 269.844C838.944 271.716 846.911 267.194 855.07 264.343C874.074 257.706 893.147 251.654 913.638 253.735C925.479 254.933 937.224 257.321 949.082 258.099C957.487 258.65 966.004 258.843 974.496 257.618C985.996 255.957 997.566 254.321 1009.14 253.831C1025.21 253.149 1040.84 257.574 1055.98 261.851C1068.04 265.244 1080.34 266.066 1092.34 268.996C1100.94 271.103 1109.93 271.007 1118.57 273.5C1123.38 274.881 1128.55 272.774 1133.98 274.199C1148.14 277.89 1156.42 288.034 1154.64 302.193C1153.95 307.659 1155.44 312.46 1156.53 317.707C1158.7 328.149 1160.78 338.661 1158.96 350.021C1155.82 369.558 1150.69 388.535 1146.45 407.766C1143.79 419.843 1141.5 432.437 1142.03 444.671C1142.7 460.107 1142.76 475.892 1147.78 490.899C1154.74 511.739 1155.27 533.392 1153.56 554.792C1152.29 570.586 1148.86 586.354 1144.78 601.833C1144.22 603.958 1143.43 605.156 1141.69 606.529C1135.47 611.47 1131.26 618.834 1129.8 625.795C1127.75 635.634 1128.55 646.312 1129.73 656.439C1130.08 659.421 1132.05 662.884 1132.43 666.496C1133.06 672.495 1136.93 675.775 1143.14 675.705C1148.54 675.652 1153.91 676.011 1159.34 675.075C1164.92 674.113 1167.32 670.606 1168.54 665.726C1169.2 663.068 1166.6 663.829 1165.48 663.033" stroke="black" stroke-width="1.74906" stroke-linecap="round" stroke-linejoin="round"/>
<path d="M240.488 376.904C264.363 381.154 288.255 374.928 312.112 376.965C326.752 378.216 341.322 378.566 356.031 377.954C366.289 377.525 366.447 380.577 366.709 390.005C367.015 400.875 363.097 410.958 359.022 420.779C351.632 438.602 337.841 449.42 319.834 455.524C310.424 458.716 311.238 460.072 309.462 469.263C307.32 480.326 310.704 490.899 309.681 501.787C313.389 504.795 317.954 504.166 322.134 504.656C326.183 505.128 330.338 504.76 334.457 504.76C339.984 512.316 337.106 521.228 338.06 529.44C340.395 549.624 339.057 569.974 338.987 590.254C338.969 594.592 332.576 597.837 326.778 596.28C323.866 595.502 321.05 595.563 318.278 595.773C315.427 595.991 313.275 597.268 312.759 601.02C310.818 615.144 311.719 629.311 312.348 643.391C312.821 653.938 313.022 664.476 312.707 674.979C312.427 684.59 314.106 693.965 314.517 703.48C314.841 710.896 319.756 714.578 326.49 715.916C330.119 714.28 326.175 709.103 330.591 708.106" stroke="black" stroke-width="1.74906" stroke-linecap="round" stroke-linejoin="round"/>
<path d="M1092.34 470.094C1088.84 456.923 1080.73 446.447 1072.28 436.241C1067.65 430.653 1061.06 427.434 1055.43 423.044C1047.25 416.66 1046.34 405.134 1054.78 399.519C1066.11 391.981 1067.85 382.929 1064.81 370.695C1062.42 361.022 1060.43 351.306 1056.98 341.695C1052.48 344.975 1051.19 349.243 1049.23 353.038C1045.51 360.2 1042.45 367.765 1036.87 373.817C1032.92 378.111 1032.64 383.078 1035.48 387.599C1038.19 391.92 1040.06 396.345 1037.48 400.682C1034.4 405.886 1029.08 406.69 1023 406.332C1010.14 405.562 997.507 402.012 984.494 403.079C973.948 403.944 963.619 406.585 952.915 406.253C941.336 405.886 934.935 398.47 938.407 387.731C941.441 378.356 939.78 370.424 932.819 363.891C926.522 357.979 922.604 350.091 915.625 342.972C912.932 349.54 912.888 355.259 912.18 360.743C911.445 366.357 912.145 371.98 910.789 377.735C908.515 387.32 913.5 395.628 922.945 398.242C927.458 399.493 929.731 402.353 932.04 405.466C934.235 408.431 934.629 411.422 931.445 414.736C924.755 421.689 915.258 424.767 908.891 432.253C902.883 439.328 895.931 445.581 892.844 454.693" stroke="black" stroke-width="1.74906" stroke-linecap="round" stroke-linejoin="round"/>
<path d="M1213.27 241.343C1205.88 250.701 1196.26 252.957 1184.75 251.505C1173.18 250.045 1162.5 247.57 1153.1 239.918C1139.51 228.872 1129.28 206.353 1135.61 186.702C1138.53 177.642 1142.42 168.783 1153.95 167.262C1155.88 167.008 1157.8 165.075 1159.32 163.519C1168.73 153.873 1179.78 155.945 1190.92 158.962C1198.56 161.035 1205.46 164.621 1214.02 164.883C1221.78 165.128 1228.46 171.022 1231.02 179.715C1234.22 190.559 1236.25 201.613 1237.1 212.851C1238.79 235.431 1241.07 258.012 1241.57 280.627C1242.33 314.498 1241.68 348.403 1241.78 382.291C1241.87 411.072 1245.17 439.739 1245.06 468.555C1245.04 474.467 1244.78 481.122 1249.44 486.299C1252.55 489.771 1252.26 494.625 1252.32 498.595C1252.71 522.251 1256.45 545.706 1255.83 569.458C1255.34 588.427 1256.02 607.5 1257.49 626.425C1258.04 633.517 1259.19 641.467 1264.86 647.248" stroke="black" stroke-width="1.74906" stroke-linecap="round" stroke-linejoin="round"/>
<path d="M519.305 446.219C516.796 444.234 515.589 446.552 513.892 447.732C498.054 458.83 485.243 472.997 473.122 487.829C458.867 505.285 444.516 522.837 436.251 544.079C427.742 565.96 420.029 588.103 417.344 611.777C416.461 619.604 416.653 627.195 415.84 636.106C434.599 633.911 451.818 625.787 469.632 631.847C475.623 598.746 481.5 566.528 489.834 534.73C496.655 508.704 506.091 483.78 516.944 459.285C517.556 457.903 518.929 456.224 516.988 454.685" stroke="black" stroke-width="1.74906" stroke-linecap="round" stroke-linejoin="round"/>
<path d="M245.89 379.983C241.858 380.56 240.73 383.997 240.677 386.918C240.572 392.034 240.634 397.132 241.666 402.388C242.942 408.877 246.134 409.28 251.277 409.315C282.873 409.542 314.444 408.72 346.014 407.714C348.603 407.636 351.2 407.706 353.955 407.706C356.08 417.168 351.174 423.963 346.592 429.892C336.106 443.448 321.974 450.907 304.431 450.829C301.833 450.82 299.341 450.969 297.496 453.146" stroke="black" stroke-width="1.74906" stroke-linecap="round" stroke-linejoin="round"/>
<path d="M512.372 605.655C506.434 608.663 507.65 614.82 507.186 619.542C504.886 643.085 500.584 665.971 491.873 688.184C487.457 699.466 484.396 711.709 485.445 724.267C486.495 736.799 490.675 747.827 502.411 754.203C506.146 756.223 510.99 757.893 514.532 754.176C517.06 751.526 518.389 753.617 520.051 754.351C540.532 763.446 568.5 753.389 572.417 730.433C573.904 721.731 573.642 712.977 572.444 704.249C572.199 702.448 571.928 700.655 571.674 698.853" stroke="black" stroke-width="1.74906" stroke-linecap="round" stroke-linejoin="round"/>
<path d="M553.964 436.975C559.273 439.879 565.263 439.538 570.921 439.905C586.042 440.876 601.259 440.473 616.336 441.776C630.573 443.01 644.531 446.42 657.937 451.624C675.673 458.506 693.373 465.476 711.091 472.403C712.814 473.076 714.397 474.93 717.405 472.403C711.922 467.575 705.59 464.488 699.6 460.754C676.381 446.307 650.442 440.307 624.067 435.392C613.082 433.346 602.195 431.046 590.939 430.74C574.402 430.294 558.494 434.229 542.438 437.124C539.255 437.701 536.823 438.2 534.707 435.436" stroke="black" stroke-width="1.74906" stroke-linecap="round" stroke-linejoin="round"/>
<path d="M517 425.423C526.689 437.614 526.007 443.692 514.761 454.764C508.438 460.99 505.159 469.403 500.847 477.038C485.718 503.825 476.666 532.886 469.277 562.523C464.327 582.358 464.563 602.454 467.011 622.586C467.204 624.195 468.472 625.673 469.25 627.212" stroke="black" stroke-width="1.74906" stroke-linecap="round" stroke-linejoin="round"/>
<path d="M852.027 684.984C855.394 695.172 856.776 705.99 861.341 715.759C866.754 727.346 872.561 738.759 880.511 748.921C892.693 764.479 909.851 768.528 928.269 769.708C940.591 770.495 952.913 771.274 965.235 772.017C974.322 772.559 982.988 771.274 990.649 765.86" stroke="black" stroke-width="1.74906" stroke-linecap="round" stroke-linejoin="round"/>
<path d="M868.212 493.978C869.095 498.98 866.314 502.907 864.355 507.07C852.986 531.312 843.55 556.148 837.971 582.507C834.376 599.455 832.085 616.071 834.84 633.422C836.082 641.24 835.854 649.155 839.58 656.553C841.425 660.217 842.606 663.305 847.416 661.109" stroke="black" stroke-width="1.74906" stroke-linecap="round" stroke-linejoin="round"/>
<path d="M764.229 703.471C774.164 683.785 767.964 664.677 759.105 647.501C750.674 631.147 744.308 614.304 737.635 597.338C733.988 588.068 732.344 579.218 731.539 569.484C730.691 559.217 729.344 548.548 723.686 538.062C715.457 551.338 715.606 565.322 713.944 579.165C705.855 576.332 698.404 576.201 689.772 580.049C688.11 566.205 687.183 552.379 680.397 539.243C673.821 546.266 673.829 554.801 671.862 562.549C670.2 569.108 669.894 575.746 670.891 582.585C671.722 588.304 668.328 593.228 665.565 597.924C659.216 608.733 653.584 619.674 653.19 632.625C653.129 634.751 651.45 636.823 649.692 640.759C633.4 616.123 619.705 591.496 605.555 567.158" stroke="black" stroke-width="1.74906" stroke-linecap="round" stroke-linejoin="round"/>
<path d="M758.071 704.241C753.593 717.088 750.008 730.249 742.88 742.108C741.411 744.557 742.487 748.667 742.714 751.99C743.003 756.275 742.338 759.187 737.327 760.639C731.503 762.327 724.393 763.446 722.346 757.981C719.076 749.244 711.94 751.089 706.395 750.11C702.774 749.471 698.253 750.162 694.143 750.416C689.901 750.67 685.94 749.585 685.371 756.59C684.742 764.373 668.475 764.032 662.73 757.998C655.664 750.582 655.506 740.875 657.176 731.194" stroke="black" stroke-width="1.74906" stroke-linecap="round" stroke-linejoin="round"/>
<path d="M524.693 436.976C527.596 436.879 530.517 437.448 533.185 435.463C548.944 423.753 567.676 420.228 586.33 417.097C601.564 414.544 616.956 413.145 632.514 412.935C666.122 412.489 698.436 418.234 729.552 430.836C735.087 433.075 740.492 435.629 747.375 438.663C734.16 446.91 730.968 460.43 725.992 472.516C721.935 482.381 713.417 486.01 705.563 489.867C675.313 504.725 649.803 525.81 625.675 548.74C614.481 559.375 601.984 566.782 587.117 571.12C561.091 578.711 537.96 592.415 515.449 607.177" stroke="black" stroke-width="1.74906" stroke-linecap="round" stroke-linejoin="round"/>
<path d="M1244.84 479.338C1236.74 476.041 1229.17 477.466 1221.7 481.594C1216.38 484.532 1213.9 489.124 1214.12 494.738C1215.35 526.055 1212.67 557.39 1216.09 588.733C1218.51 610.911 1219.4 633.325 1218.68 655.713C1218.52 660.549 1217.87 665.586 1221.73 669.574" stroke="black" stroke-width="1.74906" stroke-linecap="round" stroke-linejoin="round"/>
<path d="M1118.52 695.767C1113.3 699.571 1113.2 705.999 1110.96 711.228C1101.45 733.529 1084.24 746.498 1061.51 752.69C1041.58 758.121 1021.24 761.26 1000.73 763.963C988.815 765.537 978.032 762.012 966.829 760.875C948.271 758.986 930.029 755.016 912.8 746.761C887.632 734.692 870.342 715.995 864.815 688.744C862.323 676.448 862.935 662.946 866.057 650.37C868.917 638.861 871.934 627.422 873.595 615.668" stroke="black" stroke-width="1.74906" stroke-linecap="round" stroke-linejoin="round"/>
<path d="M375.282 715.024C378.404 720.052 376.428 722.851 371.46 725.107C360.389 730.136 348.67 732.716 336.759 734.185C322.95 735.89 309.028 737.998 295.184 737.832C279.215 737.639 262.852 738.881 247.426 732.742" stroke="black" stroke-width="1.74906" stroke-linecap="round" stroke-linejoin="round"/>
<path d="M495.427 675.74C491.684 675.031 490.565 677.62 489.209 680.331C487.102 684.537 484.959 688.805 482.257 692.627C478.575 697.821 473.118 698.757 467.705 695.766C457.158 689.942 457.56 690.274 449.864 699.518C443.454 707.214 433.729 709.969 424.529 712.575C408.866 717 392.346 718.268 376.946 713.79C361.37 709.26 345.349 708.884 329.791 705.167C325.419 704.127 320.582 705.01 315.965 705.01" stroke="black" stroke-width="1.74906" stroke-linecap="round" stroke-linejoin="round"/>
<path d="M277.463 582.55C280.541 582.348 283.427 583.45 286.75 582.759C292.382 581.588 297.874 583.494 303.235 587.246C296.414 591.304 288.77 591.583 281.337 590.805C276.938 590.35 275.757 585.47 276.055 581.789C277.637 562.479 275.853 543.266 275.171 524.008C275.04 520.353 274.629 516.601 276.649 513.995H329.829C329.829 530.419 329.978 546.082 329.759 561.744C329.672 568.251 330.686 574.6 331.386 581.002C331.797 584.788 331.474 588.286 326.751 588.645C319.457 589.196 311.849 592.134 305.194 586.397" stroke="black" stroke-width="1.74906" stroke-linecap="round" stroke-linejoin="round"/>
<path d="M863.591 573.306C857.662 573.98 859.271 579.69 858.519 582.629C854.225 599.568 848.374 616.508 849.231 634.138C849.983 649.556 847.788 664.966 850.298 680.392C851.951 690.581 846.284 699.851 838.964 702.745C835.361 704.171 831.627 703.83 828.181 703.331C808.583 700.515 789.116 701.626 769.614 704.153C766.029 704.617 762.207 704.8 758.831 702.177C758.63 692.408 759.408 682.071 757.301 671.883" stroke="black" stroke-width="1.74906" stroke-linecap="round" stroke-linejoin="round"/>
<path d="M644.075 648.017C638.361 656.004 633.985 671.23 630.948 693.694C613.973 697.734 596.491 694.28 579.386 696.589C568.882 698.005 559.437 695.845 550.876 689.618C546.634 686.531 543.267 683.191 542.988 677.296C542.865 674.673 540.618 672.154 539.332 669.583" stroke="black" stroke-width="1.74906" stroke-linecap="round" stroke-linejoin="round"/>
<path d="M1153.95 168.18C1154.91 172.841 1150.27 175.01 1149.18 178.919C1147.31 185.601 1147.58 191.836 1150.06 198.229C1154.06 208.531 1159.21 217.6 1168.43 224.605C1178.15 231.995 1187.58 239.358 1200.17 240.469C1204.74 240.871 1209.41 240.058 1214.02 239.804" stroke="black" stroke-width="1.74906" stroke-linecap="round" stroke-linejoin="round"/>
<path d="M511.6 599.49C511.285 606.442 518.5 610.465 518.194 617.995C518.019 622.245 519.611 627.273 520.879 631.83C522.112 636.237 523.292 641.143 529.309 641.021C535.063 640.907 536.874 636.692 537.783 631.838C539.76 621.379 539.594 610.622 542.226 600.215C542.838 597.802 544.307 596.577 545.156 593.202C550.429 601.23 550.307 609.039 551.653 616.429C553.044 624.081 553.367 631.865 554.469 639.578C556.096 650.921 560.661 661.17 563.783 671.944C566.066 679.815 569.817 687.362 570.123 695.767" stroke="black" stroke-width="1.74906" stroke-linecap="round" stroke-linejoin="round"/>
<path d="M1105.43 489.351C1104.93 492.753 1106.27 495.534 1107.59 498.656C1115.1 516.496 1122.5 534.398 1129.16 552.562C1132.61 561.99 1134.54 571.994 1136.94 581.789C1137.4 583.625 1137.97 585.138 1139.33 586.389" stroke="black" stroke-width="1.74906" stroke-linecap="round" stroke-linejoin="round"/>
<path d="M540.871 465.477C545.873 467.663 548.917 471.834 551.637 476.268C565.507 498.857 580.601 520.712 593.098 544.114C596.701 550.866 598.608 558.527 603.251 564.832" stroke="black" stroke-width="1.74906" stroke-linecap="round" stroke-linejoin="round"/>
<path d="M527.012 440.833C533.658 449.989 537.331 460.632 541.503 470.926C549.365 490.314 561.984 506.738 573.309 523.957C579.851 533.9 585.518 544.587 594.779 552.519" stroke="black" stroke-width="1.74906" stroke-linecap="round" stroke-linejoin="round"/>
<path d="M677.192 665.727C671.508 658.223 671.079 658.267 661.459 667.581C655.827 664.45 657.148 659.841 659.553 655.757C667.887 641.564 680.279 632.381 696.467 629.67C717.482 626.146 736.101 642.77 742.485 656.562C750.871 674.682 752.743 694.035 747.907 713.441C743.272 732.051 731.037 743.368 711.832 746.516C710.468 746.743 709.585 747.207 708.763 748.134" stroke="black" stroke-width="1.74906" stroke-linecap="round" stroke-linejoin="round"/>
<path d="M1036.11 444.68C1031.35 447.286 1026.18 447.085 1021.51 445.336C1003.08 438.427 984.975 437.92 966.75 446.132C960.016 449.166 953.423 449.087 949.225 440.377C947.17 448.003 941.791 446.446 937.532 446.044C933.711 445.677 930.003 443.814 929.084 439.275C928.831 438.042 928.612 436.512 929.119 435.462C932.241 428.947 946.697 426.026 952.128 430.836C956.684 434.868 956.308 438.82 951.385 442.362" stroke="black" stroke-width="1.74906" stroke-linecap="round" stroke-linejoin="round"/>
<path d="M380.668 722.729C380.021 730.398 375.989 734.858 366.798 737.333C342.337 743.91 317.492 748.116 292.095 747.268C275.348 746.708 258.592 746.105 242.658 739.222C238.976 737.63 238.95 736.222 238.941 733.511" stroke="black" stroke-width="1.74906" stroke-linecap="round" stroke-linejoin="round"/>
<path d="M599.406 567.91C611.212 587.675 623.255 607.316 634.694 627.299C638.2 633.43 641.016 640.225 644.532 646.207C647.978 652.075 647.593 656.203 645.756 661.931C642.013 673.623 639.906 685.692 640.999 698.084C641.83 707.441 645.442 715.933 649.482 724.259C650.225 725.789 651.729 726.043 653.312 725.807" stroke="black" stroke-width="1.74906" stroke-linecap="round" stroke-linejoin="round"/>
<path d="M298.259 708.859C291.245 706.83 284.345 708.386 277.472 709.655C266.925 711.605 256.186 712.969 245.945 715.995C234.357 719.414 233.623 722.528 239.727 731.964" stroke="black" stroke-width="1.74906" stroke-linecap="round" stroke-linejoin="round"/>
<path d="M301.34 514.774C303.176 518.718 302.844 522.916 302.897 527.096C303.106 544.552 303.439 562.016 303.587 579.472C303.605 581.501 304.506 583.748 302.879 585.637" stroke="black" stroke-width="1.74906" stroke-linecap="round" stroke-linejoin="round"/>
<path d="M1004.54 458.542C1008.12 458.463 1012.21 459.6 1013.78 454.685C1005.85 447.033 987.827 447.033 979.895 454.685C984.433 460.439 997.132 462.083 1003.77 457.763" stroke="black" stroke-width="1.74906" stroke-linecap="round" stroke-linejoin="round"/>
<path d="M864.357 568.688C865.162 580.057 862.451 590.902 859.827 601.824C856.705 614.794 855.822 628.226 852.035 641.082" stroke="black" stroke-width="1.74906" stroke-linecap="round" stroke-linejoin="round"/>
<path d="M657.177 664.957C650.32 668.743 651.405 676.107 650.495 681.94C648.16 696.964 650.88 711.831 653.994 726.593C654.536 729.173 656.346 729.855 657.911 731.228C667.348 739.493 678.568 744.276 690.287 748.142" stroke="black" stroke-width="1.74906" stroke-linecap="round" stroke-linejoin="round"/>
<path d="M1217.88 198.981C1214.64 199.585 1215.32 193.944 1211.65 195.238C1208.28 196.244 1209.1 199.908 1208.12 202.173C1204.05 211.644 1201.47 213.787 1190.92 213.612C1182.16 213.472 1176.1 209.432 1174.09 201.264C1172.26 193.839 1174.43 186.082 1184.7 179.628C1188.23 177.407 1193.11 177.651 1195.54 173.567" stroke="black" stroke-width="1.74906" stroke-linecap="round" stroke-linejoin="round"/>
<path d="M1071.54 604.116C1074.09 597.268 1080.67 595.851 1086.16 596.026C1092.53 596.219 1098.99 606.276 1099.27 613.377C1096.32 613.517 1095.09 610.928 1093.08 609.555C1087.99 606.075 1083.09 601.457 1076.13 605.602C1075.37 606.057 1073.9 606.04 1073.12 605.602C1065.18 601.142 1055.42 602.209 1047.68 597.19C1041.52 593.202 1035.37 597.601 1029.19 597.286C1022.18 596.927 1015.23 596.446 1008.41 594.846C1004.68 593.971 1001.42 593.945 997.539 595.44C989.747 598.44 982.48 599.787 975.011 592.065C965.505 582.235 953.751 585.943 949.116 598.737C948.609 600.137 949.685 601.002 950.979 602.061C956.987 598.799 962.672 592.852 970.621 596.507C973.691 597.915 976.306 596.691 979.13 596.42" stroke="black" stroke-width="1.74906" stroke-linecap="round" stroke-linejoin="round"/>
<path d="M1209.41 165.862C1219.51 176.444 1226.6 188.224 1226.67 203.598C1226.68 206.353 1225.48 207.744 1224.81 209.764" stroke="black" stroke-width="1.74906" stroke-linecap="round" stroke-linejoin="round"/>
<path d="M915.957 484.733C900.574 485.932 885.611 489.578 870.517 492.438C861.019 494.231 851.522 496.032 842.016 497.825" stroke="black" stroke-width="1.74906" stroke-linecap="round" stroke-linejoin="round"/>
<path d="M1163.2 162.014C1176.35 162.46 1188.36 166.955 1199.3 173.715C1208.72 179.531 1217.59 186.212 1218.82 198.963C1219.36 204.455 1222.05 209.694 1223.21 215.168C1225.25 224.805 1219.55 232.134 1215.19 239.804" stroke="black" stroke-width="1.74906" stroke-linecap="round" stroke-linejoin="round"/>
<path d="M1122.37 574.845C1124.92 585.016 1127.76 595.152 1128.41 605.664C1128.62 609.092 1130.23 611.226 1132.38 613.36" stroke="black" stroke-width="1.74906" stroke-linecap="round" stroke-linejoin="round"/>
<path d="M1134.69 470.095C1121.36 471.739 1107.99 470.515 1094.64 470.864C1085.39 471.109 1076.15 471.372 1066.91 471.634" stroke="black" stroke-width="1.74906" stroke-linecap="round" stroke-linejoin="round"/>
<path d="M714.173 596.411C710.256 598.318 710.063 600.635 713.404 603.346C716.736 606.049 719.744 605.672 722.665 602.594C725.936 599.14 724.414 595.755 721.756 593.473C718.948 591.068 715.372 590.307 714.173 595.642" stroke="black" stroke-width="1.74906" stroke-linecap="round" stroke-linejoin="round"/>
<path d="M506.986 611.812C495.433 618.484 483.977 625.34 472.223 631.637C470.535 632.547 471.051 633.211 470.789 634.147" stroke="black" stroke-width="1.74906" stroke-linecap="round" stroke-linejoin="round"/>
<path d="M687.978 595.641C688.336 590.884 684.672 589.957 681.926 591.251C678.384 592.93 677.029 596.979 678.026 601.011C679.145 605.541 683.29 605.786 686.36 604.658C689.727 603.416 692.56 600.478 688.756 596.402" stroke="black" stroke-width="1.74906" stroke-linecap="round" stroke-linejoin="round"/>
<path d="M946.766 566.371C935.406 557.145 925.41 558.308 918.991 569.423C917.146 572.615 919.498 573.07 921.352 574.075" stroke="black" stroke-width="1.74906" stroke-linecap="round" stroke-linejoin="round"/>
<path d="M925.2 590.246C928.488 591.689 932.642 591.645 935.065 596.429C925.288 596.123 917.565 599.682 911.557 606.495C905.532 604.405 908.89 600.601 910.709 598.878C914.714 595.091 919.218 591.689 924.422 589.468" stroke="black" stroke-width="1.74906" stroke-linecap="round" stroke-linejoin="round"/>
<path d="M1044.2 436.206C1044.74 437.316 1044.96 438.357 1043.82 439.293C1041.65 441.086 1040.56 442.765 1042.96 445.519C1045.03 447.898 1047.51 448.16 1049.95 447.653C1054.37 446.735 1059.6 444.531 1059.58 440.054C1059.56 435.384 1055.84 431.396 1050.79 429.166C1044.16 426.227 1038.97 428.693 1033.58 432.506C1035.12 436.468 1035.17 441.654 1041.51 441.593" stroke="black" stroke-width="1.74906" stroke-linecap="round" stroke-linejoin="round"/>
<path d="M1060.76 600.259C1058.85 594.994 1056.5 590.263 1050.78 587.876C1041.61 584.054 1036.31 589.065 1031.49 595.641" stroke="black" stroke-width="1.74906" stroke-linecap="round" stroke-linejoin="round"/>
<path d="M862.043 450.076C880.618 452.98 899.018 456.565 916.771 463.045C919.797 464.147 923.4 463.675 926.741 463.937" stroke="black" stroke-width="1.74906" stroke-linecap="round" stroke-linejoin="round"/>
<path d="M906.724 604.885C901.564 611.243 894.647 614.033 886.697 614.042C882.351 614.042 878.896 617.863 874.375 616.438" stroke="black" stroke-width="1.74906" stroke-linecap="round" stroke-linejoin="round"/>
<path d="M1120.84 450.076C1110.05 452.647 1099.27 455.21 1088.49 457.781" stroke="black" stroke-width="1.74906" stroke-linecap="round" stroke-linejoin="round"/>
<path d="M880.531 473.181C891.612 474.842 902.631 473.513 913.728 472.927C904.843 466.604 894.865 468.03 885.149 467.793" stroke="black" stroke-width="1.74906" stroke-linecap="round" stroke-linejoin="round"/>
<path d="M912.114 596.411C910.198 594.618 911.484 592.047 912.262 591.146C916.294 586.494 918.279 580.748 921.384 575.632C925.809 568.339 930.96 566.607 939.862 567.753C943.588 568.234 947.602 566.205 951.38 566.528C958.228 567.123 964.813 567.359 971.459 564.954C974.861 563.73 978.403 565.724 981.333 567.324C983.37 568.435 984.507 567.175 986.046 567.149C978.657 551.897 967.76 551.609 957.546 566.38" stroke="black" stroke-width="1.74906" stroke-linecap="round" stroke-linejoin="round"/>
<path d="M880.532 469.325C870.09 466.456 859.867 467.821 849.723 470.864" stroke="black" stroke-width="1.74906" stroke-linecap="round" stroke-linejoin="round"/>
<path d="M543.183 674.971C546.848 673.694 551.474 674.061 551.806 668.044C552.016 664.275 550.267 661.923 547.696 660.541C546.192 659.736 543.717 660.042 541.513 661.704C538.549 663.934 541.023 664.957 541.644 666.496" stroke="black" stroke-width="1.74906" stroke-linecap="round" stroke-linejoin="round"/>
<path d="M1071.54 483.194C1080.55 486.168 1089.44 487.952 1099.29 487.532C1107.15 487.2 1115.19 491.161 1123.15 493.208" stroke="black" stroke-width="1.74906" stroke-linecap="round" stroke-linejoin="round"/>
<path d="M877.453 474.72C868.725 474.204 859.997 473.706 851.27 473.155C850.745 473.12 850.238 472.674 849.73 472.412" stroke="black" stroke-width="1.74906" stroke-linecap="round" stroke-linejoin="round"/>
<path d="M1016.86 594.872C1009.94 584.518 997.899 583.923 990.676 595.642" stroke="black" stroke-width="1.74906" stroke-linecap="round" stroke-linejoin="round"/>
<path d="M1221.73 483.194C1227.44 492.045 1237.43 492.045 1246.37 483.194" stroke="black" stroke-width="1.74906" stroke-linecap="round" stroke-linejoin="round"/>
<path d="M712.626 660.34C711.848 661.879 712.207 663.986 709.329 665.254C703.601 659.045 696.693 657.996 688.796 666.339C688.533 655.538 696.316 654.192 701.074 650.335" stroke="black" stroke-width="1.74906" stroke-linecap="round" stroke-linejoin="round"/>
<path d="M1096.19 484.734C1088.23 481.673 1080.13 479.696 1071.54 481.655" stroke="black" stroke-width="1.74906" stroke-linecap="round" stroke-linejoin="round"/>
<path d="M709.544 601.807C706.92 605.043 702.985 600.46 700.125 603.871C706.535 611.374 701.909 619.744 701.069 627.991" stroke="black" stroke-width="1.74906" stroke-linecap="round" stroke-linejoin="round"/>
<path d="M1085.41 458.542C1077.7 460.597 1070.01 462.652 1062.3 464.707" stroke="black" stroke-width="1.74906" stroke-linecap="round" stroke-linejoin="round"/>
<path d="M697.992 631.069C697.817 642.018 700.616 651.585 710.314 658.031C713.357 660.06 717.31 662.43 720.205 660.873C728.347 656.483 731.39 661.135 734.198 667.266" stroke="black" stroke-width="1.74906" stroke-linecap="round" stroke-linejoin="round"/>
<path d="M520.077 668.044C521.127 663.916 518.197 662.185 515.381 660.383C505.831 665.517 505.044 667.992 510.064 677.288" stroke="black" stroke-width="1.74906" stroke-linecap="round" stroke-linejoin="round"/>
<path d="M543.177 667.274C538.813 667.939 534.956 670.641 529.91 667.554C526.263 665.315 521.375 668.525 516.984 668.814" stroke="black" stroke-width="1.74906" stroke-linecap="round" stroke-linejoin="round"/>
<path d="M322.134 419.267C318.67 425.589 323.48 429.84 325.474 435.629C330.853 431.624 333.03 426.849 334.456 421.575C332.619 418.926 329.856 420.438 327.521 420.036" stroke="black" stroke-width="1.74906" stroke-linecap="round" stroke-linejoin="round"/>
<path d="M1042.27 568.689C1040.74 561.912 1035.62 558.597 1030.01 555.484C1027.83 554.268 1025.92 555.047 1024.64 555.737C1019.74 558.379 1013.82 560.259 1013 567.15" stroke="black" stroke-width="1.74906" stroke-linecap="round" stroke-linejoin="round"/>
<path d="M306.723 348.403V365.352" stroke="black" stroke-width="1.74906" stroke-linecap="round" stroke-linejoin="round"/>
<path d="M520.075 668.813C521.422 677.463 515.597 681.162 505.444 678.031C502.575 677.148 499.786 676.002 496.961 674.97" stroke="black" stroke-width="1.74906" stroke-linecap="round" stroke-linejoin="round"/>
<path d="M889.002 457.002C885.215 466.342 877.449 473.435 874.301 483.168C873.479 485.722 871.852 488.031 872.823 490.89" stroke="black" stroke-width="1.74906" stroke-linecap="round" stroke-linejoin="round"/>
<path d="M1176.29 665.726C1184.97 667.458 1193.76 666.295 1202.47 666.225C1204.28 666.207 1206.41 665.988 1207.8 666.627C1216.92 670.763 1227.17 670.466 1236.36 674.209" stroke="black" stroke-width="1.74906" stroke-linecap="round" stroke-linejoin="round"/>
<path d="M315.2 422.345C314.177 426.193 313.538 430.216 311.99 433.845C310.871 436.468 308.527 436.503 306.734 433.897" stroke="black" stroke-width="1.74906" stroke-linecap="round" stroke-linejoin="round"/>
<path d="M316.739 382.291C317.552 387.809 314.535 392.899 315.077 398.479C315.436 402.178 316.477 403.227 319.817 401.548" stroke="black" stroke-width="1.74906" stroke-linecap="round" stroke-linejoin="round"/>
<path d="M1096.19 472.412C1095.73 477.519 1101.69 480.842 1100.04 486.273" stroke="black" stroke-width="1.74906" stroke-linecap="round" stroke-linejoin="round"/>
<path d="M315.199 359.955C317.657 359.85 317.429 357.104 319.03 356.072C321.767 354.306 324.207 355.408 325.064 357.708C326.664 361.976 326.822 366.462 322.904 369.978" stroke="black" stroke-width="1.74906" stroke-linecap="round" stroke-linejoin="round"/>
<path d="M289.788 354.569C282.862 354.569 275.918 354.42 269.762 358.417" stroke="black" stroke-width="1.74906" stroke-linecap="round" stroke-linejoin="round"/>
<path d="M299.801 353.029C303.832 356.527 299.398 361.608 302.11 365.351" stroke="black" stroke-width="1.74906" stroke-linecap="round" stroke-linejoin="round"/>
<path d="M299.798 422.345C289.129 419.984 277.996 424.085 267.449 420.036" stroke="black" stroke-width="1.74906" stroke-linecap="round" stroke-linejoin="round"/>
<path d="M293.635 383.83C294.055 387.932 292.769 392.129 294.404 396.152" stroke="black" stroke-width="1.74906" stroke-linecap="round" stroke-linejoin="round"/>
<path d="M273.609 357.647C276.172 360.857 272.21 365.466 276.224 368.71C278.148 368.439 279.836 367.635 280.536 365.352" stroke="black" stroke-width="1.74906" stroke-linecap="round" stroke-linejoin="round"/>
<path d="M286.699 393.074C288.099 396.782 290.775 400.586 285.93 403.857" stroke="black" stroke-width="1.74906" stroke-linecap="round" stroke-linejoin="round"/>
<path d="M274.375 427.741C274.629 430.049 274.777 432.384 275.171 434.667C275.748 437.973 277.261 437.448 278.993 435.445" stroke="black" stroke-width="1.74906" stroke-linecap="round" stroke-linejoin="round"/>
<path d="M1224.82 225.943C1228.32 228.453 1232.33 228.444 1236.37 228.252" stroke="black" stroke-width="1.74906" stroke-linecap="round" stroke-linejoin="round"/>
<path d="M310.581 382.291C310.065 384.084 308.876 385.999 309.155 387.661C310.362 394.762 309.785 396.021 302.868 396.843C300.192 397.158 297.717 396.992 298.259 400.77" stroke="black" stroke-width="1.74906" stroke-linecap="round" stroke-linejoin="round"/>
<path d="M312.121 353.799C311.754 357.647 312.943 361.591 311.352 365.352" stroke="black" stroke-width="1.74906" stroke-linecap="round" stroke-linejoin="round"/>
<path d="M272.071 426.962C269.91 429.962 273.54 435.191 268.223 436.975" stroke="black" stroke-width="1.74906" stroke-linecap="round" stroke-linejoin="round"/>
<path d="M317.508 360.725C319.126 363.69 317.919 366.899 318.277 369.969" stroke="black" stroke-width="1.74906" stroke-linecap="round" stroke-linejoin="round"/>
<path d="M299.031 416.18C302.704 422.914 302.267 430.522 303.649 437.746" stroke="black" stroke-width="1.74906" stroke-linecap="round" stroke-linejoin="round"/>
<path d="M288.246 422.345C288.5 427.382 286.637 432.874 291.351 436.984C293.633 436.731 295.942 436.468 298.26 436.215" stroke="black" stroke-width="1.74906" stroke-linecap="round" stroke-linejoin="round"/>
<path d="M327.522 349.173C324.933 348.754 321.96 350.293 319.712 347.73C316.432 349.891 317.158 352.558 319.047 355.339" stroke="black" stroke-width="1.74906" stroke-linecap="round" stroke-linejoin="round"/>
<path d="M309.812 396.162C311.518 398.47 310.46 400.779 309.812 403.097" stroke="black" stroke-width="1.74906" stroke-linecap="round" stroke-linejoin="round"/>
<path d="M311.353 368.43C308.275 364.582 305.188 364.582 302.109 368.43" stroke="black" stroke-width="1.74906" stroke-linecap="round" stroke-linejoin="round"/>
</svg>
