<svg width="739" height="898" viewBox="0 0 739 898" fill="none" xmlns="http://www.w3.org/2000/svg">
<path d="M421.938 433.258C421.592 438.164 413.415 442.836 409.564 440.331C407.793 439.176 407.478 435.029 409.632 433.826C413.483 431.678 415.982 427.859 420.568 426.476C427.294 424.452 433.539 423.162 439.661 427.902C441.025 428.957 443.228 429.963 444.481 429.944C450.726 429.858 453.244 434.036 455.49 438.578C457.41 442.453 459.73 446.051 462.155 449.612C464.642 453.265 466.438 457.19 467.53 461.522C468.586 465.719 470.116 469.508 474.911 471.427C478.318 472.791 481.138 475.432 483.477 478.703C490.092 487.96 498.633 495.378 507.686 502.197C524.299 514.718 542.208 525.561 557.167 540.224C565.337 548.228 572.212 557.33 577.834 567.235C580.716 572.308 582.277 578.108 584.629 583.502C585.517 585.545 587.035 587.304 588.097 589.278C590.423 593.592 590.818 598.171 588.504 602.497C584.444 610.075 578.408 615.734 569.966 617.863C565.455 619.005 561.123 620.646 556.797 622.134C545.732 625.929 534.667 626.096 523.139 625.3C512.136 624.534 501.04 624.639 490.006 623.757C483.538 623.238 481.483 620.918 481.125 614.463C480.44 602.096 484.353 590.735 488.79 579.59C491.586 572.573 493.641 565.081 499.454 558.527C501.984 563.026 505.428 567.05 506.575 571.641C508.791 580.497 514.82 586.143 520.96 591.889C524.626 595.314 528.619 598.344 533.309 600.312C534.451 600.794 535.524 601.763 536.845 600.751" stroke="black" stroke-width="1.23424" stroke-linecap="round" stroke-linejoin="round"/>
<path d="M260.178 694.897C258.117 692.391 256.328 689.583 253.939 687.442C246.96 681.172 238.363 678.759 229.248 677.624C223.657 676.926 218.134 675.563 212.451 675.908C205.366 676.34 198.251 676.636 191.666 679.845C188.451 681.413 187.217 683.85 187.223 687.38C187.254 711.528 192.246 734.485 203.663 755.856C206.89 761.904 208.766 768.643 213.308 774.024C219.307 781.127 226.002 785.626 238.166 779.917C244.035 777.165 250.761 776.239 257.087 774.437C275.619 769.149 293.879 762.817 310.418 752.98C322.285 745.926 333.906 738.299 345.507 730.733C356.332 723.667 366.323 715.441 377.209 708.455C380.93 706.067 384.793 705.141 388.798 704.734C393.68 704.24 398.487 703.222 403.344 702.623C407.423 702.123 411.484 700.186 414.464 696.699C417.056 693.669 420.438 691.614 424.128 689.997C428.967 687.88 433.552 685.183 435.996 680.265C437.298 677.642 438.211 674.581 435.638 671.909" stroke="black" stroke-width="1.23424" stroke-linecap="round" stroke-linejoin="round"/>
<path d="M381.27 645.398C383.251 641.838 386.33 639.912 390.033 638.166C394.871 635.889 399.827 633.901 404.677 631.661C409.978 629.211 411.638 623.583 415.193 619.566C414.163 618.51 413.224 617.875 412.212 618.035C407.633 618.776 403.079 618.529 398.5 618.023C396.371 617.788 394.97 619.251 393.649 620.652C389.07 625.502 384.461 630.322 379.962 635.253C377.703 637.728 376.586 640.85 375.994 644.078C374.642 651.44 371.322 657.951 367.052 663.906C363.417 668.978 357.449 670.984 352.086 673.662C343.132 678.143 334.227 682.753 325.112 686.881C312.035 692.805 298.366 696.718 284.043 698.495C270.041 700.229 256.038 702.167 242.486 706.376C236.932 708.104 232.705 711.578 229.23 716.108" stroke="black" stroke-width="1.23424" stroke-linecap="round" stroke-linejoin="round"/>
<path d="M260.181 693.571C263.89 683.431 266.97 672.965 266.599 662.196C266.205 650.699 265.402 639.178 263.866 627.699C261.817 612.413 255.646 598.812 248.086 585.828C243.772 578.423 237.681 572.295 229.276 568.851C223.629 566.531 218.378 563.26 212.873 560.569C208.448 558.403 201.759 559.736 198.784 563.667C190.509 574.633 183.881 586.544 182.073 600.33C180.616 611.451 178.191 622.534 179.277 633.902C180.61 647.842 177.654 661.203 174.149 674.6C172.248 681.864 172.439 689.374 179.252 694.935C181.412 696.7 184.097 697.07 186.362 698.421" stroke="black" stroke-width="1.23424" stroke-linecap="round" stroke-linejoin="round"/>
<path d="M440.936 578.219C447.515 584.631 450.73 593.048 454.1 601.237C457.432 609.34 460.573 617.653 461.579 626.403C462.301 632.679 463.924 638.746 464.689 644.966C464.949 647.089 463.869 649.366 463.486 651.582C461.844 661.036 464.72 670.404 463.967 679.871C462.9 693.342 459.623 706.141 452.804 717.836C449.292 723.859 443.281 727.043 436.937 729.308C430.266 731.696 423.293 732.535 416.184 732.48C405.508 732.394 394.739 731.844 384.377 735.152C377.546 737.331 370.449 738.688 363.957 742.033C362.464 742.804 360.464 744.483 358.082 742.928C359.205 739.361 362.538 738.207 365.389 736.954C371.801 734.146 378.157 731.215 384.76 728.814C389.376 727.136 393.721 724.649 398.034 722.254C404.625 718.589 411.79 716.194 418.905 714.182C422.775 713.09 427.341 713.047 431.636 712.942C436.209 712.831 440.782 712.251 444.898 709.912" stroke="black" stroke-width="1.23424" stroke-linecap="round" stroke-linejoin="round"/>
<path d="M482.477 639.209C486.006 645.633 488.759 652.421 491.814 659.068C496.843 670.003 499.781 681.556 502.897 693.102C504.366 698.526 504.131 704.05 504.884 709.499C505.952 717.238 506.939 725.093 505.014 732.906C503.656 738.417 502.49 744.076 499.182 748.754C496.368 752.728 495.337 752.456 492.196 748.371" stroke="black" stroke-width="1.23424" stroke-linecap="round" stroke-linejoin="round"/>
<path d="M271.672 477.012C272.338 477.351 273.313 477.203 273.449 478.339C274.313 485.725 277.195 492.625 278.59 499.938C280.015 507.436 279.299 514.051 275.523 520.241C273.659 523.289 275.695 525.19 276.714 526.838C278.25 529.306 280.528 531.411 283.107 533.219C297.529 543.315 313.821 548.505 330.915 551.109C339.703 552.448 348.583 551.646 356.995 547.789C363.66 544.734 368.436 540.779 368.541 532.701C368.597 528.331 366.943 525.036 364.042 522.092C362.956 520.988 361.753 520.087 362.66 518.093C363.74 515.711 365.209 516.908 366.702 517.211C367.412 517.353 368.202 517.377 368.899 517.211C376.465 515.464 383.691 517.809 390.992 519.044C392.806 519.352 394.787 519.809 396.262 520.827C404.889 526.801 414.72 531.602 419.614 541.593C421.428 545.302 423.138 549.443 422.132 553.911C420.941 553.911 420.416 553.602 419.632 552.664C414.103 546.086 411.085 538.032 406.611 530.837C405.42 528.924 404.519 525.838 406.093 523.45C407.944 520.624 410.808 520.642 413.998 521.099C418.12 521.685 422.323 521.605 426.371 522.919C428.729 523.684 430.932 524.616 432.524 526.517C434.752 529.171 437.665 530.436 440.948 530.892C445.706 531.553 449.982 533.225 453.771 536.212C456.474 538.341 459.591 539.47 463.04 539.298C470.551 538.927 477.074 540.649 481.64 547.246C483.165 549.443 485.886 550.325 488.256 550.634C490.336 550.906 492.317 551.689 494.421 551.689" stroke="black" stroke-width="1.23424" stroke-linecap="round" stroke-linejoin="round"/>
<path d="M489.113 747.926C489.409 738.866 484.935 731.998 478.943 725.833C477.345 724.191 475.635 722.655 474.098 720.958C470.686 717.181 470.174 714.021 472.815 709.51C475.573 704.801 478.011 699.821 476.555 694.502C475.302 689.941 474.086 685.35 473.778 680.74C473.043 669.928 468.699 660.11 466.199 649.798C465.959 648.798 465.268 648.619 464.805 648.045" stroke="black" stroke-width="1.23424" stroke-linecap="round" stroke-linejoin="round"/>
<path d="M443.152 531.817C442.64 537.865 444.355 543.66 445.429 549.485C449.724 572.751 460.388 593.671 470.219 614.857C471.694 618.035 473.909 620.954 475.39 624.2C476.674 627.008 479.642 626.132 481.709 627.039C482.87 627.551 486.177 627.31 486.467 624.188" stroke="black" stroke-width="1.23424" stroke-linecap="round" stroke-linejoin="round"/>
<path d="M230.126 570.264C230.07 572.214 231.706 573.053 232.786 574.232C239.481 581.526 244.431 589.9 248.244 598.991C251.404 606.519 255.255 613.801 256.637 621.972C257.156 625.045 258.18 628.223 255.23 630.988C245.214 623.354 241.117 610.469 230.694 603.286C229.101 604.588 229.947 605.551 230.484 606.976C234.952 618.862 241.481 629.563 249.664 639.134C256.421 647.046 258.47 656.5 260.76 666.133C261.944 671.132 260.136 676.581 263.284 681.191" stroke="black" stroke-width="1.23424" stroke-linecap="round" stroke-linejoin="round"/>
<path d="M263.27 362.993C260.617 361.512 258.087 360.229 255.223 362.895C254.587 363.487 253.501 363.506 253.538 364.758C253.656 368.689 250.965 369.757 247.805 370.535C244.356 371.386 241.474 373.164 238.913 375.762C233.581 381.174 229.884 387.758 225.848 394.022C221.578 400.644 222.386 408.487 223.077 416.022C223.546 421.132 224.861 426.094 226.144 431.049C226.607 432.827 227.366 434.357 229.242 435.024" stroke="black" stroke-width="1.23424" stroke-linecap="round" stroke-linejoin="round"/>
<path d="M352.988 371.83C350.298 373.694 347.163 372.262 344.058 373.33C331.784 377.545 327.335 389.017 330.408 401.014C331.87 406.722 333.777 412.171 338.437 415.991C346.91 422.94 356.432 426.544 367.571 423.983" stroke="black" stroke-width="1.23424" stroke-linecap="round" stroke-linejoin="round"/>
<path d="M274.318 464.638C275.38 462.713 274.485 460.355 272.998 460.405C268.419 460.553 268.666 456.98 267.74 454.45C266.049 449.834 257.656 446.853 253.546 449.605C249.208 452.512 249.911 456.893 255.373 460.695C255.947 459.343 256.564 458.029 257.07 456.671C257.915 454.388 259.341 452.45 261.908 453.24C264.488 454.036 264.722 456.196 264.266 458.905C263.655 462.546 263.593 466.446 268.746 468.106C270.961 465.792 273.942 464.552 277.873 465.41C281.131 466.126 282.724 467.557 282.754 470.816C282.798 474.543 280.409 474.432 277.848 474.358C271.56 474.173 265.16 475.234 259.261 471.741C254.453 468.896 250.862 465.009 248.264 460.195C244.271 452.79 246.554 445.569 257.52 445.187C260.057 445.094 262.525 446.057 264.358 442.644C265.599 440.336 268.814 441.478 270.739 443.021C273.831 445.495 276.639 448.315 279.632 450.914C281.236 452.308 282.983 453.536 284.877 455.005C286.402 448.859 284.593 443.397 283.384 438.164C282.02 432.246 282.927 427.66 287.21 422.977C289.247 426.037 290.9 428.889 292.906 431.462C299.842 440.336 309.945 442.521 320.281 443.804C330.143 445.026 339.677 443.169 349.021 439.941C351.835 438.966 354.877 438.33 357.845 438.226C360.61 438.127 361.696 435.51 364.029 435.023" stroke="black" stroke-width="1.23424" stroke-linecap="round" stroke-linejoin="round"/>
<path d="M378.625 445.193C377.428 448.285 378.65 451.383 378.637 454.475C378.6 461.399 378.625 468.323 378.625 475.247C378.625 477.888 377.058 479.4 375.163 481.079C372.485 483.455 369.344 484.93 366.184 486.139C364.24 486.88 362.617 487.966 360.982 489.009C355.866 492.273 356.236 497.673 356.631 502.641C357.051 507.979 358.384 513.243 359.149 518.563C359.735 522.666 360.383 526.807 360.414 530.936C360.451 535.194 354.588 540.828 349.003 541.439C339.469 542.482 330.002 543.204 320.252 541.772C307.57 539.915 296.277 534.879 284.928 529.609C282.959 528.696 281.102 527.338 278.738 528.288" stroke="black" stroke-width="1.23424" stroke-linecap="round" stroke-linejoin="round"/>
<path d="M276.088 526.955C273.466 527.164 270.164 526.461 268.775 525.375C264.24 521.814 261.24 524.437 258.47 527.022C249.54 535.353 239.006 539.784 227.058 541.704C223.701 542.241 220.27 543.82 217.295 545.943C211.902 549.8 205.934 552.898 201.398 557.897" stroke="black" stroke-width="1.23424" stroke-linecap="round" stroke-linejoin="round"/>
<path d="M497.948 559.656C493.881 558.452 490.53 559.39 487.765 562.735C482.939 568.561 480.354 575.361 478.977 582.643C476.318 596.738 476.7 610.901 478.502 625.064" stroke="black" stroke-width="1.23424" stroke-linecap="round" stroke-linejoin="round"/>
<path d="M266.364 404.093C264.303 398.2 261.748 392.417 260.365 386.37C259.569 382.883 258.6 379.081 259.341 375.373C259.878 372.707 261.415 370.571 264.155 369.633C264.858 369.393 265.913 369.584 266.314 369.134C269.77 365.289 273.319 366.171 276.941 368.714C279.058 379.254 281.366 389.647 287.488 398.835C290.475 403.316 291.005 408.703 287.907 413.295C283.662 419.595 274.374 419.935 270.264 412.073C269.24 410.104 268.987 407.586 266.691 406.29C264.266 406.722 262.019 407.222 260.927 410.221C260.298 411.949 258.434 413.245 257.07 414.683C253.435 418.497 249.807 422.342 243.666 421.619C244.061 422.52 244.209 423.415 244.734 423.946C248.751 428.044 249.615 430.339 246.82 434.962C242.247 442.534 241.346 451.056 239.482 459.344C239.106 461.01 238.766 462.633 237.834 464.158C235.761 463.38 235.415 460.955 234.138 459.301C231.99 456.524 230.608 452.883 226.152 453.142" stroke="black" stroke-width="1.23424" stroke-linecap="round" stroke-linejoin="round"/>
<path d="M376.416 473.476C373.96 480.005 368.338 482.158 362.265 483.134C349.923 485.121 337.55 486.935 325.139 488.416C318.715 489.181 312.186 489.268 305.7 489.305C302.732 489.317 300.313 487.194 297.758 485.83C293.241 483.417 289.809 479.894 287.359 475.432C290.241 472.889 292.253 475.345 293.672 476.672C298.085 480.795 303.108 484.047 307.909 487.62" stroke="black" stroke-width="1.23424" stroke-linecap="round" stroke-linejoin="round"/>
<path d="M337.079 373.594C334.302 374.186 331.624 374.445 328.668 374.248C323.583 373.896 318.436 375.519 313.709 377.278C306.069 380.123 298.522 383.369 291.561 387.738C289.561 388.991 287.198 389.991 287.63 393.089C289.271 394.107 290.981 394.206 292.894 393.508C299.022 391.287 305.464 389.972 311.457 387.312C312.426 386.88 313.506 386.473 314.542 386.455C317.498 386.393 319.072 384.949 320.923 382.585C323.04 379.876 326.625 378.309 329.569 376.247" stroke="black" stroke-width="1.23424" stroke-linecap="round" stroke-linejoin="round"/>
<path d="M402.489 465.964C405.334 460.366 402.391 452.221 396.725 450.567C394.88 450.03 392.733 450.307 392.782 453.146C392.887 459.04 393.029 464.933 393.245 470.82C393.276 471.715 393.547 472.832 394.134 473.437C400.786 480.287 407.63 487.119 416.695 490.544C421.324 492.29 426.372 493.722 431.673 492.543C435.012 491.803 438.134 493.672 441.38 494.246" stroke="black" stroke-width="1.23424" stroke-linecap="round" stroke-linejoin="round"/>
<path d="M225.264 453.148C221.802 455.537 219.543 460.838 220.907 464.621C222.888 470.144 224.943 475.667 229.651 479.709C232.206 481.906 233.99 484.813 236.008 487.522C241.371 494.718 248.659 499.019 257.965 499.111C260.409 499.136 262.711 498.797 264.155 496.464" stroke="black" stroke-width="1.23424" stroke-linecap="round" stroke-linejoin="round"/>
<path d="M368.461 420.884C372.201 414.991 369.177 409.085 368.4 403.216C368.178 401.556 366.733 400.6 364.938 401.025C363.167 401.451 362.685 402.858 362.716 404.531C362.784 407.937 362.636 411.313 363.543 414.713C365.462 421.884 371.461 426.519 378.588 424.704C385.198 423.02 391.998 424.686 398.589 422.433C401.644 421.39 403.835 421.267 404.396 417.373C405.026 413.016 405.544 408.857 404.298 404.524C402.779 399.236 402.292 393.78 400.015 388.547C395.806 378.883 389.363 373.237 378.632 372.669C371.695 372.305 364.783 371.49 357.853 370.978C356.545 370.879 355.206 371.237 353.879 371.385" stroke="black" stroke-width="1.23424" stroke-linecap="round" stroke-linejoin="round"/>
<path d="M443.588 479.663C441.706 481.823 442.971 484.384 442.761 486.741C442.545 489.167 442.928 491.66 440.805 494.128C450.247 497.738 455.881 505.49 462.546 511.969C472.889 522.016 483.188 532.143 491.322 544.183C494.438 548.799 496.753 553.835 499.271 558.772" stroke="black" stroke-width="1.23424" stroke-linecap="round" stroke-linejoin="round"/>
<path d="M384.371 642.745C393.307 643.961 394.578 648.194 392.295 655.112C391.048 658.883 392.56 661.431 395.893 662.542C399.725 663.82 400.299 665.77 400.089 669.719C399.848 674.144 401.583 678.742 406.057 681.148C408.735 682.586 409.562 684.635 409.105 687.381C408.463 691.257 411.352 693.084 413.542 695.342" stroke="black" stroke-width="1.23424" stroke-linecap="round" stroke-linejoin="round"/>
<path d="M339.291 360.784C337.168 357.63 333.878 356.803 330.453 356.853C316.087 357.038 302.973 361.524 290.655 368.708C289.236 369.535 287.588 372.052 285.91 369.565C284.497 367.48 285.021 365.332 287.564 363.851C295.037 359.506 302.436 355.014 310.57 351.971C322.554 347.491 334.131 348.374 342.993 357.951C346.566 361.808 349.245 366.906 352.991 370.96" stroke="black" stroke-width="1.23424" stroke-linecap="round" stroke-linejoin="round"/>
<path d="M316.306 349.73C314.221 345.645 307.253 343.133 303.044 344.855C298.996 346.509 295.059 347.28 290.616 345.466C287.82 344.324 284.716 345.78 281.816 347.027C271.67 351.378 265.53 358.869 263.277 369.62" stroke="black" stroke-width="1.23424" stroke-linecap="round" stroke-linejoin="round"/>
<path d="M272.556 402.323C272.556 403.501 272.686 404.698 272.531 405.852C272.087 409.179 273.642 411.419 276.561 412.406C279.079 413.252 281.356 411.931 282.658 409.796C284.17 407.309 284.331 404.26 282.621 401.958C280.906 399.65 278.443 398.299 275.154 400.008C273.889 400.662 272.254 401.175 270.871 401.668C268.224 402.619 265.459 404.248 265.391 408.068C265.354 409.993 264.083 411.863 263.762 413.819C262.417 422.033 269.409 424.977 274.79 424.07C285.577 422.255 294.186 415.64 303.875 411.45C307.763 409.771 311.7 407.975 315.434 405.859" stroke="black" stroke-width="1.23424" stroke-linecap="round" stroke-linejoin="round"/>
<path d="M319.4 385.974C324.899 392.33 325.102 397.933 319.814 404.068C316.981 407.357 317.839 411.004 319.073 414.213C321.566 420.711 326.546 425.117 332.644 428.431C343.443 434.306 354.668 434.51 366.252 431.511C369.726 430.61 373.244 429.894 376.761 429.086C378.156 432.048 375.422 433.307 375.33 435.467C375.249 437.423 373.491 439.466 375.583 441.156C376.712 442.076 378.168 443.298 379.952 442.107C382.211 440.601 381.951 438.534 381.106 436.337C385.37 433.412 389.844 431.671 394.979 431.943" stroke="black" stroke-width="1.23424" stroke-linecap="round" stroke-linejoin="round"/>
<path d="M440.055 576.454C440.302 587.352 446.078 596.535 449.274 606.526C452.218 615.734 457.143 623.96 461.271 632.581" stroke="black" stroke-width="1.23424" stroke-linecap="round" stroke-linejoin="round"/>
<path d="M260.618 687.381C252.175 679.099 242.092 673.934 230.564 671.459C229.515 671.237 228.416 671.045 227.484 670.558C219.018 666.164 209.878 667.065 200.967 667.651C194.796 668.059 188.933 670.885 183.805 674.248C177.757 678.216 177.35 685.844 181.953 692.682C182.774 693.904 185.101 694.459 183.725 696.656" stroke="black" stroke-width="1.23424" stroke-linecap="round" stroke-linejoin="round"/>
<path d="M422.375 640.535C425.818 636.734 430.786 636.839 435.217 635.771C438.772 634.913 441.629 632.47 445.344 632.013C446.492 631.871 447.374 630.31 447.158 628.6C446.313 621.929 443.406 615.881 441.228 609.655C439.605 605.014 438.037 605.174 432.965 606.427C425.954 608.161 421.178 612.944 416.191 617.554" stroke="black" stroke-width="1.23424" stroke-linecap="round" stroke-linejoin="round"/>
<path d="M238.082 464.639C239.995 470.97 241.643 477.407 243.901 483.615C246.284 490.15 252.504 496.735 261.033 494.26C261.101 492.903 262.39 491.422 260.619 490.274C255.164 492.218 249.542 488.873 248.271 482.757C247.129 477.271 246.345 471.668 241.168 468.193C240.797 467.94 240.291 467.885 239.853 467.737" stroke="black" stroke-width="1.23424" stroke-linecap="round" stroke-linejoin="round"/>
<path d="M442.71 428.401C442.778 422.489 440.236 417.49 437.459 412.461C432.812 404.062 426.499 397.489 417.995 392.984C417.026 392.472 416.187 392.812 415.316 392.596" stroke="black" stroke-width="1.23424" stroke-linecap="round" stroke-linejoin="round"/>
<path d="M444.035 430.61C445.849 446.267 445.047 461.874 443.152 477.456" stroke="black" stroke-width="1.23424" stroke-linecap="round" stroke-linejoin="round"/>
<path d="M356.085 495.136C351.678 498.086 351.925 503.035 352.314 507.046C353.252 516.723 351.024 525.029 344.594 532.255" stroke="black" stroke-width="1.23424" stroke-linecap="round" stroke-linejoin="round"/>
<path d="M259.297 385.529C252.262 391.33 246.208 398.112 240.394 405.061C237.463 408.56 238.92 412.985 240.394 416.873C240.783 417.897 241.931 418.65 241.623 420.002" stroke="black" stroke-width="1.23424" stroke-linecap="round" stroke-linejoin="round"/>
<path d="M442.261 495.574C440.731 503.8 442.119 512.076 441.885 520.327C441.786 523.851 442.409 527.399 442.706 530.929" stroke="black" stroke-width="1.23424" stroke-linecap="round" stroke-linejoin="round"/>
<path d="M538.607 602.082C535.707 598.262 531.917 595.491 528.023 592.764C521.538 588.215 516.175 582.501 511.651 576.003C510.485 574.324 509.905 572.016 507.227 572.028" stroke="black" stroke-width="1.23424" stroke-linecap="round" stroke-linejoin="round"/>
<path d="M461.708 476.574C456.444 485.337 449.014 482.48 443.127 477.925C440.14 475.611 437.295 473.155 434.765 470.372C430.321 465.484 425.273 464.336 419.361 467.459C416.467 468.99 411.53 469.452 412.203 474.809" stroke="black" stroke-width="1.23424" stroke-linecap="round" stroke-linejoin="round"/>
<path d="M385.25 437.683C386.17 439.818 388.305 440.015 390.107 440.793C396.389 443.496 401.968 447.433 407.812 450.907C409.453 451.883 411.329 453.351 413.471 450.426C409.842 446.662 404.362 444.687 401.604 439.892" stroke="black" stroke-width="1.23424" stroke-linecap="round" stroke-linejoin="round"/>
<path d="M256.2 703.735C252.911 709.376 248.134 712.665 241.636 714.01C237.205 714.93 232.934 716.645 228.355 716.991" stroke="black" stroke-width="1.23424" stroke-linecap="round" stroke-linejoin="round"/>
<path d="M445.36 632.581C443.156 638.413 439.738 641.301 434.313 640.906C425.84 640.295 418.25 642.344 411.313 647.145C410.511 647.7 409.554 648.046 408.672 648.484" stroke="black" stroke-width="1.23424" stroke-linecap="round" stroke-linejoin="round"/>
<path d="M277.855 511.928C270.998 514.859 270.344 513.075 269.832 506.188C269.573 502.714 269.894 498.95 267.178 495.981C265.679 494.796 263.254 496.981 261.945 494.691" stroke="black" stroke-width="1.23424" stroke-linecap="round" stroke-linejoin="round"/>
<path d="M274.32 478.781C277.431 479.182 277.98 482.249 279.023 484.169C281.979 489.624 283.096 495.592 280.948 501.763" stroke="black" stroke-width="1.23424" stroke-linecap="round" stroke-linejoin="round"/>
<path d="M383.481 421.329C378.051 416.257 379.612 409.456 379.149 403.205C379.063 402.075 380.241 400.94 381.716 401.026C383.296 401.119 383.956 402.149 384.413 403.643C385.826 408.29 386.838 412.93 385.709 417.799C385.339 419.404 385.11 421.039 384.814 422.656" stroke="black" stroke-width="1.23424" stroke-linecap="round" stroke-linejoin="round"/>
<path d="M243.38 421.329C241.578 419.86 239.024 420.502 237.036 418.576C232.167 427.796 228.347 437.084 225.515 446.593C224.046 451.53 225.385 457.226 229.255 461.528C231.026 463.502 233.204 464.422 235.87 463.311" stroke="black" stroke-width="1.23424" stroke-linecap="round" stroke-linejoin="round"/>
<path d="M396.744 420.884C394.794 420.014 394.788 417.977 394.627 416.453C394.165 411.911 392.616 407.332 394.023 402.87C396.46 402.241 397.207 403.765 397.565 404.993C399.157 410.517 398.935 416.145 398.065 421.773" stroke="black" stroke-width="1.23424" stroke-linecap="round" stroke-linejoin="round"/>
<path d="M446.24 626.391C441.322 623.2 436.441 623.608 430.708 624.743C424.08 626.064 417.298 627.421 410.441 627.711" stroke="black" stroke-width="1.23424" stroke-linecap="round" stroke-linejoin="round"/>
<path d="M421.051 678.099C425.094 675.865 429.506 674.482 433.499 672.032C437.251 669.73 438.96 666.293 439.917 662.597C440.991 658.437 436.553 654.938 432.554 656.481C427.198 658.542 421.934 660.862 416.633 663.072" stroke="black" stroke-width="1.23424" stroke-linecap="round" stroke-linejoin="round"/>
<path d="M303.934 391.274C309.494 397.038 309.858 400.167 305.68 407.171C305.1 408.14 304.995 408.949 305.699 409.837" stroke="black" stroke-width="1.23424" stroke-linecap="round" stroke-linejoin="round"/>
<path d="M315.426 386.857C315.672 392.603 314.111 398.354 315.771 404.124C316.135 405.39 316.678 405.865 317.641 406.303" stroke="black" stroke-width="1.23424" stroke-linecap="round" stroke-linejoin="round"/>
<path d="M342.828 356.802C345.155 352.26 350.104 354.698 353.696 352.525C358.546 358.079 355.818 364.516 356.084 370.502" stroke="black" stroke-width="1.23424" stroke-linecap="round" stroke-linejoin="round"/>
<path d="M491.761 624.625C491.033 629.796 488.99 634.24 484.689 637.443C481.893 639.522 479.301 639.985 476.247 637.504C471.427 633.586 471.285 633.74 466.144 637.461C465.583 637.868 465.206 638.535 464.367 638.331" stroke="black" stroke-width="1.23424" stroke-linecap="round" stroke-linejoin="round"/>
<path d="M373.761 452.263C367.713 450.313 362.14 451.35 356.969 454.917" stroke="black" stroke-width="1.23424" stroke-linecap="round" stroke-linejoin="round"/>
<path d="M444.473 472.592C448.447 477.14 453.538 479.164 459.499 479.22" stroke="black" stroke-width="1.23424" stroke-linecap="round" stroke-linejoin="round"/>
<path d="M279.625 358.568C276.916 357.297 275.09 359.179 272.979 360.302C270.363 361.691 268.499 364.597 265.043 364.314" stroke="black" stroke-width="1.23424" stroke-linecap="round" stroke-linejoin="round"/>
<path d="M378.18 442.982C381.71 448.098 385.943 452.276 392.324 453.591" stroke="black" stroke-width="1.23424" stroke-linecap="round" stroke-linejoin="round"/>
<path d="M417.951 423.538C413.261 421.872 408.337 421.643 404.344 424.55C399.969 427.74 395.013 430.826 393.649 436.794C393.156 438.954 394.131 439.787 396.291 439.929C399.493 440.138 402.264 439.336 404.702 437.244C405.757 436.337 406.387 434.702 408.226 435.023" stroke="black" stroke-width="1.23424" stroke-linecap="round" stroke-linejoin="round"/>
<path d="M356.082 452.702C358.588 450.493 361.038 448.216 363.611 446.093C365.956 444.155 369.109 443.878 371.461 444.945C373.818 446.013 374.262 448.722 374.534 451.789C374.892 455.918 373.207 456.794 370.263 458.096C367.795 459.188 365.684 461.083 363.216 463.267C368.677 464.205 374.596 464.205 376.41 470.821" stroke="black" stroke-width="1.23424" stroke-linecap="round" stroke-linejoin="round"/>
<path d="M343.266 532.701C345.222 535.879 348.19 536.571 351.665 536.268C353.127 536.145 354.664 535.966 356.083 536.675" stroke="black" stroke-width="1.23424" stroke-linecap="round" stroke-linejoin="round"/>
<path d="M416.633 440.774C418.879 444.181 421.366 446.631 425.957 444.397C427.309 443.737 429.21 444.613 430.777 443.866" stroke="black" stroke-width="1.23424" stroke-linecap="round" stroke-linejoin="round"/>
<path d="M352.105 456.238C353.284 455.942 354.889 455.01 355.574 455.461C359.579 458.114 364.195 457.084 368.459 458.009" stroke="black" stroke-width="1.23424" stroke-linecap="round" stroke-linejoin="round"/>
<path d="M437.842 457.129C437.305 462.097 439.415 466.145 442.26 469.946" stroke="black" stroke-width="1.23424" stroke-linecap="round" stroke-linejoin="round"/>
<path d="M402.488 392.159C405.339 391.085 408.382 391.202 411.301 390.69C413.189 390.357 414.405 390.381 414.794 392.171C415.189 393.973 413.93 394.936 412.208 395.25C409.289 395.793 406.364 396.324 403.371 396.133" stroke="black" stroke-width="1.23424" stroke-linecap="round" stroke-linejoin="round"/>
<path d="M476.734 626.391C478.03 630.575 481.4 633.845 482.035 638.326" stroke="black" stroke-width="1.23424" stroke-linecap="round" stroke-linejoin="round"/>
<path d="M434.305 641.418C434.064 642.881 434.274 644.343 433.99 645.861C433.589 647.978 435.243 649.656 437.014 650.595C437.699 650.959 439.464 650.434 439.958 649.749C441.05 648.249 440.797 646.157 440.353 644.547C439.983 643.189 438.427 642.152 437.397 640.974" stroke="black" stroke-width="1.23424" stroke-linecap="round" stroke-linejoin="round"/>
<path d="M404.254 464.193C407.759 465.458 410.906 467.23 413.091 470.383" stroke="black" stroke-width="1.23424" stroke-linecap="round" stroke-linejoin="round"/>
<path d="M363.152 433.259C366.207 436.147 367.028 440.158 368.453 443.867" stroke="black" stroke-width="1.23424" stroke-linecap="round" stroke-linejoin="round"/>
<path d="M284.927 357.248C278.293 357.711 277.324 362.895 276.09 367.856" stroke="black" stroke-width="1.23424" stroke-linecap="round" stroke-linejoin="round"/>
<path d="M422.379 435.911C425.323 438.435 428.272 437.04 431.216 435.911" stroke="black" stroke-width="1.23424" stroke-linecap="round" stroke-linejoin="round"/>
<path d="M440.937 438.564C437.487 440.601 433.346 438.348 429.891 440.329" stroke="black" stroke-width="1.23424" stroke-linecap="round" stroke-linejoin="round"/>
<path d="M284.924 366.085C281.925 365.912 280.277 369.023 277.414 369.177" stroke="black" stroke-width="1.23424" stroke-linecap="round" stroke-linejoin="round"/>
<path d="M344.589 362.548C344.91 365.658 341.553 369.293 345.916 371.829" stroke="black" stroke-width="1.23424" stroke-linecap="round" stroke-linejoin="round"/>
<path d="M374.206 437.238C371.306 434.622 370.152 437.683 368.461 439.003" stroke="black" stroke-width="1.23424" stroke-linecap="round" stroke-linejoin="round"/>
<path d="M433.427 432.375C431.748 434.584 430.847 436.794 433.427 439.003" stroke="black" stroke-width="1.23424" stroke-linecap="round" stroke-linejoin="round"/>
</svg>
