<svg width="1708" height="1130" viewBox="0 0 1708 1130" fill="none" xmlns="http://www.w3.org/2000/svg">
<g clip-path="url(#clip0_1019_7919)">
<path d="M498.002 151.116C499.029 147.295 495.256 145.755 493.675 143.687C486.89 134.82 480.508 125.687 473.949 116.663C472.196 114.253 469.8 112.301 467.061 110.672C458.469 105.55 449.253 101.778 440.078 97.9709C429.205 93.4589 419.195 94.616 409.583 102.414C401.017 109.364 394.568 118.573 385.146 124.502C382.599 133.061 373.788 137.162 370.487 145.248C367.317 152.999 366.372 161.085 367.098 169.239C369.44 195.401 376.259 220.419 386.03 244.807C387.899 249.477 390.692 254.146 390.836 259.884C390.905 262.718 392.897 266.936 396.211 269.325C397.498 270.257 398.799 271.866 399.093 273.365C401.449 285.368 409.213 295.09 412.787 306.634C416.977 320.156 423.749 332.686 430.226 345.256C432.745 350.145 435.532 354.698 436.23 360.463C436.744 364.681 438.675 368.939 440.79 372.719C446.932 383.687 447.445 396.251 451.307 407.829C454.189 416.456 456.442 425.193 457.613 434.182C459.831 451.19 466.5 467.54 465.233 485.054C465.083 487.129 465.76 488.786 467.452 490.84C471.375 483.315 477.393 477.625 481.878 470.587C487.793 461.296 498.515 457.201 507.375 451.149C509.826 449.471 513.263 448.588 514.818 446.349C521.315 436.99 532.777 432.635 538.35 422.474" stroke="black" stroke-width="1.36936" stroke-linecap="round" stroke-linejoin="round"/>
<path d="M127.281 479.793C133.115 487.804 132.663 497.026 131.882 506.105C130.609 520.942 129.116 535.779 127.179 550.548C125.946 559.928 123.885 569.123 120.434 578.113C115.662 590.526 112.3 603.466 107.891 616.03C105.7 622.261 102.099 627.999 99.8872 634.222C94.9849 648.005 90.514 661.945 87.5151 676.296C86.8715 679.377 87.6794 682.492 88.8776 684.978C90.4661 688.271 89.5828 691.865 88.4257 693.673C84.2081 700.26 86.132 706.969 87.789 713.07C90.0758 721.457 102.948 728.29 113.232 722.471C121.585 717.739 129.637 712.543 138.318 708.318C147.705 703.751 157.626 700.588 166.999 696.097C169.197 695.042 171.868 695.056 173.408 695.357C176.297 695.919 177.687 694.885 179.324 693.255" stroke="black" stroke-width="1.36936" stroke-linecap="round" stroke-linejoin="round"/>
<path d="M383.978 124.798C379.836 123.504 376.816 126.996 372.879 127.277C357.686 128.352 342.651 131.597 328.581 136.897C316.852 141.313 304.706 145.27 293.854 152.172C281.708 159.895 269.198 167.132 256.443 173.808C244.303 180.155 235.827 190.062 227.111 200.106C223.003 204.844 219.765 210.589 213.883 213.807C211.946 214.868 210.111 216.956 209.255 219.003C206.297 226.055 200.422 231.28 197.499 238.277C196.157 241.488 193.761 243.617 190.988 245.22C184.517 248.965 179.786 254.826 173.925 259.119C162.813 267.259 153.166 277.091 142.108 285.314C135.891 289.936 130.578 295.968 127.545 304.225C122.944 316.769 115.96 328.422 110.408 340.636C106.765 348.647 102.15 356.007 97.7411 363.573C92.0994 373.255 85.1568 382.272 81.5074 393.179C79.7889 398.314 74.4758 401.73 72.8873 407.269C72.0383 410.227 70.4909 413.062 70.0801 416.061C69.0531 423.51 66.1569 430.268 62.2474 436.43C59.0636 441.449 57.8449 446.577 57.6601 452.308C57.4957 457.634 56.948 462.982 55.3185 468.083C54.2024 471.568 53.9696 474.833 55.9552 478.038" stroke="black" stroke-width="1.36936" stroke-linecap="round" stroke-linejoin="round"/>
<path d="M279.308 682.139C280.308 679.811 282.964 680.009 284.648 679.441C288.524 678.14 292.933 678.756 294.761 673.45C295.234 672.095 298.753 671.362 300.951 671.136C303.833 670.835 305.161 669.212 306.935 666.864C303.628 664.536 301.129 664.858 297.965 666.227C293.118 668.322 288.469 670.657 282.855 671.341C276.562 672.108 270.393 674.922 264.574 679.092C269.168 682.125 272.475 685.665 275.775 689.184C280.787 694.538 282.519 704.863 278.185 711.991C275.816 715.887 274.994 720.399 274.029 724.829C272.242 733.004 267.621 739.85 262.794 746.362C259.726 750.497 260.288 753.482 263.56 756.372C271.373 763.26 272.982 771.64 271.277 781.588C270.031 788.832 272.975 795.754 275.193 802.629C280.109 817.863 292.2 824.477 306.195 828.982C308.243 829.639 310.105 830.892 312.056 831.864C319.054 835.356 326.332 836.815 334.253 837.424C345.571 838.293 354.773 834.548 363.489 828.325C366.714 826.024 370.247 825.38 374.04 825.435" stroke="black" stroke-width="1.36936" stroke-linecap="round" stroke-linejoin="round"/>
<path d="M746.511 265.744C750.619 265.97 752.755 262.67 755.213 260.41C766.031 250.482 776.165 239.76 784.264 227.566C788.16 221.698 794.062 216.2 793.384 207.84C793.138 204.8 792.234 202.527 789.53 200.062C783.244 206.348 778.623 213.462 773.289 220.028C763.464 232.126 756.98 246.319 747.935 258.911C745.292 262.587 745.012 267.784 740.739 271.105C729.107 280.143 717.59 289.502 703.753 294.788C694.975 298.143 687.375 303.997 678.105 306.112C671.361 307.646 664.582 308.748 657.476 309.118C657.866 303.956 662.371 303.353 664.788 300.97C673.422 292.446 682.59 284.463 691.552 276.274C706.629 262.505 723.136 250.147 736.289 234.509C741.801 227.956 749.168 222.938 753.009 214.893C756.186 208.238 755.056 206.218 747.689 206.04C744.197 205.958 740.938 206.855 737.768 207.909C728.21 211.072 718.96 214.995 710.271 220.137C698.762 226.943 687.047 233.434 675.839 240.705C665.774 247.237 656.092 254.392 646.582 261.718C635.456 270.297 618.428 271.468 606.255 263.299C602.441 260.739 598.723 258.226 594.506 256.343C585.571 252.345 581.373 243.738 574.938 235.933C581.175 235.289 586.652 234.399 592.15 234.228C607.268 233.769 621.14 228.716 634.813 222.999C642.995 219.583 651.204 215.776 657.482 209.449C661.255 205.643 664.761 201.966 669.916 200.247" stroke="black" stroke-width="1.36936" stroke-linecap="round" stroke-linejoin="round"/>
<path d="M339.539 604.359C336.191 610.22 334.116 616.499 332.37 623.037C330.693 629.323 327.707 635.321 320.799 637.614C318.608 638.34 316.376 638.114 313.74 637.354C299.889 633.376 286.004 629.028 271.68 627.392C260.308 626.091 248.565 625.584 237.248 626.947C227.484 628.125 217.816 631.733 208.628 635.54C197.783 640.031 187.17 645.331 177.078 651.321C168.622 656.34 161.755 663.488 157.695 672.793C156.243 676.127 159.55 679.393 164.692 679.804C167.76 680.051 171.197 678.893 173.463 682.146" stroke="black" stroke-width="1.36936" stroke-linecap="round" stroke-linejoin="round"/>
<path d="M884.511 162.811C887.572 161.496 887.996 159.381 886.901 156.361C885.155 151.555 883.34 146.714 882.32 141.73C881.731 138.861 880.54 138.553 878.096 138.142C873.193 137.32 869.017 135.506 866.833 130.118C864.464 124.277 861.718 118.629 859.78 112.576C858.808 109.536 856.186 106.955 854.077 104.36C850.284 99.6904 845.608 95.8151 844.471 89.1806C844.081 86.9006 841.719 83.977 838.891 82.7241C830.072 78.8214 827.08 70.2355 822.479 62.8478C814.099 49.4076 802.261 41.3147 786.308 38.6513C776.195 36.967 766.89 32.3043 757.524 27.9361C750.41 24.6154 744.289 19.8295 737.264 16.3992C730.424 13.058 723.262 11.4832 716.094 11.0176C707.789 10.4767 699.353 10.0591 690.918 11.6955C687.611 12.3391 686.173 15.8378 682.777 15.4475" stroke="black" stroke-width="1.36936" stroke-linecap="round" stroke-linejoin="round"/>
<path d="M689.793 814.898C682.529 822.806 672.998 827.462 664.118 833.111C652.944 840.218 641.058 846.209 630.685 854.61C626.782 857.773 623.872 861.47 621.312 865.743C613.89 878.135 606.776 890.781 598.32 902.442C594.061 908.316 587.235 912.41 582.846 918.456C576.876 926.672 568.858 932.971 560.916 938.545C547.147 948.205 534.09 959.133 517.98 965.439C508.148 969.287 502.965 978.817 498.775 988.088C496.96 992.107 499.254 995.661 503.828 997.434C507.381 998.817 510.681 1000.87 514.091 1002.62" stroke="black" stroke-width="1.36936" stroke-linecap="round" stroke-linejoin="round"/>
<path d="M798.555 1124.86C797.774 1124.67 796.878 1124.11 796.234 1124.33C787.354 1127.27 778.254 1124.37 769.319 1125.43C762.507 1126.24 755.721 1124.02 748.834 1125.32C746.157 1125.82 744 1122.01 744.767 1119.01C746.513 1112.18 748.382 1105.39 749.998 1098.53C752.168 1089.31 752.319 1079.84 752.88 1070.46C753.654 1057.6 753.044 1044.89 748.977 1032.41C746.28 1024.13 741.603 1017.67 734.798 1012.59C731.593 1010.2 720.721 1010.68 717.934 1013.8C705.932 1027.25 694.737 1041.1 690.225 1059.32C687.096 1071.95 678.497 1081.27 669.514 1090.53C658.627 1101.75 645.57 1110.21 634.287 1120.81C633.109 1121.92 631.096 1122.63 631.322 1124.85" stroke="black" stroke-width="1.36936" stroke-linecap="round" stroke-linejoin="round"/>
<path d="M157.684 688.576C168.358 684.961 177.218 689.966 185.673 695.135C193.034 699.634 192.212 704.194 185.893 710.356C179.018 717.059 171.781 722.502 163.106 726.898C153.384 731.82 152.432 740.858 158.245 750.581C166.27 763.993 173.849 777.646 179.902 792.093C184.66 803.445 184.16 814.913 181.196 826.628C180.21 830.524 180.436 834.789 180.559 838.877C180.675 842.868 181.921 845.984 186.906 846.593C192.582 847.291 198.326 847.593 203.852 846.881C212.239 845.806 220.599 845.258 229.021 845.34C230.89 845.361 232.478 845.039 233.697 843.553" stroke="black" stroke-width="1.36936" stroke-linecap="round" stroke-linejoin="round"/>
<path d="M467.595 718.988C463.891 730.292 459.858 741.507 456.585 752.935C453.915 762.26 447.376 769.353 443.391 777.946C436.969 791.79 429.212 804.868 419.448 816.966C413.895 823.847 409.26 831.584 402.66 837.677C396.6 843.278 390.514 848.755 382.263 851.296C378.689 852.398 375.108 854.541 372.383 857.109C366.817 862.353 360.182 865.331 352.966 866.167C345.626 867.016 339.875 870.179 334.213 874.465C330.029 877.628 325.25 879.881 319.656 878.053" stroke="black" stroke-width="1.36936" stroke-linecap="round" stroke-linejoin="round"/>
<path d="M619.332 589.734C621.756 597.006 626.418 602.805 631.964 607.796C636.333 611.726 640.044 616.081 643.741 620.613C647.719 625.488 652.265 630.035 657.612 633.622C662.775 637.087 666.951 641.551 669.882 647.063C671.655 650.39 672.395 651.561 677.126 649.206C685.41 645.07 694.893 642.934 704.41 643.016C725.409 643.187 745.833 639.565 765.764 633.458C776.925 630.035 788.455 628.946 799.642 626.262C807.16 624.461 812.624 628.295 818.998 629.603C820.114 629.836 820.97 630.418 821.942 629.507" stroke="black" stroke-width="1.36936" stroke-linecap="round" stroke-linejoin="round"/>
<path d="M721.364 56.9589C718.18 50.7694 711.333 50.9063 706.137 48.2361C695.476 42.7655 683.939 39.3147 672.218 37.9316C660.667 36.5691 649.069 34.9122 637.135 36.8909C609.029 41.5399 587.297 57.5614 566.572 75.274C560.677 80.3133 556.651 87.5503 551.81 93.8151C550.085 96.0472 548.934 98.3819 549.955 101.442C550.372 102.702 550.16 104.147 548.948 105.571C542.67 112.979 539.424 123.503 530.565 127.953C523.382 131.561 517.645 136.512 511.4 141.113C504.02 146.556 497.371 152.828 490.374 158.695C482.904 164.96 473.668 166.781 464.753 164.789C458.29 163.344 452.566 165.268 446.554 165.46C443.809 165.549 441.378 168.918 441.228 172.752C440.947 179.975 442.323 187.027 444.357 193.758C447.89 205.431 452.491 216.77 456.407 228.334C457.352 231.114 458.002 234.024 458.365 237.064C459.906 249.881 467.033 260.432 472.627 271.695C477.187 280.883 481.631 290.195 484.917 300.116C487.526 307.99 491.154 315.685 493.907 323.628C497.762 334.754 501.918 345.784 505.519 356.992C508.162 365.229 512.592 372.616 516.344 380.251C522.951 393.704 530.934 406.481 538.336 419.544C539.842 422.208 541.677 424.193 544.703 425.549C547.942 426.994 550.509 429.862 553.577 431.779C557.055 433.95 559.985 437.113 564.655 437.182C567.825 437.229 568.927 439.119 567.613 442.365C561.553 457.366 559.102 473.819 549.53 487.437C549.133 487.998 549.845 489.334 550.037 490.306" stroke="black" stroke-width="1.36936" stroke-linecap="round" stroke-linejoin="round"/>
<path d="M904.385 216.031C904.385 220.516 904.131 225.014 904.453 229.478C904.816 234.586 902.002 240.173 906.644 244.767C907.226 245.349 906.788 247.027 906.712 248.197C905.946 260.481 906.213 272.942 904.166 285.006C899.989 309.654 893.033 333.269 875.272 352.419C866.221 362.176 856.608 370.823 844.728 377.17C840.853 371.049 847.392 364.559 843.544 358.609C835.033 363.86 826.954 369.837 817.252 372.775C814.952 373.473 812.699 374.664 810.234 373.357" stroke="black" stroke-width="1.36936" stroke-linecap="round" stroke-linejoin="round"/>
<path d="M326.084 442.358C329.419 439.64 329.487 435.436 330.672 431.8C331.514 429.226 329.72 427.993 327.276 427.083C321.353 424.864 315.362 423.057 309.132 421.831C299.58 419.955 290.597 416.319 281.601 412.615C270.433 408.021 258.335 407.61 246.538 406.919C237.658 406.398 228.641 405.988 219.63 407.727C203.801 410.78 188.327 415.155 172.922 419.709C164.062 422.331 155.9 426.816 148.211 432.272C141.851 436.784 137.113 442.81 132.149 448.39C118.257 464 106.48 481.412 92.2458 496.81C88.3157 501.062 85.8098 506.478 84.1803 512.01C83.6052 513.961 82.1331 516.673 84.5089 519.042C85.6934 520.219 85.1457 522.02 84.6116 523.663C80.8048 535.481 80.9828 547.702 81.0582 559.91C81.1061 567.517 79.2711 575.007 80.3872 582.731C82.4344 596.938 77.313 609.981 72.8352 623.058C72.3011 624.612 71.6507 626.016 71.6644 627.748C71.7465 637.498 71.7465 647.241 71.6644 656.991C71.6507 658.723 72.1094 660.188 72.8625 661.674C76.5119 668.87 77.5526 676.874 79.9764 684.446C81.2704 688.493 80.4488 692.3 79.86 696.161C77.3609 712.566 77.7238 728.814 82.8931 744.685C85.0224 751.216 88.5691 757.091 93.9164 761.678C97.2714 764.554 100.154 768.251 103.94 770.305C114.861 776.234 117.257 787.456 122.05 797.316C126.966 807.435 132.799 817.117 136.586 827.763C139.961 837.26 144.658 846.147 148.999 855.192C150.471 858.266 153.107 860.881 156.496 862.244C161.309 864.175 165.267 867.406 169.354 870.446" stroke="black" stroke-width="1.36936" stroke-linecap="round" stroke-linejoin="round"/>
<path d="M814.337 337.678C813.235 335.596 814.255 333.816 814.844 331.81C817.131 324.039 819.78 316.405 823.128 309.031C827.784 298.774 826.655 287.518 828.866 276.837C830.653 268.217 829.475 259.583 827.168 251.134C826.874 250.059 826.182 249.101 825.196 247.129C823.601 252.846 820.958 257.091 820.075 262.219C818.096 273.79 812.673 284.06 807.436 294.461C801.609 306.039 794.372 316.713 786.026 326.36C779.405 334.008 770.662 339.814 762.884 346.462C761.836 347.352 760.925 348.4 759.953 349.372" stroke="black" stroke-width="1.36936" stroke-linecap="round" stroke-linejoin="round"/>
<path d="M126.695 451.135C122.553 445.37 121.635 438.496 120.321 431.827C118 420.065 117.527 408.124 117.972 396.162C118.123 392.246 117.582 388.699 114.891 385.516C112.118 386.358 110.516 388.33 109.085 390.863C106.531 395.375 104.121 399.99 100.445 403.824C98.0483 406.323 97.6854 410.068 96.1654 413.06C90.9482 423.303 87.7028 434.333 83.1976 444.857C75.9879 461.7 69.3534 478.967 66.3408 497.317C65.6904 501.288 63.8897 505.506 58.2068 504.93C55.8104 513.167 54.7013 521.226 55.5913 530.12C56.9607 543.868 54.5027 557.623 50.7507 571.043C49.6963 574.809 49.0937 578.814 49.0116 582.724C48.8336 591.248 44.8419 598.499 41.8909 606.105C40.5558 609.549 37.865 610.748 34.3047 610.207" stroke="black" stroke-width="1.36936" stroke-linecap="round" stroke-linejoin="round"/>
<path d="M737.153 192.055C739.803 193.513 741.946 191.986 744.171 190.884C758.008 184.058 771.846 177.232 785.683 170.412C794.221 166.208 797.213 157.65 800.013 149.838C803.183 140.992 805.847 131.68 805.073 121.862C804.772 118.068 804.204 114.385 803.211 110.763C801.246 103.629 794.173 102.184 789.113 98.5894C787.285 97.2885 784.519 97.3022 782.178 96.727C781.993 96.6791 781.712 96.6449 781.616 96.7407C781.52 96.8366 781.596 97.1105 781.596 98.6373C784.704 102.834 782.239 107.1 778.72 111.379C775.249 115.597 770.517 116.158 765.814 115.919C757.166 115.48 748.656 116.891 740.09 117.35C736.16 117.562 732.408 119.143 728.834 121.677C724.13 125.004 718.557 127.209 713.162 129.42C702.645 133.727 691.499 135.774 680.503 138.506C659.86 143.634 638.826 147.647 620.073 159.074C608.666 166.023 596.602 171.912 585.702 179.758C577.253 185.845 568.866 191.986 562.32 200.237" stroke="black" stroke-width="1.36936" stroke-linecap="round" stroke-linejoin="round"/>
<path d="M333.693 848.236C325.326 859.499 315.309 867.921 301.013 871.31C292.29 873.378 284.074 877.821 275.838 881.642C268.128 885.216 260.097 885.935 251.833 885.654C248.519 885.538 245.171 884.88 241.898 885.154C228.417 886.257 215.689 882.518 202.666 880.088C192.362 878.164 183.283 873.412 173.519 870.345C171.499 869.708 170.288 870.242 168.816 871.063C168.733 871.111 168.733 871.474 168.816 871.618C168.952 871.851 169.192 872.015 169.384 872.214" stroke="black" stroke-width="1.36936" stroke-linecap="round" stroke-linejoin="round"/>
<path d="M326.673 256.969C318.025 256.935 309.494 258.222 300.936 259.229C298.231 259.544 295.835 259.626 294.986 263.255C299.512 269.766 307.091 272.121 313.821 275.661C326.926 282.542 339.956 289.526 351.855 298.44C355.203 300.953 357.511 303.973 358.928 307.807C356.312 309.916 354.272 308.252 351.78 307.382C341.195 303.671 330.616 299.947 319.71 297.14C312.733 295.339 306.31 291.539 299.21 289.67C288.748 286.917 279.074 281.679 268.728 278.845C254.699 275.004 240.191 273.463 225.518 275.052C221.164 275.524 217.384 277.578 213.263 278.674C199.446 282.364 187.293 289.766 174.503 295.839C164.157 300.748 156.058 308.978 145.438 313.175C142.323 314.407 140.687 317.42 139.002 320.152C136.852 323.643 134.798 327.176 130.793 328.909" stroke="black" stroke-width="1.36936" stroke-linecap="round" stroke-linejoin="round"/>
<path d="M902.927 672.787C904.844 675.375 907.152 676.546 909.637 675.676C916.381 673.307 923.303 674.725 930.116 674.677C935.155 674.643 938.291 678.237 940.023 682.742C943.351 691.397 946.096 700.202 950.191 708.651C952.827 714.087 951.471 721.372 952.389 727.753C954.059 739.317 953.525 750.717 951.964 762.295C950.882 770.313 950.328 778.399 948.212 786.238C946.288 793.359 941.269 798.912 938.181 805.492C932.957 816.611 927.713 827.839 921.119 838.158C915.656 846.696 912.225 856.178 906.816 864.675C903.907 869.249 902.284 874.48 900.702 879.772C897.785 889.522 892.438 898.252 886.79 906.694C884.297 910.419 882.353 914.191 882.168 918.717" stroke="black" stroke-width="1.36936" stroke-linecap="round" stroke-linejoin="round"/>
<path d="M793.289 1088.6C799.752 1083.81 805.435 1078.1 811.864 1073.21C819.334 1067.53 828.571 1064.32 834.774 1056.99C842.49 1047.88 851.453 1039.99 860.682 1032.65C873.91 1022.13 886.96 1010.4 904.412 1007.49C917.955 1005.22 931.444 1001.95 945.315 1002.08C951.272 1002.14 956.695 1000.21 962.316 998.687C966.068 997.674 968.896 995.326 970.258 992.587C973.716 985.631 979.084 980.352 983.89 974.546C989.765 967.445 989.806 962.612 983.856 955.895C981.665 953.423 981.459 950.007 979.234 947.658C971.278 939.285 961.583 934.588 949.998 934.239C937.9 933.876 926.904 929.761 916.079 924.872C911.129 922.633 905.624 921.86 900.838 919.087C899.586 918.361 897.682 918.203 896.224 918.491C888.617 920.004 880.586 918.32 873.287 922.907C868.268 926.063 862.161 927.57 856.43 929.473C852.418 930.801 848.933 932.417 847.023 936.518C846.55 937.532 845.215 938.217 844.161 938.874C837.999 942.735 832.193 947.076 826.633 951.759C824.428 953.615 821.888 954.375 819.033 954.101" stroke="black" stroke-width="1.36936" stroke-linecap="round" stroke-linejoin="round"/>
<path d="M813.755 229.486C813.173 229.294 813.276 229.582 813.125 230.054C806.018 252.306 791.339 269.67 776.317 286.787C768.984 295.147 759.371 301.035 750.313 306.82C739.118 313.975 726.725 320.199 712.594 320.843C708.499 321.027 704.418 321.39 699.16 321.281C705.952 314.489 712.429 308.457 718.379 301.945C725.274 294.393 731.758 286.458 738.221 278.523C738.81 277.797 739.775 275.88 738.324 274.51" stroke="black" stroke-width="1.36936" stroke-linecap="round" stroke-linejoin="round"/>
<path d="M679.854 226.563C682.25 220.839 688.234 219.942 692.78 217.306C705.077 210.179 718.408 204.612 729.986 196.506C751.362 181.525 772.546 165.894 785.561 142.272C787.609 138.562 789.204 134.125 788.375 128.695C777.325 129.791 767.246 132.331 758.222 138.267C744.378 147.373 729.657 154.754 714.368 161.087C704.379 165.23 694.431 164.47 683.921 163.018C655.856 159.143 629.783 165.654 606.929 182.326C598.548 188.434 590.284 195.109 583.259 203.051C581.294 205.27 581.938 208.59 579.281 210.172" stroke="black" stroke-width="1.36936" stroke-linecap="round" stroke-linejoin="round"/>
<path d="M177.566 966.371C179.004 972.52 183.126 977.415 185.392 983.242C187.152 987.767 186.193 991.916 184.947 995.532C181.469 1005.62 182.749 1017.86 190.548 1024.12C200.674 1032.24 200.503 1041.9 197.518 1052.94C193.786 1066.74 192.13 1080.95 189.788 1095.02C188.912 1100.28 188.275 1105.54 188.74 1110.82C189.226 1116.31 184.4 1120.14 184.584 1125.44" stroke="black" stroke-width="1.36936" stroke-linecap="round" stroke-linejoin="round"/>
<path d="M783.93 895.02C782.903 888.043 781.472 886.421 775.159 885.079C763.266 882.545 751.476 879.04 739.453 877.821C731.648 877.027 723.507 873.425 715.503 877.164C715.709 885.086 724.397 891.953 733.64 892.692C747.464 893.795 761.356 893.124 775.18 894.856C781.746 895.678 787.312 898.211 792.66 901.518C798.048 904.845 798.212 912.178 793.769 915.958C784.409 923.9 776.679 934.198 764.061 937.758C763.006 938.052 761.89 938.696 761.158 939.504C753.407 948.09 742.589 951.677 732.36 954.909C717.153 959.709 703.973 968.774 689.095 973.649C678.989 976.963 670.588 983.679 660.044 986.035C656.347 986.856 650.596 989.191 651.191 995.62" stroke="black" stroke-width="1.36936" stroke-linecap="round" stroke-linejoin="round"/>
<path d="M184.586 680.971C192.774 682.142 200.936 683.525 209.152 684.435C223.564 686.024 237.381 681.799 251.184 678.917C258.189 677.452 263.536 671.454 268.774 666.339C269.465 665.668 269.835 664.648 270.568 664.045C272.622 662.341 274.751 659.91 273.279 657.712C271.43 654.953 269.068 652.105 264.693 652.235C255.758 652.495 247.302 653.967 238.901 657.425C226.488 662.532 213.52 666.271 201.011 671.159C194.993 673.515 188.591 675.48 183.887 680.58C182.935 681.614 180.491 681.546 178.738 681.512C174.131 681.416 171.111 683.764 168.797 687.414" stroke="black" stroke-width="1.36936" stroke-linecap="round" stroke-linejoin="round"/>
<path d="M313.227 978.652C312.515 983.876 308.66 987.17 305.607 990.915C298.281 999.918 291.838 1009.34 288.62 1020.74C284.573 1035.05 276.029 1047.45 270.77 1061.19C267.224 1070.46 263.834 1079.92 261.643 1089.73C260.432 1095.16 257.501 1100.19 256.022 1105.58C254.276 1111.95 251.887 1118.2 251.25 1124.85" stroke="black" stroke-width="1.36936" stroke-linecap="round" stroke-linejoin="round"/>
<path d="M923.687 668.693C918.202 658.204 908.226 653.568 897.895 650.179C890.671 647.81 883.845 644.729 876.923 641.765C869.802 638.718 862.298 637.595 854.691 637.177C849.515 636.89 844.134 634.692 839.546 635.24C832.323 636.102 825.004 634.911 817.822 636.992C805.983 640.429 796.377 647.975 785.779 653.63C778.459 657.533 773.571 664.92 766.395 669.254C757.679 674.513 751.031 681.764 744.595 689.596C737.426 698.326 728.334 705.31 719.632 712.56C709.978 720.605 698.619 726.658 691.827 738.092C690.423 740.447 688.301 744.631 683.953 744.713" stroke="black" stroke-width="1.36936" stroke-linecap="round" stroke-linejoin="round"/>
<path d="M488.057 587.982C480.108 598.027 469.578 604.901 458.787 611.316C445.511 619.211 431.838 626.461 418.295 633.856C405.567 640.799 392.921 648.159 379.323 653.561C372.696 656.197 366.972 660.599 360.152 663.235C355.141 665.18 349.656 668.692 347.137 674.54" stroke="black" stroke-width="1.36936" stroke-linecap="round" stroke-linejoin="round"/>
<path d="M401.519 306.389C404.381 303.171 402.368 299.98 400.841 297.378C394.754 287.04 387.332 277.42 385.032 265.178C384.71 263.459 383.067 261.714 381.601 260.529C362.608 245.124 342.506 231.369 321.5 218.812C312.545 213.457 303.274 213.533 293.956 215.039C281.371 217.072 268.958 220.249 256.517 223.098C252.745 223.96 248.842 224.919 245.487 226.733C243.42 227.849 242.276 226.377 240.715 226.562C241.03 225.015 240.366 223.474 241.235 221.852C242.906 218.736 245.172 216.443 248.308 214.847C254.614 211.65 260.461 207.74 265.85 203.16C267.397 201.845 269.122 201.284 271.06 200.64C274.552 199.483 278.003 198.052 281.18 195.724C286 192.191 290.635 188.213 296.818 186.659C300.796 185.666 303.035 182.332 303.397 177.724C298.769 177.628 295.387 179.641 291.45 181.873C276.757 190.226 262.495 199.291 246.761 205.981C238.962 209.295 230 212.403 224.194 220.017C222.284 222.523 219.75 225.241 215.834 226.083C213.759 221.249 218.49 217.148 217.32 212.526" stroke="black" stroke-width="1.36936" stroke-linecap="round" stroke-linejoin="round"/>
<path d="M403.267 306.094C409.861 319.082 414.523 332.872 419.426 346.524C420.672 350.002 422.671 352.809 424.465 355.719C428.744 362.669 429.566 370.707 432.27 378.115C436.844 390.665 440.534 403.626 443.403 416.676C445.32 425.392 445.231 434.56 445.943 443.529C447.039 457.346 448.586 471.183 447.587 485.041C446.991 493.237 446.334 501.398 446.553 509.615C446.888 521.898 447.47 534.174 447.669 546.457C447.915 561.951 446.286 577.329 444.136 592.646C443.828 594.857 442.924 597.11 441.808 599.054C438.693 604.477 436.755 605.025 431.353 601.978C424.657 598.205 417.707 594.72 411.552 590.181C403.979 584.594 400.426 576.179 396.503 567.655C391.012 555.734 383.432 544.732 376.236 533.667C373.908 530.086 373.518 525.752 371.471 522.61C361.365 507.143 351.807 491.039 337.127 479.27C327.001 471.149 315.539 464.98 303.866 459.297C301.045 457.921 298.765 458.77 296.793 461.119C297.745 463.994 299.573 466.295 301.456 468.712C307.132 475.99 309.898 484.768 313.177 493.237C314.992 497.92 315.615 503.103 316.395 507.896C319.127 524.794 328.959 537.255 340.311 548.593C346.104 554.379 354.012 558.035 361.796 560.959C369.718 563.93 374.894 570.003 380.392 575.754C381.933 577.363 382.035 579.623 381.152 582.156C378.126 590.811 372.149 596.288 364.152 600.369C359.297 602.847 354.888 606.257 352.93 611.933C351.458 616.205 352.574 621.299 354.039 623.97C356.969 629.324 355.388 633.446 353.464 637.636C347.274 651.09 338.278 662.202 324.913 669.261C321.571 671.028 317.929 670.329 314.389 670.439" stroke="black" stroke-width="1.36936" stroke-linecap="round" stroke-linejoin="round"/>
<path d="M396.84 292.648C389.541 301.508 386.467 312.169 383.989 323.062C381.572 333.702 377.505 343.568 371.781 352.941C359.689 372.756 345.325 391.119 334.74 411.899C332.323 416.651 332.076 421.813 330.18 426.578" stroke="black" stroke-width="1.36936" stroke-linecap="round" stroke-linejoin="round"/>
<path d="M655.293 498.796C659.497 495.037 664.358 497.974 668.042 498.947C672.615 500.158 677.162 499.885 681.639 500.638C693.977 502.712 706.589 502.658 719.016 501.829C732.237 500.946 745.554 499.693 757.084 491.552C772.708 480.508 786.539 467.479 795.899 450.957C803.006 438.414 801.424 421.386 788.559 407.323C778.008 395.793 765.218 387.008 751.709 379.313C750.395 378.566 747.875 376.136 746.424 380.141C753.592 385.235 760.829 390.466 768.155 395.567C780.973 404.488 787.429 417.271 792.434 431.732C796.22 442.666 790.531 449.492 784.923 456.257C777.57 465.13 768.313 472.319 757.543 476.688C751.778 479.029 745.527 481.275 738.906 479.796" stroke="black" stroke-width="1.36936" stroke-linecap="round" stroke-linejoin="round"/>
<path d="M400.343 307.855C394.921 320.098 391.675 333.113 388.389 345.951C385.493 357.234 380.015 366.485 372.833 375.084C361.823 388.264 353.593 403.245 346.295 418.547C342.639 426.216 342.187 435.5 340.865 444.148C340.482 446.667 339.571 448.571 338.359 450.556" stroke="black" stroke-width="1.36936" stroke-linecap="round" stroke-linejoin="round"/>
<path d="M910.82 784.486C911.519 787.026 909.677 788.861 908.39 790.251C896.168 803.418 886.952 819.2 872.841 830.723C865.036 837.104 857.066 843.259 849.918 850.483C838.662 861.848 830.069 875.179 820.771 888.003C816.451 893.96 811.473 899.327 806.133 904.36C803.689 906.66 800.525 906.777 797.383 906.722" stroke="black" stroke-width="1.36936" stroke-linecap="round" stroke-linejoin="round"/>
<path d="M637.753 674.539C629.174 682.139 621.116 690.458 611.852 697.106C605.197 701.885 599.665 707.506 593.749 712.977C576.735 728.725 560.912 745.657 544.137 761.617C541.433 764.191 537.989 766.019 534.832 768.094C531.669 770.175 528.8 772.537 526.65 775.707C524.877 778.323 522.857 780.521 519.674 781.657C517.825 782.314 516.784 784.156 516.065 786.217C514.539 790.585 512.334 794.728 510.923 799.123C506.87 811.769 496.36 817.521 485.693 823.025C480.38 825.771 475.334 828.318 470.835 832.748C466.214 837.301 459.511 839.848 453.547 842.929C438.977 850.46 426.194 860.244 414.911 872.151C411.22 876.047 406.797 879.238 402.689 882.729C402.155 883.181 401.368 883.4 400.964 883.928C392.857 894.54 381.896 902.332 373.056 912.143C368.476 917.23 363.197 919.401 357.131 921.462C346.47 925.084 336.734 923.605 326.546 919.319C322.842 917.757 317.604 919.798 313.222 921.318C302.329 925.09 291.456 928.925 280.461 932.375C275.031 934.08 269.656 932.916 264.699 930.109" stroke="black" stroke-width="1.36936" stroke-linecap="round" stroke-linejoin="round"/>
<path d="M235.451 843.553C233.137 839.452 229.207 837.795 224.921 837.179C217.006 836.028 211.761 830.845 206.914 825.327C204.798 822.917 205.189 819.144 205.723 816.084C207.297 807.135 210.33 798.624 216.212 791.552C222.21 784.335 228.57 777.413 234.897 770.477C237.971 767.109 241.052 763.877 242.558 759.372C243.257 757.29 245.29 755.942 247.139 754.647C252.055 751.224 256.355 752.881 256.396 758.756C256.45 766.746 255.293 774.75 255.423 782.733C255.725 801.247 261.373 816.933 276.737 829.223C287.466 837.809 299.284 841.006 312.053 842.957C319.126 844.039 325.884 846.648 333.087 847.223C334.312 847.319 334.709 846.867 335.435 846.477" stroke="black" stroke-width="1.36936" stroke-linecap="round" stroke-linejoin="round"/>
<path d="M335.449 945.898C334.6 948.165 332.813 949.753 330.746 950.506C323.084 953.307 317.121 958.996 309.801 962.447C305.207 964.611 301.558 968.849 299.319 973.443C295.375 981.543 291.034 989.28 283.955 994.969C276.074 1001.3 269.474 1008.93 261.484 1015.28C251.987 1022.82 240.854 1029.72 236.678 1042.41C235.883 1044.83 233.59 1047.11 235.466 1050" stroke="black" stroke-width="1.36936" stroke-linecap="round" stroke-linejoin="round"/>
<path d="M129.036 812.559C118.889 817.954 107.982 822.048 99.7317 830.627C96.589 833.893 93.9393 837.385 91.5977 841.206C86.4078 849.675 80.4785 857.576 74.2 865.299C69.5579 871.003 65.1965 877.391 68.1611 885.682C68.4487 886.483 68.7705 887.86 67.6339 888.572C60.9994 892.734 66.1756 899.684 63.9846 905.134C63.163 907.181 68.6952 909.043 71.6872 908.297C75.3708 907.387 78.671 907.058 82.2861 908.366C83.8334 908.927 85.8738 908.859 87.4965 908.4C102.012 904.285 116.397 907.955 130.775 909.139C143.873 910.221 156.567 913.823 169.37 916.657C170.938 917.006 172.629 917.157 174.026 917.862C188.199 925.038 203.454 927.865 219.064 929.591C227.684 930.542 236.222 932.261 244.801 933.603C247.718 934.055 250.649 934.39 253.572 934.781" stroke="black" stroke-width="1.36936" stroke-linecap="round" stroke-linejoin="round"/>
<path d="M789.196 637.109C780.425 637.397 772.613 641.033 764.63 644.114C748.17 650.467 733.134 659.231 718.92 669.714C711.594 675.109 703.344 679.231 696.052 684.845C694.313 686.18 692.882 687.714 691.622 689.227C677.141 706.666 662.304 723.749 646.618 740.133C636.834 750.355 629.782 762.878 620.251 773.415C613.945 780.392 608.564 788.259 601.868 794.791C598.972 797.619 600.211 801.508 597.404 803.781C588.845 810.703 581.957 819.213 575.295 827.84C572.249 831.784 567.148 831.346 563.882 835.194C557.309 842.944 549.64 849.777 542.438 857.001C540.863 858.582 539.165 860.027 538.295 862.245C537.453 864.395 537.145 866.716 539.021 867.962C540.356 868.846 542.355 868.086 543.629 866.374C551.332 856.042 561.951 848.34 569.387 837.734C570.687 835.872 571.872 834.187 571.667 831.846" stroke="black" stroke-width="1.36936" stroke-linecap="round" stroke-linejoin="round"/>
<path d="M329.012 717.818C333.633 722.536 336.475 727.849 336.783 734.771C337.009 739.899 337.577 745.212 340.104 749.998C342.972 755.435 340.692 761.309 341.083 766.965C341.856 778.234 340.61 789.614 342.466 800.87C343 804.108 342.472 807.491 341.137 810.147C338.563 815.255 339.316 820.828 337.878 826.046C337.344 827.99 337.584 830.113 340.09 831.359C342.438 832.523 343.883 831.605 345.389 830.113C347.539 827.976 349.573 825.71 351.859 823.718C353.646 822.163 355.55 820.219 357.7 819.705C370.188 816.734 375.364 806.546 381.082 796.789C382.355 794.612 383.218 791.914 386.326 791.51" stroke="black" stroke-width="1.36936" stroke-linecap="round" stroke-linejoin="round"/>
<path d="M493.905 1026.61C481.588 1029.03 470.174 1033.51 460.705 1041.96C459.938 1042.64 457.727 1045.28 460.048 1047C461.616 1048.16 463.362 1047.83 465.313 1046.57C473.235 1041.46 482.69 1038.72 489.701 1032.32C496.206 1026.39 503.361 1021.41 510.947 1016.16C508.455 1011.04 506.093 1006.53 501.574 1003.12C496.315 999.152 490.742 1000.4 485.805 1002.27C480.28 1004.36 476.083 1004.23 471.01 1001.01C462.513 995.639 453.968 990.217 443.636 988.484C435.892 987.184 428.416 989.025 420.816 989.142C403.117 989.416 388.663 997.858 374.675 1007.38C371.991 1009.21 369.944 1011.99 367.609 1014.32" stroke="black" stroke-width="1.36936" stroke-linecap="round" stroke-linejoin="round"/>
<path d="M472.854 829.517C467.706 827.607 462.386 829.325 457.723 830.414C445.447 833.283 434.033 838.418 422.962 844.984C410.555 852.344 402.202 863.806 391.09 872.33C386.66 875.726 382.422 878.807 376.999 880.512C370.714 882.484 364.798 885.517 361.197 891.521C359.602 894.178 358.239 897.095 358.883 900.272C360.32 907.392 357.548 913.958 356.5 920.75" stroke="black" stroke-width="1.36936" stroke-linecap="round" stroke-linejoin="round"/>
<path d="M507.941 1007.31C516.13 997.967 525.462 1003.8 534.219 1005.7C541.778 1007.33 549.269 1009.74 556.41 1012.72C562.373 1015.21 566.776 1019.92 570.596 1025.37C582.229 1041.99 586.275 1061.28 591.027 1080.4C594.156 1092.97 597.073 1105.68 603.276 1117.24C606.487 1123.23 611.479 1126.46 618.455 1126.65C624.912 1126.82 631.19 1125.47 637.763 1125.74C654.298 1126.41 670.922 1126.2 687.444 1125.21C696.618 1124.67 705.861 1126.97 714.961 1124.34C716.577 1123.87 718.535 1123.92 720.192 1124.33C728.408 1126.38 736.576 1125.52 744.765 1124.27" stroke="black" stroke-width="1.36936" stroke-linecap="round" stroke-linejoin="round"/>
<path d="M162.364 968.705C164.562 971.238 163.282 973.827 162.337 976.298C158.263 987 154.046 997.592 147.89 1007.4C144.85 1012.24 143.282 1017.99 141.838 1023.66C138.764 1035.69 132.868 1046.66 128.274 1058.12C126.029 1063.72 125.59 1069.46 124.365 1075.15C123.632 1078.55 122.653 1081.66 118.504 1082.17" stroke="black" stroke-width="1.36936" stroke-linecap="round" stroke-linejoin="round"/>
<path d="M775.158 475.116C770.276 474.609 766.88 478.122 762.929 479.909C745.545 487.769 727.217 491.308 708.539 488.844C691.771 486.632 674.996 484.202 658.18 482.387C650.724 481.579 642.789 479.806 635.333 484.359C629.691 487.803 624.953 491.651 622.543 497.929" stroke="black" stroke-width="1.36936" stroke-linecap="round" stroke-linejoin="round"/>
<path d="M899.125 675.711C896.564 681.729 890.272 680.723 885.63 682.619C870.588 688.775 854.053 689.309 838.702 695.08C831.65 697.73 822.66 697.395 815.663 700.613C805.194 705.426 793.431 705.234 783.277 710.671C781.025 711.876 777.889 711.972 775.164 710.801" stroke="black" stroke-width="1.36936" stroke-linecap="round" stroke-linejoin="round"/>
<path d="M701.489 756.414C699.887 760.084 697.751 763.466 694.444 765.726C686.96 770.833 681.051 777.728 674.239 783.589C665.701 790.936 657.286 799.117 655.171 811.366C654.609 814.625 652.897 817.837 651.083 820.671C649.837 822.622 649.515 824.403 650.7 825.943C652.055 827.71 654.616 827.675 656.424 827.073C660.812 825.615 665.044 823.786 668.789 820.808C673.219 817.289 678.183 814.605 683.934 813.687C685.748 813.4 687.426 813.03 688.617 814.892" stroke="black" stroke-width="1.36936" stroke-linecap="round" stroke-linejoin="round"/>
<path d="M729.55 119.532C718.048 119.532 706.538 119.231 695.056 119.607C680.815 120.073 666.553 120.662 652.38 121.99C638.55 123.291 624.575 122.812 610.847 125.331C610.129 125.461 609.293 124.982 608.52 124.79" stroke="black" stroke-width="1.36936" stroke-linecap="round" stroke-linejoin="round"/>
<path d="M726.631 481.543C730.335 484.467 733.45 480.831 736.511 480.105C749.691 476.983 754.518 461.701 745.809 451.232C743.447 448.391 741.317 445.488 739.544 442.338C736.319 436.601 731.239 433.205 725.46 430.692C716.73 426.899 708.193 422.298 699.093 419.799C687.406 416.595 675.684 412.459 663.483 412.192C655.075 412.007 646.599 413.917 638.342 416.054C633.076 417.416 627.846 418.922 622.546 420.114C613.392 422.168 609.811 427.981 608.168 437.046C606.751 444.865 611.797 448.24 614.659 453.636C620.061 463.824 630.707 464.727 638.972 469.78C639.595 470.164 640.875 469.465 641.847 469.274" stroke="black" stroke-width="1.36936" stroke-linecap="round" stroke-linejoin="round"/>
<path d="M840.066 192.643C834.629 188.418 830.857 182.708 826.68 177.388C823.996 173.971 826.728 165.646 830.727 164.639C833.506 163.934 835.307 165.543 836.608 168.056C837.964 170.671 838.806 173.369 838.867 176.272C838.943 179.504 839.189 182.811 840.737 185.577C843.119 189.842 841.586 194.656 841.291 198.449C840.428 209.671 842.106 220.714 842.133 231.827C842.154 240.214 841.675 248.595 841.784 256.975C841.866 263.021 842.469 269.094 841.236 275.105C838.415 288.84 835.266 302.472 828.344 314.858C826.338 318.452 824.51 322.081 823.031 325.956C819.655 334.789 812.754 341.437 807.906 349.379" stroke="black" stroke-width="1.36936" stroke-linecap="round" stroke-linejoin="round"/>
<path d="M740.076 116.609C743.547 110.317 750.798 108.311 755.303 103.182C756.296 102.053 757.706 101.299 758.768 100.218C762.855 96.0753 762.752 94.4458 758.199 89.119C757.809 89.119 757.419 89.1464 757.029 89.119C748.956 88.5438 742.267 93.2202 734.824 95.0414C731.606 95.8288 728.56 95.3359 725.451 94.9524C719.714 94.2472 714.147 96.3492 708.492 96.0753C696.982 95.5139 685.5 94.3431 673.984 93.9049C668.301 93.6858 662.543 94.3362 657.031 96.1438" stroke="black" stroke-width="1.36936" stroke-linecap="round" stroke-linejoin="round"/>
<path d="M401.518 483.301C398.861 479.81 396.821 476.407 395.883 471.676C394.698 465.712 390.152 460.502 388.269 454.579C386.742 449.766 383.887 446.164 381.046 442.364C374.904 434.155 372.138 424.46 369.488 414.834C368.14 409.918 369.283 408.569 373.788 405.262C381.21 412.677 386.893 420.749 388.297 431.8C389.084 438.01 393.397 443.398 395.855 449.293C399.594 458.27 403.318 467.67 403.859 476.893C404.441 486.786 408.467 497.707 401.511 507.272" stroke="black" stroke-width="1.36936" stroke-linecap="round" stroke-linejoin="round"/>
<path d="M733.647 79.1843C726.505 71.0503 716.098 69.2975 706.698 65.8809C695.27 61.7318 682.727 62.5945 670.978 59.0547C667.753 58.0824 663.46 60.0817 659.338 58.8698C654.464 57.4389 649.048 57.7675 644.241 56.1927C639.976 54.796 636.669 56.1722 633.074 57.5484" stroke="black" stroke-width="1.36936" stroke-linecap="round" stroke-linejoin="round"/>
<path d="M816.677 177.438C819.224 193.151 819.552 208.796 814.814 224.187C814.363 225.646 814.041 227.186 814.438 228.282C816.807 234.868 815.561 241.53 813.548 247.549C809.611 259.305 808.474 271.663 804.127 283.405C798.704 298.057 791.576 311.518 782.682 324.171C781.34 326.074 780.307 327.766 780.423 330.08" stroke="black" stroke-width="1.36936" stroke-linecap="round" stroke-linejoin="round"/>
<path d="M375.797 127.723C374.503 132.488 370.512 135.329 367.492 138.732C362.905 143.902 362.131 150.433 360.967 156.452C360.2 160.416 358.804 164.421 358.721 168.66C358.612 174.322 359.906 179.621 361.077 185.058C362.651 192.377 362.85 200.038 364.89 207.2C366.629 213.321 368.683 219.463 370.765 225.508C374.332 235.847 379.399 246.069 378.721 257.551" stroke="black" stroke-width="1.36936" stroke-linecap="round" stroke-linejoin="round"/>
<path d="M368.775 281.536C372.533 274.86 368.932 269.205 365.091 264.727C358.778 257.367 350.836 251.691 341.887 247.589C335.787 244.796 329.727 241.886 323.764 238.812C314.459 234.019 304.428 234.533 294.521 234.909C291.118 235.039 288.804 238.278 286.723 241.468C293.487 245.522 301.347 246.302 308.619 248.548C315.705 250.746 322.114 253.464 328.604 257.25C341.99 265.062 354.643 274.018 368.076 281.734C371.712 283.823 374.567 287.664 378.127 290.306C385.974 296.14 387.11 295.962 392.163 287.958" stroke="black" stroke-width="1.36936" stroke-linecap="round" stroke-linejoin="round"/>
<path d="M51.8538 485.055C47.5814 493.326 45.2877 502.144 44.2059 511.367C43.4459 517.858 42.6243 524.294 40.9947 530.736C38.7969 539.446 38.2081 548.586 37.2838 557.576C36.2499 567.613 34.771 577.527 32.8265 587.448C31.5804 593.795 32.8402 600.656 33.1689 607.277C33.655 617.225 33.5934 627.276 35.0997 637.074C36.6333 647.05 34.7573 657.06 36.5786 666.946C36.8867 668.61 36.6333 670.589 36.0034 672.171C30.882 685.07 30.7177 698.353 31.8201 711.978C32.6074 721.762 31.3202 731.525 29.1567 741.234C24.5419 761.939 22.5221 782.842 27.9037 803.779C31.7584 818.781 32.4363 834.289 35.5516 849.386C36.9551 856.185 36.6881 863.086 42.7475 869.036C48.2455 874.432 43.9183 880.909 35.4762 881.58C32.7307 881.799 29.7934 880.765 27.2738 882.702C29.3141 889.132 37.318 888.933 40.1526 894.431" stroke="black" stroke-width="1.36936" stroke-linecap="round" stroke-linejoin="round"/>
<path d="M530.162 655.238C517.495 664.79 505.027 674.635 492.1 683.817C477.14 694.45 463.885 707.082 450.287 719.242C444.043 724.829 438.004 731.094 432.882 738.125C429.151 743.247 423.509 746.985 418.888 751.552C411.548 758.803 403.599 765.478 396.204 772.729C393.643 775.242 390.59 777.399 387.44 779.138C383.887 781.096 379.409 778.138 379.354 773.962C379.306 770.264 379.272 766.471 379.97 762.87C381.607 754.435 381.223 746.109 379.97 737.694C379.635 735.428 379.423 732.956 380.477 730.69" stroke="black" stroke-width="1.36936" stroke-linecap="round" stroke-linejoin="round"/>
<path d="M539.512 303.76C543.031 307.395 547.29 309.34 552.37 309.655C554.335 309.778 556.766 309.771 558.142 310.88C566.598 317.714 577.792 319.014 586.481 325.738C592.773 330.613 600.147 334.659 608.5 335.967C615.785 337.104 622.919 336.015 630.15 335.467C637.578 334.906 644.706 337.117 651.806 339.336C657.29 341.047 663.397 340.575 668.69 343.033C672.867 344.971 678.803 344.368 680.069 351.092C680.425 352.974 684.041 353.283 686.273 354.056C693.27 356.494 693.119 356.829 689.901 363.471C687.909 367.579 684.479 370.536 682.473 374.521" stroke="black" stroke-width="1.36936" stroke-linecap="round" stroke-linejoin="round"/>
<path d="M543.608 675.123C542.567 692.856 539.787 710.185 532.53 726.604C526.6 740.024 523.951 754.361 521.41 768.698C520.692 772.765 518.918 776.695 519.63 780.974" stroke="black" stroke-width="1.36936" stroke-linecap="round" stroke-linejoin="round"/>
<path d="M136.634 356.39C140.16 357.369 142.009 354.836 144.254 352.905C152.58 345.757 161.063 338.883 171.108 334.117C182.644 328.647 195.099 326.798 207.395 324.265C209.429 323.847 209.607 324.182 212.846 328.592C205.506 335.124 196.235 338.129 187.444 341.628C171.087 348.139 155.853 356.821 140.14 364.579C137.51 365.873 135.936 368.221 134.34 370.467C132.553 372.98 130.766 375.136 127.281 374.527" stroke="black" stroke-width="1.36936" stroke-linecap="round" stroke-linejoin="round"/>
<path d="M609.686 1125.44C608.85 1126.83 607.481 1126.81 606.18 1126.59C594.753 1124.66 583.031 1123.89 571.707 1124.66C555.692 1125.76 539.705 1124.86 523.717 1125.73C515.255 1126.19 506.587 1125.53 498.008 1125.44" stroke="black" stroke-width="1.36936" stroke-linecap="round" stroke-linejoin="round"/>
<path d="M737.741 79.7676C724.876 80.1578 711.813 79.2746 699.201 81.267C684.11 83.6497 668.828 85.827 654.211 90.5581C652.341 91.1675 649.527 90.0994 648.281 92.6327" stroke="black" stroke-width="1.36936" stroke-linecap="round" stroke-linejoin="round"/>
<path d="M85.7656 520.728C92.2564 519.68 94.3378 513.498 97.8434 509.444C106.977 498.866 115.85 488.185 126.49 478.969C129.25 476.573 131.673 472.814 133.782 469.308C136.083 465.481 138.815 462.051 143.005 459.778C145.504 458.422 147.311 455.813 148.359 452.897C153.391 438.833 165.64 433.5 178.197 429.008C190.453 424.626 203.222 424.448 216.176 425.243C228.412 425.996 240.729 425.304 253.005 425.455C257.298 425.51 261.584 426.139 265.87 426.578C278.256 427.851 291.039 427.523 302.638 432.589C311.148 436.307 319.823 439.86 327.396 445.714C331.791 449.117 337.317 451.158 342.493 453.431C354.447 458.675 365.888 465.317 375.487 473.718C384.888 481.941 392.974 491.855 399.075 503.529C403.032 511.101 399.972 517.113 399.451 523.631C399.164 527.198 397.349 530.868 397.425 534.771C397.575 542.24 393.358 548.026 389.838 554.072" stroke="black" stroke-width="1.36936" stroke-linecap="round" stroke-linejoin="round"/>
<path d="M585.129 1009.65C585.909 1010.82 586.567 1012.1 587.491 1013.14C590.634 1016.67 594.085 1019.74 596.508 1024.12C598.877 1028.42 603.225 1031.46 608.47 1033.2C615.494 1035.54 621.485 1039.57 626.223 1045.79C630.414 1051.29 636.891 1054.89 643.183 1057.17C646.36 1058.32 651.152 1055.05 654.788 1052.44C658.903 1049.47 658.485 1046.47 657.965 1041.78C656.527 1028.87 659.738 1020.25 676.376 1013.2C686.989 1008.71 697.663 1004.38 707.953 999.161C709.829 998.209 710.418 996.915 710.268 995.025" stroke="black" stroke-width="1.36936" stroke-linecap="round" stroke-linejoin="round"/>
<path d="M467.882 717.229C461.103 719.18 455.893 722.946 451.709 728.854C440.063 745.3 431.203 763.184 423.028 781.499C422.33 783.06 421.152 784.806 420.433 786.333C418.557 790.311 416.859 794.2 416.236 799.041C414.99 808.797 410.273 817.787 402.098 824.251" stroke="black" stroke-width="1.36936" stroke-linecap="round" stroke-linejoin="round"/>
<path d="M440.112 1019C435.579 1019.95 432.3 1021.8 429.965 1026.5C426.446 1033.59 419.62 1038.79 417.75 1047.04C417.511 1048.09 416.114 1049.46 416.278 1050.56C416.484 1051.93 414.06 1053.66 416.723 1054.67C418.654 1055.41 419.893 1054.93 420.879 1052.95C421.735 1051.23 423.214 1049.84 424.31 1048.22C425.734 1046.12 426.549 1043.03 428.507 1041.96C437.052 1037.29 437.818 1028.63 440.961 1020.85C443.713 1014.03 448.034 1007.96 449.061 1000.3C449.567 996.517 454.6 996.736 457.072 994.422" stroke="black" stroke-width="1.36936" stroke-linecap="round" stroke-linejoin="round"/>
<path d="M388.07 779.809C386.926 783.828 386.194 788.032 386.988 792.071C389.665 805.655 384.777 816.199 374.616 825.312C377.108 826.983 376.649 828.873 374.684 831.324C369.495 837.787 363.463 843.456 356.41 847.51C342.457 855.527 330.002 865.147 319.657 877.478C316.021 881.812 310.715 883.852 306.08 886.625C301.568 889.323 297.453 892.651 292.749 895.006C290.291 896.238 290.483 899.121 288.75 900.949C282.294 907.761 275.55 914.451 270.148 922.057C265.601 928.459 259.241 932.273 253.585 937.134C247.505 942.358 241.747 947.986 235.366 952.8C230.916 956.155 225.63 957.989 219.653 957.113C216.996 956.723 214.244 956.778 211.436 958.078C202.228 962.351 192.238 963.001 182.29 964.357C175.689 965.261 168.918 966.192 162.297 967.842C154.218 969.855 145.721 970.095 137.224 970.17C129.898 970.231 122.791 969.143 115.581 968.828C108.16 968.499 101.669 965.898 95.089 962.933C90.0771 960.68 84.6339 959.701 79.759 956.675C77.2394 955.107 75.2675 953.464 74.1447 951.122C69.078 940.523 61.1426 932.444 52.502 924.762C46.4905 919.415 41.506 913.136 41.1979 904.379C41.1774 903.756 40.6844 902.818 40.7666 902.037C41.0336 899.641 37.4253 897.238 40.2188 895.109C43.1424 892.883 45.8058 895.629 48.3049 896.834C53.0908 899.141 57.6918 901.839 62.3682 904.372" stroke="black" stroke-width="1.36936" stroke-linecap="round" stroke-linejoin="round"/>
<path d="M669.909 651.732C663.87 655.628 657.865 659.593 651.765 663.406C647.841 665.857 643.898 668.206 641.227 672.184C639.94 674.101 638.112 674.738 635.996 673.368C623.802 665.474 609.753 664.844 596.258 665.652C586.795 666.22 576.991 667.028 567.597 669.349C564.947 670.006 562.51 670.027 559.977 669.281" stroke="black" stroke-width="1.36936" stroke-linecap="round" stroke-linejoin="round"/>
<path d="M578.691 437.102C569.324 447.707 568.373 460.757 568.256 473.944C568.229 477.272 567.75 479.73 564.682 481.585C551.769 489.397 539.774 498.462 529.627 509.664C518.432 522.022 508.525 535.004 511.9 553.504C512.756 558.194 510.278 562.151 507.82 566.602C503.335 574.722 496.742 580.193 490.395 586.231" stroke="black" stroke-width="1.36936" stroke-linecap="round" stroke-linejoin="round"/>
<path d="M528.993 130.062C527.966 133.541 524.933 135.403 522.509 137.608C512.184 146.967 504.023 158.216 498.49 170.637C495.793 176.689 491.39 183.283 493.547 191.567C494.752 196.202 491.055 201.269 487.83 205.836C489.576 207.76 491.726 209.492 492.253 212.512C492.835 215.832 493.54 218.9 490.398 221.296C488.405 222.816 487.433 225.027 486.016 227.218C491.431 232.792 493.78 239.07 493.609 247.04C493.458 254.051 497.676 259.72 504.44 262.822" stroke="black" stroke-width="1.36936" stroke-linecap="round" stroke-linejoin="round"/>
<path d="M494.492 152.288C491.178 148.775 487.029 145.742 484.729 141.661C479.943 133.165 472.5 127.358 465.88 120.669C459.594 114.315 451.015 112.124 443.518 108.03C439.732 105.962 436.007 103.538 431.906 102.039C428.407 100.759 425.162 102.724 425.579 106.072C426.832 116 426.415 125.962 426.73 135.91C426.88 140.689 429.639 144.749 432.002 148.727C433.686 151.569 436.589 152.746 440.108 152.315C449.762 151.144 456.041 156.745 461.737 163.393" stroke="black" stroke-width="1.36936" stroke-linecap="round" stroke-linejoin="round"/>
<path d="M141.312 971.637C137.245 979.798 130.96 986.638 127.283 995.032C124.578 1001.2 121.511 1007.2 119.573 1013.72C118.772 1016.41 117.622 1019.11 115.623 1021.39C107.633 1030.45 106.729 1042.08 107.311 1052.91C107.756 1061.23 111.919 1069.69 115.842 1077.36C118.628 1082.81 119.204 1088.87 119.135 1093.87C119.005 1103.55 121.442 1112.32 123.675 1121.38C125.058 1127 129.344 1129.74 133.65 1128.69C147.563 1125.31 161.441 1129.5 175.224 1127.75C181.297 1126.98 187.473 1127.77 193.327 1127.36C210.909 1126.11 228.485 1127.54 245.972 1126.4C260.015 1125.48 274.044 1127.61 288.134 1125.15C296.049 1123.77 304.498 1125.85 312.632 1125.31C323.649 1124.57 334.494 1126.11 345.394 1126.29C352.09 1126.39 358.992 1124.09 365.845 1124.94C382.956 1127.04 400.367 1125.29 417.361 1129.33C420.503 1130.07 424.317 1127.94 427.836 1127.22C432.896 1126.18 437.757 1125.94 443.091 1126.92C449.691 1128.13 456.771 1127.88 463.474 1126.98C468.239 1126.34 472.799 1125.87 477.544 1126.59C482.48 1127.35 487.287 1125.83 492.155 1125.45" stroke="black" stroke-width="1.36936" stroke-linecap="round" stroke-linejoin="round"/>
<path d="M727.213 373.939C722.776 380.773 715.122 382.758 708.48 386.175C695.862 392.665 681.826 394.007 668.132 395.281C656.547 396.356 644.737 395.034 633.049 393.439C626.832 392.59 620.561 391.679 614.344 391.139C605.279 390.351 597.199 386.654 588.634 384.463C585.457 383.648 582.13 383.142 579.863 380.369" stroke="black" stroke-width="1.36936" stroke-linecap="round" stroke-linejoin="round"/>
<path d="M568.751 478.62C575.454 480.092 582.191 478.099 587.908 475.915C599.123 471.629 600.725 454.588 592.078 445.933C588.572 442.421 584.492 439.422 580.411 436.567C575.584 433.198 573.01 428.823 571.565 423.092C567.786 408.125 571.195 394.384 577.501 380.944C577.727 380.464 577.529 379.786 577.529 378.821C568.47 372.645 558.741 367.585 547.718 365.114C543.26 364.114 539.173 362.259 534.216 363.197C530.519 363.895 529.423 365.155 528.889 368.66C527.711 376.425 527.78 384.572 523.145 391.488" stroke="black" stroke-width="1.36936" stroke-linecap="round" stroke-linejoin="round"/>
<path d="M847.666 933.615C841.271 932.636 835.246 932.397 829.967 937.545C828.371 939.107 826.002 940.62 822.504 940.442C818.69 940.25 814.472 942.366 810.796 944.673C798.246 952.554 785.743 960.606 773.693 969.109C766.607 974.107 758.664 978.681 752.913 985.637C752.755 985.829 752.16 985.665 751.77 985.665" stroke="black" stroke-width="1.36936" stroke-linecap="round" stroke-linejoin="round"/>
<path d="M630.154 103.161C621.534 102.428 613.091 104.708 605.731 108.125C588.47 116.142 572.312 126.104 561.652 142.865C559.776 145.816 556.674 147.993 554.141 150.527" stroke="black" stroke-width="1.36936" stroke-linecap="round" stroke-linejoin="round"/>
<path d="M597.404 129.48C595.131 133.342 592.735 137.45 589.12 139.86C582.074 144.564 577.734 151.418 573.639 158.264C570.894 162.845 570.182 168.767 569.141 174.005C567.97 179.893 565.779 185.33 563.821 190.8C562.541 194.381 561.644 197.716 561.733 201.42" stroke="black" stroke-width="1.36936" stroke-linecap="round" stroke-linejoin="round"/>
<path d="M910.821 211.938C906.405 212.507 902.632 211.26 899.086 208.481C893.088 203.77 886.755 199.532 882.119 193.26C879.08 189.139 874.581 186.872 870.103 184.928C865.81 187.05 867.858 189.789 869.35 192.021C874.944 200.408 879.771 209.145 884.153 218.258C887.665 225.57 887.303 233.136 888.576 240.599C890.39 251.246 889.268 262.064 890.288 272.765C890.692 277.051 889.035 281.248 888.918 285.617C888.864 287.616 889.37 289.156 889.767 290.889" stroke="black" stroke-width="1.36936" stroke-linecap="round" stroke-linejoin="round"/>
<path d="M842.406 199.072C849.897 205.638 855.107 213.759 860.235 222.29C865.624 231.238 867.24 240.961 869.068 250.581C871.471 263.234 871.519 276.167 870.629 289.149C869.636 303.664 864.008 316.858 860.482 330.647C859.29 335.296 855.662 339.411 857.606 344.697" stroke="black" stroke-width="1.36936" stroke-linecap="round" stroke-linejoin="round"/>
<path d="M480.747 768.697C479.706 766.513 481.966 766.068 482.815 765.883C489.203 764.507 492.927 759.646 496.741 755.175C501.39 749.725 500.698 744.158 495.68 738.845C494.44 737.538 493.537 735.908 492.749 734.799C482.842 737.058 475.632 741.735 473.202 750.088C471.401 756.284 473.01 763.323 480.158 766.945" stroke="black" stroke-width="1.36936" stroke-linecap="round" stroke-linejoin="round"/>
<path d="M128.448 348.202C131.639 345.443 134.911 342.916 140.505 343.813C138.869 351.242 136.479 357.856 131.248 362.69C127.688 365.976 125.223 368.913 126.634 373.953C126.873 374.808 126.428 375.931 126.093 376.856C121.293 390.193 121.745 403.312 126.545 416.683C129.16 423.975 130.173 431.842 131.988 439.428C132.371 441.037 133.131 442.557 133.713 444.112" stroke="black" stroke-width="1.36936" stroke-linecap="round" stroke-linejoin="round"/>
<path d="M668.159 763.433C663.921 762.372 660.573 764.679 657.047 766.357C642.039 773.491 628.694 783.036 616.014 793.723C611.406 797.612 606.237 801.378 599.746 802.035" stroke="black" stroke-width="1.36936" stroke-linecap="round" stroke-linejoin="round"/>
<path d="M340.705 604.359C350.831 619.771 347.791 630.021 337.528 645.125C330.763 655.087 321.362 663.187 312.051 671.027" stroke="black" stroke-width="1.36936" stroke-linecap="round" stroke-linejoin="round"/>
<path d="M727.802 479.207C728.596 477.653 729.39 476.099 730.342 474.23C727.898 471.217 724.474 469.814 720.777 469.314C711.938 468.116 703.523 464.973 694.485 464.364C687.981 463.925 681.134 462.447 675.314 459.619C669.741 456.914 663.798 456.209 658.142 454.292C652.891 452.512 647.715 450.102 641.868 449.732C638.821 449.54 637.273 450.061 635.322 452.204C633.35 454.367 634.24 456.175 635.507 457.476C637.541 459.55 638.157 462.269 639.396 464.638C642.84 471.21 648.858 473.881 655.322 474.962C669.672 477.366 684.147 478.995 698.566 480.953C702.66 481.508 706.768 482.008 710.842 482.727C716.587 483.74 722.105 483.535 727.22 480.365" stroke="black" stroke-width="1.36936" stroke-linecap="round" stroke-linejoin="round"/>
<path d="M902.049 674.539C886.883 675.984 872.217 679.469 857.476 683.413C849.424 685.569 841.236 689.13 832.465 688.582C831.883 688.548 831.205 688.383 830.726 688.602C815.903 695.442 799.532 697.606 784.585 703.946C781.58 705.22 777.074 705.541 776.328 710.218" stroke="black" stroke-width="1.36936" stroke-linecap="round" stroke-linejoin="round"/>
<path d="M506.183 566.93C504.587 567.162 503.088 566.697 501.424 567.998C496.577 571.791 492.879 576.632 488.703 581.027C486.156 583.711 487.628 587.21 491.565 587.936C516.713 592.55 527.456 611.632 536.623 632.406C537.63 634.692 536.671 635.884 535.528 637.76C531.954 643.6 528.825 649.837 531.406 656.958C532.433 659.786 533.31 662.525 531.81 665.126C530.461 667.468 532.235 668.858 533.166 669.762C538.814 675.246 554.788 674.801 559.813 668.563C562.669 665.01 565.996 661.963 569.467 659.539C575.486 655.335 578.82 648.954 583.962 644.148C586.071 642.176 586.571 639.827 586.29 637.109C585.681 631.07 585.112 625.025 584.53 618.979" stroke="black" stroke-width="1.36936" stroke-linecap="round" stroke-linejoin="round"/>
<path d="M320.238 685.062C315.808 686.315 314.631 690.834 313.501 693.936C309.646 704.521 303.217 713.798 299.04 724.185C297.945 726.917 296.589 729.607 295.706 732.442C294.056 737.741 290.995 740.234 283.971 741.295C284.183 740.035 283.505 738.864 284.566 737.693C295.528 725.657 292.906 711.717 289.701 697.955C288.339 692.121 285.545 686.616 283.402 680.961" stroke="black" stroke-width="1.36936" stroke-linecap="round" stroke-linejoin="round"/>
<path d="M75.8207 955.84C68.7754 963.495 75.3141 970.197 77.7584 976.825C80.0657 983.076 83.585 988.061 80.3944 995.805C78.1829 1001.18 78.1418 1008.7 83.3454 1014.39C86.3237 1017.65 88.9392 1021.37 91.4109 1024.99C94.4851 1029.47 93.6224 1035.32 93.9099 1040.64C94.3961 1049.55 99.853 1056.32 107.391 1057.01" stroke="black" stroke-width="1.36936" stroke-linecap="round" stroke-linejoin="round"/>
<path d="M340.121 603.189C348.46 595.425 359.292 591.105 368.46 583.984C367.33 582.628 366.728 581.553 366.461 581.629C357.457 584.265 348.187 586.326 342.374 594.939C340.922 597.089 340.635 599.109 340.71 601.43" stroke="black" stroke-width="1.36936" stroke-linecap="round" stroke-linejoin="round"/>
<path d="M437.767 870.453C434.159 877.006 428.661 882.312 425.416 889.131C424.745 890.542 423.314 891.76 421.951 892.637C411.838 899.107 405.546 910.069 394.585 915.656C391.996 916.977 388.936 918.997 388.066 922.502" stroke="black" stroke-width="1.36936" stroke-linecap="round" stroke-linejoin="round"/>
<path d="M396.84 544.705C397.422 545.287 398.62 546.095 398.504 546.424C396.388 552.326 400.975 556.899 401.557 562.24C401.687 563.438 401.968 564.896 402.742 565.704C409.513 572.784 413.882 582 422.536 587.45C429.136 591.606 435.983 593.331 443.624 591.489" stroke="black" stroke-width="1.36936" stroke-linecap="round" stroke-linejoin="round"/>
<path d="M321.996 682.729C324.92 680.394 327.22 677.526 330.657 675.52C338.127 671.165 342.208 670.877 348.89 676.293C352.8 679.463 355.573 683.647 358.866 687.378C368.671 698.47 375.723 711.02 379.215 725.439C379.557 726.843 380.146 728.945 380.605 729.356C389.704 737.401 390.361 748.65 392.018 759.365C392.812 764.507 392.155 769.868 392.155 775.133" stroke="black" stroke-width="1.36936" stroke-linecap="round" stroke-linejoin="round"/>
<path d="M825.448 941.223C825.256 942.585 825.523 944.317 824.791 945.262C817.437 954.697 809.755 963.892 799.088 969.801C795.534 971.766 794.761 975.539 792.227 978.182C782.293 988.534 769.763 994.511 757.049 1000.34C751.818 1002.73 746.463 1004.96 741.828 1008.49" stroke="black" stroke-width="1.36936" stroke-linecap="round" stroke-linejoin="round"/>
<path d="M903.222 241.77C900.689 252.882 898.046 263.974 895.664 275.113C894.397 281.036 893.37 286.835 889.926 292.162C887.215 296.352 885.345 301.275 884.031 306.129C880.416 319.467 874.103 330.894 863.634 340.213C860.971 342.582 858.349 344.567 855.281 346.163" stroke="black" stroke-width="1.36936" stroke-linecap="round" stroke-linejoin="round"/>
<path d="M343.047 437.684C354.433 443.907 363.3 453.691 375.056 459.621C381.396 462.818 385.99 469.302 392.138 473.396C393.268 474.15 394.179 475.17 395.671 475.115" stroke="black" stroke-width="1.36936" stroke-linecap="round" stroke-linejoin="round"/>
<path d="M324.331 710.801C320.689 719.325 316.396 727.527 311.425 735.34C308.057 740.632 307.94 747.164 304.318 752.436C302.785 754.668 301.47 757.167 299.751 759.324C296.711 763.138 293.76 767.02 290.816 770.895C286.325 776.811 284.791 783.603 282.908 790.36C282.47 791.935 283.066 793.873 283.442 795.591C283.798 797.207 285.387 798.344 285.181 800.281C284.442 807.32 287.345 811.798 294.986 813.037C297.389 809.319 300.21 805.526 298.074 800.254C297.67 799.248 297.8 797.892 298.047 796.776C300.258 786.821 296.91 776.886 297.951 766.938C298.047 766.013 297.239 764.993 296.848 764.021" stroke="black" stroke-width="1.36936" stroke-linecap="round" stroke-linejoin="round"/>
<path d="M678.681 349.373C672.8 353.139 666.405 354.68 659.407 355.433C651.089 356.33 643.345 360.116 635.43 362.875C634.321 363.265 632.862 364.21 632.582 365.189C630.644 372.05 625.105 370.016 620.805 369.64C617.889 369.386 616.855 366.415 617.875 363.409C619.778 357.822 623.106 353.529 628.344 350.462C634.636 346.772 640.784 343.04 648.261 342.287C649.281 342.184 650.219 341.185 651.191 340.596" stroke="black" stroke-width="1.36936" stroke-linecap="round" stroke-linejoin="round"/>
<path d="M470.519 999.119C473.429 991.814 472.943 991.41 466.493 987.891C461.495 985.166 457.086 981.359 452.389 978.079C451.06 977.155 451.368 975.854 451.19 974.56C450.102 966.734 444.234 960.887 436.62 961.346C433.416 961.537 430.397 960.818 427.247 960.989C422.667 961.243 418.579 961.886 414.882 965.084C412.602 967.049 409.85 969.295 406.207 968.117" stroke="black" stroke-width="1.36936" stroke-linecap="round" stroke-linejoin="round"/>
<path d="M511.445 563.424C525.153 562.747 534.19 570.867 543.084 579.74C551.814 588.449 559.359 598.158 567.568 607.299C568.869 608.743 570.314 609.859 572.258 610.215" stroke="black" stroke-width="1.36936" stroke-linecap="round" stroke-linejoin="round"/>
<path d="M655.875 630.681C670.671 621.212 686.74 619.761 703.186 624.43C711.978 626.929 720.351 626.361 728.964 624.821C729.567 624.711 730.169 624.211 730.717 624.28C744.541 626.101 757.214 620 770.511 618.652C780.131 617.679 789.997 617.885 799.74 619.46C804.341 620.206 809.202 618.987 813.755 620.747C817.884 622.342 822.314 623.698 821.944 629.511" stroke="black" stroke-width="1.36936" stroke-linecap="round" stroke-linejoin="round"/>
<path d="M807.906 372.18C797.677 366.641 787.646 365.84 776.814 371.392C770.283 374.741 762.799 376.343 755.281 376.856" stroke="black" stroke-width="1.36936" stroke-linecap="round" stroke-linejoin="round"/>
<path d="M222.009 991.518C222.796 996.673 225.083 1001.41 225.665 1006.7C226.425 1013.57 224.665 1019.27 220.934 1024.92C217.736 1029.76 216.216 1035.3 217.914 1041.23" stroke="black" stroke-width="1.36936" stroke-linecap="round" stroke-linejoin="round"/>
<path d="M824.281 140.004C828.054 144.16 832.285 146.721 838.297 147.234C845.246 147.823 852.004 149.049 858.81 146.529C859.734 146.187 861.055 146.193 862.322 146.967C872.729 153.294 882.739 160.311 890.77 169.397C897.111 176.566 899.527 186.213 903.19 194.99C905.929 201.55 908.264 208.294 913.153 213.696" stroke="black" stroke-width="1.36936" stroke-linecap="round" stroke-linejoin="round"/>
<path d="M700.317 756.415C692.614 754.758 685.877 755.539 680.975 762.817C674.915 771.807 665.645 777.969 659.325 786.781C658.812 787.499 657.435 787.917 656.463 787.924C654.765 787.931 654.395 786.322 654.19 785.062C654.046 784.145 654.211 782.885 654.758 782.186C660.14 775.305 665.61 768.493 671.108 761.701C671.485 761.235 672.252 761.091 672.834 760.804" stroke="black" stroke-width="1.36936" stroke-linecap="round" stroke-linejoin="round"/>
<path d="M291 895.021C284.626 892.707 279.292 896.226 274.752 899.3C262.51 907.605 251.864 917.773 244.236 930.707C243.928 931.227 243.832 931.871 243.641 932.453" stroke="black" stroke-width="1.36936" stroke-linecap="round" stroke-linejoin="round"/>
<path d="M835.975 148.195C835.598 149.743 836.851 150.646 837.762 151.05C847.923 155.617 857.351 162.108 869.312 161.807C873.345 161.704 877.419 163.566 881.588 162.231" stroke="black" stroke-width="1.36936" stroke-linecap="round" stroke-linejoin="round"/>
<path d="M234.873 1050C228.553 1054.35 225.424 1060.99 221.905 1067.49C218.632 1073.54 217.16 1080.28 213.86 1086.28C212.36 1089.01 212.107 1092.02 213.237 1095.03" stroke="black" stroke-width="1.36936" stroke-linecap="round" stroke-linejoin="round"/>
<path d="M156.517 687.987C152.82 683.714 148.691 687.726 144.816 687.672C142.817 687.644 140.585 688.007 138.394 688.117C126.967 688.706 116.505 691.924 108.528 700.818C108.453 700.907 107.789 700.462 107.398 700.27" stroke="black" stroke-width="1.36936" stroke-linecap="round" stroke-linejoin="round"/>
<path d="M642.426 54.0368C647.609 51.5788 653.175 51.2091 658.749 50.2505C671.1 48.1212 683.007 51.346 695.023 52.1539C702.109 52.6264 709.606 54.5229 716.761 56.7276C720.876 58.0011 725.388 58.3845 729.551 59.884" stroke="black" stroke-width="1.36936" stroke-linecap="round" stroke-linejoin="round"/>
<path d="M500.925 262.234C499.658 266.76 501.37 270.464 506.785 273.908C518.473 281.323 528.764 290.614 540.102 298.495" stroke="black" stroke-width="1.36936" stroke-linecap="round" stroke-linejoin="round"/>
<path d="M236.039 1050.59C236.833 1052.34 236.826 1054.09 236.039 1055.85C230.897 1067.31 226.925 1079.34 219.64 1089.75C218.86 1090.86 217.833 1091.87 216.724 1092.67C211.219 1096.6 210.664 1102.45 210.274 1108.48C209.904 1114.17 212.273 1119.74 210.89 1125.44" stroke="black" stroke-width="1.36936" stroke-linecap="round" stroke-linejoin="round"/>
<path d="M706.162 22.4539C701.294 20.1465 695.741 20.8723 690.982 21.1119C680.308 21.6459 669.922 19.2975 659.384 19.5851C643.315 20.0233 629.211 24.8297 619.584 38.8108C619.05 39.5845 618.817 40.0022 619.618 40.591" stroke="black" stroke-width="1.36936" stroke-linecap="round" stroke-linejoin="round"/>
<path d="M628.391 490.902C631.123 492.45 634.245 493.326 637.128 492.539C642.18 491.163 646.432 493.408 650.547 495.147C656.805 497.797 659.4 506.732 655.285 513.702C650.438 521.905 645.549 530.08 640.674 538.268C639.188 540.761 638.826 542.767 641.797 544.773C646.261 547.785 646.679 556.344 642.434 561.664C636.532 569.052 627.474 571.982 620.195 577.425C617.073 579.76 612.767 580.513 610.863 584.471" stroke="black" stroke-width="1.36936" stroke-linecap="round" stroke-linejoin="round"/>
<path d="M157.1 689.746C148.706 694.717 139.956 698.661 130.213 700.345C123.394 701.523 116.615 702.098 109.734 701.44" stroke="black" stroke-width="1.36936" stroke-linecap="round" stroke-linejoin="round"/>
<path d="M795.042 972.219C787.504 972.369 780.904 975.45 775.276 979.969C771.086 983.338 766.046 984.618 761.596 987.234C759.686 988.357 756.468 987.788 754.105 986.255" stroke="black" stroke-width="1.36936" stroke-linecap="round" stroke-linejoin="round"/>
<path d="M581.613 424.234C589.932 435.881 599.456 446.439 610.308 455.764C612.218 457.407 614.293 459.317 617.285 458.735" stroke="black" stroke-width="1.36936" stroke-linecap="round" stroke-linejoin="round"/>
<path d="M583.367 383.881C579.684 394.288 577.301 404.873 578.006 416.054C578.191 418.95 580.197 420.669 581.026 423.065" stroke="black" stroke-width="1.36936" stroke-linecap="round" stroke-linejoin="round"/>
<path d="M583.364 617.808C583.583 614.145 583.125 610.202 579.215 609.257C576.271 608.545 573.217 609.544 570.931 613.029C565.248 621.684 556.491 627.435 548.706 633.994C546.036 636.247 542.263 639.177 537.758 637.109" stroke="black" stroke-width="1.36936" stroke-linecap="round" stroke-linejoin="round"/>
<path d="M519.05 774.542C507.506 775.159 496.209 773.83 485.11 770.537C483.727 770.126 482.837 769.202 481.625 768.695" stroke="black" stroke-width="1.36936" stroke-linecap="round" stroke-linejoin="round"/>
<path d="M740.662 1007.89C737.164 1002.62 732.042 1000.03 726.058 998.468C720.019 996.893 714.138 994.887 707.989 993.518C700.28 991.806 693.474 994.689 686.278 994.839C677.973 995.017 670.106 998.536 661.705 997.496C661.246 997.441 660.069 998.139 659.398 997.9C650.915 994.86 642.657 997.633 634.215 998.269C622.439 999.16 611.265 1002.64 599.721 1004.27C591.553 1005.43 584.179 1009.18 575.812 1010.11C570.451 1010.7 564.816 1011.43 559.387 1012.57" stroke="black" stroke-width="1.36936" stroke-linecap="round" stroke-linejoin="round"/>
<path d="M445.961 585.65C447.522 586.821 449.165 587.889 450.624 589.177C457.224 595.01 466.049 596.55 473.403 592.593C476.833 590.744 479.503 591.169 482.215 593.545" stroke="black" stroke-width="1.36936" stroke-linecap="round" stroke-linejoin="round"/>
<path d="M758.206 375.693C758.548 373.091 761.191 371.448 761.129 368.675C756.09 364.286 748.339 363.3 742.999 366.326C739.507 368.305 736.008 370.277 732.469 372.16C730.449 373.235 728.217 372.858 726.046 372.762C721.562 372.564 717.022 372.762 712.613 372.091C704.424 370.845 696.55 372.324 688.615 373.892C687.198 374.173 685.602 374.173 684.527 372.762" stroke="black" stroke-width="1.36936" stroke-linecap="round" stroke-linejoin="round"/>
<path d="M642.427 99.6504C642.036 100.041 641.694 100.705 641.249 100.78C626.782 103.19 618.264 114.556 608.07 123.21C605.077 125.757 601.503 128.208 598.532 128.53C589.734 129.482 582.887 134.473 575.157 137.595C570.611 139.43 567.311 144.072 561.73 143.504" stroke="black" stroke-width="1.36936" stroke-linecap="round" stroke-linejoin="round"/>
<path d="M640.678 481.542C640.596 480.029 639.24 479.885 638.336 479.844C627.833 479.351 617.187 478.187 607.93 485.054" stroke="black" stroke-width="1.36936" stroke-linecap="round" stroke-linejoin="round"/>
<path d="M659.968 204.92C643.234 206.597 626.391 206.905 609.706 205.748C599.942 205.071 590.925 207.111 581.613 208.425" stroke="black" stroke-width="1.36936" stroke-linecap="round" stroke-linejoin="round"/>
<path d="M133.712 296.152C139.648 305.519 134.417 313.721 131.61 322.547C129.2 330.126 126.639 338.198 129.618 346.449" stroke="black" stroke-width="1.36936" stroke-linecap="round" stroke-linejoin="round"/>
<path d="M317.313 690.918C319.456 696.183 321.585 701.455 323.756 706.7C324.255 707.905 324.639 709.356 325.543 710.157C329.212 713.396 328.939 716.169 326.234 720.256C322.119 726.487 319.155 733.464 315.505 740.009C314.019 742.673 312.493 745.699 308.535 745.302" stroke="black" stroke-width="1.36936" stroke-linecap="round" stroke-linejoin="round"/>
<path d="M641.844 672.787C649.094 674.786 655.133 678.716 660.618 683.831C663.644 686.652 667.129 689.089 671.662 689.185C678.091 689.315 680.124 687.59 681.014 680.976C685.376 678.545 690.716 680.031 695.05 677.47" stroke="black" stroke-width="1.36936" stroke-linecap="round" stroke-linejoin="round"/>
<path d="M634.828 569.854C635.581 574.379 632.39 576.974 629.494 579.117C621.839 584.786 615.027 591.263 609.741 599.137C603.353 608.661 594.329 614.364 583.949 618.397" stroke="black" stroke-width="1.36936" stroke-linecap="round" stroke-linejoin="round"/>
<path d="M415.554 795.598C411.193 798.603 409.283 803.362 407.503 807.929C406.037 811.694 405.291 815.871 402.593 818.904C400.142 821.663 402.593 825.224 400.348 827.764" stroke="black" stroke-width="1.36936" stroke-linecap="round" stroke-linejoin="round"/>
<path d="M675.176 652.316C681.434 656.062 685.884 661.909 691.498 666.414C694.121 668.516 696.661 670.775 695.209 675.178C694.251 678.081 698.263 679.649 698.859 682.435" stroke="black" stroke-width="1.36936" stroke-linecap="round" stroke-linejoin="round"/>
<path d="M63.5458 907.303C61.0468 913.718 62.4503 919.928 64.7577 926.001C65.8327 928.829 66.49 931.479 64.7098 934.204" stroke="black" stroke-width="1.36936" stroke-linecap="round" stroke-linejoin="round"/>
<path d="M293.344 676.881C298.191 677.6 303.052 678.49 307.962 678.011C313.521 677.47 316.986 679.722 318.492 685.07" stroke="black" stroke-width="1.36936" stroke-linecap="round" stroke-linejoin="round"/>
<path d="M639.501 544.125C630.607 550.753 623.233 559.051 614.941 566.35" stroke="black" stroke-width="1.36936" stroke-linecap="round" stroke-linejoin="round"/>
<path d="M383.394 973.97C381.004 978.934 375.794 979.037 371.665 979.578C364.962 980.461 357.999 980.324 351.248 979.653C346.051 979.133 342.381 973.498 336.616 974.025C332.81 974.374 329.66 973.135 326.668 971.047" stroke="black" stroke-width="1.36936" stroke-linecap="round" stroke-linejoin="round"/>
<path d="M477.536 696.764C476.735 704.494 473.955 711.382 468.766 717.236" stroke="black" stroke-width="1.36936" stroke-linecap="round" stroke-linejoin="round"/>
<path d="M922.513 668.102C916.625 671.059 909.306 668.286 903.801 672.778" stroke="black" stroke-width="1.36936" stroke-linecap="round" stroke-linejoin="round"/>
<path d="M58.2807 498.502C63.3268 490.916 65.2644 479.543 62.2655 474.34C58.6915 475.627 55.7611 477.852 54.9189 481.577C54.4396 483.706 52.9334 483.419 51.8516 484.179" stroke="black" stroke-width="1.36936" stroke-linecap="round" stroke-linejoin="round"/>
<path d="M595.059 472.191C601.05 471.732 604.096 475.676 605.418 480.42C606.965 485.966 609.711 492.06 604.384 497.311C602.645 499.023 601.063 500.584 602.919 503.754C613.346 498.784 624.794 499.174 635.982 497.921" stroke="black" stroke-width="1.36936" stroke-linecap="round" stroke-linejoin="round"/>
<path d="M687.449 15.4336C690.256 17.4602 693.735 16.7824 696.85 17.6109C698.904 18.1586 700.129 18.8912 700.903 20.6988" stroke="black" stroke-width="1.36936" stroke-linecap="round" stroke-linejoin="round"/>
<path d="M817.261 362.238C816.302 368.832 810.256 371.612 806.614 376.171C805.984 376.959 805.429 377.726 804.984 378.609" stroke="black" stroke-width="1.36936" stroke-linecap="round" stroke-linejoin="round"/>
<path d="M734.227 374.521C737.581 378.027 742.422 378.397 746.503 380.369" stroke="black" stroke-width="1.36936" stroke-linecap="round" stroke-linejoin="round"/>
<path d="M54.1836 483.885C55.4571 486.137 55.5119 488.342 54.9094 490.937C54.3753 493.237 54.1151 496.038 56.5252 497.921" stroke="black" stroke-width="1.36936" stroke-linecap="round" stroke-linejoin="round"/>
<path d="M875.15 124.799C874.37 128.113 873.589 131.427 872.809 134.74" stroke="black" stroke-width="1.36936" stroke-linecap="round" stroke-linejoin="round"/>
<path d="M127.281 457.566C129.568 460.476 130.28 464.365 133.128 466.926" stroke="black" stroke-width="1.36936" stroke-linecap="round" stroke-linejoin="round"/>
<path d="M331.934 431.254C336.274 430.836 337.849 435.335 341.286 436.519" stroke="black" stroke-width="1.36936" stroke-linecap="round" stroke-linejoin="round"/>
<path d="M132.539 451.137C135.367 453.971 139.071 455.984 140.728 459.907" stroke="black" stroke-width="1.36936" stroke-linecap="round" stroke-linejoin="round"/>
<path d="M738.914 369.846C740.92 373.557 744.741 375.33 747.685 378.034" stroke="black" stroke-width="1.36936" stroke-linecap="round" stroke-linejoin="round"/>
<path d="M542.436 298.496C539.348 299.249 540.087 305.11 535.418 303.761" stroke="black" stroke-width="1.36936" stroke-linecap="round" stroke-linejoin="round"/>
</g>
<defs>
<clipPath id="clip0_1019_7919">
<rect width="1708" height="1130" fill="white"/>
</clipPath>
</defs>
</svg>
