<svg width="1040" height="1387" viewBox="0 0 1040 1387" fill="none" xmlns="http://www.w3.org/2000/svg">
<path d="M490.182 927.965C487.616 928.749 488.458 931.431 488.337 932.74C486.694 950.889 483.237 968.867 482.727 987.113C482.323 1001.86 485.058 1016.32 488.288 1030.58C490.49 1040.28 490.894 1050.12 491.987 1059.88C493.047 1069.32 495.281 1078.46 497.143 1087.69C497.572 1089.81 497.604 1091.82 497.613 1093.84C497.702 1110.38 496.479 1127.03 497.969 1143.44C499.733 1162.93 499.571 1182.52 501.805 1201.93C504.266 1223.26 506.986 1244.57 510.053 1265.82C510.879 1271.52 510.968 1278.14 517.403 1281.48" stroke="black" stroke-width="2" stroke-linecap="round" stroke-linejoin="round"/>
<path d="M545.345 566.962C547.231 563.334 545.385 559.649 545.126 556.102C544.811 551.852 539.647 548.894 535.964 550.923C534.021 551.989 531.998 552.215 530.33 552.49C519.257 554.3 512.159 559.746 509.059 570.994C507.221 577.66 501.839 582.363 496.359 586.743C480.575 599.348 462.42 609.076 448.805 624.227C442.055 631.742 432.285 635.434 426.571 644.299C423.325 649.333 421.917 654.189 422.904 659.409C425.705 674.236 425.373 689.92 434.851 703.067C436.697 705.628 436.211 709.789 437.093 713.135C440.169 724.746 447.939 733.82 454.172 743.686C459.207 751.653 465.318 758.942 470.336 766.917C474.877 774.141 478.989 782.326 478.827 790.641C478.689 797.743 477.014 805.298 475.063 812.369C470.676 828.279 468.232 844.553 464.929 860.665C462.501 872.51 459.498 884.235 456.851 896.04C456.357 898.246 456.406 900.573 456.123 902.828C455.605 906.973 458.332 909.122 461.562 908.791C471.566 907.765 478.341 913.526 483.861 919.99C492.061 929.606 502.664 934.373 514.037 938.13C532.362 944.191 549.619 952.958 567.863 959.131C579.672 963.131 591.498 967.615 604.651 964.206C610.713 962.638 617.286 964.513 623.713 962.8C633.28 960.254 637.91 955.301 637.983 945.653C637.999 943.375 637.538 941.031 639.108 938.809C643.365 938.163 642.111 942.478 642.507 944.344C643.147 947.334 642.936 950.857 641.941 953.774C638.477 963.939 641.285 973.781 642.71 983.728C643.325 988.01 644.644 992.519 643.9 996.608C642.135 1006.24 645.462 1015.26 646.522 1024.48C646.992 1028.57 648.173 1032.99 647.275 1036.7C644.717 1047.22 646.838 1057.31 649.031 1067.32C650.788 1075.37 650.998 1083.14 647.396 1090.41C642.775 1099.75 643.082 1109.88 641.18 1119.66C639.585 1127.86 640.597 1135.56 641.989 1143.51C644.329 1156.87 640.711 1170.21 641.31 1183.61C641.585 1189.82 642.459 1195.67 645.381 1201.32C649.622 1209.51 646.368 1223.33 638.574 1229.05C632.859 1233.23 626.724 1237.29 620.143 1239.7C616.29 1241.1 611.183 1242.55 606.577 1239.45C604.23 1237.88 601.195 1237.58 598.475 1239.36" stroke="black" stroke-width="2" stroke-linecap="round" stroke-linejoin="round"/>
<path d="M568.504 1042.17C571.62 1049.57 571.442 1057.6 572.397 1065.31C574.575 1082.98 578.468 1100.31 582.394 1117.58C585 1129.03 584.182 1140.31 584.02 1151.63C583.77 1169.76 580.143 1187.83 583.405 1206.03C583.996 1209.33 583.656 1212.83 583.454 1216.21C583.162 1221.09 584.684 1225.18 588.27 1228.44C594.519 1234.11 598.711 1240.16 598.064 1249.54C597.457 1258.31 602.305 1262.32 611.411 1263.1C618.558 1263.7 625.179 1261.95 630.433 1256.96C637.871 1249.89 645.253 1242.73 652.198 1235.19C659.215 1227.57 659.41 1217.55 659.515 1208.06C659.58 1202.26 652.562 1198.8 646.815 1200.59" stroke="black" stroke-width="2" stroke-linecap="round" stroke-linejoin="round"/>
<path d="M538.538 705.652C545.928 696.133 555.342 695.6 565.783 699.527C570.081 701.143 574.46 702.565 578.71 704.327C585.136 706.985 588.738 706.355 591.604 700.868C598.84 686.995 607.015 673.662 610.908 658.116C616.777 634.699 605.453 615.185 585.549 605.674C583.242 604.567 580.968 605.068 578.718 605.109C574.355 605.19 569.992 605.173 566.495 602.265C562.456 598.903 558.393 601.755 554.937 602.555C536.126 606.911 522.172 625.099 521.929 643.781C521.735 659.32 525.612 673.395 531.634 687.334C533.787 692.303 535.406 697.628 536.345 702.953C537.251 708.076 540.456 709.385 544.665 709.7C558.053 710.686 571.473 711.284 584.829 712.577C590.203 713.094 595.376 714.379 600.038 718.314C603.47 721.207 608.82 722.063 613.458 723.275C632.584 728.261 645.414 740.389 655.192 757.204C662.306 769.446 665.414 782.463 668.142 796.03C670.287 806.704 669.405 817.499 671.064 827.963C672.4 836.367 673.662 844.746 673.921 853.19C674.156 860.769 673.557 868.656 670.384 875.5C667.964 880.728 660.121 881.811 653.597 880.469C645.058 878.708 637.222 875.088 629.096 872.219" stroke="black" stroke-width="2" stroke-linecap="round" stroke-linejoin="round"/>
<path d="M479.969 791.99C485.416 802.188 491.244 812.199 496.246 822.615C511.957 855.364 537.041 878.651 568.43 896.137C581.454 903.393 594.437 910.488 608.674 915.077C609.905 915.473 611.07 916.265 612.074 917.097C619.132 922.94 628.092 926.042 634.568 932.717" stroke="black" stroke-width="2" stroke-linecap="round" stroke-linejoin="round"/>
<path d="M579.397 727.404C572.914 739.808 567.798 752.332 566.746 766.804C565.88 778.763 563.217 790.988 556.264 801.517C555.883 802.099 555.932 802.963 555.543 803.529C547.627 814.874 544.179 815.205 533.746 806.3C526.073 799.747 523.102 790.616 519.476 781.793C514.716 770.23 509.917 758.691 505.206 747.112C504.348 745.011 502.802 743.654 501.094 742.369C494.003 749.019 497.97 757.487 499.467 764.024C506.298 793.727 516.886 822.194 535.235 846.993C547.142 863.081 562.14 876.332 577.438 889.123C581.153 892.226 584.812 895.345 588.26 898.731" stroke="black" stroke-width="2" stroke-linecap="round" stroke-linejoin="round"/>
<path d="M567.141 1042.17C563.612 1052.06 561.702 1062.27 561.718 1072.76C561.742 1087.41 561.847 1102.07 557.533 1116.25C555.599 1122.6 554.069 1128.5 555.971 1135.39C557.315 1140.24 556.23 1145.74 554.976 1150.97C551.374 1165.99 554.077 1180.72 558.399 1195.11C562.082 1207.39 563.952 1219.96 565.652 1232.55C566.825 1241.27 568.881 1249.78 570.622 1258.35C572.014 1265.21 571.56 1271.27 565.781 1276.04" stroke="black" stroke-width="2" stroke-linecap="round" stroke-linejoin="round"/>
<path d="M543.305 568.319C539.752 571.495 537.51 575.446 535.753 579.85C533.374 585.805 529.383 590.338 522.876 592.116C513.122 594.774 507.715 602.418 501.645 609.69C492.514 620.631 486.314 633.519 477.346 644.541C475.185 647.199 472.845 649.575 470.441 651.942" stroke="black" stroke-width="2" stroke-linecap="round" stroke-linejoin="round"/>
<path d="M526.276 713.127C532.039 723.373 535.43 734.516 538.514 745.763C539.056 747.751 540.465 750.418 537.146 751.088C534.58 751.605 533.795 749.383 533.018 747.145C529.537 737.117 525.83 727.179 522.156 717.224C521.953 716.674 521.281 716.303 520.828 715.85" stroke="black" stroke-width="2" stroke-linecap="round" stroke-linejoin="round"/>
<path d="M515.381 1288.28C513.058 1291.75 516.198 1294.68 517.655 1296.22C521.783 1300.61 524.543 1305.82 527.457 1310.83C530.403 1315.87 533.56 1317.44 539.25 1316.3C544.795 1315.19 550.598 1315.47 556.24 1314.74C562.934 1313.88 566.568 1309.47 564.966 1303.28C563.161 1296.32 563.662 1289.66 565.079 1282.84C566.269 1277.1 563.517 1273.07 558.976 1269.93C554.386 1266.76 549.959 1264.84 543.929 1267.04C536.336 1269.8 529.335 1273.3 522.852 1278.05C519.59 1280.44 516.279 1282.63 515.389 1286.93" stroke="black" stroke-width="2" stroke-linecap="round" stroke-linejoin="round"/>
<path d="M516.06 893.972C510.831 895.741 514.724 899.159 515.574 900.662C519.201 907.038 523.053 913.429 527.748 919.037C536.563 929.565 545.733 939.771 558.182 946.51C561.566 948.336 565.038 949.621 568.494 951.083" stroke="black" stroke-width="2" stroke-linecap="round" stroke-linejoin="round"/>
<path d="M535.129 711.09C541.807 718.095 550.216 720.423 559.646 720.673C569.643 720.94 579.598 721.885 589.627 720.722C592.938 720.334 596.256 720.568 599.146 718.564" stroke="black" stroke-width="2" stroke-linecap="round" stroke-linejoin="round"/>
<path d="M633.199 831.422C635.312 833.208 637.328 832.771 640.047 832.327C648.344 830.986 656.114 832.933 663.545 839.098C657.603 841.037 652.658 843.227 647.478 844.197C640.897 845.425 636.251 849.764 631.297 853.368C627.671 856.002 629.857 860.559 631.249 864.018C632.77 867.791 636.235 866.555 638.582 865.294C642.508 863.186 646.968 863.678 650.901 862.014" stroke="black" stroke-width="2" stroke-linecap="round" stroke-linejoin="round"/>
<path d="M665.205 881.051C660.963 894.036 655.929 906.714 650.238 919.133C649.648 920.426 648.563 922.147 648.976 923.157C652.278 931.318 646.054 934.672 641.367 938.841" stroke="black" stroke-width="2" stroke-linecap="round" stroke-linejoin="round"/>
<path d="M489.504 833.467C495.048 854.484 503.353 874.369 514.021 893.293" stroke="black" stroke-width="2" stroke-linecap="round" stroke-linejoin="round"/>
<path d="M460.219 673.017C452.189 668.378 436.147 672.944 432.407 681.226C431.428 683.392 432.391 685.856 435.693 685.21C438.008 684.757 440.679 684.466 442.436 683.117C449.939 677.356 457.588 672.435 467.706 674.374" stroke="black" stroke-width="2" stroke-linecap="round" stroke-linejoin="round"/>
<path d="M490.182 694.776C480.947 696.344 476.689 703.834 471.946 710.525C471.064 711.777 470.562 713.151 469.089 713.862C465.56 704.351 468.336 700.295 486.775 687.981C486.321 686.171 485.868 684.353 485.35 682.3C484.759 682.171 484.055 681.848 483.367 681.888C481.319 682.026 479.231 682.721 477.24 682.47C459.238 680.24 443.6 696.352 445.681 714.516C446.012 717.393 449.711 722.435 443.188 724.011" stroke="black" stroke-width="2" stroke-linecap="round" stroke-linejoin="round"/>
<path d="M517.43 894.65C529.822 913.332 545.241 929.25 562.344 943.633C564.166 945.168 565.558 947.221 567.144 949.031" stroke="black" stroke-width="2" stroke-linecap="round" stroke-linejoin="round"/>
<path d="M543.984 1273.33C543.457 1279.89 542.591 1286.41 542.413 1293.03C542.284 1298.14 540.074 1303.01 533.388 1303.97C526.176 1300.31 524.557 1290.24 516.059 1287.6" stroke="black" stroke-width="2" stroke-linecap="round" stroke-linejoin="round"/>
<path d="M633.88 814.429C638.348 803.771 641.124 792.798 640.606 780.112C635.548 783.692 634.73 788.209 633.888 792.677C631.169 807.109 632.577 821.669 632.326 836.181C632.253 840.416 631.071 844.739 631.152 849.102" stroke="black" stroke-width="2" stroke-linecap="round" stroke-linejoin="round"/>
<path d="M654.99 1227.1C647.382 1233.8 638.713 1239.23 631.808 1246.79C621.246 1258.34 615.418 1261.34 599.148 1251.57" stroke="black" stroke-width="2" stroke-linecap="round" stroke-linejoin="round"/>
<path d="M546.023 896.008C560.099 902.804 574.806 908.573 588.048 916.718C599.38 923.691 611.497 928.911 622.983 935.416C631.838 940.434 637.156 936.733 638.143 926.616C639.382 913.922 633.19 903.628 629.037 892.631C627.58 888.784 626.836 885.245 627.564 881.019C628.317 876.672 626.569 872.365 625.549 868.01C623.493 859.291 622.101 849.7 627.038 840.925C628.123 838.994 628.05 836.489 629.79 834.824" stroke="black" stroke-width="2" stroke-linecap="round" stroke-linejoin="round"/>
<path d="M555.559 902.125C557.525 908.492 564.017 909.793 568.671 911.959C576.183 915.449 583.208 921.211 592.339 920.483" stroke="black" stroke-width="2" stroke-linecap="round" stroke-linejoin="round"/>
<path d="M442.516 632.227C448.028 639.305 454.641 645.123 462.201 649.995C464.621 651.555 466.887 652.969 469.753 653.3" stroke="black" stroke-width="2" stroke-linecap="round" stroke-linejoin="round"/>
<path d="M457.5 659.424C452.279 661.784 447.091 658.333 441.821 659.352C439.239 659.852 436.277 658.721 434.27 662.18C443.626 666.664 453.574 666.22 463.627 664.862" stroke="black" stroke-width="2" stroke-linecap="round" stroke-linejoin="round"/>
<path d="M653.628 803.553C649.605 813.653 644.166 822.76 635.238 829.385" stroke="black" stroke-width="2" stroke-linecap="round" stroke-linejoin="round"/>
<path d="M536.498 708.367C530.848 713.256 521.402 713.32 514.813 707.567C510.321 703.64 504.671 701.168 501.037 696.166C498.649 692.877 494.797 694.461 491.551 694.089" stroke="black" stroke-width="2" stroke-linecap="round" stroke-linejoin="round"/>
<path d="M441.148 650.585C450.781 652.136 459.02 656.362 465.569 663.594C466.2 664.289 466.71 664.216 467.009 664.128C467.964 663.837 468.847 663.279 469.753 662.827" stroke="black" stroke-width="2" stroke-linecap="round" stroke-linejoin="round"/>
<path d="M503.805 701.572C495.581 706.21 491.615 713.176 492.23 722.646" stroke="black" stroke-width="2" stroke-linecap="round" stroke-linejoin="round"/>
<path d="M515.378 709.732C511.574 715.841 509.194 722.2 511.647 729.885C515.225 725.15 514.553 719.001 518.786 715.17" stroke="black" stroke-width="2" stroke-linecap="round" stroke-linejoin="round"/>
<path d="M509.932 705.652C501.894 708.173 498.284 715.292 493.59 721.288" stroke="black" stroke-width="2" stroke-linecap="round" stroke-linejoin="round"/>
<path d="M633.88 875.613C632.755 881.471 633.322 887.588 631.152 893.293" stroke="black" stroke-width="2" stroke-linecap="round" stroke-linejoin="round"/>
<path d="M548.754 1273.33C550.64 1278.61 551.749 1284.06 552.129 1289.65C552.461 1294.57 554.153 1298.49 558.799 1300.78C560.377 1299.68 561.721 1298.75 563.056 1297.81" stroke="black" stroke-width="2" stroke-linecap="round" stroke-linejoin="round"/>
<path d="M564.415 1277.41C561.315 1279.2 558.701 1277.53 556.264 1276.01C546.754 1270.04 541.881 1270.78 535.131 1279.44C530.954 1284.8 530.266 1284.87 520.828 1280.8" stroke="black" stroke-width="2" stroke-linecap="round" stroke-linejoin="round"/>
<path d="M469.074 666.221C472.344 669.542 474.878 673.533 479.216 675.869C480.94 676.798 483.182 678.349 482.689 681.177" stroke="black" stroke-width="2" stroke-linecap="round" stroke-linejoin="round"/>
<path d="M636.605 856.576C643.793 859.962 651.442 859.566 659.083 859.299" stroke="black" stroke-width="2" stroke-linecap="round" stroke-linejoin="round"/>
<path d="M609.363 1241.37V1252.92" stroke="black" stroke-width="2" stroke-linecap="round" stroke-linejoin="round"/>
<path d="M532.412 564.926C534.565 564.982 534.055 566.962 533.674 567.584C532.331 569.774 530.59 571.721 529.004 573.766" stroke="black" stroke-width="2" stroke-linecap="round" stroke-linejoin="round"/>
<path d="M470.434 654.666C473.242 656.928 470.774 659.199 470.434 661.462" stroke="black" stroke-width="2" stroke-linecap="round" stroke-linejoin="round"/>
</svg>
